<svg xmlns="http://www.w3.org/2000/svg" xmlns:xlink="http://www.w3.org/1999/xlink" viewBox="0 0 52 52"><defs><filter id="a" x="-37.5" y="-26" width="175" height="175" name="filter-2"><feOffset result="shadowOffsetOuter1" dy="6" in="SourceAlpha"/><feGaussianBlur result="shadowBlurOuter1" stdDeviation="5.5" in="shadowOffsetOuter1"/><feColorMatrix values="0 0 0 0 0 0 0 0 0 0 0 0 0 0 0 0 0 0 0.05 0" in="shadowBlurOuter1"/></filter></defs><title>calc-cta-icon</title><g filter="url(#a)"><rect width="52" height="52" rx="5"/></g><rect width="52" height="52" rx="5" fill="#fff"/><path d="M22.375,11.5H13.312A1.812,1.812,0,0,0,11.5,13.312v9.063a1.813,1.813,0,0,0,1.812,1.813h9.063a1.813,1.813,0,0,0,1.813-1.813V13.312A1.813,1.813,0,0,0,22.375,11.5Zm-.906,6.8a.453.453,0,0,1-.453.453H14.672a.453.453,0,0,1-.453-.453v-.906a.453.453,0,0,1,.453-.453h6.344a.453.453,0,0,1,.453.453Zm.906,9.515H13.312A1.813,1.813,0,0,0,11.5,29.625v9.063A1.812,1.812,0,0,0,13.312,40.5h9.063a1.813,1.813,0,0,0,1.813-1.812V29.625A1.813,1.813,0,0,0,22.375,27.812Zm-1.648,7.947a.452.452,0,0,1,0,.64l-.64.641a.453.453,0,0,1-.641,0l-1.6-1.6-1.6,1.6a.452.452,0,0,1-.64,0L14.96,36.4a.452.452,0,0,1,0-.64l1.6-1.6-1.6-1.6a.453.453,0,0,1,0-.641l.64-.64a.453.453,0,0,1,.641,0l1.6,1.6,1.6-1.6a.453.453,0,0,1,.641,0l.64.641a.452.452,0,0,1,0,.64l-1.6,1.6ZM38.688,11.5H29.625a1.813,1.813,0,0,0-1.813,1.812v9.063a1.813,1.813,0,0,0,1.813,1.813h9.063A1.813,1.813,0,0,0,40.5,22.375V13.312A1.812,1.812,0,0,0,38.688,11.5Zm-.907,6.8a.453.453,0,0,1-.453.453H35.062v2.266a.453.453,0,0,1-.453.453H33.7a.453.453,0,0,1-.453-.453V18.75H30.984a.453.453,0,0,1-.453-.453v-.906a.453.453,0,0,1,.453-.453H33.25V14.672a.453.453,0,0,1,.453-.453h.906a.453.453,0,0,1,.453.453v2.266h2.266a.453.453,0,0,1,.453.453Z" fill="#41d1d6" opacity="0.4" style="isolation:isolate"/><path d="M20.727,31.913l-.64-.641a.453.453,0,0,0-.641,0l-1.6,1.6-1.6-1.6a.453.453,0,0,0-.641,0l-.64.64a.453.453,0,0,0,0,.641l1.6,1.6-1.6,1.6a.452.452,0,0,0,0,.64l.641.641a.452.452,0,0,0,.64,0l1.6-1.6,1.6,1.6a.453.453,0,0,0,.641,0l.64-.641a.452.452,0,0,0,0-.64l-1.6-1.6,1.6-1.6A.452.452,0,0,0,20.727,31.913ZM30.984,18.75H33.25v2.266a.453.453,0,0,0,.453.453h.906a.453.453,0,0,0,.453-.453V18.75h2.266a.453.453,0,0,0,.453-.453v-.906a.453.453,0,0,0-.453-.453H35.062V14.672a.453.453,0,0,0-.453-.453H33.7a.453.453,0,0,0-.453.453v2.266H30.984a.453.453,0,0,0-.453.453V18.3A.453.453,0,0,0,30.984,18.75Zm-9.968-1.812H14.672a.453.453,0,0,0-.453.453V18.3a.453.453,0,0,0,.453.453h6.344a.453.453,0,0,0,.453-.453v-.906A.453.453,0,0,0,21.016,16.938ZM38.688,27.812H29.625a1.813,1.813,0,0,0-1.813,1.813v9.063A1.813,1.813,0,0,0,29.625,40.5h9.063A1.812,1.812,0,0,0,40.5,38.688V29.625A1.813,1.813,0,0,0,38.688,27.812Zm-.907,8.61a.453.453,0,0,1-.453.453H30.984a.453.453,0,0,1-.453-.453v-.906a.453.453,0,0,1,.453-.454h6.344a.453.453,0,0,1,.453.454Zm0-3.625a.453.453,0,0,1-.453.453H30.984a.453.453,0,0,1-.453-.453v-.906a.453.453,0,0,1,.453-.453h6.344a.453.453,0,0,1,.453.453Z" fill="#41d1d6"/></svg>