<svg xmlns="http://www.w3.org/2000/svg" xmlns:xlink="http://www.w3.org/1999/xlink" width="38" height="36"><defs><path id="a" d="M0.115 0.137L38.331 0.137 38.331 21.844 0.115 21.844z"/><path id="c" d="M0 0.134L12.835 0.134 12.835 6.043 0 6.043z"/><path id="e" d="M0 0.062L12.835 0.062 12.835 5.542 0 5.542z"/></defs><g fill="none" fill-rule="evenodd"><g transform="translate(1.364 14.38)"><mask id="b" fill="#fff"><use xlink:href="#a"/></mask><path fill="#2A2C37" d="M11.58 20.996L35.29 7.428a2 2 0 0 0-.003-3.474L28.584.137 3.198 14.454a2 2 0 0 0-.003 3.483l5.416 3.066a3 3 0 0 0 2.968-.007z" mask="url(#b)" opacity=".3"/></g><g transform="translate(.425 -.183)"><path fill="#000" d="M14.824 30.822c-.08.676.283 1.276.812 1.338.53.063 1.023-.434 1.104-1.11.08-.676-.284-1.275-.813-1.338-.529-.063-1.023.434-1.103 1.11"/><path fill="#FFF" d="M15.454 30.882c-.028.233.098.439.28.46.181.022.351-.149.379-.381.027-.233-.098-.439-.28-.46-.182-.022-.351.149-.379.381"/><path fill="#000" d="M29.48 22.076c-.08.677.284 1.276.813 1.339.53.062 1.023-.435 1.104-1.11.08-.677-.284-1.276-.813-1.34-.53-.062-1.023.435-1.104 1.111"/><path fill="#FFF" d="M30.111 22.136c-.028.233.097.439.28.46.181.022.351-.149.379-.381.027-.233-.098-.439-.28-.46-.182-.022-.352.15-.379.381"/><path fill="#C81E2D" d="M13.349 17.069L3.676 11.177 3.676 26.622 13.349 32.166z"/><path fill="#E82233" d="M13.349 17.069L13.349 32.166 32.616 20.881 32.616 6.022z"/><path fill="#F85B4F" d="M28.028 8.733L13.349 17.069 3.676 11.137 22.468 0.196 32.616 6.128z"/><path fill="#C81E2D" d="M0.215 23.863L0.215 27.801 7.986 32.718 7.986 28.71"/><path fill="#F85B4F" d="M9.249 24.592L12.202 22.952 4.362 18.098 1.592 19.714"/><path fill="#B8ECFF" d="M7.963 28.714L9.249 24.592"/><path fill="#E82233" d="M12.202 23.206L12.202 30.407 7.944 32.722 7.972 28.75 9.259 24.629 12.202 22.952z"/><path fill="#E83E42" d="M9.259 24.629L7.963 28.714 0.191 23.867 1.592 19.714z"/><path fill="#121279" d="M2.073 20.689L1.689 20.442 0.667 23.591 7.809 27.985 7.814 27.97 7.963 27.592 1.17 23.472z"/><path fill="#2227A5" d="M2.073 20.689L1.17 23.472 7.963 27.592 8.749 24.979z"/><path stroke="#C81E2D" stroke-width=".5" d="M11.687 26.804L11.687 28.973 8.651 30.739 8.651 28.507"/></g><g transform="translate(.19 2.166)"><path fill="#F99F00" d="M1.31 24.369c.058.306.251.521.434.484.185-.037.294-.318.24-.63-.053-.317-.253-.542-.442-.498-.187.043-.29.333-.231.644"/><path fill="#F0AD5F" d="M1.14 24.401c.057.306.25.521.433.484.185-.037.293-.318.24-.63-.054-.317-.253-.542-.442-.498-.187.043-.29.333-.232.644"/><path fill="#F99F00" d="M6.867 28.067c.057.306.25.521.434.484.185-.037.293-.318.24-.63-.054-.317-.253-.542-.442-.498-.188.043-.29.333-.232.644"/><path fill="#F0AD5F" d="M6.696 28.1c.057.305.25.52.433.483.185-.037.294-.318.24-.63-.053-.317-.252-.542-.442-.498-.187.043-.29.333-.231.644"/><g transform="translate(0 24.898)"><mask id="d" fill="#fff"><use xlink:href="#c"/></mask><path fill="#121279" mask="url(#d)" d="M0 0.134L8.023 5.198 12.835 2.631 12.835 3.546 8.042 6.043 0 0.882z"/></g><path fill="#F99F00" d="M4.32 28.311L2.575 27.169 2.575 27.994 4.32 29.104z"/><g transform="translate(0 24.663)"><mask id="f" fill="#fff"><use xlink:href="#e"/></mask><path fill="#2227A5" mask="url(#f)" d="M0 0.369L0.426 0.062 8.179 4.99 12.437 2.634 12.835 2.861 8.197 5.542z"/></g><path fill="#121279" d="M11.985 24.443L11.896 21.491 11.652 21.63 11.731 24.264 9.87 25.292 8.974 25.788 8.843 26.18 9.913 25.589z"/><path fill="#2227A5" d="M11.652 21.63L10.05 22.541 8.974 25.788 11.731 24.264z"/><path stroke="#C81E2D" stroke-linecap="round" stroke-linejoin="round" stroke-width=".5" d="M11.679 25.323L11.097 25.64"/><path stroke="#C81E2D" stroke-width=".5" d="M2.628 24.006L6.132 26.143"/><path stroke="#C81E2D" stroke-width=".5" d="M2.69 24.787L5.607 26.559"/><path stroke="#C81E2D" stroke-width=".5" d="M3.074 25.765L5 26.93"/><path fill="#C81E2D" d="M14.335 15.408L32.165 5.099 32.165 18.131 14.335 28.57z"/><path stroke="#981822" stroke-linecap="round" stroke-linejoin="round" stroke-width=".829" d="M18.511 11.874L9.194 5.772"/><path stroke="#981822" stroke-linecap="round" stroke-linejoin="round" stroke-width=".829" d="M18.511 26.046L18.511 11.874"/><path stroke="#981822" stroke-linecap="round" stroke-linejoin="round" stroke-width=".829" d="M23.584 8.971L14.267 2.869"/><path stroke="#981822" stroke-linecap="round" stroke-linejoin="round" stroke-width=".829" d="M23.584 23.143L23.584 8.971"/><path stroke="#981822" stroke-linecap="round" stroke-linejoin="round" stroke-width=".829" d="M28.113 6.335L18.796 0.233"/><path stroke="#981822" stroke-linecap="round" stroke-linejoin="round" stroke-width=".829" d="M28.113 20.507L28.113 6.335"/><path fill="#2227A5" d="M0.902 21.243L2.126 20.261 3.543 19.125 1.923 18.093z"/></g></g></svg>