<svg width="14" height="14" viewBox="0 0 14 14" fill="none" xmlns="http://www.w3.org/2000/svg">
<path d="M7.24391 1.44238L7.75302 0.933266L7.24391 0.424149L6.73479 0.933266L7.24391 1.44238ZM7.75302 1.9515L7.24391 2.46062L7.24391 2.46062L7.75302 1.9515ZM6.22567 2.46062L5.71656 1.9515L5.20744 2.46062L5.71656 2.96973L6.22567 2.46062ZM6.73479 2.96973L7.24391 2.46062L7.24391 2.46062L6.73479 2.96973ZM10.1098 6.34471V7.06471H11.848L10.6189 5.83559L10.1098 6.34471ZM1 6.34471V5.62471H0.28V6.34471H1ZM1 7.78471H0.28V8.50471H1V7.78471ZM10.1098 7.78471L10.6189 8.29382L11.848 7.06471H10.1098V7.78471ZM6.22567 11.6688L5.71656 11.1597L5.20744 11.6688L5.71656 12.1779L6.22567 11.6688ZM7.24391 12.687L6.73479 13.1961L7.24391 13.7053L7.75302 13.1961L7.24391 12.687ZM7.75302 12.1779L7.24391 11.6688H7.24391L7.75302 12.1779ZM12.3571 7.57382L12.8662 8.08294V8.08294L12.3571 7.57382ZM12.8662 7.06471L13.3753 7.57382L13.8845 7.06471L13.3753 6.55559L12.8662 7.06471ZM12.3571 6.55559L12.8662 6.04647V6.04647L12.3571 6.55559ZM6.73479 1.9515L7.24391 2.46062L8.26214 1.44238L7.75302 0.933266L6.73479 1.9515ZM6.73479 2.96973L7.75302 1.9515L6.73479 0.933266L5.71656 1.9515L6.73479 2.96973ZM7.24391 2.46062L6.73479 1.9515L5.71656 2.96973L6.22567 3.47885L7.24391 2.46062ZM10.6189 5.83559L7.24391 2.46062L6.22567 3.47885L9.60065 6.85382L10.6189 5.83559ZM1.72 7.06471H10.1098V5.62471H1.72V7.06471ZM1 7.06471H1.72V5.62471H1V7.06471ZM1.72 7.78471V6.34471H0.28V7.78471H1.72ZM1.72 7.06471H1V8.50471H1.72V7.06471ZM10.1098 7.06471H1.72V8.50471H10.1098V7.06471ZM7.24391 11.6688L10.6189 8.29382L9.60065 7.27559L6.22567 10.6506L7.24391 11.6688ZM6.73479 12.1779L7.24391 11.6688L6.22567 10.6506L5.71656 11.1597L6.73479 12.1779ZM7.75302 12.1779L6.73479 11.1597L5.71656 12.1779L6.73479 13.1961L7.75302 12.1779ZM7.24391 11.6688L6.73479 12.1779L7.75302 13.1961L8.26214 12.687L7.24391 11.6688ZM11.848 7.06471L7.24391 11.6688L8.26214 12.687L12.8662 8.08294L11.848 7.06471ZM12.3571 6.55559L11.848 7.06471L12.8662 8.08294L13.3753 7.57382L12.3571 6.55559ZM11.848 7.06471L12.3571 7.57382L13.3753 6.55559L12.8662 6.04647L11.848 7.06471ZM7.24391 2.46062L11.848 7.06471L12.8662 6.04647L8.26214 1.44238L7.24391 2.46062Z" fill="#41D1D6"/>
</svg>
