<svg xmlns="http://www.w3.org/2000/svg" width="44" height="36"><g fill="none" fill-rule="evenodd"><path fill="#2A2C37" d="M30.774 10.954l-.785 2.29-.082.045.867-2.335zM41.45 25.858l-13.605-3.45 2.171-1.265 3.552-3.585 3.67-.068c.857-.024 2.45-.39 3.565-.925.295-.142.509-.293.518-.289.005.003-.026-.372-.026-.372l-.077-.022c-.638-.186-5.081-1.507-5.946-1.765l.121-10.364-2.685 1.558-1.934 5.643-1.208-1.852-.345.389c-.36.405-.508.956-.4 1.488l.535 2.62-10.934 6.166-9.426-9.22c-2.272 1.469-1.386 3.942-1.386 3.942l2.402 4.872-1.63 1.11.004.014c-.451.191-.754.765-.708 1.421.054.78.581 1.38 1.176 1.338a.907.907 0 0 0 .583-.281l1.78-1.16.74 1.505-7.48 4.24s-.605.632-1.46 1.62l-.007.008a55.682 55.682 0 0 0-1.812 2.2l-.062.084-.192.234-.003.046c-1.225 1.922.338 2.951.338 2.951.255.206.545.352.858.45l-.005.007c.114.032.23.058.346.08.465.094.966.102 1.466.056l.138-.015.054-.005c1.762-.199 3.372-1.003 3.385-1.01h.001l.002-.001 5.598-3.263v.002l3.863-2.152v-.1l3.403-1.984c-.04.17-.057.352-.044.543.055.78.582 1.379 1.177 1.337.343-.024.633-.257.808-.598l2.483-1.676-2.939-.4a1.081 1.081 0 0 0-.06-.037l.08-.046 14.734 2.095c1.085-.005 2.194-.531 2.194-.531 1.498-.51 2.629-1.583 2.629-1.583z" opacity=".3"/><g transform="translate(2.319 .642)"><path fill="#CCEAFB" d="M34.998.04l-.138 11.786-5.143 5.358-22.59 13.355s-4.24 2.056-6.243.438c0 0-1.762-1.158-.082-3.314a56.163 56.163 0 0 1 3.28-3.83l7.48-4.24-4.347-8.818S6.328 8.301 8.6 6.832l9.426 9.22 11.566-6.521 2.72-7.932L34.997.041z"/><path fill="#4C84D3" d="M30.378 7.242L29.171 5.39l-.345.389c-.36.405-.509.956-.4 1.487l.535 2.622.534-.266.883-2.38z"/><path fill="#94D5FF" d="M1.737 31.434l4.816-6.248 28.3-15.967-.041 2.93-.317.186c.115-.065.222-.126.317-.182v.04l-5.191 5.238L7.127 30.539s-3.081 1.546-5.39.895"/><path fill="#0F187F" d="M35.48 11.756c-.019.013-.254.152-.668.397v-.004l.669-.393z"/><path fill="#236BC9" d="M34.772 10.944s4.686.822 6.127 1.248c0 0 .031.374.027.372-.01-.004-.224.146-.519.288-1.114.536-2.707.902-3.564.926l-5.78.107-.06-.853 3.769-2.088z"/><path fill="#CCEAFB" d="M20.726 16.99l20.329 5.156s-1.707 1.618-3.703 1.824l-23.116-3.89.463-2.33 3.322-.05 2.705-.71zm14.005-6.628s6.197 1.844 6.168 1.83a6.68 6.68 0 0 0-.521.24c-1.115.535-2.34.799-3.576.764l-5.8-.164 3.73-2.67z"/><path stroke="#0A4185" stroke-width=".1" d="M16.589 25.125L16.589 21.13 12.728 23.182 12.727 27.278"/><path fill="#236BC9" d="M38.426 23.728s-1.11.527-2.195.531l-20.857-2.965-.096-1.03 23.148 3.464zM5.179 26.964s-1.827-.51-2.558-1.51L.55 27.978s-.196 1.799 2.05 2.34l2.58-3.355"/><path fill="#0A4185" d="M11.177 24.478c0 .403.215.729.48.729s.48-.326.48-.729c0-.402-.215-.728-.48-.728s-.48.326-.48.728m-1.652.817c0 .403.215.729.48.729s.48-.326.48-.729c0-.402-.215-.728-.48-.728s-.48.326-.48.728m14.863-8.209c0 .403.214.729.48.729.264 0 .479-.326.479-.729 0-.402-.215-.728-.48-.728s-.48.326-.48.728m1.992-1.235c0 .403.215.729.48.729s.48-.326.48-.729c0-.402-.215-.728-.48-.728s-.48.326-.48.728m1.992-.977c0 .403.215.729.48.729s.48-.326.48-.729c0-.402-.215-.728-.48-.728s-.48.326-.48.728"/><path fill="#0A4185" d="M8.888 24.932L5.196 26.977 2.59 30.319 8.996 26.745"/></g></g></svg>