<?xml version="1.0" encoding="UTF-8"?>
<svg xmlns="http://www.w3.org/2000/svg" xmlns:xlink="http://www.w3.org/1999/xlink" width="272" height="216" viewBox="0 0 272 216">
  <defs>
    <polygon id="train-a" points=".573 .686 162.441 .686 162.441 93.6 .573 93.6"/>
    <polygon id="train-c" points="2.087 7.132 2.706 10.712 .032 12.271 27.696 28.344 40.65 20.917 39.262 20.127 40.151 13.668 15.899 .474"/>
    <polygon id="train-e" points="2.087 7.132 2.706 10.712 .032 12.271 27.696 28.344 40.65 20.917 39.262 20.127 40.151 13.668 15.899 .474"/>
    <polyline id="train-g" points="2.087 7.132 2.706 10.712 .032 12.271 27.696 28.344 40.65 20.917 39.262 20.127 40.151 13.668 15.899 .474"/>
    <polygon id="train-i" points="2.087 7.132 2.706 10.712 .032 12.271 27.696 28.344 40.65 20.917 39.262 20.127 40.151 13.668 15.899 .474"/>
    <polygon id="train-k" points="2.087 7.132 2.706 10.712 .032 12.271 27.696 28.344 40.65 20.917 39.262 20.127 40.151 13.668 15.899 .474"/>
    <polygon id="train-m" points="2.087 7.132 2.706 10.712 .032 12.271 27.696 28.344 40.65 20.917 39.262 20.127 40.151 13.668 15.899 .474"/>
    <polygon id="train-o" points="2.087 7.132 2.706 10.712 .032 12.271 27.696 28.344 40.65 20.917 39.262 20.127 40.151 13.668 15.899 .474"/>
    <polyline id="train-q" points="2.087 7.132 2.706 10.712 .032 12.271 27.696 28.344 40.65 20.917 39.262 20.127 40.151 13.668 15.899 .474"/>
    <polygon id="train-s" points="2.087 7.132 2.706 10.712 .032 12.271 27.696 28.344 40.65 20.917 39.262 20.127 40.151 13.668 15.899 .474"/>
    <polygon id="train-u" points="2.087 7.132 2.706 10.712 .032 12.271 27.696 28.344 40.65 20.917 39.262 20.127 40.151 13.668 15.899 .474"/>
    <polygon id="train-w" points="2.087 7.132 2.706 10.712 .032 12.271 27.696 28.344 40.65 20.917 39.262 20.127 40.151 13.668 15.899 .474"/>
    <polygon id="train-y" points="2.087 7.132 2.706 10.712 .032 12.271 27.696 28.344 40.65 20.917 39.262 20.127 40.151 13.668 15.899 .474"/>
    <polygon id="train-A" points="2.087 7.132 2.706 10.712 .032 12.271 27.696 28.344 40.65 20.917 39.262 20.127 40.151 13.668 15.899 .474"/>
    <polygon id="train-C" points="2.087 7.132 2.706 10.712 .032 12.271 27.696 28.344 40.65 20.917 39.262 20.127 40.151 13.668 15.899 .474"/>
    <polygon id="train-E" points="2.087 7.132 2.706 10.712 .032 12.271 27.696 28.344 40.65 20.917 39.262 20.127 40.151 13.668 15.899 .474"/>
    <polygon id="train-G" points="2.087 7.132 2.706 10.712 .032 12.271 27.696 28.344 40.65 20.917 39.262 20.127 40.151 13.668 15.899 .474"/>
    <polygon id="train-I" points="2.087 7.132 2.706 10.712 .032 12.271 27.696 28.344 40.65 20.917 39.262 20.127 40.151 13.668 15.899 .474"/>
    <polygon id="train-K" points="2.087 7.132 2.706 10.712 .032 12.271 27.696 28.344 40.65 20.917 39.262 20.127 40.151 13.668 15.899 .474"/>
    <polygon id="train-M" points=".383 .341 85.398 .341 85.398 47.935 .383 47.935"/>
  </defs>
  <g fill="none" fill-rule="evenodd" transform="matrix(-1 0 0 1 271.92 0)">
    <polygon fill="#00BAED" points="127.246 102.744 127.246 48.929 81.398 72.966 81.519 128.666"/>
    <polygon fill="#0098C0" points="7.857 31.389 7.857 86.099 81.411 128.666 81.411 72.967"/>
    <polygon fill="#0098C0" points="16.888 61.761 16.857 64.834 21.362 67.443 21.362 64.331"/>
    <polygon fill="#0098C0" points="118.635 111.281 118.925 111.44 118.927 111.121"/>
    <polygon fill="#0098C0" points="114.756 113.394 118.634 111.281 114.756 109.167"/>
    <g transform="translate(89.28 73.862)">
      <path fill="#0098C0" d="M11.936232,1.92636 L11.935512,1.92708 C4.955112,5.78124 0.562392,13.03308 0.329832,20.97036 C0.323352,21.19068 0.307512,21.40956 0.307512,21.6306 L0.490392,26.54676 L2.686392,27.86652 L8.097192,26.21268 L5.719032,23.90724 L5.719032,21.43404 C5.719032,15.8598 8.748072,10.7262 13.627512,8.03124 L13.628232,8.03124 C19.229832,4.9374 25.418232,18.00324 25.418232,18.00324 L25.476552,39.53124 L27.605592,40.46652 L30.266712,12.74364 C30.266712,3.3354 20.171592,-2.62188 11.936232,1.92636"/>
      <polygon fill="#121279" points="8.098 24.946 8.703 48.669 25.476 39.532 25.476 34.446"/>
      <path fill="#121279" d="M25.481952,15.06564 C25.481952,8.66628 18.615312,4.61412 13.013712,7.70796 L13.012992,7.70796 C8.133552,10.40292 5.103792,15.53652 5.103792,21.11076 L5.103792,23.58396 L25.481952,34.68852 L25.481952,15.06564 Z"/>
      <polygon fill="#C5EBFD" points="27.615 14.321 27.615 40.506 31.981 38.132 31.376 12.187"/>
      <polyline fill="#67D5F6" points="26.313 14.064 27.499 14.298 31.288 12.187 31.371 14.086 27.427 16.395 26.313 16.196 26.313 14.291"/>
      <polygon fill="#0098C0" points="1.736 26.915 1.736 49.497 4.337 51.002 4.337 26.915"/>
      <polygon fill="#C5EBFD" points="4.337 26.755 4.337 51.003 8.703 48.629 8.097 24.746"/>
      <polygon fill="#67D5F6" points="1.766 27.314 2.686 27.867 8.097 24.747 8.18 26.645 1.766 30.401 1.766 30.405"/>
    </g>
    <g transform="translate(0 30.662)">
      <polyline fill="#2A2C37" points="93.748 94.188 91.017 92.697 81.411 98.005 8.212 55.991 0 61.092 75.618 104.111" opacity=".3"/>
      <polyline fill="#00A8DB" points="7.649 7.257 81.397 49.452 127.246 22.575 127.258 14.933 82.022 41.12 7.725 .222"/>
    </g>
    <polygon fill="#00C5F3" points="83.239 76.6 129.159 49.683 129.913 48.128 47.174 6.783 4.127 27.449 4.127 30.742"/>
    <polygon fill="#91DBFF" points="83.239 72.577 83.239 76.517 130.999 48.678 130.999 45.746"/>
    <polygon fill="#2594C3" points="117.2 118.376 117.546 118.857 120.195 117.2 119.605 116.871"/>
    <polygon fill="#2594C3" points="106.323 125.359 106.87 125.713 116.983 119.245 116.494 118.851"/>
    <polygon fill="#2227A5" points="104.45 127.241 104.453 127.896 104.508 127.931 120.198 117.798 120.195 117.2"/>
    <polygon fill="#121279" points="98.017 121.144 106.319 125.957 106.316 125.345 106.996 125.727 106.963 126.373 110.92 128.655 112.072 127.942 97.927 119.756"/>
    <polygon fill="#91E2FF" points="97.926 119.729 112.088 127.932 113.113 127.298 97.844 118.449"/>
    <polygon fill="#91E2FF" points="97.04 105.908 123.176 121.073 124.173 120.457 96.96 104.648"/>
    <polygon fill="#121279" points="97.131 107.318 117.145 118.921 117.142 118.308 117.823 118.691 117.79 119.337 122.03 121.782 123.182 121.069 97.043 105.943"/>
    <polygon fill="#2594C3" points="106.936 125.693 104.441 127.256 103.892 126.901 106.322 125.359"/>
    <polygon fill="#121279" points="103.896 127.647 104.454 127.965 104.441 127.255 103.892 126.901"/>
    <polygon fill="#2594C3" points="127.351 124.274 127.697 124.755 130.347 123.098 129.756 122.769"/>
    <polygon fill="#2594C3" points="116.473 131.257 117.022 131.611 127.135 125.142 126.646 124.748"/>
    <polygon fill="#2227A5" points="114.601 133.138 114.605 133.863 130.349 123.695 130.346 123.097"/>
    <polygon fill="#121279" points="110.274 128.263 116.471 131.855 116.467 131.242 117.147 131.625 117.113 132.271 121.395 134.741 122.689 134.108 111.443 127.6"/>
    <polygon fill="#91E2FF" points="111.465 127.588 122.707 134.1 123.856 133.538 112.539 126.98"/>
    <polygon fill="#91E2FF" points="123.066 121.017 135.145 128.025 136.262 127.479 124.114 120.423"/>
    <polygon fill="#121279" points="121.904 121.675 127.313 124.81 127.311 124.198 127.992 124.582 127.958 125.227 133.881 128.643 135.171 128.013 123.074 121.012"/>
    <polygon fill="#2594C3" points="117.087 131.591 114.592 133.153 114.043 132.799 116.474 131.257"/>
    <polygon fill="#121279" points="114.047 133.545 114.605 133.863 114.592 133.153 114.044 132.799"/>
    <polygon fill="#C5EBFD" points="51.754 0 4.127 27.453 83.292 73.068 130.999 45.746"/>
    <polyline fill="#2594C3" points="116.985 119.224 117.877 118.715 117.879 118.692 117.301 118.332 116.516 118.81"/>
    <g transform="translate(91.44 74.582)">
      <path fill="#121279" d="M3.207312,20.3904 C3.207312,14.81616 6.237072,9.68256 11.115792,6.98832 L11.116512,6.9876 C16.718832,3.89448 23.585472,7.94664 23.585472,14.34528 L23.394672,33.86448 L23.358672,38.63376 L6.585552,47.73096 L5.980032,25.31448 L6.821712,24.8328 L3.207312,22.8636 L3.207312,20.3904 Z"/>
      <path fill="#C5EBFD" d="M30.304296,10.9098 C28.908936,2.78172 19.742616,-1.94508 12.154536,2.24532 L12.153816,2.24532 C5.174136,6.1002 0.781416,13.35204 0.548136,21.28932 C0.542376,21.50964 0.526536,21.7278 0.526536,21.94956 L0.526536,27.14652 L5.937336,24.02676 L5.937336,21.75228 C5.937336,16.17876 8.966376,11.04444 13.846536,8.3502 L13.846536,8.3502 C18.684216,5.67828 24.465816,8.3358 25.952616,13.23252"/>
    </g>
    <g transform="translate(107.28 94.742)">
      <path fill="#28436C" d="M45.844416,60.240528 C46.031616,61.817328 47.184336,62.976528 48.418416,62.829648 C49.652496,62.682768 50.500656,61.285968 50.313456,59.708448 C50.125536,58.131648 48.972816,56.972448 47.738736,57.119328 C46.504656,57.266208 45.656496,58.663728 45.844416,60.240528"/>
      <path fill="#FFF" d="M47.29428,60.11748 C47.35764,60.651 47.74788,61.0434 48.16476,60.99372 C48.58236,60.94404 48.86964,60.471 48.80628,59.93748 C48.74292,59.40396 48.35268,59.01228 47.93508,59.06196 C47.5182,59.11164 47.23092,59.58396 47.29428,60.11748"/>
      <path fill="#28436C" d="M61.39296,69.854184 C61.58016,71.430984 62.73288,72.590904 63.96696,72.443304 C65.20104,72.297144 66.0492,70.899624 65.862,69.322104 C65.67408,67.745304 64.52136,66.586104 63.28728,66.732984 C62.0532,66.879864 61.20504,68.277384 61.39296,69.854184"/>
      <path fill="#FFF" d="M62.842824,69.73128 C62.906184,70.2648 63.295704,70.6572 63.713304,70.60752 C64.130904,70.55784 64.418184,70.0848 64.354824,69.55128 C64.290744,69.01776 63.901224,68.62608 63.483624,68.67504 C63.066744,68.72544 62.779464,69.19776 62.842824,69.73128"/>
      <path fill="#28436C" d="M8.316576,39.514536 C8.542656,41.086296 9.722736,42.217416 10.953216,42.040296 C12.182976,41.863896 12.996576,40.446216 12.771216,38.874456 C12.545136,37.301976 11.364336,36.171576 10.134576,36.347976 C8.904096,36.525096 8.090496,37.942776 8.316576,39.514536"/>
      <path fill="#FFF" d="M9.7632,39.35628 C9.83952,39.88836 10.23912,40.27068 10.65456,40.21092 C11.07072,40.15116 11.34648,39.67164 11.27016,39.13956 C11.19312,38.6082 10.79424,38.22516 10.37808,38.28492 C9.96192,38.34468 9.68688,38.8242 9.7632,39.35628"/>
      <path fill="#28436C" d="M24.094296,48.74688 C24.320376,50.31864 25.500456,51.44976 26.730936,51.27264 C27.960696,51.09624 28.775016,49.67856 28.548936,48.1068 C28.322856,46.53432 27.142776,45.40392 25.912296,45.58032 C24.682536,45.75744 23.868216,47.17512 24.094296,48.74688"/>
      <path fill="#FFF" d="M25.540992 48.588696C25.617312 49.120776 26.016912 49.503096 26.433072 49.443336 26.848512 49.383576 27.124272 48.904056 27.047952 48.371976 26.971632 47.840616 26.572032 47.457576 26.155872 47.517336 25.739712 47.577096 25.464672 48.056616 25.540992 48.588696M45.945 56.500632C46.00908 57.127752 46.4598 57.595032 46.95012 57.544632 47.44116 57.493512 47.78604 56.944872 47.72196 56.317752 47.65716 55.690632 47.20716 55.223352 46.71612 55.273752 46.2258 55.324152 45.8802 55.873512 45.945 56.500632M6.540768 34.95384C6.604848 35.58096 7.055568 36.04824 7.545888 35.99784 8.036928 35.94744 8.381808 35.39808 8.317728 34.77096 8.252928 34.14384 7.802928 33.67656 7.311888 33.72696 6.821568 33.77736 6.475968 34.32672 6.540768 34.95384M35.83512 49.787856C35.89992 50.414976 36.34992 50.882256 36.84024 50.831856 37.33128 50.781456 37.67688 50.232096 37.61208 49.604976 37.54728 48.977856 37.09728 48.510576 36.60696 48.560976 36.11592 48.611376 35.77104 49.160736 35.83512 49.787856"/>
      <g stroke="#F99F00" stroke-linecap="round" stroke-linejoin="round" stroke-width=".91" transform="translate(12.96 15.84)">
        <line x1=".869" x2=".869" y1=".292" y2="17.638"/>
        <line x1="3.566" x2="3.566" y1="1.852" y2="19.199"/>
        <line x1="6.263" x2="6.263" y1="3.413" y2="20.759"/>
        <line x1="8.96" x2="8.96" y1="4.973" y2="22.32"/>
        <line x1="11.657" x2="11.657" y1="6.534" y2="23.881"/>
        <line x1="14.355" x2="14.355" y1="8.095" y2="25.441"/>
        <line x1="17.052" x2="17.052" y1="9.655" y2="27.002"/>
        <line x1="19.749" x2="19.749" y1="11.216" y2="28.562"/>
        <line x1="22.447" x2="22.447" y1="12.777" y2="30.123"/>
        <line x1="25.144" x2="25.144" y1="14.337" y2="31.683"/>
      </g>
      <line x1="25.047" x2="23.885" y1="2.796" y2="2.031" fill="#00BAED"/>
      <g transform="translate(0 27.36)">
        <mask id="train-b" fill="#fff">
          <use xlink:href="#train-a"/>
        </mask>
        <polyline fill="#2A2C37" points="157.003 90.038 147.342 93.6 .573 9.443 18.005 .686 154.544 75.526 162.441 82.407 157.022 90.017" mask="url(#train-b)" opacity=".3"/>
      </g>
      <polyline fill="#2594C3" points="8.838 21.982 9.713 21.482 9.715 21.461 9.149 21.107 8.379 21.575"/>
      <polyline fill="#2594C3" points="19.031 28.546 19.906 28.045 19.908 28.024 19.342 27.671 18.571 28.139"/>
      <polygon fill="#08599D" points="6.031 28.501 6.031 31.838 36.289 49.419 51.516 40.704 51.512 39.063 54.852 41.096 36.068 51.319 1.779 30.972"/>
      <polyline fill="#121279" points="53.82 40.468 53.82 41.302 36.289 52.56 1.779 32.652 1.779 31.008 36.289 50.916 53.959 40.393"/>
      <polygon fill="#08599D" points="42.948 49.999 42.948 52.46 73.206 70.814 88.432 62.099 88.428 60.457 91.768 62.491 73.531 73.399 39.053 52.434"/>
      <polygon fill="#121279" points="91.094 62.056 91.094 63.7 72.857 74.608 39.054 54.086 39.054 52.441 72.857 72.964"/>
      <path fill="#FFF" d="M80.815752,60.890904 C80.902152,61.515144 81.367992,61.966584 81.856152,61.899624 C82.345032,61.831944 82.671192,61.271784 82.585512,60.646824 C82.499112,60.022584 82.033272,59.571144 81.544392,59.638104 C81.056232,59.705784 80.729352,60.266664 80.815752,60.890904"/>
      <polygon fill="#26ABE4" points="51.45 17.612 51.516 40.991 36.289 49.706 36.289 26.365"/>
      <polygon fill="#67D5F6" points="36.289 26.365 51.45 17.612 21.128 .106 5.968 8.859"/>
      <polygon fill="#049DFF" points="36.289 49.706 6.018 32.229 5.968 8.858 36.289 26.364"/>
      <g stroke="#08599D" stroke-linecap="round" stroke-linejoin="round" stroke-width=".742" transform="translate(7.92 12.96)">
        <line x1="1.071" x2="1.071" y1=".621" y2="17.967"/>
        <line x1="3.768" x2="3.768" y1="2.182" y2="19.528"/>
        <line x1="6.466" x2="6.466" y1="3.742" y2="21.089"/>
        <line x1="9.163" x2="9.163" y1="5.303" y2="22.649"/>
        <line x1="11.86" x2="11.86" y1="6.863" y2="24.21"/>
        <line x1="14.557" x2="14.557" y1="8.424" y2="25.77"/>
        <line x1="17.254" x2="17.254" y1="9.985" y2="27.331"/>
        <line x1="19.951" x2="19.951" y1="11.545" y2="28.892"/>
        <line x1="22.649" x2="22.649" y1="13.106" y2="30.452"/>
        <line x1="25.346" x2="25.346" y1="14.667" y2="32.013"/>
      </g>
      <polygon fill="#121279" points="88.349 40.471 88.416 62.152 73.188 70.867 73.188 49.224"/>
      <path fill="#08599D" d="M73.117224,47.800872 L45.261144,31.718232 L57.956904,24.387912 L60.083064,25.561512 L86.010264,40.357512 L73.117224,47.800872 Z M58.027464,22.965192 L42.867144,31.718232 L73.188504,49.224312 L88.349544,40.471272 L58.027464,22.965192 Z"/>
      <polygon fill="#024C8A" points="73.189 70.676 42.917 53.199 42.867 31.718 73.189 49.224"/>
    </g>
    <g transform="translate(152.64 114.182)">
      <mask id="train-d" fill="#fff">
        <use xlink:href="#train-c"/>
      </mask>
      <polygon fill="#111184" points="12.597 4.948 -.099 12.278 27.757 28.361 40.65 20.917" mask="url(#train-d)"/>
      <mask id="train-f" fill="#fff">
        <use xlink:href="#train-e"/>
      </mask>
      <polygon fill="#FFF" points="11.49 18.928 11.49 23.303 8.873 21.826 8.873 17.393" mask="url(#train-f)"/>
      <mask id="train-h" fill="#fff">
        <use xlink:href="#train-g"/>
      </mask>
      <line x1="30.426" x2="30.426" y1="10.71" y2="21.642" fill="#FFC26C" mask="url(#train-h)"/>
      <mask id="train-j" fill="#fff">
        <use xlink:href="#train-i"/>
      </mask>
      <polygon fill="#F0AD5F" points="2.712 9.797 2.712 13.913 9.223 17.659 9.223 13.741" mask="url(#train-j)"/>
      <mask id="train-l" fill="#fff">
        <use xlink:href="#train-k"/>
      </mask>
      <polygon fill="#FFC26C" points="22.68 5.777 22.68 16.709 9.165 24.435 9.224 13.706" mask="url(#train-l)"/>
      <mask id="train-n" fill="#fff">
        <use xlink:href="#train-m"/>
      </mask>
      <polygon fill="#FFECC9" points="14.978 10.319 14.978 13.476 16.931 12.363 16.931 9.163" mask="url(#train-n)"/>
      <mask id="train-p" fill="#fff">
        <use xlink:href="#train-o"/>
      </mask>
      <polygon fill="#F0AD5F" points="10.457 14.695 10.457 25.594 16.91 29.369 16.969 18.64" mask="url(#train-p)"/>
      <mask id="train-r" fill="#fff">
        <use xlink:href="#train-q"/>
      </mask>
      <polyline fill="#FFC26C" points="30.426 21.642 16.91 29.368 16.969 18.639 30.426 10.71" mask="url(#train-r)"/>
      <mask id="train-t" fill="#fff">
        <use xlink:href="#train-s"/>
      </mask>
      <polygon fill="#FFECC9" points="22.724 15.217 22.724 18.374 24.676 17.261 24.676 14.061" mask="url(#train-t)"/>
      <mask id="train-v" fill="#fff">
        <use xlink:href="#train-u"/>
      </mask>
      <polygon fill="#F0AD5F" points="18.898 19.914 18.898 30.812 25.35 34.587 25.409 23.859" mask="url(#train-v)"/>
      <mask id="train-x" fill="#fff">
        <use xlink:href="#train-w"/>
      </mask>
      <polygon fill="#FFC26C" points="38.866 15.929 38.866 26.861 25.35 34.587 25.409 23.858" mask="url(#train-x)"/>
      <mask id="train-z" fill="#fff">
        <use xlink:href="#train-y"/>
      </mask>
      <polygon fill="#FFECC9" points="31.164 20.436 31.164 23.593 33.117 22.48 33.117 19.28" mask="url(#train-z)"/>
      <mask id="train-B" fill="#fff">
        <use xlink:href="#train-A"/>
      </mask>
      <polygon fill="#FFD674" points="16.397 2.156 22.681 5.812 9.199 13.709 2.711 9.797" mask="url(#train-B)"/>
      <mask id="train-D" fill="#fff">
        <use xlink:href="#train-C"/>
      </mask>
      <polygon fill="#FFF" points="16.931 9.185 14.492 7.606 12.696 8.78 14.976 10.332" mask="url(#train-D)"/>
      <mask id="train-F" fill="#fff">
        <use xlink:href="#train-E"/>
      </mask>
      <polygon fill="#FFD674" points="24.143 7.054 30.426 10.71 17.008 18.642 10.457 14.695" mask="url(#train-F)"/>
      <mask id="train-H" fill="#fff">
        <use xlink:href="#train-G"/>
      </mask>
      <polygon fill="#FFF" points="24.676 14.083 22.237 12.504 20.442 13.679 22.721 15.23" mask="url(#train-H)"/>
      <mask id="train-J" fill="#fff">
        <use xlink:href="#train-I"/>
      </mask>
      <polygon fill="#FFD674" points="32.629 12.353 38.912 16.008 25.353 23.821 19.021 19.914" mask="url(#train-J)"/>
      <mask id="train-L" fill="#fff">
        <use xlink:href="#train-K"/>
      </mask>
      <polygon fill="#FFF" points="33.116 19.302 30.678 17.723 28.882 18.898 31.162 20.449" mask="url(#train-L)"/>
    </g>
    <g transform="translate(186.48 139.382)">
      <path fill="#28436C" d="M2.182104,35.788104 C2.370024,37.364904 3.522024,38.524104 4.756104,38.377224 C5.990184,38.231064 6.838344,36.833544 6.651144,35.256024 C6.463224,33.679224 5.310504,32.520024 4.076424,32.666904 C2.842344,32.813784 1.994184,34.211304 2.182104,35.788104"/>
      <path fill="#FFF" d="M3.632328,35.665272 C3.695688,36.198792 4.085208,36.590472 4.502808,36.541512 C4.920408,36.491112 5.207688,36.018792 5.144328,35.485272 C5.080248,34.951752 4.690728,34.559352 4.273128,34.609032 C3.855528,34.659432 3.568968,35.131752 3.632328,35.665272"/>
      <path fill="#28436C" d="M16.209792,44.09028 C16.397712,45.66708 17.549712,46.82628 18.783792,46.6794 C20.017872,46.53252 20.866032,45.13572 20.678832,43.5582 C20.490912,41.9814 19.338192,40.8222 18.104112,40.96908 C16.870032,41.11596 16.021872,42.51348 16.209792,44.09028"/>
      <path fill="#FFF" d="M17.659656,43.967232 C17.723016,44.500752 18.113256,44.893152 18.530136,44.843472 C18.948456,44.793792 19.235016,44.320752 19.171656,43.787232 C19.108296,43.253712 18.718056,42.862032 18.301176,42.911712 C17.883576,42.961392 17.596296,43.433712 17.659656,43.967232"/>
      <path fill="#28436C" d="M30.237552,52.39224 C30.425472,53.96904 31.577472,55.12896 32.811552,54.98136 C34.045632,54.8352 34.893792,53.43768 34.706592,51.86016 C34.518672,50.28336 33.365952,49.12416 32.131872,49.27104 C30.897792,49.41792 30.049632,50.81544 30.237552,52.39224"/>
      <path fill="#FFF" d="M31.687344,52.269408 C31.750704,52.802928 32.140944,53.195328 32.557824,53.145648 C32.976144,53.095248 33.262704,52.622928 33.199344,52.089408 C33.135984,51.555888 32.745744,51.164208 32.328144,51.213168 C31.911264,51.263568 31.623984,51.735888 31.687344,52.269408"/>
      <path fill="#28436C" d="M44.26524,60.694416 C44.45316,62.271216 45.60516,63.430416 46.83924,63.283536 C48.07332,63.136656 48.92148,61.739856 48.73428,60.162336 C48.54636,58.585536 47.39364,57.426336 46.15956,57.573216 C44.92548,57.720096 44.07732,59.117616 44.26524,60.694416"/>
      <path fill="#FFF" d="M45.715032,60.571512 C45.778392,61.105032 46.168632,61.496712 46.585512,61.447752 C47.003832,61.397352 47.290392,60.925032 47.227032,60.391512 C47.163672,59.857992 46.773432,59.465592 46.355832,59.515272 C45.938952,59.565672 45.651672,60.037992 45.715032,60.571512"/>
      <path fill="#28436C" d="M58.292928,68.99652 C58.480848,70.57332 59.632848,71.73252 60.866928,71.58564 C62.101008,71.43876 62.949168,70.04124 62.761968,68.46444 C62.574048,66.88764 61.421328,65.72844 60.187248,65.87532 C58.953168,66.0222 58.105008,67.41972 58.292928,68.99652"/>
      <path fill="#FFF" d="M59.74272,68.873472 C59.80608,69.406992 60.19632,69.799392 60.6132,69.749712 C61.0308,69.700032 61.31808,69.226992 61.25472,68.693472 C61.19136,68.159952 60.80112,67.768272 60.38352,67.817952 C59.96664,67.867632 59.67936,68.339952 59.74272,68.873472"/>
      <g transform="translate(0 23.04)">
        <mask id="train-N" fill="#fff">
          <use xlink:href="#train-M"/>
        </mask>
        <polygon fill="#121279" points=".383 10.107 65.704 47.74 73.699 47.935 85.398 41.305 85.008 30.028 8.767 .357 .501 .341" mask="url(#train-N)"/>
      </g>
      <polygon fill="#08599D" points=".383 24.542 65.704 62.175 73.699 62.37 85.084 55.74 85.008 51.06 8.767 14.792 1.163 19.667"/>
      <polygon fill="#FF544B" points="5.683 7.507 18.096 .425 58.347 23.265 45.756 30.59"/>
      <polygon fill="#E82233" points="55.565 35.656 60.015 30.661 67.598 26.259 71.807 26.391 71.807 46.825 55.565 55.74"/>
      <polygon fill="#08599D" points="55.605 35.637 60.053 31.19 67.636 26.788 71.864 26.806 71.807 26.028 56.809 18.277 52.057 18.277 46.925 21.699 41.785 26.879 41.857 27.717"/>
      <polygon fill="#C81E2D" points="5.647 7.578 5.647 23.762 41.785 44.64 41.835 28.21"/>
      <polygon fill="#08599D" points="69.379 36.282 77.092 39.808 77.117 40.473 74.854 43.842 67.367 47.033 60.026 42.369 64.939 37.045"/>
      <polygon fill="#C81E2D" points="59.457 41.311 59.457 53.517 67.734 58.044 67.734 46.017"/>
      <polyline fill="#00408A" points="65.078 36.074 69.518 35.311 77.078 39.82 74.928 42.525"/>
      <polyline fill="#121279" points="74.928 42.525 67.506 46.062 59.457 41.311 65.078 36.074"/>
      <polygon fill="#26ABE4" points="63.392 31.866 63.392 35.702 59.638 37.826 59.638 38.418 63.755 36.088 63.755 31.651"/>
      <polygon fill="#B8ECFF" points="63.392 31.866 59.638 34.089 59.638 37.826 63.392 35.702"/>
      <polygon fill="#26ABE4" points="58.547 34.841 58.547 40.842 56.779 41.859 56.779 42.451 58.91 41.228 58.91 34.625"/>
      <polygon fill="#B8ECFF" points="58.547 34.841 56.779 35.947 56.779 41.876 58.547 40.869"/>
      <polygon fill="#26ABE4" points="70.961 27.474 70.961 33.475 69.194 34.493 69.194 35.084 71.325 33.861 71.325 27.259"/>
      <polygon fill="#B8ECFF" points="70.961 27.474 69.194 28.581 69.194 34.51 70.961 33.503"/>
      <polygon fill="#26ABE4" points="68.129 29.005 68.129 32.841 64.374 34.965 64.374 35.557 68.492 33.227 68.492 28.79"/>
      <polygon fill="#B8ECFF" points="68.129 29.005 64.374 31.228 64.374 34.965 68.129 32.841"/>
      <polygon fill="#08599D" points="55.567 34.763 60.015 30.316 67.598 25.914 71.806 26.046 56.77 17.404 52.018 17.404 46.887 20.825 41.818 26.843"/>
      <polyline stroke="#121279" stroke-width="1.036" points="56.14 56.658 56.14 51.344 61.226 54.259 61.226 59.459"/>
      <line x1="74.026" x2="74.026" y1="57.23" y2="62.373" stroke="#121279" stroke-width="1.036"/>
      <line x1="79.226" x2="79.226" y1="54.316" y2="59.459" stroke="#121279" stroke-width="1.036"/>
      <polyline stroke="#08599D" stroke-width="1.036" points="78.493 49.07 78.493 43.927 77.112 43.058"/>
      <line x1="84.026" x2="84.026" y1="51.573" y2="56.716" stroke="#121279" stroke-width="1.036"/>
      <line x1="10.875" x2="10.875" y1="25.535" y2="30.51" stroke="#121279" stroke-linecap="round" stroke-width="1.036"/>
      <line x1="15.742" x2="15.742" y1="28.401" y2="33.376" stroke="#121279" stroke-linecap="round" stroke-width="1.036"/>
      <line x1="20.609" x2="20.609" y1="31.267" y2="36.243" stroke="#121279" stroke-linecap="round" stroke-width="1.036"/>
      <line x1="25.476" x2="25.476" y1="34.134" y2="39.109" stroke="#121279" stroke-linecap="round" stroke-width="1.036"/>
      <line x1="30.343" x2="30.343" y1="37" y2="41.975" stroke="#121279" stroke-width="1.036"/>
      <line x1="35.211" x2="35.211" y1="39.866" y2="44.841" stroke="#121279" stroke-width="1.036"/>
      <polygon fill="#FF544B" points="8.786 12.842 12.407 15.06 12.999 14.764 9.303 12.547"/>
      <polygon fill="#981822" points="12.977 14.775 12.977 24.619 12.415 24.969 12.454 15.061"/>
      <polygon fill="#FF544B" points="13.884 15.808 17.506 18.025 18.097 17.729 14.401 15.512"/>
      <polygon fill="#981822" points="18.075 17.74 18.075 27.584 17.514 27.934 17.552 18.027"/>
      <polygon fill="#FF544B" points="18.982 18.773 22.603 20.991 23.195 20.695 19.5 18.477"/>
      <polygon fill="#981822" points="23.173 20.706 23.173 30.549 22.612 30.899 22.65 20.992"/>
      <polygon fill="#FF544B" points="24.08 21.738 27.702 23.956 28.293 23.66 24.598 21.442"/>
      <polygon fill="#981822" points="28.271 23.671 28.271 33.515 27.71 33.865 27.749 23.957"/>
      <polygon fill="#FF544B" points="29.178 24.704 32.8 26.921 33.392 26.625 29.696 24.408"/>
      <polygon fill="#981822" points="33.37 26.636 33.37 36.48 32.808 36.83 32.847 26.923"/>
      <polygon fill="#FF544B" points="34.276 27.669 37.899 29.887 38.49 29.591 34.794 27.373"/>
      <polygon fill="#981822" points="38.468 29.601 38.468 39.445 37.907 39.795 37.945 29.888"/>
      <polygon fill="#E82233" points="13.298 8.319 15.077 7.304 24.836 12.881 23.032 13.93"/>
      <polygon fill="#C81E2D" points="15.077 7.304 15.077 9.327 13.298 8.318"/>
      <polygon fill="#E82233" points="17.841 5.727 19.621 4.711 29.379 10.288 27.575 11.338"/>
      <polygon fill="#C81E2D" points="19.62 4.712 19.62 6.735 17.841 5.727"/>
      <polygon fill="#E82233" points="29.841 17.891 31.62 16.876 41.379 22.453 39.575 23.502"/>
      <polygon fill="#C81E2D" points="31.62 16.876 31.62 18.899 29.841 17.89"/>
      <polygon fill="#E82233" points="34.385 15.299 36.164 14.284 45.923 19.861 44.118 20.91"/>
      <polygon fill="#C81E2D" points="36.163 14.284 36.163 16.307 34.384 15.299"/>
      <polygon fill="#C81E2D" points="41.785 27.447 41.785 47.921 55.565 55.74 55.565 35.656"/>
      <polygon fill="#26ABE4" points="44.25 30.543 44.25 34.378 48.004 36.502 48.004 37.094 43.887 34.765 43.887 30.327"/>
      <polygon fill="#B8ECFF" points="44.25 30.543 48.004 32.765 48.004 36.502 44.25 34.378"/>
      <polygon fill="#26ABE4" points="50.227 33.914 50.227 37.75 53.981 39.874 53.981 40.466 49.864 38.137 49.864 33.699"/>
      <polygon fill="#B8ECFF" points="50.227 33.914 53.981 36.137 53.981 39.874 50.227 37.75"/>
      <polygon fill="#E82233" points="67.734 46.017 74.846 43.748 74.846 55.514 67.734 58.044"/>
      <polygon fill="#E82233" points="77.131 53.222 74.846 55.415 74.846 43.65 77.131 40.431"/>
      <polyline stroke="#121279" stroke-width="1.036" points="66.312 62.544 66.312 57.573 73.969 57.401 84.083 51.802 84.083 47.687"/>
      <polygon fill="#121279" points="60.158 30.411 45.154 21.964 41.279 26.461 55.71 34.859"/>
      <polygon fill="#00408A" points="67.598 25.914 52.018 17.404 45.034 21.938 60.015 30.66"/>
      <polygon fill="#981822" points="40.249 27.438 40.249 43.547 41.785 44.64 41.835 28.21"/>
      <polyline stroke="#121279" stroke-linecap="round" stroke-linejoin="round" stroke-width="1.036" points="7.228 29.381 7.228 23.388 41.216 42.949"/>
      <path fill="#F99F00" d="M71.884296,48.1248 C71.504136,48.98304 70.788456,49.47984 70.276536,49.2444 C69.759576,49.0068 69.634296,48.10968 70.007256,47.22984 C70.385256,46.33632 71.125416,45.8136 71.650296,46.07352 C72.170136,46.33056 72.270216,47.2536 71.884296,48.1248"/>
      <path fill="#F0AD5F" d="M72.364536,48.336984 C71.984376,49.195224 71.268696,49.692024 70.756776,49.456584 C70.239816,49.218984 70.115256,48.321864 70.487496,47.442024 C70.865496,46.548504 71.605656,46.025784 72.130536,46.285704 C72.650376,46.542744 72.751176,47.465784 72.364536,48.336984"/>
      <path fill="#F99F00" d="M77.20308,45.775152 C76.86684,46.534032 76.23396,46.973232 75.7818,46.765152 C75.32532,46.554912 75.21444,45.761472 75.5442,44.983872 C75.87828,44.194032 76.53204,43.732512 76.99644,43.961472 C77.4558,44.188992 77.54436,45.004752 77.20308,45.775152"/>
      <path fill="#F0AD5F" d="M77.627808,45.962712 C77.291568,46.721592 76.658688,47.160792 76.206528,46.952712 C75.750048,46.742472 75.639168,45.949032 75.968928,45.171432 C76.303008,44.381592 76.956768,43.920072 77.421168,44.149032 C77.880528,44.376552 77.969088,45.192312 77.627808,45.962712"/>
      <polygon fill="#00408A" points="73.892 62.254 73.892 71.113 85.119 64.44 84.856 55.563"/>
      <line x1="77.187" x2="69.189" y1="64.788" y2="64.692" fill="#00408A"/>
    </g>
  </g>
</svg>
