<svg height="227" viewBox="0 0 309 227" width="309" xmlns="http://www.w3.org/2000/svg" xmlns:xlink="http://www.w3.org/1999/xlink"><mask id="a" fill="#fff"><path d="m30.5819825.09995238-3.4828235 9.81429001-26.2754135 22.16013261" fill="#fff" fill-rule="evenodd"/></mask><mask id="b" fill="#fff"><path d="m.4170427 47.9331992 25.9290268 14.9084149v-48.0917444l-26.07292376-14.63957741z" fill="#fff" fill-rule="evenodd"/></mask><mask id="c" fill="#fff"><path d="m.4170427 47.9331992 25.9290268 14.9084149v-48.0917444l-26.07292376-14.63957741z" fill="#fff" fill-rule="evenodd"/></mask><g fill="none" fill-rule="evenodd"><path d="m30.5819825.09995238-3.4828235 9.81429001-26.2754135 22.16013261" mask="url(#a)" transform="translate(198.181449 128.200133)"/>
<path d="m190.484168 161.614387 76.118047-43.947168.124941-58.7633841-76.242988 44.0186851z" fill="#121279"/><path d="m190.484168 102.92252-38.121495-22.0093427 76.242989-44.0195465 38.121494 22.0102041z" fill="#f85b4f"/><path d="m152.362501 80.9130049-.165438 58.7875111 38.286932 21.913698v-58.691867z" fill="#e82233"/><path d="m232.217389 185.443121 76.11891-43.947167.124079-58.7633849-76.242989 44.0186849z" fill="#121279"/><path d="m232.217389 126.751254-38.121494-22.009342 76.242989-44.0195469 38.121494 22.010204z" fill="#67d5f6"/><path d="m194.095723 104.741739-.165439 58.787511 38.286933 21.913698v-58.691866z" fill="#08599d"/><path d="m232.383086 124.72067 76.11891-43.9471676.124079-58.7633845-76.242989 44.0186847z" fill="#049dff"/><path d="m270.505011.00008617-76.242988 44.01954643 38.121494 22.0093424 76.242988-44.0195465z" fill="#bbeafb"/><path d="m194.261506 44.0190294-.165438 58.7875106 38.286932 21.913699v-58.6918672z" fill="#00bcff"/><g transform="translate(66.347702 34.279359)"><g stroke-linecap="round" stroke-linejoin="round" stroke-width="1.398"><g stroke="#2594c3"><path d="m133.212917 19.735167v43.617152"/><path d="m140.080938 23.64882v43.617152"/><path d="m146.949304 27.562731v43.61629"/><path d="m153.817412 31.476384v43.617152"/><path d="m160.685433 35.390209v43.61629"/></g><g stroke="#2594c3"><path d="m234.291574.072552v43.617152"/><path d="m227.509374 3.996717v43.617152"/><path d="m220.727605 7.920882v43.617152"/><path d="m213.945405 11.845047v43.617152"/><path d="m207.163205 15.769212v43.617152"/><path d="m200.381005 19.693377v43.617152"/><path d="m193.598805 23.617714v43.61629"/><path d="m186.816605 27.541879v43.61629"/><path d="m180.034836 31.466044v43.61629"/><path d="m173.252636 35.390209v43.61629"/></g><g stroke="#2594c3"><path d="m234.291574 61.48838v43.617152"/><path d="m227.509374 65.412545v43.617152"/><path d="m220.727605 69.33671v43.617152"/><path d="m213.945405 73.260875v43.617152"/><path d="m207.163205 77.18504v43.617152"/><path d="m200.381005 81.109464v43.61629"/><path d="m193.598805 85.033629v43.61629"/><path d="m186.816605 88.957794v43.61629"/><path d="m180.034836 92.881959v43.61629"/><path d="m173.252636 96.806124v43.61629"/></g><g stroke="#c81e2d"><path d="m91.466167 56.465514v43.617152"/><path d="m98.334619 60.379339v43.61629"/><path d="m105.202641 64.292992v43.617152"/><path d="m112.071093 68.206903v43.61629"/><path d="m118.939114 72.12047v43.617152"/></g></g><path d="m103.512153 152.81177 32.86193 16.888506 29.495432-18.536859-83.0233793-47.458425-19.63375 10.608739 53.7020023 30.621619z" fill="#2a2c37" opacity=".3"/><path d="m.52044172 196.345513 17.30382548 8.988821 38.4971772-21.714655-17.8337454-10.388154z" fill="#2a2c37" opacity=".3"/></g><path d="m192.135105 176.209761 25.231084 15.089363 1.765538-.360173 8.459763-14.412961-24.692547-14.562029z" fill="#00bcff"/><path d="m190.457198 175.786945 26.908732 15.512438 8.547652-15.196209-24.692547-14.562028z" fill="#bbeafb"/><path d="m150.683732 154.813661 16.465432 9.579919-51.092901 29.036167-16.4662937-10.597538z" fill="#ffd674"/><path d="m100.149272 183.486725v28.560532l16.910047 9.892701.155099-28.115916z" fill="#f0ad5f"/><path d="m167.149077 164.393752v28.647559l-50.666379 28.527789-.426521-28.139181z" fill="#ffc26c"/><path d="m143.56583 178.16719-6.39006-4.138545-4.706378 3.077844 5.973878 4.066166z" fill="#fff"/><path d="m138.449302 181.137844v8.274507l5.116528-2.917576v-8.384799z" fill="#ffecc9"/><path d="m199.004763 113.104652v47.169769l26.908733 15.512438v-47.803089z" fill="#08599d"/><path d="m199.004763 158.375154 26.908733-23.110542-.01551-7.317204-26.794993-14.769688z" fill="#121279"/><path d="m199.437747 154.129418 4.888188 2.908097 21.063242-11.606539v-12.774087l-26.040181-8.251242z" fill="#6e6e6e"/><path d="m199.431026 151.899704 4.895082 2.911544 21.063241-11.605678v-11.027505l-26.045351-9.261967z" fill="#999"/><path d="m2.3657695-26.8055058 14.8989367 8.6682843-32.4509198 19.03748227-14.8989367-9.58853549z" fill="#ffd674" mask="url(#b)" transform="translate(199.043107 113.551939)"/><path d="m199.368383 131.019307 15.291853-8.741525-15.343552-8.615723z" fill="#ffc26c"/><path d="m-.99926533-7.45076082v7.48695048l4.62969097-2.64012157v-7.58690289z" fill="#ffecc9" mask="url(#c)" transform="translate(199.043107 113.551939)"/><path d="m199.347014 123.887618 4.920932 3.166595 9.24301-5.422417-14.194961-7.969479z" fill="#ffd674"/><path d="m199.422926 149.190305 5.246639 3.069228.14045-25.440467-5.463776-3.30963z" fill="#f0ad5f"/><path d="m204.809929 126.818722-.14045 25.440466 20.719439-11.844357v-12.113195l-11.826262-6.640802z" fill="#efaf61"/><path d="m209.762225 123.899768v7.48695l4.629691-2.640122v-6.620122l-.838394-.470465z" fill="#ffecc9"/><path d="m199.347445 124.03927 4.978663 2.96152 9.46101-5.213034-14.470693-8.125439z" fill="#6e6e6e"/><path d="m199.34081 121.808867 4.985556 2.965829 7.460239-4.110973-12.469921-7.000975z" fill="#999"/><path d="m199.335037 119.907445 5.334528 3.120927.035328-6.340944-5.388812-3.025283z" fill="#f0ad5f"/><path d="m204.669565 123.028114 5.612843-3.208816-5.577515-3.131267z" fill="#ffc26c"/><path d="m199.341672 122.102176 3.206231 1.867214.616086-1.680235-3.828349-2.242897z" fill="#999"/><path d="m204.288798 163.325037 1.56908-.910773v-45.079386l-1.56908-.880615z" fill="#999"/><path d="m202.720752 162.363426 1.568218.937485v-46.846648l-1.568218-.880615z" fill="#6e6e6e"/><path d="m220.31823 162.163349-.024126 2.392826 5.094987 2.807283v-6.807102z" fill="#6e6e6e"/><path d="m220.29419 162.162574 5.094987 2.807283v-4.619351z" fill="#999"/><path d="m221.189884 131.543798 4.199724 2.463482v-4.907145z" fill="#ffd674"/><path d="m221.189884 159.406473 4.199724 2.40058v-27.788485l-4.199724-2.474684z" fill="#ffc26c"/><path d="m220.311251 130.004445-.017233 2.265301 5.094986 2.807283v-6.69164z" fill="#6e6e6e"/><path d="m220.29419 129.877265 5.094987 2.807283v-4.383257l-.257636-.144758z" fill="#999"/><path d="m221.189884 127.986614 4.199724 2.40058v-2.086075l-4.199724-2.357498z" fill="#ffc26c"/><path d="m222.387245 174.092752 1.686265.979706v-47.510125l-1.686265-.946101z" fill="#999"/><path d="m224.073166 175.045833 1.315752-.786695v-45.957416l-1.315752-.739303z" fill="#6e6e6e"/><path d="m199.316598 113.662576v46.869051l25.770481 14.948912 1.185642-47.300742z" fill="#08599d" fill-opacity=".5"/><path d="m89.1782915 177.687419 10.7914107 5.655065v29.224008l-10.9465092-6.763157z" fill="#ffd674"/><path d="m226.528203 174.125064 17.448584 9.110315v-44.932042l-17.704496-10.123626-1.233895 1.234757z" fill="#67d5f6"/><path d="m225.031675 129.340021 17.464094 9.931475v44.932043l-17.449446-9.110315" fill="#08599d"/><path d="m242.495424 139.271841 1.481191-.968504v44.932042l-1.481191.968505z" fill="#2c9acb"/><path d="m181.749363 148.316497 17.448584 9.110316v-44.932043l-17.703635-10.123626-1.234756 1.234757z" fill="#67d5f6"/><path d="m180.252749 103.53154 17.464094 9.931475v44.932043l-17.449446-9.110315" fill="#08599d"/><path d="m197.716498 113.46336 1.482052-.968504v44.932043l-1.482052.968504z" fill="#2c9acb"/><path d="m75.4569835 226.422219.4023945.258498.6091925-3.807669-1.3528038-.768599z" fill="#981822"/><path d="m114.2479 200.302852 2.763339 1.24165.038774-7.16469-2.534999-1.502733z" fill="#c81e2d"/><path d="m76.6403852 204.935645v15.272035l6.4348655-3.286366 4.8123626 1.712977 4.4116914 10.480352 22.6822973-27.342146-1.854289-10.357997-6.391782-3.872293z" fill="#c81e2d"/><path d="m76.6403852 204.935645 4.0532415 2.288565 29.8943793-17.348632-3.91193-2.369561z" fill="#f85b4f"/><path d="m80.7590266 207.224124v1.540645 13.823587l34.9626544-19.394209v-10.208068l-5.144963-3.11748z" fill="#e82233"/><path d="m93.8625255 226.527686v4.38498l23.0588425-13.084284.024988-4.477177z" fill="#e82233"/><path d="m92.4480269 229.955364 1.4148432.957302v-4.389288l-1.4148432-.921113z" fill="#c81e2d"/><path d="m115.722112 193.59329 1.328677.783247.002585-.584204-1.331262-.806512z" fill="#f85b4f"/><g fill="#c81e2d"><path d="m.28636044.94902281c.00861659.25505091.16026848.45754065.33863178.45150904.17922497-.00516995.31709032-.21713794.30847374-.47218884-.00775493-.25591257-.15940682-.45840231-.33863178-.4523707-.17836331.00603161-.31709032.21713793-.30847374.4730505" transform="translate(111.486857 194.51846)"/><path d="m.2443445.90995051c.00861659.25591257.16026848.45754065.33863178.4523707.17922496-.00603161.31709032-.21799959.30847373-.4730505-.00775492-.25591257-.15940681-.45840231-.33863178-.4523707-.1783633.00603161-.31709031.2179996-.30847373.4730505" transform="translate(106.102751 197.710513)"/><path d="m.38642415 1.34522121c.00775493.25505091.16026848.45754065.33863178.45150904.17922496-.00516995.31709032-.21713794.30847373-.47218885-.00775492-.25591256-.16026847-.4584023-.33863178-.45237069-.17922496.00603161-.31709031.21799959-.30847373.4730505" transform="translate(99.718645 200.902566)"/><path d="m.64418371.69801386c.00861658.25591257.16026847.45754065.33863178.4523707.17922496-.00603161.31709032-.21799959.30847373-.4730505-.00775493-.25591257-.15940682-.45840231-.33863178-.4523707-.1783633.00603161-.31709032.2179996-.30847373.4730505" transform="translate(92.334539 205.690645)"/></g><path d="m81.5748448 218.557948 12.2838032 7.96948 23.088139-13.1963.070656-12.964513-1.245097-.666924z" fill="#f85b4f"/><path d="m89.4282586 218.71072v13.248861l3.0993856-1.812068v-13.226457z" fill="#e82233"/><path d="m73.6237189 210.181077 15.8045397 8.45287 3.0993856-1.678511-15.887259-8.526972z" fill="#f85b4f"/><path d="m73.4949871 223.334983 15.9329269 8.625201v-13.32641l-15.9329269-8.462348z" fill="#c81e2d"/><path d="m117.053805 193.792591 10.79141 5.655065v29.224009l-10.946509-6.763158z" fill="#ffd674"/><g transform="translate(99.952383 183.346275)"><path d="m6.60168256 4.14518042-6.45899192-3.86539991-.08616584 4.0627197 2.93911705 1.85342737" fill="#ffc26c"/><path d="m2.99598651 6.19584142 10.47259709 6.60288888v23.7559241l3.4776536 2.0076642.1464819-28.1383191-10.49069188-6.27890525" fill="#e82233"/></g></g></svg>
