<svg width="291" height="188" viewBox="0 0 291 188" fill="none" xmlns="http://www.w3.org/2000/svg">
<rect x="0.841104" y="12.4534" width="280.706" height="174.748" rx="4.78873" fill="white" stroke="#E5E9EC" stroke-width="1.26701"/>
<path fill-rule="evenodd" clip-rule="evenodd" d="M35.5997 38.1221C30.5211 38.1221 26.4062 42.2398 26.4062 47.3155C26.4062 52.3912 30.5211 56.5089 35.5997 56.5089C40.6783 56.5089 44.7931 52.3941 44.7931 47.3155C44.7931 42.2369 40.6783 38.1221 35.5997 38.1221ZM35.5998 42.1998C36.4596 42.1998 37.1567 42.8969 37.1567 43.7568C37.1567 44.6167 36.4596 45.3137 35.5998 45.3137C34.7399 45.3137 34.0428 44.6167 34.0428 43.7568C34.0428 42.8969 34.7399 42.1998 35.5998 42.1998ZM37.2307 52.0605C37.4764 52.0605 37.6755 51.8613 37.6755 51.6157V50.726C37.6755 50.4803 37.4764 50.2811 37.2307 50.2811H36.7858V46.5741C36.7858 46.3284 36.5867 46.1293 36.341 46.1293H33.9685C33.7228 46.1293 33.5237 46.3284 33.5237 46.5741V47.4638C33.5237 47.7095 33.7228 47.9086 33.9685 47.9086H34.4133V50.2811H33.9685C33.7228 50.2811 33.5237 50.4803 33.5237 50.726V51.6157C33.5237 51.8613 33.7228 52.0605 33.9685 52.0605H37.2307Z" fill="#0D97F2"/>
<circle cx="278.057" cy="13.087" r="7.53134" fill="#0D97F2"/>
<circle cx="278.057" cy="13.087" r="10.0654" stroke="#0D97F2" stroke-opacity="0.3" stroke-width="5.06804"/>
<g clip-path="url(#clip0_1198_2912)">
<rect x="26" y="128" width="230.615" height="34.8" rx="4.15522" fill="#0E177A"/>
<path d="M93.8378 140.077V141.411H89.8426V143.91H92.9902V145.201H89.8426V147.75H93.8378V149.09H88.1535V140.077H93.8378ZM96.7145 145.793L94.614 142.695H96.0974C96.2096 142.695 96.2927 142.712 96.3468 142.745C96.4008 142.774 96.4486 142.824 96.4901 142.894L97.8302 145.032C97.8509 144.962 97.8759 144.891 97.905 144.82C97.9382 144.75 97.9777 144.679 98.0234 144.608L99.1017 142.926C99.1515 142.847 99.2035 142.788 99.2575 142.751C99.3115 142.714 99.378 142.695 99.4569 142.695H100.872L98.7651 145.724L100.959 149.09H99.4756C99.3635 149.09 99.272 149.061 99.2014 149.003C99.1349 148.944 99.0788 148.878 99.0331 148.803L97.6744 146.578C97.637 146.728 97.585 146.852 97.5185 146.952L96.3218 148.803C96.2761 148.874 96.22 148.94 96.1535 149.003C96.0871 149.061 96.004 149.09 95.9042 149.09H94.5268L96.7145 145.793ZM101.932 151.178V142.695H102.873C102.973 142.695 103.058 142.718 103.129 142.764C103.199 142.809 103.245 142.88 103.266 142.975L103.39 143.568C103.648 143.273 103.943 143.034 104.275 142.851C104.612 142.668 105.005 142.577 105.453 142.577C105.802 142.577 106.12 142.649 106.407 142.795C106.698 142.94 106.947 143.152 107.155 143.43C107.367 143.705 107.529 144.045 107.641 144.453C107.757 144.856 107.816 145.319 107.816 145.843C107.816 146.32 107.751 146.763 107.622 147.17C107.494 147.577 107.309 147.931 107.068 148.23C106.831 148.529 106.542 148.764 106.201 148.934C105.865 149.1 105.487 149.183 105.067 149.183C104.705 149.183 104.398 149.129 104.145 149.021C103.895 148.909 103.671 148.755 103.471 148.56V151.178H101.932ZM104.924 143.792C104.604 143.792 104.329 143.86 104.101 143.998C103.877 144.131 103.667 144.32 103.471 144.565V147.432C103.646 147.648 103.835 147.8 104.039 147.887C104.246 147.97 104.469 148.012 104.705 148.012C104.938 148.012 105.148 147.968 105.335 147.881C105.526 147.793 105.686 147.66 105.815 147.482C105.948 147.303 106.05 147.079 106.12 146.809C106.191 146.534 106.226 146.212 106.226 145.843C106.226 145.469 106.195 145.153 106.133 144.895C106.075 144.633 105.989 144.421 105.877 144.259C105.765 144.097 105.628 143.979 105.466 143.904C105.308 143.829 105.127 143.792 104.924 143.792ZM111.623 142.595C112.026 142.595 112.396 142.66 112.732 142.788C113.073 142.917 113.366 143.106 113.611 143.356C113.856 143.601 114.048 143.904 114.185 144.266C114.322 144.623 114.39 145.032 114.39 145.493C114.39 145.61 114.384 145.707 114.372 145.786C114.363 145.861 114.345 145.921 114.316 145.967C114.291 146.009 114.255 146.04 114.21 146.061C114.164 146.077 114.106 146.086 114.035 146.086H110.084C110.129 146.742 110.306 147.224 110.613 147.532C110.921 147.839 111.328 147.993 111.835 147.993C112.084 147.993 112.298 147.964 112.477 147.906C112.66 147.847 112.818 147.783 112.951 147.712C113.088 147.642 113.206 147.577 113.306 147.519C113.41 147.461 113.51 147.432 113.605 147.432C113.667 147.432 113.721 147.444 113.767 147.469C113.813 147.494 113.852 147.53 113.886 147.575L114.334 148.136C114.164 148.336 113.973 148.504 113.761 148.641C113.549 148.774 113.327 148.882 113.094 148.965C112.865 149.044 112.631 149.1 112.39 149.133C112.153 149.167 111.922 149.183 111.698 149.183C111.253 149.183 110.84 149.111 110.458 148.965C110.075 148.816 109.743 148.597 109.46 148.311C109.178 148.02 108.955 147.663 108.793 147.239C108.631 146.811 108.55 146.316 108.55 145.755C108.55 145.319 108.621 144.91 108.762 144.527C108.903 144.141 109.105 143.806 109.367 143.524C109.633 143.237 109.955 143.011 110.333 142.845C110.715 142.678 111.145 142.595 111.623 142.595ZM111.654 143.698C111.205 143.698 110.854 143.825 110.601 144.079C110.347 144.332 110.185 144.692 110.115 145.157H113.007C113.007 144.957 112.98 144.77 112.926 144.596C112.872 144.417 112.789 144.261 112.676 144.129C112.564 143.996 112.423 143.892 112.253 143.817C112.082 143.738 111.883 143.698 111.654 143.698ZM120.139 149.09C119.94 149.09 119.809 148.996 119.747 148.809L119.622 148.192C119.489 148.342 119.35 148.477 119.204 148.597C119.059 148.718 118.901 148.822 118.731 148.909C118.565 148.996 118.384 149.063 118.188 149.109C117.997 149.158 117.79 149.183 117.565 149.183C117.216 149.183 116.896 149.111 116.605 148.965C116.314 148.82 116.063 148.61 115.851 148.336C115.643 148.057 115.481 147.714 115.365 147.307C115.253 146.9 115.197 146.435 115.197 145.911C115.197 145.437 115.261 144.997 115.39 144.59C115.519 144.183 115.704 143.829 115.945 143.53C116.186 143.231 116.474 142.998 116.811 142.832C117.148 142.662 117.526 142.577 117.945 142.577C118.303 142.577 118.608 142.635 118.862 142.751C119.115 142.863 119.342 143.015 119.541 143.206V139.828H121.081V149.09H120.139ZM118.089 147.962C118.409 147.962 118.681 147.895 118.905 147.762C119.13 147.629 119.342 147.44 119.541 147.195V144.328C119.366 144.116 119.175 143.966 118.968 143.879C118.764 143.792 118.544 143.748 118.307 143.748C118.074 143.748 117.862 143.792 117.671 143.879C117.484 143.966 117.324 144.099 117.191 144.278C117.062 144.453 116.963 144.677 116.892 144.951C116.821 145.221 116.786 145.541 116.786 145.911C116.786 146.285 116.815 146.603 116.873 146.865C116.936 147.122 117.023 147.334 117.135 147.5C117.247 147.663 117.384 147.781 117.546 147.856C117.709 147.926 117.889 147.962 118.089 147.962ZM124.388 142.695V149.09H122.848V142.695H124.388ZM124.618 140.831C124.618 140.964 124.591 141.089 124.537 141.205C124.483 141.322 124.411 141.423 124.319 141.511C124.232 141.598 124.128 141.669 124.008 141.723C123.887 141.772 123.758 141.797 123.621 141.797C123.488 141.797 123.361 141.772 123.241 141.723C123.125 141.669 123.023 141.598 122.936 141.511C122.848 141.423 122.778 141.322 122.724 141.205C122.674 141.089 122.649 140.964 122.649 140.831C122.649 140.694 122.674 140.565 122.724 140.445C122.778 140.324 122.848 140.221 122.936 140.133C123.023 140.046 123.125 139.977 123.241 139.928C123.361 139.874 123.488 139.847 123.621 139.847C123.758 139.847 123.887 139.874 124.008 139.928C124.128 139.977 124.232 140.046 124.319 140.133C124.411 140.221 124.483 140.324 124.537 140.445C124.591 140.565 124.618 140.694 124.618 140.831ZM128.233 149.19C127.681 149.19 127.255 149.034 126.956 148.722C126.656 148.406 126.507 147.972 126.507 147.419V143.848H125.859C125.775 143.848 125.703 143.821 125.64 143.767C125.582 143.713 125.553 143.632 125.553 143.524V142.913L126.582 142.745L126.906 141C126.922 140.917 126.96 140.852 127.018 140.806C127.08 140.761 127.157 140.738 127.248 140.738H128.046V142.751H129.729V143.848H128.046V147.313C128.046 147.513 128.096 147.669 128.196 147.781C128.296 147.893 128.429 147.949 128.595 147.949C128.69 147.949 128.769 147.939 128.832 147.918C128.898 147.893 128.954 147.868 129 147.843C129.05 147.818 129.093 147.795 129.131 147.775C129.168 147.75 129.206 147.737 129.243 147.737C129.289 147.737 129.326 147.75 129.355 147.775C129.384 147.795 129.415 147.829 129.449 147.874L129.91 148.622C129.686 148.809 129.428 148.951 129.137 149.046C128.846 149.142 128.545 149.19 128.233 149.19ZM133.596 142.595C133.999 142.595 134.369 142.66 134.706 142.788C135.046 142.917 135.339 143.106 135.585 143.356C135.83 143.601 136.021 143.904 136.158 144.266C136.295 144.623 136.364 145.032 136.364 145.493C136.364 145.61 136.357 145.707 136.345 145.786C136.337 145.861 136.318 145.921 136.289 145.967C136.264 146.009 136.229 146.04 136.183 146.061C136.137 146.077 136.079 146.086 136.008 146.086H132.057C132.102 146.742 132.279 147.224 132.587 147.532C132.894 147.839 133.301 147.993 133.808 147.993C134.057 147.993 134.271 147.964 134.45 147.906C134.633 147.847 134.791 147.783 134.924 147.712C135.061 147.642 135.179 147.577 135.279 147.519C135.383 147.461 135.483 147.432 135.578 147.432C135.641 147.432 135.695 147.444 135.74 147.469C135.786 147.494 135.826 147.53 135.859 147.575L136.308 148.136C136.137 148.336 135.946 148.504 135.734 148.641C135.522 148.774 135.3 148.882 135.067 148.965C134.839 149.044 134.604 149.1 134.363 149.133C134.126 149.167 133.895 149.183 133.671 149.183C133.226 149.183 132.813 149.111 132.431 148.965C132.048 148.816 131.716 148.597 131.433 148.311C131.151 148.02 130.929 147.663 130.767 147.239C130.604 146.811 130.523 146.316 130.523 145.755C130.523 145.319 130.594 144.91 130.735 144.527C130.877 144.141 131.078 143.806 131.34 143.524C131.606 143.237 131.928 143.011 132.306 142.845C132.688 142.678 133.118 142.595 133.596 142.595ZM133.627 143.698C133.179 143.698 132.828 143.825 132.574 144.079C132.321 144.332 132.159 144.692 132.088 145.157H134.98C134.98 144.957 134.953 144.77 134.899 144.596C134.845 144.417 134.762 144.261 134.65 144.129C134.537 143.996 134.396 143.892 134.226 143.817C134.055 143.738 133.856 143.698 133.627 143.698ZM146.305 146.964C146.397 146.964 146.476 147 146.542 147.07L147.203 147.787C146.837 148.24 146.386 148.587 145.85 148.828C145.319 149.069 144.679 149.19 143.931 149.19C143.262 149.19 142.659 149.075 142.123 148.847C141.591 148.618 141.136 148.3 140.758 147.893C140.38 147.486 140.089 147 139.886 146.435C139.686 145.87 139.586 145.252 139.586 144.584C139.586 143.906 139.699 143.287 139.923 142.726C140.147 142.161 140.463 141.675 140.87 141.268C141.278 140.86 141.764 140.545 142.329 140.32C142.898 140.092 143.526 139.977 144.211 139.977C144.88 139.977 145.464 140.085 145.963 140.302C146.465 140.513 146.896 140.796 147.253 141.149L146.692 141.928C146.659 141.978 146.615 142.022 146.561 142.059C146.511 142.097 146.441 142.115 146.349 142.115C146.254 142.115 146.156 142.078 146.056 142.003C145.956 141.928 145.83 141.847 145.676 141.76C145.522 141.673 145.327 141.592 145.09 141.517C144.857 141.442 144.56 141.405 144.199 141.405C143.775 141.405 143.384 141.48 143.027 141.629C142.674 141.775 142.368 141.984 142.111 142.259C141.857 142.533 141.658 142.867 141.512 143.262C141.371 143.653 141.301 144.093 141.301 144.584C141.301 145.09 141.371 145.541 141.512 145.936C141.658 146.331 141.853 146.663 142.098 146.933C142.343 147.203 142.632 147.411 142.965 147.557C143.297 147.698 143.654 147.768 144.037 147.768C144.265 147.768 144.471 147.756 144.654 147.731C144.841 147.706 145.011 147.667 145.165 147.613C145.323 147.559 145.47 147.49 145.607 147.407C145.749 147.32 145.888 147.214 146.025 147.089C146.067 147.052 146.11 147.023 146.156 147.002C146.202 146.977 146.251 146.964 146.305 146.964ZM151.116 142.595C151.594 142.595 152.026 142.672 152.412 142.826C152.803 142.98 153.135 143.198 153.41 143.48C153.684 143.763 153.896 144.108 154.045 144.515C154.195 144.922 154.27 145.377 154.27 145.88C154.27 146.387 154.195 146.844 154.045 147.251C153.896 147.658 153.684 148.005 153.41 148.292C153.135 148.579 152.803 148.799 152.412 148.953C152.026 149.106 151.594 149.183 151.116 149.183C150.638 149.183 150.204 149.106 149.813 148.953C149.423 148.799 149.088 148.579 148.81 148.292C148.536 148.005 148.322 147.658 148.168 147.251C148.018 146.844 147.943 146.387 147.943 145.88C147.943 145.377 148.018 144.922 148.168 144.515C148.322 144.108 148.536 143.763 148.81 143.48C149.088 143.198 149.423 142.98 149.813 142.826C150.204 142.672 150.638 142.595 151.116 142.595ZM151.116 147.999C151.648 147.999 152.04 147.82 152.294 147.463C152.552 147.106 152.68 146.582 152.68 145.892C152.68 145.203 152.552 144.677 152.294 144.315C152.04 143.954 151.648 143.773 151.116 143.773C150.576 143.773 150.177 143.956 149.919 144.322C149.662 144.683 149.533 145.207 149.533 145.892C149.533 146.578 149.662 147.102 149.919 147.463C150.177 147.82 150.576 147.999 151.116 147.999ZM155.471 149.09V142.695H156.412C156.612 142.695 156.742 142.788 156.805 142.975L156.911 143.48C157.04 143.347 157.175 143.227 157.316 143.119C157.461 143.011 157.613 142.917 157.771 142.838C157.933 142.759 158.105 142.699 158.288 142.658C158.471 142.616 158.67 142.595 158.887 142.595C159.236 142.595 159.545 142.655 159.815 142.776C160.085 142.892 160.31 143.059 160.488 143.275C160.671 143.487 160.808 143.742 160.9 144.041C160.995 144.336 161.043 144.662 161.043 145.02V149.09H159.504V145.02C159.504 144.629 159.412 144.328 159.229 144.116C159.051 143.9 158.781 143.792 158.419 143.792C158.153 143.792 157.904 143.852 157.671 143.973C157.438 144.093 157.218 144.257 157.01 144.465V149.09H155.471ZM164.656 149.19C164.104 149.19 163.678 149.034 163.379 148.722C163.079 148.406 162.93 147.972 162.93 147.419V143.848H162.282C162.199 143.848 162.126 143.821 162.064 143.767C162.005 143.713 161.976 143.632 161.976 143.524V142.913L163.005 142.745L163.329 141C163.345 140.917 163.383 140.852 163.441 140.806C163.503 140.761 163.58 140.738 163.672 140.738H164.469V142.751H166.152V143.848H164.469V147.313C164.469 147.513 164.519 147.669 164.619 147.781C164.719 147.893 164.852 147.949 165.018 147.949C165.113 147.949 165.192 147.939 165.255 147.918C165.321 147.893 165.377 147.868 165.423 147.843C165.473 147.818 165.517 147.795 165.554 147.775C165.591 147.75 165.629 147.737 165.666 147.737C165.712 147.737 165.749 147.75 165.778 147.775C165.807 147.795 165.839 147.829 165.872 147.874L166.333 148.622C166.109 148.809 165.851 148.951 165.56 149.046C165.269 149.142 164.968 149.19 164.656 149.19ZM172.388 149.09H171.696C171.551 149.09 171.436 149.069 171.353 149.028C171.27 148.982 171.208 148.892 171.166 148.76L171.029 148.305C170.867 148.45 170.707 148.579 170.549 148.691C170.395 148.799 170.235 148.89 170.069 148.965C169.903 149.04 169.726 149.096 169.539 149.133C169.352 149.171 169.145 149.19 168.916 149.19C168.646 149.19 168.397 149.154 168.168 149.084C167.94 149.009 167.742 148.899 167.576 148.753C167.414 148.608 167.287 148.427 167.196 148.211C167.104 147.995 167.059 147.744 167.059 147.457C167.059 147.216 167.121 146.979 167.246 146.746C167.375 146.509 167.586 146.298 167.882 146.111C168.177 145.919 168.569 145.762 169.06 145.637C169.55 145.512 170.159 145.442 170.886 145.425V145.051C170.886 144.623 170.794 144.307 170.611 144.104C170.433 143.896 170.171 143.792 169.826 143.792C169.577 143.792 169.369 143.821 169.203 143.879C169.037 143.937 168.891 144.004 168.767 144.079C168.646 144.149 168.534 144.214 168.43 144.272C168.326 144.33 168.212 144.359 168.087 144.359C167.983 144.359 167.894 144.332 167.819 144.278C167.744 144.224 167.684 144.158 167.638 144.079L167.358 143.586C168.093 142.913 168.981 142.577 170.019 142.577C170.393 142.577 170.726 142.639 171.017 142.764C171.312 142.884 171.561 143.054 171.765 143.275C171.968 143.491 172.122 143.75 172.226 144.054C172.334 144.357 172.388 144.689 172.388 145.051V149.09ZM169.396 148.13C169.554 148.13 169.699 148.115 169.832 148.086C169.965 148.057 170.09 148.014 170.206 147.955C170.327 147.897 170.441 147.827 170.549 147.744C170.661 147.656 170.774 147.554 170.886 147.438V146.36C170.437 146.381 170.061 146.42 169.758 146.478C169.458 146.532 169.217 146.603 169.035 146.69C168.852 146.777 168.721 146.879 168.642 146.996C168.567 147.112 168.53 147.239 168.53 147.376C168.53 147.646 168.609 147.839 168.767 147.955C168.929 148.072 169.138 148.13 169.396 148.13ZM175.541 142.695V149.09H174.001V142.695H175.541ZM175.771 140.831C175.771 140.964 175.744 141.089 175.69 141.205C175.636 141.322 175.564 141.423 175.472 141.511C175.385 141.598 175.281 141.669 175.161 141.723C175.04 141.772 174.911 141.797 174.774 141.797C174.641 141.797 174.515 141.772 174.394 141.723C174.278 141.669 174.176 141.598 174.089 141.511C174.001 141.423 173.931 141.322 173.877 141.205C173.827 141.089 173.802 140.964 173.802 140.831C173.802 140.694 173.827 140.565 173.877 140.445C173.931 140.324 174.001 140.221 174.089 140.133C174.176 140.046 174.278 139.977 174.394 139.928C174.515 139.874 174.641 139.847 174.774 139.847C174.911 139.847 175.04 139.874 175.161 139.928C175.281 139.977 175.385 140.046 175.472 140.133C175.564 140.221 175.636 140.324 175.69 140.445C175.744 140.565 175.771 140.694 175.771 140.831ZM177.286 149.09V142.695H178.227C178.426 142.695 178.557 142.788 178.62 142.975L178.726 143.48C178.854 143.347 178.99 143.227 179.131 143.119C179.276 143.011 179.428 142.917 179.586 142.838C179.748 142.759 179.92 142.699 180.103 142.658C180.286 142.616 180.485 142.595 180.701 142.595C181.051 142.595 181.36 142.655 181.63 142.776C181.9 142.892 182.125 143.059 182.303 143.275C182.486 143.487 182.623 143.742 182.715 144.041C182.81 144.336 182.858 144.662 182.858 145.02V149.09H181.319V145.02C181.319 144.629 181.227 144.328 181.044 144.116C180.866 143.9 180.596 143.792 180.234 143.792C179.968 143.792 179.719 143.852 179.486 143.973C179.253 144.093 179.033 144.257 178.825 144.465V149.09H177.286ZM187.014 142.595C187.417 142.595 187.786 142.66 188.123 142.788C188.464 142.917 188.757 143.106 189.002 143.356C189.247 143.601 189.438 143.904 189.575 144.266C189.712 144.623 189.781 145.032 189.781 145.493C189.781 145.61 189.775 145.707 189.762 145.786C189.754 145.861 189.735 145.921 189.706 145.967C189.681 146.009 189.646 146.04 189.6 146.061C189.555 146.077 189.496 146.086 189.426 146.086H185.474C185.52 146.742 185.696 147.224 186.004 147.532C186.311 147.839 186.719 147.993 187.225 147.993C187.475 147.993 187.689 147.964 187.867 147.906C188.05 147.847 188.208 147.783 188.341 147.712C188.478 147.642 188.597 147.577 188.696 147.519C188.8 147.461 188.9 147.432 188.996 147.432C189.058 147.432 189.112 147.444 189.158 147.469C189.203 147.494 189.243 147.53 189.276 147.575L189.725 148.136C189.555 148.336 189.363 148.504 189.151 148.641C188.94 148.774 188.717 148.882 188.485 148.965C188.256 149.044 188.021 149.1 187.78 149.133C187.543 149.167 187.313 149.183 187.088 149.183C186.644 149.183 186.23 149.111 185.848 148.965C185.466 148.816 185.133 148.597 184.851 148.311C184.568 148.02 184.346 147.663 184.184 147.239C184.022 146.811 183.941 146.316 183.941 145.755C183.941 145.319 184.011 144.91 184.153 144.527C184.294 144.141 184.496 143.806 184.757 143.524C185.023 143.237 185.345 143.011 185.723 142.845C186.106 142.678 186.536 142.595 187.014 142.595ZM187.045 143.698C186.596 143.698 186.245 143.825 185.991 144.079C185.738 144.332 185.576 144.692 185.505 145.157H188.397C188.397 144.957 188.37 144.77 188.316 144.596C188.262 144.417 188.179 144.261 188.067 144.129C187.955 143.996 187.813 143.892 187.643 143.817C187.473 143.738 187.273 143.698 187.045 143.698ZM191.03 149.09V142.695H191.934C192.091 142.695 192.202 142.724 192.264 142.782C192.326 142.84 192.368 142.94 192.389 143.081L192.482 143.854C192.711 143.46 192.979 143.148 193.286 142.919C193.594 142.691 193.938 142.577 194.321 142.577C194.637 142.577 194.898 142.649 195.106 142.795L194.907 143.948C194.894 144.023 194.867 144.077 194.826 144.11C194.784 144.139 194.728 144.153 194.657 144.153C194.595 144.153 194.51 144.139 194.402 144.11C194.294 144.081 194.15 144.066 193.972 144.066C193.652 144.066 193.377 144.156 193.149 144.334C192.92 144.509 192.727 144.766 192.569 145.107V149.09H191.03Z" fill="white"/>
</g>
<path d="M63.4226 89.4266C63.489 89.4266 63.5472 89.4536 63.5971 89.5076L64.077 90.0249C63.7113 90.4488 63.2667 90.7791 62.7432 91.0159C62.2238 91.2528 61.5943 91.3712 60.8546 91.3712C60.2147 91.3712 59.633 91.2611 59.1094 91.0409C58.5859 90.8165 58.1392 90.5048 57.7694 90.1059C57.3996 89.7029 57.1129 89.2209 56.9092 88.6599C56.7056 88.099 56.6038 87.4819 56.6038 86.8088C56.6038 86.1356 56.7098 85.5186 56.9217 84.9576C57.1336 84.3967 57.4307 83.9147 57.813 83.5116C58.1994 83.1085 58.6607 82.7969 59.1967 82.5767C59.7327 82.3523 60.3248 82.2401 60.9731 82.2401C61.6088 82.2401 62.1698 82.3419 62.6559 82.5455C63.1421 82.7491 63.5701 83.0254 63.9399 83.3745L63.541 83.9292C63.5161 83.9708 63.4828 84.0061 63.4413 84.0352C63.4039 84.0601 63.3519 84.0726 63.2854 84.0726C63.2106 84.0726 63.1192 84.0331 63.0112 83.9541C62.9032 83.871 62.7619 83.7796 62.5874 83.6799C62.4128 83.5802 62.1947 83.4908 61.9329 83.4119C61.6711 83.3288 61.3491 83.2872 60.9668 83.2872C60.5056 83.2872 60.0838 83.3682 59.7016 83.5303C59.3193 83.6882 58.9889 83.9188 58.7105 84.2221C58.4363 84.5255 58.2223 84.8953 58.0686 85.3316C57.9148 85.7679 57.8379 86.2603 57.8379 86.8088C57.8379 87.3656 57.9169 87.8621 58.0748 88.2984C58.2368 88.7347 58.455 89.1045 58.7292 89.4079C59.0076 89.707 59.3338 89.9356 59.7078 90.0935C60.0859 90.2514 60.4931 90.3303 60.9294 90.3303C61.1954 90.3303 61.4343 90.3158 61.6462 90.2867C61.8623 90.2535 62.0596 90.2036 62.2383 90.1371C62.4212 90.0706 62.5894 89.9875 62.7432 89.8878C62.9011 89.7839 63.0569 89.6613 63.2106 89.5201C63.2813 89.4577 63.3519 89.4266 63.4226 89.4266ZM67.7569 84.8579C68.2181 84.8579 68.6337 84.9348 69.0035 85.0885C69.3733 85.2423 69.6891 85.4604 69.9509 85.743C70.2127 86.0255 70.4121 86.3683 70.5492 86.7714C70.6905 87.1703 70.7611 87.617 70.7611 88.1114C70.7611 88.6101 70.6905 89.0588 70.5492 89.4577C70.4121 89.8566 70.2127 90.1974 69.9509 90.4799C69.6891 90.7625 69.3733 90.9806 69.0035 91.1344C68.6337 91.284 68.2181 91.3587 67.7569 91.3587C67.2915 91.3587 66.8719 91.284 66.4979 91.1344C66.1281 90.9806 65.8123 90.7625 65.5505 90.4799C65.2887 90.1974 65.0872 89.8566 64.9459 89.4577C64.8088 89.0588 64.7402 88.6101 64.7402 88.1114C64.7402 87.617 64.8088 87.1703 64.9459 86.7714C65.0872 86.3683 65.2887 86.0255 65.5505 85.743C65.8123 85.4604 66.1281 85.2423 66.4979 85.0885C66.8719 84.9348 67.2915 84.8579 67.7569 84.8579ZM67.7569 90.4924C68.3802 90.4924 68.8456 90.2846 69.1531 89.8691C69.4606 89.4494 69.6143 88.8656 69.6143 88.1177C69.6143 87.3656 69.4606 86.7797 69.1531 86.36C68.8456 85.9403 68.3802 85.7305 67.7569 85.7305C67.4411 85.7305 67.1648 85.7845 66.9279 85.8925C66.6953 86.0006 66.5 86.1564 66.3421 86.36C66.1883 86.5636 66.072 86.815 65.993 87.1142C65.9182 87.4092 65.8808 87.7437 65.8808 88.1177C65.8808 88.8656 66.0346 89.4494 66.3421 89.8691C66.6537 90.2846 67.1253 90.4924 67.7569 90.4924ZM73.2154 85.8738C73.3525 85.7201 73.498 85.5809 73.6517 85.4562C73.8055 85.3316 73.9675 85.2256 74.1379 85.1384C74.3124 85.047 74.4952 84.9784 74.6864 84.9327C74.8817 84.8828 75.0915 84.8579 75.3159 84.8579C75.6608 84.8579 75.9641 84.9161 76.2259 85.0324C76.4918 85.1446 76.712 85.3067 76.8866 85.5186C77.0652 85.7263 77.2003 85.9777 77.2917 86.2727C77.3831 86.5678 77.4288 86.894 77.4288 87.2513V91.2715H76.3131V87.2513C76.3131 86.7735 76.203 86.4036 75.9828 86.1419C75.7667 85.8759 75.4364 85.743 74.9918 85.743C74.6635 85.743 74.356 85.8219 74.0693 85.9798C73.7868 86.1377 73.525 86.3517 73.284 86.6218V91.2715H72.1683V84.9576H72.8352C72.9931 84.9576 73.0908 85.0345 73.1282 85.1882L73.2154 85.8738ZM80.9726 91.3712C80.4739 91.3712 80.0896 91.232 79.8195 90.9536C79.5536 90.6752 79.4206 90.2742 79.4206 89.7507V85.8863H78.6602C78.5937 85.8863 78.5376 85.8676 78.4919 85.8302C78.4462 85.7887 78.4233 85.7263 78.4233 85.6432V85.2007L79.458 85.0698L79.7135 83.1189C79.726 83.0566 79.753 83.0067 79.7946 82.9693C79.8403 82.9278 79.8984 82.907 79.9691 82.907H80.53V85.0823H82.3563V85.8863H80.53V89.6759C80.53 89.9418 80.5944 90.1392 80.7233 90.268C80.8521 90.3968 81.0183 90.4612 81.2219 90.4612C81.3382 90.4612 81.438 90.4467 81.5211 90.4176C81.6083 90.3843 81.6831 90.349 81.7454 90.3116C81.8078 90.2742 81.8597 90.241 81.9013 90.2119C81.947 90.1787 81.9864 90.162 82.0197 90.162C82.0779 90.162 82.1298 90.1974 82.1755 90.268L82.4996 90.7978C82.3085 90.9765 82.0779 91.1177 81.8078 91.2216C81.5377 91.3213 81.2593 91.3712 80.9726 91.3712ZM86.9237 88.4293C86.4126 88.4459 85.9763 88.4875 85.6148 88.554C85.2574 88.6163 84.9645 88.6994 84.7359 88.8033C84.5116 88.9072 84.3474 89.0297 84.2435 89.171C84.1438 89.3123 84.094 89.4702 84.094 89.6447C84.094 89.8109 84.121 89.9543 84.175 90.0748C84.229 90.1953 84.3017 90.295 84.3931 90.374C84.4887 90.4488 84.5988 90.5048 84.7235 90.5422C84.8523 90.5755 84.9894 90.5921 85.1348 90.5921C85.3301 90.5921 85.5088 90.5734 85.6709 90.536C85.8329 90.4945 85.9846 90.4363 86.1259 90.3615C86.2713 90.2867 86.4084 90.1974 86.5372 90.0935C86.6702 89.9896 86.799 89.8712 86.9237 89.7382V88.4293ZM83.3398 85.8489C83.6888 85.5123 84.0649 85.261 84.4679 85.0947C84.871 84.9285 85.3177 84.8454 85.808 84.8454C86.1612 84.8454 86.4749 84.9036 86.7491 85.0199C87.0234 85.1363 87.254 85.2983 87.441 85.5061C87.628 85.7139 87.7692 85.9653 87.8648 86.2603C87.9604 86.5553 88.0082 86.8794 88.0082 87.2326V91.2715H87.5158C87.4077 91.2715 87.3246 91.2549 87.2665 91.2216C87.2083 91.1842 87.1626 91.1136 87.1293 91.0097L87.0047 90.4114C86.8385 90.5651 86.6764 90.7022 86.5185 90.8227C86.3606 90.9391 86.1944 91.0388 86.0199 91.1219C85.8454 91.2008 85.6584 91.2611 85.4589 91.3026C85.2636 91.3484 85.0455 91.3712 84.8045 91.3712C84.5593 91.3712 84.3287 91.338 84.1127 91.2715C83.8966 91.2008 83.7075 91.097 83.5455 90.9598C83.3876 90.8227 83.2608 90.6503 83.1653 90.4425C83.0738 90.2306 83.0281 89.9813 83.0281 89.6946C83.0281 89.4453 83.0967 89.2063 83.2338 88.9778C83.3709 88.7451 83.5932 88.5394 83.9007 88.3608C84.2082 88.1821 84.6092 88.0366 85.1037 87.9245C85.5981 87.8081 86.2048 87.7416 86.9237 87.725V87.2326C86.9237 86.7423 86.8177 86.3725 86.6058 86.1232C86.3939 85.8697 86.0843 85.743 85.6771 85.743C85.4028 85.743 85.1722 85.7783 84.9852 85.8489C84.8024 85.9154 84.6424 85.9923 84.5053 86.0795C84.3724 86.1626 84.256 86.2395 84.1563 86.3101C84.0607 86.3766 83.9651 86.4099 83.8696 86.4099C83.7948 86.4099 83.7304 86.3912 83.6764 86.3538C83.6223 86.3122 83.5766 86.2624 83.5392 86.2042L83.3398 85.8489ZM90.8699 84.9576V91.2715H89.7605V84.9576H90.8699ZM91.1068 82.9756C91.1068 83.0836 91.0839 83.1854 91.0382 83.281C90.9967 83.3724 90.9385 83.4555 90.8637 83.5303C90.7931 83.6009 90.7079 83.657 90.6081 83.6986C90.5126 83.7401 90.4108 83.7609 90.3027 83.7609C90.1947 83.7609 90.0929 83.7401 89.9973 83.6986C89.9059 83.657 89.8249 83.6009 89.7542 83.5303C89.6836 83.4555 89.6275 83.3724 89.586 83.281C89.5444 83.1854 89.5236 83.0836 89.5236 82.9756C89.5236 82.8675 89.5444 82.7657 89.586 82.6702C89.6275 82.5704 89.6836 82.4853 89.7542 82.4146C89.8249 82.3398 89.9059 82.2817 89.9973 82.2401C90.0929 82.1986 90.1947 82.1778 90.3027 82.1778C90.4108 82.1778 90.5126 82.1986 90.6081 82.2401C90.7079 82.2817 90.7931 82.3398 90.8637 82.4146C90.9385 82.4853 90.9967 82.5704 91.0382 82.6702C91.0839 82.7657 91.1068 82.8675 91.1068 82.9756ZM93.7399 85.8738C93.8771 85.7201 94.0225 85.5809 94.1762 85.4562C94.33 85.3316 94.492 85.2256 94.6624 85.1384C94.8369 85.047 95.0198 84.9784 95.2109 84.9327C95.4062 84.8828 95.616 84.8579 95.8404 84.8579C96.1853 84.8579 96.4886 84.9161 96.7504 85.0324C97.0163 85.1446 97.2366 85.3067 97.4111 85.5186C97.5898 85.7263 97.7248 85.9777 97.8162 86.2727C97.9076 86.5678 97.9533 86.894 97.9533 87.2513V91.2715H96.8377V87.2513C96.8377 86.7735 96.7276 86.4036 96.5073 86.1419C96.2913 85.8759 95.9609 85.743 95.5163 85.743C95.188 85.743 94.8806 85.8219 94.5938 85.9798C94.3113 86.1377 94.0495 86.3517 93.8085 86.6218V91.2715H92.6928V84.9576H93.3597C93.5176 84.9576 93.6153 85.0345 93.6527 85.1882L93.7399 85.8738ZM103.87 87.4258C103.87 87.1682 103.832 86.9334 103.758 86.7215C103.687 86.5054 103.581 86.3205 103.44 86.1668C103.303 86.0089 103.134 85.8884 102.935 85.8053C102.735 85.718 102.509 85.6744 102.255 85.6744C101.724 85.6744 101.302 85.8302 100.99 86.1419C100.683 86.4493 100.492 86.8773 100.417 87.4258H103.87ZM104.767 90.3864C104.63 90.5526 104.466 90.6981 104.275 90.8227C104.084 90.9432 103.878 91.0429 103.658 91.1219C103.442 91.2008 103.217 91.259 102.985 91.2964C102.752 91.338 102.521 91.3587 102.293 91.3587C101.857 91.3587 101.454 91.286 101.084 91.1406C100.718 90.991 100.4 90.7749 100.13 90.4924C99.8641 90.2057 99.6564 89.8525 99.5068 89.4328C99.3572 89.0131 99.2824 88.5311 99.2824 87.9868C99.2824 87.5463 99.3489 87.135 99.4819 86.7527C99.619 86.3704 99.8143 86.0401 100.068 85.7617C100.321 85.4791 100.631 85.2589 100.996 85.101C101.362 84.9389 101.773 84.8579 102.231 84.8579C102.609 84.8579 102.958 84.9223 103.278 85.0511C103.602 85.1758 103.88 85.3586 104.113 85.5996C104.35 85.8365 104.535 86.1315 104.668 86.4847C104.801 86.8337 104.867 87.2326 104.867 87.6814C104.867 87.8559 104.848 87.9722 104.811 88.0304C104.774 88.0886 104.703 88.1177 104.599 88.1177H100.379C100.392 88.5166 100.446 88.8635 100.541 89.1586C100.641 89.4536 100.778 89.7008 100.953 89.9003C101.127 90.0956 101.335 90.2431 101.576 90.3428C101.817 90.4384 102.087 90.4861 102.386 90.4861C102.665 90.4861 102.904 90.455 103.103 90.3927C103.307 90.3262 103.481 90.2555 103.627 90.1807C103.772 90.1059 103.893 90.0374 103.988 89.9751C104.088 89.9086 104.173 89.8753 104.244 89.8753C104.335 89.8753 104.406 89.9106 104.456 89.9813L104.767 90.3864ZM107.283 86.2229C107.483 85.7907 107.728 85.4542 108.019 85.2132C108.309 84.968 108.665 84.8454 109.084 84.8454C109.217 84.8454 109.344 84.86 109.465 84.8891C109.589 84.9181 109.699 84.9639 109.795 85.0262L109.714 85.8551C109.689 85.959 109.627 86.011 109.527 86.011C109.469 86.011 109.384 85.9985 109.271 85.9736C109.159 85.9486 109.032 85.9362 108.891 85.9362C108.692 85.9362 108.513 85.9653 108.355 86.0234C108.201 86.0816 108.062 86.1689 107.938 86.2852C107.817 86.3974 107.707 86.5387 107.607 86.709C107.512 86.8753 107.424 87.0664 107.345 87.2825V91.2715H106.23V84.9576H106.866C106.986 84.9576 107.069 84.9805 107.115 85.0262C107.161 85.0719 107.192 85.1508 107.208 85.263L107.283 86.2229ZM118.086 86.0795C118.053 86.1252 118.02 86.1606 117.987 86.1855C117.953 86.2104 117.908 86.2229 117.849 86.2229C117.787 86.2229 117.719 86.198 117.644 86.1481C117.569 86.0941 117.475 86.0359 117.363 85.9736C117.255 85.9112 117.12 85.8551 116.958 85.8053C116.8 85.7513 116.605 85.7243 116.372 85.7243C116.061 85.7243 115.786 85.7804 115.55 85.8925C115.313 86.0006 115.113 86.1585 114.951 86.3662C114.793 86.574 114.673 86.8254 114.59 87.1204C114.511 87.4154 114.471 87.7458 114.471 88.1114C114.471 88.4937 114.515 88.8344 114.602 89.1336C114.689 89.4286 114.812 89.678 114.97 89.8816C115.132 90.081 115.325 90.2348 115.55 90.3428C115.778 90.4467 116.034 90.4986 116.316 90.4986C116.586 90.4986 116.809 90.4674 116.983 90.4051C117.158 90.3386 117.301 90.2659 117.413 90.187C117.529 90.108 117.625 90.0374 117.7 89.9751C117.779 89.9086 117.856 89.8753 117.93 89.8753C118.022 89.8753 118.093 89.9106 118.142 89.9813L118.454 90.3864C118.317 90.5568 118.161 90.7022 117.987 90.8227C117.812 90.9432 117.623 91.045 117.419 91.1281C117.22 91.2071 117.01 91.2653 116.79 91.3026C116.57 91.34 116.345 91.3587 116.117 91.3587C115.722 91.3587 115.354 91.286 115.013 91.1406C114.677 90.9952 114.384 90.7853 114.135 90.5111C113.885 90.2327 113.69 89.8919 113.549 89.4889C113.408 89.0858 113.337 88.6267 113.337 88.1114C113.337 87.6419 113.401 87.2077 113.53 86.8088C113.663 86.4099 113.854 86.0671 114.104 85.7804C114.357 85.4895 114.667 85.263 115.032 85.101C115.402 84.9389 115.826 84.8579 116.304 84.8579C116.748 84.8579 117.139 84.9306 117.475 85.076C117.816 85.2173 118.117 85.4189 118.379 85.6806L118.086 86.0795ZM122.197 84.8579C122.658 84.8579 123.074 84.9348 123.443 85.0885C123.813 85.2423 124.129 85.4604 124.391 85.743C124.653 86.0255 124.852 86.3683 124.989 86.7714C125.13 87.1703 125.201 87.617 125.201 88.1114C125.201 88.6101 125.13 89.0588 124.989 89.4577C124.852 89.8566 124.653 90.1974 124.391 90.4799C124.129 90.7625 123.813 90.9806 123.443 91.1344C123.074 91.284 122.658 91.3587 122.197 91.3587C121.731 91.3587 121.312 91.284 120.938 91.1344C120.568 90.9806 120.252 90.7625 119.99 90.4799C119.729 90.1974 119.527 89.8566 119.386 89.4577C119.249 89.0588 119.18 88.6101 119.18 88.1114C119.18 87.617 119.249 87.1703 119.386 86.7714C119.527 86.3683 119.729 86.0255 119.99 85.743C120.252 85.4604 120.568 85.2423 120.938 85.0885C121.312 84.9348 121.731 84.8579 122.197 84.8579ZM122.197 90.4924C122.82 90.4924 123.286 90.2846 123.593 89.8691C123.9 89.4494 124.054 88.8656 124.054 88.1177C124.054 87.3656 123.9 86.7797 123.593 86.36C123.286 85.9403 122.82 85.7305 122.197 85.7305C121.881 85.7305 121.605 85.7845 121.368 85.8925C121.135 86.0006 120.94 86.1564 120.782 86.36C120.628 86.5636 120.512 86.815 120.433 87.1142C120.358 87.4092 120.321 87.7437 120.321 88.1177C120.321 88.8656 120.474 89.4494 120.782 89.8691C121.094 90.2846 121.565 90.4924 122.197 90.4924ZM127.655 85.8738C127.792 85.7201 127.938 85.5809 128.092 85.4562C128.245 85.3316 128.407 85.2256 128.578 85.1384C128.752 85.047 128.935 84.9784 129.126 84.9327C129.322 84.8828 129.531 84.8579 129.756 84.8579C130.101 84.8579 130.404 84.9161 130.666 85.0324C130.932 85.1446 131.152 85.3067 131.326 85.5186C131.505 85.7263 131.64 85.9777 131.732 86.2727C131.823 86.5678 131.869 86.894 131.869 87.2513V91.2715H130.753V87.2513C130.753 86.7735 130.643 86.4036 130.423 86.1419C130.207 85.8759 129.876 85.743 129.432 85.743C129.103 85.743 128.796 85.8219 128.509 85.9798C128.227 86.1377 127.965 86.3517 127.724 86.6218V91.2715H126.608V84.9576H127.275C127.433 84.9576 127.531 85.0345 127.568 85.1882L127.655 85.8738ZM135.412 91.3712C134.914 91.3712 134.53 91.232 134.259 90.9536C133.993 90.6752 133.861 90.2742 133.861 89.7507V85.8863H133.1C133.034 85.8863 132.978 85.8676 132.932 85.8302C132.886 85.7887 132.863 85.7263 132.863 85.6432V85.2007L133.898 85.0698L134.153 83.1189C134.166 83.0566 134.193 83.0067 134.234 82.9693C134.28 82.9278 134.338 82.907 134.409 82.907H134.97V85.0823H136.796V85.8863H134.97V89.6759C134.97 89.9418 135.034 90.1392 135.163 90.268C135.292 90.3968 135.458 90.4612 135.662 90.4612C135.778 90.4612 135.878 90.4467 135.961 90.4176C136.048 90.3843 136.123 90.349 136.185 90.3116C136.248 90.2742 136.3 90.241 136.341 90.2119C136.387 90.1787 136.426 90.162 136.46 90.162C136.518 90.162 136.57 90.1974 136.615 90.268L136.94 90.7978C136.748 90.9765 136.518 91.1177 136.248 91.2216C135.978 91.3213 135.699 91.3712 135.412 91.3712ZM141.364 88.4293C140.852 88.4459 140.416 88.4875 140.055 88.554C139.697 88.6163 139.404 88.6994 139.176 88.8033C138.951 88.9072 138.787 89.0297 138.683 89.171C138.584 89.3123 138.534 89.4702 138.534 89.6447C138.534 89.8109 138.561 89.9543 138.615 90.0748C138.669 90.1953 138.742 90.295 138.833 90.374C138.929 90.4488 139.039 90.5048 139.163 90.5422C139.292 90.5755 139.429 90.5921 139.575 90.5921C139.77 90.5921 139.949 90.5734 140.111 90.536C140.273 90.4945 140.425 90.4363 140.566 90.3615C140.711 90.2867 140.848 90.1974 140.977 90.0935C141.11 89.9896 141.239 89.8712 141.364 89.7382V88.4293ZM137.78 85.8489C138.129 85.5123 138.505 85.261 138.908 85.0947C139.311 84.9285 139.758 84.8454 140.248 84.8454C140.601 84.8454 140.915 84.9036 141.189 85.0199C141.463 85.1363 141.694 85.2983 141.881 85.5061C142.068 85.7139 142.209 85.9653 142.305 86.2603C142.4 86.5553 142.448 86.8794 142.448 87.2326V91.2715H141.956C141.848 91.2715 141.765 91.2549 141.706 91.2216C141.648 91.1842 141.603 91.1136 141.569 91.0097L141.445 90.4114C141.278 90.5651 141.116 90.7022 140.958 90.8227C140.801 90.9391 140.634 91.0388 140.46 91.1219C140.285 91.2008 140.098 91.2611 139.899 91.3026C139.704 91.3484 139.485 91.3712 139.244 91.3712C138.999 91.3712 138.769 91.338 138.553 91.2715C138.337 91.2008 138.147 91.097 137.985 90.9598C137.827 90.8227 137.701 90.6503 137.605 90.4425C137.514 90.2306 137.468 89.9813 137.468 89.6946C137.468 89.4453 137.537 89.2063 137.674 88.9778C137.811 88.7451 138.033 88.5394 138.341 88.3608C138.648 88.1821 139.049 88.0366 139.544 87.9245C140.038 87.8081 140.645 87.7416 141.364 87.725V87.2326C141.364 86.7423 141.258 86.3725 141.046 86.1232C140.834 85.8697 140.524 85.743 140.117 85.743C139.843 85.743 139.612 85.7783 139.425 85.8489C139.242 85.9154 139.082 85.9923 138.945 86.0795C138.812 86.1626 138.696 86.2395 138.596 86.3101C138.501 86.3766 138.405 86.4099 138.309 86.4099C138.235 86.4099 138.17 86.3912 138.116 86.3538C138.062 86.3122 138.017 86.2624 137.979 86.2042L137.78 85.8489ZM145.31 84.9576V91.2715H144.2V84.9576H145.31ZM145.547 82.9756C145.547 83.0836 145.524 83.1854 145.478 83.281C145.437 83.3724 145.378 83.4555 145.304 83.5303C145.233 83.6009 145.148 83.657 145.048 83.6986C144.953 83.7401 144.851 83.7609 144.743 83.7609C144.635 83.7609 144.533 83.7401 144.437 83.6986C144.346 83.657 144.265 83.6009 144.194 83.5303C144.124 83.4555 144.067 83.3724 144.026 83.281C143.984 83.1854 143.964 83.0836 143.964 82.9756C143.964 82.8675 143.984 82.7657 144.026 82.6702C144.067 82.5704 144.124 82.4853 144.194 82.4146C144.265 82.3398 144.346 82.2817 144.437 82.2401C144.533 82.1986 144.635 82.1778 144.743 82.1778C144.851 82.1778 144.953 82.1986 145.048 82.2401C145.148 82.2817 145.233 82.3398 145.304 82.4146C145.378 82.4853 145.437 82.5704 145.478 82.6702C145.524 82.7657 145.547 82.8675 145.547 82.9756ZM148.18 85.8738C148.317 85.7201 148.462 85.5809 148.616 85.4562C148.77 85.3316 148.932 85.2256 149.102 85.1384C149.277 85.047 149.46 84.9784 149.651 84.9327C149.846 84.8828 150.056 84.8579 150.28 84.8579C150.625 84.8579 150.929 84.9161 151.19 85.0324C151.456 85.1446 151.676 85.3067 151.851 85.5186C152.03 85.7263 152.165 85.9777 152.256 86.2727C152.348 86.5678 152.393 86.894 152.393 87.2513V91.2715H151.278V87.2513C151.278 86.7735 151.167 86.4036 150.947 86.1419C150.731 85.8759 150.401 85.743 149.956 85.743C149.628 85.743 149.32 85.8219 149.034 85.9798C148.751 86.1377 148.489 86.3517 148.248 86.6218V91.2715H147.133V84.9576H147.8C147.958 84.9576 148.055 85.0345 148.093 85.1882L148.18 85.8738ZM157.761 85.9985C157.711 86.0899 157.634 86.1356 157.531 86.1356C157.468 86.1356 157.398 86.1128 157.319 86.0671C157.24 86.0214 157.142 85.9715 157.026 85.9175C156.914 85.8593 156.778 85.8074 156.621 85.7617C156.463 85.7118 156.276 85.6869 156.06 85.6869C155.873 85.6869 155.704 85.7118 155.555 85.7617C155.405 85.8074 155.276 85.8718 155.168 85.9549C155.064 86.038 154.983 86.1356 154.925 86.2478C154.871 86.3559 154.844 86.4743 154.844 86.6031C154.844 86.7651 154.89 86.9002 154.981 87.0082C155.077 87.1163 155.202 87.2098 155.355 87.2887C155.509 87.3677 155.684 87.4383 155.879 87.5006C156.074 87.5588 156.274 87.6232 156.477 87.6938C156.685 87.7603 156.887 87.8351 157.082 87.9182C157.277 88.0013 157.452 88.1052 157.605 88.2299C157.759 88.3545 157.882 88.5083 157.973 88.6911C158.069 88.8698 158.116 89.0858 158.116 89.3393C158.116 89.6302 158.065 89.9003 157.961 90.1496C157.857 90.3947 157.703 90.6087 157.499 90.7916C157.296 90.9702 157.047 91.1115 156.751 91.2154C156.456 91.3193 156.116 91.3712 155.729 91.3712C155.289 91.3712 154.89 91.3006 154.533 91.1593C154.175 91.0139 153.872 90.829 153.623 90.6046L153.884 90.1807C153.918 90.1267 153.957 90.0852 154.003 90.0561C154.049 90.027 154.107 90.0125 154.177 90.0125C154.252 90.0125 154.331 90.0415 154.414 90.0997C154.497 90.1579 154.597 90.2223 154.713 90.2929C154.834 90.3636 154.979 90.428 155.15 90.4861C155.32 90.5443 155.532 90.5734 155.785 90.5734C156.001 90.5734 156.191 90.5464 156.353 90.4924C156.515 90.4342 156.65 90.3573 156.758 90.2618C156.866 90.1662 156.945 90.0561 156.995 89.9314C157.049 89.8068 157.076 89.6738 157.076 89.5325C157.076 89.358 157.028 89.2146 156.932 89.1025C156.841 88.9861 156.718 88.8885 156.565 88.8095C156.411 88.7264 156.234 88.6558 156.035 88.5976C155.839 88.5353 155.638 88.4709 155.43 88.4044C155.227 88.3379 155.025 88.2631 154.826 88.18C154.63 88.0927 154.456 87.9847 154.302 87.8559C154.148 87.7271 154.024 87.5692 153.928 87.3822C153.837 87.1911 153.791 86.9604 153.791 86.6903C153.791 86.4493 153.841 86.2187 153.94 85.9985C154.04 85.7741 154.186 85.5788 154.377 85.4126C154.568 85.2423 154.803 85.1072 155.081 85.0075C155.359 84.9078 155.677 84.8579 156.035 84.8579C156.45 84.8579 156.822 84.9244 157.15 85.0573C157.483 85.1862 157.77 85.3648 158.011 85.5934L157.761 85.9985ZM164.044 85.7118C164.509 85.6121 164.937 85.5622 165.328 85.5622C165.793 85.5622 166.204 85.6308 166.562 85.7679C166.919 85.905 167.216 86.0941 167.453 86.3351C167.694 86.5761 167.875 86.8607 167.995 87.189C168.12 87.5172 168.182 87.8746 168.182 88.261C168.182 88.7347 168.099 89.1627 167.933 89.545C167.771 89.9273 167.544 90.2555 167.254 90.5298C166.967 90.7999 166.628 91.0076 166.238 91.1531C165.847 91.2985 165.425 91.3712 164.972 91.3712C164.711 91.3712 164.459 91.3442 164.218 91.2902C163.977 91.2403 163.751 91.1718 163.539 91.0845C163.331 90.9972 163.138 90.8975 162.959 90.7853C162.78 90.6731 162.623 90.5547 162.485 90.4301L162.828 89.9564C162.903 89.8483 163.001 89.7943 163.121 89.7943C163.204 89.7943 163.298 89.8275 163.402 89.894C163.506 89.9564 163.632 90.027 163.782 90.1059C163.931 90.1849 164.106 90.2576 164.305 90.3241C164.509 90.3864 164.75 90.4176 165.028 90.4176C165.34 90.4176 165.621 90.3677 165.87 90.268C166.119 90.1683 166.333 90.027 166.512 89.8442C166.69 89.6572 166.828 89.4349 166.923 89.1773C167.019 88.9196 167.067 88.6308 167.067 88.3109C167.067 88.0325 167.025 87.7811 166.942 87.5567C166.863 87.3323 166.74 87.1412 166.574 86.9833C166.412 86.8254 166.208 86.7028 165.963 86.6156C165.718 86.5283 165.431 86.4847 165.103 86.4847C164.879 86.4847 164.644 86.5034 164.399 86.5408C164.158 86.5782 163.911 86.6384 163.657 86.7215L162.959 86.5158L163.676 82.3398H167.908V82.826C167.908 82.9839 167.858 83.1148 167.758 83.2187C167.663 83.3184 167.497 83.3682 167.26 83.3682H164.455L164.044 85.7118ZM180.585 82.3398V91.2715H179.376V87.2077H174.558V91.2715H173.348V82.3398H174.558V86.3226H179.376V82.3398H180.585ZM183.681 84.9576V91.2715H182.571V84.9576H183.681ZM183.918 82.9756C183.918 83.0836 183.895 83.1854 183.849 83.281C183.807 83.3724 183.749 83.4555 183.675 83.5303C183.604 83.6009 183.519 83.657 183.419 83.6986C183.323 83.7401 183.222 83.7609 183.114 83.7609C183.006 83.7609 182.904 83.7401 182.808 83.6986C182.717 83.657 182.636 83.6009 182.565 83.5303C182.494 83.4555 182.438 83.3724 182.397 83.281C182.355 83.1854 182.334 83.0836 182.334 82.9756C182.334 82.8675 182.355 82.7657 182.397 82.6702C182.438 82.5704 182.494 82.4853 182.565 82.4146C182.636 82.3398 182.717 82.2817 182.808 82.2401C182.904 82.1986 183.006 82.1778 183.114 82.1778C183.222 82.1778 183.323 82.1986 183.419 82.2401C183.519 82.2817 183.604 82.3398 183.675 82.4146C183.749 82.4853 183.807 82.5704 183.849 82.6702C183.895 82.7657 183.918 82.8675 183.918 82.9756ZM187.704 88.1862C187.928 88.1862 188.126 88.1551 188.296 88.0927C188.466 88.0304 188.61 87.9431 188.726 87.831C188.842 87.7188 188.93 87.5858 188.988 87.4321C189.046 87.2742 189.075 87.1017 189.075 86.9147C189.075 86.5283 188.957 86.2208 188.72 85.9923C188.487 85.7637 188.148 85.6495 187.704 85.6495C187.255 85.6495 186.912 85.7637 186.675 85.9923C186.443 86.2208 186.326 86.5283 186.326 86.9147C186.326 87.1017 186.355 87.2742 186.414 87.4321C186.476 87.5858 186.565 87.7188 186.682 87.831C186.798 87.9431 186.941 88.0304 187.112 88.0927C187.282 88.1551 187.479 88.1862 187.704 88.1862ZM189.705 91.6143C189.705 91.4605 189.661 91.3359 189.574 91.2403C189.486 91.1448 189.368 91.07 189.218 91.0159C189.073 90.9619 188.903 90.9245 188.707 90.9037C188.512 90.8788 188.304 90.8601 188.084 90.8477C187.868 90.8352 187.648 90.8227 187.423 90.8103C187.199 90.7978 186.983 90.777 186.775 90.7479C186.542 90.856 186.351 90.9931 186.202 91.1593C186.056 91.3213 185.984 91.5125 185.984 91.7327C185.984 91.874 186.019 92.0049 186.09 92.1254C186.164 92.25 186.277 92.356 186.426 92.4433C186.576 92.5347 186.763 92.6053 186.987 92.6552C187.216 92.7092 187.484 92.7362 187.791 92.7362C188.09 92.7362 188.358 92.7092 188.595 92.6552C188.832 92.6012 189.031 92.5243 189.193 92.4246C189.36 92.3248 189.486 92.2064 189.574 92.0693C189.661 91.9322 189.705 91.7805 189.705 91.6143ZM190.833 85.2069V85.6183C190.833 85.7554 190.745 85.8427 190.571 85.8801L189.854 85.9736C189.995 86.2478 190.066 86.5511 190.066 86.8836C190.066 87.1911 190.006 87.4715 189.885 87.725C189.769 87.9743 189.607 88.1883 189.399 88.367C189.191 88.5457 188.942 88.6828 188.651 88.7784C188.36 88.8739 188.045 88.9217 187.704 88.9217C187.409 88.9217 187.13 88.8864 186.869 88.8157C186.736 88.8989 186.634 88.9882 186.563 89.0838C186.493 89.1752 186.457 89.2687 186.457 89.3642C186.457 89.5138 186.518 89.6281 186.638 89.707C186.763 89.7818 186.925 89.8359 187.124 89.8691C187.324 89.9023 187.55 89.9231 187.804 89.9314C188.061 89.9397 188.323 89.9543 188.589 89.9751C188.859 89.9917 189.121 90.0228 189.374 90.0685C189.632 90.1143 189.86 90.189 190.06 90.2929C190.259 90.3968 190.419 90.5402 190.54 90.723C190.664 90.9058 190.727 91.1427 190.727 91.4335C190.727 91.7036 190.658 91.9654 190.521 92.2189C190.388 92.4723 190.195 92.6967 189.941 92.892C189.688 93.0915 189.376 93.2494 189.007 93.3657C188.641 93.4862 188.227 93.5465 187.766 93.5465C187.305 93.5465 186.902 93.5008 186.557 93.4093C186.212 93.3179 185.925 93.1954 185.697 93.0416C185.468 92.8879 185.296 92.7092 185.18 92.5056C185.067 92.3061 185.011 92.0963 185.011 91.8761C185.011 91.5644 185.109 91.3006 185.304 91.0845C185.499 90.8684 185.768 90.696 186.108 90.5672C185.921 90.4841 185.772 90.374 185.659 90.2368C185.551 90.0956 185.497 89.9065 185.497 89.6696C185.497 89.5782 185.514 89.4847 185.547 89.3892C185.581 89.2894 185.63 89.1918 185.697 89.0962C185.768 88.9965 185.853 88.903 185.952 88.8157C186.052 88.7285 186.168 88.6516 186.301 88.5851C185.99 88.4106 185.747 88.18 185.572 87.8933C185.398 87.6024 185.31 87.2658 185.31 86.8836C185.31 86.5761 185.369 86.2977 185.485 86.0484C185.605 85.7949 185.772 85.5809 185.984 85.4064C186.195 85.2277 186.447 85.0906 186.738 84.995C187.033 84.8994 187.355 84.8517 187.704 84.8517C187.978 84.8517 188.234 84.8828 188.47 84.9452C188.707 85.0033 188.923 85.0906 189.119 85.2069H190.833ZM193.096 85.7991C193.366 85.5123 193.665 85.2838 193.993 85.1134C194.321 84.9431 194.7 84.8579 195.128 84.8579C195.472 84.8579 195.776 84.9161 196.038 85.0324C196.303 85.1446 196.524 85.3067 196.698 85.5186C196.877 85.7263 197.012 85.9777 197.103 86.2727C197.195 86.5678 197.24 86.894 197.24 87.2513V91.2715H196.125V87.2513C196.125 86.7735 196.015 86.4036 195.794 86.1419C195.578 85.8759 195.248 85.743 194.803 85.743C194.475 85.743 194.168 85.8219 193.881 85.9798C193.598 86.1377 193.337 86.3517 193.096 86.6218V91.2715H191.98V82.0905H193.096V85.7991ZM58.0062 106.751C58.2098 107.025 58.4321 107.218 58.6731 107.33C58.9141 107.443 59.1842 107.499 59.4834 107.499C60.0735 107.499 60.5264 107.289 60.8422 106.869C61.158 106.449 61.3159 105.851 61.3159 105.074C61.3159 104.663 61.2785 104.309 61.2037 104.014C61.133 103.719 61.0292 103.478 60.892 103.291C60.7549 103.1 60.5866 102.961 60.3872 102.874C60.1877 102.787 59.9613 102.743 59.7078 102.743C59.3463 102.743 59.0284 102.826 58.7542 102.992C58.4841 103.158 58.2348 103.393 58.0062 103.697V106.751ZM57.9501 102.936C58.2161 102.608 58.5236 102.344 58.8726 102.145C59.2216 101.945 59.6205 101.845 60.0693 101.845C60.435 101.845 60.7653 101.916 61.0603 102.057C61.3553 102.194 61.6067 102.4 61.8145 102.674C62.0223 102.944 62.1822 103.281 62.2944 103.684C62.4066 104.087 62.4627 104.55 62.4627 105.074C62.4627 105.539 62.4004 105.974 62.2757 106.377C62.1511 106.776 61.9703 107.123 61.7335 107.418C61.5008 107.708 61.2141 107.939 60.8733 108.109C60.5368 108.276 60.1566 108.359 59.7327 108.359C59.3463 108.359 59.0139 108.294 58.7355 108.166C58.4612 108.033 58.2181 107.85 58.0062 107.617V110.409H56.8905V101.958H57.5575C57.7154 101.958 57.813 102.034 57.8504 102.188L57.9501 102.936ZM64.9315 103.223C65.1309 102.791 65.3761 102.454 65.667 102.213C65.9578 101.968 66.3131 101.845 66.7328 101.845C66.8657 101.845 66.9925 101.86 67.113 101.889C67.2376 101.918 67.3478 101.964 67.4433 102.026L67.3623 102.855C67.3374 102.959 67.275 103.011 67.1753 103.011C67.1171 103.011 67.032 102.999 66.9198 102.974C66.8076 102.949 66.6808 102.936 66.5396 102.936C66.3401 102.936 66.1614 102.965 66.0035 103.023C65.8498 103.082 65.7106 103.169 65.5859 103.285C65.4654 103.397 65.3553 103.539 65.2556 103.709C65.16 103.875 65.0728 104.066 64.9938 104.282V108.271H63.8781V101.958H64.5139C64.6344 101.958 64.7175 101.98 64.7632 102.026C64.8089 102.072 64.8401 102.151 64.8567 102.263L64.9315 103.223ZM69.5906 101.958V108.271H68.4812V101.958H69.5906ZM69.8275 99.9756C69.8275 100.084 69.8046 100.185 69.7589 100.281C69.7174 100.372 69.6592 100.456 69.5844 100.53C69.5138 100.601 69.4286 100.657 69.3289 100.699C69.2333 100.74 69.1315 100.761 69.0234 100.761C68.9154 100.761 68.8136 100.74 68.718 100.699C68.6266 100.657 68.5456 100.601 68.475 100.53C68.4043 100.456 68.3482 100.372 68.3067 100.281C68.2651 100.185 68.2443 100.084 68.2443 99.9756C68.2443 99.8675 68.2651 99.7657 68.3067 99.6702C68.3482 99.5704 68.4043 99.4853 68.475 99.4146C68.5456 99.3398 68.6266 99.2817 68.718 99.2401C68.8136 99.1986 68.9154 99.1778 69.0234 99.1778C69.1315 99.1778 69.2333 99.1986 69.3289 99.2401C69.4286 99.2817 69.5138 99.3398 69.5844 99.4146C69.6592 99.4853 69.7174 99.5704 69.7589 99.6702C69.8046 99.7657 69.8275 99.8675 69.8275 99.9756ZM74.075 101.858C74.5362 101.858 74.9517 101.935 75.3215 102.089C75.6913 102.242 76.0071 102.46 76.2689 102.743C76.5307 103.026 76.7302 103.368 76.8673 103.771C77.0086 104.17 77.0792 104.617 77.0792 105.111C77.0792 105.61 77.0086 106.059 76.8673 106.458C76.7302 106.857 76.5307 107.197 76.2689 107.48C76.0071 107.762 75.6913 107.981 75.3215 108.134C74.9517 108.284 74.5362 108.359 74.075 108.359C73.6096 108.359 73.1899 108.284 72.8159 108.134C72.4461 107.981 72.1303 107.762 71.8685 107.48C71.6068 107.197 71.4052 106.857 71.264 106.458C71.1268 106.059 71.0583 105.61 71.0583 105.111C71.0583 104.617 71.1268 104.17 71.264 103.771C71.4052 103.368 71.6068 103.026 71.8685 102.743C72.1303 102.46 72.4461 102.242 72.8159 102.089C73.1899 101.935 73.6096 101.858 74.075 101.858ZM74.075 107.492C74.6982 107.492 75.1636 107.285 75.4711 106.869C75.7786 106.449 75.9323 105.866 75.9323 105.118C75.9323 104.366 75.7786 103.78 75.4711 103.36C75.1636 102.94 74.6982 102.73 74.075 102.73C73.7592 102.73 73.4828 102.785 73.246 102.893C73.0133 103.001 72.818 103.156 72.6601 103.36C72.5064 103.564 72.39 103.815 72.3111 104.114C72.2363 104.409 72.1989 104.744 72.1989 105.118C72.1989 105.866 72.3526 106.449 72.6601 106.869C72.9718 107.285 73.4434 107.492 74.075 107.492ZM79.5397 103.223C79.7392 102.791 79.9843 102.454 80.2752 102.213C80.566 101.968 80.9213 101.845 81.341 101.845C81.474 101.845 81.6007 101.86 81.7212 101.889C81.8458 101.918 81.956 101.964 82.0515 102.026L81.9705 102.855C81.9456 102.959 81.8832 103.011 81.7835 103.011C81.7253 103.011 81.6402 102.999 81.528 102.974C81.4158 102.949 81.289 102.936 81.1478 102.936C80.9483 102.936 80.7696 102.965 80.6117 103.023C80.458 103.082 80.3188 103.169 80.1941 103.285C80.0736 103.397 79.9635 103.539 79.8638 103.709C79.7682 103.875 79.681 104.066 79.602 104.282V108.271H78.4864V101.958H79.1221C79.2426 101.958 79.3257 101.98 79.3714 102.026C79.4171 102.072 79.4483 102.151 79.4649 102.263L79.5397 103.223ZM84.1988 101.958V108.271H83.0894V101.958H84.1988ZM84.4357 99.9756C84.4357 100.084 84.4128 100.185 84.3671 100.281C84.3256 100.372 84.2674 100.456 84.1926 100.53C84.122 100.601 84.0368 100.657 83.9371 100.699C83.8415 100.74 83.7397 100.761 83.6317 100.761C83.5236 100.761 83.4218 100.74 83.3262 100.699C83.2348 100.657 83.1538 100.601 83.0832 100.53C83.0125 100.456 82.9564 100.372 82.9149 100.281C82.8733 100.185 82.8525 100.084 82.8525 99.9756C82.8525 99.8675 82.8733 99.7657 82.9149 99.6702C82.9564 99.5704 83.0125 99.4853 83.0832 99.4146C83.1538 99.3398 83.2348 99.2817 83.3262 99.2401C83.4218 99.1986 83.5236 99.1778 83.6317 99.1778C83.7397 99.1778 83.8415 99.1986 83.9371 99.2401C84.0368 99.2817 84.122 99.3398 84.1926 99.4146C84.2674 99.4853 84.3256 99.5704 84.3671 99.6702C84.4128 99.7657 84.4357 99.8675 84.4357 99.9756ZM87.9602 108.371C87.4615 108.371 87.0772 108.232 86.8071 107.954C86.5412 107.675 86.4082 107.274 86.4082 106.751V102.886H85.6478C85.5813 102.886 85.5252 102.868 85.4795 102.83C85.4338 102.789 85.4109 102.726 85.4109 102.643V102.201L86.4456 102.07L86.7011 100.119C86.7136 100.057 86.7406 100.007 86.7822 99.9693C86.8279 99.9278 86.886 99.907 86.9567 99.907H87.5176V102.082H89.3439V102.886H87.5176V106.676C87.5176 106.942 87.582 107.139 87.7108 107.268C87.8397 107.397 88.0059 107.461 88.2095 107.461C88.3258 107.461 88.4255 107.447 88.5087 107.418C88.5959 107.384 88.6707 107.349 88.733 107.312C88.7954 107.274 88.8473 107.241 88.8889 107.212C88.9346 107.179 88.974 107.162 89.0073 107.162C89.0655 107.162 89.1174 107.197 89.1631 107.268L89.4872 107.798C89.2961 107.976 89.0655 108.118 88.7954 108.222C88.5253 108.321 88.2469 108.371 87.9602 108.371ZM95.9369 101.958L92.4154 110.135C92.378 110.218 92.3302 110.285 92.272 110.335C92.218 110.384 92.1328 110.409 92.0165 110.409H91.1937L92.3468 107.904L89.7415 101.958H90.7013C90.7969 101.958 90.8717 101.983 90.9257 102.032C90.9839 102.078 91.0234 102.13 91.0442 102.188L92.7333 106.165C92.7997 106.339 92.8558 106.522 92.9015 106.713C92.9597 106.518 93.022 106.333 93.0885 106.159L94.7278 102.188C94.7527 102.122 94.7942 102.068 94.8524 102.026C94.9147 101.98 94.9833 101.958 95.0581 101.958H95.9369ZM104.633 100.736C104.595 100.798 104.554 100.846 104.508 100.879C104.466 100.908 104.414 100.923 104.352 100.923C104.281 100.923 104.198 100.888 104.103 100.817C104.007 100.746 103.887 100.67 103.741 100.586C103.6 100.499 103.428 100.42 103.224 100.35C103.025 100.279 102.781 100.244 102.495 100.244C102.225 100.244 101.986 100.281 101.778 100.356C101.574 100.426 101.402 100.524 101.261 100.649C101.124 100.773 101.02 100.921 100.949 101.091C100.878 101.257 100.843 101.438 100.843 101.634C100.843 101.883 100.903 102.091 101.024 102.257C101.148 102.419 101.311 102.558 101.51 102.674C101.714 102.791 101.942 102.893 102.196 102.98C102.453 103.063 102.715 103.15 102.981 103.242C103.251 103.333 103.513 103.437 103.766 103.553C104.024 103.665 104.252 103.809 104.452 103.983C104.655 104.158 104.818 104.372 104.938 104.625C105.063 104.879 105.125 105.19 105.125 105.56C105.125 105.951 105.059 106.319 104.926 106.663C104.793 107.004 104.597 107.301 104.34 107.555C104.086 107.808 103.772 108.008 103.399 108.153C103.029 108.298 102.607 108.371 102.133 108.371C101.552 108.371 101.024 108.267 100.55 108.06C100.076 107.848 99.6713 107.563 99.3347 107.206L99.6837 106.632C99.717 106.587 99.7565 106.549 99.8022 106.52C99.852 106.487 99.906 106.47 99.9642 106.47C100.018 106.47 100.078 106.493 100.145 106.539C100.216 106.58 100.295 106.634 100.382 106.701C100.469 106.767 100.569 106.84 100.681 106.919C100.793 106.998 100.92 107.071 101.061 107.137C101.207 107.204 101.371 107.26 101.554 107.305C101.736 107.347 101.942 107.368 102.171 107.368C102.457 107.368 102.713 107.328 102.937 107.249C103.162 107.17 103.351 107.06 103.504 106.919C103.662 106.774 103.783 106.601 103.866 106.402C103.949 106.202 103.991 105.98 103.991 105.735C103.991 105.465 103.928 105.244 103.804 105.074C103.683 104.9 103.523 104.754 103.324 104.638C103.124 104.521 102.896 104.424 102.638 104.345C102.38 104.262 102.119 104.179 101.853 104.095C101.587 104.008 101.325 103.908 101.067 103.796C100.81 103.684 100.581 103.539 100.382 103.36C100.182 103.181 100.02 102.959 99.8957 102.693C99.7752 102.423 99.7149 102.091 99.7149 101.696C99.7149 101.38 99.7752 101.075 99.8957 100.78C100.02 100.485 100.199 100.223 100.432 99.9943C100.669 99.7657 100.957 99.5829 101.298 99.4458C101.643 99.3087 102.038 99.2401 102.482 99.2401C102.981 99.2401 103.434 99.3191 103.841 99.477C104.252 99.6349 104.614 99.8634 104.926 100.163L104.633 100.736ZM108.035 103.254H108.49C108.648 103.254 108.775 103.235 108.871 103.198C108.966 103.156 109.053 103.088 109.132 102.992L112.105 99.6265C112.188 99.5185 112.276 99.4437 112.367 99.4022C112.459 99.3606 112.571 99.3398 112.704 99.3398H113.726L110.323 103.185C110.24 103.285 110.159 103.368 110.08 103.435C110.005 103.497 109.924 103.549 109.837 103.591C109.949 103.628 110.051 103.684 110.142 103.759C110.233 103.83 110.323 103.923 110.41 104.039L113.963 108.271H112.916C112.837 108.271 112.768 108.267 112.71 108.259C112.656 108.247 112.608 108.23 112.567 108.209C112.525 108.184 112.488 108.157 112.454 108.128C112.425 108.095 112.396 108.057 112.367 108.016L109.288 104.469C109.205 104.366 109.116 104.293 109.02 104.251C108.925 104.206 108.779 104.183 108.584 104.183H108.035V108.271H106.832V99.3398H108.035V103.254ZM118.533 107.312C118.903 107.312 119.233 107.249 119.524 107.125C119.815 107 120.06 106.825 120.259 106.601C120.463 106.377 120.617 106.109 120.721 105.797C120.829 105.485 120.883 105.143 120.883 104.769V99.3398H122.086V104.769C122.086 105.284 122.002 105.762 121.836 106.202C121.674 106.643 121.439 107.025 121.132 107.349C120.829 107.669 120.457 107.92 120.016 108.103C119.576 108.286 119.081 108.377 118.533 108.377C117.984 108.377 117.49 108.286 117.049 108.103C116.609 107.92 116.235 107.669 115.927 107.349C115.62 107.025 115.383 106.643 115.217 106.202C115.055 105.762 114.974 105.284 114.974 104.769V99.3398H116.177V104.762C116.177 105.136 116.229 105.479 116.333 105.791C116.441 106.102 116.594 106.37 116.794 106.595C116.997 106.819 117.245 106.996 117.536 107.125C117.831 107.249 118.163 107.312 118.533 107.312ZM127.364 102.999C127.314 103.09 127.237 103.136 127.133 103.136C127.071 103.136 127 103.113 126.921 103.067C126.842 103.021 126.745 102.971 126.628 102.917C126.516 102.859 126.381 102.807 126.223 102.762C126.065 102.712 125.878 102.687 125.662 102.687C125.475 102.687 125.307 102.712 125.158 102.762C125.008 102.807 124.879 102.872 124.771 102.955C124.667 103.038 124.586 103.136 124.528 103.248C124.474 103.356 124.447 103.474 124.447 103.603C124.447 103.765 124.493 103.9 124.584 104.008C124.68 104.116 124.804 104.21 124.958 104.289C125.112 104.368 125.286 104.438 125.482 104.501C125.677 104.559 125.876 104.623 126.08 104.694C126.288 104.76 126.489 104.835 126.685 104.918C126.88 105.001 127.054 105.105 127.208 105.23C127.362 105.355 127.484 105.508 127.576 105.691C127.671 105.87 127.719 106.086 127.719 106.339C127.719 106.63 127.667 106.9 127.563 107.15C127.46 107.395 127.306 107.609 127.102 107.792C126.899 107.97 126.649 108.112 126.354 108.215C126.059 108.319 125.718 108.371 125.332 108.371C124.892 108.371 124.493 108.301 124.135 108.159C123.778 108.014 123.475 107.829 123.225 107.605L123.487 107.181C123.52 107.127 123.56 107.085 123.606 107.056C123.651 107.027 123.709 107.012 123.78 107.012C123.855 107.012 123.934 107.042 124.017 107.1C124.1 107.158 124.2 107.222 124.316 107.293C124.437 107.364 124.582 107.428 124.752 107.486C124.923 107.544 125.135 107.573 125.388 107.573C125.604 107.573 125.793 107.546 125.955 107.492C126.117 107.434 126.252 107.357 126.36 107.262C126.469 107.166 126.547 107.056 126.597 106.931C126.651 106.807 126.678 106.674 126.678 106.533C126.678 106.358 126.631 106.215 126.535 106.102C126.444 105.986 126.321 105.888 126.167 105.81C126.014 105.726 125.837 105.656 125.637 105.598C125.442 105.535 125.241 105.471 125.033 105.404C124.829 105.338 124.628 105.263 124.428 105.18C124.233 105.093 124.058 104.985 123.905 104.856C123.751 104.727 123.626 104.569 123.531 104.382C123.439 104.191 123.394 103.96 123.394 103.69C123.394 103.449 123.444 103.219 123.543 102.999C123.643 102.774 123.788 102.579 123.98 102.413C124.171 102.242 124.405 102.107 124.684 102.007C124.962 101.908 125.28 101.858 125.637 101.858C126.053 101.858 126.425 101.924 126.753 102.057C127.086 102.186 127.372 102.365 127.613 102.593L127.364 102.999Z" fill="#717A7B"/>
<path d="M61.5365 36.532C60.053 36.532 58.8314 37.0265 57.8715 38.03C56.9262 39.0189 56.4463 40.2696 56.4463 41.7967C56.4463 43.3237 56.9262 44.589 57.8715 45.5925C58.8314 46.596 60.053 47.0904 61.551 47.0904C64.0961 47.0904 65.6813 45.7961 66.2485 43.5273H64.1397C63.747 44.6617 62.8744 45.2289 61.551 45.2289C60.6493 45.2289 59.9221 44.9089 59.355 44.269C58.8023 43.6146 58.526 42.8002 58.526 41.7967C58.526 40.8077 58.8023 39.9933 59.355 39.3534C59.9221 38.7135 60.6493 38.3935 61.5365 38.3935C62.8017 38.3935 63.6161 38.9316 64.0088 40.0079H66.2048C65.6377 37.87 64.0379 36.532 61.5365 36.532ZM70.9649 39.3679C69.8451 39.3679 68.9289 39.7315 68.2017 40.4441C67.4745 41.1568 67.111 42.073 67.111 43.2074C67.111 44.3417 67.4745 45.2725 68.2017 45.9851C68.9289 46.6978 69.8451 47.0613 70.9649 47.0613C72.0848 47.0613 73.0155 46.6978 73.7427 45.9851C74.4844 45.2725 74.848 44.3417 74.848 43.2074C74.848 42.073 74.4844 41.1568 73.7427 40.4441C73.0155 39.7315 72.0848 39.3679 70.9649 39.3679ZM70.9795 41.0841C72.1284 41.0841 72.8846 41.9712 72.8846 43.2074C72.8846 44.429 72.0993 45.3307 70.9795 45.3307C70.4123 45.3307 69.9614 45.1271 69.5979 44.7344C69.2343 44.3272 69.0598 43.8182 69.0598 43.2074C69.0598 42.5966 69.2343 42.0875 69.5979 41.6949C69.9614 41.2877 70.4123 41.0841 70.9795 41.0841ZM80.0786 39.3679C79.1478 39.3679 78.4788 39.7461 78.0861 40.4878L77.9407 39.5279H76.3264V46.9014H78.2025V43.0038C78.2025 41.8403 78.7406 41.2004 79.5114 41.2004C80.2095 41.2004 80.5585 41.6367 80.5585 42.5238V46.9014H82.4637V42.1166C82.4637 40.4151 81.6347 39.3679 80.0786 39.3679ZM84.7871 37.7391L84.7725 39.5279H83.5654V41.244H84.7725L84.7434 44.6762C84.7289 46.3051 85.5288 47.0032 87.1722 47.0032C87.6812 47.0032 88.0884 46.945 88.3647 46.8432V45.1853C88.1175 45.258 87.8702 45.2871 87.5939 45.2871C86.8813 45.2871 86.6341 44.9962 86.6341 44.2254L86.6632 41.244H88.3647V39.5279H86.6777L86.6922 37.7391H84.7871ZM92.5955 39.3679C90.8939 39.3679 89.7595 40.4296 89.6577 41.9567H91.4902C91.4902 41.3749 91.9555 40.9823 92.5955 40.9823C93.279 40.9823 93.628 41.3604 93.628 42.1021V42.3784L91.7229 42.7274C90.2831 42.9601 89.4396 43.5855 89.4396 44.938C89.4396 46.2324 90.3412 47.0613 91.6792 47.0613C92.6245 47.0613 93.3226 46.7123 93.788 45.9997L93.9043 46.9014H95.5187V42.0585C95.5187 40.2987 94.3988 39.3679 92.5955 39.3679ZM93.628 43.8618C93.628 44.2399 93.5408 44.5599 93.3662 44.8362C93.0899 45.2871 92.6973 45.5052 92.1882 45.5052C91.6501 45.5052 91.3302 45.2289 91.3302 44.778C91.3302 44.3563 91.6065 44.08 92.1592 43.9491L93.628 43.6437V43.8618ZM97.3747 39.5279V46.9014H99.2654V39.5279H97.3747ZM98.3201 36.2411C97.6801 36.2411 97.1711 36.7356 97.1711 37.361C97.1711 38.0009 97.6801 38.4808 98.3201 38.4808C98.96 38.4808 99.469 38.0009 99.469 37.361C99.469 36.7356 98.9454 36.2411 98.3201 36.2411ZM105.032 39.3679C104.101 39.3679 103.432 39.7461 103.04 40.4878L102.894 39.5279H101.28V46.9014H103.156V43.0038C103.156 41.8403 103.694 41.2004 104.465 41.2004C105.163 41.2004 105.512 41.6367 105.512 42.5238V46.9014H107.417V42.1166C107.417 40.4151 106.588 39.3679 105.032 39.3679ZM112.446 39.3679C111.355 39.3679 110.482 39.7315 109.799 40.4587C109.115 41.1713 108.781 42.1021 108.781 43.2219C108.781 44.3708 109.115 45.3016 109.784 46.0142C110.468 46.7123 111.355 47.0613 112.446 47.0613C114.206 47.0613 115.354 46.1742 115.82 44.589H113.987C113.769 45.1562 113.275 45.447 112.504 45.447C111.471 45.447 110.788 44.778 110.73 43.7891H115.863V43.2074C115.863 40.6914 114.482 39.3679 112.446 39.3679ZM110.744 42.4802C110.846 41.564 111.471 40.9386 112.402 40.9386C113.333 40.9386 113.944 41.5494 113.958 42.4802H110.744ZM121.413 39.4552C120.25 39.4552 119.537 39.9642 119.261 40.7059L119.086 39.5279H117.457V46.9014H119.348V43.1492C119.377 42.5238 119.581 42.073 119.944 41.7821C120.322 41.4913 120.817 41.3458 121.413 41.3458V39.4552ZM125.695 36.7211V46.9014H127.687V43.2946H128.967C130.058 43.2946 130.916 42.9892 131.57 42.3784C132.225 41.7676 132.545 40.9823 132.545 40.0079C132.545 39.0335 132.225 38.2336 131.57 37.6373C130.93 37.0265 130.058 36.7211 128.967 36.7211H125.695ZM128.967 38.5826C129.912 38.5826 130.509 39.0916 130.509 40.0079C130.509 40.895 129.912 41.4185 128.967 41.4185H127.687V38.5826H128.967ZM137.888 39.4552C136.724 39.4552 136.012 39.9642 135.735 40.7059L135.561 39.5279H133.932V46.9014H135.823V43.1492C135.852 42.5238 136.055 42.073 136.419 41.7821C136.797 41.4913 137.292 41.3458 137.888 41.3458V39.4552ZM139.286 39.5279V46.9014H141.177V39.5279H139.286ZM140.231 36.2411C139.592 36.2411 139.082 36.7356 139.082 37.361C139.082 38.0009 139.592 38.4808 140.231 38.4808C140.871 38.4808 141.38 38.0009 141.38 37.361C141.38 36.7356 140.857 36.2411 140.231 36.2411ZM146.522 39.3679C145.402 39.3679 144.486 39.7315 143.759 40.4441C143.031 41.1568 142.668 42.073 142.668 43.2074C142.668 44.3417 143.031 45.2725 143.759 45.9851C144.486 46.6978 145.402 47.0613 146.522 47.0613C147.642 47.0613 148.572 46.6978 149.3 45.9851C150.041 45.2725 150.405 44.3417 150.405 43.2074C150.405 42.073 150.041 41.1568 149.3 40.4441C148.572 39.7315 147.642 39.3679 146.522 39.3679ZM146.536 41.0841C147.685 41.0841 148.442 41.9712 148.442 43.2074C148.442 44.429 147.656 45.3307 146.536 45.3307C145.969 45.3307 145.518 45.1271 145.155 44.7344C144.791 44.3272 144.617 43.8182 144.617 43.2074C144.617 42.5966 144.791 42.0875 145.155 41.6949C145.518 41.2877 145.969 41.0841 146.536 41.0841ZM155.868 39.4552C154.705 39.4552 153.992 39.9642 153.716 40.7059L153.541 39.5279H151.912V46.9014H153.803V43.1492C153.832 42.5238 154.036 42.073 154.399 41.7821C154.777 41.4913 155.272 41.3458 155.868 41.3458V39.4552ZM157.266 39.5279V46.9014H159.157V39.5279H157.266ZM158.212 36.2411C157.572 36.2411 157.063 36.7356 157.063 37.361C157.063 38.0009 157.572 38.4808 158.212 38.4808C158.852 38.4808 159.361 38.0009 159.361 37.361C159.361 36.7356 158.837 36.2411 158.212 36.2411ZM161.608 37.7391L161.593 39.5279H160.386V41.244H161.593L161.564 44.6762C161.55 46.3051 162.35 47.0032 163.993 47.0032C164.502 47.0032 164.909 46.945 165.186 46.8432V45.1853C164.938 45.258 164.691 45.2871 164.415 45.2871C163.702 45.2871 163.455 44.9962 163.455 44.2254L163.484 41.244H165.186V39.5279H163.499L163.513 37.7391H161.608ZM166.697 39.5279V46.9014H168.587V39.5279H166.697ZM167.642 36.2411C167.002 36.2411 166.493 36.7356 166.493 37.361C166.493 38.0009 167.002 38.4808 167.642 38.4808C168.282 38.4808 168.791 38.0009 168.791 37.361C168.791 36.7356 168.267 36.2411 167.642 36.2411ZM172.944 39.3679C172.086 39.3679 171.417 39.6006 170.937 40.066C170.457 40.5169 170.224 41.0841 170.224 41.7676C170.224 42.9747 170.966 43.6728 172.58 43.9491C173.627 44.1381 173.918 44.3854 173.918 44.8653C173.918 45.3161 173.583 45.5634 173.002 45.5634C172.318 45.5634 171.955 45.258 171.94 44.6617H170.079C170.122 46.1306 171.169 47.0613 172.958 47.0613C174.602 47.0613 175.809 46.2469 175.809 44.6617C175.809 43.4255 175.154 42.7129 173.409 42.422C172.405 42.2475 172.115 42.0439 172.115 41.5785C172.115 41.1277 172.405 40.8514 172.929 40.8514C173.467 40.8514 173.758 41.1277 173.773 41.6949H175.649C175.59 40.2987 174.5 39.3679 172.944 39.3679ZM180.026 39.3679C178.324 39.3679 177.19 40.4296 177.088 41.9567H178.92C178.92 41.3749 179.386 40.9823 180.026 40.9823C180.709 40.9823 181.058 41.3604 181.058 42.1021V42.3784L179.153 42.7274C177.713 42.9601 176.87 43.5855 176.87 44.938C176.87 46.2324 177.771 47.0613 179.109 47.0613C180.055 47.0613 180.753 46.7123 181.218 45.9997L181.334 46.9014H182.949V42.0585C182.949 40.2987 181.829 39.3679 180.026 39.3679ZM181.058 43.8618C181.058 44.2399 180.971 44.5599 180.796 44.8362C180.52 45.2871 180.127 45.5052 179.618 45.5052C179.08 45.5052 178.76 45.2289 178.76 44.778C178.76 44.3563 179.037 44.08 179.589 43.9491L181.058 43.6437V43.8618ZM185.227 37.7391L185.212 39.5279H184.005V41.244H185.212L185.183 44.6762C185.168 46.3051 185.968 47.0032 187.612 47.0032C188.121 47.0032 188.528 46.945 188.804 46.8432V45.1853C188.557 45.258 188.31 45.2871 188.033 45.2871C187.321 45.2871 187.074 44.9962 187.074 44.2254L187.103 41.244H188.804V39.5279H187.117L187.132 37.7391H185.227ZM190.315 39.5279V46.9014H192.206V39.5279H190.315ZM191.261 36.2411C190.621 36.2411 190.112 36.7356 190.112 37.361C190.112 38.0009 190.621 38.4808 191.261 38.4808C191.901 38.4808 192.41 38.0009 192.41 37.361C192.41 36.7356 191.886 36.2411 191.261 36.2411ZM197.551 39.3679C196.431 39.3679 195.515 39.7315 194.788 40.4441C194.061 41.1568 193.697 42.073 193.697 43.2074C193.697 44.3417 194.061 45.2725 194.788 45.9851C195.515 46.6978 196.431 47.0613 197.551 47.0613C198.671 47.0613 199.602 46.6978 200.329 45.9851C201.071 45.2725 201.434 44.3417 201.434 43.2074C201.434 42.073 201.071 41.1568 200.329 40.4441C199.602 39.7315 198.671 39.3679 197.551 39.3679ZM197.566 41.0841C198.715 41.0841 199.471 41.9712 199.471 43.2074C199.471 44.429 198.686 45.3307 197.566 45.3307C196.999 45.3307 196.548 45.1271 196.184 44.7344C195.821 44.3272 195.646 43.8182 195.646 43.2074C195.646 42.5966 195.821 42.0875 196.184 41.6949C196.548 41.2877 196.999 41.0841 197.566 41.0841ZM206.665 39.3679C205.734 39.3679 205.065 39.7461 204.672 40.4878L204.527 39.5279H202.913V46.9014H204.789V43.0038C204.789 41.8403 205.327 41.2004 206.098 41.2004C206.796 41.2004 207.145 41.6367 207.145 42.5238V46.9014H209.05V42.1166C209.05 40.4151 208.221 39.3679 206.665 39.3679ZM61.7255 53.532C60.1839 53.532 58.9187 54.0265 57.9297 55.03C56.9408 56.0189 56.4463 57.2696 56.4463 58.7967C56.4463 60.3237 56.9408 61.589 57.9297 62.5925C58.9187 63.596 60.1839 64.0904 61.7255 64.0904C63.2526 64.0904 64.5178 63.596 65.5068 62.5925C66.4957 61.589 66.9902 60.3237 66.9902 58.7967C66.9902 57.2696 66.4957 56.0189 65.5068 55.03C64.5178 54.0265 63.2526 53.532 61.7255 53.532ZM61.7255 55.3935C62.6708 55.3935 63.4416 55.7135 64.0234 56.3534C64.6196 56.9933 64.9105 57.8077 64.9105 58.7967C64.9105 59.8002 64.6196 60.6146 64.0234 61.269C63.4416 61.9089 62.6708 62.2289 61.7255 62.2289C60.7657 62.2289 59.9949 61.9089 59.3986 61.269C58.8169 60.6146 58.526 59.8002 58.526 58.7967C58.526 57.8077 58.8169 56.9933 59.3986 56.3534C59.9949 55.7135 60.7657 55.3935 61.7255 55.3935ZM72.6741 56.3679C71.6415 56.3679 70.8562 56.7461 70.3326 57.5169L70.2018 56.5279H68.5729V67.0282H70.4635V63.0869C70.9144 63.7414 71.6561 64.0613 72.6741 64.0613C73.6485 64.0613 74.4629 63.6978 75.1174 62.9561C75.7718 62.2143 76.1063 61.2981 76.1063 60.2074C76.1063 59.1166 75.7864 58.2149 75.1319 57.4732C74.4775 56.7315 73.6631 56.3679 72.6741 56.3679ZM72.2814 58.1422C73.3431 58.1422 74.143 58.9712 74.143 60.2074C74.143 61.4436 73.3286 62.2871 72.2814 62.2871C71.787 62.2871 71.3507 62.098 70.9871 61.7344C70.6235 61.3708 70.4344 60.8764 70.4199 60.2655V60.1783C70.4199 59.5529 70.609 59.0585 70.9725 58.6949C71.3361 58.3313 71.7724 58.1422 72.2814 58.1422ZM81.7353 56.3679C80.7027 56.3679 79.9173 56.7461 79.3938 57.5169L79.2629 56.5279H77.6341V67.0282H79.5247V63.0869C79.9755 63.7414 80.7172 64.0613 81.7353 64.0613C82.7097 64.0613 83.5241 63.6978 84.1785 62.9561C84.833 62.2143 85.1675 61.2981 85.1675 60.2074C85.1675 59.1166 84.8475 58.2149 84.1931 57.4732C83.5386 56.7315 82.7242 56.3679 81.7353 56.3679ZM81.3426 58.1422C82.4042 58.1422 83.2041 58.9712 83.2041 60.2074C83.2041 61.4436 82.3897 62.2871 81.3426 62.2871C80.8481 62.2871 80.4118 62.098 80.0482 61.7344C79.6847 61.3708 79.4956 60.8764 79.481 60.2655V60.1783C79.481 59.5529 79.6701 59.0585 80.0337 58.6949C80.3973 58.3313 80.8336 58.1422 81.3426 58.1422ZM90.124 56.3679C89.0042 56.3679 88.0879 56.7315 87.3608 57.4441C86.6336 58.1568 86.27 59.073 86.27 60.2074C86.27 61.3417 86.6336 62.2725 87.3608 62.9851C88.0879 63.6978 89.0042 64.0613 90.124 64.0613C91.2438 64.0613 92.1746 63.6978 92.9018 62.9851C93.6435 62.2725 94.0071 61.3417 94.0071 60.2074C94.0071 59.073 93.6435 58.1568 92.9018 57.4441C92.1746 56.7315 91.2438 56.3679 90.124 56.3679ZM90.1385 58.0841C91.2875 58.0841 92.0437 58.9712 92.0437 60.2074C92.0437 61.429 91.2584 62.3307 90.1385 62.3307C89.5714 62.3307 89.1205 62.1271 88.7569 61.7344C88.3934 61.3272 88.2188 60.8182 88.2188 60.2074C88.2188 59.5966 88.3934 59.0875 88.7569 58.6949C89.1205 58.2877 89.5714 58.0841 90.1385 58.0841ZM99.4703 56.4552C98.3069 56.4552 97.5943 56.9642 97.3179 57.7059L97.1434 56.5279H95.5146V63.9014H97.4052V60.1492C97.4343 59.5238 97.6379 59.073 98.0015 58.7821C98.3796 58.4913 98.8741 58.3458 99.4703 58.3458V56.4552ZM101.333 54.7391L101.318 56.5279H100.111V58.244H101.318L101.289 61.6762C101.275 63.3051 102.075 64.0032 103.718 64.0032C104.227 64.0032 104.634 63.945 104.911 63.8432V62.1853C104.663 62.258 104.416 62.2871 104.14 62.2871C103.427 62.2871 103.18 61.9962 103.18 61.2254L103.209 58.244H104.911V56.5279H103.224L103.238 54.7391H101.333ZM110.508 56.5279V60.4837C110.508 61.6326 109.985 62.2289 109.243 62.2289C108.545 62.2289 108.196 61.778 108.196 60.8909V56.5279H106.305V61.3127C106.305 63.0142 107.12 64.0613 108.676 64.0613C109.592 64.0613 110.232 63.6832 110.625 62.9415L110.77 63.9014H112.384V56.5279H110.508ZM118.141 56.3679C117.21 56.3679 116.541 56.7461 116.149 57.4878L116.003 56.5279H114.389V63.9014H116.265V60.0038C116.265 58.8403 116.803 58.2004 117.574 58.2004C118.272 58.2004 118.621 58.6367 118.621 59.5238V63.9014H120.526V59.1166C120.526 57.4151 119.697 56.3679 118.141 56.3679ZM122.428 56.5279V63.9014H124.318V56.5279H122.428ZM123.373 53.2411C122.733 53.2411 122.224 53.7356 122.224 54.361C122.224 55.0009 122.733 55.4808 123.373 55.4808C124.013 55.4808 124.522 55.0009 124.522 54.361C124.522 53.7356 123.998 53.2411 123.373 53.2411ZM126.769 54.7391L126.755 56.5279H125.548V58.244H126.755L126.726 61.6762C126.711 63.3051 127.511 64.0032 129.155 64.0032C129.664 64.0032 130.071 63.945 130.347 63.8432V62.1853C130.1 62.258 129.853 62.2871 129.576 62.2871C128.864 62.2871 128.616 61.9962 128.616 61.2254L128.646 58.244H130.347V56.5279H128.66L128.675 54.7391H126.769ZM136.178 56.5279L134.738 61.0509L134.592 61.6908L134.447 61.0509L133.007 56.5279H130.971L133.589 63.8141L132.469 67.0282H134.432L138.228 56.5279H136.178Z" fill="#0A1158"/>
<defs>
<clipPath id="clip0_1198_2912">
<rect width="230.615" height="35.3194" fill="white" transform="translate(26 128)"/>
</clipPath>
</defs>
</svg>
