<svg id="Layer_1" data-name="Layer 1" xmlns="http://www.w3.org/2000/svg" viewBox="0 0 301.68 78.8"><defs><style>.cls-1{fill:#feffff;}.cls-2{fill:#fefefe;}.cls-3{fill:#fff;}.cls-4{fill:#fdfdfd;}.cls-5{fill:#fafafa;}.cls-6{fill:#e73827;}</style></defs><title>zencargo-logo--white</title><path class="cls-1" d="M65.68,36.16c-2.71.24-5.42,0.44-8.12,0.74-0.9.1-1.2-.07-1.15-1,0.07-1.45.05-2.9,0-4.35,0-.72.29-0.89,0.89-0.74a21.27,21.27,0,0,0,3.92.23c1.71,0.17,3.42.39,5.14,0.48,0.78,0,1,.28,1,1a5.41,5.41,0,0,0,0,1.5C67.57,35.39,67.11,36.13,65.68,36.16Z" transform="translate(-1.32 -0.6)"/><path class="cls-2" d="M70.89,31.85c2.36,0.12,4.72.29,7.09,0.33,1.51,0,.93,1.08,1.06,1.82S78.76,35.05,78,35.09q-4.22.2-8.44,0.54c-0.92.08-1.25-.22-1.11-1.1a1.73,1.73,0,0,0,0-.27C68.42,31.74,68.42,31.74,70.89,31.85Z" transform="translate(-1.32 -0.6)"/><path class="cls-2" d="M85.38,34.92c-1.64,0-3.29-.06-4.92,0-0.9,0-.92-0.47-0.78-1s-0.68-1.63.74-1.59c3.37,0.08,6.75.19,10.12,0.24,0.9,0,.71.58,0.76,1.11s-0.21.85-.86,0.83c-1.68,0-3.37,0-5.06,0v0.41Z" transform="translate(-1.32 -0.6)"/><path class="cls-3" d="M46,34.14c0-1.37,0-2.73,0-4.1,0-.78.2-1.06,1-0.94,2.54,0.4,5.08.76,7.62,1.11a0.81,0.81,0,0,1,.86,1c0,1.82,0,3.64,0,5.46a0.8,0.8,0,0,1-.82,1c-2.56.43-5.11,0.87-7.64,1.43-1,.22-1-0.14-1-0.92C46.07,36.78,46,35.46,46,34.14Z" transform="translate(-1.32 -0.6)"/><path class="cls-4" d="M41.59,2.39a2.42,2.42,0,0,1-1.91,2A2.29,2.29,0,0,1,38,2.36,1.7,1.7,0,0,1,39.76.6,1.77,1.77,0,0,1,41.59,2.39Z" transform="translate(-1.32 -0.6)"/><path class="cls-5" d="M45.2,41.12q0-9.7,0-19.4c0-1.94-.28-2.29-2.22-2.78-3.3-.84-6.63-1.61-9.9-2.53a15.71,15.71,0,0,0-9,0c-1.6.48-3.26,0.78-4.9,1.16L13.87,19a2.16,2.16,0,0,0-1.93,2.36Q12,33.19,12,45c0,1,.3,1.28,1.3,1.27,5.34,0,10.68,0,16,0,4.86,0,9.72-.08,14.59,0,1.12,0,1.38-.34,1.32-1.38C45.1,43.66,45.18,42.39,45.2,41.12ZM28.57,17.3a2.28,2.28,0,0,1,2.18,2.2,2.21,2.21,0,0,1-2.15,2.2,2.26,2.26,0,0,1-2.26-2.24A2.34,2.34,0,0,1,28.57,17.3Zm2.18,12.09a2.2,2.2,0,0,1-2.25,2.1A2.22,2.22,0,1,1,30.75,29.39ZM16.22,45a1.47,1.47,0,0,1-1.66-1.56,1.6,1.6,0,1,1,3.2,0A1.45,1.45,0,0,1,16.22,45ZM34.38,42.1q-5.88,0-11.77,0c-0.41,0-1.08.22-1.11-.42s0.65-.47,1.06-0.47c2,0,4,0,6,0s3.83,0,5.75,0c0.44,0,1.21-.27,1.24.42S34.82,42.1,34.38,42.1Zm1-2.74c-2.28,0-4.56,0-6.84,0s-4.56,0-6.84,0c-0.42,0-1.1.19-1.13-.42s0.64-.48,1.06-0.48q6.91,0,13.82,0c0.38,0,1-.16,1,0.41S35.83,39.37,35.43,39.37Zm0.72-2.74c-2.55,0-5.1,0-7.65,0s-5.1,0-7.65,0c-0.41,0-1.07.16-1-.51,0-.52.64-0.38,1-0.38q7.65,0,15.29,0c0.4,0,1.09-.22,1.09.44S36.55,36.62,36.15,36.63Zm0.78-2.74q-8.42,0-16.84,0c-0.38,0-1,.16-1-0.38,0-.7.63-0.51,1-0.51,2.87,0,5.75,0,8.62,0s5.48,0,8.21,0c0.4,0,1.09-.23,1.08.44S37.33,33.89,36.92,33.89ZM40.83,45a1.48,1.48,0,0,1-1.47-1.7,1.46,1.46,0,0,1,1.57-1.5,1.49,1.49,0,0,1,1.6,1.64A1.51,1.51,0,0,1,40.83,45Z" transform="translate(-1.32 -0.6)"/><path class="cls-3" d="M44,12.41a16.89,16.89,0,0,0-1.36-5.6,1.59,1.59,0,0,0-1.4-1.06c-2.56-.26-5.11-0.67-7.67-1-1.91.08-3.77-.55-5.69-0.34-4.19.46-8.39,0.9-12.59,1.35a3,3,0,0,0-1.1,1.52,27.14,27.14,0,0,0-1.46,8.82c0,1,.6.71,1.09,0.64,1.93-.26,3.86-0.55,5.79-0.83s4.1-.74,6.17-1.05a11.67,11.67,0,0,1,3.77-.35c4.9,0.83,9.8,1.6,14.71,2.38A15.14,15.14,0,0,0,44,12.41Zm-16.36,1c-0.61.61-2,.5-3,0.68-3.31.58-6.63,1.14-9.95,1.73-0.65.12-.9,0-0.89-0.72a18.36,18.36,0,0,1,.93-5.49A1.37,1.37,0,0,1,16,8.6c3.65-.47,7.31-0.95,11-1.49C27.81,7,28,7.19,28,8s0,1.55,0,2.29C27.8,11.38,28.36,12.76,27.66,13.45Zm14.59,2.39c-4-.72-8-1.43-12-2a1,1,0,0,1-1.07-1.31c0-.72,0-1.46,0-2.18H29.17c0-.36,0-0.73,0-1.09-0.05-2.32-.06-2.29,2.31-1.93,3,0.45,5.93.91,8.92,1.22a2.08,2.08,0,0,1,2.12,1.81,25.76,25.76,0,0,1,.73,4.7C43.3,15.85,43,16,42.25,15.84Z" transform="translate(-1.32 -0.6)"/><path class="cls-3" d="M54.58,73.56c-1.8.36-2.71-.48-3.09-2.13a2.06,2.06,0,0,0-.2-0.51c-0.46-.84-0.27-1.26.74-1.1s1.13-.41,1.17-1.27c0-1-.42-1.21-1.22-1.06a2.23,2.23,0,0,1-2.9-2,3.06,3.06,0,0,0-.31-0.76c-0.48-.88-0.36-1.39.77-1.23,0.88,0.13,1.06-.26,1.07-1.08s-0.34-1.18-1.13-1c-1.64.31-2.3-.48-2.92-1.95a15.67,15.67,0,0,1-1.43-7.54c0.09-1.09-.07-2.2,0-3.28s-0.32-1.41-1.43-1.4c-10,0-20,0-30,0-2,0-1.76-.27-1.83,1.82-0.07,2.36.25,4.72-.19,7.07-0.47,1.23-1,2.44-1.38,3.7A1.9,1.9,0,0,1,8,61.45c-0.63-.07-1.49-0.35-1.54.91S7,63.62,7.88,63.55c0.32,0,1-.17.71,0.57a12,12,0,0,1-1.37,3.11c-0.48.63-1.55,0.23-2.35,0.23a0.81,0.81,0,0,0-1,.95c0,1,.1,1.62,1.31,1.42,0.81-.14,1,0.11.71,1-0.58,1.91-1.38,3.33-3.75,2.78-0.51-.12-0.79.1-0.83,0.74-0.07,1.11,0,1.88,1.45,1.61a3.4,3.4,0,0,1,.82,0,8.48,8.48,0,0,1-.82,2.36c-0.24.66,0,.86,0.65,0.91,2.35,0.16,2.41.2,3.24-2.06a1.64,1.64,0,0,1,1.84-1.28q20,0.06,40.09,0a1.65,1.65,0,0,1,1.82,1.17c0.36,0.84.29,2.08,1.56,2.35,0.77-.4,2,0.28,2.37-0.48s-0.49-1.57-.75-2.39c-0.05-.17-0.09-0.34-0.16-0.63a9.57,9.57,0,0,1,1.27,0c0.95,0.14,1.09-.32,1.12-1.16C55.87,73.74,55.48,73.37,54.58,73.56Zm-41-13.22c1.4-3.25,2.83-6.5,3.92-9.87a1,1,0,0,1,1.18-.84q9.92,0,19.84,0a1,1,0,0,1,1.08.75c1.08,3.43,2.56,6.71,4,10,0.41,0.95.1,1.05-.76,1.05-4.79,0-9.58,0-14.37,0h0c-4.7,0-9.39,0-14.09,0C13.42,61.45,13.15,61.31,13.57,60.33Zm-2.43,5.92c1.13-2.7,1.08-2.72,4-2.72,9.21,0,18.42.05,27.62,0a2.48,2.48,0,0,1,2.85,1.94c0.69,2.07.78,2-1.37,2H28.56c-5.52,0-11,0-16.55,0C10.93,67.51,10.68,67.34,11.14,66.25ZM47,73.54H28.49c-6.3,0-12.59,0-18.89,0-1.21,0-1.39-.24-0.9-1.35,1-2.38,1-2.4,3.57-2.4,11,0,22.08,0,33.12,0a2.46,2.46,0,0,1,2.83,1.94C48.83,73.57,48.93,73.54,47,73.54Z" transform="translate(-1.32 -0.6)"/><path class="cls-3" d="M18.57,56.2c1.49,0.18,2.95.57,4.44,0.74,2.11,0.25,4.16,1.1,6.33.8s4.21-.7,6.32-1.08c1.16-.21,2.81-0.09,3.33-0.8,0.62-.85-0.36-2.28-0.6-3.47a8.37,8.37,0,0,1-.21-0.93,1,1,0,0,0-1.24-1c-2.82.05-5.65,0-8.47,0-1.68,0-3.37,0-5.05,0-1.45,0-3.32-.47-4.24.24s-0.87,2.64-1.24,4c0,0.09-.05.17-0.08,0.26C17.61,55.72,17.71,56.1,18.57,56.2Z" transform="translate(-1.32 -0.6)"/><path class="cls-3" d="M98.44,23.9h13.93v6.35H105v8h7.41v5.77H105V59.85H98.44v-36Z" transform="translate(-1.32 -0.6)"/><path class="cls-3" d="M114.17,52.44V49.69c0-6,2.06-8.15,9.42-10.17a3.07,3.07,0,0,0,2.49-3.39c0-2.06-1.06-3.18-2.7-3.18-1.8,0-2.81,1.22-2.81,3.23l-6.14-.05c0-6.51,3.87-9.21,8.68-9.21,5,0,8.42,3,8.42,8.52V53.24a19.1,19.1,0,0,0,.85,6.62h-5.82c-0.48-1.22.05-3.07,2.12-7.36h-0.21c-3.18,6.83-5.4,8-8.68,8C116.34,60.49,114.17,57.89,114.17,52.44Zm6-1.22c0,2.07,1.06,2.86,2.44,2.86,1.59,0,2.49-1.27,2.49-3.76,0-1.85.05-4.77,0.05-7.15a16.22,16.22,0,0,0-3,1.11c-1.38.63-2,2.28-2,4.92v2Z" transform="translate(-1.32 -0.6)"/><path class="cls-3" d="M137.89,44.13l-4.5-16.68H140l2.54,12.76h0.21l2.59-12.76h6.25l-4.5,16.68,5,15.73h-6.67l-3-9.58h-0.26l-2.81,9.58h-6.41Z" transform="translate(-1.32 -0.6)"/><path class="cls-3" d="M154.51,34H152.6V27.45h2.33l1.43-5h4.29v5h2.54V34h-2.12V53.71a17.84,17.84,0,0,0,1.06,6.14h-6.57a14.47,14.47,0,0,1-1.06-6.14V34Z" transform="translate(-1.32 -0.6)"/><path class="cls-6" d="M164.83,23.9h6.51V53.5h5.29v6.35H164.83v-36Z" transform="translate(-1.32 -0.6)"/><path class="cls-6" d="M177.81,51.33V36.08c0-5.45,3.65-9.16,9-9.16,5,0,8.42,3.65,8.42,9.11V51.38c0,5.19-3.44,9.11-8.47,9.11C181.3,60.49,177.81,56.68,177.81,51.33Zm6.46,0.05c0,2.12,1,3.07,2.49,3.07s2.44-1,2.44-3.07V36c0-2.12-1-3.07-2.44-3.07s-2.49,1-2.49,3.07V51.38Z" transform="translate(-1.32 -0.6)"/><path class="cls-6" d="M204.7,59.64a7.22,7.22,0,0,0,1.8.21,2.26,2.26,0,0,0,2.44-2.54V50.59h-0.26c-1,4.71-2.44,6.25-5.35,6.25-3.55,0-5.88-3.12-5.88-8.31v-13c0-5.19,1.75-8.58,5.88-8.58,2.91,0,5.67,1.17,7.2,8.58h0.21l-1.91-8h6.09V57.31c0,4.4-2.44,7.84-8.37,7.84-0.63,0-1.27-.05-1.85-0.11v-5.4Zm-1.27-11.86c0,2.12,1,3.18,2.44,3.18s2.49-1.11,2.49-4.34V36.13c0-2.12-1-3.18-2.44-3.18s-2.49,1.06-2.49,3.18V47.78Z" transform="translate(-1.32 -0.6)"/><path class="cls-6" d="M220.43,20.73c3.12,0,4.24,1.16,4.24,3s-1.11,2.91-4.24,2.91-4.13-1.11-4.13-2.91S217.35,20.73,220.43,20.73ZM217.14,28a9.24,9.24,0,0,0,3.28.53,9.46,9.46,0,0,0,3.28-.53V55.35a14.55,14.55,0,0,0,.53,4.5h-6.57a14.55,14.55,0,0,1-.53-4.5V28Z" transform="translate(-1.32 -0.6)"/><path class="cls-6" d="M225.82,46.25h5.72c-0.48,4.71.69,7.84,2.86,7.84,1.54,0,2.59-1.54,2.65-3.81S236,46,234.4,45.5l-3.07-1c-3.23-1-5.35-4.5-5.24-8.74,0.05-5.29,3.65-8.84,9-8.84,5.72,0,9.05,4.45,8.37,11.12h-5.67c0.26-2.91-.79-4.87-2.65-4.87a2.61,2.61,0,0,0-2.7,2.81A3.05,3.05,0,0,0,234.93,39l2.7,0.69c3.49,0.9,5.77,4.66,5.67,9.53-0.11,6.72-3.71,11.23-9.05,11.23C228.15,60.49,224.77,54.77,225.82,46.25Z" transform="translate(-1.32 -0.6)"/><path class="cls-6" d="M246.68,34h-1.91V27.45h2.33l1.43-5h4.29v5h2.54V34h-2.12V53.71a17.84,17.84,0,0,0,1.06,6.14h-6.57a14.49,14.49,0,0,1-1.06-6.14V34Z" transform="translate(-1.32 -0.6)"/><path class="cls-6" d="M260.29,20.73c3.12,0,4.24,1.16,4.24,3s-1.11,2.91-4.24,2.91-4.13-1.11-4.13-2.91S257.22,20.73,260.29,20.73ZM257,28a9.24,9.24,0,0,0,3.28.53,9.46,9.46,0,0,0,3.28-.53V55.35a14.55,14.55,0,0,0,.53,4.5h-6.57a14.55,14.55,0,0,1-.53-4.5V28Z" transform="translate(-1.32 -0.6)"/><path class="cls-6" d="M265.8,51.33V36.08c0-5.45,3.65-9.16,9-9.16s8.63,3.65,8.63,9.11v3.44h-6v-3c0-2.12-.85-3.12-2.59-3.12s-2.59,1-2.59,3.18v14.4c0,2.12,1.11,3.18,2.75,3.18s2.49-1.11,2.49-3.18l-0.05-5.29h6v5.77c0,5.45-3.28,9.11-8.63,9.11S265.8,56.78,265.8,51.33Z" transform="translate(-1.32 -0.6)"/><path class="cls-6" d="M285.28,46.25H291c-0.48,4.71.69,7.84,2.86,7.84,1.54,0,2.59-1.54,2.65-3.81s-1-4.24-2.65-4.76l-3.07-1c-3.23-1-5.35-4.5-5.24-8.74,0.05-5.29,3.65-8.84,9-8.84,5.72,0,9.05,4.45,8.37,11.12h-5.67c0.26-2.91-.79-4.87-2.65-4.87A2.61,2.61,0,0,0,291.9,36,3.05,3.05,0,0,0,294.39,39l2.7,0.69c3.49,0.9,5.77,4.66,5.67,9.53C302.65,56,299,60.49,293.7,60.49,287.61,60.49,284.22,54.77,285.28,46.25Z" transform="translate(-1.32 -0.6)"/></svg>