<svg xmlns="http://www.w3.org/2000/svg" viewBox="0 0 15.045 15"><path d="M5.207 14.265V8h2l.328-2.488H5.207v-1.72a1.4 1.4 0 0 1 .219-.875 1.268 1.268 0 0 1 1.012-.328H7.75V.374A13.535 13.535 0 0 0 5.836.265a3.169 3.169 0 0 0-2.324.861 3.239 3.239 0 0 0-.875 2.42v1.969H.531V8h2.106v6.262zm36.945-1.313a7.887 7.887 0 0 0 4.457-1.285 7.8 7.8 0 0 0 2.762-3.09 8.105 8.105 0 0 0 .957-3.8 1.649 1.649 0 0 0-.027-.356 6.313 6.313 0 0 0 1.449-1.5 6.173 6.173 0 0 1-1.641.465A2.849 2.849 0 0 0 51.367 1.8a5.856 5.856 0 0 1-1.832.684 3.237 3.237 0 0 0-.943-.657 2.742 2.742 0 0 0-1.162-.246 2.773 2.773 0 0 0-1.422.383 2.8 2.8 0 0 0-1.039 1.053 2.846 2.846 0 0 0-.383 1.435 3.937 3.937 0 0 0 .055.657 7.962 7.962 0 0 1-3.3-.875A7.927 7.927 0 0 1 38.734 2.1a2.783 2.783 0 0 0-.054 2.816 3.181 3.181 0 0 0 .929 1.039 2.7 2.7 0 0 1-1.285-.383v.055a2.756 2.756 0 0 0 .656 1.805 2.9 2.9 0 0 0 1.641 1.012 3.687 3.687 0 0 1-.766.082c-.164 0-.337-.01-.519-.028a2.851 2.851 0 0 0 1 1.408 2.67 2.67 0 0 0 1.682.561 5.7 5.7 0 0 1-3.582 1.23c-.256 0-.483-.009-.684-.027a7.964 7.964 0 0 0 4.4 1.282zm41.075-9.734a1.419 1.419 0 0 0 1.039-.438 1.42 1.42 0 0 0 .434-1.039A1.422 1.422 0 0 0 84.266.7a1.454 1.454 0 0 0-2.078 0 1.419 1.419 0 0 0-.438 1.039 1.418 1.418 0 0 0 .438 1.039 1.418 1.418 0 0 0 1.039.44zm5.386 9.3v-4.05a3.042 3.042 0 0 1 .274-1.449 1.28 1.28 0 0 1 1.23-.657 1.153 1.153 0 0 1 1.176.739 4.423 4.423 0 0 1 .164 1.422v3.992H94V8.03a5.528 5.528 0 0 0-.547-2.789 3.157 3.157 0 0 0-4.019-.683 2.18 2.18 0 0 0-.875.9h-.028V4.339H86.1v8.176zm-4.129 0V4.339h-2.543v8.176z" fill="#fff" opacity=".8"/></svg>