<svg xmlns="http://www.w3.org/2000/svg" viewBox="0 0 15.041 15"><path d="M-74.984 14.265V8h2l.328-2.488h-2.325v-1.72a1.4 1.4 0 0 1 .219-.875 1.269 1.269 0 0 1 1.012-.328h1.312V.374a13.535 13.535 0 0 0-1.917-.109 3.169 3.169 0 0 0-2.324.861 3.243 3.243 0 0 0-.875 2.42v1.969h-2.105V8h2.105v6.262zm36.946-1.313a7.889 7.889 0 0 0 4.457-1.285 7.8 7.8 0 0 0 2.761-3.09 8.107 8.107 0 0 0 .958-3.8 1.634 1.634 0 0 0-.028-.356 6.313 6.313 0 0 0 1.449-1.5 6.156 6.156 0 0 1-1.64.465A2.849 2.849 0 0 0-28.823 1.8a5.865 5.865 0 0 1-1.832.684 3.241 3.241 0 0 0-.944-.657 2.739 2.739 0 0 0-1.162-.246 2.778 2.778 0 0 0-1.422.383 2.808 2.808 0 0 0-1.039 1.053 2.846 2.846 0 0 0-.378 1.431 4.046 4.046 0 0 0 .055.657 7.962 7.962 0 0 1-3.3-.875 7.924 7.924 0 0 1-2.611-2.13 2.743 2.743 0 0 0-.41 1.435 2.755 2.755 0 0 0 .355 1.381 3.172 3.172 0 0 0 .93 1.039 2.7 2.7 0 0 1-1.285-.383v.055a2.75 2.75 0 0 0 .656 1.805 2.89 2.89 0 0 0 1.64 1.012 3.685 3.685 0 0 1-.765.082c-.164 0-.337-.01-.52-.028a2.857 2.857 0 0 0 1 1.408 2.67 2.67 0 0 0 1.682.561 5.692 5.692 0 0 1-3.582 1.23q-.383 0-.684-.027a7.967 7.967 0 0 0 4.401 1.282zM3.036 3.218a1.419 1.419 0 0 0 1.039-.438 1.418 1.418 0 0 0 .438-1.039A1.419 1.419 0 0 0 4.075.7 1.454 1.454 0 0 0 2 .7a1.419 1.419 0 0 0-.438 1.039A1.418 1.418 0 0 0 2 2.78a1.419 1.419 0 0 0 1.036.438zm5.387 9.3v-4.05A3.055 3.055 0 0 1 8.7 7.019a1.281 1.281 0 0 1 1.231-.657A1.151 1.151 0 0 1 11.1 7.1a4.394 4.394 0 0 1 .164 1.422v3.992h2.543V8.03a5.541 5.541 0 0 0-.546-2.789 2.716 2.716 0 0 0-2.487-1.121 2.692 2.692 0 0 0-1.531.438 2.186 2.186 0 0 0-.875.9h-.027V4.339H5.907v8.176zm-4.129 0V4.339H1.751v8.176z" fill="#fff" opacity=".8"/></svg>