<svg xmlns="http://www.w3.org/2000/svg" viewBox="0 0 15.041 14.735"><path d="M-32.064 14V7.738h2l.328-2.488h-2.324V3.527a1.4 1.4 0 0 1 .219-.875 1.27 1.27 0 0 1 1.011-.328h1.313V.109A13.535 13.535 0 0 0-31.435 0a3.169 3.169 0 0 0-2.324.861 3.241 3.241 0 0 0-.875 2.42V5.25h-2.106v2.488h2.106V14zm36.945-1.313A7.887 7.887 0 0 0 9.338 11.4 7.8 7.8 0 0 0 12.1 8.312a8.105 8.105 0 0 0 .957-3.8 1.656 1.656 0 0 0-.027-.356 6.3 6.3 0 0 0 1.449-1.5 6.173 6.173 0 0 1-1.641.465 2.849 2.849 0 0 0 1.262-1.59 5.856 5.856 0 0 1-1.832.684 3.233 3.233 0 0 0-.943-.656 2.743 2.743 0 0 0-1.162-.247 2.773 2.773 0 0 0-1.426.388A2.808 2.808 0 0 0 7.7 2.748a2.84 2.84 0 0 0-.383 1.436 3.934 3.934 0 0 0 .055.656 7.962 7.962 0 0 1-3.295-.875 7.927 7.927 0 0 1-2.614-2.133 2.783 2.783 0 0 0-.054 2.816 3.169 3.169 0 0 0 .929 1.039 2.7 2.7 0 0 1-1.285-.382v.054a2.756 2.756 0 0 0 .656 1.8A2.9 2.9 0 0 0 3.35 8.176a3.687 3.687 0 0 1-.766.082 5 5 0 0 1-.519-.028 2.853 2.853 0 0 0 1 1.409 2.673 2.673 0 0 0 1.682.56 5.7 5.7 0 0 1-3.584 1.231q-.384 0-.684-.028a7.964 7.964 0 0 0 4.402 1.285zm41.074-9.734A1.424 1.424 0 0 0 47 2.516a1.422 1.422 0 0 0 .437-1.039A1.42 1.42 0 0 0 47 .438a1.453 1.453 0 0 0-2.079 0 1.42 1.42 0 0 0-.437 1.039 1.422 1.422 0 0 0 .437 1.039 1.422 1.422 0 0 0 1.034.437zm5.387 9.3V8.2a3.042 3.042 0 0 1 .274-1.449 1.279 1.279 0 0 1 1.23-.656 1.152 1.152 0 0 1 1.176.738 4.431 4.431 0 0 1 .164 1.422v3.995h2.543V7.766a5.523 5.523 0 0 0-.547-2.789 3.156 3.156 0 0 0-4.019-.684 2.18 2.18 0 0 0-.875.9h-.028V4.074h-2.433v8.176zm-4.129 0V4.074H44.67v8.176z" fill="#fff" opacity=".8"/></svg>