<?xml version="1.0" encoding="UTF-8"?> <svg xmlns="http://www.w3.org/2000/svg" xmlns:xlink="http://www.w3.org/1999/xlink" width="76" height="75"><defs><rect id="b" width="509" height="168" rx="4"></rect><filter x="-3.9%" y="-8.4%" width="107.9%" height="123.9%" id="a"><feMorphology radius=".55" operator="dilate" in="SourceAlpha" result="shadowSpreadOuter1"></feMorphology><feOffset dy="6" in="shadowSpreadOuter1" result="shadowOffsetOuter1"></feOffset><feGaussianBlur stdDeviation="5.5" in="shadowOffsetOuter1" result="shadowBlurOuter1"></feGaussianBlur><feComposite in="shadowBlurOuter1" in2="SourceAlpha" operator="out" result="shadowBlurOuter1"></feComposite><feColorMatrix values="0 0 0 0 0 0 0 0 0 0 0 0 0 0 0 0 0 0 0.1 0" in="shadowBlurOuter1"></feColorMatrix></filter><path id="c" d="M0.0828011665 0.086515625L0.342610286 0.086515625 0.342610286 20.7278963 0.0828011665 20.7278963z"></path></defs><g transform="translate(-388 -247)" fill="none" fill-rule="evenodd"><g transform="translate(1 200)"><use fill="#000" filter="url(#a)" xlink:href="#b"></use><use stroke="#DEE4EC" stroke-width="1.1" fill="#FFF" xlink:href="#b"></use><rect fill="#DEE4EC" opacity=".673" x="387" y="46" width="76" height="76" rx="4"></rect><text font-family="Lato-Regular, Lato" font-size="16" fill="#717A7B"><tspan x="37" y="94">Nulla id arcu sapien. Nunc sit amet ipsum </tspan><tspan x="37" y="118">maximus, scelerisque libero ac, ornare quam. </tspan><tspan x="37" y="142">Aliquam volutpat pulvinar mi in rhoncus. </tspan><tspan x="37" y="166">Suspendisse potenti.</tspan></text><text font-family="Lato-Black, Lato" font-size="24" font-weight="700" letter-spacing="-.75" fill="#0A1158"><tspan x="37" y="64">Plastics &amp; Packaging</tspan></text></g><g transform="translate(392 260)"><path d="M35.483 47.141l23.596-16.43-38.07-18.018-19.7 13.366a1 1 0 0 0 .054 1.69l33.042 19.434a1 1 0 0 0 1.078-.042z" fill="#2A2C37" opacity=".3"></path><g transform="matrix(-1 0 0 1 63.735 0)"><path fill="#FFD783" d="M34.3317828 0L7.41931707 15.0249238 19.7755709 22.9769665 46.6871029 7.18884527z"></path><path fill="#E6AF6C" d="M7.41942912 15.0248678L7.41942912 36.4565789 20.1088232 43.8797801 20.2249741 22.7815827z"></path><path fill="#FEC47A" d="M20.2249928 22.7815827L20.1088418 43.8797801 46.6872336 28.6858586 46.6872336 7.18878925z"></path><path fill="#FFECCD" d="M31.541061 16.0512908L31.541061 22.2603228 35.3803902 20.070822 35.3803902 13.7790652z"></path><g transform="translate(27.824 26.997)"><mask id="d" fill="#fff"><use xlink:href="#c"></use></mask><path stroke="#EDA234" stroke-width="1.257" mask="url(#d)" d="M0.213 0.087L0.213 20.728"></path></g><path fill="#FFD783" d="M0 31.1933552L7.75260671 35.9829931 7.75260671 15.2857218 0.109615091 11.2803826z"></path><path fill="#FFD783" d="M20.1339021 42.8341418L27.8865088 47.6239665 27.8865088 26.9266951 20.2435171 22.9213559z"></path></g></g></g></svg> 