<?xml version="1.0" encoding="UTF-8"?> <svg xmlns="http://www.w3.org/2000/svg" xmlns:xlink="http://www.w3.org/1999/xlink" height="75" viewBox="0 0 76 75" width="76"><defs><rect id="a" height="168" rx="4" width="509"></rect><filter id="b" height="123.9%" width="107.9%" x="-3.9%" y="-8.4%"><feMorphology in="SourceAlpha" operator="dilate" radius="0.55" result="shadowSpreadOuter1"></feMorphology><feOffset dx="0" dy="6" in="shadowSpreadOuter1" result="shadowOffsetOuter1"></feOffset><feGaussianBlur in="shadowOffsetOuter1" result="shadowBlurOuter1" stdDeviation="5.5"></feGaussianBlur><feComposite in="shadowBlurOuter1" in2="SourceAlpha" operator="out" result="shadowBlurOuter1"></feComposite><feColorMatrix in="shadowBlurOuter1" type="matrix" values="0 0 0 0 0 0 0 0 0 0 0 0 0 0 0 0 0 0 0.1 0"></feColorMatrix></filter></defs><g fill="none" fill-rule="evenodd"><g transform="translate(-387 -46)"><use fill="#000" filter="url(#b)" xlink:href="#a"></use><use fill="#fff" fill-rule="evenodd" stroke="#dee4ec" stroke-width="1.1" xlink:href="#a"></use><rect fill="#dee4ec" height="76" opacity=".673456" rx="4" width="76" x="387" y="46"></rect><text fill="#717a7b" font-family="Lato-Regular, Lato" font-size="16"><tspan x="37" y="94">Nulla id arcu sapien. Nunc sit amet ipsum </tspan><tspan x="37" y="118">maximus, scelerisque libero ac, ornare quam. </tspan><tspan x="37" y="142">Aliquam volutpat pulvinar mi in rhoncus. </tspan><tspan x="37" y="166">Suspendisse potenti.</tspan></text><text fill="#0a1158" font-family="Lato-Black, Lato" font-size="24" font-weight="700" letter-spacing="-.75"><tspan x="37" y="64">Manufacturing</tspan></text></g><g transform="translate(6.385297 19.185977)"><path d="m30.3523055 38.532189-4.4043175 3.0915448c-.3255583.2285208-.7555961.2423725-1.0951858.0352764l-23.44444243-14.2974057c-.4715206-.2875531-.62065575-.9029039-.33310269-1.3744245.08385727-.1375065.19968704-.2527239.33763622-.335851l31.2378832-18.82370468 23.3545046 16.17129678z" fill="#2a2c37" opacity=".3"></path><g transform="translate(9.278283)"><path d="m1.77589143 29.3952624 18.71334517 10.8453427-.0050971-1.8260341-18.71334517-10.8440685z" fill="#bf7721"></path><path d="m3.36427349 26.6501584-1.59347916.9200256 18.71334517 10.8447056 1.592842-.9200256z" fill="#f9bd53"></path><path d="m20.4843944 38.4146347.0044599 1.8260341 1.5934792-.9200255-.0057342-1.825397z" fill="#e69e3c"></path><path d="m44.7271314 24.4214539-18.7133452-10.8447057.0057342 1.825397 18.7127081 10.8447056z" fill="#bf7721"></path><path d="m27.6072016 12.6567864-1.5934791.9200256 18.7133451 10.8447056 1.5934792-.9200256z" fill="#f9bd53"></path><path d="m46.3206105 23.5018106-1.5934791.9193884.0050971 1.8260341 1.5934791-.9206627z" fill="#e69e3c"></path><path d="m19.8736987 38.8894291-.0019114.5632289 27.164965-15.7863387.0019114-.5632289z" fill="#efa43e"></path><path d="m16.5593131 36.9759161 3.3143856 1.9133218 27.164965-15.7863387-3.3143857-1.9139589z" fill="#fcbf54"></path><path d="m16.5593131 36.9756612-.0012743.5638661 3.3137485 1.9133219.0019114-.563229z" fill="#d58525"></path><path d="m15.7342846 36.489717-.0019114.5632289 27.164965-15.7869758.0019114-.5625918z" fill="#efa43e"></path><path d="m39.584609 18.7898653-27.1649649 15.7863387 3.3143857 1.9133219 27.1649649-15.7863387z" fill="#fcbf54"></path><path d="m12.4197715 34.5763952-.0012743.5632289 3.3137486 1.9133218.0019114-.5632289z" fill="#d58525"></path><path d="m11.5947431 34.0898775-.0012743.5638661 27.1649649-15.7869759.0012743-.5632289z" fill="#efa43e"></path><path d="m35.4450675 16.3900258-27.16496497 15.7863387 3.31438567 1.9133219 27.164965-15.7863387z" fill="#fcbf54"></path><path d="m8.28029367 32.1765557-.00127427.5632289 3.3143857 1.913959.0012742-.5638661z" fill="#d58525"></path><path d="m7.45526522 31.690038-.00127427.5638661 27.16496495-15.7869759.0012743-.5632289z" fill="#efa43e"></path><path d="m31.3055896 13.9901863-27.16432777 15.7863387 3.31374854 1.9133219 27.16496493-15.7863387z" fill="#fcbf54"></path><path d="m4.14138925 29.7767162-.00191141.5632289 3.31438568 1.913959.00127427-.5638661z" fill="#d58525"></path><path d="m3.31572366 29.2907719-.00127427.563229 27.16496491-15.7869759.0012743-.5625918z" fill="#efa43e"></path><path d="m.00172027 27.3768129 3.31374854 1.913959 27.16496499-15.7869758-3.3137486-1.9133219z" fill="#fcbf54"></path><path d="m0 27.9404879 3.31438568 1.9133218.00127427-.5625918-3.31374854-1.9145961z" fill="#d58525"></path><path d="m32.2419896 13.8165665-.0070085 2.2809498-2.7938449 1.6234246.0070085-2.2809498z" fill="#bf4f11"></path><path d="m29.4482721 15.4399274-.0070085 2.2809498-6.0502511-3.492784.0070085-2.2809498z" fill="#a14007"></path><path d="m32.2419896 13.8165665-2.7938449 1.6234246-6.0502511-3.4934211 2.7932077-1.6227874z" fill="#d86c35"></path><path d="m38.7172747 17.5554128-.0063714 2.2809497-2.7938449 1.6234246.0070085-2.2809498z" fill="#bf4f11"></path><path d="m35.9241944 19.1787736-.0070085 2.2809498-6.0502512-3.492784.0063714-2.2809498z" fill="#a14007"></path><path d="m38.7172747 17.5554128-2.7932078 1.6234245-6.0508882-3.4934211 2.7938449-1.6227874z" fill="#d86c35"></path><path d="m45.1931332 21.294259-.0063713 2.2809497-2.7938449 1.6234246.0063713-2.2809497z" fill="#bf4f11"></path><path d="m42.3994795 22.9175561-.0063714 2.2809498-6.0508883-3.492784.0070085-2.2809497z" fill="#a14007"></path><path d="m39.1428184 17.8011564 6.0502511 3.492784-2.7938449 1.6234246-6.0502511-3.492784z" fill="#d86c35"></path><path d="m25.9160494 13.7717758-.0070085 2.2809498-5.8826842 3.4188761.0063714-2.2809498z" fill="#bf4f11"></path><path d="m20.0324732 17.1907794-.0063713 2.2809497-2.8116848-1.6234246.0063714-2.2809497z" fill="#a14007"></path><path d="m25.9160494 13.7717758-5.8833213 3.4188761-2.8116847-1.6234246 5.8833212-3.4188761z" fill="#d86c35"></path><path d="m32.3701178 17.4869843-.0063713 2.2809497-2.793845 1.6234246.0063714-2.2809497z" fill="#bf4f11"></path><path d="m29.5764641 19.1102814-.0063714 2.2809498-6.0515254-3.4934211.0063714-2.2809498z" fill="#a14007"></path><path d="m32.3701178 17.4869843-2.7938449 1.6234246-6.0515254-3.4940583 2.7938449-1.6227875z" fill="#d86c35"></path><path d="m38.8404333 21.2227085-.0063714 2.2809498-2.7938449 1.6234246.0063713-2.2809498z" fill="#bf4f11"></path><path d="m36.0467795 22.8460057-.0063714 2.2809497-6.0502511-3.4934211.0063714-2.2803126z" fill="#a14007"></path><path d="m29.9964646 19.3529668 2.7938449-1.6234246 6.0502512 3.4934212-2.7938449 1.6227874z" fill="#d86c35"></path><path d="m19.7369055 17.3625514-.0063714 2.2809498-5.8833213 3.4188761.0063714-2.2809497z" fill="#bf4f11"></path><path d="m13.8533293 20.781555-.0063713 2.2809498-2.8116848-1.6234246.0063714-2.2809498z" fill="#a14007"></path><path d="m19.7369055 17.3625514-5.8833213 3.4188762-2.8116847-1.6234246 5.8833212-3.4188761z" fill="#d86c35"></path><path d="m26.0715745 17.3948543-.0063714 2.2809498-5.8833213 3.4188761.0063714-2.2803127z" fill="#bf4f11"></path><path d="m20.1879983 20.814495-.0063713 2.2803126-2.812959-1.6240617.0070085-2.2803127z" fill="#a14007"></path><path d="m17.3756765 19.1905607 5.8833213-3.4188762 2.8123218 1.6234246-5.8833213 3.4195133z" fill="#d86c35"></path><path d="m29.3132628 19.2664437-.0070085 2.2809497-5.8833212 3.4188761.0070085-2.2809497z" fill="#bf4f11"></path><path d="m23.4296867 22.6855109-.0070085 2.2809498-2.8116847-1.6234246.0070085-2.2809498z" fill="#a14007"></path><path d="m29.3132628 19.2664437-5.8833212 3.4188761-2.8116848-1.6234246 5.8833213-3.4188761z" fill="#d86c35"></path><path d="m32.5555883 21.1386702-.0070085 2.2803126-5.8833212 3.4195133.0070085-2.2809498z" fill="#bf4f11"></path><path d="m26.6720122 24.5576737-.0070085 2.2809498-2.8116847-1.6234246.0070085-2.2809498z" fill="#a14007"></path><path d="m32.5555883 21.1386702-5.8833212 3.4188761-2.8116848-1.6234246 5.8833213-3.4188761z" fill="#d86c35"></path><path d="m35.7978501 23.0102595-.0070085 2.2809498-5.8833213 3.4188761.0070085-2.2803126z" fill="#bf4f11"></path><path d="m29.9143377 26.4299002-.0070085 2.2803127-2.8123219-1.6240618.0063714-2.2803126z" fill="#a14007"></path><path d="m35.7978501 23.0102595-5.8833213 3.4195133-2.812959-1.6240617 5.8833213-3.4188761z" fill="#d86c35"></path><path d="m42.0634535 23.0942979-.0070085 2.2809498-5.8833213 3.4188761.0070085-2.2803127z" fill="#bf4f11"></path><path d="m36.1798774 26.5138748-.0070085 2.2803127-2.8123219-1.6240617.0063714-2.2803127z" fill="#a14007"></path><path d="m42.0634535 23.0942979-5.8833213 3.4195132-2.812959-1.6240617 5.8833213-3.4188761z" fill="#d86c35"></path><path d="m13.5578253 20.9532634-.0063714 2.2809497-5.88332127 3.4188761.0070085-2.2803126z" fill="#bf4f11"></path><path d="m7.67488628 24.372904-.00700851 2.2803127-2.81168473-1.6234246.00637137-2.2809498z" fill="#a14007"></path><path d="m4.86250069 22.7489697 5.88332131-3.4188761 2.8116847 1.6234246-5.88268414 3.4195133z" fill="#d86c35"></path><path d="m19.8601277 21.0049352-.0070085 2.2809497-5.8833213 3.4188761.0070085-2.2809497z" fill="#bf4f11"></path><path d="m13.9765516 24.4239387-.0070085 2.2809498-2.8123219-1.6240618.0063714-2.2809497z" fill="#a14007"></path><path d="m11.1635926 22.7999407 5.8833213-3.4188761 2.812959 1.6240617-5.8833213 3.4188761z" fill="#d86c35"></path><path d="m23.101179 22.8765245-.0063714 2.2809498-5.8833213 3.4188761.0063714-2.2809498z" fill="#bf4f11"></path><path d="m17.2176028 26.2955281-.0063713 2.2809497-2.8116848-1.6234245.0063714-2.2809498z" fill="#a14007"></path><path d="m23.101179 22.8765245-5.8833213 3.4188761-2.8116848-1.6234245 5.8833213-3.4188762z" fill="#d86c35"></path><path d="m26.3435045 24.7486873-.0063714 2.2803127-5.8833213 3.4188761.0063714-2.2803127z" fill="#bf4f11"></path><path d="m20.4599283 28.1677546-.0063713 2.2803126-2.8116848-1.6234246.0063714-2.2803126z" fill="#a14007"></path><path d="m17.6481799 26.5443937 5.8833213-3.4188761 2.8116847 1.6234246-5.8833213 3.4188761z" fill="#d86c35"></path><path d="m29.5857663 26.6202767-.0063714 2.2809498-5.8833213 3.4188761.0063714-2.2809498z" fill="#bf4f11"></path><path d="m23.7022538 30.039344-.0063713 2.2809497-2.812959-1.6240617.0070085-2.2809498z" fill="#a14007"></path><path d="m29.5857663 26.6202767-5.8833213 3.4188761-2.8123219-1.6240617 5.8833213-3.4188761z" fill="#d86c35"></path><path d="m35.8843733 26.6856469-.0070085 2.2803127-5.8826841 3.4188761.0063713-2.2803127z" fill="#bf4f11"></path><path d="m30.0007972 30.1046505-.0063714 2.2803126-2.812959-1.6240617.0070085-2.2803127z" fill="#a14007"></path><path d="m27.1884116 28.4807162 5.8826841-3.4188761 2.812959 1.6240617-5.8833212 3.4188761z" fill="#d86c35"></path><path d="m16.8697898 26.4946333-.0063713 2.2809498-2.7938449 1.6234246.0070085-2.2809498z" fill="#bf4f11"></path><path d="m14.0767095 28.1179305-.0070085 2.2809498-6.05152541-3.4934212.0070085-2.2809497z" fill="#a14007"></path><path d="m8.02518409 24.6242545 2.79320781-1.6234246 6.0515254 3.4940583-2.7932078 1.6227874z" fill="#d86c35"></path><path d="m23.3401053 30.2303576-.0063714 2.2809497-2.7938449 1.6234246.0070085-2.2809497z" fill="#bf4f11"></path><path d="m20.5470249 31.8536547-.0070085 2.2809498-6.0502511-3.4934211.0063714-2.2803127z" fill="#a14007"></path><path d="m14.4960729 28.3606159 2.793845-1.6234246 6.0502511 3.4934211-2.7932078 1.6227875z" fill="#d86c35"></path><path d="m29.7052294 30.2763588-.0063714 2.2803127-5.8833212 3.4188761.0063713-2.2803126z" fill="#bf4f11"></path><path d="m23.821717 33.6953624-.0063714 2.2803126-2.812959-1.6234246.0070085-2.2809497z" fill="#a14007"></path><path d="m21.0093314 32.0714281 5.8833213-3.4188761 2.8123219 1.6240617-5.8833213 3.4188761z" fill="#d86c35"></path><path d="m10.5158793 26.4423244-.0070085 2.2809498-2.7938449 1.6240617.00573423-2.2809498z" fill="#bf4f11"></path><path d="m7.72088756 28.0663224-.00637137 2.2809498-6.05025113-3.492784.00637136-2.2809498z" fill="#a14007"></path><path d="m1.67063642 24.5732198 2.79448205-1.6240617 6.05088823 3.4934211-2.79511914 1.6234246z" fill="#d86c35"></path><path d="m16.9911644 30.1811706-.0063714 2.2809498-2.794482 1.6240617.0063714-2.2809498z" fill="#bf4f11"></path><path d="m14.1968098 31.8051049-.0063714 2.2809498-6.05088825-3.492784.00700851-2.2809498z" fill="#a14007"></path><path d="m8.14649494 28.3120661 2.79448206-1.6240618 6.0502511 3.4934212-2.794482 1.6234245z" fill="#d86c35"></path><path d="m23.4670229 33.9200168-.0063713 2.2809498-2.7944821 1.6240617.0063714-2.2809498z" fill="#bf4f11"></path><path d="m20.672732 35.5439511-.0070085 2.2809498-6.0502511-3.4934211.0070085-2.2803127z" fill="#a14007"></path><path d="m14.6224172 32.0509123 2.794482-1.6240617 6.0502511 3.4934211-2.794482 1.6234246z" fill="#d86c35"></path><path d="m32.2419896 11.2357165-.0070085 2.2809497-2.7938449 1.6234246.0070085-2.2803126z" fill="#bf4f11"></path><path d="m29.4482721 12.8596508-.0070085 2.2803126-6.0502511-3.492784.0070085-2.28094975z" fill="#a14007"></path><path d="m32.2419896 11.2357165-2.7938449 1.6240617-6.0502511-3.49405826 2.7932077-1.62278745z" fill="#d86c35"></path><path d="m38.7172747 14.974499-.0063714 2.2809497-2.7938449 1.6234246.0070085-2.2809497z" fill="#bf4f11"></path><path d="m35.9241944 16.5978598-.0070085 2.2809498-6.0502512-3.492784.0063714-2.2809497z" fill="#a14007"></path><path d="m38.7172747 14.974499-2.7932078 1.6234246-6.0508882-3.4934212 2.7938449-1.6227874z" fill="#d86c35"></path><path d="m45.1931332 18.7133452-.0063713 2.2809498-2.7938449 1.6234246.0063713-2.2809498z" fill="#bf4f11"></path><path d="m42.3994795 20.3366424-.0063714 2.2809497-6.0508883-3.492784.0070085-2.2809497z" fill="#a14007"></path><path d="m39.1428184 15.2203064 6.0502511 3.4927839-2.7938449 1.6234246-6.0502511-3.492784z" fill="#d86c35"></path><path d="m25.9160494 11.190862-.0070085 2.2809498-5.8826842 3.4188761.0063714-2.2809497z" fill="#bf4f11"></path><path d="m20.0324732 14.6099293-.0063713 2.2809498-2.8116848-1.6234246.0063714-2.2809498z" fill="#a14007"></path><path d="m25.9160494 11.190862-5.8833213 3.4188762-2.8116847-1.6234246 5.8833212-3.41887615z" fill="#d86c35"></path><path d="m32.3701178 14.9060705-.0063713 2.2809498-2.793845 1.6234245.0063714-2.2809497z" fill="#bf4f11"></path><path d="m29.5764641 16.5293676-.0063714 2.2809498-6.0515254-3.4934211.0063714-2.2809498z" fill="#a14007"></path><path d="m32.3701178 14.9060705-2.7938449 1.6234246-6.0515254-3.4940583 2.7938449-1.6227874z" fill="#d86c35"></path><path d="m38.8404333 18.6417947-.0063714 2.2809498-2.7938449 1.6234246.0063713-2.2809498z" fill="#bf4f11"></path><path d="m36.0467795 20.2650919-.0063714 2.2809498-6.0502511-3.4934212.0063714-2.2803126z" fill="#a14007"></path><path d="m29.9964646 16.7720531 2.7938449-1.6234246 6.0502512 3.4934211-2.7938449 1.6227874z" fill="#d86c35"></path><path d="m19.7369055 14.7816377-.0063714 2.2809497-5.8833213 3.4188761.0063714-2.2803126z" fill="#bf4f11"></path><path d="m13.8533293 18.2012783-.0063713 2.2803127-2.8116848-1.6234246.0063714-2.2809498z" fill="#a14007"></path><path d="m19.7369055 14.7816377-5.8833213 3.4195132-2.8116847-1.6240617 5.8833212-3.4188761z" fill="#d86c35"></path><path d="m26.0715745 14.8145776-.0063714 2.2803127-5.8833213 3.4188761.0063714-2.2803127z" fill="#bf4f11"></path><path d="m20.1879983 18.2336449-.0063713 2.2803126-2.812959-1.6240617.0070085-2.2803126z" fill="#a14007"></path><path d="m17.3756765 16.6096469 5.8833213-3.4188761 2.8123218 1.6240617-5.8833213 3.4188761z" fill="#d86c35"></path><path d="m29.3132628 16.6855936-.0070085 2.2809498-5.8833212 3.4188761.0070085-2.2809498z" fill="#bf4f11"></path><path d="m23.4296867 20.1045971-.0070085 2.2809498-2.8116847-1.6234246.0070085-2.2809498z" fill="#a14007"></path><path d="m29.3132628 16.6855936-5.8833212 3.4188761-2.8116848-1.6234246 5.8833213-3.4188761z" fill="#d86c35"></path><path d="m32.5555883 18.5577564-.0070085 2.2809498-5.8833212 3.4188761.0070085-2.2809498z" fill="#bf4f11"></path><path d="m26.6720122 21.9768236-.0070085 2.2809498-2.8116847-1.6234246.0070085-2.2809497z" fill="#a14007"></path><path d="m32.5555883 18.5577564-5.8833212 3.4188761-2.8116848-1.6234246 5.8833213-3.4188761z" fill="#d86c35"></path><path d="m35.7978501 20.4293458-.0070085 2.2809497-5.8833213 3.4188761.0070085-2.2803126z" fill="#bf4f11"></path><path d="m29.9143377 23.8489864-.0070085 2.2803127-2.8123219-1.6240618.0063714-2.2803126z" fill="#a14007"></path><path d="m35.7978501 20.4293458-5.8833213 3.4195132-2.812959-1.6240617 5.8833213-3.4188761z" fill="#d86c35"></path><path d="m42.0634535 20.5140212-.0070085 2.2803127-5.8833213 3.4188761.0070085-2.2803126z" fill="#bf4f11"></path><path d="m36.1798774 23.9330248-.0070085 2.2803126-2.8123219-1.6240617.0063714-2.2803126z" fill="#a14007"></path><path d="m42.0634535 20.5140212-5.8833213 3.4188762-2.812959-1.6240618 5.8833213-3.4188761z" fill="#d86c35"></path><path d="m13.5578253 18.3723496-.0063714 2.2809497-5.88332127 3.4188762.0070085-2.2803127z" fill="#bf4f11"></path><path d="m7.67488628 21.7919903-.00700851 2.2803126-2.81168473-1.6234246.00637137-2.2803126z" fill="#a14007"></path><path d="m4.86250069 20.1686931 5.88332131-3.4195133 2.8116847 1.6234246-5.88268414 3.4195133z" fill="#d86c35"></path><path d="m19.8601277 18.4240214-.0070085 2.2809497-5.8833213 3.4188762.0070085-2.2803127z" fill="#bf4f11"></path><path d="m13.9765516 21.843662-.0070085 2.2803127-2.8123219-1.6240617.0063714-2.2803127z" fill="#a14007"></path><path d="m11.1635926 20.219664 5.8833213-3.4195132 2.812959 1.6240617-5.8833213 3.4195133z" fill="#d86c35"></path><path d="m23.101179 20.2956107-.0063714 2.2809498-5.8833213 3.4188761.0063714-2.2809497z" fill="#bf4f11"></path><path d="m17.2176028 23.7146143-.0063713 2.2809498-2.8116848-1.6234246.0063714-2.2809498z" fill="#a14007"></path><path d="m23.101179 20.2956107-5.8833213 3.4188762-2.8116848-1.6234246 5.8833213-3.4188761z" fill="#d86c35"></path><path d="m26.3435045 22.1678373-.0063714 2.2803126-5.8833213 3.4195132.0063714-2.2809497z" fill="#bf4f11"></path><path d="m20.4599283 25.5868408-.0063713 2.2809498-2.8116848-1.6240618.0063714-2.2803126z" fill="#a14007"></path><path d="m17.6481799 23.9634799 5.8833213-3.4188761 2.8116847 1.6234246-5.8833213 3.4188761z" fill="#d86c35"></path><path d="m29.5857663 24.0394266-.0063714 2.2809498-5.8833213 3.4188761.0063714-2.2809498z" fill="#bf4f11"></path><path d="m23.7022538 27.4584302-.0063713 2.2809497-2.812959-1.6240617.0070085-2.2809498z" fill="#a14007"></path><path d="m29.5857663 24.0394266-5.8833213 3.4188761-2.8123219-1.6240617 5.8833213-3.4188761z" fill="#d86c35"></path><path d="m35.8843733 24.1047332-.0070085 2.2803126-5.8826841 3.4195132.0063713-2.2809497z" fill="#bf4f11"></path><path d="m30.0007972 27.5237367-.0063714 2.2809498-2.812959-1.6240618.0070085-2.2809497z" fill="#a14007"></path><path d="m27.1884116 25.8998024 5.8826841-3.4188761 2.812959 1.6240617-5.8833212 3.4188761z" fill="#d86c35"></path><path d="m16.8697898 23.9137195-.0063713 2.2809498-2.7938449 1.6234246.0070085-2.2809498z" fill="#bf4f11"></path><path d="m14.0767095 25.5370167-.0070085 2.2809498-6.05152541-3.4934212.0070085-2.2809497z" fill="#a14007"></path><path d="m8.02518409 22.0433407 2.79320781-1.6234246 6.0515254 3.4940583-2.7932078 1.6227874z" fill="#d86c35"></path><path d="m23.3401053 27.6494438-.0063714 2.2809498-2.7938449 1.6234245.0070085-2.2809497z" fill="#bf4f11"></path><path d="m20.5470249 29.2727409-.0070085 2.2809498-6.0502511-3.492784.0063714-2.2809497z" fill="#a14007"></path><path d="m14.4960729 25.7797021 2.793845-1.6234246 6.0502511 3.4934211-2.7932078 1.6227875z" fill="#d86c35"></path><path d="m29.7052294 27.6954451-.0063714 2.2803126-5.8833212 3.4195132.0063713-2.2809497z" fill="#bf4f11"></path><path d="m23.821717 31.1145123-.0063714 2.2809498-2.812959-1.6240617.0070085-2.2809498z" fill="#a14007"></path><path d="m21.0093314 29.4905143 5.8833213-3.4188761 2.8123219 1.6240617-5.8833213 3.4188761z" fill="#d86c35"></path><path d="m10.5158793 23.8614743-.0070085 2.2809498-2.7938449 1.6240617.00573423-2.2809498z" fill="#bf4f11"></path><path d="m7.72088756 25.4854086-.00637137 2.2809498-6.05025113-3.492784.00637136-2.2809498z" fill="#a14007"></path><path d="m1.67063642 21.9923698 2.79448205-1.6240617 6.05088823 3.4934211-2.79511914 1.6234246z" fill="#d86c35"></path><path d="m16.9911644 27.6002568-.0063714 2.2809498-2.794482 1.6240617.0063714-2.2809498z" fill="#bf4f11"></path><path d="m14.1968098 29.2242548-.0063714 2.2809498-6.05088825-3.492784.00700851-2.2809498z" fill="#a14007"></path><path d="m8.14649494 25.7311523 2.79448206-1.6240617 6.0502511 3.4934211-2.794482 1.6234246z" fill="#d86c35"></path><path d="m23.4670229 31.339103-.0063713 2.2809498-2.7944821 1.6240617.0063714-2.2809497z" fill="#bf4f11"></path><path d="m20.672732 32.9630373-.0070085 2.2809498-6.0502511-3.492784.0070085-2.2809497z" fill="#a14007"></path><path d="m14.6224172 29.4699985 2.794482-1.6240617 6.0502511 3.4934211-2.794482 1.6234246z" fill="#d86c35"></path><path d="m32.2419896 8.65480269-.0070085 2.28094981-2.7938449 1.6234245.0070085-2.2803126z" fill="#bf4f11"></path><path d="m29.4482721 10.278737-.0070085 2.2803126-6.0502511-3.49278396.0070085-2.28094977z" fill="#a14007"></path><path d="m32.2419896 8.65480269-2.7938449 1.62406171-6.0502511-3.49405824 2.7932077-1.62278745z" fill="#d86c35"></path><path d="m38.7172747 12.3935852-.0063714 2.2809498-2.7938449 1.6234246.0070085-2.2809498z" fill="#bf4f11"></path><path d="m35.9241944 14.0169461-.0070085 2.2809497-6.0502512-3.4927839.0063714-2.2809498z" fill="#a14007"></path><path d="m38.7172747 12.3935852-2.7932078 1.6234246-6.0508882-3.4934211 2.7938449-1.62278749z" fill="#d86c35"></path><path d="m45.1931332 16.1324314-.0063713 2.2809498-2.7938449 1.6234246.0063713-2.2809498z" fill="#bf4f11"></path><path d="m42.3994795 17.7557923-.0063714 2.2809498-6.0508883-3.492784.0070085-2.2809498z" fill="#a14007"></path><path d="m39.1428184 12.6393926 6.0502511 3.492784-2.7938449 1.6234245-6.0502511-3.4927839z" fill="#d86c35"></path><path d="m25.9160494 8.61001197-.0070085 2.28094973-5.8826842 3.4188762.0063714-2.2809498z" fill="#bf4f11"></path><path d="m20.0324732 12.0290155-.0063713 2.2809498-2.8116848-1.6234246.0063714-2.2809498z" fill="#a14007"></path><path d="m25.9160494 8.61001197-5.8833213 3.41887613-2.8116847-1.6234246 5.8833212-3.41887612z" fill="#d86c35"></path><path d="m32.3701178 12.3251567-.0063713 2.2809498-2.793845 1.6234246.0063714-2.2809498z" fill="#bf4f11"></path><path d="m29.5764641 13.9485176-.0063714 2.2809497-6.0515254-3.4934211.0063714-2.2809497z" fill="#a14007"></path><path d="m32.3701178 12.3251567-2.7938449 1.6234246-6.0515254-3.4940583 2.7938449-1.62278742z" fill="#d86c35"></path><path d="m38.8404333 16.0608809-.0063714 2.2809498-2.7938449 1.6234246.0063713-2.2809498z" fill="#bf4f11"></path><path d="m36.0467795 17.6841781-.0063714 2.2809498-6.0502511-3.4934211.0063714-2.2803127z" fill="#a14007"></path><path d="m29.9964646 14.1911393 2.7938449-1.6234246 6.0502512 3.4934211-2.7938449 1.6227875z" fill="#d86c35"></path><path d="m19.7369055 12.201361-.0063714 2.2803127-5.8833213 3.4188761.0063714-2.2803127z" fill="#bf4f11"></path><path d="m13.8533293 15.6203646-.0063713 2.2803126-2.8116848-1.6234246.0063714-2.2809498z" fill="#a14007"></path><path d="m19.7369055 12.201361-5.8833213 3.4188761-2.8116847-1.6240617 5.8833212-3.4188761z" fill="#d86c35"></path><path d="m26.0715745 12.2337276-.0063714 2.2803126-5.8833213 3.4188761.0063714-2.2803126z" fill="#bf4f11"></path><path d="m20.1879983 15.6527311-.0063713 2.2803126-2.812959-1.6240617.0070085-2.2803126z" fill="#a14007"></path><path d="m17.3756765 14.0287331 5.8833213-3.4188761 2.8123218 1.6240617-5.8833213 3.4188761z" fill="#d86c35"></path><path d="m29.3132628 14.1046798-.0070085 2.2809498-5.8833212 3.4188761.0070085-2.2803126z" fill="#bf4f11"></path><path d="m23.4296867 17.5243205-.0070085 2.2803126-2.8116847-1.6234246.0070085-2.2809497z" fill="#a14007"></path><path d="m29.3132628 14.1046798-5.8833212 3.4195133-2.8116848-1.6240618 5.8833213-3.4188761z" fill="#d86c35"></path><path d="m32.5555883 15.9769063-.0070085 2.2809498-5.8833212 3.4188761.0070085-2.2809498z" fill="#bf4f11"></path><path d="m26.6720122 19.3959099-.0070085 2.2809497-2.8116847-1.6234246.0070085-2.2809497z" fill="#a14007"></path><path d="m32.5555883 15.9769063-5.8833212 3.4188761-2.8116848-1.6234246 5.8833213-3.4188761z" fill="#d86c35"></path><path d="m35.7978501 17.8490691-.0070085 2.2803126-5.8833213 3.4188762.0070085-2.2803127z" fill="#bf4f11"></path><path d="m29.9143377 21.2680727-.0070085 2.2803126-2.8123219-1.6240617.0063714-2.2803127z" fill="#a14007"></path><path d="m35.7978501 17.8490691-5.8833213 3.4188761-2.812959-1.6240617 5.8833213-3.4188761z" fill="#d86c35"></path><path d="m42.0634535 17.9331075-.0070085 2.2803126-5.8833213 3.4188761.0070085-2.2803126z" fill="#bf4f11"></path><path d="m36.1798774 21.352111-.0070085 2.2803126-2.8123219-1.6240617.0063714-2.2803126z" fill="#a14007"></path><path d="m42.0634535 17.9331075-5.8833213 3.4188761-2.812959-1.6240618 5.8833213-3.4188761z" fill="#d86c35"></path><path d="m13.5578253 15.7920729-.0063714 2.2803127-5.88332127 3.4188761.0070085-2.2803127z" fill="#bf4f11"></path><path d="m7.67488628 19.2110765-.00700851 2.2803126-2.81168473-1.6234246.00637137-2.2803126z" fill="#a14007"></path><path d="m4.86250069 17.5877793 5.88332131-3.4188761 2.8116847 1.6234246-5.88268414 3.4188761z" fill="#d86c35"></path><path d="m19.8601277 15.8431076-.0070085 2.2809498-5.8833213 3.4188761.0070085-2.2803127z" fill="#bf4f11"></path><path d="m13.9765516 19.2627483-.0070085 2.2803126-2.8123219-1.6240617.0063714-2.2803127z" fill="#a14007"></path><path d="m11.1635926 17.638814 5.8833213-3.4195133 2.812959 1.6240617-5.8833213 3.4195133z" fill="#d86c35"></path><path d="m23.101179 17.714697-.0063714 2.2809497-5.8833213 3.4188761.0063714-2.2809497z" fill="#bf4f11"></path><path d="m17.2176028 21.1337005-.0063713 2.2809498-2.8116848-1.6234246.0063714-2.2809498z" fill="#a14007"></path><path d="m23.101179 17.714697-5.8833213 3.4188761-2.8116848-1.6234246 5.8833213-3.4188761z" fill="#d86c35"></path><path d="m26.3435045 19.5869235-.0063714 2.2803126-5.8833213 3.4195133.0063714-2.2809498z" fill="#bf4f11"></path><path d="m20.4599283 23.005927-.0063713 2.2809498-2.8116848-1.6240617.0063714-2.2803127z" fill="#a14007"></path><path d="m17.6481799 21.3825661 5.8833213-3.4188761 2.8116847 1.6234246-5.8833213 3.4188761z" fill="#d86c35"></path><path d="m29.5857663 21.4585128-.0063714 2.2809498-5.8833213 3.4188761.0063714-2.2809497z" fill="#bf4f11"></path><path d="m23.7022538 24.8775164-.0063713 2.2809498-2.812959-1.6240618.0070085-2.2803126z" fill="#a14007"></path><path d="m29.5857663 21.4585128-5.8833213 3.4188762-2.8123219-1.6234246 5.8833213-3.4195133z" fill="#d86c35"></path><path d="m35.8843733 21.5238194-.0070085 2.2803126-5.8826841 3.4188761.0063713-2.2803126z" fill="#bf4f11"></path><path d="m30.0007972 24.9428229-.0063714 2.2803126-2.812959-1.6234245.0070085-2.2809498z" fill="#a14007"></path><path d="m27.1884116 23.3188886 5.8826841-3.4188761 2.812959 1.6240617-5.8833212 3.4188761z" fill="#d86c35"></path><path d="m16.8697898 21.3328058-.0063713 2.2809497-2.7938449 1.6234246.0070085-2.2809498z" fill="#bf4f11"></path><path d="m14.0767095 22.9561666-.0070085 2.2809498-6.05152541-3.4934211.0070085-2.2809498z" fill="#a14007"></path><path d="m8.02518409 19.4624907 2.79320781-1.6234246 6.0515254 3.4940582-2.7932078 1.6227875z" fill="#d86c35"></path><path d="m23.3401053 25.06853-.0063714 2.2809498-2.7938449 1.6234246.0070085-2.2809498z" fill="#bf4f11"></path><path d="m20.5470249 26.6918272-.0070085 2.2809497-6.0502511-3.4927839.0063714-2.2809498z" fill="#a14007"></path><path d="m14.4960729 23.1987883 2.793845-1.6234246 6.0502511 3.4934212-2.7932078 1.6227874z" fill="#d86c35"></path><path d="m29.7052294 25.114595-.0063714 2.2809498-5.8833212 3.4188761.0063713-2.2809498z" fill="#bf4f11"></path><path d="m23.821717 28.5335985-.0063714 2.2809498-2.812959-1.6240617.0070085-2.2809498z" fill="#a14007"></path><path d="m21.0093314 26.9096005 5.8833213-3.4188761 2.8123219 1.6240617-5.8833213 3.4188761z" fill="#d86c35"></path><path d="m10.5158793 21.2811977-.0070085 2.2803126-2.7938449 1.6240617.00573423-2.2803126z" fill="#bf4f11"></path><path d="m7.72088756 22.905132-.00637137 2.2803126-6.05025113-3.492784.00637136-2.2809498z" fill="#a14007"></path><path d="m1.67063642 19.411456 2.79448205-1.6240617 6.05088823 3.4940582-2.79511914 1.6234246z" fill="#d86c35"></path><path d="m16.9911644 25.019343-.0063714 2.2809498-2.794482 1.6240617.0063714-2.2809497z" fill="#bf4f11"></path><path d="m14.1968098 26.643341-.0063714 2.2809498-6.05088825-3.492784.00700851-2.2809497z" fill="#a14007"></path><path d="m8.14649494 23.1503022 2.79448206-1.6240617 6.0502511 3.4934211-2.794482 1.6234246z" fill="#d86c35"></path><path d="m23.4670229 28.7581893-.0063713 2.2809497-2.7944821 1.6240618.0063714-2.2809498z" fill="#bf4f11"></path><path d="m20.672732 30.3821236-.0070085 2.2809497-6.0502511-3.492784.0070085-2.2809497z" fill="#a14007"></path><path d="m14.6224172 26.8890847 2.794482-1.6240617 6.0502511 3.4934211-2.794482 1.6234246z" fill="#d86c35"></path><path d="m32.2419896 6.07388891-.0070085 2.28094977-2.7938449 1.62342459.0070085-2.28031264z" fill="#bf4f11"></path><path d="m29.4482721 7.6978232-.0070085 2.28031264-6.0502511-3.49278398.0070085-2.28094978z" fill="#a14007"></path><path d="m32.2419896 6.07388891-2.7938449 1.62406172-6.0502511-3.49405826 2.7932077-1.62278745z" fill="#d86c35"></path><path d="m38.7172747 9.81273512-.0063714 2.28094978-2.7938449 1.6234246.0070085-2.2803127z" fill="#bf4f11"></path><path d="m35.9241944 11.4366694-.0070085 2.2803127-6.0502512-3.492784.0063714-2.2809498z" fill="#a14007"></path><path d="m38.7172747 9.81273512-2.7932078 1.62406168-6.0508882-3.49405821 2.7938449-1.62278745z" fill="#d86c35"></path><path d="m45.1931332 13.5515176-.0063713 2.2809498-2.7938449 1.6234246.0063713-2.2809498z" fill="#bf4f11"></path><path d="m42.3994795 15.1748785-.0063714 2.2809498-6.0508883-3.492784.0070085-2.2809498z" fill="#a14007"></path><path d="m39.1428184 10.0584788 6.0502511 3.492784-2.7938449 1.6234246-6.0502511-3.492784z" fill="#d86c35"></path><path d="m25.9160494 6.02909819-.0070085 2.28094977-5.8826842 3.41887614.0063714-2.28031266z" fill="#bf4f11"></path><path d="m20.0324732 9.44873887-.0063713 2.28031263-2.8116848-1.6234246.0063714-2.28094976z" fill="#a14007"></path><path d="m25.9160494 6.02909819-5.8833213 3.41951325-2.8116847-1.62406173 5.8833212-3.41887611z" fill="#d86c35"></path><path d="m32.3701178 9.74424292-.0063713 2.28094978-2.793845 1.6234246.0063714-2.2809498z" fill="#bf4f11"></path><path d="m29.5764641 11.3676038-.0063714 2.2809498-6.0515254-3.4934212.0063714-2.28094973z" fill="#a14007"></path><path d="m32.3701178 9.74424292-2.7938449 1.62342458-6.0515254-3.49405825 2.7938449-1.62278745z" fill="#d86c35"></path><path d="m38.8404333 13.4799672-.0063714 2.2809497-2.7938449 1.6234246.0063713-2.2809497z" fill="#bf4f11"></path><path d="m36.0467795 15.103328-.0063714 2.2809498-6.0502511-3.492784.0063714-2.2809497z" fill="#a14007"></path><path d="m29.9964646 11.6102255 2.7938449-1.6234246 6.0502512 3.4934211-2.7938449 1.6227875z" fill="#d86c35"></path><path d="m19.7369055 9.6198101-.0063714 2.2809498-5.8833213 3.4188761.0063714-2.2803127z" fill="#bf4f11"></path><path d="m13.8533293 13.0394508-.0063713 2.2803126-2.8116848-1.6234246.0063714-2.2803126z" fill="#a14007"></path><path d="m19.7369055 9.6198101-5.8833213 3.4195132-2.8116847-1.6234245 5.8833212-3.41951329z" fill="#d86c35"></path><path d="m26.0715745 9.65281379-.0063714 2.28031261-5.8833213 3.4195133.0063714-2.2809498z" fill="#bf4f11"></path><path d="m20.1879983 13.0718173-.0063713 2.2809498-2.812959-1.6240617.0070085-2.2809498z" fill="#a14007"></path><path d="m17.3756765 11.447883 5.8833213-3.41887608 2.8123218 1.62406172-5.8833213 3.41887616z" fill="#d86c35"></path><path d="m29.3132628 11.523766-.0070085 2.2809498-5.8833212 3.4188761.0070085-2.2803126z" fill="#bf4f11"></path><path d="m23.4296867 14.9434067-.0070085 2.2803126-2.8116847-1.6234246.0070085-2.2809497z" fill="#a14007"></path><path d="m29.3132628 11.523766-5.8833212 3.4195133-2.8116848-1.6240618 5.8833213-3.41887606z" fill="#d86c35"></path><path d="m32.5555883 13.3959925-.0070085 2.2809498-5.8833212 3.4188761.0070085-2.2809498z" fill="#bf4f11"></path><path d="m26.6720122 16.8149961-.0070085 2.2809497-2.8116847-1.6234245.0070085-2.2809498z" fill="#a14007"></path><path d="m32.5555883 13.3959925-5.8833212 3.4188761-2.8116848-1.6234245 5.8833213-3.4188762z" fill="#d86c35"></path><path d="m35.7978501 15.268219-.0070085 2.2803127-5.8833213 3.4188761.0070085-2.2803126z" fill="#bf4f11"></path><path d="m29.9143377 18.6872226-.0070085 2.2803126-2.8123219-1.6240617.0063714-2.2803126z" fill="#a14007"></path><path d="m35.7978501 15.268219-5.8833213 3.4188762-2.812959-1.6240618 5.8833213-3.4188761z" fill="#d86c35"></path><path d="m42.0634535 15.3521937-.0070085 2.2803126-5.8833213 3.4195133.0070085-2.2809498z" fill="#bf4f11"></path><path d="m36.1798774 18.7711972-.0070085 2.2809498-2.8123219-1.6240617.0063714-2.2809498z" fill="#a14007"></path><path d="m42.0634535 15.3521937-5.8833213 3.4188761-2.812959-1.6240617 5.8833213-3.4188761z" fill="#d86c35"></path><path d="m13.5578253 13.2111591-.0063714 2.2803127-5.88332127 3.4188761.0070085-2.2803126z" fill="#bf4f11"></path><path d="m7.67488628 16.6302264-.00700851 2.2803126-2.81168473-1.6234246.00637137-2.2803126z" fill="#a14007"></path><path d="m4.86250069 15.0068655 5.88332131-3.4195132 2.8116847 1.6240617-5.88268414 3.4188761z" fill="#d86c35"></path><path d="m19.8601277 13.2621938-.0070085 2.2809498-5.8833213 3.4188761.0070085-2.2803126z" fill="#bf4f11"></path><path d="m13.9765516 16.6818345-.0070085 2.2803126-2.8123219-1.6240617.0063714-2.2803126z" fill="#a14007"></path><path d="m11.1635926 15.0579002 5.8833213-3.4188761 2.812959 1.6234246-5.8833213 3.4195132z" fill="#d86c35"></path><path d="m23.101179 15.1337832-.0063714 2.2809498-5.8833213 3.4188761.0063714-2.2809498z" fill="#bf4f11"></path><path d="m17.2176028 18.5527867-.0063713 2.2809498-2.8116848-1.6234246.0063714-2.2809498z" fill="#a14007"></path><path d="m23.101179 15.1337832-5.8833213 3.4188761-2.8116848-1.6234246 5.8833213-3.4188761z" fill="#d86c35"></path><path d="m26.3435045 17.0060097-.0063714 2.2809498-5.8833213 3.4188761.0063714-2.2809498z" fill="#bf4f11"></path><path d="m20.4599283 20.4250132-.0063713 2.2809498-2.8116848-1.6240617.0063714-2.2803127z" fill="#a14007"></path><path d="m17.6481799 18.8017161 5.8833213-3.4188761 2.8116847 1.6234245-5.8833213 3.4188762z" fill="#d86c35"></path><path d="m29.5857663 18.8775991-.0063714 2.2809497-5.8833213 3.4188761.0063714-2.2803126z" fill="#bf4f11"></path><path d="m23.7022538 22.2972397-.0063713 2.2803127-2.812959-1.6240617.0070085-2.2803127z" fill="#a14007"></path><path d="m29.5857663 18.8775991-5.8833213 3.4195132-2.8123219-1.6240617 5.8833213-3.4195133z" fill="#d86c35"></path><path d="m35.8843733 18.9429056-.0070085 2.2803126-5.8826841 3.4195133.0063713-2.2809498z" fill="#bf4f11"></path><path d="m30.0007972 22.3619091-.0063714 2.2809498-2.812959-1.6240617.0070085-2.2809498z" fill="#a14007"></path><path d="m27.1884116 20.7379748 5.8826841-3.4188761 2.812959 1.6240617-5.8833212 3.4188762z" fill="#d86c35"></path><path d="m16.8697898 18.751892-.0063713 2.2809497-2.7938449 1.6234246.0070085-2.2809497z" fill="#bf4f11"></path><path d="m14.0767095 20.3752528-.0070085 2.2809498-6.05152541-3.4934211.0070085-2.2809498z" fill="#a14007"></path><path d="m8.02518409 16.8815769 2.79320781-1.6234246 6.0515254 3.4940582-2.7932078 1.6227875z" fill="#d86c35"></path><path d="m23.3401053 22.4876162-.0063714 2.2809498-2.7938449 1.6234246.0070085-2.2809498z" fill="#bf4f11"></path><path d="m20.5470249 24.1109771-.0070085 2.2809498-6.0502511-3.492784.0063714-2.2809498z" fill="#a14007"></path><path d="m14.4960729 20.6178745 2.793845-1.6234245 6.0502511 3.4934211-2.7932078 1.6227874z" fill="#d86c35"></path><path d="m29.7052294 22.5336812-.0063714 2.2809498-5.8833212 3.4188761.0063713-2.2809498z" fill="#bf4f11"></path><path d="m23.821717 25.9526847-.0063714 2.2809498-2.812959-1.6240617.0070085-2.2809498z" fill="#a14007"></path><path d="m21.0093314 24.3287505 5.8833213-3.4188762 2.8123219 1.6240618-5.8833213 3.4188761z" fill="#d86c35"></path><path d="m10.5158793 18.7002839-.0070085 2.2803126-2.7938449 1.6240617.00573423-2.2803126z" fill="#bf4f11"></path><path d="m7.72088756 20.3242182-.00637137 2.2803126-6.05025113-3.492784.00637136-2.2809497z" fill="#a14007"></path><path d="m1.67063642 16.8305422 2.79448205-1.6240617 6.05088823 3.4940582-2.79511914 1.6234246z" fill="#d86c35"></path><path d="m16.9911644 22.438493-.0063714 2.2809497-2.794482 1.6240618.0063714-2.2809498z" fill="#bf4f11"></path><path d="m14.1968098 24.0624273-.0063714 2.2809497-6.05088825-3.4927839.00700851-2.2809498z" fill="#a14007"></path><path d="m8.14649494 20.5693884 2.79448206-1.6240617 6.0502511 3.4934211-2.794482 1.6234246z" fill="#d86c35"></path><path d="m23.4670229 26.1772755-.0063713 2.2809497-2.7944821 1.6240618.0063714-2.2809498z" fill="#bf4f11"></path><path d="m20.672732 27.8012735-.0070085 2.2809498-6.0502511-3.492784.0070085-2.2809498z" fill="#a14007"></path><path d="m14.6224172 24.3081709 2.794482-1.6240617 6.0502511 3.4934211-2.794482 1.6234246z" fill="#d86c35"></path><path d="m32.2419896 3.49361226-.0070085 2.28031264-2.7938449 1.62342458.0070085-2.28031263z" fill="#bf4f11"></path><path d="m29.4482721 5.11690942-.0070085 2.28031264-6.0502511-3.49278399.0070085-2.28094977z" fill="#a14007"></path><path d="m26.1911013-.00012743-2.7932077 1.62342459 6.0502511 3.49405826 2.7938449-1.62342459z" fill="#d86c35"></path><path d="m38.7172747 7.23182134-.0063714 2.28094977-2.7938449 1.62342459.0070085-2.28031263z" fill="#bf4f11"></path><path d="m35.9241944 8.85575564-.0070085 2.28031266-6.0502512-3.49278401.0063714-2.28094977z" fill="#a14007"></path><path d="m38.7172747 7.23182134-2.7932078 1.62406173-6.0508882-3.49405826 2.7938449-1.62278745z" fill="#d86c35"></path><path d="m45.1931332 10.9706038-.0063713 2.2809498-2.7938449 1.6234246.0063713-2.2809498z" fill="#bf4f11"></path><path d="m42.3994795 12.5939647-.0063714 2.2809498-6.0508883-3.492784.0070085-2.28094976z" fill="#a14007"></path><path d="m39.1428184 7.47756501 6.0502511 3.49278399-2.7938449 1.6234246-6.0502511-3.492784z" fill="#d86c35"></path><path d="m25.9160494 3.44818441-.0070085 2.28094977-5.8826842 3.41887611.0063714-2.28031263z" fill="#bf4f11"></path><path d="m20.0324732 6.86782508-.0063713 2.28031264-2.8116848-1.62342459.0063714-2.28094977z" fill="#a14007"></path><path d="m25.9160494 3.44818441-5.8833213 3.41951325-2.8116847-1.62406173 5.8833212-3.41887611z" fill="#d86c35"></path><path d="m32.3701178 7.16339285-.0063713 2.28094977-2.793845 1.62342458.0063714-2.28094976z" fill="#bf4f11"></path><path d="m29.5764641 8.78669001-.0063714 2.28094979-6.0515254-3.49342114.0063714-2.28094977z" fill="#a14007"></path><path d="m32.3701178 7.16339285-2.7938449 1.62342459-6.0515254-3.49405826 2.7938449-1.62278745z" fill="#d86c35"></path><path d="m38.8404333 10.8990534-.0063714 2.2809498-2.7938449 1.6234245.0063713-2.2809497z" fill="#bf4f11"></path><path d="m36.0467795 12.5224143-.0063714 2.2809497-6.0502511-3.492784.0063714-2.28094973z" fill="#a14007"></path><path d="m29.9964646 9.02937542 2.7938449-1.62342459 6.0502512 3.49342117-2.7938449 1.6227874z" fill="#d86c35"></path><path d="m19.7369055 7.03953345-.0063714 2.28031264-5.8833213 3.41887611.0063714-2.2803126z" fill="#bf4f11"></path><path d="m13.8533293 10.458537-.0063713 2.2803126-2.8116848-1.6234246.0063714-2.28031259z" fill="#a14007"></path><path d="m19.7369055 7.03953345-5.8833213 3.41887615-2.8116847-1.62342462 5.8833212-3.41887611z" fill="#d86c35"></path><path d="m26.0715745 7.0719-.0063714 2.28031264-5.8833213 3.41951326.0063714-2.2809498z" fill="#bf4f11"></path><path d="m20.1879983 10.4909035-.0063713 2.2809498-2.812959-1.6240617.0070085-2.28094978z" fill="#a14007"></path><path d="m17.3756765 8.86696925 5.8833213-3.41887612 2.8123218 1.62406173-5.8833213 3.41887614z" fill="#d86c35"></path><path d="m29.3132628 8.94285224-.0070085 2.28094976-5.8833212 3.4188761.0070085-2.2803126z" fill="#bf4f11"></path><path d="m23.4296867 12.3624929-.0070085 2.2803127-2.8116847-1.6234246.0070085-2.2803127z" fill="#a14007"></path><path d="m29.3132628 8.94285224-5.8833212 3.41951326-2.8116848-1.6234246 5.8833213-3.41951325z" fill="#d86c35"></path><path d="m32.5555883 10.8150788-.0070085 2.2809497-5.8833212 3.4188761.0070085-2.2809497z" fill="#bf4f11"></path><path d="m26.6720122 14.2340823-.0070085 2.2809498-2.8116847-1.6234246.0070085-2.2809498z" fill="#a14007"></path><path d="m32.5555883 10.8150788-5.8833212 3.4188761-2.8116848-1.6234246 5.8833213-3.41887614z" fill="#d86c35"></path><path d="m35.7978501 12.6873053-.0070085 2.2803126-5.8833213 3.4195132.0070085-2.2809497z" fill="#bf4f11"></path><path d="m29.9143377 16.1063088-.0070085 2.2809498-2.8123219-1.6240617.0063714-2.2809498z" fill="#a14007"></path><path d="m35.7978501 12.6873053-5.8833213 3.4188761-2.812959-1.6240617 5.8833213-3.4188762z" fill="#d86c35"></path><path d="m42.0634535 12.7712799-.0070085 2.2803126-5.8833213 3.4188761.0070085-2.2803126z" fill="#bf4f11"></path><path d="m36.1798774 16.1902834-.0070085 2.2803127-2.8123219-1.6234246.0063714-2.2809498z" fill="#a14007"></path><path d="m42.0634535 12.7712799-5.8833213 3.4188761-2.812959-1.6240617 5.8833213-3.4188761z" fill="#d86c35"></path><path d="m13.5578253 10.6303091-.0063714 2.2803126-5.88332127 3.4188761.0070085-2.2803126z" fill="#bf4f11"></path><path d="m7.67488628 14.0493126-.00700851 2.2803127-2.81168473-1.6234246.00637137-2.2803127z" fill="#a14007"></path><path d="m4.86250069 12.4259517 5.88332131-3.41887607 2.8116847 1.62342457-5.88268414 3.4188761z" fill="#d86c35"></path><path d="m19.8601277 10.6819172-.0070085 2.2803126-5.8833213 3.4188761.0070085-2.2803126z" fill="#bf4f11"></path><path d="m13.9765516 14.1009207-.0070085 2.2803126-2.8123219-1.6240617.0063714-2.2803126z" fill="#a14007"></path><path d="m11.1635926 12.4769864 5.8833213-3.41887611 2.812959 1.62406171-5.8833213 3.4188761z" fill="#d86c35"></path><path d="m23.101179 12.5528694-.0063714 2.2809498-5.8833213 3.4188761.0063714-2.2809498z" fill="#bf4f11"></path><path d="m17.2176028 15.9718729-.0063713 2.2809498-2.8116848-1.6234246.0063714-2.2809498z" fill="#a14007"></path><path d="m23.101179 12.5528694-5.8833213 3.4188761-2.8116848-1.6234246 5.8833213-3.4188761z" fill="#d86c35"></path><path d="m26.3435045 14.4250959-.0063714 2.2803126-5.8833213 3.4195133.0063714-2.2809498z" fill="#bf4f11"></path><path d="m20.4599283 17.8440994-.0063713 2.2809498-2.8116848-1.6234246.0063714-2.2809497z" fill="#a14007"></path><path d="m17.6481799 16.2208023 5.8833213-3.4188761 2.8116847 1.6234246-5.8833213 3.4188761z" fill="#d86c35"></path><path d="m29.5857663 16.2966853-.0063714 2.2809498-5.8833213 3.4188761.0063714-2.2803127z" fill="#bf4f11"></path><path d="m23.7022538 19.716326-.0063713 2.2803126-2.812959-1.6240617.0070085-2.2803127z" fill="#a14007"></path><path d="m29.5857663 16.2966853-5.8833213 3.4195132-2.8123219-1.6240617 5.8833213-3.4188761z" fill="#d86c35"></path><path d="m35.8843733 16.3620555-.0070085 2.2809498-5.8826841 3.4188761.0063713-2.2809498z" fill="#bf4f11"></path><path d="m30.0007972 19.7810591-.0063714 2.2809497-2.812959-1.6240617.0070085-2.2809498z" fill="#a14007"></path><path d="m27.1884116 18.157061 5.8826841-3.4188761 2.812959 1.6240618-5.8833212 3.4188761z" fill="#d86c35"></path><path d="m16.8697898 16.1709782-.0063713 2.2809498-2.7938449 1.6234245.0070085-2.2803126z" fill="#bf4f11"></path><path d="m14.0767095 17.7949762-.0070085 2.2803126-6.05152541-3.4934211.0070085-2.2809498z" fill="#a14007"></path><path d="m8.02518409 14.3006631 2.79320781-1.6234246 6.0515254 3.4940583-2.7932078 1.6234245z" fill="#d86c35"></path><path d="m23.3401053 19.9067024-.0063714 2.2809498-2.7938449 1.6234246.0070085-2.2809498z" fill="#bf4f11"></path><path d="m20.5470249 21.5300633-.0070085 2.2809498-6.0502511-3.492784.0063714-2.2809498z" fill="#a14007"></path><path d="m14.4960729 18.0370245 2.793845-1.6234246 6.0502511 3.4934211-2.7932078 1.6227875z" fill="#d86c35"></path><path d="m29.7052294 19.9527674-.0063714 2.2809498-5.8833212 3.4188761.0063713-2.2809498z" fill="#bf4f11"></path><path d="m23.821717 23.371771-.0063714 2.2809497-2.812959-1.6240617.0070085-2.2809498z" fill="#a14007"></path><path d="m21.0093314 21.7478367 5.8833213-3.4188761 2.8123219 1.6240617-5.8833213 3.4188761z" fill="#d86c35"></path><path d="m10.5158793 16.1193701-.0070085 2.2803126-2.7938449 1.6240618.00573423-2.2803127z" fill="#bf4f11"></path><path d="m7.72088756 17.7433044-.00637137 2.2803126-6.05025113-3.4927839.00637136-2.2809498z" fill="#a14007"></path><path d="m1.67063642 14.2496284 2.79448205-1.6240617 6.05088823 3.4940583-2.79511914 1.6234245z" fill="#d86c35"></path><path d="m16.9911644 19.8582163-.0063714 2.2803127-2.794482 1.6240617.0063714-2.2803127z" fill="#bf4f11"></path><path d="m14.1968098 21.4821506-.0063714 2.2803127-6.05088825-3.492784.00700851-2.2809498z" fill="#a14007"></path><path d="m8.14649494 17.9884746 2.79448206-1.6240617 6.0502511 3.4940583-2.794482 1.6234246z" fill="#d86c35"></path><path d="m23.4670229 23.5963617-.0063713 2.2809498-2.7944821 1.6240617.0063714-2.2809498z" fill="#bf4f11"></path><path d="m20.672732 25.2203597-.0070085 2.2809498-6.0502511-3.492784.0070085-2.2809498z" fill="#a14007"></path><path d="m14.6224172 21.7273209 2.794482-1.6240618 6.0502511 3.4934212-2.794482 1.6234245z" fill="#d86c35"></path></g></g></g></svg> 