<?xml version="1.0" encoding="UTF-8"?> <svg xmlns="http://www.w3.org/2000/svg" xmlns:xlink="http://www.w3.org/1999/xlink" width="76" height="75"><defs><rect id="b" width="509" height="168" rx="4"></rect><filter x="-3.9%" y="-8.4%" width="107.9%" height="123.9%" id="a"><feMorphology radius=".55" operator="dilate" in="SourceAlpha" result="shadowSpreadOuter1"></feMorphology><feOffset dy="6" in="shadowSpreadOuter1" result="shadowOffsetOuter1"></feOffset><feGaussianBlur stdDeviation="5.5" in="shadowOffsetOuter1" result="shadowBlurOuter1"></feGaussianBlur><feComposite in="shadowBlurOuter1" in2="SourceAlpha" operator="out" result="shadowBlurOuter1"></feComposite><feColorMatrix values="0 0 0 0 0 0 0 0 0 0 0 0 0 0 0 0 0 0 0.1 0" in="shadowBlurOuter1"></feColorMatrix></filter><path id="c" d="M0 0.188768796L14.8313451 0.188768796 14.8313451 31.3533813 0 31.3533813z"></path><linearGradient x1="50%" y1="0%" x2="50%" y2="100%" id="e"><stop stop-color="#ED5947" offset="0%"></stop><stop stop-color="#B73B2C" offset="100%"></stop></linearGradient><path id="f" d="M0.287163863 0.385131125L15.1180811 0.385131125 15.1180811 31.550592 0.287163863 31.550592z"></path></defs><g transform="translate(-388 -640)" fill="none" fill-rule="evenodd"><g transform="translate(1 594)"><use fill="#000" filter="url(#a)" xlink:href="#b"></use><use stroke="#DEE4EC" stroke-width="1.1" fill="#FFF" xlink:href="#b"></use><rect fill="#DEE4EC" opacity=".673" x="387" y="46" width="76" height="76" rx="4"></rect><text font-family="Lato-Regular, Lato" font-size="16" fill="#717A7B"><tspan x="37" y="94">Nulla id arcu sapien. Nunc sit amet ipsum </tspan><tspan x="37" y="118">maximus, scelerisque libero ac, ornare quam. </tspan><tspan x="37" y="142">Aliquam volutpat pulvinar mi in rhoncus. </tspan><tspan x="37" y="166">Suspendisse potenti.</tspan></text><text font-family="Lato-Black, Lato" font-size="24" font-weight="700" letter-spacing="-.75" fill="#0A1158"><tspan x="37" y="64">Home &amp; Health</tspan></text></g><g transform="translate(396.871 655.4)"><path d="M30.432 37.794c0 .72-.493 1.954-1.477 3.703l-3.861 2a2 2 0 0 1-1.918-.042L2.912 31.787a2 2 0 0 1-.05-3.436l22.412-13.787a2 2 0 0 1 2.362.197l18.416 16.057" fill="#2A2C37" opacity=".3"></path><g transform="matrix(-1 0 0 1 46.371 0)"><path fill="#ED5947" d="M0.319570064 28.6547289L0.319570064 31.632784 3.46714268 33.4798305 3.10243923 28.1568713z"></path><g transform="translate(0 .346)"><mask id="d" fill="#fff"><use xlink:href="#c"></use></mask><path d="M14.831.189l-1.749 14.419v8.435c0 .677-.475 1.502-1.06 1.84L1.064 31.208C.478 31.547 0 31.274 0 30.597V20.65c0-.676.478-1.499 1.064-1.837l7.332-4.234L9.473 5.7c.182-1.493 1.215-3.12 2.432-3.822L14.83.188z" fill="#ED5947" mask="url(#d)"></path><path d="M17.934 2.013l-2.927 1.69c-1.217.703-2.252 2.329-2.433 3.823l-1.077 8.88-7.333 4.232c-.586.339-1.062 1.162-1.062 1.84l.001 9.943c0 .677.475.952 1.06.613l10.96-6.327c.586-.338 1.062-1.162 1.062-1.839v-8.434l1.749-14.42z" fill="#CF4433"></path><path fill="#CF4433" d="M19.083028 40.8495675L4.81895186 32.6143282 4.81895186 27.4004592 19.083028 35.6356985z"></path><path d="M11.66 20.097l-5.915 3.41c-.833.48-1.509 1.65-1.509 2.613v3.092l7.424-4.28v-4.835z" fill="#E35544"></path><path fill="#E35544" d="M18.5005185 37.4475581L4.23644237 29.2123188 11.6599223 20.0968715 25.9245332 28.3321108z"></path><path d="M29.664 8.72l-2.927 1.69c-1.218.703-2.252 2.328-2.433 3.823l-1.078 8.88-7.332 4.233c-.586.338-1.062 1.161-1.062 1.839v9.943c0 .677.476.952 1.062.613l10.959-6.326c.586-.34 1.062-1.162 1.062-1.84l-.001-8.434 1.75-14.42z" fill="#ED5947"></path><path d="M32.766 10.547l-6.44 14.39-3.099-1.826-3.172 1.832-6.973-4.024-1.422-.822-.164-3.692-3.1-1.825L9.473 5.7c.182-1.492 1.215-3.12 2.432-3.822L14.83.188l3.103 1.827 14.832 8.532z" fill="url(#e)"></path><path fill="#ED5947" d="M17.9882224 36.3566028L15.2048185 36.8544604 15.1524124 39.820216 18.2823381 41.6592412z"></path><g transform="translate(17.647 10.16)"><mask id="g" fill="#fff"><use xlink:href="#f"></use></mask><path d="M15.118.385l-2.926 1.69c-1.218.703-2.252 2.328-2.434 3.823l-1.077 8.879-7.333 4.233c-.586.339-1.06 1.162-1.06 1.84v9.942c0 .677.475.952 1.06.614l10.96-6.327c.585-.339 1.06-1.162 1.06-1.839v-8.434l1.75-14.42z" fill="#CF4433" mask="url(#g)"></path></g></g></g></g></g></svg> 