<?xml version="1.0" encoding="UTF-8"?> <svg xmlns="http://www.w3.org/2000/svg" xmlns:xlink="http://www.w3.org/1999/xlink" width="76" height="75"><defs><rect id="b" width="509" height="168" rx="4"></rect><filter x="-3.9%" y="-8.4%" width="107.9%" height="123.9%" id="a"><feMorphology radius=".55" operator="dilate" in="SourceAlpha" result="shadowSpreadOuter1"></feMorphology><feOffset dy="6" in="shadowSpreadOuter1" result="shadowOffsetOuter1"></feOffset><feGaussianBlur stdDeviation="5.5" in="shadowOffsetOuter1" result="shadowBlurOuter1"></feGaussianBlur><feComposite in="shadowBlurOuter1" in2="SourceAlpha" operator="out" result="shadowBlurOuter1"></feComposite><feColorMatrix values="0 0 0 0 0 0 0 0 0 0 0 0 0 0 0 0 0 0 0.1 0" in="shadowBlurOuter1"></feColorMatrix></filter><path d="M.168.334l-.113 1.38c-.007.014-.007.029-.007.044v.038c0 .075.007.142.022.217.068.3.3.6.704.831.982.563 2.585.555 3.582-.022.427-.247.674-.554.741-.869.008-.053.016-.105.016-.157V1.78c0-.053 0-.105-.016-.158L4.985.29C3.487.777 1.666.792.168.334" id="c"></path><path d="M.168 1.453c1.498.457 3.319.442 4.817-.045L4.888.254H4.88c0 .03 0 .067-.007.098-.06.292-.285.569-.674.794-.907.524-2.368.531-3.26.014C.565.951.354.681.295.404A.754.754 0 0 1 .272.217L.168 1.453z" id="e"></path></defs><g transform="translate(-388 -444)" fill="none" fill-rule="evenodd"><g transform="translate(1 397)"><use fill="#000" filter="url(#a)" xlink:href="#b"></use><use stroke="#DEE4EC" stroke-width="1.1" fill="#FFF" xlink:href="#b"></use><rect fill="#DEE4EC" opacity=".673" x="387" y="46" width="76" height="76" rx="4"></rect><text font-family="Lato-Regular, Lato" font-size="16" fill="#717A7B"><tspan x="37" y="94">Nulla id arcu sapien. Nunc sit amet ipsum </tspan><tspan x="37" y="118">maximus, scelerisque libero ac, ornare quam. </tspan><tspan x="37" y="142">Aliquam volutpat pulvinar mi in rhoncus. </tspan><tspan x="37" y="166">Suspendisse potenti.</tspan></text><text font-family="Lato-Black, Lato" font-size="24" font-weight="700" letter-spacing="-.75" fill="#0A1158"><tspan x="37" y="64">FMCG</tspan></text></g><g transform="translate(401.54 455.8)"><path d="M16.56 51.395c-6.031 0-10.959-10.866-12.214-13.35-1.255-2.484-9.118-14.287 0-18.612 6.078-2.884 16.676-1.32 31.792 4.69l-1.017 15.23c-8.352 8.027-14.539 12.042-18.56 12.042z" fill="#2A2C37" opacity=".3"></path><g transform="translate(9.53)"><g transform="translate(0 1.636)"><path d="M21.101 24.351c-.477.037-.816-.332-.944-.911-.267-1.208-.82-3.626-1.1-4.3-.38-.909-1.49-3.538-1.49-3.538s-1.013-2.181.8-3.843c.569-.52 1.171-.655 1.609-.382.79.494 2.135 1.625 2.58 3.761.641 3.09.381 6.782 0 7.7-.283.69-.748 1.464-1.455 1.513m-3.63-21.098V2.246a1.16 1.16 0 0 0-.012-.19c-.03-.277-.135-.485-.287-.6l-.102-.06-.013-.005-.01-.004c-.168-.066-.375-.043-.599.086l-8.556 1.59c-.51.293-.93 1.03-1.01 1.724-.01.08-.013.155-.013.23v1.008S-.121 18.545.002 30.177c.105 9.848 1.322 14.84 1.694 16.136.01.037.027.065.042.096l-.005.002s1.281 2.991 5.722 3.347l-.122-5.025a38.854 38.854 0 0 0 2.928-1.53c2.834-1.635 9.337-2.472 11.817-4.785.198-.181.352-.464.415-.76.372-1.724 1.593-8.124 1.694-18.091.122-11.773-6.715-16.314-6.715-16.314" fill="#CC3F88"></path><path fill="#FFF" d="M7.89066061 3.06251139L13.3672187 6.21984914 18.2600578 3.39518643 12.7834998 0.237289559z"></path><path d="M18.981 3.376l-.72.02L13.79.819 12.783.237c.223-.129.431-.151.598-.086l.01.003.014.007.102.06 5.475 3.155z" fill="#E6E6E6"></path><path d="M13.367 6.219l-1 1.665-5.485-3.097c.08-.694.5-1.431 1.01-1.724l5.475 3.156zm-1 1.665l-.023 1.296L6.87 6.025V5.018c0-.076.003-.151.013-.23l5.485 3.096z" fill="#CC3F95"></path><path fill="#BA3FCC" d="M23.3952745 21.6966189L23.2856874 24.831592 25.8632201 25.3252929 26.8226661 23.1044774 27.2889703 19.8962599 26.608524 15.0699558 25.8358233 12.5751725 23.777711 10.6277655 22.3530791 10.6277655 23.777711 15.289689z"></path><path d="M23.637 11.486a5.753 5.753 0 0 1 2.583 3.757c.641 3.093.378 6.785 0 7.703-.287.688-.75 1.461-1.458 1.514-.474.036-.813-.332-.941-.911-.27-1.208-.823-3.627-1.1-4.301-.384-.908-1.49-3.54-1.49-3.54s-1.017-2.179.8-3.844c.566-.516 1.171-.651 1.606-.378m-4.354-6.312V4.168c0-.75-.457-1.1-1.023-.774l-4.893 2.827c-.563.326-1.023 1.201-1.023 1.955v1.006s-6.986 12.52-6.865 24.152c.103 9.849 1.324 14.84 1.692 16.137.063.224.22.326.418.28 2.48-.553 5.317-1.754 8.15-3.39 2.833-1.635 7.52-5.524 10.003-7.834.194-.18.352-.468.415-.76.372-1.728 1.59-8.128 1.691-18.091.125-11.774-8.565-14.502-8.565-14.502" fill="#E867E7"></path></g><path d="M19.324 5.761c-.157.78-.757 1.528-1.79 2.128-2.428 1.409-6.339 1.424-8.729.045-.981-.562-1.558-1.281-1.723-2.023a2.117 2.117 0 0 1 0-.921c.105-.473.367-.93.787-1.35.27-.27.6-.516 1.004-.748.067-.038.142-.075.21-.105.157.127.337.247.531.36.36.202.75.366 1.177.501 1.498.458 3.319.442 4.818-.045.404-.135.786-.3 1.13-.494.218-.128.413-.263.585-.412.098.045.187.097.277.15.368.21.675.449.93.697l.097.097c.36.367.584.772.681 1.184v.007c.083.307.083.622.015.93" fill="#2DB5E6"></path><g transform="translate(10.623 3.314)"><mask id="d" fill="#fff"><use xlink:href="#c"></use></mask><path d="M.168.334l-.113 1.38c-.007.014-.007.029-.007.044v.038c0 .075.007.142.022.217.068.3.3.6.704.831.982.563 2.585.555 3.582-.022.427-.247.674-.554.741-.869.008-.053.016-.105.016-.157V1.78c0-.053 0-.105-.016-.158L4.985.29C3.487.777 1.666.792.168.334" fill="#0978A0" mask="url(#d)"></path></g><g transform="translate(6.15 .123)"><path d="M16.638 37.226c-.053.813-.113 1.649-.476 2.375-.63 1.252-1.72 2.327-2.81 3.17-2.162 1.664-4.403 3.271-6.902 4.369-1.128.495-2.343.888-3.572.798-.243-.019-.502-.067-.67-.236-.143-.145-.195-.352-.244-.55A56.004 56.004 0 0 1 .514 36.66c-.022-.487-.03-.974-.022-1.461.003-.285.011-.574.026-.858.033-.795.101-1.597.206-2.383.094-.694.21-1.384.36-2.065.585-2.702 1.124-5.448 2.244-7.993.982-2.24 2.765-5.425 5.355-5.909 1.064-.202 2.184-.213 3.215.15 1.045.371 1.78 1.244 2.327 2.189.385.663.652 1.382.914 2.098l.045.12a36.408 36.408 0 0 1 .6 1.738 22.24 22.24 0 0 1 .756 3.384c.585 3.807.349 7.73.098 11.556" fill="#FFC47A"></path><path d="M16.638 37.226c-.053.813-.113 1.649-.476 2.375-.63 1.252-1.72 2.327-2.81 3.17-2.162 1.664-4.403 3.271-6.902 4.369-1.128.495-2.343.888-3.572.798-.243-.019-.502-.067-.67-.236-.143-.145-.195-.352-.244-.55A56.004 56.004 0 0 1 .514 36.66c-.022-.487-.03-.974-.022-1.461l16.048-9.53c.585 3.808.349 7.731.098 11.557" fill="#FFC47A"></path><path d="M5.062 45.764c0 .072-.04.139-.102.175l-1.534.886a.062.062 0 0 1-.065 0 .064.064 0 0 1-.033-.058v-2.622c0-.073.04-.14.102-.175l1.533-.887a.062.062 0 0 1 .033-.008c.015 0 .028.005.032.008.01.006.034.024.034.057v2.624zm.06-2.842a.253.253 0 0 0-.251 0l-1.535.885a.393.393 0 0 0-.195.338v2.622a.25.25 0 0 0 .127.219.257.257 0 0 0 .253.001l1.533-.887a.389.389 0 0 0 .194-.336V43.14a.252.252 0 0 0-.126-.218z" fill="#FE5C17"></path><path d="M5.062 43.14v2.624c0 .072-.04.139-.102.175l-1.534.886a.062.062 0 0 1-.065 0 .064.064 0 0 1-.033-.058v-2.622a.2.2 0 0 1 .102-.175l1.533-.887a.062.062 0 0 1 .033-.008c.015 0 .028.005.032.008.01.006.034.024.034.057" fill="#1840A1"></path><path d="M4.75 45.326c-.144.233-.325.511-.496.696a.074.074 0 0 1-.015.014c-.005.006-.011.01-.017.013V43.6l.017.027c.03.05.08.12.118.091.013-.01.02-.033.024-.053a.71.71 0 0 1 .087.255l.016.079c.002.008.014.033.014.039l.014-.082.195.522.007-.012a.23.23 0 0 0 .021-.086v-.006l.001.002a111949.864 111949.864 0 0 0 .016.116l.006.05.001.017c.004.03.006.063.008.095l.002.048.003.048v.17l.087-.118a1.58 1.58 0 0 1-.17.561.103.103 0 0 1 .062-.036" fill="#FFF"></path><path d="M4.771 44.75a5.607 5.607 0 0 0-.022.054l-.27.672a2.783 2.783 0 0 1-.126.282.895.895 0 0 1-.13.186v-.94c.041-.241.118-.486.19-.73.028-.093.055-.185.07-.276.003.007.014.034.014.039l.015-.081.196.521.006-.012v-.001a.243.243 0 0 0 .022-.086v-.005.003l.008.057a.99.99 0 0 1 .008.058l.006.049.002.018.007.095.003.048.001.049" fill="#DBDBDB"></path><path d="M4.75 45.326c-.144.233-.325.511-.496.696a.074.074 0 0 1-.015.014c-.005.006-.011.01-.017.013v-.205l.042-.129c.054-.159.106-.32.173-.475.052-.125.113-.247.16-.374.03-.08.053-.16.075-.24.015-.054.03-.108.042-.161l.021-.086.001-.004a111949.864 111949.864 0 0 0 .016.116l.006.05.001.017c.004.031.006.063.008.095l.002.048.003.048v.17l.087-.118a1.58 1.58 0 0 1-.17.561.103.103 0 0 1 .062-.036" fill="#CCC"></path><path d="M3.69 45.939c.146.064.327.134.498.12.005 0 .01 0 .015-.002.005 0 .011-.003.016-.006v-2.45a.997.997 0 0 1-.016.046c-.03.085-.081.212-.118.227-.013.005-.02-.01-.025-.024a1.765 1.765 0 0 0-.086.354l-.015.097-.001.002c-.002.009-.013.048-.013.053l-.015-.065-.196.748-.006-.005a.093.093 0 0 1-.022-.062v-.005.003a1.477 1.477 0 0 0-.016.135l-.006.055-.002.02a3.33 3.33 0 0 0-.007.103l-.003.051-.001.051-.002.055v.116l-.086-.018c.017.163.078.294.17.365a.102.102 0 0 0-.062.036" fill="#C4C4C4"></path><path d="M3.67 45.385l.022.03.27.36a.605.605 0 0 0 .127.136.187.187 0 0 0 .13.035v-.94c-.041-.193-.118-.35-.19-.51a.944.944 0 0 1-.07-.195l-.001.002c-.002.01-.014.048-.014.053l-.014-.065-.196.748-.006-.005a.096.096 0 0 1-.022-.062v-.005.003l-.009.067a1.316 1.316 0 0 0-.007.068l-.006.055a16375.027 16375.027 0 0 0-.009.123l-.003.051c0 .017 0 .034-.002.051" fill="#A8A8A8"></path><path d="M3.69 45.939c.146.064.327.134.498.12.005 0 .01 0 .015-.002.005 0 .011-.003.016-.006v-.206a2.744 2.744 0 0 0-.042-.08c-.052-.098-.106-.197-.171-.277-.053-.063-.114-.115-.16-.188a.981.981 0 0 1-.076-.154 2.444 2.444 0 0 1-.042-.112 1.55 1.55 0 0 1-.022-.062v-.002a1.477 1.477 0 0 0-.016.135l-.006.055-.002.02-.007.103-.003.051-.001.051-.002.055v.116l-.086-.018c.017.163.078.294.17.365a.102.102 0 0 0-.062.036" fill="#999"></path><path d="M4.223 43.598l-.024.067v2.644l.04-.023v-2.66c-.007-.01-.012-.02-.016-.028" fill="#E6E6E6"></path><path d="M7.443 44.457c0 .071-.04.139-.102.175l-1.533.885a.06.06 0 0 1-.066 0 .063.063 0 0 1-.033-.057v-2.622c0-.074.04-.14.102-.175l1.533-.887a.062.062 0 0 1 .034-.008c.014 0 .027.005.032.008.01.006.033.024.033.057v2.624zm.06-2.842a.253.253 0 0 0-.251 0l-1.535.885a.393.393 0 0 0-.194.338v2.622a.25.25 0 0 0 .126.219.257.257 0 0 0 .253.001l1.533-.887a.388.388 0 0 0 .194-.336v-2.624a.252.252 0 0 0-.125-.218z" fill="#FE5C17"></path><path d="M7.443 41.833v2.624c0 .072-.04.139-.102.175l-1.533.885a.06.06 0 0 1-.066 0 .063.063 0 0 1-.033-.057v-2.622c0-.073.04-.14.102-.175l1.533-.888a.067.067 0 0 1 .034-.007c.014 0 .027.005.032.007.01.007.033.024.033.058" fill="#1840A1"></path><path d="M6.976 44.401a1.065 1.065 0 0 1-.447.374c-.452.184-.716-.243-.513-.792l.54-1.45.02-.057.56.968c.141.246.057.649-.16.957" fill="#FFF"></path><path d="M9.82 43.096c0 .072-.04.139-.101.175l-1.534.885a.06.06 0 0 1-.065 0 .063.063 0 0 1-.034-.057v-2.622a.2.2 0 0 1 .103-.175l1.533-.887a.06.06 0 0 1 .033-.008c.014 0 .027.005.032.008.01.006.033.024.033.057v2.624zm.06-2.842a.253.253 0 0 0-.25 0l-1.536.885a.393.393 0 0 0-.194.338v2.622c0 .093.048.174.126.218a.24.24 0 0 0 .126.036.259.259 0 0 0 .127-.034l1.533-.887a.389.389 0 0 0 .194-.336v-2.624a.252.252 0 0 0-.125-.218z" fill="#FE5C17"></path><path d="M9.82 40.472v2.624c0 .072-.04.138-.101.175l-1.534.885a.06.06 0 0 1-.065 0 .063.063 0 0 1-.034-.057v-2.622c0-.073.04-.14.103-.175l1.533-.887a.065.065 0 0 1 .033-.008c.014 0 .027.005.032.008.01.006.033.024.033.057" fill="#1840A1"></path><path d="M9.805 41.722a.247.247 0 0 1-.037.094c-.016.028-.037.052-.057.076a.676.676 0 0 0-.176.353.996.996 0 0 0-.026.22c.002.067.025.125.07.135.017.003.037 0 .05.01.029.029.003.12-.038.165a.19.19 0 0 1-.13.06c-.02.002-.044.003-.058-.014-.032-.038 0-.145-.024-.194-.017-.033-.054-.031-.09-.02l-.003.002c-.119.042-.246.171-.33.335-.048.094-.086.205-.152.27a.31.31 0 0 1-.109.068l-.343.151c-.035.015-.078.025-.084-.016-.004-.026.01-.06.024-.09a.401.401 0 0 1 .168-.182.356.356 0 0 1-.15-.003c-.043-.01-.064-.034-.086-.078-.012-.022-.004-.029-.035-.018-.019.008-.038.026-.057.026-.02 0-.032-.027-.03-.06a.263.263 0 0 1 .031-.098.101.101 0 0 1 .021-.029c.008-.006.016-.006.023-.008.086-.018.167-.152.244-.234.085-.091.175-.16.265-.221.091-.062.182-.12.272-.175.062-.037.124-.066.186-.107a.565.565 0 0 0 .065-.049.173.173 0 0 0 .042-.048c.01-.02.015-.048.006-.059a1.579 1.579 0 0 1-.213.1c-.034.01-.068.02-.095.01-.01-.004-.018-.009-.022-.02-.02-.044.024-.108.059-.142a.306.306 0 0 1 .183-.079l.151-.022c-.016-.043-.052-.057-.086-.07-.035-.014-.07-.03-.085-.074a.175.175 0 0 1 .043-.163c.034-.03.066-.017.093-.003.028.015.058.026.079.054.02.027.036.054.061.073.011.008.024.017.04.017.03 0 .064-.03.097-.048a.21.21 0 0 1 .156-.015c.023.007.046.014.063.033a.108.108 0 0 1 .023.088" fill="#FFF"></path><path d="M3.095 35.22a.74.74 0 0 1-.739-.738v-2c0-.407.218-.786.57-.99l11.703-6.82a.74.74 0 0 1 1.11.637v2c0 .407-.217.786-.568.992L3.467 35.12a.737.737 0 0 1-.372.1m7.043-1.506a.319.319 0 0 1-.318-.317v-.862c0-.174.094-.337.246-.426l5.036-2.934a.317.317 0 0 1 .477.275v.86a.494.494 0 0 1-.245.426l-5.036 2.935a.316.316 0 0 1-.16.043m-7.452-3.818a.318.318 0 0 1-.317-.318v-.86c0-.176.093-.34.245-.427l5.036-2.935a.318.318 0 0 1 .477.275v.86a.493.493 0 0 1-.245.427l-5.036 2.934a.317.317 0 0 1-.16.044m2.336 9.334a.318.318 0 0 1-.318-.318v-.86c0-.176.094-.339.245-.427l9.51-5.68a.317.317 0 0 1 .478.274v.86a.495.495 0 0 1-.246.427l-9.51 5.68a.317.317 0 0 1-.16.044" fill="#01052F"></path><path d="M9.36 2.26c0 .022 0 .044-.007.067 0 .03 0 .067-.008.098-.06.291-.284.569-.673.794-.907.524-2.368.532-3.26.015-.375-.21-.584-.48-.644-.757a.754.754 0 0 1-.022-.187v-.008c0-.053.007-.097.014-.15a.686.686 0 0 1 .068-.172c.052-.112.127-.225.232-.33.098-.104.225-.195.375-.285.906-.524 2.367-.531 3.266-.015.15.09.285.188.382.3a1.015 1.015 0 0 1 .255.442.845.845 0 0 1 .023.188" fill="#2DB5E6"></path><path d="M11.174 2.574c-.172.15-.367.285-.584.412-.345.195-.727.36-1.132.495L9.36 2.327h-.008c.008-.022.008-.045.008-.067a.837.837 0 0 0-.075-.338c.681.143 1.318.36 1.888.652M4.828 1.96a.686.686 0 0 0-.068.172c-.007.053-.014.097-.014.15v.008L4.64 3.526a6.156 6.156 0 0 1-1.177-.502 4.104 4.104 0 0 1-.532-.36 7.316 7.316 0 0 1 1.896-.704" fill="#2DB5E6"></path></g><g transform="translate(10.623 2.195)"><mask id="f" fill="#fff"><use xlink:href="#e"></use></mask><path d="M.168 1.453c1.498.457 3.319.442 4.817-.045L4.888.254H4.88c0 .03 0 .067-.007.098-.06.292-.285.569-.674.794-.907.524-2.368.531-3.26.014C.565.951.354.681.295.404A.754.754 0 0 1 .272.217L.168 1.453z" fill="#0978A0" mask="url(#f)"></path></g></g></g></g></svg> 