<?xml version="1.0" encoding="UTF-8"?> <svg xmlns="http://www.w3.org/2000/svg" xmlns:xlink="http://www.w3.org/1999/xlink" width="41" height="47"><defs><path d="M34.8.104h-.027l-.021.002-.015.002-.036.004a.792.792 0 0 0-.086.018c-.012.003-.025.009-.037.013l-.034.012c-.015.005-.028.008-.043.015-.045.018-.09.04-.136.067L.969 19.518c-.063.036-.124.08-.183.127-.02.015-.037.033-.056.05-.029.024-.058.048-.086.075-.013.012-.024.026-.037.039l-.032.035c-.012.013-.025.025-.037.04a2.226 2.226 0 0 0-.08.095l-.025.035-.014.019-.025.034a1.764 1.764 0 0 0-.106.166l-.004.007-.004.006a2.358 2.358 0 0 0-.08.15v.001l-.034.077-.002.003-.002.005a2.091 2.091 0 0 0-.068.179c-.006.015-.01.03-.015.046l-.006.02-.01.033c-.01.037-.02.074-.028.111l-.01.068-.007.035-.006.032a1.524 1.524 0 0 0-.012.19L.066 44.22c0 .403.215.775.563.977l.727.423-.067-23.674c0-.072.007-.147.018-.222.001-.012.004-.023.006-.035a1.83 1.83 0 0 1 .049-.212l.006-.02c.023-.077.051-.154.085-.23l.001-.003c.034-.078.073-.154.115-.228l.004-.006c.041-.072.087-.141.136-.208l.013-.017c.044-.06.093-.117.142-.172l.032-.034c.04-.04.08-.078.122-.114.02-.017.038-.035.057-.05.06-.047.12-.09.183-.127L35.654.987c.06-.036.12-.062.179-.083l.034-.012a.794.794 0 0 1 .16-.035l.014-.001a.569.569 0 0 1 .156.008l.008.001c.05.011.097.029.14.054l-1.289-.75-.005-.003a.495.495 0 0 0-.1-.042l-.035-.008-.008-.001-.011-.003a.653.653 0 0 0-.093-.008h-.005z" id="a"></path><path d="M55.904.648L21.86 20.303c-.359.207-.938.206-1.295-.002L.422 8.595C.401 8.583.385 8.57.367 8.556.344 8.54.32 8.524.3 8.507a.552.552 0 0 1-.072-.08l-.01-.014a.4.4 0 0 1-.044-.085.318.318 0 0 1-.019-.104l.005 1.49v.009a.31.31 0 0 0 .006.052c.002.011.006.022.01.034l.003.01a.364.364 0 0 0 .026.06v-.001l.017.025.01.015.01.014c.016.021.035.041.057.061l.006.005c.019.017.043.033.066.049.015.01.027.022.044.032l.011.007L20.57 21.792c.356.207.935.21 1.294.002L55.908 2.139c.18-.104.269-.24.269-.376l-.004-1.49c0 .135-.09.271-.27.375" id="c"></path><path d="M34.451.385L1.055 19.666c-.537.31-.97 1.06-.969 1.678l.067 23.673 35.34-20.403L35.426.94c-.001-.437-.22-.69-.539-.69a.886.886 0 0 0-.436.134" id="e"></path><linearGradient x1="37.275%" y1="6.627%" x2="59.444%" y2="83.167%" id="f"><stop stop-color="#FFF" offset="0%"></stop><stop stop-color="#D3EBFF" offset="100%"></stop></linearGradient><path id="h" d="M0.205052714 18.7478914L0.264584147 39.8117962 32.3646544 21.27918 32.3048223 0.215275283z"></path><linearGradient x1="35.496%" y1="108.828%" x2="65.636%" y2="-13.419%" id="i"><stop stop-color="#176EAE" offset="0%"></stop><stop stop-color="#629CDF" offset="100%"></stop></linearGradient></defs><g transform="translate(-1.058 -1)" fill="none" fill-rule="evenodd"><g transform="translate(0 .197)"><g transform="translate(1.203 24.955)"><path d="M34.47.219c.359-.207.935-.207 1.292 0l20.143 11.706c.357.207.358.542-.001.75L21.86 32.33c-.36.207-.938.205-1.295-.002L.422 20.622c-.357-.207-.355-.54.004-.748L34.47.219z" fill="#D3ECFF"></path><path d="M13.947 26.077c-.085.05-.086.13-.001.179l1.406.817a.344.344 0 0 0 .308 0l1.416-.817c.085-.049.085-.13.001-.179l-1.406-.817a.344.344 0 0 0-.309 0l-1.415.817zm9.832-2.794c-.178.103-.18.271-.002.374l4.225 2.456a.715.715 0 0 0 .646 0l8.984-5.188c.181-.104.18-.27.003-.374l-4.226-2.455a.709.709 0 0 0-.646 0l-8.984 5.187zm-5.76.443c-.088.051-.089.132-.004.18l1.406.818a.344.344 0 0 0 .311-.002l1.413-.815c.085-.05.085-.13.001-.179l-1.406-.817a.344.344 0 0 0-.309 0l-1.413.815zm-8.115.002c-.085.049-.088.128-.001.179l1.403.815c.088.05.224.049.309 0l3.114-1.798c.088-.05.088-.128.001-.179l-1.403-.815a.333.333 0 0 0-.309 0l-3.114 1.798zm10.228-1.76c.087.051.227.051.311.002l1.416-.817c.085-.049.085-.13-.002-.18l-1.403-.816a.337.337 0 0 0-.309 0l-1.416.817c-.084.05-.088.128 0 .179l1.403.815zm-1.33-1.395c.084-.049.087-.128 0-.178l-1.403-.816a.336.336 0 0 0-.308 0l-1.416.817c-.085.05-.088.128-.001.179l1.403.816c.087.05.224.048.309 0l1.415-.818zm-9.503.625a.34.34 0 0 0 .308 0l1.416-.817c.084-.049.085-.13 0-.179l-1.406-.817a.343.343 0 0 0-.308 0l-1.416.817c-.085.05-.085.13 0 .18l1.406.816zm9.813-.982c.087.05.224.049.308 0l1.416-.818c.084-.048.088-.128 0-.178l-1.403-.816a.34.34 0 0 0-.308 0l-1.416.818c-.084.048-.088.128 0 .178l1.403.816zm-7.468-.194l1.413-.816c.085-.048.085-.13.001-.178l-1.406-.818a.342.342 0 0 0-.309 0l-1.412.816c-.088.05-.088.132-.005.18l1.407.818a.345.345 0 0 0 .311-.002zm14.284-1.218c.088-.05.088-.132 0-.182l-1.403-.816a.338.338 0 0 0-.311.002l-1.413.815c-.087.05-.088.128 0 .18l1.403.815a.34.34 0 0 0 .311.001l1.413-.815zm-15.645-.337c.084-.05.085-.13 0-.179l-1.406-.817a.344.344 0 0 0-.308 0l-1.413.815c-.087.05-.088.132-.004.18l1.407.818a.344.344 0 0 0 .31-.002l1.414-.815zm10.863.575c.087.05.224.048.309 0l1.416-.818c.084-.049.087-.128 0-.179l-1.403-.815a.336.336 0 0 0-.309 0l-1.415.817c-.085.049-.088.128-.001.179l1.403.816zm2.035-1.175a.34.34 0 0 0 .311-.002l1.413-.816c.087-.05.088-.128.001-.178l-1.404-.816a.333.333 0 0 0-.308 0l-1.413.816c-.087.05-.09.13-.004.18l1.404.816zM30 16.453c.084-.05.085-.13-.002-.18l-1.404-.816a.337.337 0 0 0-.308 0l-1.416.817c-.084.05-.088.128 0 .179l1.403.816c.087.05.227.05.311.001L30 16.453zm-4.782.237c.087.05.224.049.309 0l1.412-.815c.088-.05.092-.13.004-.18l-1.403-.816a.34.34 0 0 0-.312.001l-1.412.816c-.085.049-.088.128-.001.179l1.403.815zm-8.829-1.749c.085-.049.085-.13.001-.179l-1.406-.817a.341.341 0 0 0-.309 0l-1.415.817c-.085.05-.086.13-.001.18l1.406.817a.344.344 0 0 0 .309 0l1.415-.818zm10.864.575c.087.05.223.049.308 0l1.416-.818c.085-.049.088-.128 0-.178l-1.403-.816a.338.338 0 0 0-.308 0l-1.416.817c-.084.05-.088.128 0 .179l1.403.816zm6.816-1.412c.087-.051.085-.13-.002-.18l-1.404-.817a.332.332 0 0 0-.308 0l-1.413.816c-.087.05-.09.13-.004.18l1.404.816c.087.05.226.05.314 0l1.413-.815zm2.654-1.177c-.087.051-.085.13 0 .179l1.406.817c.084.049.22.05.308 0l1.4-.808c.089-.051.089-.132.005-.181l-1.406-.817a.344.344 0 0 0-.312.001l-1.401.81zm-2.344.816a.34.34 0 0 0 .312.001l1.412-.815c.088-.05.088-.132.001-.182l-1.403-.816a.338.338 0 0 0-.311.002l-1.413.816c-.088.05-.088.128-.001.178l1.403.816zm-7.212-2.149a.343.343 0 0 0-.308 0l-1.416.818c-.084.048-.085.13 0 .178l1.406.817a.344.344 0 0 0 .308 0l1.416-.817c.084-.049.085-.13 0-.178l-1.406-.818zm9.247.974c.087.05.226.05.311.002l1.366-.789.041-.033c.085-.05.085-.13.001-.18l-1.398-.811a.336.336 0 0 0-.308 0l-1.416.817c-.084.049-.088.128 0 .179l1.403.815zm-13.921-1.151c.087-.05.088-.131.004-.18l-1.407-.818a.344.344 0 0 0-.311.002l-1.413.816c-.088.05-.085.13-.001.178l1.407.818c.084.049.22.05.308 0l1.413-.816zm12.588-.242c.084-.05.087-.128 0-.179l-1.403-.816a.337.337 0 0 0-.309 0l-1.412.816c-.088.05-.091.13-.004.18l1.403.816a.34.34 0 0 0 .312-.002l1.413-.815zm5.086-.602c.084-.049.085-.13 0-.179l-1.397-.812a.338.338 0 0 0-.309 0l-1.415.817c-.085.05-.088.128-.001.179l1.398.812a.344.344 0 0 0 .308 0l1.416-.817zm.949-.165c-.087.05-.085.13-.001.179l.417.242a.34.34 0 0 0 .312.002l1.69-.976c.084-.049.085-.13-.002-.18l-.417-.243a.344.344 0 0 0-.309 0l-1.69.976zM37.115 10c.088-.05.088-.128.001-.179l-1.404-.815a.332.332 0 0 0-.308 0l-1.413.815c-.088.05-.088.128 0 .179l1.403.816c.087.05.22.05.308 0L37.115 10zm1.965-.775c-.084.049-.088.128 0 .178l1.397.813a.341.341 0 0 0 .308 0l4.034-2.33c.085-.048.085-.13.002-.178l-1.398-.812a.338.338 0 0 0-.309 0L39.08 9.225zm.072-.402c.085-.048.088-.128.001-.178L37.75 7.83a.337.337 0 0 0-.309 0l-1.415.818c-.085.048-.088.128-.001.178l1.403.816c.087.05.224.049.309 0l1.415-.818zm-4.163-.116c.085.05.221.05.309 0l1.413-.815c.087-.05.085-.13 0-.179l-1.406-.817a.338.338 0 0 0-.308 0l-1.413.815c-.088.05-.085.13 0 .179l1.405.817zm7.815-1.991c.084-.05.088-.129 0-.18l-1.403-.815a.336.336 0 0 0-.308 0L38.06 7.472c-.085.049-.088.128 0 .179l1.403.815c.087.051.223.05.308 0l3.033-1.75zM31.992 8.274l1.416-.817c.085-.05.085-.13 0-.179l-1.405-.817a.344.344 0 0 0-.309 0l-1.416.817c-.084.05-.085.13 0 .179l1.406.817a.344.344 0 0 0 .308 0zm-1.359-1.557c.085-.049.086-.13.002-.179l-1.407-.817a.344.344 0 0 0-.308 0l-1.416.817c-.084.05-.085.13-.001.179l1.407.817a.341.341 0 0 0 .308 0l1.415-.817zm8.128-2.35c.085-.05.085-.13.001-.18l-1.406-.817a.342.342 0 0 0-.309 0L34.35 4.927c-.087.05-.085.13 0 .18l1.406.816c.084.05.22.05.308 0l2.697-1.557zm-22.78 20.536c-.085.049-.085.13-.001.178l1.406.817a.342.342 0 0 0 .309 0l1.415-.817c.085-.049.086-.13.002-.178l-1.407-.818a.342.342 0 0 0-.308 0l-1.416.818zm-4.056 0c-.084.049-.088.128 0 .178l1.403.816c.087.05.226.05.311.001l4.15-2.396c.085-.049.086-.13-.001-.18l-1.404-.816a.338.338 0 0 0-.308 0l-4.15 2.397zm8.128-2.352c-.087.051-.085.13 0 .18l1.405.817c.085.049.221.05.309 0l1.827-1.055c.085-.05.085-.13.001-.18l-1.406-.816a.344.344 0 0 0-.309 0l-1.827 1.054zm-12.173 0c-.085.05-.085.13-.001.18l1.406.817a.341.341 0 0 0 .309 0l2.697-1.558c.084-.048.085-.13 0-.178l-1.406-.817a.342.342 0 0 0-.308 0L7.88 22.55zm11.944-.224c.085-.048.086-.13-.002-.18l-1.403-.815a.337.337 0 0 0-.309 0l-1.415.817c-.085.049-.088.128-.001.178l1.404.816c.086.05.226.05.31.002l1.416-.818zm-4.781.238c.087.05.223.049.308 0l1.413-.816c.088-.05.09-.13.004-.18l-1.404-.816a.338.338 0 0 0-.311.002l-1.413.816c-.084.049-.088.128 0 .178l1.403.816zm-9.185-1.188c-.084.049-.085.13 0 .179l1.406.817a.343.343 0 0 0 .308 0l1.416-.817c.085-.049.085-.13.001-.179l-1.407-.817a.341.341 0 0 0-.308 0l-1.416.817zm16.644-.24c-.088.051-.088.132-.004.181l1.407.818a.344.344 0 0 0 .31-.002l11.151-6.438c.085-.049.085-.13.001-.179l-1.406-.817a.344.344 0 0 0-.309 0l-11.15 6.438zm-9.9.496a.343.343 0 0 0 .31-.002l1.413-.815c.085-.049.085-.13.001-.179l-1.406-.817a.342.342 0 0 0-.309 0l-1.413.815c-.087.05-.087.132-.003.18l1.406.818zm-8.765-1.43c-.084.048-.085.13 0 .178l1.406.817a.34.34 0 0 0 .308 0l2.697-1.557c.085-.049.085-.13.001-.179l-1.406-.817a.342.342 0 0 0-.309 0l-2.697 1.557zm20.056-.225c.088-.05.086-.13-.001-.18l-1.404-.816a.332.332 0 0 0-.308 0l-1.413.816c-.088.05-.091.13-.004.18l1.403.816c.087.05.227.05.315 0l1.412-.816zm-8.936-1.335a.344.344 0 0 0-.311.002l-1.413.816c-.087.05-.085.13 0 .179l1.406.817c.084.049.22.05.308 0l1.413-.816c.087-.05.088-.131.004-.18l-1.407-.818zm1.716.64a.34.34 0 0 0 .308 0l1.416-.818c.085-.049.085-.13.001-.179l-1.406-.817a.343.343 0 0 0-.308 0l-1.416.817c-.085.05-.085.13-.001.18l1.406.816zm-4.708-1.432c-.088.051-.085.13-.001.18l1.406.817c.084.048.221.05.309 0l1.412-.816c.088-.05.086-.13.002-.179l-1.407-.817a.338.338 0 0 0-.308 0l-1.413.815zm16-.224c.085-.049.085-.13-.001-.18l-1.404-.816a.338.338 0 0 0-.308 0l-1.416.818c-.085.049-.088.128-.001.178l1.403.816c.087.05.227.05.311.002l1.416-.818zm-8.939-1.333a.344.344 0 0 0-.308 0l-1.416.818c-.085.049-.085.13 0 .178l1.406.818a.344.344 0 0 0 .308 0l1.416-.818c.084-.049.085-.13 0-.178l-1.406-.818zm-6.709.998c.088-.05.088-.131.004-.18l-1.406-.818a.343.343 0 0 0-.312.002l-1.412.816c-.088.05-.086.13-.002.178l1.407.818c.084.048.221.05.308 0l1.413-.816zm3.396.38l1.413-.815c.088-.05.088-.131.004-.18l-1.407-.817a.345.345 0 0 0-.31.001l-1.414.816c-.084.049-.085.13 0 .178l1.406.818a.343.343 0 0 0 .308 0zm5.348-2.552a.344.344 0 0 0-.309 0l-1.415.817c-.085.05-.086.13-.001.179l1.406.817a.342.342 0 0 0 .309 0l1.415-.817c.085-.05.085-.13.001-.18l-1.406-.816zm-6.706.996c.084-.05.085-.13 0-.18l-1.406-.816a.344.344 0 0 0-.308 0l-1.416.817c-.085.049-.085.13 0 .178l1.406.818a.342.342 0 0 0 .308 0l1.416-.817zm1.679-.614c-.085.05-.085.13-.001.179l1.406.817a.342.342 0 0 0 .309 0l1.416-.817c.084-.049.085-.13 0-.179l-1.406-.817a.342.342 0 0 0-.308 0l-1.416.817zm16-.224c.085-.049.085-.13-.002-.18l-1.403-.816a.337.337 0 0 0-.309 0l-1.415.818c-.085.048-.088.128-.001.178l1.403.816c.087.05.227.05.312.002l1.415-.818zm-8.939-1.333a.341.341 0 0 0-.308 0l-1.413.816c-.087.05-.088.131-.004.18l1.407.818a.344.344 0 0 0 .31-.002l1.414-.816c.084-.049.085-.13 0-.179l-1.406-.817zm11.18.396c-.089.05-.086.13-.002.179l1.406.817c.085.049.221.05.309 0l1.827-1.055c.085-.049.085-.13.001-.178l-1.406-.818a.341.341 0 0 0-.308 0l-1.828 1.055zm-16.207-.013c-.084.048-.085.13 0 .178l1.406.818a.342.342 0 0 0 .308 0l1.416-.818c.085-.048.085-.13.001-.178l-1.407-.818a.343.343 0 0 0-.308 0l-1.416.818zm7.065-1.56a.344.344 0 0 0-.312.002l-1.413.816c-.087.05-.085.13 0 .179l1.406.817c.084.05.22.05.309 0l1.412-.815c.088-.051.088-.132.004-.181l-1.406-.817zm-6.71.998c.085-.048.086-.13.002-.178l-1.407-.818a.344.344 0 0 0-.308 0l-1.416.818c-.085.048-.085.13 0 .178l1.405.818a.34.34 0 0 0 .309 0l1.416-.818zm10.864.575c.087.05.224.049.309 0l1.415-.817c.085-.049.088-.128.001-.179l-1.403-.816a.337.337 0 0 0-.309 0l-1.415.818c-.085.049-.088.128-.001.179l1.403.815zm-9.184-1.188c-.085.049-.085.13 0 .179l1.405.817a.342.342 0 0 0 .309 0l1.416-.817c.084-.05.085-.13 0-.179l-1.406-.817a.341.341 0 0 0-.308 0l-1.416.817zm.355-.561c.085-.05.085-.13.001-.179l-1.406-.817a.342.342 0 0 0-.309 0l-1.413.816c-.087.05-.088.13-.003.18l1.406.817a.344.344 0 0 0 .311-.002l1.413-.815zm12.588-.243c.084-.049.088-.128 0-.179l-1.403-.815a.338.338 0 0 0-.308 0l-1.416.817c-.084.049-.088.128 0 .179l1.403.816c.087.05.224.049.308 0l1.416-.818zm-10.906-.372c-.087.05-.085.13 0 .178l1.406.818c.084.049.22.05.308 0l1.413-.816c.088-.05.085-.13.001-.179l-1.406-.817a.337.337 0 0 0-.309 0l-1.413.816zm16.644-.223c-.088.05-.085.13-.001.179l1.38.802c.084.049.22.05.308 0l1.69-.976c.085-.049.086-.13.002-.178l-1.38-.803a.344.344 0 0 0-.31 0l-1.69.976zm-9.582-1.334a.342.342 0 0 0-.309 0l-1.415.817c-.085.049-.085.13-.002.178l1.407.818a.344.344 0 0 0 .308 0l1.416-.818c.085-.049.085-.13.001-.178l-1.406-.817zm-5.027.382c-.088.05-.085.13-.001.179l1.406.817c.085.049.221.05.309 0l1.412-.815c.088-.051.086-.13.001-.18l-1.406-.817a.338.338 0 0 0-.308 0l-1.413.816zm17.901.163c-.088.051-.085.13-.001.18l.42.244c.084.049.221.05.309 0l1.69-.976c.084-.05.085-.13 0-.179l-.42-.244a.343.343 0 0 0-.308 0l-1.69.975zm-11.158.093a.344.344 0 0 0 .308 0l1.416-.817c.084-.049.085-.13 0-.179l-1.406-.817a.344.344 0 0 0-.308 0l-1.416.817c-.085.049-.085.13-.001.179l1.407.817zm-6.388-.817c.085-.049.085-.13.001-.179l-1.406-.817a.342.342 0 0 0-.309 0l-1.415.817c-.085.049-.085.13-.002.179l1.407.817a.344.344 0 0 0 .308 0l1.416-.817zm1.68-.614c-.085.05-.086.13-.001.179l1.406.818a.343.343 0 0 0 .308 0l1.416-.818c.085-.049.085-.13 0-.179l-1.406-.817a.343.343 0 0 0-.308 0l-1.416.817zm17.238-.566c-.084.049-.085.13 0 .179l1.38.802a.341.341 0 0 0 .308 0l1.69-.976c.085-.049.085-.13.001-.178l-1.38-.803a.344.344 0 0 0-.309 0l-1.69.976zm-10.496.823a.342.342 0 0 0 .309 0l1.415-.818c.085-.049.085-.13.001-.178l-1.406-.818a.341.341 0 0 0-.309 0l-1.415.818c-.085.049-.086.13-.001.178l1.406.818zm-6.387-.818c.084-.049.085-.13 0-.178L25.16 8.07a.344.344 0 0 0-.308 0l-1.416.818c-.085.049-.085.13-.001.178l1.407.818a.342.342 0 0 0 .308 0l1.416-.818zm3.393.383l1.415-.817c.085-.05.086-.13.002-.18l-1.407-.816a.342.342 0 0 0-.308 0l-1.416.817c-.085.049-.085.13-.001.179l1.406.817a.343.343 0 0 0 .309 0zm-1.359-1.557c.085-.049.085-.13.001-.179l-1.406-.817a.342.342 0 0 0-.309 0l-1.415.817c-.085.049-.086.13-.001.179l1.406.817a.341.341 0 0 0 .308 0l1.416-.817zm8.744-2.173a.342.342 0 0 0-.309 0l-1.415.818c-.085.049-.086.13-.001.179l1.406.817a.344.344 0 0 0 .308 0l1.416-.817c.085-.05.085-.13.001-.18l-1.406-.817zM34.03 7.098l1.413-.816c.087-.05.085-.13 0-.179l-1.406-.817a.338.338 0 0 0-.309 0l-1.412.816c-.088.05-.088.131-.004.18l1.407.817a.343.343 0 0 0 .31-.001zm6.753-1.557c.084-.05.085-.13 0-.179l-1.406-.817a.344.344 0 0 0-.308 0l-1.416.817c-.084.049-.085.13 0 .179l1.406.817a.342.342 0 0 0 .308 0l1.416-.817zm-8.115.001c.088-.05.085-.13.001-.178l-1.406-.817a.336.336 0 0 0-.309 0l-1.413.815c-.087.05-.085.13 0 .179l1.406.817c.084.049.22.05.308 0l1.413-.816zm2.038-1.176c.084-.049.085-.13 0-.178L33.3 3.37a.341.341 0 0 0-.308 0l-1.416.818c-.085.048-.085.13 0 .178l1.406.817a.341.341 0 0 0 .308 0l1.416-.817zm.618-.357a.344.344 0 0 1-.308 0l-1.407-.818c-.084-.049-.083-.13.002-.178l1.415-.818a.344.344 0 0 1 .309 0l1.406.818c.084.049.084.13 0 .178l-1.417.818z" fill="#9ACDFF"></path><path d="M31.379 22.125c.39.07.863.062 1.404-.024a.13.13 0 0 0 .045-.015c.024-.015.036-.036.026-.057-.014-.03-.07-.049-.123-.04-.497.079-.944.087-1.293.025a4.229 4.229 0 0 1-1.1-.334.158.158 0 0 0-.133.004.09.09 0 0 0-.009.006c-.034.025-.026.062.018.081.399.179.703.271 1.165.354" fill="#D3ECFF"></path><path d="M29.824 22.35c.33.166.642.323.69.564.006.032.056.055.111.051a.135.135 0 0 0 .06-.017c.02-.012.032-.029.028-.047-.056-.286-.413-.465-.757-.638-.394-.198-.734-.37-.637-.674a.522.522 0 0 1 .251-.275c.136-.079.315-.132.51-.146.35-.025.626.056.918.142.146.043.298.087.46.118.31.057.607.064.885.02a.12.12 0 0 0 .044-.015c.025-.014.036-.035.026-.056-.014-.03-.07-.05-.123-.04a2.273 2.273 0 0 1-.77-.02 4.281 4.281 0 0 1-.43-.111c-.307-.09-.623-.183-1.034-.153-.24.017-.46.082-.627.179-.155.09-.266.206-.307.336-.119.37.299.58.702.782" fill="#D3ECFF"></path><path d="M28.73 21.968c.147.246.46.401.76.55.19.094.369.183.503.29.033.026.095.032.14.013a.082.082 0 0 0 .013-.006c.034-.02.039-.051.01-.075a3.012 3.012 0 0 0-.535-.31c-.294-.146-.572-.284-.7-.5-.165-.277-.004-.613.383-.837.044-.025.09-.05.14-.071.476-.214 1.081-.228 1.66-.038.451.147.623.165.837.153a.136.136 0 0 0 .06-.017c.02-.012.032-.03.029-.047-.006-.032-.055-.056-.11-.052-.152.01-.277.005-.716-.139-.654-.213-1.34-.196-1.883.048a1.773 1.773 0 0 0-.157.08c-.44.254-.623.64-.433.958m3.05.73a.624.624 0 0 1 .053.218c.003.032.051.056.106.054a.142.142 0 0 0 .065-.017c.02-.011.031-.027.03-.045a1.042 1.042 0 0 0-.032-.172c.142-.001.284-.013.422-.035a.13.13 0 0 0 .044-.015c.025-.015.036-.036.026-.057-.015-.031-.07-.05-.124-.04-.16.026-.324.035-.49.028a.15.15 0 0 0-.078.017.087.087 0 0 0-.01.007c-.02.017-.025.038-.012.057" fill="#D3ECFF"></path><path d="M30.954 22.935a.26.26 0 0 1 0 .022c0 .032.044.059.1.059a.147.147 0 0 0 .071-.017c.018-.01.03-.025.03-.04v-.026c-.01-.303-.298-.597-.856-.876l-.009-.004c-.138-.07-.281-.14-.38-.226-.08-.068-.103-.178.026-.27a.252.252 0 0 1 .027-.017c.077-.045.246-.106.541-.047.164.033.293.076.43.122.233.078.475.16.91.201.263.025.58.007.807-.047a.135.135 0 0 0 .032-.013c.028-.016.038-.041.023-.063-.021-.03-.08-.044-.131-.032a2.32 2.32 0 0 1-.697.04 3.326 3.326 0 0 1-.844-.187 3.612 3.612 0 0 0-.463-.131c-.292-.059-.566-.032-.747.073a.498.498 0 0 0-.044.028c-.193.138-.157.304-.037.408.114.098.268.175.416.249l.01.005c.519.259.776.518.785.79" fill="#D3ECFF"></path><path d="M31.138 22.408c.17.12.281.377.291.557.002.032.048.057.104.056.026 0 .05-.007.067-.017.02-.01.03-.026.03-.043a.936.936 0 0 0-.205-.504c.468.051.874.042 1.32-.026a.128.128 0 0 0 .045-.015c.024-.014.035-.035.026-.056-.014-.031-.069-.05-.123-.042-.49.076-.91.075-1.454-.004a.157.157 0 0 0-.095.016.085.085 0 0 0-.014.01c-.023.021-.02.049.008.068" fill="#D3ECFF"></path></g><mask id="b" fill="#fff"><use xlink:href="#a"></use></mask><path d="M34.8.104h-.027l-.021.002-.015.002-.036.004a.792.792 0 0 0-.086.018c-.012.003-.025.009-.037.013l-.034.012c-.015.005-.028.008-.043.015-.045.018-.09.04-.136.067L.969 19.518c-.063.036-.124.08-.183.127-.02.015-.037.033-.056.05-.029.024-.058.048-.086.075-.013.012-.024.026-.037.039l-.032.035c-.012.013-.025.025-.037.04a2.226 2.226 0 0 0-.08.095l-.025.035-.014.019-.025.034a1.764 1.764 0 0 0-.106.166l-.004.007-.004.006a2.358 2.358 0 0 0-.08.15v.001l-.034.077-.002.003-.002.005a2.091 2.091 0 0 0-.068.179c-.006.015-.01.03-.015.046l-.006.02-.01.033c-.01.037-.02.074-.028.111l-.01.068-.007.035-.006.032a1.524 1.524 0 0 0-.012.19L.066 44.22c0 .403.215.775.563.977l.727.423-.067-23.674c0-.072.007-.147.018-.222.001-.012.004-.023.006-.035a1.83 1.83 0 0 1 .049-.212l.006-.02c.023-.077.051-.154.085-.23l.001-.003c.034-.078.073-.154.115-.228l.004-.006c.041-.072.087-.141.136-.208l.013-.017c.044-.06.093-.117.142-.172l.032-.034c.04-.04.08-.078.122-.114.02-.017.038-.035.057-.05.06-.047.12-.09.183-.127L35.654.987c.06-.036.12-.062.179-.083l.034-.012a.794.794 0 0 1 .16-.035l.014-.001a.569.569 0 0 1 .156.008l.008.001c.05.011.097.029.14.054l-1.289-.75-.005-.003a.495.495 0 0 0-.1-.042l-.035-.008-.008-.001-.011-.003a.653.653 0 0 0-.093-.008h-.005z" mask="url(#b)"></path></g><g transform="translate(1.203 37.179)"><mask id="d" fill="#fff"><use xlink:href="#c"></use></mask><path d="M55.904.648L21.86 20.303c-.359.207-.938.206-1.295-.002L.422 8.595C.401 8.583.385 8.57.367 8.556.344 8.54.32 8.524.3 8.507a.552.552 0 0 1-.072-.08l-.01-.014a.4.4 0 0 1-.044-.085.318.318 0 0 1-.019-.104l.005 1.49v.009a.31.31 0 0 0 .006.052c.002.011.006.022.01.034l.003.01a.364.364 0 0 0 .026.06v-.001l.017.025.01.015.01.014c.016.021.035.041.057.061l.006.005c.019.017.043.033.066.049.015.01.027.022.044.032l.011.007L20.57 21.792c.356.207.935.21 1.294.002L55.908 2.139c.18-.104.269-.24.269-.376l-.004-1.49c0 .135-.09.271-.27.375" mask="url(#d)"></path></g><g transform="translate(1.203 .798)"><mask id="g" fill="#fff"><use xlink:href="#e"></use></mask><path d="M34.451.385L1.055 19.666c-.537.31-.97 1.06-.969 1.678l.067 23.673 35.34-20.403L35.426.94c-.001-.437-.22-.69-.539-.69a.886.886 0 0 0-.436.134" fill="url(#f)" mask="url(#g)"></path></g><g transform="translate(2.706 3.204)"><mask id="j" fill="#fff"><use xlink:href="#h"></use></mask><path fill="url(#i)" mask="url(#j)" d="M0.205052714 18.7478914L0.264584147 39.8117962 32.3646544 21.27918 32.3048223 0.215275283z"></path></g></g></svg> 