<?xml version="1.0" encoding="UTF-8"?> <svg xmlns="http://www.w3.org/2000/svg" xmlns:xlink="http://www.w3.org/1999/xlink" width="76" height="75"><defs><rect id="b" width="509" height="168" rx="4"></rect><filter x="-3.9%" y="-8.4%" width="107.9%" height="123.9%" id="a"><feMorphology radius=".55" operator="dilate" in="SourceAlpha" result="shadowSpreadOuter1"></feMorphology><feOffset dy="6" in="shadowSpreadOuter1" result="shadowOffsetOuter1"></feOffset><feGaussianBlur stdDeviation="5.5" in="shadowOffsetOuter1" result="shadowBlurOuter1"></feGaussianBlur><feComposite in="shadowBlurOuter1" in2="SourceAlpha" operator="out" result="shadowBlurOuter1"></feComposite><feColorMatrix values="0 0 0 0 0 0 0 0 0 0 0 0 0 0 0 0 0 0 0.05 0" in="shadowBlurOuter1"></feColorMatrix></filter><path id="c" d="M0 49.982856L17.45628 49.982856 17.45628 0.000816 0 0.000816z"></path></defs><g transform="translate(-922 -444)" fill="none" fill-rule="evenodd"><g transform="translate(535 397)"><use fill="#000" filter="url(#a)" xlink:href="#b"></use><use stroke="#2DB5E6" stroke-width="1.1" fill="#FFF" xlink:href="#b"></use><rect fill="#DEE4EC" opacity=".673" x="387" y="46" width="76" height="76" rx="4"></rect><text font-family="Lato-Regular, Lato" font-size="16" fill="#717A7B"><tspan x="37" y="94">Nulla id arcu sapien. Nunc sit amet ipsum </tspan><tspan x="37" y="118">maximus, scelerisque libero ac, ornare quam. </tspan><tspan x="37" y="142">Aliquam volutpat pulvinar mi in rhoncus. </tspan><tspan x="37" y="166">Suspendisse potenti.</tspan></text><text font-family="Lato-Black, Lato" font-size="24" font-weight="700" letter-spacing="-.75" fill="#0A1158"><tspan x="37" y="64">Luxury &amp; Beauty</tspan></text></g><g transform="translate(935.419 456)"><path d="M19.854 46.982c-.175.009-1.58-1.594-4.214-4.808l-1.619-.804L1.043 29.343a1 1 0 0 1 .219-1.621l12.14-6.303a1 1 0 0 1 1.254.278l9.185 11.952 4.966 13.31c-5.794.006-8.779.014-8.953.023z" fill="#2A2C37" opacity=".3"></path><g transform="translate(15.412)"><path d="M4.336 47.309c0-1.477 2.003-5.014 4.474-5.014 2.47 0 4.475 3.537 4.475 5.014 0 1.475-2.005 2.672-4.475 2.672-2.47 0-4.474-1.197-4.474-2.672" fill="#2E2E2E"></path><mask id="d" fill="#fff"><use xlink:href="#c"></use></mask><path fill="#2E2E2E" mask="url(#d)" d="M4.34112 47.316576L13.28652 47.316576 13.28652 38.622096 4.34112 38.622096z"></path><path d="M4.342 38.622v8.619c0 .02-.006.047-.006.067 0 .363.124.706.342 1.022v-9.708h-.336z" fill="#FFF" mask="url(#d)"></path><path d="M6.392 39.183v9.97c0 .252.169.468.41.542a7.01 7.01 0 0 0 2.01.285c1.005 0 1.931-.2 2.676-.534a.57.57 0 0 0 .344-.518v-9.745a.56.56 0 0 0-.56-.561H6.95a.56.56 0 0 0-.56.56" fill="#4A4A4A" mask="url(#d)"></path><g mask="url(#d)" fill="#000"><g transform="translate(4.08 37.743)"><path d="M.937.879v10.1c.339.32.783.6 1.312.81V.879H.937zm6.283 0v10.906a4.26 4.26 0 0 0 1.147-.667V.879H7.22z"></path></g></g><path d="M10.318 39.261v10.02a.64.64 0 0 1-.553.64 7.29 7.29 0 0 1-.954.06l-.165-.001a.64.64 0 0 1-.623-.643V39.261a.64.64 0 0 1 .64-.64h1.015a.64.64 0 0 1 .64.64" fill="#4A4A4A" mask="url(#d)"></path><path d="M4.342 38.622v1.263c1.232.579 2.78.926 4.467.926 1.694 0 3.246-.349 4.478-.93v-1.26H4.342z" fill="#000" mask="url(#d)"></path><path d="M4.559 37.573c0-1.401 1.903-2.54 4.251-2.54 2.348 0 4.254 1.139 4.254 2.54 0 1.404-1.906 2.54-4.254 2.54s-4.251-1.136-4.251-2.54" fill="#2E2E2E" mask="url(#d)"></path><path d="M2.519 36.48c0-2.076 2.817-3.757 6.291-3.757s6.294 1.68 6.294 3.757-2.82 3.76-6.294 3.76c-3.474 0-6.291-1.683-6.291-3.76" fill="#454545" mask="url(#d)"></path><path fill="#454545" mask="url(#d)" d="M0.000816 9.120636L2.548776 36.217956 15.033576 36.217956 17.428536 1.405356z"></path><path d="M17.275 1.857L.237 9.64a.178.178 0 0 1-.178-.18V8.236c0-.1.08-.18.178-.18L17.275.275c.1 0 .181.08.181.18v1.224c0 .1-.081.18-.181.18" fill="#0A0A0A" mask="url(#d)"></path><path d="M17.249 1.584L.209 9.367a.178.178 0 0 1-.178-.18V7.961c0-.098.08-.177.178-.177L17.249 0c.098 0 .18.08.18.18v1.224c0 .098-.082.18-.18.18" fill="#4A4A4A" mask="url(#d)"></path><path d="M17.066 1.729l-3.28 1.41a.078.078 0 0 1-.08-.08v-1.35a.08.08 0 0 1 .08-.082l3.28-1.41a.08.08 0 0 1 .08.08v1.35a.081.081 0 0 1-.08.082M2.286 8.452l-1.763.751a.08.08 0 0 1-.08-.08V7.771a.08.08 0 0 1 .08-.08l1.763-.752c.045 0 .081.036.081.081v1.35a.082.082 0 0 1-.081.082" fill="#5E5E5E" mask="url(#d)"></path><path d="M2.79 12.801c-.37-.381-.72-.781-1.065-1.181-.339-.394-1.071-1.049-.988-1.632.098-.7 1.198-.534 1.696-.514a74.59 74.59 0 0 0 3.51.061 23.831 23.831 0 0 0 2.02-.075c.55-.05 1.102-.133 1.61-.345.606-.251 1.122-.675 1.613-1.11a30.584 30.584 0 0 0 3.026-3.08c.244-.29 2.027-2.648 2.507-2.16.016.014.022.046.02.09-.014.342-.504 1.464-.577 1.692-.237.718-.471 1.437-.704 2.153-.46 1.407-.928 2.813-1.381 4.222-.184.561-.365 1.124-.48 1.704-.112.575-.15 1.163-.19 1.748l-.124 1.879c-.324 4.89-.301 9.806-.501 14.704-.074 1.84-.151 3.684-.327 5.516-.037.412-.008 2.13-.481 2.367-1.165.583-4.806 1.093-5.973.147-.618-.502-.48-2.224-.506-2.903-.072-1.891.159-3.803.057-5.684-.22-4.045-.73-8.115-1.081-12.158-.096-1.098-.192-2.203-.429-3.28-.23-1.053-.542-1.424-1.252-2.16" fill="#4A4A4A" mask="url(#d)"></path><path d="M16.635 12.108l-.083 1.177a727.64 727.64 0 0 1-1.024 12.642 255.473 255.473 0 0 1-.716 7.052 72.39 72.39 0 0 1-.353 2.66c-.104.672-.098 2.08-.72 2.385.197-3.286.44-6.569.687-9.849.22-2.931.447-5.863.675-8.794.119-1.488.235-2.975.355-4.462.05-.638.035-1.216.337-1.789.098-.19.834-.916.842-1.022m-15.87.008c.058.853.237 1.728.299 2.544.11 1.501.226 3.003.344 4.506.241 3.003.5 6.004.788 9.005.23 2.423.463 4.855.826 7.262.249 1.624.685 3.8 2.848 3.837a664.085 664.085 0 0 0-.834-13.955c-.247-3.474-.523-6.967-1.384-10.343-.44-1.726-1.189-3.597-2.817-4.32-.096.473-.104.964-.07 1.464" fill="#000" mask="url(#d)"></path><path d="M1.164 9.548c.092-.198.361-.247.757-.012 1.142.673 2.283 1.346 3.425 2.017.547.325 1.116.667 1.457 1.204.455.718.414 1.634.357 2.48l-.153 2.302c-.045.675-.218 1.513-.875 1.672-.398.096-.816-.13-1.061-.454-.243-.327-.347-.735-.427-1.135-.39-1.932-.418-4.045-1.572-5.644-.476-.655-1.37-1.084-1.773-1.745-.171-.279-.208-.528-.135-.685" fill="#5E5E5E" mask="url(#d)"></path><path d="M6.527 33.638c-.055 1.226-.145 2.454-.039 3.676.22 2.184 5.608 1.07 6.365-.186.274-.455.327-1.006.37-1.536.346-4.205.58-8.417.705-12.634.119-4.023-.022-8.021.435-12.013.194-1.698.394-3.424 1.095-4.978.361-.802.863-1.608.78-2.48a17.58 17.58 0 0 0-3.834 3.688c-.587.769-1.124 1.599-1.87 2.217-1.277 1.055-3.264.93-4.827.824l-3.91-.271c.236 1.928 2.176 3.158 3.002 4.916.84 1.787.933 4.227 1.175 6.17.29 2.343.527 4.697.598 7.06a70.84 70.84 0 0 1-.045 5.547" fill="#5E5E5E" mask="url(#d)"></path><g mask="url(#d)" fill="#5E5E5E"><g transform="translate(0 1.023)"><path d="M.975 9.847C.905 9.112.483 8.529.063 8.099H0l2.546 27.046a2.274 2.274 0 0 0-.027.312c0 .665.29 1.29.796 1.83.185-6.502-2.212-26.092-2.34-27.44M17.29.923c-.433.744-.533 1.875-.655 3.352-.194 2.313-2.421 33.11-2.266 32.935.467-.522.734-1.118.734-1.752 0-.155-.022-.306-.053-.457L17.336.923h-.045z"></path></g></g><path d="M1.049 9.281A487.003 487.003 0 0 1 16.58 2.416c.023-.01.05 0 .06.023.005.022-.003.047-.023.057A491.698 491.698 0 0 1 1.085 9.363a.048.048 0 0 1-.059-.025.043.043 0 0 1 .023-.057m.163-1.547A459.814 459.814 0 0 1 16.29.778c.022-.01.049 0 .057.022.01.02 0 .047-.02.057A464.114 464.114 0 0 1 1.248 7.814c-.023.008-.05 0-.06-.023-.008-.022 0-.047.023-.057" fill="#989898" mask="url(#d)"></path><path d="M16.436 3.875s.478.265.106.69c-.657.75-1.334 1.677-1.601 2.648-.353 1.275-.088 2.813-.26 4.157-.087.698-.238 1.44-.746 1.93-.63-.194-.993-.838-1.293-1.428-.302-.592-.608-1.2-.681-1.86a4.23 4.23 0 0 1 .034-1.04c.208-1.513.771-2.357 1.795-3.4.553-.56 1.74-1.825 2.646-1.697" fill="#5E5E5E" mask="url(#d)"></path><path d="M13.651 38.937c-1.446 1.075-3.305 1.428-5.073 1.422-1.765-.072-3.623-.504-4.974-1.71a.04.04 0 0 1-.004-.06.045.045 0 0 1 .061-.005c1.398 1.067 3.183 1.51 4.923 1.528 1.74.059 3.53-.308 5.016-1.247.019-.014.047-.008.061.013a.045.045 0 0 1-.01.059M4.565 16.09l4.971-2.325 5.025-2.197a.04.04 0 0 1 .053.018c.008.02 0 .043-.02.051l-4.97 2.328-5.026 2.197a.041.041 0 0 1-.053-.02.039.039 0 0 1 .02-.052m-.008 1.15a150.564 150.564 0 0 1 9.996-4.523c.03-.012.065.002.075.03a.06.06 0 0 1-.026.076 150.615 150.615 0 0 1-9.998 4.523.059.059 0 0 1-.076-.03.058.058 0 0 1 .029-.076m2.508 10.385l3.317-1.122c1.09-.373 2.142-.934 2.989-1.728.012-.016.034-.016.05-.004.015.012.015.039.003.053-.83.845-1.873 1.449-2.973 1.875l-3.368.997a.037.037 0 0 1-.047-.024c-.006-.018.009-.04.029-.047M4.81 12.767c.149.751.149 1.504 0 2.255a.064.064 0 0 1-.078.05.063.063 0 0 1-.053-.05 5.667 5.667 0 0 1 0-2.255.065.065 0 0 1 .08-.05.066.066 0 0 1 .05.05m1.368-.546c.148.751.148 1.502 0 2.253a.066.066 0 0 1-.08.053.065.065 0 0 1-.051-.053 5.657 5.657 0 0 1 0-2.253.066.066 0 0 1 .077-.053.07.07 0 0 1 .054.053m1.364-.545c.149.75.149 1.501 0 2.252a.065.065 0 0 1-.077.053c-.029-.006-.05-.027-.051-.053a5.583 5.583 0 0 1 0-2.252.063.063 0 0 1 .077-.054.065.065 0 0 1 .051.054m2.731-1.093c.15.75.15 1.501 0 2.252a.065.065 0 0 1-.077.053c-.029-.006-.05-.026-.051-.053a5.657 5.657 0 0 1 0-2.252c.004-.037.04-.06.077-.053a.065.065 0 0 1 .051.053m1.367-.547c.149.75.149 1.501 0 2.254a.065.065 0 0 1-.078.051.063.063 0 0 1-.053-.05 5.667 5.667 0 0 1 0-2.255c.007-.037.041-.06.08-.051a.065.065 0 0 1 .051.051m1.367-.546c.149.751.149 1.502 0 2.252a.067.067 0 0 1-.08.053.063.063 0 0 1-.05-.053 5.657 5.657 0 0 1 0-2.252c.003-.036.04-.059.077-.053a.07.07 0 0 1 .053.053m1.364-.547c.15.751.15 1.502 0 2.255a.065.065 0 0 1-.077.05.063.063 0 0 1-.053-.05 5.667 5.667 0 0 1 0-2.255.065.065 0 0 1 .08-.05.065.065 0 0 1 .05.05M8.58 23.693a5.743 5.743 0 0 1 0 2.255.064.064 0 0 1-.078.05c-.028-.003-.048-.024-.05-.05a5.593 5.593 0 0 1 0-2.254c.004-.037.04-.06.077-.051a.063.063 0 0 1 .051.05m-1.42.493c.148.75.148 1.501 0 2.252a.064.064 0 0 1-.078.053.059.059 0 0 1-.051-.053 5.583 5.583 0 0 1 0-2.252c.004-.037.04-.06.078-.053a.065.065 0 0 1 .05.053m2.788-1.038c.149.75.149 1.501 0 2.252a.066.066 0 0 1-.08.053.063.063 0 0 1-.05-.053 5.657 5.657 0 0 1 0-2.252c.005-.037.04-.06.079-.053a.071.071 0 0 1 .05.053m1.365-.547a5.743 5.743 0 0 1 0 2.254.064.064 0 0 1-.077.051c-.029-.004-.05-.025-.051-.051a5.667 5.667 0 0 1 0-2.254c.004-.037.04-.06.077-.051a.063.063 0 0 1 .051.05m1.367-.545c.149.75.149 1.501 0 2.252-.008.039-.043.061-.078.053a.063.063 0 0 1-.053-.053 5.657 5.657 0 0 1 0-2.252c.007-.037.041-.06.08-.053a.071.071 0 0 1 .051.053m1.534 13.577c-.785.842-1.885 1.3-2.97 1.603-.557.127-1.12.202-1.685.233-.57.047-1.134-.01-1.695-.068a.043.043 0 0 1-.04-.049c.003-.022.025-.038.048-.038 2.207.067 4.549-.313 6.28-1.745a.043.043 0 0 1 .062.005.046.046 0 0 1 0 .059m-.48-1.104c-.72.72-1.673 1.157-2.646 1.424-.991.22-2.011.247-3.011.14a.037.037 0 0 1-.035-.04.04.04 0 0 1 .041-.037c.996.06 1.997-.014 2.954-.273.955-.218 1.905-.6 2.644-1.27a.036.036 0 0 1 .053.003c.016.014.014.039 0 .053" fill="#FFF" mask="url(#d)"></path><g mask="url(#d)"><g transform="translate(3.23 45.053)"><path d="M5.58 4.38c-2.452 0-4.44-1.181-4.468-2.642v.45c0 .022-.006.046-.006.066 0 1.477 2.003 2.673 4.474 2.673 2.466 0 4.463-1.191 4.471-2.664h.004v-.547h-.004C10.043 3.189 8.046 4.38 5.58 4.38" fill="#000"></path><path d="M1.105 1.708c0 .01.006.02.006.03v-.1c0 .023-.006.05-.006.07" fill="#2E2E2E"></path></g></g></g></g></g></svg> 