<?xml version="1.0" encoding="UTF-8"?> <svg xmlns="http://www.w3.org/2000/svg" xmlns:xlink="http://www.w3.org/1999/xlink" width="76" height="75"><defs><rect id="b" width="509" height="168" rx="4"></rect><filter x="-3.9%" y="-8.4%" width="107.9%" height="123.9%" id="a"><feMorphology radius=".55" operator="dilate" in="SourceAlpha" result="shadowSpreadOuter1"></feMorphology><feOffset dy="6" in="shadowSpreadOuter1" result="shadowOffsetOuter1"></feOffset><feGaussianBlur stdDeviation="5.5" in="shadowOffsetOuter1" result="shadowBlurOuter1"></feGaussianBlur><feComposite in="shadowBlurOuter1" in2="SourceAlpha" operator="out" result="shadowBlurOuter1"></feComposite><feColorMatrix values="0 0 0 0 0 0 0 0 0 0 0 0 0 0 0 0 0 0 0.1 0" in="shadowBlurOuter1"></feColorMatrix></filter><path id="c" d="M0.105755509 0.220162567L0.751393534 0.220162567 0.751393534 0.740353123 0.105755509 0.740353123z"></path><path id="e" d="M0 0.634791306L13.6673177 0.634791306 13.6673177 44.5490237 0 44.5490237z"></path></defs><g transform="translate(-922 -247)" fill="none" fill-rule="evenodd"><g transform="translate(535 200)"><use fill="#000" filter="url(#a)" xlink:href="#b"></use><use stroke="#DEE4EC" stroke-width="1.1" fill="#FFF" xlink:href="#b"></use><rect fill="#DEE4EC" opacity=".673" x="387" y="46" width="76" height="76" rx="4"></rect><text font-family="Lato-Regular, Lato" font-size="16" fill="#717A7B"><tspan x="37" y="94">Nulla id arcu sapien. Nunc sit amet ipsum </tspan><tspan x="37" y="118">maximus, scelerisque libero ac, ornare quam. </tspan><tspan x="37" y="142">Aliquam volutpat pulvinar mi in rhoncus. </tspan><tspan x="37" y="166">Suspendisse potenti.</tspan></text><text font-family="Lato-Black, Lato" font-size="24" font-weight="700" letter-spacing="-.75" fill="#0A1158"><tspan x="37" y="64">Fashion &amp; Apparel</tspan></text></g><g transform="translate(943.247 257)"><path d="M7.217 46.651c0 1.975 6.911 1.386 10.989-1.51l.692-1.42.09-.047 1.087.427c3.323-1.855 3.84-3.506 3.79-5.028-.26-8.04-.767-15.17 2.336-31.3.085-.441.198-.898.103-1.226-.095-.325-.371-.474-.673-.551-.844-.216-1.915.046-2.96.317-1.66.43-3.352.893-5.094 1.848-2.956 1.62-5.77 4.482-8.468 7.253-.534.55-1.394 1.391-1.417 2.077-.009.275-.08 1.052 0 1.263 0 0-.717 4.923-.39 8.345.582 6.099-.085 15.665-.085 19.552" fill="#E86C67"></path><path d="M8.65 32.51c-.237-5.135-1.217-10.465-.757-15.638-.118.212-.194.423-.2.62-.01.274-.08 1.05-.002 1.262 0 0-.716 4.922-.389 8.345.582 6.099-.085 15.665-.085 19.552 0 .424.325.726.868.915.084-5.013.8-10.02.566-15.056" fill="#7C2825"></path><path d="M18.742 6.793l-.929-1.008-2.065.398-2.599 1.652-.13 2.318.519 1.862 1.789.847c.913.7 1.78 1.389 2.61 1.932l1.186-4.126.633-.91-1.014-2.965z" fill="#490F0D"></path><path d="M26.573 5.698a.192.192 0 0 0-.262-.07L3.908 18.562a.191.191 0 1 0 .191.332L26.502 5.96a.191.191 0 0 0 .07-.262" fill="#D0A463"></path><path d="M26.25 5a1.143 1.143 0 0 0-.614-.147l-8.876.639.116.846 9.895-1.035L26.25 5zm-9.895-.35c-.228-.134-.546-.107-.883.088l-.873.504c-.522.301-.995.95-1.162 1.615-.09.362-.117.609-.118.621l-8.85 9.595a5.212 5.212 0 0 0-1.12 2.088l.52.302 1.08-1.484L16.876 4.951l-.52-.302z" fill="#E3B86F"></path><path d="M26.156 5.155l-8.875.64c-.002-.012-.03-.226-.122-.484-.17-.47-.645-.572-1.166-.27l-.874.504c-.522.301-.995.95-1.161 1.614-.09.363-.117.608-.119.622l-8.85 9.595a5.221 5.221 0 0 0-1.12 2.088l11.874-12.7 11.543-.82c-.197-.518-.604-.803-1.13-.79" fill="#D0A463"></path><g transform="translate(16.141 .426)"><mask id="d" fill="#fff"><use xlink:href="#c"></use></mask><path d="M.626.418a.198.198 0 1 1-.395 0 .198.198 0 0 1 .395 0" fill="#E1E0DC" mask="url(#d)"></path></g><path d="M15.275 5.226a.125.125 0 0 1-.125-.125V3.526c-.002-.024-.02-.025-.048-.014-.32.123-.61.104-.815-.054-.208-.16-.302-.442-.265-.795.062-.579.496-1.272 1.034-1.65.312-.22.62-.318.882-.289.058.008.107.018.152.028.112.023.192.04.396-.01a.126.126 0 0 1 .15.092.125.125 0 0 1-.091.15c-.26.064-.38.038-.506.011-.04-.008-.08-.017-.13-.023-.2-.023-.453.062-.71.244-.484.34-.874.96-.929 1.473-.027.264.032.466.169.572.133.102.338.11.574.019.104-.04.202-.034.278.017.07.049.109.13.109.229V5.1c0 .07-.057.125-.125.125" fill="#E1E0DC"></path><g transform="translate(0 8.173)"><mask id="f" fill="#fff"><use xlink:href="#e"></use></mask><path d="M11.255 1.158L3.778 9.524a4.308 4.308 0 0 0-1.085 2.573L0 26.007l2.515 18.326c.334.445 1.674.148 2.869-.398 1.077-.492 2.038-1.188 2.038-1.725L5.78 26.255l3.894-11.396 3.993-11.358-1.64-2.866-.772.523z" fill="#E86C67" mask="url(#f)"></path></g><path d="M27.739 21.009s-.027-14.166-.453-15.407c-.082-.24-.33-.455-.72-.614a2.708 2.708 0 0 0-1.2-.178l-7.553.489 2.505 5.51 2.571 9.355 2.357 19.218c0 .543 1.47.248 2.8-.345 1.106-.49 2.115-1.187 2.106-1.777L27.74 21.009z" fill="#E86C67"></path><path d="M13.509 8.804c-.254-.73-.197-1.494.022-2.24-.56.247-2.285 2.304-2.382 3.124-.102.853 1.26 5.769 1.294 5.777.036.008 2.884-2.602 2.884-2.602-.017-.136-1.54-3.26-1.818-4.06m5.614 1.866l2.585-.229c-1.35-2.696-2.382-4.263-3.387-5.06-.299-.238-.994-.41-1.415-.41.17.131.229.283.229.283l.145.541c1.095.71 1.758 4.187 1.843 4.875" fill="#7C2825"></path><path fill="#490F0D" d="M18.9874396 43.6737968L17.8711314 12.9775826 17.7271541 12.53984 18.8983415 43.721574z"></path><path d="M19.628 10.624c.262-.942-.409-2.286-1.063-2.433.493 2.31-.627 6.603-.627 6.603l1.69-4.17zm-4.753 1.23l-.506 1.272.074.396 3.37 1.194c-1.161-.791-2.18-1.635-2.938-2.862" fill="#601917"></path><path d="M4.96 48.449c.86-.393 1.838-1.01 2.1-1.58l-.027-.26c-.022.554-1.07 1.278-2.111 1.754-1.172.535-2.513.852-2.91.471l.019.142c.14.084.333.123.566.123.641 0 1.561-.283 2.363-.65m22.588-13.062c-.798.355-1.725.634-2.303.634-.18 0-.324-.028-.422-.088l-.017-.139a.195.195 0 0 0 .057.06c.328.214 1.467-.023 2.649-.548.981-.437 2.013-1.088 2.105-1.65l.032.217c-.329.68-1.654 1.315-2.101 1.514" fill="#490F0D"></path><path d="M24.991 29.614c-.34-3.075-.655-6.14-.737-9.217a99.945 99.945 0 0 0-.51 6.73l1.502 12.256c0 .267.36.329.881.253-.48-3.326-.767-6.68-1.136-10.022" fill="#7C2825"></path></g></g></svg> 