<?xml version="1.0" encoding="UTF-8"?> <svg xmlns="http://www.w3.org/2000/svg" xmlns:xlink="http://www.w3.org/1999/xlink" width="269" height="23"><defs><path id="a" d="M0.000080730897 0.256186047L114.231609 0.256186047 114.231609 22.8737272 0.000080730897 22.8737272z"></path></defs><g transform="translate(.75)" fill="none" fill-rule="evenodd"><g transform="translate(149.5 2)" fill="#0CAA41" fill-rule="nonzero"><path d="M8.995 0A8.994 8.994 0 0 0 0 9c0 4.973 4.023 9 8.995 9C13.968 18 18 13.973 18 9s-4.032-9-9.005-9zm3.812 14.4L9 12.105 5.193 14.4l1.008-4.329L2.844 7.16l4.428-.378L9 2.7l1.728 4.082 4.428.378-3.357 2.911 1.008 4.329zM34.395 0A8.994 8.994 0 0 0 25.4 9c0 4.973 4.023 9 8.995 9 4.973 0 9.005-4.027 9.005-9s-4.032-9-9.005-9zm3.812 14.4L34.4 12.105 30.593 14.4l1.008-4.329-3.357-2.911 4.428-.378L34.4 2.7l1.728 4.082 4.428.378-3.357 2.911 1.008 4.329zM59.395 0A8.994 8.994 0 0 0 50.4 9c0 4.973 4.023 9 8.995 9 4.973 0 9.005-4.027 9.005-9s-4.032-9-9.005-9zm3.812 14.4L59.4 12.105 55.593 14.4l1.008-4.329-3.357-2.911 4.428-.378L59.4 2.7l1.728 4.082 4.428.378-3.357 2.911 1.008 4.329zM84.395 0A8.994 8.994 0 0 0 75.4 9c0 4.973 4.023 9 8.995 9 4.973 0 9.005-4.027 9.005-9s-4.032-9-9.005-9zm3.812 14.4L84.4 12.105 80.593 14.4l1.008-4.329-3.357-2.911 4.428-.378L84.4 2.7l1.728 4.082 4.428.378-3.357 2.911 1.008 4.329zM109.396 0a8.994 8.994 0 0 0-8.996 9c0 4.973 4.023 9 8.995 9 4.973 0 9.005-4.027 9.005-9s-4.032-9-9.005-9zm3.811 14.4l-3.807-2.295-3.807 2.295 1.008-4.329-3.357-2.911 4.428-.378L109.4 2.7l1.728 4.082 4.428.378-3.357 2.911 1.008 4.329z"></path></g><g transform="translate(0 .013)"><mask id="b" fill="#fff"><use xlink:href="#a"></use></mask><path d="M114.232 5.491c0-.127-.102-.254-.204-.305-.254-.127-.635-.228-1.397-.228-1.728 0-3.279.864-3.94 2.287V5.49a.282.282 0 0 0-.279-.28h-2.592a.282.282 0 0 0-.28.28v11.843c0 .152.127.279.28.279h2.72c.152 0 .279-.127.279-.28v-5.336c0-2.389 1.651-3.558 3.812-3.558.508 0 1.016.102 1.245.203.178.051.356-.076.356-.254V5.491zm-17.408 9.2c-1.856 0-3.304-1.322-3.304-3.304 0-1.982 1.448-3.304 3.304-3.304 1.855 0 3.303 1.322 3.303 3.304 0 2.008-1.423 3.304-3.303 3.304zm0-9.784c-3.812 0-6.659 2.617-6.659 6.505 0 3.863 2.847 6.506 6.659 6.506s6.658-2.617 6.658-6.506c.025-3.862-2.821-6.505-6.658-6.505zM81.703 14.69c-1.855 0-3.304-1.322-3.304-3.304 0-1.982 1.449-3.304 3.304-3.304 1.855 0 3.303 1.322 3.303 3.304-.025 2.008-1.448 3.304-3.303 3.304zm0-9.784c-3.812 0-6.658 2.617-6.658 6.505 0 3.863 2.846 6.506 6.658 6.506 3.812 0 6.658-2.617 6.658-6.506 0-3.862-2.846-6.505-6.658-6.505zm-15.12 9.835c-1.856 0-3.254-1.322-3.254-3.33 0-2.007 1.398-3.329 3.253-3.329 1.83 0 3.253 1.271 3.253 3.33 0 2.032-1.423 3.329-3.253 3.329zM72.732.256h-2.72a.282.282 0 0 0-.28.28V6.99c-.838-1.195-2.236-2.11-4.167-2.11-3.025 0-5.591 2.338-5.591 6.531 0 4.194 2.566 6.506 5.642 6.506 1.804 0 3.227-.788 4.117-2.058v1.448c0 .153.126.28.28.28h2.718c.153 0 .28-.127.28-.28V.51c0-.127-.127-.254-.28-.254zM58.17 13.852c0 2.82-2.058 4.04-5.362 4.04-2.287 0-4.244-.61-5.362-1.88a.306.306 0 0 1 0-.356l1.576-2.033a.285.285 0 0 1 .406-.025c.839.839 2.11 1.372 3.71 1.372.915 0 1.653-.254 1.653-.94 0-.66-.661-.813-2.745-1.27-1.83-.382-4.117-1.22-4.117-3.914 0-2.516 1.982-3.94 5.235-3.94 2.135 0 3.66.636 4.752 1.653.102.101.102.254.026.38l-1.5 1.932c-.101.127-.28.153-.38.051-.738-.66-1.958-1.067-3.152-1.067-1.017 0-1.576.33-1.576.864 0 .61.661.762 2.872 1.245 2.135.483 3.964 1.296 3.964 3.888zm-12.579 0c0 2.82-2.058 4.04-5.362 4.04-2.287 0-4.244-.61-5.362-1.88a.305.305 0 0 1 0-.356l1.575-2.033a.285.285 0 0 1 .407-.025c.839.839 2.11 1.372 3.71 1.372.915 0 1.652-.254 1.652-.94 0-.66-.66-.813-2.745-1.27-1.83-.382-4.117-1.22-4.117-3.914 0-2.516 1.983-3.94 5.236-3.94 2.134 0 3.66.636 4.752 1.653.101.101.101.254.025.38l-1.5 1.932c-.1.127-.279.153-.38.051-.737-.66-1.957-1.067-3.151-1.067-1.017 0-1.576.33-1.576.864 0 .61.66.762 2.872 1.245 2.134.483 3.964 1.296 3.964 3.888zm-16.315-1.245c0 1.372-1.118 2.541-2.847 2.541-1.143 0-1.753-.508-1.753-1.321 0-.686.534-1.22 1.525-1.373l3.075-.381v.534zm-2.16-7.675c-2.592 0-4.55.864-5.439 2.592-.05.127-.025.28.102.356l1.982 1.423c.127.102.305.051.381-.076.56-.991 1.78-1.322 2.974-1.322 1.474 0 2.16.509 2.16 1.246v.203c0 .305-.178.457-.636.508l-3.405.305c-2.287.229-3.964 1.627-3.964 3.888 0 2.288 1.728 3.863 4.193 3.863 1.931 0 3.176-.94 3.812-1.931v1.398c0 .152.127.28.28.28h2.718c.153 0 .28-.128.28-.28V9.989c0-3.456-1.83-5.057-5.438-5.057zM19.034.536v16.798c0 .152-.127.279-.28.279H16.01a.282.282 0 0 1-.28-.28V.537c0-.153.128-.28.28-.28h2.745c.152 0 .28.127.28.28zM6.607 14.716c-1.855 0-3.253-1.321-3.253-3.329 0-2.007 1.398-3.329 3.253-3.329 1.856 0 3.228 1.27 3.228 3.33 0 2.032-1.372 3.328-3.228 3.328zm6.15-9.504h-2.719a.282.282 0 0 0-.28.28V6.94c-.685-1.118-2.134-2.033-4.04-2.033C2.643 4.907 0 7.219 0 11.362c0 4.117 2.516 6.378 5.82 6.378 1.778 0 3.176-.736 3.99-1.906v.788c0 1.779-.865 3.202-3.635 3.202-1.397 0-2.516-.457-3.507-1.347-.127-.101-.33-.076-.406.051l-1.22 2.059c-.153.254-.127.406-.026.508 1.271 1.093 2.923 1.779 5.312 1.779 5.21 0 6.734-2.897 6.734-6.1V5.467a.302.302 0 0 0-.305-.254z" fill="#0CAA41" mask="url(#b)"></path></g><path d="M116.448 4.505h.156c.05 0 .092-.005.127-.014a.217.217 0 0 0 .084-.041.156.156 0 0 0 .046-.067.26.26 0 0 0 .014-.09.28.28 0 0 0-.013-.088.138.138 0 0 0-.042-.062.195.195 0 0 0-.076-.037.484.484 0 0 0-.118-.012h-.178v.411zm0 .154v.48h-.211V3.931h.39c.154 0 .27.028.344.084.075.057.112.14.112.25a.335.335 0 0 1-.072.216.38.38 0 0 1-.216.123c.016.01.028.02.04.034.011.014.022.03.032.047l.308.452h-.2c-.03 0-.052-.011-.066-.034l-.272-.408a.09.09 0 0 0-.03-.027.113.113 0 0 0-.052-.01h-.107zm-.658-.121a.884.884 0 0 0 .248.614.855.855 0 0 0 .376.22.856.856 0 0 0 1.084-.834.89.89 0 0 0-.249-.618.856.856 0 0 0-.378-.224.837.837 0 0 0-.563.037.852.852 0 0 0-.451.464.87.87 0 0 0-.067.34zm-.135 0a.978.978 0 0 1 .29-.7 1.025 1.025 0 0 1 .435-.255.976.976 0 0 1 .525 0 .96.96 0 0 1 .437.255.979.979 0 0 1 .289.7.975.975 0 0 1-.29.697 1.013 1.013 0 0 1-.436.255.967.967 0 0 1-.525 0 .969.969 0 0 1-.436-.255.98.98 0 0 1-.29-.697z" fill="#0CAA41"></path></g></svg> 