<?xml version="1.0" encoding="UTF-8"?> <svg xmlns="http://www.w3.org/2000/svg" width="689" height="319"><path d="M115.814 6.011l.486.015c1.47.085 3.041.518 4.707.71l.352.032c.234.016.467.02.694.02l.338-.002.327-.008.235-.005c.54-.011 1.017-.01 1.37.095l.27.097c1.132.475 1.781 1.607 2.783 1.894l.188.043c.466.09 1.12.095 1.669.224l.17.042c.674.173 1.312.434 1.96.428l.162-.007c.379-.03.762-.161 1.158-.463l.202.053c.755.263.916 1.122 1.789 1.274l.174-.105c.8-.529 1.477-1.6 2.744-1.885l.186-.031c.063-.007.126-.01.189-.011l.19.003c.127.006.256.018.386.03l.223.02c.075.006.15.01.225.013l.227-.002.23-.022.113-.023c.725-.169 1.586-.83 2.265-.825l.106.006c.277.033.52.196.703.574l-.06.16c-.38.818-1.706.987-2.464 1.698l-.122.12c-.71.723-1.686 2.137-1.6 2.8l.03.155c.29 1.072 2.027.692 2.091 2.234l-.051.135c-.344.751-1.357.398-2.204.793l-.194.102c-.679.403-1 1.073-1.797 1.223l-.342.056c-.225.03-.448.048-.667.055l-.327.004c-.866-.01-1.686-.166-2.487-.323l-.385-.075a13.87 13.87 0 0 0-1.527-.227l-.382-.02-.382.002-.005.147c.032.815 1.068 1.3 1.597 1.575l.256.128c1.778.854 3.298.727 5.845.67l.378.002c.255.007.515.025.777.042l.224.015c.298.02.596.035.89.032l.22-.007c.58-.028 1.137-.149 1.626-.483l.158-.128c.583-.551.593-1.551 1.168-2.128l.134-.124c.711-.621 2.042-1.215 3.06-1.228l.199.005.189.021.115.026c.59.163 1.336.823 1.345 1.3l-.01.17c-.137 1.002-1.696.717-1.714 1.955l.11.057c.193.085.427.12.684.117l.158-.007c1.332-.098 3.17-1.15 3.292-2.025l.007-.17c-.041-.719-.97-1.18-.936-1.954l.02-.18c.212-1.21 1.924-1.25 1.706-2.606l-.128-.09a1.268 1.268 0 0 0-.647-.196h-.13c-.262.013-.524.082-.787.151l-.183.048a3.238 3.238 0 0 1-.549.1l-.182.004-.182-.017-.194-.043c-1.225-.33-2.31-1.787-2.858-2.744l.102-.109c.214-.195.493-.268.8-.277l.155.001c.526.02 1.113.194 1.597.254l.132-.172c1.002-1.224 2.768-1.715 5.176-1.953l.143-.016c.873-.105 1.966-.381 2.379.415l.016.168c.015 1.158-1.858 1.908-1.476 3.284l.18.036c.06.008.117.014.173.016l.165-.001c1.398-.09 2.006-2.114 3.33-2.973l.227-.136c.631-.35 1.46-.608 2.293-.924l.19-.079c.765-.345 1.581-1.001 2.199-.983l.172.017c.588.103.754.633 1.42.911l.11.04c.636.188 1.41-.18 1.615.624l-.146.224c-1.726 2.353-7.168.988-8.613 3.622l.035.237c.194 1.732-.887 3.372.1 4.542l.131.132c.788.677 2.29.196 2.654 1.06l.053.153c.285 1.072-1.637 1.132-1.112 2.5l.157.084c.21.098.427.144.647.15l.165-.003c1.16-.07 2.396-1.177 3.406-1.688l.176-.09c1.363-.687 2.988-1.52 3.141-3.096l-.093-.151c-.812-1.117-3.236-.21-3.619-1.57l-.024-.123c-.093-.818.837-2.39 1.083-2.667l.116-.123c1.44-1.459 5.695-3.404 9.011-3.355l.282.01.277.018.283.045c.567.123 1.139.428 1.707.488l.343.025c.115.005.231.007.348.006l.352-.01c.59-.03 1.193-.114 1.79-.2l.27-.038c.631-.09 1.25-.169 1.835-.172l.248.004c.574.02 1.11.126 1.582.385l.186-.098c.377-.177.771-.245 1.185-.254h.208c.42.009.859.07 1.316.13l.309.04c.415.05.846.093 1.291.09l.337-.011.342-.031.17.11c1.345.948 1.038 2.774 3.28 3.605l.245.071c.587.128 1.283.021 2.011.193l.186.061c.564.228 1.168.844 1.804 1.137l.186.079c.913.367 1.602.316 1.803.98l.029.145c.054.614-.754 1.048-.692 1.713l.107.105c.402.469.009 1.127.292 1.752l.088.166c.622 1.055 1.997 1 3.36 1.56l.12.05c1.047.458 3.025 1.662 2.933 2.603l-.022.097c-.225.667-2.023 1.726-2.633 2.026l-.08.04c-.529.257-2.231 1.062-3.1 1.153l-.144.008-.124-.007-.153-.035c-1.142-.356-1.66-2.684-3.297-2.619l-.13.01c-.694.074-1.316.527-1.332 1.45l.009.228c.14 1.524 1.944 1.65 1.982 3.09l.001.209c-.03 1.606-1.047 1.762-2.52 2.84l-.251-.106c-.994-.433-1.883-.976-3.201-1.086l-.087.117c-.585.92 1.453 1.304.751 2.537l-.301.054c-.199.03-.393.047-.584.052l-.283.001c-1.594-.041-2.959-.823-4.535-1.301l-.212-.053c-.587-.12-1.33-.09-1.778-.346l-.165-.114c-.625-.515-.858-1.662-1.429-2.274l-.126-.132c-.75-.757-2.088-1.731-3.192-1.725l-.146.005c-1.038.073-2.335.855-3.466.936l-.16.007c-.583.006-1.115-.199-1.535-.816l.06-.18c.612-1.678 2.374-1.552 4.279-1.427l.31.02c.416.027.836.048 1.25.047l.309-.006c.615-.021 1.21-.104 1.752-.311l.23-.105c.874-.46 1.24-1.437 2.029-1.887l.159-.086c1.723-.9 4.337-1.087 4.086-2.964l-.03-.146c-.243-.83-1.504-.843-2.225-1.316l-.134-.097c-.974-.783-1.763-2.974-3.183-3.085h-.203c-.662.052-1.184.594-1.921.663l-.342.02c-.575.012-1.166-.067-1.754-.146l-.248-.033c-.496-.066-.987-.122-1.462-.114l-.237.01c-.391.026-.77.103-1.129.263l-.129.086c-.532.415-.144 1.038-.669 1.77l-.156.18c-.518.504-1.443.708-1.835 1.28l-.115.19c-.382.71-.345 1.535-.947 2.065l-.204.163c-1.153.822-3.27.984-4.57 1.43l-.172.069c-.584.267-1.276.865-1.819.861l-.152-.01c-.79-.105-1.257-.962-2.009-1.036l-.144-.004-.152.016a1.417 1.417 0 0 0-.33.104l-.005.173c.031 1.295 1.548 1.85 2.525 2.48l.207.134c1.037.666 2.08 1.36 2.447 2.52l-.087.17c-.293.54-.629.766-.996.81l-.112.007c-.971.02-2.147-1.112-3.316-1.119l-.186.01c-.627.07-1.339.482-2.067.895l-.271.154c-.68.379-1.366.721-2.003.748l-.126.002c-.588-.016-1.13-.322-1.582-1.144l.09-.276c.517-1.308 2.04-1.61 2.43-3.043l-.349.074c-1.73.439-3.294 1.854-5.357 2.317l-.395.073c-.785.122-1.55.115-2.259.321l-.388.131c-1.389.527-2.449 1.56-3.987 2.128l-.289.085c-.59.14-1.25.114-1.836.31l-.49.173c-1.492.554-3.196 1.41-4.682 2.215l-.34.184c-1.6.86-3.327 1.754-4.304 2.605l-.092.082c-.619.578-1.947 2.177-1.899 2.703l.031.15c.228.677 1.526.954 1.56 1.709l-.012.086c-.108.519-.815 1.497-.252 2.168l.091.093c.223.197.518.245.86.24l.15-.007c.152-.008.312-.024.478-.04l.23-.02c.156-.013.317-.024.48-.026l.246.004.249.02.314.052c1.853.375 3.122 1.92 4.595 2.736l.26.141c1.163.617 2.756 1.295 3.989 1.45l.338.032c.453.03.913.01 1.347-.007l.166-.008c.218-.009.43-.017.63-.016l.148.002c.777.019 1.356.191 1.481.927l.02.178c.055 1.269-1.741 1.766-1.876 2.609l.102.146c.755 1.199-.769 1.814-.765 2.906l.007.122c.094.917 1.168 2.183 2.113 2.264l.157.006.162-.007c1.312-.105 3.018-1.42 3.531-2.653l.092-.243c.544-1.562.347-3.564 1.5-4.666l.294.006c.097.001.195.002.292.001l.29-.004c5.79-.123 10.517-3.113 10.137-9.156l-.024-.215c-.09-.59-.357-1.295-.241-1.91l.04-.152c.326-.96 1.905-1.798 1.683-3.03l.216-.082c1.513-.688 1.52-3.246 3.235-3.635l.2-.034c.134-.017.27-.021.408-.016l.207.017c.557.062 1.14.27 1.753.477l.273.09c.733.241 1.508.451 2.331.394l.199-.027c.61-.123 1.344-.583 1.926-.502l.211.043c1.172.313 1.92 1.778 2.841 2.478l.162.114c.81.523 1.62.39 1.828 1.213l-.05.234c-.32 1.26-1.248 1.367-1.147 2.684l.023.18c.2 1.125 1.37 1.963 1.968 2.077l.214.029c.073.006.148.008.224.008l.234-.01c.87-.066 1.887-.464 2.645-.824l.19-.096c1.694-.923 3.16-3.266 4.588-2.956l.116.036c1.113.464 1.973 3.978 2.139 5.27l.04.421c.074 1.236-.228 2.241-.171 3.43l.025.209c.326 2.016 3.008 1.838 4.351 2.974l.13.137c.327.415.492 1.177.801 1.587l.136.169c.643.735 1.359.794 1.456 1.688l.017.256c.056 2.054-2.086 2.329-1.877 4.788l-.077.14c-.52.848-1.606.857-1.514 2.113l.023.186c.317 1.812 3.166.355 3.957 1.938l.068.153c.314.804-.16 1.452-.466 2.632l.09.114c.936 1.23.876 3.069-.885 3.072l-.198-.013c-.945-.131-1.279-1.19-2.325-1.447l-.278-.057c-.581-.093-1.298-.088-1.976-.209l-.348-.066c-.593-.118-1.24-.268-1.773-.332l-.396-.034c-.398-.024-.8-.019-1.191-.015l-.22.003-.218.002c-.936.002-1.785-.062-2.355-.62l.405-.523c1.523-1.916 3.441-3.791 5.301-5.446l.086-.073c.632-.502 1.8-.885 1.506-1.919l-.131-.105a1.53 1.53 0 0 0-.968-.302l-.142.009c-.81.081-1.644.668-2.341 1.062l-.262.15c-1.06.615-2.287 1.403-3.454 1.576l-.36.041c-.122.011-.246.018-.371.023l-.38.007c-.512 0-1.043-.036-1.576-.07l-.29-.02c-1.444-.09-2.874-.137-3.921.549l-.018.113c-.051.86 2.045.56 1.74 2.01l-.175.028c-.232.035-.46.062-.683.07h-.166c-.494-.007-.955-.129-1.362-.496l-.118-.124c-.452-.55-.175-1.29-.545-1.601l-.116-.082c-.601-.365-2.041-.532-3.192-.524l-.242.005c-.315.01-.6.033-.829.07l-.189.035c-1.315.27-2.445 1.082-2.599 2.22l.205.083c.35.12.736.156 1.136.154l.242-.005c.242-.009.487-.028.729-.046l.159-.013c1.158-.091 2.223-.13 2.572 1.023l-.103.175c-.966 1.544-2.966 2.466-2.685 4.6l.025.138c.195.834 1.142 1.866 1.835 1.988l.139.014.131-.005c.257-.026.477-.148.698-.27l.117-.065c.235-.127.478-.236.771-.209l.13.023c.604.152.505.898 1.331.775l.179-.086c1.167-.626 1.874-2.248 3.269-2.169l.107.138c1.503 2.039-1.733 3.047-3.555 3.709l-.405.14c-2.06.683-4.581 1.081-6.099 1.72l-.06.027c-.654.326-2.375 1.869-3.49 1.932l-.106.001c-.416-.014-.732-.263-.853-.903l-.027-.183c-.158-1.511 1.63-1.098 2.017-2.47l-.28-.044a4.14 4.14 0 0 0-.277-.025l-.276-.006-.274.01c-1.641.114-3.2 1.08-4.729 1.66l-.209.077c-2.688.967-6.994 1.648-7.621 4.567l-.02.136c-.056.62.253 1.615-.111 1.984l-.072.055c-.466.275-2.198.34-2.981.61l-.292.11c-1.157.469-2.164 1.283-2.894 1.481l-.187.044c-.58.112-1.328.088-1.669.223l-.19.089c-.917.497-1.33 1.808-2.464 2.697l-.165.113c-.543.332-1.469.596-1.825.947l-.099.11c-.599.742-.739 2.3-1.89 2.544l-.18.004c-.238-.01-.463-.079-.683-.147l-.126-.038c-.208-.063-.414-.116-.623-.11l-.126.013c-.127.02-.255.064-.387.146l-.008.287c-.008 1.658.564 3.8-.123 5.417l-.432.34c-1.455 1.107-3.047 1.951-4.875 2.977l-.33.175c-.985.489-1.912.68-3.121 1.287l-.258.144c-.854.532-1.664 1.522-2.66 2.11l-.201.118c-2.49 1.468-5.39 3.238-5.371 6.915l.02.31c.084.729.419 1.508.51 2.344l.018.336c0 .448-.072.898-.018 1.39l.022.161c.21 1.36 1.095 3.028-.022 3.948l-.302-.118c-1.734-.646-3.825-.933-5.006-2.135l-.05-.26c-.159-1.195.73-2.209.583-3.322l-.023-.13c-.22-.975-1.486-2.539-2.235-2.657l-.156-.013-.154.008c-.307.037-.608.184-.911.332l-.163.078a2.78 2.78 0 0 1-.66.237l-.17.022-.172-.002-.197-.031c-.918-.222-1.8-1.423-2.99-1.56l-.377-.034a7.149 7.149 0 0 0-.365-.012l-.355.005c-.47.017-.92.07-1.377.124l-.29.033c-.389.043-.785.082-1.204.092l-.319.002a7.899 7.899 0 0 1-1.02-.077l-.209.118c-1.7 1.004-2.365 2.591-4.332 2.677l-.242.003-.256-.013-.257-.036c-.767-.155-1.497-.708-2.396-.892l-.308-.064c-1.07-.226-2.518-.535-3.542-.466l-.334.034c-2.089.278-3.66 1.792-5.503 2.75l-.209.109c-1.694.872-3.945 1.966-4.434 3.742l-.07.31c-.167.96-.009 2.178-.329 3.007l-.116.255c-.26.505-.676.973-.946 1.466l-.139.258c-1.423 2.684-2.546 6.174-1.452 9.961l.028.087c.262.761 1.642 3.79 2.226 4.424l.112.112c.772.729 2.643 1.725 3.735 1.744l.296-.01c.901-.07 1.91-.5 2.756-.654l.374-.058c1.018-.143 2.196-.188 3.078-.472l.276-.101c2.557-1.072 2.12-4.74 4.896-6.002l.223-.096c1.203-.485 2.612-.592 4.686-.7l.135.124c.607.604.887 1.558.796 2.397l-.03.168c-.149.613-.715 1.202-1.032 2.087l-.103.323c-.218.768-.3 1.602-.56 2.2l-.148.29c-.436.752-1.164 1.35-1.444 2.099l-.07.24c-.11.496-.048 1.056-.195 1.481l-.052.13c-.365.807-1.395 1.406-.878 2.26l.308.112c.725.239 1.485.325 2.253.329l.33-.003c.771-.018 1.548-.107 2.306-.196l.382-.045c.761-.088 1.499-.164 2.187-.154l.34.013c.223.014.44.039.651.078l.116.024c1.08.256 3.087 1.474 3.067 3.028l-.018.271c-.132 1.06-.924 1.827-1.044 3.045l-.046.39c-.217 1.581-.814 3.41-.882 4.65l-.003.152c.038 2.22 3.285 5.848 5.575 5.819l.234-.01c2.382-.175 3.855-2.458 6.798-1.184l.169.084c.958.529 1.967 1.982 3.017 1.906l.128-.018c.915-.193 2.205-1.708 2.791-2.768l.118-.225c.639-1.258.756-2.313 2.003-2.958l.281-.134c1.297-.56 2.397-.294 4.098-.928l.3-.123c.69-.309 1.314-.762 1.955-1.204l.08-.06c.62-.477 1.274-1.509 2.044-.738l.107.12c.776.986-1.37 1.578-.505 2.668l.181.085c.178.073.348.11.51.12l.16-.001c1.313-.082 2.152-2.025 3.262-2.061l.086.006c.51.078 1.856.852 2.569 1.322l.198.139c.887.664 1.264 1.51 2.321 1.717l.162.022c.056.005.115.008.175.008l.185-.005c.255-.013.535-.053.826-.093l.258-.033c.26-.033.528-.06.791-.063l.263.005.258.024.248.048c1.208.287 1.977 1.308 2.938 1.28l.227-.022c1.1-.178 1.69-1.385 2.692-1.57l.245-.042c.4-.063.755-.09 1.074-.083l.187.007c1.282.082 1.965.745 2.739 1.842l.138.017c.441.027.707-.217.948-.462l.134-.136c.179-.177.36-.325.606-.329l.096.006c.1.012.21.047.333.11l-.077.17c-.426 1.042.297 1.568.74 2.484l.089.2c.206.516.193.89.444 1.127l.17.14c.665.468 1.763.513 2.614 1.053l.204.14c.857.642 1.407 1.716 2.45 2.912l.162.18c1.17 1.262 3.006 2.512 4.481 2.606l.343.011.335-.007c.439-.021.856-.083 1.259-.145l.28-.042a8.392 8.392 0 0 1 1.094-.109l.27.004.269.022.368.053c2.532.41 4.17 1.724 6.001 3.134l.213.161c.986.74 1.85 1.301 2.172 2.224l.075.269c.144.65.084 1.443.325 2.12l.058.148c.671 1.554 2.91 2.387 2.066 5.158l.093.172c.433.71 1.269 1.011 2.161 1.553l.176.118c.696.502 1.31 1.352 2.08 1.476l.179.017.18-.002c.182-.01.365-.043.543-.075l.18-.032c.18-.03.35-.052.509-.042l.368.036c1.315.167 2.284.696 3.482 1.16l.25.088c.764.25 1.654.383 2.139.713l.127.103c.56.546.688 1.903 1.464 2.279l.112.043c.119.036.26.051.417.054l.162-.001c.222-.007.466-.032.718-.057l.254-.023c.34-.03.682-.05.99-.016l.337.05c1.382.246 3.12.99 4.307 1.015l.218-.005c.287-.016.557-.073.821-.13l.218-.048c.288-.06.572-.108.865-.085l.32.036c3.053.47 4.877 4.14 7.908 5.271l.216.07c.97.262 2.345.061 2.967.329l.121.063c1.122.691 2.05 4.098 2.134 5.638l.012.332c.085 4.563-3.496 6.112-5.584 9.224l-.128.212c-.37.665-.63 1.605-1.198 2.442l-.12.172c-1.241 1.728-2.566 2.198-2.4 5.534l.036.353c.123.824.493 1.646.493 2.564l-.003.397c-.021 1.218-.137 2.68-.396 3.718l-.08.26c-.277.762-.877 1.41-.982 2.13l-.024.294c-.011.671.25 1.226.158 1.83l-.034.168c-.188.75-.885 1.751-1.427 2.746l-.124.236c-1.123 2.211-1.456 4.724-3.856 5.6l-.375.118c-1.413.375-3.2.167-4.664.68l-.222.09c-.606.268-1.33.775-2.036 1.102l-.234.11c-2.29 1.064-5.386 2.497-6.001 4.8l-.074.331c-.355 1.973.843 3.611.472 5.907l-.185.31c-.387.618-.872 1.248-1.406 1.946l-.23.33c-.43.674-.714 1.416-1.231 2.058l-.165.192c-.795.87-1.904 1.34-2.355 2.596l-.05.176c-.093.419-.036.913-.214 1.546l-.04.094c-.142.267-.552.645-.758 1.1l-.08.208c-.135.43-.152.921-.319 1.254l-.075.148c-.668 1.286-2.384 3.874-3.641 4.23l-.298.074a5.198 5.198 0 0 1-.898.106l-.3.003c-.997-.015-1.988-.264-2.917-.514l-.294-.08c-.78-.21-1.511-.402-2.16-.432l-.24-.004-.231.014-.223.032.052.21c.33 1.11 1.222 1.036 1.807 1.915l.13.214c.287.516.492 1.137.929 1.644l.136.152c.538.58.993.852 1.06 1.573l.012.204c.035 1.566-1.17 3.1-2.002 3.644l-.17.102c-.842.46-2.366.738-3.68.959l-.143.021c-1.065.145-3.392.182-3.837.779l-.094.156c-.483 1.002.43 3.09-.037 3.953l-.082.146c-.31.503-.756.691-1.263.722l-.14.005c-.47.004-.987-.111-1.496-.226l-.208-.046a7.322 7.322 0 0 0-1-.171l-.185-.01-.179.005c-.175.01-.34.043-.489.106l-.016.188c-.054.942.317 1.893 1.078 2.332l.143.071c.83.353 1.989-.166 2.511.727l-.069.25c-.386 1.097-1.643 1.326-1.922 2.536l.012.242c.074 1.072.402 1.41.253 2.144l-.05.19c-.495 1.514-2.943 1.515-2.869 3.262l.022.224c.38 2.433 5.195 1.456 5.286 4.024l-.003.219c-.085 1.388-1.483 1.474-1.987 2.96l-.053.183c-.167.688.204.904.053 1.542l-.056.18c-.308.802-1.271 1.104-1.271 2.075l.01.174c.154 1.223 1.888 2.542 2.774 3.542l.214.245c.874 1.006 1.956 2.305 3.103 2.942l.203.106c1.856.908 4.463.758 5.239 2.546l-.047.17c-.321.978-1.339 1.262-2.343 1.553h-.264l-.017-.009.017.01h-3.847l-.544-.237c-1.662-.689-3.603-1.187-5.56-1.884l-.298-.12c-.706-.32-1.477-.87-2.222-1.202l-.278-.116c-.563-.213-1.153-.328-1.581-.552l-.23-.137c-1.083-.717-2.276-2.459-3.352-3.178l-.2-.123c-.695-.396-1.64-.641-2.055-1.076l-.138-.169c-.352-.496-.58-1.325-.924-1.817l-.176-.221c-.444-.503-1.103-.918-1.55-1.505l-.152-.202c-1.074-1.44-2.357-3.282-2.367-4.312l.01-.195c.102-.957.981-1.649.653-2.584l-.065-.14c-.47-.785-2.312-.657-2.589-1.724l-.024-.151c-.048-.688.607-1.737.554-2.63l-.015-.101c-.133-.547-1.037-1.267-.648-2.026l.064-.111a.618.618 0 0 1 .564-.3l.093.005c.125.012.257.041.392.07l.126.027c.126.025.255.046.382.047l.128-.006a.856.856 0 0 0 .375-.129l-.05-.182c-.477-1.923.034-4.834-1.809-5.392l-.091.088c-.756.863 1.032 2.607-.573 3.1l-.17-.086c-1.408-.785-1.076-2.8-1.422-4.295l-.087-.338c-.254-.893-.662-1.73-.707-2.714l.004-.253c.035-.517.21-1.084.127-1.6l-.067-.312c-.443-1.65-2.21-3.047-2.322-4.734l.002-.255c.056-.757.542-1.432.662-2.264l.026-.319c.014-.54-.1-1.12-.026-1.67l.07-.358c.173-.708.525-1.37.594-2.031l.026-.286c.11-1.48-.047-3.749-.291-4.892l-.083-.324c-.414-1.394-1.475-2.628-1.643-4.183l-.01-.216c.001-.61.204-1.484.144-2.173l-.046-.308c-.124-.618-.423-1.243-.483-1.95l-.011-.282c.004-.657.208-1.309.276-2.107l.026-.56c.017-1.514-.344-3.144-.291-4.615l.026-.234c.068-.376.244-.693.239-1.09l-.026-.514c-.1-1.2-.454-2.407-.507-3.6l-.015-.494c-.042-2.266.266-3.967-.116-6.138l-.05-.286c-.299-1.758-.673-4.237-1.276-5.286l-.1-.158c-.841-1.25-3.46-3.207-4.81-3.958l-.408-.203c-.836-.37-1.776-.562-2.643-.99l-.223-.11c-2.215-1.098-6.159-3.262-7.075-5.327l-.1-.278c-.17-.575-.18-1.26-.433-1.847l-.172-.367c-.622-1.208-1.698-2.289-2.482-3.483l-.482-.768c-1.423-2.357-2.647-5.133-4.161-7.458l-.252-.398c-.748-1.208-1.43-2.507-2.268-3.447l-.108-.109c-.638-.578-2.2-1.14-2.411-2.016l-.063-.235c-.344-1.2-1.134-2.734-.999-3.611l.042-.18c.378-1.188 2.615-2.171 2.611-3.269l-.015-.18c-.147-.876-1.318-1.428-1.576-2.207l-.072-.24c-.513-1.887.496-3.048 1.265-4.673l.088-.196c.234-.55.465-1.296.709-1.66l.144-.187c.519-.585 1.389-.82 1.977-1.539l.105-.146c.305-.477.532-1.28.956-1.844l.184-.228c1.012-1.173 2.478-1.685 2.869-2.823l.033-.112c.318-1.198.49-5.856.099-7.45l-.088-.282c-.316-.831-1.066-1.558-1.37-2.373l-.063-.172c-.549-1.551-.736-3.176-2.326-3.144l-.177.014c-.926.137-1.597 1.173-2.212 1.841l-.023.15c-.129.901-.102 1.834-1.039 2.107l-.17.04c-.055.01-.11.017-.162.02h-.156c-1.17-.064-1.803-1.711-3.359-2.183l-.2-.053c-.697-.16-1.655-.165-2.055-.345l-.23-.123c-1.108-.683-1.553-2.38-2.822-3.063l-.224-.11c-1.036-.473-1.923-.348-2.564-1.216l-.06-.17c-.189-.661-.006-1.698-.07-2.484l-.206-.137c-1.367-1.011-2.563-3.923-4.174-4.638l-.292-.114c-1.113-.38-2.666-.377-3.952-.815l-.319-.116c-.516-.2-.965-.42-1.541-.546l-.284-.058c-.759-.14-1.515-.18-2.101-.475l-.229-.123c-2.484-1.425-3.91-5.403-7.069-5.315l-.296.027c-1.28.188-2.518 1.305-3.684 1.3l-.229-.012c-1.265-.11-3.207-1.03-4.683-1.714l-.493-.217c-1.492-.625-3.071-1.02-4.281-1.64l-.316-.179c-.922-.573-1.618-1.433-2.472-1.814l-.254-.098c-.703-.239-1.601-.31-2.131-.561l-.232-.12c-.778-.437-1.597-1.207-2.556-1.875l-.177-.125c-.949-.692-1.91-1.68-1.947-2.524l.007-.237c.097-.94.955-1.763 1.055-2.684l.025-.314c.163-2.997-2.06-5.18-3.476-6.984l-.475-.583c-.97-1.143-2.04-2.164-2.973-3.264l.018-.26c.042-.634.036-.84-.018-1.596l-.244-.251c-.72-.787-1.36-1.854-2.145-2.934l-.146-.192c-.817-1.027-2.188-2.116-2.373-3.257l-.034-.278c-.115-1.376.565-2.613.034-3.97l-.06-.14c-.352-.77-.967-1.14-1.602-1.164h-.113l-.112.006c-1.123.098-2.22 1.25-1.963 3.157l.042.191c.25.85 1.338 1.922 1.683 2.728l.112.302c.259.826.236 1.803.552 2.75l.122.303c.419.898 1.284 1.715 1.604 2.75l.105.364c.457 1.708.474 3.484.956 4.543l.053.108c.52.97 2.048 1.9 1.14 3.076l-.167.027-.157.009c-1.022.001-1.485-1.098-2.195-1.762l-.095-.08c-.533-.423-1.934-1.156-2.16-2.04l-.033-.201c-.06-.755.51-1.712.297-2.588l-.059-.187c-.652-1.69-4.176-1.798-4.189-3.659l.015-.202c.16-1.027 1.567-1.22 1.58-2.32l-.014-.212c-.167-1.189-1.753-2.21-2.11-3.236l-.08-.26c-.275-.998-.333-2.437-.449-3.72l-.026-.333c-.075-1.231.037-2.587-.242-3.517l-.06-.165c-.372-.891-1.635-2.03-2.46-2.488l-.215-.112c-1.062-.507-1.905-.327-2.438-1.216l-.112-.206c-.434-.882-.717-2.418-.817-3.241l-.057-.605c-.1-1.426.003-2.948-.076-4.439l-.028-.509c-.09-1.523-.208-3.013.028-4.662l.212-.367c.678-1.05 1.707-1.678 2.31-2.82l.158-.341c.332-.815.44-1.753.901-2.578l.21-.344c1.041-1.601 2.975-3.102 4.302-4.697l.327-.394c1.407-1.7 2.686-3.359 3.52-5.313l.066-.15c.36-.8 1.113-2.309.996-3.167l-.035-.166c-.343-1.203-2.536-2.228-2.354-3.68l.036-.166c.249-.778 1.45-.82 1.824-1.69l.05-.137c.184-.56.34-1.726.348-2.252l-.007-.297c-.07-1.188-.63-2.422-.391-3.683l.03-.127c.313-1.076 1.891-1.559 1.033-2.791l-.086-.111a.899.899 0 0 0-.591-.323l-.11-.007-.11.003c-.298.02-.618.137-.937.254l-.134.049c-.27.097-.536.184-.787.204l-.125.004a.888.888 0 0 1-.573-.208l-.106-.099c-.7-.736.292-1.627.372-2.953l-.004-.21c-.045-.498-.311-1.024-.262-1.38l.025-.11c.187-.6 1.195-1.506.904-1.881l-.12-.164c-.689-.996-1.486-3.092-2.933-3.817l-.293-.135c-1.865-.78-3.895-.207-6.47-.663l-.256-.056c-1.326-.35-2.092-1.487-3.264-1.652l-.225-.02-.236.007-.173.025c-.843.18-1.396 1.166-2.614 1.696l-.33.126c-1.235.408-2.745.27-3.915.538l-.245.065c-.948.29-1.534.886-2.452.99l-.237.015-.253-.008-.193-.026c-.905-.178-.986-1.05-2.192-1.168l-.148-.003-.167.013c-.53.063-1.285.32-1.94.39l-.378.036c-.789.07-1.76.124-2.767.141l-.506.005c-1.525.007-3.08-.077-4.18-.316l-.37-.085c-1.69-.409-2.842-.995-4.803-1.905l-.17-.077C2.653 34.755.038 33.906 0 32.835v-.069l.004-.026.02-.086c.266-.717 2.795-1.458 3.826-1.77l.337-.11c1.536-.526 2.546-1.272 3.778-1.35h.153c.211.015.444.075.69.135l.196.046c.264.06.54.106.818.086l.232-.036c.634-.147 1.382-.654 2.156-.762l.165-.02c1.84-.219 4.294.061 4.08-1.705l-.117-.08c-.628-.37-1.864-.315-3.135-.26l-.194.009a32.55 32.55 0 0 1-.962.03l-.187.001c-1.43.002-2.635-.203-2.702-1.291l-.001-.148c.066-1.344 2.236-1.768 3.851-2.108l.314-.066c1.51-.324 3.605-.793 4.859-.73l.139.01c.935.104 2.027.743 2.921.758l.133-.003c.48-.028.895-.262 1.185-.897l.06-.236c.255-1.25-.592-2.317-.857-3.348l.146-.186c1.152-1.353 3.12-1.184 4.631-1.404l.484-.075c1.589-.253 2.95-.58 4.559-1.253l.468-.19c1.415-.546 2.915-.92 4.572-1.137l.599-.094c1.59-.285 3.133-.837 4.578-.969l.496-.035c1.147-.064 2.226-.009 3.349-.228l.285-.064c1.051-.259 2.155-.783 3.3-.732l.274.033c.721.134 1.368.63 2.112.763l.283.036c.288.026.587.021.889.018l.271-.003c.363-.002.727.009 1.08.081l.27.074c.536.177 1.037.506 1.586.59l.307.033c.103.007.207.01.311.011l.313-.004c.209-.008.419-.023.628-.038l.305-.02c.203-.013.404-.022.603-.022l.295.01.29.03.328.066c.754.194 1.43.631 2.192.728l.475.05c.48.041.973.053 1.47.055l.5-.003.501-.006.44-.005.44-.002.437.002c.726.01 1.436.05 2.107.176l.371.089c.613.171 1.199.45 1.883.577l.29.039c.292.028.592.025.891.022l.247-.002.245.002c.244.006.484.023.716.069l.26.068c.944.303 1.77 1.151 2.793 1.26l.388.025.393-.003c1.846-.07 3.845-.936 5.718-1.086l.519-.03c1.387-.056 2.811.058 4.259-.234l.443-.098c1.324-.31 2.605-.78 3.803-.83h.241c.238.008.464.042.686.074l.212.032c.283.04.561.066.85.026l.16-.033c.653-.18 1.41-.874 2.095-.764l.172.042c.8.27.708 1.386 1.687 1.684l.187-.086a2.43 2.43 0 0 1 .936-.171l.189.005c.315.017.633.07.956.125l.257.042c.344.054.696.097 1.057.085l.307-.02c.916-.092 1.776-.418 2.745-.426l.327.01.337.038.222.04c1.872.374 4.252 1.79 6.084 1.799l.217-.006c.429-.026.824-.139 1.17-.372l.108-.087c.356-.334.292-.868.689-1.638l.097-.183c.608-1.103 1.63-2.39 1.364-3.933l-.53.025c-2.47.188-4.872 1.327-7.699 1.437l-.157-.102c-2.764-1.857 1.015-3.02 3.209-3.878l.321-.137c1.696-.773 3.114-2.212 5.256-2.518.297-.042.6-.062.907-.062zm555.047 276.713l.198.018c.81.138 1.83 1.037 2.555 1.16l-.088.233c-.878 2.066-3.952 3.192-6.017 4.545l-.175.13c-.577.475-1.087 1.312-1.815 1.592l-.314.109c-.955.283-2.006.22-2.999.688l-.397.203c-1.56.866-2.793 2.312-4.247 3.249l-.25.16c-1.527.975-3.64 2.233-5.326 2.359l-.115.007a4.397 4.397 0 0 1-.118.004h-.122c-2.006-.008-5.094-1.228-2.826-2.93l.24-.168c1.111-.737 3.093-1.564 4.139-2.084l.5-.243c3.73-1.764 8.714-3.024 11.705-5.2l.655-.485c1.512-1.135 2.919-2.297 4.388-3.228a.77.77 0 0 1 .429-.119zm-61.156.297l.19.013c.576.078 1.23.475 2.024.603l.234.027c.077.006.155.009.232.009l.231-.008c.383-.026.76-.11 1.127-.192l.173-.04c.401-.09.79-.17 1.167-.161l.16.009c.318.03.626.132.921.356l-.07.263c-.46 1.585-1.676 3.293-3.247 4.38l-.086.059c-.745.495-2.289 1.227-3.534 1.296l-.148.005c-.83.01-1.502-.304-1.67-1.224l-.01-.105c-.033-.834.765-3.667 1.068-4.275.391-.774.793-1.015 1.238-1.015zm73.399-14.385l.159.006c1.609.125.57 2.204.704 3.319l.029.14c.122.412.545.736.761 1.322l.057.157c.382 1.1.406 2.077 1.669 2.362l.142-.018c.532-.085 1.161-.391 1.707-.379l.146.012a.926.926 0 0 1 .528.253l-.101.229c-.498 1.063-1.324 2.062-2.422 2.56l-.246.087c-.51.138-1.114.101-1.61.31l-.245.117c-.949.511-1.513 1.546-2.404 2.272l-.409.311c-.845.61-1.844 1.152-2.648 1.68l-.11.074c-.635.429-1.447 1.093-2.243 1.15l-.14.003a1.353 1.353 0 0 1-.823-.303l.023-.21c.218-1.343 1.734-1.383 2.104-2.576l-.015-.2c-.113-.75-.81-.906-.781-1.79l.175-.15c1.842-1.537 4.569-2.726 4.994-5.952l.014-.13c.12-1.524-.962-4.515.782-4.647.071-.005.139-.008.203-.008zm-54.071-59.034l.172.193c1.45 1.727 1.942 4.85 1.691 7.506l.12.086c1.074.702 2.812.52 3.059 2.303l.013.248c-.017.595-.323 1.293-.277 1.87l.048.332c.201.982.887 1.86 1.017 2.72l.039.31c.165 1.63-.286 2.993.487 4.203l.172.242c1.076 1.38 2.963 1.419 4.207 3.08l.002.24c.04.917.427 1.352.661 2.14l.033.144c.069.404-.012.952.102 1.187l.11.19c.488.715 1.497.842 1.88 1.531l.06.135c.136.388.115 1.002.338 1.591l.123.286c.412.836 1.176 1.51 1.734 2.368l.134.198c.6.865 1.457 1.778 1.591 2.458l.036.243c.113 1.193-.745 2.053-.967 3.072l-.056.311c-.19 1.268.016 2.815-.47 4.067l-.126.3c-.679 1.493-2.083 2.993-3.195 4.875l-.199.332c-.95 1.563-2.19 3.254-3.516 4.31l-.43.315c-.735.493-1.54.856-2.224 1.414l-.415.356c-1.088.976-2.023 2.157-3.033 3.227l-.332.337c-1.122 1.101-2.397 1.988-3.253 2.976l-.139.166c-1.273 1.584-1.982 3.966-4.236 4.212l-.339.033c-1.233.102-2.359.042-3.511.502l-.276.115c-1.812.798-3.037 2.103-3.966 2.14l-.204-.01c-.947-.118-1.831-1.203-2.718-1.32l-.186-.013-.182.007c-.421.037-.824.217-1.273.397l-.194.077c-.46.176-.977.333-1.613.328l-.152-.009c-.538-.056-.874-.39-1.704-.654l-.19-.058c-1.843-.542-3.798-.588-4.054-2.594l-.017-.233c-.014-.974.733-1.48.677-2.423l-.024-.193c-.164-.856-1.052-1.13-1.437-1.927l.04-.147c.224-.888.213-1.953-.703-2.51l-.003-.22c.008-.71.211-1.235.535-1.637l-.265.106c-.73.272-1.618.487-2.391.96l-.15.098c-.792.552-1.418 1.556-2.291 1.638l-.167.005-.173-.02-.127-.051c-.855-.408-.125-1.395-.272-2.202l-.023-.096c-.22-.783-1.591-3.313-2.236-3.752l-.13-.083c-.912-.546-3.49-1.505-4.38-1.647l-.419-.056a9.512 9.512 0 0 0-1.198-.06l-.382.014c-3.02.162-5.273 1.708-7.954 1.966l-.284.016a10.01 10.01 0 0 1-.868-.03l-.282-.018a7.515 7.515 0 0 0-.553-.015l-.269.014-.261.034-.321.063c-2.582.57-5.384 2.575-6.979 3.913l-.47.037c-.157.009-.314.015-.47.018l-.472.002c-.63-.005-1.26-.044-1.894-.083l-.385-.024c-.514-.03-1.03-.056-1.547-.06l-.388.002c-.906.014-1.818.108-2.734.376l-.245.077c-2.26.746-3.784 2.434-6.76 2.546l-.324.006c-.44 0-.912-.036-1.421-.112l-.121-.098c-.873-.675-2.262-1.063-2.27-2.287l.014-.175c.15-.915 1.513-1.533 1.977-2.214l.096-.148c.528-.839 1.323-2.516 1.361-3.569l-.01-.269c-.08-.823-.577-1.779-.522-2.78l.038-.327c.127-.77.5-1.575.494-2.33l-.02-.316c-.119-1.044-.74-2-.911-3.13l-.019-.235c-.009-.407.075-.889.019-1.36l-.035-.243c-.128-.714-.448-1.31-.363-1.748l.052-.177c.274-.718 1.175-.848 1.411-1.548l.055-.188c.266-1.074-.565-1.325-.587-2.73l.006-.191c.077-.925.821-1.452 1.323-2.728l.062-.184c.188-.653.219-1.663.465-2.071l.083-.112c.454-.516 1.768-.951 2.306-1.212l.335-.173c1.882-1.026 3.444-2.699 5.374-3.013l.21-.022c.072-.004.146-.005.222-.004l.227.008.226.013.162.01c.105.007.206.012.298.012l.131-.003.116-.013.283-.063c1.153-.3 2.558-1.186 4.094-1.53l.342-.07c1.47-.28 2.778-.207 3.905-.86l.185-.113c1.313-.836 3.05-2.72 3.526-3.867l.085-.217c.508-1.362.402-2.494 1.508-2.965l.157-.055c.26-.072.52-.056.782-.04l.155.008c.052.002.104.004.156.004l.157-.003c.105-.006.21-.02.318-.047l.153-.045c.658-.21 1.816-.773 2.236-1.15l.2-.2c.754-.833.956-2.051 1.921-2.852l.194-.156c.757-.592 1.976-1.402 2.86-1.832l.166-.077c.588-.258 1.498-.497 1.953-.455l.197.026c1.546.282 2.413 2.217 3.964 2.294h.198c.134-.008.274-.029.419-.065l.128-.047c.685-.317 1.379-1.737 1.999-2.607l.129-.187c.892-1.33 1.599-3.008 3.185-3.394l.248-.048c.166-.024.334-.033.501-.034l.251.005c.168.007.334.02.497.031l.158.012c.782.057 1.488.07 1.926-.63l.02-.145c.06-.752-.608-1.222-.02-1.715l.218.026c1.568.258 4.051 2.16 6.282 2.228l.2-.004c.346-.024.75-.126 1.163-.228l.13-.033c.435-.106.873-.203 1.251-.2l.112.004c.513.033.9.281.994.995l.007.167c-.033.77-.968 1.416-1.199 2.222l-.032.146c-.079.52.26.846-.102 1.446l-.148.057c-1.034.39-2.075.646-2.107 1.798l.004.165c.115 1.402 2.184 2.091 3.442 2.891l.221.148c.8.559 1.464 1.31 1.904 1.576l.163.084c.402.185.927.291 1.164.444l.15.105c.786.6 1.39 1.723 2.507 1.755l.155-.004c1.295-.095 2.568-1.744 3.292-3.318l.177-.416c.714-1.823.784-3.955 1.147-5.819l.077-.286c.187-.57.56-1.133.721-1.704.512-1.813 1.206-4.265 2.784-4.907zM462.038.736l.178.009.173.022.259.063c.848.271 1.564 1.133 2.395 1.265l.479.062c.48.051.96.07 1.442.068l.481-.006c.48-.012.96-.038 1.437-.065l.413-.022a27.423 27.423 0 0 1 1.629-.048l.4.008a8.659 8.659 0 0 1 1.945.268l.171.061c.401.176.812.56 1.289.736l.175.061c1.61.55 2.705.44 3.012 2.458l.279.113c1.177.534 1.961 1.622 3.434 2.01l.265.056c.176.029.354.04.532.04l.268-.007c.718-.04 1.456-.222 2.251-.222h.4c1.498.01 3.287.078 4.509.265l.28.063c.639.187 1.2.629 1.845.735l.177.02c.06.005.123.007.187.008l.195-.002c.133-.003.269-.01.406-.018l.3-.016c.2-.008.4-.01.59.008l.308.04c.708.116 1.354.376 1.947.358l.274-.024c1.257-.18 2.248-1.272 3.307-1.437l.21-.017c.578-.01 1.275.24 1.78.282l.576.034c.194.007.39.01.587.011l.593-.006c.397-.008.796-.024 1.191-.04l.4-.016c1.197-.046 2.343-.069 3.288.151l.204.057c.99.312 2.508 1.297 3.512 2.063l.25.211c.638.59 1.085 1.384 1.739 1.78l.143.082c.772.432 2.37 1.09 3.045.98l.17-.04c.686-.226.773-1.066 1.551-1.418l.284-.054c1.167-.188 2.666-.05 4.156.09l.339.031c1.805.167 3.559.297 4.643-.2l.173-.096c.627-.414.537-1.187 1.154-1.63l.995-.037c3.645-.1 7.263.21 10.681.302l.409-.001c.41-.012.822-.053 1.231-.093l.327-.033c.326-.032.648-.059.963-.064l.313.001c.206.007.41.024.608.059l.276.064c1.175.347 2.087 1.512 3.301 1.926l.212.061c.894.213 2.295.1 3.504.337l.288.07c.752.214 1.386.641 1.966.726l.385.041c.128.01.256.015.383.017l.38-.003c1.008-.032 1.991-.243 2.97-.32l.402-.032a43.31 43.31 0 0 1 3.461-.14l.451.005c1.956.04 3.942.284 5.637.964l.272.12c1.406.668 2.094 1.824 3.705 2l.397.037c1.22.094 2.712.037 4.193-.018l.497-.02a54.33 54.33 0 0 1 2.392-.049l.444.008c.29.008.57.021.835.043l.223.027c.514.08.99.266 1.368.237l.204-.028c.727-.147 1.237-.747 2.186-.765l.157.005c.587.055 1.311.465 2.096.873l.21.11c.776.396 1.602.763 2.41.77l.219-.007.218-.026.111-.09c.56-.547-.73-1.268.016-1.77l.135-.096c.229-.142.481-.186.753-.18l.165.01c.558.05 1.191.263 1.869.266l.224-.01c.23-.021.472-.073.714-.124l.22-.047c.294-.06.58-.107.833-.083l.29.04c1.354.257 2.671 1.424 4.353 1.816l.34.073a16.26 16.26 0 0 0 3.162.284l.421-.006c.422-.012.842-.04 1.253-.084l.343-.044c.905-.135 1.728-.38 2.587-.393l.323.007.329.033.248.053c.49.142.949.474 1.474.61l.219.042c.218.031.433.031.64.03h.191c.19.003.371.014.542.058l.22.082c.369.17.737.476 1.11.581l.633.17c2.375.599 5.334.953 7.727 1.69l.307.1c1.434.495 2.881 1.326 4.071 1.358l.19-.003c.252-.015.497-.072.758-.128l.19-.041a4.09 4.09 0 0 1 .853-.094l.232.004c3.955.088 8.482 1.765 8.121 5.437l-.344.067a6.983 6.983 0 0 1-.68.08l-.336.014h-.334c-1.665-.039-3.256-.614-4.86-1.188l-.607-.217c-1.42-.499-2.858-.946-4.374-.972h-.326a7.525 7.525 0 0 0-1.672.227l-.131.039c-.746.254-1.521 1.064-1.458 1.818l.03.192c.481 2.11 5.992 1.99 6.467 4.185l-.143.097c-.238.144-.48.21-.722.23l-.145.006c-.29.003-.576-.05-.851-.103l-.196-.038c-.258-.048-.503-.084-.727-.057l-.196.03c-1.21.242-3.057 1.411-3.784 2.09l-.128.13c-.846.912-1.604 2.876-2.525 3.056l-.175.023-.183.002c-.5-.019-1.08-.23-1.708-.441l-.234-.078c-.786-.257-1.635-.477-2.479-.302l-.217.069c-.575.24-1.126.895-1.638.992l-.242.035-.248.014a8.325 8.325 0 0 1-1.022-.063l-.152-.016a8.012 8.012 0 0 0-.748-.05l-.145.003c-.672.02-1.274.23-1.685 1.006l.07.195c.384 1.193.17 2.743 1.122 3.387l.165.095c.617.294 1.36.03 2.089.304l.208.093c.806.426 1.303 1.44 2.045 2.03l.166.12c.609.406 1.227.468 1.562 1.073l.01.197c.009.8-.39.935-.278 1.529l.048.177c.348.965 1.901 1.229 1.942 1.944l-.001.158c-.07.78-1.107.653-1.322 1.567l-.005.125c.033.52.725.713.799 1.466l-.003.205c-.058.48-.43.982-.392 1.521l.027.215c.141.768.718 1.325.633 2.04l-.027.152c-.14.597-.674 1.061-1.169 1.31l-.582-.388c-2.313-1.59-4.456-3.654-6.98-5.585l-.207-.157c-2.804-2.116-7.038-4.73-7.486-9.13l.012-.12c.142-.635 1.467-1.173 1.711-2.133l.023-.166c.02-.403-.184-.922-.154-1.427l.028-.274c.212-1.458 1.35-2.836 1.302-3.706l-.016-.125c-.198-1.038-1.98-2.788-2.906-3.061l-.115.07c-.574.423.1 1.175-.019 1.79l-.033.134c-.228.771-1.14 1.649-1.957 1.721l-.208.01c-1.015.008-1.657-.605-2.383-1.22l-.113-.094c-.643-.536-1.367-1.047-2.476-1.117l-.2-.008-.208.002a5.73 5.73 0 0 0-1.18.172l-.112.033c-1.018.333-2.35 1.842-2.009 3.682l.034.103c.258.55 1.665 1.148 1.558 1.888l-.025.08c-.283.596-2.71.834-3.878.856l-.145.002a4.34 4.34 0 0 1-.332-.01l-.348-.04c-1.918-.304-3.002-1.73-4.825-1.685l-.255.024c-.842.134-1.59.783-2.267.904l-.378.059a9.358 9.358 0 0 1-.783.067l-.404.011c-1.085.013-2.238-.109-3.369-.232l-.248-.026c-.907-.098-1.795-.189-2.616-.204l-.222-.002-.219.003c-1.663.032-2.996.457-3.565 1.915l-.07.23c-.11.476-.046 1.037-.199 1.495l-.098.25c-.29.651-.792 1.176-.964 1.61l-.048.15c-.111.436-.115 1.138-.35 1.706l-.022.047c-.342.645-2.673 2.814-.507 3.404l.133.027a.878.878 0 0 0 .122.007l.116-.01c.113-.015.219-.048.332-.08l.105-.03c.178-.049.38-.084.652-.047l.197.04c1.152.311 2.913 1.944 4.179 1.95l.19-.015c.778-.116 1.766-.889 2.331-.914h.241c1.107.046 1.938.765 2.809 1.194l.173.087c.888.463 2.125 1.27 2.749 1.24l.192-.018c1-.141.53-.936 1.666-1.31l.28.095c2.105.788 3.18 3.098 5.29 4.949l.226.187c.785.62 1.849 1.196 2.827 2.068l.099.086c.68.591 2.35 1.92 2.424 2.566l.005.152c-.029.529-.534.799-.672 1.309l-.034.158c-.118.729.286 1.282-.231 1.832l-.256-.105c-1.902-.852-2.4-2.84-3.858-4.538l-.188-.225c-.504-.61-1.036-1.324-1.799-2.163l-.056-.062c-.392-.424-1.433-1.492-2.24-1.573l-.126-.004-.12.014-.116.032-.13.058c-1.395.714 1.057 3.12 1.459 3.658l.158.21c.857 1.144 1.896 2.607 1.968 3.77l.002.18c-.029.816-.517 2.145-.534 3.403l.007.339c.038.782.212 1.502.127 2.18l-.05.262c-.17.712-.634 1.499-.881 2.26l-.08.27c-.247.909-.327 1.924-.58 2.516l-.074.156c-.592 1.158-2.23 2.449-3.382 2.496l-.199-.001c-.448-.028-.79-.212-1.132-.395l-.147-.08c-.345-.182-.702-.342-1.175-.318l-.197.017c-1.461.185-1.777 1.615-2.718 2.768l.02.25c.116 1.117.458 1.565.245 2.404l-.062.193c-.478 1.24-2.25 1.525-2.193 2.858l.016.164c.187 1.156 1.81 1.41 2.635 1.96l.218.15c1.208.843 3.104 2.476 4.164 3.83l.126.165c.727.974 1.672 2.602 1.6 3.547l-.017.111c-.25 1.117-2.942 2.534-4.664 2.62l-.17.003c-.22 0-.421-.026-.595-.08l-.169-.06c-1.275-.513-.82-1.868-1.154-3.122l-.078-.24c-.322-.84-1.013-1.265-1.378-2.015l-.067-.172c-.128-.424-.084-.997-.336-1.42l-.108-.164c-.814-1.125-2.162-.485-3.742-1.297l-.16-.092c-.89-.587-.63-1.688-1.032-2.694l-.068-.15c-.55-1.08-2.18-1.687-3.771-1.677l-.217.006a5.639 5.639 0 0 0-.849.099l-.272.066c-1.212.362-1.68 1.418-2.915 1.656l-.16-.107c-1.653-1.212.489-3.898-1.829-4.138l-.194-.01-.19.013c-1.62.197-2.737 2.681-3.732 3.448l-.133.093c-.74.474-1.908.619-1.987 1.363l-.01.15c-.027 1.294 1.603 1.037 2.924 1.576l.197.093c1.066.568 1.253 1.828 2.326 1.898l.199-.003c.842-.078 1.447-.982 2.322-1.06l.302-.017.295.002c1.36.052 2.485.68 3.382 1.211l-.079.165c-.825 1.525-4.157 2.696-4.166 4.743l.007.155c.11 1.095 1.466 1.322 2.515 2.1l.166.134c.904.78 2.057 2.573 3.283 3.846l.147.142c.563.505 1.348.856 1.582 1.185l.13.206c.472.834.437 1.786 1.059 2.318l.019.202c.012.565-.343.771-.283 1.388l.08.177c.438.76 1.737.661 2.044 1.55l-.023.22c-.19 2.205.643 4.25-1.171 5.088l-.087.407c-.844 3.91-1.845 6.98-4.556 9.144l-.349.265c-2.475 1.796-5.641 2.38-8.543 3.316l-.257.105c-.672.328-1.24 1.008-1.864 1.222l-.16.051c-1.788.53-4.753.247-4.879 2.339l.003.194c.096.95 1.35 1.575 1.454 2.59l.012.178c.05 1.6-1.37 3.16-2.401 3.273l-.1.008h-.11c-.826-.02-2.229-.578-2.313-1.869l-.001-.21c.081-1.43 1.971-2.06 2.126-2.971l.02-.154c.146-1.531-1.334-2.984-3.11-3.039h-.178l-.18.008-.136.017c-1.814.29-5.605 3.68-5.701 5.556l.002.15c.115 1.485 2.88 4.309 3.844 5.157l.19.166c3.67 3.186 7.483 5.223 6.84 13.101l-.119.237c-1.001 1.83-3.265 2.271-5.053 3.345l-.15.098c-1.32.94-2.06 3.403-4.364 3.62l-.127-.055c-.78-.416-.285-1.806-.537-2.466l-.07-.147c-.49-.855-2.254-1.322-3.377-2.241l-.232-.209c-.81-.795-1.21-1.907-1.892-2.58l-.222-.198c-.919-.748-2.181-.955-3.23-1.526l-.132-.084c-.651-.47-1.182-1.67-1.857-1.64l-.128.01c-1.012.126-.648 1.236-.931 3.04l-.046.249c-.368 1.727-1.575 3.113-1.15 5.191l.054.19c.29.806 1.286 1.487 1.801 2.33l.164.285c.777 1.436.945 3.026 1.828 3.83l.222.173c.631.426 1.538.573 2.166 1.02l.181.131c1.428 1.053 3.723 3.101 4.199 4.248l.107.303c.393 1.329-.061 2.845.29 4.21l.046.157c.531 1.617 2.577 2.812 1.285 4.486l-.314-.07c-1.14-.302-2.154-1.05-3.14-1.654l-.28-.178c-1.632-1.056-2.443-2.023-3.567-3.803l-.137-.206c-.335-.477-.75-.943-.925-1.385l-.135-.403c-.312-1.088-.275-2.294-.659-3.578l-.072-.214c-.459-1.244-1.802-3.05-2.849-4.035l-.138-.123c-.948-.805-2.448-1.326-2.516-2.53l-.009-.45c.023-1.679.606-3.598.542-5.52l-.024-.195c-.077-.39-.311-.793-.373-1.264l-.033-.347c-.059-.944.108-2.02-.103-2.839l-.1-.314c-.268-.724-.779-1.393-1.094-2.072l-.152-.328a22.276 22.276 0 0 1-.905-2.194l-.056-.163c-.526-1.572-1.13-4.335-2.334-4.48l-.173-.006-.174.024c-1.215.262-2.448 2.477-4.031 2.505l-.143-.004c-.87-.06-1.943-.745-2.113-1.592l-.028-.222c-.036-.742.446-1.494.427-2.297l-.015-.247c-.155-1.6-1.343-2.278-2.243-3.469l-.131-.198c-.28-.48-.391-1.065-.666-1.393l-.197-.208c-.633-.597-1.635-.989-2.324-1.648l-.2-.2c-.668-.686-1.354-1.578-1.659-2.19l-.082-.175c-.45-1.01-.638-2.218-1.376-2.347l-.15-.011-.155.018c-.67.134-1.41.968-2.083 1.189l-.19.057c-.896.255-2.66.553-3.393.605l-.177.012c-2.58.144-4.64-.467-4.332 2.643l-.067.195c-.49 1.236-1.903 1.28-2.854 1.925l-.25.185c-1.145.909-2.036 2.505-3.331 3.796l-.266.243c-.646.543-1.459.935-1.988 1.483l-.175.209c-.378.517-.557 1.213-1.023 1.65l-.197.175c-1.408 1.175-3.384 1.36-4.309 3.142l.002.407c.073 2.008 1.024 3.597.792 5.56l-.059.314c-.206.83-.78 1.598-.872 2.474l-.01.255c.007.77.337 1.588.147 2.399l-.047.138c-.176.398-.647.657-1.018 1.187l-.115.183c-.288.499-.432 1.091-.676 1.41l-.208.235c-.444.453-1.033.806-1.39 1.227l-.136.167c-.56.708-.725 1.205-1.322 1.292l-.183.02-.176.002c-2.61-.068-3.32-5.232-4.55-7.454l-.195-.316c-.633-.944-1.662-1.84-2.193-3l-.15-.35c-.567-1.424-.813-3.133-1.71-4.692l-.256-.433c-.79-1.298-1.763-2.601-2.263-3.947l-.174-.487c-.4-1.168-.763-2.532-1.153-3.758l-.102-.323c-.442-1.42-.888-3.104-.959-4.186l-.01-.204c-.069-1.603.286-2.607-1.053-3.248l-.219.063c-1.13.386-1.717 1.53-3.099 1.53l-.098-.004c-1.482-.105-5.093-2.497-4.01-4.642l-.15-.192c-1.008-1.195-3.201-1.918-4.894-3.388l-.132-.123c-.969-.945-1.886-2.887-3.581-3.06l-.19-.004-.2.019c-.407.057-.853.22-1.204.25l-.22.015a9.002 9.002 0 0 1-.236.009l-.253.003h-.265c-.362-.003-.752-.016-1.148-.028l-.344-.01c-.344-.01-.686-.018-1.01-.018l-.318.002a9.849 9.849 0 0 0-.586.026l-.374.034c-1.013.097-2.16.258-3.362.294l-.453.007c-.455.001-.917-.019-1.382-.07l-.573-.066c-1.179-.145-2.527-.346-3.673-.462l-.272-.03c-1.66-.19-3.735-.594-4.633-1.433l-.095-.1c-.524-.631-.79-2.194-1.769-2.419l-.211-.037a1.899 1.899 0 0 0-.201-.015l-.192.007c-.878.075-1.504.759-2.444.973l-.29.06c-.288.051-.57.08-.847.09l-.274.003c-1.818-.02-3.38-.87-4.694-1.745l-.346-.22c-1.03-.635-1.964-1.01-2.705-1.504l-.164-.12c-1.876-1.453-2.3-5.292-5.278-5.322l-.142.002c-1.067.047-2.625.707-2.777 1.857l-.006.157c.032.87 1.042 2.293 1.467 2.897l.177.236c1.52 1.924 4.077 2.757 4.866 5.466l.102.028c.036.007.073.011.112.013h.122c.167-.01.355-.046.55-.083l.135-.026c.18-.032.364-.06.539-.059l.13.006c.212.019.408.09.565.254l.06.157c.414 1.237-.017 3.32 1.134 3.823l.34.052c.557.078 1.073.115 1.552.115l.284-.004c3.816-.114 5.272-2.585 7.378-4.407l.184.126c1.206.883.798 1.672 1.274 2.659l.113.223c.51.951 1.262 1.693 2.142 2.034l.187.058c.636.158 1.425-.006 2.336.338l.075.033c.736.38 3.17 2.71 3.244 3.552v.107c-.079.891-1.74 3.359-2.26 4.004l-.15.171c-.52.55-1.214.88-1.442 1.42l-.045.138c-.133.493-.095 1.323-.22 1.588l-.066.115c-.347.512-1.42 1.15-2.058 1.742l-.317.28c-.645.546-1.35.996-1.939 1.444l-.22.18c-.714.62-1.218 1.378-2.034 1.68l-.352.118c-1.636.5-3.19.317-4.556 1.209l-.18.134c-.784.673-.86 1.946-1.941 2.65l-.254.148c-1.233.644-3.151.7-4.792 1.447l-.273.137c-.97.537-1.614 1.4-2.507 1.719l-.207.05c-.357.057-.764-.011-1.124.083l-.374.12c-.74.276-1.44.761-2.148.94l-.33.065c-.554.081-1.124.05-1.66.202l-.197.062c-1.443.483-2.805 1.639-4.214 1.758l-.192.01a2.56 2.56 0 0 1-1.369-.371l-.183-.455c-.81-2.152-1.017-4.727-2.072-6.579l-.142-.221c-.603-.843-1.598-1.183-1.978-2.164l.001-.148c.066-.68.976-.516 1.058-1.18l-.075-.26c-.431-1.26-1.669-1.919-2.445-3.059l-.143-.233c-.314-.569-.508-1.29-.918-1.888l-.175-.242c-1.628-2.148-4.549-3.359-5.134-6.127l-.046-.286c-.076-.648.053-1.183-.084-1.704l-.08-.27c-.302-.897-.906-1.814-1.515-2.515l-.15-.156c-.54-.51-1.444-.914-1.971-1.703l-.148-.26c-.266-.54-.369-1.208-.649-1.73l-.254-.459c-1.305-2.275-3.106-4.287-5.053-5.912l-.217.031c-1.018.14-2.064.25-2.567.903l.17.512c.535 1.513 1.286 2.821 2.084 4.13l.23.364c.787 1.22 1.785 2.523 2.29 3.881l.076.247c.127.51.128 1.112.324 1.61l.113.256c.934 1.905 3.365 2.596 3.865 4.92l.068.367c.224 1.435-.107 2.51.332 4.01l.087.24c.607 1.419 2.723 2.32 3.629 3.738l.166.291c.614 1.195.659 2.752 1.16 3.825l.123.236c.882 1.537 2.97 2.257 4.521 3.345l.389.294c1.263 1.02 2.227 2.42 3.322 3.422l.145.122c.693.54 1.554.685 1.715 1.338l.036.184c.106.76-.425 1.073-.568 1.804l.133.143c.974 1.086 1.952 2.886 3.583 3.042l.165.003.172-.021c.64-.118 1.412-.646 2.317-.778l.201-.018c.203-.01.411.006.614.02l.207.014c.068.004.134.007.2.008l.19-.003.179-.021.233-.06c.613-.202 1.18-.716 1.894-.868l.46-.084c1.246-.187 2.656-.116 4.181-.315l.24-.04c1.336-.272 2.33-1.276 3.371-1.22l.184.021.186.045.137.162c1.157 1.458.233 3.087-.137 4.482l-.067.307c-.073.41-.093.815-.195 1.154l-.158.465c-.805 2.132-2.492 3.789-3.297 5.77l-.096.287c-.162.59-.166 1.259-.43 1.836l-.197.398c-1.047 1.99-2.95 3.936-4.45 5.573l-.38.414c-.751.817-1.452 1.567-2.273 2.238l-.366.279c-.875.617-1.882 1.028-2.82 1.712l-.4.299c-1.998 1.533-4.03 3.611-5.437 5.54l-.205.303c-.45.72-.727 1.496-1.256 2.085l-.247.252c-.855.804-2.02 1.276-2.67 2.138l-.128.182c-.498.773-.865 2.022-1.465 3.266l-.095.188c-.759 1.417-2.149 2.442-1.894 4.455l.047.232c.191.676.797 1.154 1.015 1.893l.073.28c.296 1.293.008 2.423-.207 3.83l.13.323c.686 1.733 1.24 3.591 2.524 4.72l.03.669c.074 2.447-.234 4.81-.03 6.893l.029.251c.172 1.322.64 2.34.103 3.595l-.081.174c-.602 1.196-2.402 3.106-3.5 3.806l-.3.177c-1.245.668-2.973.917-4.213 1.818l-.306.243c-.802.692-1.508 1.708-2.348 2.412l-.19.157c-1.542 1.246-3.523 2.42-3.655 3.69l-.006.182c.027.753.62 1.788.798 2.468l.068.261c.493 1.944.916 4.61.067 6.638l-.098.202c-1.155 2.067-5.744 1.691-6.271 4.043l-.031.218c-.042.64.35 1.188.296 1.907l-.015.129c-.13.813-.942 3.027-1.313 3.718l-.137.226c-.637.945-1.844 1.43-2.646 2.296l-.284.333c-.908 1.149-1.456 2.657-2.504 3.779l-.37.389c-1.519 1.562-3.464 3.176-5.335 4.517l-.228.16c-1.798 1.223-4.813 2.443-7.464 2.629l-.439.017c-.588.007-1.189-.05-1.797-.108l-.399-.038a20.31 20.31 0 0 0-.801-.058l-.402-.013-.402.002a6.945 6.945 0 0 0-.803.067l-.21.046c-.565.163-1.182.63-1.915.75l-.177.018-.178.002c-.12-.002-.239-.012-.359-.022l-.185-.014a3.84 3.84 0 0 0-.186-.009l-.186.003-.186.021-.249.057c-.741.209-1.443.746-2.14.74l-.163-.008c-1.692-.14-3.765-2.126-3.817-4.104l.018-.26c.108-.692.655-1.355.645-1.998l-.011-.143c-.117-.823-1.086-1.853-1.848-3.307l-.2-.409c-.633-1.374-.95-2.86-1.656-3.965l-.195-.286c-.795-1.101-1.766-1.698-2.325-2.635l-.204-.363c-1.03-1.962-1.133-4.237-1.521-6.538l-.068-.303c-.197-.714-.627-1.483-.73-2.351l-.03-.336c-.066-1.127.153-2.33-.101-3.246l-.066-.195c-.29-.715-1.052-1.451-1.528-2.327l-.196-.376c-.834-1.66-1.453-3.687-2.19-4.93l-.14-.221c-.78-1.186-2.123-2.421-2.249-3.757l-.017-.258c-.04-1.002.15-2.587.282-3.458l.067-.304c.225-.794.792-1.474.995-2.347l.046-.285c.06-.582-.053-1.22.084-1.838l.069-.271c.807-2.835 3.939-3.982 3.516-7.56l-.05-.302c-.28-1.369-1.254-2.152-1.411-3.812l-.006-.274c.033-.722.42-1.38.405-2.115l-.017-.23c-.13-1.109-.987-2.624-1.443-3.618l-.232-.514c-1.213-2.727-2.05-5.221-3.88-7.311l-.326-.354c-1.004-1.032-2.206-1.826-2.991-2.833l-.127-.169c-.685-.938-1.454-2.49-1.467-3.147l.01-.2c.081-.646.592-1.099.787-1.792l.052-.206c.23-1.016.271-2.727.612-4.172l.035-.135c.22-.776.892-2.362.762-3.446l-.022-.133c-.239-1.138-1.818-3.118-3.165-3.449l-.277-.057a4.509 4.509 0 0 0-.84-.059l-.283.012c-.569.037-1.15.147-1.756.258l-.346.062a13.62 13.62 0 0 1-1.443.188l-.377.017c-.254.006-.513 0-.778-.022l-.183-.126c-1.828-1.357-1.775-4.505-4.595-4.917l-.396-.05a11.498 11.498 0 0 0-.791-.059l-.396-.009-.395.003c-3.154.075-6.206 1.292-8.372 2.235l-.302.136c-1.413.654-2.836 1.534-4.077 1.59h-.315c-1.151-.057-2.286-.68-3.397-.793l-.442-.038c-.15-.01-.304-.017-.46-.022l-.473-.008-.484.005c-1.136.026-2.32.151-3.318.327l-.35.077c-1.387.355-2.655 1.291-3.895 1.38l-.266.011c-2.475.012-4.809-2.372-6.368-3.591l-.594-.448c-.793-.58-1.585-1.098-2.324-1.674l-.306-.225c-.938-.65-2.05-1.097-2.747-1.766l-.174-.186c-.873-1.031-.903-2.664-1.417-3.927l-.12-.26c-.743-1.452-2.577-2.568-3.994-3.985l-.148-.144c-1.186-1.119-3.563-2.718-3.833-4.101l-.026-.25c-.02-.677.335-1.428.291-2.14l-.027-.241c-.163-1.017-.917-1.64-.901-2.412l.02-.216c.175-1.064 1.4-1.914 1.706-2.837l.058-.227c.091-.477.054-1.077.206-1.629l.063-.208c.4-1.226 1.19-2.04.999-3.906l-.04-.234c-.168-.697-.717-1.368-.757-2.285l.009-.222c.065-.565.443-.935.39-1.503l-.031-.191c-.238-.972-1.55-1.24-1.695-2.464l-.012-.19c-.007-1.26 1.335-2.335 2.136-3.79l.12-.24c.307-.67.505-1.55.809-2.016l.195-.27c.746-.953 1.808-1.497 2.327-2.517l.117-.257c.327-.802.47-1.842.811-2.397l.121-.176c.517-.683 1.411-1.12 2.268-2.078l.155-.184c.644-.807.945-1.716 1.436-2.072l.234-.147c.651-.363 1.51-.488 2.156-.78l.33-.154c2.287-1.097 3.975-2.512 5.108-4.758l-.044-.284c-.268-1.934.267-2.819 1.106-4.226l.15-.254c.738-1.27 1.34-2.462 2.637-3.198l.236-.128c1.57-.82 3.035-.98 4.14-2.654l.12-.185c.571-.897 1.33-2.28 1.341-3.134l-.005-.153c-.086-1.287-1.387-2.849-2.515-3.032l-.184-.02-.193-.002-.199.011c-.27.023-.554.076-.839.127l-.155.029a6.884 6.884 0 0 1-.757.103l-.145.006c-.523.01-.976-.13-1.244-.65l-.046-.127c-.118-.465.119-1.311.046-1.732l-.056-.23c-.227-.75-.844-1.31-.872-1.891l.003-.235c.09-1.174 1.246-2.398 1.589-3.746l.078-.34c.363-1.795-.07-3.246-.213-5.364l.127-.19c.913-1.275 2.308-1.625 3.954-1.612l.237.004c1.748.048 3.76.465 5.769.6l.249.007.257-.013c.173-.013.351-.033.53-.055l.318-.036c.213-.022.426-.037.635-.032l.22.006c.947.037 1.81.163 2.556.161l.17-.002c1.006-.031 1.78-.338 2.227-1.492l.048-.144c.289-.96.525-3.658.351-4.37l-.037-.123c-.33-.961-1.96-3.09-2.752-3.588l-.175-.103c-1.304-.708-3.083-.436-3.803-1.888l.045-.17c.274-.923.878-1.165 1.614-1.156l.131.005c.398.02.83.103 1.266.187l.238.044c.397.074.794.138 1.168.146l.222-.003c.218-.01.427-.045.622-.115l.157-.073c.732-.435.69-1.816 1.438-2.052l.114-.022a.684.684 0 0 1 .118-.002l.121.018c.206.043.427.152.661.26l.156.07c.261.116.536.215.821.21l.115-.012c.767-.124 2.888-1.194 3.466-1.583l.2-.156c.694-.61.97-1.648 1.655-2.1l.197-.108c.475-.218 1.046-.212 1.53-.42l.246-.112c1.083-.515 2.364-1.428 3.07-2.277l.153-.19c.992-1.275 1.5-2.764 2.766-2.994l.153-.024c1.847-.266 5.657.321 5.951-1.57l.025-.24c.098-1.742-1.625-3.158-.953-5.069l.074-.187c.601-1.368 1.983-1.151 3.906-2.066l.125.1c.82.762.567 2.604.67 3.748h.148c1.275-.018 3.603-.406 3.832-1.46l.025-.17c.101-1.311-1.84-2.622-2.28-3.412l-.072-.138c-.437-.91-.58-2.337-1.52-2.516l-.216-.028-.216-.003-.216.021c-1.799.266-3.605 2.795-5.855 2.795l-.199-.006c-1.593-.096-3.228-1.32-3.648-2.513l-.066-.236c-.135-.624.032-1.227-.067-1.889l-.038-.217c-.206-1.02-.754-2.094-.491-3.495l.14-.219c1.077-1.548 3.29-1.843 4.902-2.701l.208-.127c.545-.368 1.02-.965 1.648-1.2l.245-.077c1.177-.31 2.78.035 3.869-.588l.144-.094c.567-.429.424-1.11.918-1.896l.127-.17c.38-.436 1.065-.743 1.465-1.287l.118-.195c.21-.41.276-.93.546-1.267l.227-.258c1.183-1.244 3.082-1.797 3.884-3.19l.055-.118c.199-.57-.693-.842-.45-1.74l.059-.106c.324-.49 1.085-.41 1.833-.33l.248.027c.164.016.325.03.478.033l.223-.002.207-.02.263-.06c1.22-.354 2.373-1.771 3.717-2.061l.378-.072c1.394-.226 2.855-.101 4.135-.592l.249-.108c.74-.36 1.432-.982 2.141-1.089l.084-.005c.157-.001.396.035.643.07l.16.024c.213.03.42.053.57.047l.22-.025c.445-.08.928-.317 1.505-.374l.3-.018c.919-.016 2.013.258 3.152.281l.42.001.416-.015c.414-.022.824-.06 1.228-.1l.286-.028c1.234-.116 2.407-.194 3.486.278l.16.081c.746.443.725 1.378 1.828 1.774l.15.043c.102.022.21.033.32.036l.171-.002c.174-.006.357-.025.549-.045l.254-.024c.26-.022.531-.035.814-.008l.3.041c1.21.216 2.488.994 4.077 1.156l.295.014.297-.004.299-.014.243-.013c.243-.01.485-.013.723.017l.44.066c1.775.316 3.684 1.21 5.4 1.788l.156.052c1.606.518 4.694 1.176 4.752 2.602l-.002.166c-.113 1.612-2.902 2.09-4.112 2.09l-.303-.008c-1.534-.078-3.384-.703-5.088-.732l-.339.002a4.803 4.803 0 0 0-1.3.208l.007.204c.161 2.698 2.908 4.756 5.62 4.743l.204-.005c.135-.006.27-.017.405-.033l.021-.166c.081-1.184-1.688-.517-1.483-1.825l.145-.098c.291-.176.595-.234.911-.222l.16.012c.427.046.877.204 1.35.361l.231.077c.467.15.955.284 1.465.298l.257-.003.26-.026.12-.043c.596-.278.497-1.254.674-1.947l.165-.101c1.161-.714 2.533-1.61 4.132-1.591l.23.01a4.38 4.38 0 0 1 1.444.355l.078-.134c.114-.169.266-.301.454-.396l.01-.171c.011-1.347-1.565-2.101-.674-3.413l.062-.104c.588-.812 2.889-.485 3.255.237l.026.167c.063.723-.634.687-.558 1.426l.089.177c.506.9 1.496 1.047 2.035 1.019l.22-.024c1.116-.182 1.413-1.25 2.568-1.836l.225-.095c.476-.169 1.087-.22 1.63-.435l.246-.11c.647-.316 1.209-.808 1.745-.951l.176-.034c.432-.058 1.01.017 1.549-.1l.236-.064c.712-.224 1.44-.734 2.02-.73l.18.015c.71.122 1.27.92 2.208 1.046l.168.01.174-.015c.47-.064 1.002-.326 1.648-.392l.242-.017c.242-.01.484.005.718.019l.238.013c.078.003.154.006.23.007l.22-.003.209-.02.285-.05c1.116-.233 1.933-.796 2.9-.746l.128.014c.575.1 1.388.629 1.954.659l.126-.003a.497.497 0 0 0 .312-.139l.096-.11c.593-.797-1.215-1.408-.622-2.148l.768.049c1.804.098 3.682.095 5.467.35l.566.092c2.822.521 5.49 1.844 8.055 1.898l-.035-.189c-.372-1.617-2.368-1.153-3.282-1.931l-.05-.05c-.354-.39-1.423-2.172-1.408-2.739l.01-.05c.125-.465 1.507-2.816 1.848-3.134l.126-.106c1.296-.99 4.916-.936 5.974.502l.092.136c.64 1.014.457 2.416 1.499 2.388l.145-.023c.848-.24 1.35-2.312 2.379-2.367l.132.005c.388.048.695.387 1.004.726l.1.11c.303.33.617.629 1.018.62l.17-.02c1.011-.213 1.77-2.053 3.148-2.103h.15l.14.01c.58.069.916.408 1.964.518l.116-.085c.602-.522-.372-1.19.018-1.904l.195-.126c1.568-.888 4.756-.16 6.571-.803l.08-.117c.305-.57-.721-1-.212-1.609l.23-.149c1.656-1.003 4.28-1.118 6.937-1.572l.363-.076c1.568-.38 3.04-1.407 4.277-1.518l.244-.012.242.008c.563.04 1.116.218 1.657.397l.268.088c.535.173 1.058.323 1.569.314l.292-.014c.692-.057 1.452-.265 2.098-.514l.24-.112c.623-.333 1.099-.923 1.752-1.084l.248-.05a4.73 4.73 0 0 1 .79-.05l.275.007c.277.011.562.035.849.057l.365.028c.244.018.489.032.732.036l.363-.004.36-.024.4-.05c1.054-.161 2.01-.495 2.842-.51h.118zm-57.772 212.47l.131.008c1.324.173 1.758 2.994 2.006 5.013l.026.181c.117.669.427 1.347.366 1.675l-.05.201c-.292.889-1.331 1.125-1.672 1.797l-.025.48c-.192 2.708-1.264 5.086-2.233 7.341l-.232.568c-.744 1.906-1.227 3.921-1.889 5.538l-.13.27c-.287.523-.725.964-.929 1.452l-.097.239c-.887 2.26-1.272 5.598-2.957 6.53l-.129.063c-.777.35-2.961.873-3.588.865l-.202-.01c-1.539-.116-2.847-1.293-3.245-2.64l-.065-.285c-.111-.667.045-1.363-.069-2.106l-.045-.243c-.21-.963-.739-1.824-.619-2.942l.049-.33c.46-2.481 2.881-3.773 3.004-5.906l.005-.386c-.048-1.546-.84-3.085-.669-4.653l.027-.195c.18-1.075.902-2.663 1.698-3.26l.269-.18c1.19-.717 2.697-.68 3.846-1.276l.242-.13c.99-.54 2.245-1.36 2.94-2.26l.16-.228c.491-.768.562-1.6 1.037-2.16l.134-.132c.395-.324 1.072-.465 1.454-.928l.087-.125c.29-.486.267-1.257.845-1.73.186-.08.359-.117.519-.117zm-35.414-3.206h-.265c-.593 1.104-1.223 3.765.265 4.381l.062-.103c.6-1.052 1.276-3.635-.062-4.277zm231.73.405l.117.005c.346.03.652.194.742.523l.007.117c-.006.45-.39.661-.822.691l-.109.004c-.473 0-.97-.207-1.066-.55.022-.492.599-.79 1.131-.79zm5.62-27.356l.165.006c1.522.11 3.922 1.683 4.224 2.67l.047.215c.064.509-.151 1.068-.047 1.64l.024.104c.225.837 1.344 2.6 2.365 2.682l.169.002.163-.019c1.18-.215 1.958-2.056 3.117-2.769l.182-.108c.882-.507 2.2-1.038 3.271-.954l.236.03c1.002.182 1.74.979 2.945 1.427l.358.122c.857.265 1.863.404 2.828.676l.405.133c.798.295 1.532.756 2.379 1.06l.34.121c3.085 1.074 6.639 1.768 8.283 3.728l.127.175c.343.544.39 1.264.939 1.816l.075.065c.716.545 3.557 1.102 3.637 2.325l-.003.17c-.09.805-1.264.91-1.32 1.818l-.003.2c.07 1.728 2.606 1.697 3.052 3.781l.069.023c1.076.382 5.12 3.295 3.776 4.618l-.098.086a.756.756 0 0 1-.309.146l-.108.015h-.11c-.635-.038-1.392-.712-2.288-.907l-.283-.056c-1.488-.254-2.653.081-3.698-.743l-.226-.198c-1.078-1.055-1.426-3.02-2.696-4.179l-.117-.1c-.755-.609-2.44-1.355-3.595-1.229l-.234.036c-1.874.377-1.926 2.65-3.746 3.68l-.32-.028a8.265 8.265 0 0 0-.594-.017l-.28.006c-.273.01-.53.03-.777.05l-.261.02c-.173.013-.34.024-.507.03l-.249.004a3.825 3.825 0 0 1-1.26-.198l-.233-.094c-1.284-.597-1.993-2.264-3.219-2.422l-.155-.01-.169.007c-.466.045-1.063.263-1.674.481l-.142.051c-.57.201-1.145.392-1.636.431l-.12.007h-.117c-.498-.016-.878-.236-1.025-.838l-.033-.178c-.181-1.514 2.265-2.057 2.418-3.137l.015-.161c.048-1.152-1.071-2.807-1.607-3.292l-.193-.15c-.534-.364-1.217-.434-1.798-.776l-.247-.169c-.564-.426-1.053-1.065-1.743-1.423l-.249-.123c-2.775-1.296-6.804-.806-7.842-3.062l-.047-.14c-.084-.376.126-.792-.086-1.32l-.088-.171c-.374-.596-1.3-.842-1.638-1.42l-.084-.153c-.815-1.612-.147-3.862 1.411-4.096.081-.012.166-.017.254-.017zm-15.749 20.067l.225.006c.38.021.78.098 1.208.245l-.08.198c-.667 1.453-2.556 1.454-3.766 2.191l-.224.143c-1.186.79-2.233 1.97-3.756 2.112l-.081-.134a1.196 1.196 0 0 0-.452-.398l.007-.179c.108-1.331 1.508-1.663 2.515-2.203 1.226-.668 2.543-1.98 4.404-1.981zm-16.002 2.55l.139.005c.839.068 1.747.733 1.769 1.542l-.161.191a3.5 3.5 0 0 1-.364.344l-.178-.057c-.954-.297-1.925-.57-2.211-1.536.234-.344.606-.49 1.006-.49zm-3.113-2.888l.129.003c.635.03 1.132.302 1.311 1.116l-.077.094c-.278.29-.748.35-1.274.356h-.159c-.106 0-.215-.002-.324-.004l-.18-.002-.18-.002-.18.002c-.593.011-1.147.093-1.473.484l-.18-.005c-1.318-.033-2.602-.095-2.872-1.189l.056-.115c.18-.32.48-.414.837-.418l.12.002c.205.008.425.04.649.07l.251.035c.252.031.504.052.742.03.882-.08 1.951-.458 2.804-.458zm5.535.216l.158.004c.848.042 1.727.416 1.851 1.034l-.058.098c-.198.281-.596.422-1.052.454l-.154.007c-.934.016-2.04-.387-2.182-.96.194-.438.792-.637 1.437-.637zm-33.174-5.668l.36.008c.242.01.485.032.724.063l.262.041c2.242.423 3.827 2.36 6.773 1.948l.235-.048c.611-.164 1.109-.59 1.756-.61l.272.002c.635.032 1.272.252 1.93.471l.256.085c.599.195 1.218.37 1.874.39l.284-.002.288-.024.08.099c.279.389.049.74.057 1.368l.19.094c1.563.723 3.94.644 4.715 2.156l-.137.134c-.37.33-.791.47-1.24.501l-.169.007c-.909.01-1.915-.377-2.833-.51l-.582-.066c-1.174-.104-2.407-.055-3.663-.198l-.552-.088c-1.64-.325-3.16-1.176-4.752-1.37l-.316-.029a5.86 5.86 0 0 0-.317-.008l-.317.006c-.211.008-.422.022-.632.036l-.327.021c-.109.007-.217.012-.325.016l-.322.004a4.457 4.457 0 0 1-.631-.046l-.113-.02c-1.336-.264-5.53-1.88-5.592-3.03-.051-.986 1.28-1.4 2.764-1.4zm-186.659-2.981h-.394c-.962 2.175.397 5.762 2.254 5.974l.063-.138c.337-.9-.912-1.524-1.124-2.52l-.031-.168c-.184-1.184.28-2.521-.768-3.148zm293.784.774l.1.013c.174.051.218.233.402.275l-.019.18c-.194 1.615-1.136 2.711-3.032 2.763l-.214.001a6.05 6.05 0 0 1-.453-.023l-.145-.017c-1.097-.153-2.83-.917-2.904-1.44l-.01-.129c-.023-1.725 4.925-.628 6.111-1.6a.642.642 0 0 1 .164-.023zM516.67 168.856l.137.013c.51.09 1.11.635 1.972.8l.237.034c.16.017.323.023.487.024l.244-.002.242-.006.22-.005a9.41 9.41 0 0 1 .215-.003l.205.004a2 2 0 0 1 .539.083l.198.081c1.1.53 1.91 2.264 3.118 3.237l.32.237c.66.457 1.437.825 2.065 1.352l.21.187c.683.643 1.211 1.455 1.782 1.805l.269.154c.833.449 1.904.794 2.916 1.442l.169.104c1.558.944 4.116 1.956 4.476 3.879l.016.175c.008.498-.237 1.198-.151 1.544l.054.153c.263.59 1.052.891 1.539 1.438l.11.134c.56.733.731 1.72 1.614 1.86l.117.025a.783.783 0 0 0 .108.009l.099-.006c.287-.04.474-.26.674-.481l.074-.081c.225-.24.481-.453.918-.397l.06.018c.48.213 1.822 2.104 1.798 2.638l-.018.14c-.172.794-1.453.809-1.84 1.98l-.07.24c-.481 1.845.307 3.867-.724 4.806l-.14.072c-.343.153-.802.193-1.294.2h-.213c-.143 0-.288-.002-.433-.005l-.288-.004-.285-.001-.547-.397c-2.154-1.607-3.923-3.486-5.823-5.574l-.254-.27c-.689-.71-1.455-1.36-1.869-2.12l-.215-.426c-.537-1.147-.808-2.365-1.508-3.42l-.225-.304c-.721-.89-1.817-1.595-2.431-2.612l-.168-.321c-.404-.88-.504-1.935-1.023-2.733l-.175-.237c-.555-.671-1.363-1.021-1.952-1.621l-.17-.2c-.323-.426-.55-.984-.888-1.392l-.16-.185c-1.706-1.88-4.721-2.945-4.88-5.786.176-.202.354-.279.542-.279zm59.313 15.01l.135.016c.69.165 1.539 1.483 1.967 1.573l.181.03c.061.006.122.01.184.01l.186-.005c.626-.046 1.295-.344 2.011-.642l.223-.092c.75-.305 1.55-.583 2.403-.553l.257.018.261.038.006.191c-.032 1.662-2.387 1.9-3.058 3.264l.227.37c.941 1.646 1.394 3.78 2.561 5.197l-.006.182c-.02.983.174 2.18-.394 2.605l-.184.028-.18.01c-2.438.036-3.793-4.403-4.812-6.005l-.12.032c-1.693.564-.376 5.862-2.212 6.13l-.13.01a1.513 1.513 0 0 1-.453-.07l-.13-.046c-1.121-.48.138-2.268-.137-3.666l-.058-.227c-.342-1.082-1.442-1.37-1.534-2.298l-.002-.165c.052-.77.922-1.576 1.195-2.356l.043-.133c.362-1.233.162-3.387 1.548-3.447h.022zm-29.172 3.415l.184.005c3.19.187 3.128 5.233-.184 5.233-3.377 0-3.377-5.238 0-5.238zm21.411-22.502l.131.008c1.056.141 2.193 1.917 2.305 2.758l.163.183c.691.696 1.836.94 2.356 1.806l-.075.207c-.837 2.143-2.897 2.43-2.444 5.629l.031.175c.118.561.446 1.435.766 2.083l.08.147c.435.734 1.418 1.5 1.377 1.975l-.027.14c-.256.849-2.079.86-2.496 1.85l-.06.152c-.296.823.081.96-.07 2.368l-.115.193c-.627.924-1.972 1.232-2.409 2.463l-.066.208c-.442 1.546.095 3.46-1.125 4.57l-.185.002c-.371.026-.757.179-1.158.331l-.188.071c-.316.117-.642.221-.977.254l-.203.01-.205-.008-.193-.031c-1.095-.248-2.182-1.673-3.925-1.696l-.205.01c-.276.03-.567.11-.861.192l-.202.056a4.622 4.622 0 0 1-.601.127l-.195.017-.191-.002-.152-.023c-.5-.11-.948-.561-1.708-.77l-.23-.058c-.913-.203-1.746-.091-2.15-.342l-.142-.103c-.754-.63-.65-2.095-.925-2.95l-.069-.178c-.368-.804-1.364-1.309-1.917-2.475l-.062-.136c-.82-1.868-1.119-5.733 1.121-6.098l.198-.02.197.001c.33.02.657.12.967.219l.161.051c.266.085.516.159.74.17l.131-.003.125-.02.19-.06c1.07-.427.92-1.947 1.934-2.597l.173-.092c.615-.265 1.583-.158 2.349-.438l.213-.09c.765-.365 1.359-1.115 1.909-1.765l.149-.192c.489-.669.909-1.628 1.575-2.063l.273-.163c.72-.39 1.39-.45 1.983-.9l.275-.225c1.474-1.306 1.597-3.04 2.908-4.553.23-.264.486-.375.751-.375zm-201.953 17.376l-.162.004c-1.472.059-3.18.92-3.49 1.97l-.069.279c-.214 1.101.249 2.02-.201 3.172.436.817 1.421 1.088 2.674 1.088l.253-.003c.17-.005.346-.014.525-.026l.156-.078c.726-.41.654-1.122 1.037-1.912l.085-.163c.483-.87 1.405-1.796 1.242-2.887l-.03-.157c-.217-.918-1.052-1.286-2.02-1.287zm212.57-2.547l.272.012c.937.08 2.157.525 3.356.529l.357-.008c.355-.014.704-.047 1.045-.08l.234-.024c.93-.09 1.78-.147 2.472.244l-.015.172c-.14 1.16-.95 1.53-2.083 1.573l-.164.004h-.168c-.738-.01-1.588-.13-2.467-.249l-.394-.052c-.792-.104-1.598-.196-2.36-.197l-.376.008a6.48 6.48 0 0 0-.724.07l-.148.03c-.424.108-.668.364-1.021.426l-.122.013a1.174 1.174 0 0 1-.439-.076l.012-.146c.139-1.072 1.302-2.115 2.509-2.239.072-.007.147-.01.224-.01zm-99.6-20.822l.075.028c1.225.538 4.858 5.033 3.773 7.537l-.05.1c-.33.609-1.298 1.315-2.343 1.381l-.175.005c-.116 0-.234-.01-.351-.029l-.16-.032c-2.446-.626-1.948-6.279-1.168-8.591a.686.686 0 0 1 .399-.4zm-341.57-1.153l-.108.013c-.074.014-.152.04-.234.078-.919.425-.503 2.004.402 2.004l.063-.003.065-.008.097-.024c.837-.27.657-2.11-.285-2.06zm178.827-87.11l-.114.015c-.463.094-1.008.599-1.265.947l-.048.241c-.465 2.666 1.788 2.888 2.832 4.135l.178.229c.626.868.993 2.027 1.682 2.559l.206.14c.775.463 1.769.4 2.712.788l.206.104c.6.36 1.035 1.113 1.65 1.486l.15.087c1.27.697 3.157.876 3.301 2.302-.147.1-.33.136-.533.136l-.19-.008c-.193-.017-.401-.056-.612-.095l-.258-.047a3.32 3.32 0 0 0-.628-.057l-.12.008c-.35.035-.653.189-.842.596l-.02.192c-.013.74.702 1.175.684 1.93l-.009.14c-.114 1.126-1.228 2.296-2.357 2.397l-.141.007c-.094 0-.188-.006-.281-.022l-.014-.191c.015-.694.705-1.293.678-2.066l-.014-.156c-.248-1.688-3.49-4.134-5.159-4.885l-.31-.121c-.74-.254-1.572-.315-2.214-.675l-.214-.125c-1.325-.797-3.413-2.466-4.164-3.456l-.098-.134c-.908-1.28-1.734-3.444-3.749-3.319l-.21.028c-.758.154-1.403.838-2.045 1.169l-.39.193c-.526.257-1.08.52-1.6.865l-.19.129c-.69.468-1.274.906-1.934.934h-.254c-.671-.025-1.303-.255-1.913-.486l-.218-.082c-.58-.22-1.144-.415-1.705-.407l-.21.013-.21.034-.143.041c-.422.15-.8.547-1.318 1.022l.003.248c.028.64.217 1.115.131 1.872l-.09.13c-.502.613-1.684.6-2.564 1.066l-.314.18c-1.246.77-2.367 2.117-3.401 3.137l-.165.162c-.653.638-1.213 1.178-1.296 1.695l-.007.142c.02.46.369 1.185.276 1.716l-.032.12c-.226.675-1.336 1.88-2.093 2.4l-.21.123c-.434.216-.953.285-1.382.54l-.215.135c-.899.597-1.36 1.305-2.174 1.456l-.161.028c-2.347.365-6.371-.437-6.34 1.964l.01.158c.159 1.484 2.272 1.488 3.573 1.432l.394-.007c.65 0 1.264.056 1.826.112l.299.03c.784.079 1.46.135 1.991 0l.217-.072c.656-.265 1.358-.948 2.038-1.255l.205-.08c.409-.138.814-.163 1.122-.318l.253-.142c.643-.397 1.058-.936 1.606-1.185l.275-.117c1.256-.496 3.29-.874 4.5-.945l.489-.02c.164-.003.329-.004.495-.004l.502.008c.337.008.68.022 1.032.036l.458.016c.463.016.94.028 1.438.026l.504-.008c.341-.009.691-.026 1.052-.055l.309-.043c.72-.146 1.44-.558 2.214-.62l.29-.013.3.006c.608.028 1.263.148 1.891.268l.282.054c.651.124 1.262.233 1.746.218l.223-.025c.75-.139 1.573-.786 2.431-.772l.179.01c1.012.09 2.027.805 2.21 1.45l.022.138c.02.388-.236.935-.155 1.453l.043.199c.225.825.934 1.21.887 1.791l-.023.121c-.239.816-2.104 1.866-1.836 2.798l.046.112c.31.594 1.665 1.2 2.343 1.614l.199.118c.765.443 1.902.986 2.719 1.074l.224.015.22-.004c.219-.01.431-.043.642-.075l.207-.03a3.34 3.34 0 0 1 .831-.035l.222.03c1.148.179 2.816.818 3.494 1.295l.195.15c1.038.882.957 2.162 2.325 2.635l.199.055c.636.138 1.608.055 2.32.213l.286.07c1.791.503 3.152 1.942 4.492 1.785l.188-.027c1.976-.353 1.03-2.367 1.273-3.819l.038-.184c.771-3.196 7.17-3.007 8.452-.747l.287.065c.853.155 1.64.01 2.632.333l.206.087c.537.27.973.836 1.519.975l.158.029c.055.006.112.01.17.011l.181-.001c.124-.005.253-.015.385-.025l.208-.016c.21-.014.421-.02.623.002l.345.05c2.178.367 4.182 1.804 6.088 1.844l.3-.006.299-.03.292-.06c1.24-.325 2.195-1.455 3.421-1.532l.317-.009.309.013c.811.06 1.538.323 2.258.585l.205.074c.75.271 1.5.522 2.342.523l.232-.006c.39-.021.8-.098 1.239-.252l.193-.076c1.793-.77 1.395-2.789 2.061-4.834l.102-.287c.497-1.317 1.306-2.258 1.356-3.293l.006-.264c-.007-1.298-.556-2.358-.669-4.246l-.192-.108a2.708 2.708 0 0 0-1.282-.32l-.177.006c-.76.051-1.485.4-2.222.75l-.21.099c-.635.297-1.282.572-1.974.64l-.233.014a3.119 3.119 0 0 1-.476-.022l-.226-.04c-1.263-.29-2.249-1.597-3.546-1.7l-.233-.005-.239.022-.199.049c-.767.257-1.209 1.254-2.059 1.408l-.214.031-.206.013c-.673.014-1.217-.244-1.759-.503l-.152-.072c-.456-.215-.917-.412-1.457-.429l-.184.001a2.728 2.728 0 0 0-.803.166l-.279-.221c-2.646-2.18-3.854-5.603-4.499-9.466l-.12-.15c-.448-.52-.957-.755-1.48-.796l-.143-.006-.143.003c-1.198.06-2.429 1.04-3.155 1.877l-.111-.003c-.263-.015-.543-.07-.795-.088l-.107-.005h-.102c-.3.013-.534.124-.607.495l-.035.217c-.25 2.253 3.501 2.547 3.482 4.162l-.012.147c-.146.928-1.58.87-2.243 1.576l-.125.146c-.56.727-.182 1.373-1.067 1.844l-.226.023a5.749 5.749 0 0 1-.218.014l-.208.006c-2.111.012-2.83-1.364-2.8-3.492l-.315-.456c-1.07-1.487-2.334-2.636-3.267-3.922l-.107-.15c-.37-.52-.848-1.259-.954-1.974l-.015-.212c0-.582.291-1.275.149-1.91l-.047-.156c-.437-1.189-2.662-2.094-4.068-2.761l-.341-.16c-1.502-.69-3.27-1.361-4.302-2.23l-.189-.175c-.663-.675-1.03-1.676-1.668-2.079l-.228-.12c-.545-.24-1.168-.222-1.632-.543l-.134-.107c-.58-.513-.537-1.266-1.457-1.488l-.103-.026-.11-.005zM599.45 81.167l.209.028c2.319.36 5.25 2.608 5.627 4.885l.028.305c.018.813-.373 1.63-.295 2.48l.032.184c.125.497.55 1.034.762 1.674l.221.681c.425 1.358.747 2.69 1.109 3.963l-.169.192c-1.51 1.58-4.265.99-6.33 1.93l-.181.1c-.865.562-1.167 2.05-2.078 2.287l-.141.027-.137.004c-.317-.013-.608-.18-.899-.347l-.132-.074c-.263-.148-.528-.277-.813-.272l-.181.013c-1.488.186-2.393 2.25-3.962 2.485l-.192.019h-.199a2.321 2.321 0 0 1-.641-.127l-.125.086c-1.123.91.123 3.774-1.467 4.024l-.15.014c-1.075.038-1.693-1.382-2.372-2.27l-.146-.182c-.846-1.012-1.94-1.61-1.973-2.472l.007-.132c.13-.953 1.924-2.423 2.51-3.05l.14-.149c.786-.83 2.15-2.175 3.043-2.374l.346-.064c.462-.071.924-.087 1.377-.085l.338.004.334.009.305.007c.806.019 1.561.007 2.213-.267l.184-.094c.986-.6 1.079-2.257 1.672-2.692l.18-.114c.485-.26 1.009-.199 1.413-.416l.12-.07c1.196-.745 2.417-2.967 1.737-5.237-.443-1.48-2.898-3.103-1.324-4.913zM363.109 95.483l.146.005c.482.028.91.199 1.083.543l-.023.102c-.165.571-.955 1.027-1.7 1.09l-.13.008c-.52.012-.997-.18-1.196-.67.038-.668.979-1.078 1.82-1.078zm35.858-28.055l-.268.005c-1.675.061-2.951.633-4.375 1.662l-.242.17c-.974.665-2.007 1.14-2.545 1.557l-.11.093c-.518.471-1.139 1.496-1.083 2.027l.028.15c.201.734 1.261 1.221 1.699 2.24l.076.215c.152.515.136 1.103.321 1.51l.128.25c.65 1.142 2.01 1.93 3.057 2.932l.11.105c.869.798 2.899 2.345 2.941 3.213l-.004.164c-.063.622-.696.822-.921 1.561l-.05.171c-.237.856-.48 2.51-.348 3.145l.043.176c.374 1.288 1.814 1.36 3.135 1.95l.274.127c1.274.622 2.513 1.564 3.841 1.595l.177.001.259-.004c1.383-.053 2.779-.527 3.545-1.324l.04-.322c.454-4.297-2.978-4.702-3.622-7.904l.086-.002c.19-.046.09-.381.314-.396l.138-.053c.328-.098.706-.026 1.073.046l.12.024c.197.039.389.072.566.072l.105-.005c.273-.023.502-.145.647-.48l-.005-.141c-.083-1.172-1.281-2.088-2.725-2.083l-.174.005c-.35.019-.714.092-1.077.23l-.116-.093c-.399-.365-.514-1.012-.619-1.672l-.058-.36-.143-.084c-1.583-.929-5.082-2.82-5.033-4.56l.011-.15c.164-1.38 2.01-2.15 4.102-2.105l.099-.086c.77-.769.194-2.756-.629-3.23l-.35-.074a12.81 12.81 0 0 0-2.163-.265l-.275-.003zm-80.692 21.355l.478.009c.483.018.977.058 1.458.099l.347.029c.573.047 1.119.087 1.592.078l-.068.206c-.301.981-.397 2.166-1.129 2.713l-.27-.05c-2.071-.39-3.971-.945-4.902-2.47.594-.48 1.501-.615 2.494-.615zm-10.436-7.361l.108.004c1 .084 1.64 1.345 1.199 3.723l-.042.097c-.32.69-1.17 1.483-1.96 1.558l-.112.006c-.41.003-.796-.201-1.072-.73l.065-.315c.207-1.133.1-2.043.069-3.402.605-.63 1.219-.941 1.745-.941zm60.91-13.914l-.187.003c-2.007.05-4.587.818-4.354 2.38l.036.168c.275.925 1.522.411 1.819 1.556-1.195.426-2.63 1.486-3.914 1.486l-.167-.006-.164-.018-.197-.041c-1.464-.38-1.882-2.261-2.721-3.41l-.198-.005c-.518-.038-.97-.285-1.435-.533l-.173-.091c-.406-.21-.832-.401-1.33-.44l-.218-.007-.228.014-.184.03c-1.442.32-2.236 2.451-3.001 3.555l-.15.19c-.417.485-.972.785-1.178 1.267l-.04.131c-.064.328.035.78-.09 1.197l-.083.237c-.51 1.299-1.641 1.848-1.513 3.079l.04.221c.246 1 1.34 1.51 1.423 2.433l-.021.13c-.213.844-1.697.414-1.572 1.596l.166.131c2.216 1.692 2.369-1.067 3.55-1.46l.176-.046c.492-.103 1.161-.035 1.853.034l.275.026c.366.035.733.063 1.078.059l.254-.01c.167-.01.326-.03.475-.063l.245-.068c.884-.304 1.629-1.132 2.673-1.523l.238-.085a8.054 8.054 0 0 1 2.286-.447l.48-.008.469.017c3.697.223 6.278 2.57 9.665 2.644l.322.004c.113.001.232.002.355.001l.383-.003c1.18-.018 2.638-.096 3.582-.267l.202-.04c3.333-.726 1.717-3.668-.069-4.734l-.47-.271c-1.278-.715-2.741-1.38-4.174-2.252l-.106-.06c-1.07-.584-4.383-1.624-4.404-2.725l.005-.114c.131-1.159 2.605-1.608 1.586-3.734l-.137-.03a5.645 5.645 0 0 0-.977-.097l-.182-.001zM134.941 77.775l-.258.012c-1.285.096-2.488.713-3.592.862l-.101.011c-.938.091-2.491-.15-2.288 1.181.085.56.559.742 1.139.742l.256-.011c.52-.041 1.09-.195 1.523-.333l.384-.123c1.878-.613 3.112-1.173 4.259-2.13l-.268-.084a3.762 3.762 0 0 0-1.054-.127zm461.27-6.18l.16.01c1.378.158 3.728 2.225 6.394 2.664l.188.03c1.805.273 3.286.176 3.393 1.96l-.074.143c-.316.516-.867.424-1.383.785l-.118.094c-.518.457-1.117 1.514-1.738 1.632l-.176.021c-.472.023-.966-.2-1.458-.423l-.172-.078c-.403-.179-.803-.339-1.189-.347l-.164.006-.162.027-.145.04c-1.04.334-.388 1.257-.783 2.346l-.134-.033c-1.095-.296-2.744-1.46-2.784-2.62l.008-.16c.1-.67.966-1.135 1.188-1.961l.048-.223c.243-1.374-.703-2.131-1.244-3.495l-.006-.08c.01-.14.133-.17.137-.318.068-.014.139-.02.214-.02zm-288.197 6.14l.1.007c.202.029.417.144.633.377l.02.192c.074.99-.374 1.454-.948 1.798-1.422-.25-.809-2.373.195-2.373zm-180.329-7.964l-.181.002c-1.116.037-2.724.51-3.316.916l-.155.124c-.505.458-.884 1.335-1.435 2l-.272.313c-.551.608-1.132 1.116-1.585 1.675l-.037.047c-.564.722-3.08 4.43-1.026 4.862a.655.655 0 0 0 .134.014l.12-.01c.954-.132 2.506-1.742 2.666-2.393l.085-.327c.614-2.262 1.696-3.892 3.496-4.98l.15-.086c1.043-.569 2.07-.555 2.239-1.904l-.074-.068c-.168-.126-.457-.181-.809-.185zm15.691 4.78l-.217.001c-.585.008-1.204.065-1.721.115l-.155.017c-.832.095-1.75.294-1.836.911.66.304 1.863.566 2.987.566l.193-.003c1.153-.032 2.18-.359 2.395-1.224l-.097-.08c-.322-.222-.903-.297-1.549-.303zm-9.83-5.2l-.199.003c-.92.047-1.786.502-2.126.936l.005.2c.063.622.574.793.528 1.523l-.112.09c-1.136 1.017-.456 3.918.776 4.026a.729.729 0 0 0 .066.002l.137-.012c1.218-.227 1.932-3.413 3.642-3.706l.158-.016c.254-.01.465.07.695.147l.119.04c.241.078.515.14.885.094l.106-.092c.902-.846.434-2.415-.635-2.695l-.118-.018-.126.003c-.171.017-.36.079-.567.142l-.168.048c-.115.032-.235.06-.36.077l-.19.018-.197-.004-.25-.04c-.665-.16-1.32-.709-1.871-.757l-.199-.01zm283.655 1.17l-.108.001a1.11 1.11 0 0 0-.214.032c-2.024.506-.053 3.468 1.406 3.469l.095-.005.094-.013.134-.032c1.796-.497.112-3.388-1.407-3.451zm31.662-2.32l-.076.005c-.56.075-1.157.914-.725 1.555.044.001.087.004.129.004l.144-.006c.692-.058.959-.541 1.049-1.195l-.05-.09c-.126-.194-.294-.274-.47-.273zm143.287-3.085l.088.046c1.36.716 4.36 2.254 2.166 3.67-1.357-.502-2.77-2.22-2.254-3.716zm-464.169-2.217l-.252.005c-2.04.106-4.592 1.761-6.723 2.342l-.19.05c-1.33.338-2.558.42-2.862 1.545.372.617.852.828 1.391.828l.222-.012c.526-.05 1.098-.267 1.675-.484l.236-.087c.708-.261 1.417-.49 2.048-.378l.208.056c.806.296 1.333 1.389 2.18 1.534l.082.01c.062.006.14.008.23.009l.144-.001c1.174-.022 3.843-.325 4.057-.416l.152-.07c2.366-1.194-.698-4.53-1.877-4.838l-.234-.05a2.993 2.993 0 0 0-.24-.031l-.247-.012zm155.877-23.67l.117.007a.748.748 0 0 1 .36.139l-.015.195c-.104.669-.702.842-.782 1.53l.034.152c.318.989 2.264.351 2.485 1.438l-.048.222c-.288 1.052-1.27 1.32-1.278 2.169l.011.123c.144.81 1.635 2.21 2.378 3.194l.209.248c.593.648 1.45 1.176 1.915 1.874l.116.19c.36.642.474 1.348.812 1.667l.117.1c.74.574 2.16.72 2.271 1.625l.01.194c-.032 1.129-1.57 1.647-1.336 2.99l-.206.149c-1.053.702-2.46.783-4.009.79h-1.214c-.789.003-1.598.023-2.401.123l-.156.025c-.833.157-1.715.703-2.6.796l-.167.012h-.166a1.947 1.947 0 0 1-1.157-.434l-.037-.135c-.136-.771 1.225-.922 1.365-1.721l-.032-.146c-.202-.626-1.08-.572-1.296-1.181l.064-.15c.439-.907 1.519-1.17 1.398-2.638l.122-.118c.765-.661 2.054-.44 2.266-1.473l.02-.144c.06-.73-.506-1.582-1.216-1.98l-.173-.077c-.426-.146-.99-.088-1.419-.322l-.22-.133c-1.13-.748-1.587-2.079-2.299-2.386l.012-.286c.023-1.31-.384-2.285-.012-3.167l.044-.088c.361-.635 1.985-2.117 2.875-2.43l.205-.065c1.095-.306 2.206-.031 2.847-.863a1.41 1.41 0 0 1 .186-.014zm-8.82 8.27l.193.004c1.413.055 2.754.703 2.865 1.557l.011.168c-.003.848-.975 1.037-1.337 2.087l-.063.22c-.228.964.097 2.052-.332 2.702l-.09.112c-.46.49-1.469.472-2.169.681l-.131.042c-1.03.337-2.57 1.131-3.915 1.232l-.174.009h-.172c-.739-.016-1.396-.286-1.844-1.017l.051-.224c.293-.987 1.31-1.252 1.676-2.162l-.009-.171c-.089-.661-.775-1.064-.655-1.818l.028-.141c.208-.829.94-.537 1.962-.923l.16-.073c.671-.358 1.028-1.213 1.964-1.785.571-.35 1.278-.5 1.981-.5zm235.644-.03l-.15.032c-1.306.341-.278 1.856-.379 2.755l-.042.243c-.277 1.19-1.5 2.074-1.418 3.34l-.1.107c-.515.52-1.285.787-1.358 1.749.175.12.329.17.469.17l.121-.012c.471-.101.796-.78 1.267-1.22l.184-.165c1.01-.856 2.403-1.418 2.734-2.49l.061-.22c.393-1.616-.398-3.222-1.389-4.29zm-398.265 3.794l-.136.005a2.021 2.021 0 0 0-.298.047c-1.645.386-2.056 3.85-.063 3.85h.063l.094-.01c1.304-.209 2.174-3.71.466-3.886l-.126-.006zm-68.781-.942l.123.006c.324.036.625.218.826.594l-.063.167c-.321.75-1.04 1.104-1.797 1.423l-.184-.15a3.27 3.27 0 0 1-.479-.512c.038-.837.841-1.528 1.574-1.528zm290.938-26.132l-.239.007c-1.114.056-2.222.395-2.768.982l-.084.104c-.308.449-.332 1.238-.844 2.02l-.155.21c-1.338 1.624-4.926 1.906-6.081 4.036l-.056.11c-.27.56-.664 1.784-.476 2.543l.055.158c.497 1.13 3.044 1.498 3.131 2.76l.004.207c-.076 2.002-3.418 1.8-3.853 3.644l-.034.22c-.07.83.437 1.854.301 2.564l-.038.158c-.341 1.204-1.648.859-3.279 1.566l-.173.088c-.807.467-1.598 1.675-2.48 1.768-.064.007-.127.01-.187.01l-.202-.011c-.26-.03-.49-.114-.702-.197l-.135-.054a2.074 2.074 0 0 0-.513-.15l-.125-.006-.126.014-.135.035c-.709.245-.516 1.21-1.725 1.423l-.156.017-.166.002c-.283-.01-.597-.073-.907-.137l-.123-.026a5.27 5.27 0 0 0-.7-.11l-.105-.003-.1.002c-.361.02-.62.181-.661.653v.103c.056.707 1.382 1.114 2.38 1.104l.14-.004.134-.01.27-.044c.702-.158 1.264-.612 1.984-.62l.288.01c1.412.12 2.368 1.158 3.294 1.185l.273-.002c1.002-.047 1.996-.49 3.002-.935l.254-.112c1.104-.483 2.22-.926 3.373-.809l.241.037c.937.186 1.54.831 2.279.76l.238-.038c1.177-.264 2.19-1.593 3.078-2.087l-.032-.193c-.344-2.207.13-4.993 2.157-5.113l.167.001c.454.033.967.284 1.462.535l.11.055c1.018.515 1.942.961 2.106-.591l.007-.139c0-1.008-1.176-1.868-1.996-1.852l-.083.008c-.501.074-1.092.698-1.608.75l-.086.004c-.225-.007-.434-.138-.612-.494l.007-.144c.11-1.047 1.392-.762 2.118-1.053l.204-.1c.461-.27.835-.764 1.387-.96l.297-.095c.702-.198 1.456-.251 2.216-.245l.325.006c.435.013.87.041 1.296.07l.218.014c.507.033 1 .062 1.464.06l.197-.002c1.237-.03 2.248-.316 2.743-1.4l-.182-.146c-.739-.551-1.602-.744-2.53-.732l-.233.007c-1.172.056-2.438.412-3.68.768l-.367.106c-1.1.314-2.172.605-3.132.66l-.316.01-.307-.01-.18-.017c-1.33-.158-2.985-1.135-3.402-2.371l-.037-.142c-.077-.392.003-.902-.096-1.58l-.04-.232c-.157-.775-.517-1.552-.489-2.027l.023-.19c.43-2.233 6.078-2.738 6.078-5.646l-.13-.113c-.553-.429-1.482-.625-2.435-.612zM98.717 31.548l-.186.004c-.84.074-1.303.847-2.204 1.322l-.156.078c-1.104.53-2.526.704-2.629 1.648.362.07.718.102 1.065.102l.345-.01c1.483-.085 2.793-.687 3.765-1.021l.136-.043c.737-.205 1.674-.13 1.853-.888l-.143-.117c-.575-.478-1.17-1.05-1.846-1.075zm60.112-1.409l.14.004c.654.033 1.295.297 1.312.74l-.005.068c-.08.46-1.09 1.06-1.905 1.111l-.121.004c-.436-.003-.795-.182-.89-.653l-.01-.066c-.024-.263.066-.704.542-.992.238-.147.583-.216.937-.216zm-60.954-8.21l-.171.004c-1.44.058-3.171.614-4.426.724l-.117.19c-.478.748-1.054 1.396-1.209 2.464.27.07.548.099.832.099l.356-.015c1.555-.124 3.279-1 4.912-1.28l.2-.024c.2-.017.4-.012.594-.007l.13.004.129.001.126-.001c.418-.011.795-.096 1.08-.502l-.045-.18c-.314-1.1-1.166-1.454-2.222-1.476h-.169zm90.73-.078l-.077.006c-.43.052-.754.462-.384.933.088.01.17.015.247.015l.103-.003c.43-.032.653-.27.578-.807l-.075-.046a.779.779 0 0 0-.392-.098zm230.264-8.797l-.163.005a2.896 2.896 0 0 0-.365.048l-.005.06c-.007.145.01.317-.129.334l-.004.275c.088 2.675 4.042 3.433 3.984 5.695l-.013.177c-.14 1.067-1.293 1.252-.915 2.612.285.067.556.097.812.097l.167-.004c2.424-.131 3.376-3.109 1.541-4.87l-.097-.08c-.573-.407-2.053-.627-2.684-1.642l-.078-.132c-.654-1.146-.688-2.557-2.051-2.575zm-237.751 5.499l.145.004c.48.032.911.225 1.175.65l.013.09c.053.776-1.526 1.67-2.688 1.74l-.133.003c-.52.003-.934-.179-1.042-.635-.199-.852 1.288-1.852 2.53-1.852zm-65.932-1.58l-.097.003c-.71.04-1.29.67-1.379 2.1.691.562 1.482.735 2.318.735l.41-.012c.553-.033 1.12-.124 1.688-.216l.243-.038c.648-.104 1.295-.195 1.918-.19l.232.007c.693.036 1.353.21 1.948.644l.08-.052c.44-.28 1.02-.658.714-1.276l-.215-.09c-.884-.327-2.072-.295-3.324-.262l-.513.012-.517.007a13.556 13.556 0 0 1-1.532-.065l-.087-.119c-.528-.697-1.19-1.13-1.788-1.182l-.099-.005zm263.272-.733l.108.005c.574.044 1.138.436.899 1.106l-.088.07c-.16.108-.381.173-.615.195l-.142.008c-.426.007-.86-.126-1.013-.405-.181-.671.318-.979.851-.979zm98.791-10.3l-.263.007c-1.267.065-1.804.6-2.655 1.054-.499.265-1.514.414-1.192 1.194l.147-.02c1.311-.179 3.67-.768 3.963-2.235z" fill="#DEE4EC" fill-rule="evenodd"></path></svg> 