<?xml version="1.0" encoding="UTF-8"?> <svg xmlns="http://www.w3.org/2000/svg" xmlns:xlink="http://www.w3.org/1999/xlink" width="20px" height="20px" viewBox="0 0 20 20" version="1.1"><!-- Generator: Sketch 62 (91390) - https://sketch.com --><title>Group 11</title><desc>Created with Sketch.</desc><g id="Pages" stroke="none" stroke-width="1" fill="none" fill-rule="evenodd"><g id="P---15---Careers" transform="translate(-630.000000, -2580.000000)"><g id="Group-13-Copy-3" transform="translate(630.000000, 2580.500000)"><g id="Group-11" transform="translate(1.000000, 0.383333)"><path d="M9.46064308,3.26904 C7.06784308,2.23824 4.18664308,2.70024 2.23184308,4.65504 C1.83104308,5.05584 1.50104308,5.49864 1.22624308,5.96424 L4.03424308,8.77224" id="Stroke-1" stroke="#2DB5E6" stroke-width="1.8" stroke-linecap="round" stroke-linejoin="round"></path><path d="M15.1887231,8.96724 C16.2459231,11.36844 15.7827231,14.27124 13.8159231,16.23924 C13.4151231,16.64004 12.9723231,16.96884 12.5067231,17.24484 L9.68672308,14.42484" id="Stroke-3" stroke="#2DB5E6" stroke-width="1.8" stroke-linecap="round" stroke-linejoin="round"></path><path d="M2.81144308,11.02512 C2.81144308,11.02512 6.76904308,1.17912 17.8702431,0.59952 C17.2414431,11.65272 7.44464308,15.65832 7.44464308,15.65832" id="Stroke-5" stroke="#2DB5E6" stroke-width="1.8" stroke-linecap="round" stroke-linejoin="round"></path><path d="M3.96572308,17.06964 C3.25412308,17.78124 0.402923084,18.05724 0.402923084,18.05724 C0.402923084,18.05724 0.680123084,15.20604 1.39052308,14.49444 C2.10212308,13.78404 3.25412308,13.78404 3.96572308,14.49444 C4.67612308,15.20604 4.67612308,16.35804 3.96572308,17.06964 Z" id="Stroke-7" stroke="#2DB5E6" stroke-width="1.8" stroke-linecap="round" stroke-linejoin="round"></path><path d="M12.7137231,4.3788 C13.3761231,4.3788 13.9137231,4.9164 13.9137231,5.5788 C13.9137231,6.2412 13.3761231,6.7788 12.7137231,6.7788 C12.0501231,6.7788 11.5137231,6.2412 11.5137231,5.5788 C11.5137231,4.9164 12.0501231,4.3788 12.7137231,4.3788" id="Fill-9" fill="#2DB5E6"></path></g></g></g></g></svg> 