<?xml version="1.0" encoding="UTF-8"?> <svg xmlns="http://www.w3.org/2000/svg" xmlns:xlink="http://www.w3.org/1999/xlink" width="49" height="50"><defs><circle id="a" cx="15.257" cy="15.257" r="15.257"></circle></defs><g transform="translate(9 9.5)" fill="none" fill-rule="evenodd"><use fill="#FFF" xlink:href="#a"></use><circle stroke="#FFF" stroke-width="9" fill-opacity=".2" fill="#2DB5E6" cx="15.257" cy="15.257" r="19.757"></circle><g transform="translate(8.166 8.757)" fill="#2DB5E6" fill-rule="nonzero"><path d="M0 0H5.318V1.182H0z"></path><path d="M1.182 2.364H5.318V3.546H1.182z"></path><path d="M2.364 4.727H5.319V5.909000000000001H2.364z"></path><path d="M3.545 7.091H5.318V8.273H3.545z"></path><path d="M13.855 5.971l-2.12-1.06-.525-2.1a.59.59 0 0 0-.574-.447H6.5v7.681c0 .325.03.591.03.591A2.653 2.653 0 0 0 9.16 13a2.653 2.653 0 0 0 2.628-2.364h1.803c.326 0 .59-.264.59-.59V6.5a.592.592 0 0 0-.326-.529zm-4.696 5.847a1.479 1.479 0 0 1-1.477-1.477c0-.815.663-1.477 1.477-1.477.814 0 1.477.662 1.477 1.477 0 .815-.663 1.477-1.477 1.477zm-1.477-6.5V3.545h2.567l.387 1.773H7.682z"></path></g></g></svg> 