<?xml version="1.0" encoding="UTF-8"?> <svg xmlns="http://www.w3.org/2000/svg" width="24" height="23"><g transform="translate(1 1.25)" stroke="#2DB5E6" stroke-width="2" fill="none" fill-rule="evenodd" stroke-linecap="square"><path d="M2 11V1a1 1 0 0 1 1-1h16a1 1 0 0 1 1 1v6M8 15H0a3 3 0 0 0 3 3h5"></path><circle cx="17" cy="15" r="3"></circle><path d="M17 12L17 10"></path><path d="M19.121 12.879L20.536 11.464"></path><path d="M20 15L22 15"></path><path d="M19.121 17.121L20.536 18.536"></path><path d="M17 18L17 20"></path><path d="M14.879 17.121L13.464 18.536"></path><path d="M14 15L12 15"></path><path d="M14.879 12.879L13.464 11.464"></path></g></svg> 