<?xml version="1.0" encoding="UTF-8"?> <svg xmlns="http://www.w3.org/2000/svg" xmlns:xlink="http://www.w3.org/1999/xlink" width="97" height="90"><defs><path id="a" d="M.286.341h94.909V54.25H.286z"></path><path id="c" d="M0 .334h31.877v14.673H0z"></path><path id="e" d="M0 .155h31.877v13.609H0z"></path></defs><g fill="none" fill-rule="evenodd"><g transform="translate(2.917 35.764)"><mask id="b" fill="#fff"><use xlink:href="#a"></use></mask><path fill="#2A2C37" d="M26.558 53.402l65.596-37.535a2 2 0 0 0-.004-3.474L70.988.34 3.37 38.476a2 2 0 0 0-.002 3.483l20.223 11.45a3 3 0 0 0 2.968-.007z" mask="url(#b)" opacity=".3"></path></g><path fill="#000" d="M37.397 76.144c-.2 1.68.704 3.167 2.019 3.323 1.314.156 2.54-1.079 2.74-2.758.2-1.68-.703-3.167-2.018-3.323-1.314-.157-2.541 1.078-2.74 2.758"></path><path fill="#FFF" d="M38.963 76.293c-.069.578.242 1.09.694 1.142.451.055.874-.37.942-.947.069-.577-.242-1.089-.694-1.143-.452-.053-.874.37-.942.948"></path><path fill="#000" d="M73.797 54.423c-.199 1.68.705 3.168 2.019 3.324 1.314.156 2.54-1.078 2.74-2.758.2-1.68-.703-3.167-2.017-3.324-1.315-.156-2.542 1.08-2.742 2.758"></path><path fill="#FFF" d="M75.363 54.573c-.068.577.243 1.089.694 1.143.452.053.874-.371.942-.949.069-.577-.241-1.088-.693-1.142-.453-.054-.874.371-.943.948"></path><path fill="#C81E2D" d="M33.735 41.988L9.713 27.356v38.356l24.022 13.769z"></path><path fill="#E82233" d="M33.735 41.988v37.493l47.85-28.026V14.553z"></path><path fill="#F85B4F" d="M70.191 21.286L33.734 41.988 9.713 27.256 56.382.083l25.203 14.733z"></path><path fill="#C81E2D" d="M1.116 58.86v9.782l19.3 12.211v-9.955"></path><path fill="#F85B4F" d="M23.554 60.672l7.332-4.075-19.47-12.053-6.88 4.012"></path><path fill="#B8ECFF" d="M20.358 70.907l3.196-10.235"></path><path fill="#E82233" d="M30.886 57.229v17.884l-10.574 5.749.07-9.864 3.196-10.235 7.308-4.165z"></path><path fill="#E83E42" d="M23.578 60.763l-3.22 10.144-19.3-12.038 3.478-10.313z"></path><path fill="#121279" d="M5.731 50.978l-.954-.614-2.538 7.822 17.737 10.913.012-.039.37-.94L3.49 57.889z"></path><path fill="#2227A5" d="M5.731 50.978L3.49 57.889 20.358 68.12l1.953-6.488z"></path><path stroke="#C81E2D" stroke-width=".5" d="M29.608 66.165v5.386l-7.54 4.387v-5.543"></path><g><path fill="#F99F00" d="M3.255 65.95c.143.76.622 1.294 1.077 1.203.46-.094.73-.79.597-1.565-.134-.788-.629-1.347-1.099-1.238-.465.108-.72.829-.575 1.6"></path><path fill="#F0AD5F" d="M2.83 66.03c.142.76.622 1.294 1.077 1.202.459-.093.728-.79.597-1.565-.135-.787-.63-1.346-1.099-1.238-.465.108-.72.83-.576 1.6"></path><path fill="#F99F00" d="M17.054 75.135c.143.76.622 1.293 1.077 1.202.46-.094.73-.79.597-1.565-.134-.788-.629-1.347-1.098-1.238-.466.108-.72.829-.576 1.6"></path><path fill="#F0AD5F" d="M16.629 75.214c.142.76.622 1.294 1.077 1.202.46-.093.73-.789.597-1.565-.134-.787-.63-1.346-1.099-1.238-.465.108-.72.83-.575 1.601"></path><g transform="translate(0 67.263)"><mask id="d" fill="#fff"><use xlink:href="#c"></use></mask><path fill="#121279" mask="url(#d)" d="M0 .334l19.926 12.574 11.951-6.374v2.273l-11.904 6.2L0 2.19z"></path></g><path fill="#F99F00" d="M10.729 75.739l-4.333-2.835v2.049l4.333 2.756z"></path><g transform="translate(0 66.68)"><mask id="f" fill="#fff"><use xlink:href="#e"></use></mask><path fill="#2227A5" mask="url(#f)" d="M0 .917L1.058.155l19.254 12.237 10.574-5.85.991.562-11.519 6.66z"></path></g><path fill="#121279" d="M29.765 66.135l-.22-7.331-.607.344.196 6.54-4.622 2.555-2.226 1.231-.323.973 2.657-1.468z"></path><path fill="#2227A5" d="M28.938 59.148l-3.98 2.261-2.672 8.064 6.848-3.784z"></path><path stroke="#C81E2D" stroke-linecap="round" stroke-linejoin="round" stroke-width=".5" d="M29.004 68.319l-1.445.788"></path><path stroke="#C81E2D" stroke-width=".5" d="M6.526 65.05l8.703 5.306M6.68 66.987l7.244 4.402m-6.291-1.972l4.785 2.895"></path><path fill="#C81E2D" d="M35.6 43.696l44.283-25.603v32.366L35.6 76.385z"></path><path stroke="#981822" stroke-linecap="round" stroke-linejoin="round" stroke-width=".829" d="M45.972 34.918L22.834 19.765m23.138 50.349V34.919m12.598-7.21L35.433 12.555M58.57 62.904V27.709m11.248-6.546L46.68 6.009m23.138 50.349V21.163"></path><path fill="#2227A5" d="M2.239 58.186l3.041-2.438 3.519-2.822-4.022-2.562z"></path></g></g></svg> 