<?xml version="1.0" encoding="UTF-8"?> <svg xmlns="http://www.w3.org/2000/svg" xmlns:xlink="http://www.w3.org/1999/xlink" width="567px" height="418px" viewBox="0 0 567 418" version="1.1"><!-- Generator: Sketch 63.1 (92452) - https://sketch.com --><title>Landed Cost per Unit</title><desc>Created with Sketch.</desc><defs><rect id="path-1" x="0" y="0.03" width="534.6" height="165" rx="4"></rect><filter x="-11.3%" y="-19.8%" width="122.7%" height="178.4%" id="filter-2"><feMorphology radius="8.33934" operator="erode" in="SourceAlpha" result="shadowSpreadOuter1"></feMorphology><feOffset dx="0" dy="36" in="shadowSpreadOuter1" result="shadowOffsetOuter1"></feOffset><feGaussianBlur stdDeviation="23" in="shadowOffsetOuter1" result="shadowBlurOuter1"></feGaussianBlur><feComposite in="shadowBlurOuter1" in2="SourceAlpha" operator="out" result="shadowBlurOuter1"></feComposite><feColorMatrix values="0 0 0 0 0.203921569 0 0 0 0 0.290196078 0 0 0 0 0.537254902 0 0 0 0.19 0" type="matrix" in="shadowBlurOuter1"></feColorMatrix></filter><rect id="path-3" x="0" y="0.53" width="534.6" height="54.5" rx="4"></rect><filter x="-11.3%" y="-59.9%" width="122.7%" height="337.3%" id="filter-4"><feMorphology radius="8.33934" operator="erode" in="SourceAlpha" result="shadowSpreadOuter1"></feMorphology><feOffset dx="0" dy="36" in="shadowSpreadOuter1" result="shadowOffsetOuter1"></feOffset><feGaussianBlur stdDeviation="23" in="shadowOffsetOuter1" result="shadowBlurOuter1"></feGaussianBlur><feComposite in="shadowBlurOuter1" in2="SourceAlpha" operator="out" result="shadowBlurOuter1"></feComposite><feColorMatrix values="0 0 0 0 0.203921569 0 0 0 0 0.290196078 0 0 0 0 0.537254902 0 0 0 0.19 0" type="matrix" in="shadowBlurOuter1"></feColorMatrix></filter><rect id="path-5" x="0" y="0.53" width="534.6" height="54.5" rx="4"></rect><filter x="-11.3%" y="-59.9%" width="122.7%" height="337.3%" id="filter-6"><feMorphology radius="8.33934" operator="erode" in="SourceAlpha" result="shadowSpreadOuter1"></feMorphology><feOffset dx="0" dy="36" in="shadowSpreadOuter1" result="shadowOffsetOuter1"></feOffset><feGaussianBlur stdDeviation="23" in="shadowOffsetOuter1" result="shadowBlurOuter1"></feGaussianBlur><feComposite in="shadowBlurOuter1" in2="SourceAlpha" operator="out" result="shadowBlurOuter1"></feComposite><feColorMatrix values="0 0 0 0 0.203921569 0 0 0 0 0.290196078 0 0 0 0 0.537254902 0 0 0 0.19 0" type="matrix" in="shadowBlurOuter1"></feColorMatrix></filter><rect id="path-7" x="0" y="0.53" width="534.6" height="54.5" rx="4"></rect><filter x="-11.3%" y="-59.9%" width="122.7%" height="337.3%" id="filter-8"><feMorphology radius="8.33934" operator="erode" in="SourceAlpha" result="shadowSpreadOuter1"></feMorphology><feOffset dx="0" dy="36" in="shadowSpreadOuter1" result="shadowOffsetOuter1"></feOffset><feGaussianBlur stdDeviation="23" in="shadowOffsetOuter1" result="shadowBlurOuter1"></feGaussianBlur><feComposite in="shadowBlurOuter1" in2="SourceAlpha" operator="out" result="shadowBlurOuter1"></feComposite><feColorMatrix values="0 0 0 0 0.203921569 0 0 0 0 0.290196078 0 0 0 0 0.537254902 0 0 0 0.19 0" type="matrix" in="shadowBlurOuter1"></feColorMatrix></filter><linearGradient x1="30.6170827%" y1="49.6618045%" x2="69.0165013%" y2="50.5058882%" id="linearGradient-9"><stop stop-color="#0F187F" offset="0%"></stop><stop stop-color="#0A1158" offset="100%"></stop></linearGradient><rect id="path-10" x="0" y="8" width="299" height="138.5" rx="4"></rect><filter x="-18.6%" y="-22.2%" width="137.3%" height="187.0%" id="filter-11"><feMorphology radius="7.28032" operator="erode" in="SourceAlpha" result="shadowSpreadOuter1"></feMorphology><feOffset dx="0" dy="34" in="shadowSpreadOuter1" result="shadowOffsetOuter1"></feOffset><feGaussianBlur stdDeviation="21" in="shadowOffsetOuter1" result="shadowBlurOuter1"></feGaussianBlur><feComposite in="shadowBlurOuter1" in2="SourceAlpha" operator="out" result="shadowBlurOuter1"></feComposite><feColorMatrix values="0 0 0 0 0.203921569 0 0 0 0 0.290196078 0 0 0 0 0.537254902 0 0 0 0.19 0" type="matrix" in="shadowBlurOuter1"></feColorMatrix></filter></defs><g id="Landed-Cost-per-Unit" stroke="none" stroke-width="1" fill="none" fill-rule="evenodd"><g id="Group-10"><g id="Group-3" transform="translate(31.500000, 0.000000)"><g id="Group-7" transform="translate(0.000000, 55.000000)"><g id="Rectangle-Copy"><use fill="black" fill-opacity="1" filter="url(#filter-2)" xlink:href="#path-1"></use><use stroke="#E5E9EC" stroke-width="1.32132" fill="#FFFFFF" fill-rule="evenodd" xlink:href="#path-1"></use></g><text id="Landed-Cost-Per-Unit" font-family="Lato-Regular, Lato" font-size="12.012" font-weight="normal" fill="#000000"><tspan x="59.7126377" y="35">Landed Cost Per Unit</tspan></text><line x1="46.5591833" y1="30.33875" x2="31.9891833" y2="30.24325" id="Line-7-Copy" stroke="#E86C67" stroke-width="1.5" stroke-linejoin="round"></line><line x1="34" y1="139.5" x2="510" y2="139.5" id="Line" stroke="#F1F2F3" stroke-linecap="square"></line><text id="Q1" font-family="Lato-Regular, Lato" font-size="6" font-weight="normal" fill="#717A7B"><tspan x="29.8759956" y="153">Q1</tspan></text><text id="Q2" font-family="Lato-Regular, Lato" font-size="6" font-weight="normal" fill="#717A7B"><tspan x="187.872664" y="153">Q2</tspan></text><line x1="34" y1="119" x2="510" y2="119" id="Line-Copy" stroke="#F1F2F3" stroke-linecap="square"></line><line x1="34" y1="98" x2="510" y2="98" id="Line-Copy-2" stroke="#F1F2F3" stroke-linecap="square"></line><line x1="34" y1="77" x2="510" y2="77" id="Line-Copy-3" stroke="#F1F2F3" stroke-linecap="square"></line><line x1="34" y1="56" x2="510" y2="56" id="Line-Copy-4" stroke="#F1F2F3" stroke-linecap="square"></line><line x1="34" y1="56.5" x2="34" y2="139.5" id="Line-2" stroke="#F1F2F3" stroke-linecap="square"></line><line x1="510" y1="56.5" x2="510" y2="139.5" id="Line-2-Copy-5" stroke="#F1F2F3" stroke-linecap="square"></line><line x1="351" y1="56.5" x2="351" y2="139.5" id="Line-2-Copy-3" stroke="#F1F2F3" stroke-linecap="square"></line><line x1="192" y1="56.5" x2="192" y2="139.5" id="Line-2-Copy" stroke="#F1F2F3" stroke-linecap="square"></line><polyline id="Path-2" stroke="#E86C67" stroke-width="1.5" stroke-linejoin="round" points="34.0099956 139.493812 153.744028 109.624815 248.816966 104.506804 330 88.7718621 419.906843 80.7096862 474 64.4372197 510 55.493812"></polyline></g><g id="Group-7" transform="translate(0.000000, 230.000000)"><g id="Rectangle-Copy"><use fill="black" fill-opacity="1" filter="url(#filter-4)" xlink:href="#path-3"></use><use stroke="#E5E9EC" stroke-width="1.32132" fill="#FFFFFF" fill-rule="evenodd" xlink:href="#path-3"></use></g><text id="SKU-2387" font-family="Larsseit-Medium, Larsseit" font-size="14" font-weight="400" fill="#01052F"><tspan x="27.702" y="31.53">SKU-2387</tspan></text><text id="Air" font-family="Larsseit-Medium, Larsseit" font-size="14" font-weight="400" fill="#2DB5E6"><tspan x="306" y="31.53">Air</tspan></text><text id="20-Dec" font-family="Larsseit-Medium, Larsseit" font-size="14" font-weight="400" fill="#717A7B"><tspan x="168.5" y="31.53">20 Dec</tspan></text><text id="High-Priority" font-family="Larsseit-Medium, Larsseit" font-size="14" font-weight="400" fill="#717A7B"><tspan x="408" y="31.53">High Priority</tspan></text></g><g id="Group-7-Copy" transform="translate(0.000000, 295.000000)"><g id="Rectangle-Copy"><use fill="black" fill-opacity="1" filter="url(#filter-6)" xlink:href="#path-5"></use><use stroke="#E5E9EC" stroke-width="1.32132" fill="#FFFFFF" fill-rule="evenodd" xlink:href="#path-5"></use></g><text id="SKU-5674" font-family="Larsseit-Medium, Larsseit" font-size="14" font-weight="400" fill="#01052F"><tspan x="27.702" y="31.53">SKU-5674</tspan></text><text id="Air" font-family="Larsseit-Medium, Larsseit" font-size="14" font-weight="400" fill="#F7934C"><tspan x="306" y="31.53">Air</tspan></text><text id="24-Dec" font-family="Larsseit-Medium, Larsseit" font-size="14" font-weight="400" fill="#717A7B"><tspan x="168.5" y="31.53">24 Dec</tspan></text><text id="Low-Priority" font-family="Larsseit-Medium, Larsseit" font-size="14" font-weight="400" fill="#717A7B"><tspan x="408" y="31.53">Low Priority</tspan></text></g><g id="Group-7-Copy-2" transform="translate(0.000000, 360.000000)"><g id="Rectangle-Copy"><use fill="black" fill-opacity="1" filter="url(#filter-8)" xlink:href="#path-7"></use><use stroke="#E5E9EC" stroke-width="1.32132" fill="#FFFFFF" fill-rule="evenodd" xlink:href="#path-7"></use></g><text id="SKU-7456" font-family="Larsseit-Medium, Larsseit" font-size="14" font-weight="400" fill="#01052F"><tspan x="27.702" y="31.53">SKU-7456</tspan></text><text id="Air" font-family="Larsseit-Medium, Larsseit" font-size="14" font-weight="400" fill="#F7934C"><tspan x="306" y="31.53">Air</tspan></text><text id="31-Dec" font-family="Larsseit-Medium, Larsseit" font-size="14" font-weight="400" fill="#717A7B"><tspan x="168.5" y="31.53">31 Dec</tspan></text><text id="Low-Priority" font-family="Larsseit-Medium, Larsseit" font-size="14" font-weight="400" fill="#717A7B"><tspan x="408" y="31.53">Low Priority</tspan></text></g><g id="Group-8" transform="translate(0.000000, 0.500000)"><rect id="Rectangle" fill="url(#linearGradient-9)" x="0" y="0.516605247" width="535" height="44" rx="4"></rect><path d="M36.031905,27.6075 L36.031905,25.880775 L31.122,25.880775 L31.122,17.097 L29.125005,17.097 L29.125005,27.6075 L36.031905,27.6075 Z M39.305175,27.72762 C40.386255,27.72762 41.257125,27.232125 41.57244,26.481375 L41.57244,27.6075 L43.389255,27.6075 L43.389255,22.74264 C43.389255,21.03093 42.037905,19.91982 40.115985,19.91982 C38.14902,19.91982 36.872745,21.09099 36.782655,22.59249 L38.434305,22.59249 C38.464335,21.916815 39.04992,21.3012 40.025895,21.3012 C41.00187,21.3012 41.57244,21.826725 41.57244,22.56246 C41.57244,22.86276 41.39226,23.07297 41.016885,23.07297 L39.62049,23.07297 C37.923795,23.07297 36.782655,23.988885 36.782655,25.460355 C36.782655,26.76666 37.803675,27.72762 39.305175,27.72762 Z M39.74061,26.361255 C39.04992,26.361255 38.56944,25.970865 38.56944,25.38528 C38.56944,24.72462 39.094965,24.289185 39.875745,24.289185 L41.57244,24.289185 L41.57244,24.409305 C41.57244,25.550445 40.896765,26.361255 39.74061,26.361255 Z M46.76763,27.6075 L46.76763,23.478375 C46.76763,22.367265 47.48835,21.556455 48.524385,21.556455 C49.47033,21.556455 50.10096,22.277175 50.10096,23.31321 L50.10096,27.6075 L51.947805,27.6075 L51.947805,22.92282 C51.947805,21.15105 50.836695,19.91982 49.124985,19.91982 C48.043905,19.91982 47.18805,20.385285 46.76763,21.21111 L46.76763,20.03994 L44.920785,20.03994 L44.920785,27.6075 L46.76763,27.6075 Z M56.79765,27.72762 C57.713565,27.72762 58.554405,27.322215 58.98984,26.661555 L58.98984,27.6075 L60.82167,27.6075 L60.82167,16.7967 L58.98984,16.7967 L58.98984,20.955855 C58.554405,20.34024 57.75861,19.91982 56.76762,19.91982 C54.530385,19.91982 53.19405,21.51141 53.19405,23.82372 C53.19405,26.13603 54.530385,27.72762 56.79765,27.72762 Z M57.06792,26.13603 C55.83669,26.13603 55.02588,25.220115 55.02588,23.82372 C55.02588,22.427325 55.83669,21.51141 57.06792,21.51141 C58.29915,21.51141 59.10996,22.427325 59.10996,23.82372 C59.10996,25.220115 58.29915,26.13603 57.06792,26.13603 Z M66.031875,27.72762 C67.893735,27.72762 69.305145,26.691585 69.59043,25.08498 L67.78863,25.08498 C67.593435,25.8057 66.97782,26.19609 66.031875,26.19609 C64.860705,26.19609 64.079925,25.41531 63.94479,24.199095 L69.53037,24.199095 C69.545385,24.048945 69.5604,23.82372 69.5604,23.568465 C69.5604,21.766665 68.41926,19.91982 65.881725,19.91982 C63.40425,19.91982 62.17302,21.796695 62.17302,23.79369 C62.17302,25.77567 63.5544,27.72762 66.031875,27.72762 Z M67.713555,22.98288 L63.989835,22.98288 C64.18503,21.84174 64.84569,21.3012 65.881725,21.3012 C66.97782,21.3012 67.63848,22.02192 67.713555,22.98288 Z M74.03487,27.72762 C74.950785,27.72762 75.791625,27.322215 76.22706,26.661555 L76.22706,27.6075 L78.05889,27.6075 L78.05889,16.7967 L76.22706,16.7967 L76.22706,20.955855 C75.791625,20.34024 74.99583,19.91982 74.00484,19.91982 C71.767605,19.91982 70.43127,21.51141 70.43127,23.82372 C70.43127,26.13603 71.767605,27.72762 74.03487,27.72762 Z M74.30514,26.13603 C73.07391,26.13603 72.2631,25.220115 72.2631,23.82372 C72.2631,22.427325 73.07391,21.51141 74.30514,21.51141 C75.53637,21.51141 76.34718,22.427325 76.34718,23.82372 C76.34718,25.220115 75.53637,26.13603 74.30514,26.13603 Z M88.02885,27.72762 C90.61143,27.72762 92.53335,26.241135 92.74356,24.06396 L90.76158,24.06396 C90.5814,25.2051 89.47029,26.000895 88.02885,26.000895 C86.19702,26.000895 84.81564,24.739635 84.81564,22.35225 C84.81564,19.964865 86.19702,18.68859 88.02885,18.68859 C89.44026,18.68859 90.55137,19.484385 90.70152,20.64054 L92.77359,20.64054 C92.488305,18.463365 90.566385,16.97688 88.02885,16.97688 C85.281105,16.97688 82.818645,18.77868 82.818645,22.35225 C82.818645,25.92582 85.23606,27.72762 88.02885,27.72762 Z M97.57839,27.72762 C99.875685,27.72762 101.527335,26.07597 101.527335,23.82372 C101.527335,21.57147 99.875685,19.91982 97.57839,19.91982 C95.26608,19.91982 93.61443,21.57147 93.61443,23.82372 C93.61443,26.07597 95.26608,27.72762 97.57839,27.72762 Z M97.57839,26.13603 C96.31713,26.13603 95.47629,25.190085 95.47629,23.82372 C95.47629,22.457355 96.31713,21.51141 97.57839,21.51141 C98.824635,21.51141 99.665475,22.457355 99.665475,23.82372 C99.665475,25.190085 98.824635,26.13603 97.57839,26.13603 Z M105.50631,27.72762 C107.27808,27.72762 108.434235,26.79669 108.434235,25.370265 C108.434235,21.946845 104.230035,23.748645 104.230035,22.11201 C104.230035,21.6015 104.66547,21.3012 105.32613,21.3012 C105.911715,21.3012 106.55736,21.66156 106.662465,22.367265 L108.344145,22.367265 C108.26907,20.895795 107.052855,19.91982 105.281085,19.91982 C103.719525,19.91982 102.56337,20.85075 102.56337,22.17207 C102.56337,25.370265 106.70751,23.76366 106.70751,25.44534 C106.70751,25.89579 106.22703,26.25615 105.50631,26.25615 C104.680485,26.25615 104.12493,25.8057 104.049855,25.08498 L102.368175,25.08498 C102.458265,26.7066 103.67448,27.72762 105.50631,27.72762 Z M114.6054,27.6075 L114.6054,26.04594 L113.599395,26.04594 C112.908705,26.04594 112.5033,25.65555 112.5033,24.889785 L112.5033,21.586485 L114.6054,21.586485 L114.6054,20.03994 L112.5033,20.03994 L112.5033,17.75766 L110.656455,17.75766 L110.656455,20.03994 L109.16997,20.03994 L109.16997,21.586485 L110.656455,21.586485 L110.656455,24.96486 C110.656455,26.64654 111.737535,27.6075 113.389185,27.6075 L114.6054,27.6075 Z M121.24203,27.6075 L121.24203,23.61351 L123.46425,23.61351 C125.65644,23.61351 126.962745,22.26216 126.962745,20.355255 C126.962745,18.44835 125.65644,17.097 123.46425,17.097 L119.245035,17.097 L119.245035,27.6075 L121.24203,27.6075 Z M123.37416,21.946845 L121.24203,21.946845 L121.24203,18.763665 L123.37416,18.763665 C124.54533,18.763665 125.02581,19.514415 125.02581,20.355255 C125.02581,21.196095 124.54533,21.946845 123.37416,21.946845 Z M131.527305,27.72762 C133.389165,27.72762 134.800575,26.691585 135.08586,25.08498 L133.28406,25.08498 C133.088865,25.8057 132.47325,26.19609 131.527305,26.19609 C130.356135,26.19609 129.575355,25.41531 129.44022,24.199095 L135.0258,24.199095 C135.040815,24.048945 135.05583,23.82372 135.05583,23.568465 C135.05583,21.766665 133.91469,19.91982 131.377155,19.91982 C128.89968,19.91982 127.66845,21.796695 127.66845,23.79369 C127.66845,25.77567 129.04983,27.72762 131.527305,27.72762 Z M133.208985,22.98288 L129.485265,22.98288 C129.68046,21.84174 130.34112,21.3012 131.377155,21.3012 C132.47325,21.3012 133.13391,22.02192 133.208985,22.98288 Z M138.17895,27.6075 L138.17895,24.03393 C138.17895,22.59249 138.644415,21.586485 139.815585,21.586485 L141.00177,21.586485 L141.00177,20.03994 L140.115885,20.03994 C139.13991,20.03994 138.554325,20.415315 138.17895,21.376275 L138.17895,20.03994 L136.332105,20.03994 L136.332105,27.6075 L138.17895,27.6075 Z M149.47023,27.72762 C151.93269,27.72762 153.599355,26.361255 153.599355,23.808705 L153.599355,17.097 L151.737495,17.097 L151.737495,23.82372 C151.737495,25.26516 150.806565,25.98588 149.47023,25.98588 C148.133895,25.98588 147.21798,25.26516 147.21798,23.82372 L147.21798,17.097 L145.341105,17.097 L145.341105,23.808705 C145.341105,26.361255 147.022785,27.72762 149.47023,27.72762 Z M157.082835,27.6075 L157.082835,23.478375 C157.082835,22.367265 157.803555,21.556455 158.83959,21.556455 C159.785535,21.556455 160.416165,22.277175 160.416165,23.31321 L160.416165,27.6075 L162.26301,27.6075 L162.26301,22.92282 C162.26301,21.15105 161.1519,19.91982 159.44019,19.91982 C158.35911,19.91982 157.503255,20.385285 157.082835,21.21111 L157.082835,20.03994 L155.23599,20.03994 L155.23599,27.6075 L157.082835,27.6075 Z M165.821565,18.853755 L165.821565,16.7967 L163.839585,16.7967 L163.839585,18.853755 L165.821565,18.853755 Z M165.761505,27.6075 L165.761505,20.03994 L163.91466,20.03994 L163.91466,27.6075 L165.761505,27.6075 Z M172.29303,27.6075 L172.29303,26.04594 L171.287025,26.04594 C170.596335,26.04594 170.19093,25.65555 170.19093,24.889785 L170.19093,21.586485 L172.29303,21.586485 L172.29303,20.03994 L170.19093,20.03994 L170.19093,17.75766 L168.344085,17.75766 L168.344085,20.03994 L166.8576,20.03994 L166.8576,21.586485 L168.344085,21.586485 L168.344085,24.96486 C168.344085,26.64654 169.425165,27.6075 171.076815,27.6075 L172.29303,27.6075 Z" id="LandedCostPerUnit" fill="#FFFFFF" fill-rule="nonzero"></path></g></g><g id="Group-5" transform="translate(0.000000, 271.000000)"><g id="Rectangle"><use fill="black" fill-opacity="1" filter="url(#filter-11)" xlink:href="#path-10"></use><rect stroke="#E5E9EC" stroke-width="1.21968" fill="#FFFFFF" fill-rule="evenodd" x="-0.60984" y="7.39016" width="300.21968" height="139.71968" rx="4"></rect></g><circle id="Oval" stroke-opacity="0.3" stroke="#E86C67" stroke-width="4.87872" fill="#E86C67" cx="296.25" cy="8" r="9.68936"></circle><g id="Group-4" transform="translate(24.000000, 87.250000)"><rect id="Rectangle" fill="#1EAAE7" x="0" y="0" width="251" height="33.5" rx="4"></rect><text id="Only-use-Air-for-Hig" font-family="Lato-Bold, Lato" font-size="12" font-weight="bold" fill="#FFFFFF"><tspan x="47.617" y="20.75">Only use Air for High Priority</tspan></text></g><text id="5%-saving-through-re" font-family="Lato-Regular, Lato" font-size="12" font-weight="normal" fill="#41D1D6"><tspan x="52.5" y="67.25">5% saving through reduction in Air</tspan></text><text id="Landed-Cost-Reductio" font-family="Larsseit-Bold, Larsseit" font-size="14" font-weight="bold" fill="#0A1158"><tspan x="52.4" y="40">Landed Cost Reduction</tspan></text><g id="info-circle" transform="translate(23.840000, 31.240000)" fill="#2DB5E6" fill-rule="nonzero"><path d="M8.85,0 C3.96108871,0 0,3.96394355 0,8.85 C0,13.7360565 3.96108871,17.7 8.85,17.7 C13.7389113,17.7 17.7,13.7389113 17.7,8.85 C17.7,3.96108871 13.7389113,0 8.85,0 Z M8.85,3.92540323 C9.67775904,3.92540323 10.3487903,4.59643451 10.3487903,5.42419355 C10.3487903,6.25195259 9.67775904,6.92298387 8.85,6.92298387 C8.02224096,6.92298387 7.35120968,6.25195259 7.35120968,5.42419355 C7.35120968,4.59643451 8.02224096,3.92540323 8.85,3.92540323 Z M10.8483871,12.9895161 C10.8483871,13.2260187 10.6566639,13.4177419 10.4201613,13.4177419 L7.27983871,13.4177419 C7.04333613,13.4177419 6.8516129,13.2260187 6.8516129,12.9895161 L6.8516129,12.1330645 C6.8516129,11.8965619 7.04333613,11.7048387 7.27983871,11.7048387 L7.70806452,11.7048387 L7.70806452,9.42096774 L7.27983871,9.42096774 C7.04333613,9.42096774 6.8516129,9.22924452 6.8516129,8.99274194 L6.8516129,8.13629032 C6.8516129,7.89978774 7.04333613,7.70806452 7.27983871,7.70806452 L9.56370968,7.70806452 C9.80021226,7.70806452 9.99193548,7.89978774 9.99193548,8.13629032 L9.99193548,11.7048387 L10.4201613,11.7048387 C10.6566639,11.7048387 10.8483871,11.8965619 10.8483871,12.1330645 L10.8483871,12.9895161 Z" id="Shape"></path></g></g></g><text id="Q3" font-family="Lato-Regular, Lato" font-size="6" font-weight="normal" fill="#717A7B"><tspan x="378.369332" y="208">Q3</tspan></text><text id="Q4" font-family="Lato-Regular, Lato" font-size="6" font-weight="normal" fill="#717A7B"><tspan x="536.866" y="208">Q4</tspan></text></g></svg> 