<?xml version="1.0" encoding="UTF-8"?> <svg xmlns="http://www.w3.org/2000/svg" xmlns:xlink="http://www.w3.org/1999/xlink" width="68" height="73"><defs><path d="M.31.814c-.194.46-.129.927.14 1.05.268.122.641-.14.84-.588.201-.455.149-.937-.122-1.07a.339.339 0 0 0-.15-.034C.766.172.474.427.31.814" id="a"></path><path d="M.31.814c-.194.46-.129.927.14 1.05.268.122.641-.14.84-.588.201-.455.149-.937-.122-1.07a.339.339 0 0 0-.15-.034C.766.172.474.427.31.814" id="c"></path><path d="M.31.727c-.194.459-.129.927.14 1.051.268.123.641-.136.84-.584.201-.455.149-.936-.122-1.07a.34.34 0 0 0-.152-.035C.766.09.473.342.31.727" id="e"></path><path d="M.31.727c-.194.459-.129.927.14 1.051.268.123.641-.136.84-.584.201-.455.149-.936-.122-1.07a.34.34 0 0 0-.152-.035C.766.09.473.342.31.727" id="g"></path><path d="M.31.64c-.194.459-.129.927.14 1.052.268.124.641-.133.84-.58.201-.454.149-.935-.122-1.07a.34.34 0 0 0-.154-.036C.764.006.473.257.31.64" id="i"></path><path d="M.31.64c-.194.459-.129.927.14 1.052.268.124.641-.133.84-.58.201-.454.149-.935-.122-1.07a.34.34 0 0 0-.154-.036C.764.006.473.257.31.64" id="k"></path></defs><g fill="none" fill-rule="evenodd"><path d="M1.376 55.135l27.6 16.773a1 1 0 0 0 1.049-.006l37.399-23.366a1 1 0 0 0 0-1.696L39.377 29.304 1.359 53.436a1 1 0 0 0 .017 1.7z" fill="#2A2C37" opacity=".3"></path><g transform="translate(5)"><path fill="#00A8DB" d="M8.29533691 52.9813044L24.2226934 67.6598312 61.1897091 45.7160773 61.1897091 44.5888375 41.3440719 36.9655189z"></path><path fill="#00C5F3" d="M1.64305647 53.0285587L24.1919965 66.5381644 61.1896401 44.5651644 39.0966621 31.823095z"></path><path fill="#0098C0" d="M1.64305647 54.1653091L1.64305647 52.9811893 24.2226243 66.4825047 24.2226243 67.6597161z"></path><path fill="#00C5F3" d="M8.25349432 52.0716139L17.1721599 57.4798315 47.1965763 40.2778536 38.5155637 35.2300303z"></path><path stroke="#0098C0" stroke-width=".428" d="M8.25349432 52.0716139L17.1721599 57.4798315 47.1965763 40.2778536 38.5155637 35.2300303z"></path><path stroke="#0098C0" stroke-width=".428" d="M47.3628413 50.8691404L40.1312356 46.4529858 26.2068886 54.6084905 33.3270369 59.0898155z"></path><path stroke="#0098C0" stroke-width=".428" d="M10.148 53.199L40.196 36.21"></path><path stroke="#0098C0" stroke-width=".428" d="M11.947 54.299L41.89 37.195"></path><path stroke="#0098C0" stroke-width=".428" d="M13.746 55.399L43.583 38.18"></path><path stroke="#0098C0" stroke-width=".428" d="M15.545 56.5L45.277 39.165"></path><path stroke="#0098C0" stroke-width=".428" d="M11.849 49.951L20.917 55.351"></path><path stroke="#0098C0" stroke-width=".428" d="M15.277 48.061L24.28 53.422"></path><path stroke="#0098C0" stroke-width=".428" d="M18.704 46.17L27.642 51.493"></path><path stroke="#0098C0" stroke-width=".428" d="M22.132 44.28L31.005 49.564"></path><path stroke="#0098C0" stroke-width=".428" d="M25.559 42.39L34.368 47.635"></path><path stroke="#0098C0" stroke-width=".428" d="M28.987 40.499L37.731 45.706"></path><path stroke="#0098C0" stroke-width=".428" d="M32.414 38.609L41.093 43.777"></path><path stroke="#0098C0" stroke-width=".428" d="M35.842 36.718L44.456 41.848"></path><path fill="#121279" d="M39.219035 0.469226498L39.219035 31.8290593 1.53215174 53.1098259 1.69242934 22.5686524z"></path><path fill="#C5EBFD" d="M1.68354038 24.2185675L39.2191271 2.14608486 39.2191271 30.1592016 1.54767287 51.5951795z"></path><path fill="#FFF" d="M12.7128732 45.8867177L38.2911981 31.3776798 38.2911981 6.59521609 12.7128732 21.5751845z"></path><path fill="#2227A5" d="M38.3730871 0.000161198738L0.960011356 22.1244577 1.6923142 22.5686754 39.2191502 0.469249527z"></path><path fill="#090D5C" d="M0.9599653 22.1231221L0.9599653 52.7382167 1.53222082 53.1181852 1.69226814 22.5687215z"></path><path fill="#FFF" d="M11.532553 22.0804965L11.532553 46.4254208 1.54767287 52.2306479 1.68354038 27.9771464z"></path><path fill="#FFF" d="M1.69263659 26.6937741L39.219012 4.72653123 39.219012 2.14596972 1.69263659 24.1813767z"></path><path stroke="#121279" stroke-width="1.399" d="M13.909 23.124L30.049 13.142"></path><path fill="#FFF" d="M14.0341962 24.3866517L13.2855432 24.3728347 13.2855432 21.921923 14.0341962 21.3568063z"></path><g transform="translate(2.265 3.642)"><path d="M35.523.939c-.172.381-.495.608-.726.51-.233-.099-.29-.492-.121-.883.17-.398.504-.636.741-.527.234.107.28.512.106.9" fill="#00C5F3"></path><path fill="#FFF" d="M35.4043552 14.8495356L34.6285287 14.8389426 34.6285287 4.17265237 35.4043552 4.17725804z"></path><path fill="#2227A5" d="M34.0955136 0.738981073L34.1166997 2.29570032 30.0687691 4.62317981 30.0687691 3.09409464z"></path><path stroke="#121279" stroke-width="1.399" d="M0.768 25.836L8.151 21.296"></path><path fill="#FFF" d="M0.890784227 27.0889413L0.154336278 27.07167 0.154336278 24.6410233 0.890784227 24.0839666z"></path><path stroke="#121279" stroke-width="1.399" d="M0.768 21.169L8.282 16.796"></path><path fill="#FFF" d="M0.890784227 22.1752123L0.154336278 22.566695 0.154336278 20.2228653 0.890784227 19.6632754z"></path><path fill="#FFF" d="M8.65363186 17.6368461L7.90843312 18.0331647 7.90843312 15.675518 8.65363186 15.1099407z"></path><path d="M1.98 27.989c-.198.449-.571.71-.838.588-.27-.123-.335-.59-.14-1.05.197-.467.582-.742.856-.608.271.133.324.614.122 1.07" fill="#00C5F3"></path></g><g transform="translate(2.956 30.355)"><mask id="b" fill="#fff"><use xlink:href="#a"></use></mask><path d="M.995.862c-.077.174-.222.275-.325.228C.565 1.042.54.86.615.683.692.502.842.395.948.447c.105.052.125.238.047.415" fill="#0098C0" mask="url(#b)"></path><g><mask id="d" fill="#fff"><use xlink:href="#c"></use></mask><path d="M1.219 2.06c-.163.368-.47.581-.688.481-.22-.1-.274-.484-.115-.86.162-.383.478-.607.702-.497.223.109.266.503.1.876" fill="#0098C0" mask="url(#d)"></path></g></g><path d="M4.245 37.536c-.198.448-.571.707-.838.584-.27-.123-.335-.592-.14-1.05.197-.466.582-.739.856-.604.271.135.324.616.122 1.07" fill="#00C5F3"></path><g transform="translate(2.956 36.342)"><mask id="f" fill="#fff"><use xlink:href="#e"></use></mask><path d="M.995.779c-.077.173-.222.274-.325.226C.565.957.54.775.615.598.692.417.842.31.948.364c.105.052.125.238.047.415" fill="#0098C0" mask="url(#f)"></path><g><mask id="h" fill="#fff"><use xlink:href="#g"></use></mask><path d="M1.219 1.978c-.163.367-.47.579-.688.478-.22-.102-.274-.485-.115-.861.162-.382.478-.605.702-.494.223.11.266.504.1.877" fill="#0098C0" mask="url(#h)"></path></g></g><path d="M4.245 43.442c-.198.446-.571.704-.838.58-.27-.125-.335-.594-.14-1.052.197-.465.582-.735.856-.599.271.135.324.617.122 1.07" fill="#00C5F3"></path><g transform="translate(2.956 42.33)"><mask id="j" fill="#fff"><use xlink:href="#i"></use></mask><path d="M.995.695C.918.868.773.97.67.92.565.872.54.69.615.513.692.332.842.227.948.28c.105.052.125.24.047.415" fill="#0098C0" mask="url(#j)"></path><g><mask id="l" fill="#fff"><use xlink:href="#k"></use></mask><path d="M1.219 1.895c-.163.366-.47.577-.688.475-.22-.102-.274-.486-.115-.861.162-.381.478-.603.702-.491.223.11.266.506.1.877" fill="#0098C0" mask="url(#l)"></path></g></g><g transform="translate(1.344 1.57)"><path d="M23.842 25.757l-.005.015v.001l5.838.5c1.187-4.058.433-7.9-2.026-9.06-2.336-1.102-5.437.576-7.62 3.82l3.808 4.739.005-.015z" fill="#FFC16F"></path><path d="M23.838 25.773l-.001-.001-3.434 8.664c2.768.984 6.509-1.673 8.534-6.166.3-.664.544-1.333.738-1.998l-5.837-.499z" fill="#FF544B"></path><path d="M20.028 21.032a15.079 15.079 0 0 0-1.353 2.5c-2.019 4.726-1.343 9.53 1.462 10.797.088.04.177.076.266.107l3.434-8.664-3.809-4.74z" fill="#00C5F3"></path><path stroke="#08599D" stroke-width=".516" d="M26.439011 21.4701981L28.4452445 15.0710688 34.0330836 11.8061035"></path><path stroke="#08599D" stroke-width=".516" d="M20.2276552 26.6662552L16.9394312 24.6040628 12.2635164 27.2189366"></path><path stroke="#08599D" stroke-width=".516" d="M25.653835 28.6180035L29.0152893 30.9102495 34.1568382 27.9964672"></path><path stroke="#08599D" stroke-width=".258" d="M29.541 31.502L34.153 28.914"></path><path stroke="#08599D" stroke-width=".258" d="M29.541 32.538L34.153 29.953"></path><path stroke="#08599D" stroke-width=".258" d="M29.624 15.393L34.236 12.749"></path><path stroke="#08599D" stroke-width=".258" d="M29.624 16.429L34.236 13.789"></path><path stroke="#08599D" stroke-width=".258" d="M12.352 28.29L16.846 25.724"></path><path stroke="#08599D" stroke-width=".258" d="M12.352 29.312L16.846 26.75"></path><path fill="#FFF" d="M8.31090032 22.586983L8.31090032 24.7445129 9.55742713 24.0260271 9.59196972 22.0087401z"></path><path fill="#00C5F3" d="M3.21948423 28.5304495L3.21948423 30.2776136 9.54584385 26.4549006 9.54584385 24.6955315z"></path><path stroke="#0098C0" stroke-width=".516" d="M3.42 29.089L9.579 25.339"></path><path fill="#FFF" d="M3.78911451 30.6026132L3.05036372 30.5844208 3.05036372 27.5766826 3.78911451 27.5930328z"></path><path stroke="#0098C0" stroke-width=".516" d="M3.42 29.601L9.579 25.854"></path><path fill="#00C5F3" d="M4.12251956 29.7307814L3.38353849 30.1895069 3.38353849 28.4078003 4.12251956 27.9824659z"></path><path fill="#00C5F3" d="M9.62121577 26.4122521L8.87601703 26.8546274 8.87601703 25.1033183 9.62121577 24.6491984z"></path><path fill="#B8ECFF" d="M1.85643375 32.2402543L1.85643375 33.985576 8.16966719 30.1847401 8.16966719 28.4272132z"></path><path stroke="#00A1E1" stroke-width=".516" d="M2.056 32.799L8.202 29.071"></path><path fill="#FFF" d="M2.42484353 34.3119114L1.68770473 34.2916464 1.68770473 31.2871322 2.42484353 31.3055549z"></path><path stroke="#00A1E1" stroke-width=".516" d="M2.056 33.311L8.202 29.585"></path><path fill="#B8ECFF" d="M2.75755773 33.4419218L2.01995836 33.8981142 2.01995836 32.1182498 2.75755773 31.6954486z"></path><path fill="#B8ECFF" d="M8.2447858 30.1423448L7.50119905 30.5821871 7.50119905 28.8327202 8.2447858 28.3813637z"></path><path fill="#00C5F3" d="M3.21948423 34.4372088L3.21948423 36.1843729 8.07041483 33.324477 8.07041483 31.5669502z"></path><path stroke="#0098C0" stroke-width=".516" d="M3.42 34.997L8.071 32.183"></path><path fill="#FFF" d="M3.78911451 36.5119057L3.05036372 36.4904893 3.05036372 33.4827511 3.78911451 33.5025555z"></path><path stroke="#0098C0" stroke-width=".516" d="M3.42 35.509L5.821 34.075"></path><path fill="#00C5F3" d="M4.12251956 35.6415937L3.38353849 36.0970953 3.38353849 34.3153886 4.12251956 33.8932782z"></path><path fill="#00C5F3" d="M8.08455426 33.3071596L7.34096751 33.7449293 7.34096751 31.995923 8.08455426 31.5461785z"></path><path fill="#B8ECFF" d="M1.85643375 38.140888L1.85643375 39.8862098 8.16966719 36.113929 8.16966719 34.3561719z"></path><path stroke="#00A1E1" stroke-width=".516" d="M2.056 38.701L8.202 35"></path><path fill="#FFF" d="M2.42484353 40.2150552L1.68770473 40.1915662 1.68770473 37.1868218 2.42484353 37.2086987z"></path><path stroke="#00A1E1" stroke-width=".516" d="M2.056 39.212L8.202 35.514"></path><path fill="#B8ECFF" d="M2.75755773 39.3466085L2.01995836 39.799577 2.01995836 38.0197126 2.75755773 37.6001353z"></path><path fill="#B8ECFF" d="M8.2447858 36.071764L7.50119905 36.5081521 7.50119905 34.7586852 8.2447858 34.3105527z"></path><path fill="#00C5F3" d="M3.21948423 40.3439912L3.21948423 42.0911552 9.54584385 38.3255527 9.54584385 36.5659533z"></path><path stroke="#0098C0" stroke-width=".516" d="M3.42 40.905L9.579 37.21"></path><path fill="#FFF" d="M3.78911451 42.4212672L3.05036372 42.3963965 3.05036372 39.3886584 3.78911451 39.4116868z"></path><path stroke="#0098C0" stroke-width=".516" d="M3.42 41.417L9.579 37.725"></path><path fill="#00C5F3" d="M4.12251956 41.552406L3.38353849 42.0046836 3.38353849 40.222977 4.12251956 39.8040905z"></path><path fill="#00C5F3" d="M9.62121577 38.2834107L8.87601703 38.7191079 8.87601703 36.9677987 9.62121577 36.5203571z"></path><path fill="#B8ECFF" d="M2.02005047 43.9209221L2.02005047 49.1241871 8.16955205 45.5009 8.16955205 40.28543z"></path><path stroke="#00A1E1" stroke-width=".516" d="M2.056 44.602L8.202 40.929"></path><path fill="#FFF" d="M2.42484353 46.1182221L1.68770473 46.0915091 1.68770473 43.0867647 2.42484353 43.1118656z"></path><path stroke="#00A1E1" stroke-width=".516" d="M2.056 45.114L8.202 41.443"></path><path stroke="#00A1E1" stroke-width=".516" d="M2.056 45.641L8.202 41.97"></path><path stroke="#00A1E1" stroke-width=".516" d="M2.056 46.168L8.202 42.497"></path><path stroke="#00A1E1" stroke-width=".516" d="M2.056 46.695L8.202 43.024"></path><path stroke="#00A1E1" stroke-width=".516" d="M2.056 47.222L8.202 43.551"></path><path stroke="#00A1E1" stroke-width=".516" d="M2.056 47.749L8.202 44.078"></path><path fill="#B8ECFF" d="M2.75755773 48.3180552L2.01995836 48.7675694 2.01995836 43.9210142 2.75755773 43.5046609z"></path><path fill="#B8ECFF" d="M8.2447858 45.0679432L7.50119905 45.500877 7.50119905 40.6847192 8.2447858 40.240041z"></path><path fill="#121279" d="M0.824554574 21.7668268L0.824554574 50.4703347 0.191043533 51.022095 0.348788013 21.8432811z"></path><path fill="#121279" d="M37.8751864 0.180082019L37.8751864 29.6960315 37.2580256 30.1754826 37.3722464 0.26666877z"></path><path fill="#121279" d="M0.824554574 49.6723319L37.2626082 28.938029 37.2124063 30.6520322 0.824554574 51.0475874z"></path><path fill="#090D5C" d="M37.0923593 1.0366L36.949353 28.7478145 37.2627694 28.938029 37.3942615 0.859281388z"></path><path fill="#121279" d="M0.824554574 49.2816552L36.9494221 28.7479297 37.2626082 28.9381442 0.824554574 49.672447z"></path></g></g></g></svg> 