<?xml version="1.0" encoding="UTF-8"?> <svg xmlns="http://www.w3.org/2000/svg" xmlns:xlink="http://www.w3.org/1999/xlink" width="50" height="49"><defs><circle id="a" cx="15.257" cy="15.257" r="15.257"></circle></defs><g transform="translate(9.667 9.5)" fill="none" fill-rule="evenodd"><use fill="#FFF" xlink:href="#a"></use><circle stroke="#FFF" stroke-width="9" fill-opacity=".2" fill="#2DB5E6" cx="15.257" cy="15.257" r="19.757"></circle><g transform="translate(8.757 8.757)" fill="#2DB5E6" fill-rule="nonzero"><path d="M9.208 8.667c-1.598 0-2.926-.346-3.791-.928v.928c0 .897 1.697 1.625 3.791 1.625S13 9.564 13 8.667v-.928c-.865.582-2.193.928-3.792.928zm0 2.708c-1.598 0-2.926-.346-3.791-.927v.927c0 .898 1.697 1.625 3.791 1.625S13 12.273 13 11.375v-.927c-.865.58-2.193.927-3.792.927z"></path><ellipse cx="9.208" cy="5.958" rx="3.792" ry="1.625"></ellipse><ellipse cx="3.792" cy="1.625" rx="3.792" ry="1.625"></ellipse><path d="M4.333 9.735c-.177.009-.357.015-.541.015C2.193 9.75.865 9.404 0 8.823v.927c0 .898 1.698 1.625 3.792 1.625.184 0 .364-.008.541-.018V9.735zm0-2.708c-.177.009-.357.015-.541.015-1.599 0-2.927-.346-3.792-.928v.928c0 .897 1.698 1.625 3.792 1.625.184 0 .364-.008.541-.019V7.027zm1.04-2.82a9.647 9.647 0 0 1-1.581.126C2.193 4.333.865 3.987 0 3.406v.927c0 .898 1.698 1.625 3.792 1.625.184 0 .365-.007.543-.018.006-.684.383-1.278 1.038-1.733z"></path></g></g></svg> 