<?xml version="1.0" encoding="UTF-8"?> <svg xmlns="http://www.w3.org/2000/svg" height="85" width="106"><g fill="none" fill-rule="evenodd"><path d="m74.668 25.477-1.917 5.594-.2.112zm26.09 36.42-33.245-8.43 5.304-3.092 8.681-8.76 8.967-.165c2.094-.06 5.987-.953 8.71-2.263.722-.347 1.245-.714 1.267-.704.012.006-.064-.91-.064-.91l-.188-.053a8173.272 8173.272 0 0 1 -14.528-4.313l.295-25.326-6.562 3.808-4.727 13.788-2.95-4.525-.843.95a4.206 4.206 0 0 0 -.977 3.635l1.307 6.406-26.72 15.064-23.033-22.53c-5.552 3.59-3.386 9.634-3.386 9.634l5.87 11.906-3.985 2.71.011.035c-1.103.468-1.843 1.87-1.73 3.473.133 1.907 1.42 3.37 2.875 3.268.542-.038 1.03-.288 1.424-.686l4.347-2.833 1.812 3.676-18.281 10.36s-1.477 1.545-3.567 3.96v-.001l-.018.02a136.066 136.066 0 0 0 -4.428 5.379c-.054.07-.1.136-.15.204l-.469.57s-.004.04-.007.113c-2.994 4.698.826 7.212.826 7.212a6.334 6.334 0 0 0 2.097 1.1l-.013.016c.277.079.56.14.846.194 1.136.23 2.36.25 3.58.137.114-.01.226-.022.338-.034.045-.005.09-.008.133-.014 4.305-.486 8.24-2.45 8.272-2.467l.003-.001.003-.003 13.68-7.972v.004l9.438-5.26v-.244l8.316-4.846c-.098.413-.138.86-.106 1.325.134 1.907 1.421 3.37 2.876 3.268.839-.06 1.548-.627 1.974-1.462l6.067-4.094-7.181-.98a2.642 2.642 0 0 0 -.147-.087l.196-.115 36.003 5.12c2.653-.011 5.363-1.298 5.363-1.298 3.66-1.247 6.423-3.867 6.423-3.867z" fill="#2a2c37" opacity=".3"></path><g transform="translate(5.137 .278)"><path d="m85.521.1-.335 28.798-12.57 13.093-55.2 32.636s-10.363 5.023-15.256 1.069c0 0-4.305-2.83-.2-8.1 4.106-5.268 8.013-9.358 8.013-9.358l18.281-10.36-10.624-21.548s-2.166-6.044 3.387-9.635l23.033 22.53 28.265-15.935 6.644-19.383 6.561-3.807z" fill="#cceafb"></path><path d="m74.232 17.696-2.95-4.525-.843.95a4.206 4.206 0 0 0 -.977 3.635l1.307 6.406 1.306-.649z" fill="#4c84d3"></path><path d="m4.244 76.812 11.768-15.268 69.158-39.015-.102 7.16-.774.454c.28-.16.541-.31.773-.446v.098l-12.687 12.799-54.964 32.032s-7.53 3.778-13.172 2.186" fill="#94d5ff"></path><path d="m86.701 28.727c-.047.031-.622.372-1.634.97v-.009l1.634-.96z" fill="#0f187f"></path><path d="m84.97 26.742s11.45 2.01 14.972 3.05c0 0 .076.916.064.91-.022-.01-.545.357-1.266.704-2.723 1.31-6.616 2.203-8.711 2.262l-14.125.262-.145-2.085 9.21-5.103z" fill="#236bc9"></path><path d="m50.646 41.518 49.675 12.598s-4.169 3.954-9.048 4.458l-56.486-9.506 1.131-5.693 8.118-.124zm34.224-16.198s15.142 4.506 15.072 4.472c-.021-.01-.553.238-1.274.585a18.93 18.93 0 0 1 -8.739 1.87l-14.17-.402 9.11-6.525z" fill="#cceafb"></path><path d="m40.537 61.397v-9.763l-9.436 5.014-.001 10.008" stroke="#0a4185"></path><path d="m93.898 57.983s-2.71 1.287-5.363 1.297l-50.965-7.246-.235-2.519 56.564 8.468zm-81.242 7.907s-4.465-1.246-6.25-3.693l-5.064 6.174s-.48 4.395 5.01 5.717z" fill="#236bc9"></path><g fill="#0a4185"><path d="m27.313 59.815c0 .984.525 1.78 1.172 1.78.648 0 1.172-.796 1.172-1.78 0-.982-.524-1.78-1.172-1.78-.647 0-1.172.798-1.172 1.78m-4.037 1.997c0 .983.525 1.78 1.173 1.78.647 0 1.171-.797 1.171-1.78s-.524-1.78-1.171-1.78c-.648 0-1.173.797-1.173 1.78m36.318-20.06c0 .984.525 1.78 1.172 1.78s1.171-.796 1.171-1.78c0-.982-.524-1.78-1.171-1.78s-1.172.798-1.172 1.78m4.867-3.018c0 .983.525 1.78 1.172 1.78s1.172-.797 1.172-1.78-.525-1.78-1.172-1.78-1.172.797-1.172 1.78m4.867-2.387c0 .984.525 1.78 1.173 1.78.647 0 1.171-.796 1.171-1.78 0-.982-.524-1.78-1.171-1.78-.648 0-1.173.798-1.173 1.78"></path><path d="m21.719 60.924-9.023 4.998-6.366 8.167 15.654-8.734"></path></g></g></g></svg> 