<?xml version="1.0" encoding="UTF-8"?> <svg xmlns="http://www.w3.org/2000/svg" xmlns:xlink="http://www.w3.org/1999/xlink" width="40" height="41"><defs><path d="M26.598.308L10.4 9.66a.679.679 0 0 1-.616-.001L.2 4.089c-.01-.005-.018-.012-.026-.018-.011-.008-.023-.015-.032-.023a.263.263 0 0 1-.035-.038l-.004-.007a.19.19 0 0 1-.021-.04l-.001-.006a.151.151 0 0 1-.008-.044l.002.71v.003l.003.025.005.016.001.004.001.004a.173.173 0 0 0 .012.025l.008.012.005.007.004.007a.24.24 0 0 0 .027.029l.003.002.032.023.02.016.006.003 9.584 5.57c.17.098.445.099.616 0L26.6 1.018c.086-.05.128-.115.128-.18L26.726.13c0 .065-.042.13-.128.18" id="a"></path><path d="M16.391.183L.502 9.357a1.015 1.015 0 0 0-.46.798l.031 11.263 16.814-9.707L16.855.448c0-.208-.105-.328-.256-.328a.421.421 0 0 0-.208.063" id="c"></path><linearGradient x1="37.275%" y1="6.627%" x2="59.444%" y2="83.167%" id="d"><stop stop-color="#FFF" offset="0%"></stop><stop stop-color="#D3EBFF" offset="100%"></stop></linearGradient><path id="f" d="M0.0975602365 8.91989523L0.125884176 18.9417061 15.3984957 10.1242349 15.3700288 0.102423943z"></path><linearGradient x1="35.496%" y1="108.828%" x2="65.636%" y2="-13.419%" id="g"><stop stop-color="#176EAE" offset="0%"></stop><stop stop-color="#629CDF" offset="100%"></stop></linearGradient><path d="M16.557.05h-.023l-.007.001-.017.002a.377.377 0 0 0-.04.009l-.018.006-.017.006-.02.007a.534.534 0 0 0-.065.032L.46 9.287a.707.707 0 0 0-.086.06c-.01.007-.018.015-.027.023l-.04.036-.018.019-.015.016c-.006.007-.013.012-.018.02a1.06 1.06 0 0 0-.038.045l-.012.016-.006.01-.012.015a.84.84 0 0 0-.05.08H.136l-.002.003-.002.003-.018.032a.832.832 0 0 0-.036.076l-.001.002-.001.002a.995.995 0 0 0-.032.085l-.007.022-.003.01-.005.015a.897.897 0 0 0-.013.053l-.006.032c0 .006-.002.011-.003.017l-.002.015a.725.725 0 0 0-.006.09L.031 21.04c0 .192.103.368.268.465l.346.2-.032-11.263a.71.71 0 0 1 .009-.106l.003-.016a.87.87 0 0 1 .023-.101l.003-.01c.011-.036.024-.073.04-.109v-.002c.017-.037.035-.073.056-.108l.001-.003c.02-.034.042-.067.065-.099l.006-.008c.021-.029.044-.056.068-.081a.862.862 0 0 1 .074-.07v-.001l.026-.024a.718.718 0 0 1 .087-.06L16.964.469a.515.515 0 0 1 .085-.039l.016-.006a.378.378 0 0 1 .076-.016.27.27 0 0 1 .081.003h.004a.227.227 0 0 1 .066.026L16.68.081l-.002-.002a.235.235 0 0 0-.048-.02l-.017-.004h-.003l-.006-.002a.303.303 0 0 0-.028-.003H16.557z" id="i"></path></defs><g transform="translate(.5 .625)" fill="none" fill-rule="evenodd"><rect fill="#F5F7FA" opacity=".795" width="39.5" height="39.5" rx="5"></rect><g transform="matrix(-1 0 0 1 32.573 5.029)"><g transform="translate(.572 11.967)"><path d="M16.4.104a.676.676 0 0 1 .615 0l9.583 5.57c.17.098.17.258 0 .356L10.4 15.382a.678.678 0 0 1-.616-.001L.2 9.81c-.17-.098-.169-.257.002-.355L16.4.104z" fill="#D3ECFF"></path><path d="M6.636 12.407c-.04.023-.041.062 0 .085l.668.389c.04.023.107.023.147 0l.674-.389c.04-.023.04-.062 0-.085l-.67-.389a.164.164 0 0 0-.146 0l-.673.39zm4.678-1.33c-.085.05-.086.13-.001.179l2.01 1.168a.34.34 0 0 0 .307 0l4.275-2.468c.086-.05.085-.13 0-.178l-2.01-1.168a.337.337 0 0 0-.307 0l-4.274 2.468zm-2.741.212c-.042.024-.042.062-.002.085l.67.39c.04.022.106.022.147-.002l.672-.388c.04-.023.04-.061.001-.085l-.67-.388a.164.164 0 0 0-.146 0l-.672.388zm-3.86 0c-.041.024-.043.061-.001.085l.667.388a.161.161 0 0 0 .147 0l1.482-.855c.042-.024.042-.061 0-.085l-.667-.388a.158.158 0 0 0-.147 0l-1.482.855zm4.865-.837a.163.163 0 0 0 .148.001l.674-.389c.04-.023.04-.062 0-.086L9.73 9.59a.16.16 0 0 0-.146 0l-.674.39c-.04.022-.042.06 0 .084l.667.388zm-.633-.664c.04-.023.042-.06 0-.085l-.667-.388a.16.16 0 0 0-.147 0l-.673.389c-.04.023-.042.061 0 .085l.667.388a.16.16 0 0 0 .147 0l.673-.389zm-4.52.298c.039.023.106.023.146 0l.673-.389c.04-.023.04-.062 0-.085l-.668-.389a.163.163 0 0 0-.147 0l-.674.389c-.04.023-.04.062 0 .085l.67.389zm4.668-.468a.16.16 0 0 0 .147 0l.673-.389c.04-.023.042-.06 0-.085l-.667-.388a.161.161 0 0 0-.147 0l-.673.39c-.04.022-.042.06 0 .084l.667.388zM5.54 9.526l.672-.388c.04-.023.04-.062 0-.085l-.668-.389a.163.163 0 0 0-.147 0l-.672.388c-.042.024-.042.063-.002.086l.669.389c.04.023.107.023.148 0zm6.796-.58c.042-.024.042-.062 0-.086l-.667-.388a.16.16 0 0 0-.148 0l-.673.389c-.041.024-.041.06 0 .085l.668.388a.161.161 0 0 0 .148 0l.672-.387zm-7.444-.16c.04-.023.04-.062 0-.085l-.668-.389a.164.164 0 0 0-.147 0l-.672.388c-.042.024-.042.063-.002.086l.67.389c.04.023.105.023.147-.001l.672-.388zm5.169.274a.161.161 0 0 0 .147 0l.673-.39c.04-.023.042-.06 0-.084l-.667-.388a.16.16 0 0 0-.147 0l-.673.388c-.04.024-.042.061 0 .086l.667.388zm.968-.56a.161.161 0 0 0 .148 0l.672-.388c.042-.024.042-.061 0-.085l-.667-.388a.158.158 0 0 0-.147 0l-.672.388c-.042.024-.043.062-.002.086l.668.388zm3.244-.672c.04-.023.04-.062 0-.086l-.668-.388a.16.16 0 0 0-.147 0l-.674.389c-.04.023-.042.06 0 .085l.668.388a.163.163 0 0 0 .148 0l.673-.388zm-2.275.113a.161.161 0 0 0 .147 0l.672-.388c.042-.024.044-.062.002-.086l-.668-.388a.161.161 0 0 0-.148 0l-.672.389c-.04.023-.042.06 0 .085l.667.388zm-4.2-.832c.04-.023.04-.062 0-.085l-.67-.39a.162.162 0 0 0-.146 0l-.673.39c-.04.023-.04.061 0 .085l.668.389c.04.023.107.023.147 0l.674-.39zm5.168.273a.16.16 0 0 0 .147 0l.674-.389c.04-.023.042-.06 0-.085l-.668-.388a.16.16 0 0 0-.146 0l-.674.389c-.04.023-.042.06 0 .085l.667.388zm3.243-.672c.042-.024.04-.062 0-.086l-.668-.388a.158.158 0 0 0-.147 0l-.672.388c-.042.024-.043.062-.002.086l.668.388a.164.164 0 0 0 .15 0l.671-.388zm1.263-.56c-.041.025-.04.062 0 .086l.669.388a.16.16 0 0 0 .147 0l.666-.384c.042-.025.042-.063.002-.086l-.669-.39a.164.164 0 0 0-.148.002l-.667.385zm-1.115.389a.161.161 0 0 0 .148 0l.672-.388c.042-.024.042-.062 0-.086l-.667-.388a.161.161 0 0 0-.148 0l-.672.389c-.042.024-.042.06 0 .085l.667.388zm-3.431-1.023a.163.163 0 0 0-.147 0l-.674.39c-.04.022-.04.06 0 .084l.67.389c.039.023.106.023.146 0l.673-.389c.04-.023.04-.062 0-.085l-.668-.389zm4.4.464a.164.164 0 0 0 .147 0l.65-.375.02-.016c.04-.023.04-.061 0-.085l-.665-.386a.16.16 0 0 0-.147 0l-.673.389c-.04.023-.042.06 0 .085l.667.388zm-6.624-.548c.041-.024.041-.062.001-.086l-.669-.389a.164.164 0 0 0-.148.001l-.672.388c-.042.024-.04.062 0 .085l.669.39a.16.16 0 0 0 .146 0l.673-.389zm5.989-.115c.04-.024.041-.061 0-.085l-.668-.388a.16.16 0 0 0-.146 0l-.673.388c-.041.024-.043.061-.001.085l.667.389a.161.161 0 0 0 .148-.001l.673-.388zm2.42-.287c.04-.023.04-.061 0-.085l-.665-.386a.161.161 0 0 0-.147 0l-.673.389c-.04.023-.042.06 0 .085l.664.386c.04.023.107.023.147 0l.673-.389zm.451-.078c-.041.024-.04.062 0 .085l.198.115a.161.161 0 0 0 .149.001l.804-.464c.04-.023.04-.062-.001-.086l-.199-.115a.164.164 0 0 0-.147 0l-.804.464zm-1.903-.194c.041-.024.041-.061 0-.085l-.668-.388a.158.158 0 0 0-.146 0l-.673.388c-.041.024-.042.06 0 .085l.668.388a.158.158 0 0 0 .146 0l.673-.388zm.935-.37c-.04.024-.042.062 0 .086l.664.386c.04.024.107.024.147 0l1.92-1.108c.04-.023.04-.062 0-.085l-.665-.386a.161.161 0 0 0-.147 0l-1.92 1.108zm.034-.19c.04-.023.042-.06 0-.085l-.667-.388a.16.16 0 0 0-.147 0l-.674.389c-.04.023-.042.06 0 .085l.668.388a.16.16 0 0 0 .146 0l.674-.389zm-1.98-.055a.16.16 0 0 0 .146 0l.672-.388c.042-.024.04-.062 0-.085l-.668-.39a.16.16 0 0 0-.147 0l-.672.389c-.042.024-.04.062 0 .085l.668.389zm3.717-.948c.04-.023.042-.06 0-.085l-.667-.388a.16.16 0 0 0-.147 0l-1.443.833c-.04.023-.041.061 0 .085l.668.388a.16.16 0 0 0 .146 0l1.443-.833zm-5.144.742l.674-.39c.04-.022.04-.06 0-.084l-.669-.39a.164.164 0 0 0-.147 0l-.673.39c-.04.023-.04.062 0 .085l.669.389c.04.023.106.023.146 0zm-.646-.741c.04-.023.04-.062 0-.085l-.669-.39a.164.164 0 0 0-.147 0l-.673.39c-.04.023-.04.062 0 .085l.669.389c.04.023.106.023.146 0l.674-.39zm3.867-1.119c.04-.023.04-.061 0-.085l-.669-.389a.163.163 0 0 0-.147 0l-1.283.741c-.041.024-.04.062 0 .085l.669.39a.16.16 0 0 0 .147 0l1.283-.742zM7.604 11.848c-.04.024-.041.062-.001.085l.67.389c.04.023.106.023.146 0l.673-.389c.04-.023.04-.061.001-.085l-.67-.389a.163.163 0 0 0-.146 0l-.673.39zm-1.93 0c-.04.024-.042.061 0 .085l.667.388a.164.164 0 0 0 .148.001l1.975-1.14c.04-.023.04-.062 0-.086l-.669-.388a.16.16 0 0 0-.146 0l-1.975 1.14zM9.54 10.73c-.042.024-.04.061 0 .085l.668.389a.16.16 0 0 0 .147 0l.87-.502c.04-.024.04-.062 0-.085l-.67-.39a.164.164 0 0 0-.146 0l-.87.503zm-5.792 0c-.04.023-.04.061 0 .085l.669.388c.04.024.106.024.146 0l1.284-.74c.04-.024.04-.062 0-.085l-.669-.39a.163.163 0 0 0-.147 0l-1.283.742zm5.683-.107c.04-.023.04-.062 0-.086l-.669-.388a.16.16 0 0 0-.146 0l-.674.39c-.04.022-.042.06 0 .084l.667.388a.164.164 0 0 0 .149 0l.673-.388zm-2.275.113a.16.16 0 0 0 .147 0l.672-.388c.042-.024.043-.062.002-.086l-.668-.388a.161.161 0 0 0-.148.001l-.672.388c-.04.023-.042.06 0 .085l.667.388zm-4.37-.565c-.04.023-.04.062 0 .085l.67.389c.04.023.106.023.146 0l.673-.39c.04-.022.04-.061 0-.084l-.668-.39a.162.162 0 0 0-.147 0l-.674.39zm7.919-.114c-.042.024-.042.063-.002.086l.67.389c.04.023.106.023.147-.001l5.306-3.063c.04-.023.04-.062 0-.085l-.67-.389a.164.164 0 0 0-.146 0l-5.305 3.063zm-4.71.236c.04.023.106.023.148-.001l.672-.388c.04-.023.04-.062 0-.085l-.669-.389a.163.163 0 0 0-.147 0l-.672.388c-.042.024-.042.063-.002.086l.67.389zm-4.17-.681c-.04.023-.04.062 0 .085l.668.389c.04.023.107.023.147 0l1.283-.741c.04-.023.04-.062 0-.085l-.668-.389a.163.163 0 0 0-.147 0l-1.283.74zm9.542-.107c.042-.024.04-.061 0-.085l-.669-.389a.158.158 0 0 0-.146 0l-.673.389c-.041.024-.043.061-.001.085l.667.388a.164.164 0 0 0 .15 0l.672-.388zM7.116 8.87a.164.164 0 0 0-.148.001l-.672.388c-.042.024-.04.062 0 .085l.669.39a.16.16 0 0 0 .147 0l.672-.389c.041-.024.042-.063.002-.086l-.67-.389zm.817.304c.04.023.106.023.146 0l.674-.389c.04-.023.04-.061 0-.085l-.669-.389a.163.163 0 0 0-.146 0l-.674.39c-.04.023-.04.061 0 .084l.669.389zm-2.24-.68c-.042.024-.04.061 0 .084l.668.39a.16.16 0 0 0 .147 0l.672-.389c.042-.024.04-.061 0-.085l-.668-.389a.16.16 0 0 0-.147 0l-.672.388zm7.612-.107c.04-.023.04-.062 0-.086l-.668-.388a.161.161 0 0 0-.147 0l-.674.389c-.04.023-.042.06 0 .085l.668.388a.164.164 0 0 0 .148 0l.673-.388zm-4.253-.634a.164.164 0 0 0-.146 0l-.674.389c-.04.023-.04.061 0 .084l.669.39c.04.022.106.022.146 0l.674-.39c.04-.023.04-.061 0-.084l-.669-.39zm-3.192.474c.042-.024.042-.062.002-.085l-.669-.39a.163.163 0 0 0-.148.001l-.672.389c-.042.024-.04.061 0 .084l.668.39a.16.16 0 0 0 .147 0l.672-.389zm1.616.181l.672-.388c.042-.024.042-.062.002-.085l-.67-.39a.164.164 0 0 0-.147.001l-.672.389c-.04.023-.04.061 0 .084l.668.39c.04.023.107.023.147 0zm2.544-1.214a.164.164 0 0 0-.146 0l-.674.388c-.04.024-.04.062 0 .086l.669.388c.04.024.106.024.147 0l.673-.388c.04-.024.04-.062 0-.086l-.669-.388zm-3.19.474c.04-.024.04-.062 0-.086l-.669-.388a.164.164 0 0 0-.147 0l-.673.388c-.04.024-.04.062 0 .085l.668.39c.04.023.107.023.147 0l.674-.39zm.799-.292c-.04.023-.04.061 0 .085l.668.389c.04.023.107.023.147 0l.674-.39c.04-.023.04-.061 0-.084l-.669-.39a.163.163 0 0 0-.147 0l-.673.39zm7.612-.107c.04-.023.04-.062 0-.086l-.668-.388a.16.16 0 0 0-.147 0l-.674.39c-.04.022-.042.06 0 .084l.668.388a.164.164 0 0 0 .148.001l.673-.389zm-4.253-.634a.162.162 0 0 0-.146 0l-.673.388c-.041.024-.041.063-.001.086l.669.389c.04.023.106.023.148-.001l.672-.388c.04-.023.04-.062 0-.085l-.669-.39zm5.319.188c-.042.024-.04.062 0 .085l.669.39a.16.16 0 0 0 .146 0l.87-.503c.04-.023.04-.062 0-.085l-.669-.389a.162.162 0 0 0-.147 0l-.869.502zm-7.71-.006c-.04.023-.04.062 0 .085l.668.389c.04.023.107.023.147 0l.674-.39c.04-.022.04-.061 0-.084l-.67-.39a.163.163 0 0 0-.146 0l-.673.39zm3.36-.742a.164.164 0 0 0-.148 0l-.672.389c-.041.024-.04.062 0 .085l.67.389a.16.16 0 0 0 .146 0l.672-.388c.042-.024.042-.063.002-.086l-.67-.389zm-3.191.475c.04-.023.04-.062 0-.085l-.67-.39a.164.164 0 0 0-.146 0l-.673.39c-.04.023-.04.062 0 .085l.668.389c.04.023.107.023.147 0l.674-.39zm5.168.273a.16.16 0 0 0 .147 0l.674-.389c.04-.023.042-.06 0-.085l-.668-.388a.16.16 0 0 0-.146 0l-.674.39c-.04.022-.042.06 0 .084l.667.388zm-4.37-.565c-.04.023-.04.062 0 .085l.67.389c.04.023.106.023.146 0l.674-.39c.04-.022.04-.06 0-.084l-.67-.389a.162.162 0 0 0-.146 0l-.673.389zm.17-.267c.04-.023.04-.062 0-.085l-.67-.389a.163.163 0 0 0-.146 0l-.672.388c-.042.024-.042.063-.002.086l.67.389c.04.023.106.023.147-.001l.673-.388zm5.989-.115c.04-.024.041-.061 0-.086l-.668-.388a.161.161 0 0 0-.146 0l-.674.39c-.04.023-.042.06 0 .084l.667.388a.16.16 0 0 0 .147 0l.674-.388zm-5.19-.178c-.04.024-.04.062 0 .085l.67.39a.16.16 0 0 0 .146 0l.672-.389c.042-.024.041-.062.001-.085l-.67-.389a.16.16 0 0 0-.146 0l-.672.388zm7.92-.106c-.042.025-.04.062-.001.085l.657.382a.16.16 0 0 0 .147 0l.804-.464c.04-.023.04-.062 0-.085l-.657-.382a.164.164 0 0 0-.146 0l-.804.464zm-4.56-.635a.163.163 0 0 0-.146 0l-.674.39c-.04.023-.04.061 0 .084l.669.39c.04.022.107.022.147 0l.673-.39c.04-.023.04-.061 0-.085l-.668-.389zm-2.391.182c-.042.024-.04.062 0 .085l.669.39a.16.16 0 0 0 .146 0l.673-.389c.041-.024.04-.062 0-.085l-.67-.389a.16.16 0 0 0-.146 0l-.672.388zm8.517.078c-.042.024-.04.062 0 .085l.2.117a.16.16 0 0 0 .146 0l.804-.465c.04-.023.04-.061 0-.085l-.2-.116a.163.163 0 0 0-.146 0l-.804.464zm-5.309.044c.04.024.106.024.147 0l.673-.389c.04-.023.04-.061 0-.085l-.668-.388a.164.164 0 0 0-.147 0l-.674.388c-.04.024-.04.062 0 .085l.669.39zm-3.039-.389c.04-.023.04-.061 0-.085l-.669-.388a.163.163 0 0 0-.147 0l-.673.388c-.04.024-.04.062 0 .085l.669.39c.04.023.106.023.146 0l.674-.39zm.799-.291c-.04.023-.04.061 0 .085l.669.388c.04.024.106.024.146 0l.674-.388c.04-.024.04-.062 0-.085l-.669-.39a.163.163 0 0 0-.146 0l-.674.39zm8.202-.27c-.04.023-.04.062 0 .085l.656.382c.04.023.107.023.147 0l.804-.464c.04-.024.04-.062 0-.085l-.656-.382a.164.164 0 0 0-.147 0l-.804.464zm-4.994.391c.04.024.106.024.147 0l.673-.388c.04-.024.04-.062 0-.085l-.669-.39a.162.162 0 0 0-.146 0l-.674.39c-.04.023-.04.061 0 .085l.669.388zm-3.04-.388c.041-.024.041-.062.001-.085l-.669-.39a.164.164 0 0 0-.146 0l-.674.39c-.04.023-.04.061 0 .085l.669.388c.04.024.106.024.146 0l.674-.388zm1.615.182l.674-.39c.04-.023.04-.061 0-.084l-.669-.39a.163.163 0 0 0-.147 0l-.673.39c-.04.023-.04.061 0 .085l.669.388c.04.024.106.024.146 0zm-.646-.741c.04-.023.04-.062 0-.085l-.669-.39a.163.163 0 0 0-.146 0l-.674.39c-.04.023-.04.062 0 .085l.669.389c.04.023.106.023.146 0l.674-.39zm4.16-1.034a.163.163 0 0 0-.147 0l-.673.389c-.04.023-.04.062 0 .085l.668.389c.04.023.107.023.147 0l.674-.389c.04-.023.04-.062 0-.085l-.669-.389zm-1.576.656l.672-.388c.042-.024.04-.062 0-.085l-.669-.389a.16.16 0 0 0-.147 0l-.672.388c-.041.024-.042.063-.002.086l.67.389c.04.023.106.023.148 0zm3.213-.74c.04-.024.04-.063 0-.086l-.669-.389a.164.164 0 0 0-.147 0l-.673.39c-.04.022-.04.06 0 .084l.668.389c.04.023.107.023.147 0l.674-.389zm-3.861 0c.042-.024.04-.062 0-.085l-.669-.389a.16.16 0 0 0-.147 0l-.672.388c-.041.024-.04.062 0 .085l.669.389a.16.16 0 0 0 .147 0l.672-.388zm.97-.56c.04-.023.04-.061 0-.085l-.67-.389a.162.162 0 0 0-.146 0l-.674.39c-.04.023-.04.061 0 .084l.669.39c.04.022.106.022.147 0l.673-.39zm.294-.17a.164.164 0 0 1-.147 0l-.67-.389c-.04-.023-.04-.061.001-.085l.674-.389a.164.164 0 0 1 .147 0l.669.39c.04.023.04.061 0 .084l-.674.39z" fill="#9ACDFF"></path><path d="M14.93 10.527c.185.033.41.029.668-.012a.061.061 0 0 0 .02-.007c.013-.007.018-.017.013-.027-.007-.015-.033-.023-.058-.02a1.91 1.91 0 0 1-.615.013 2.012 2.012 0 0 1-.524-.16.075.075 0 0 0-.063.003.043.043 0 0 0-.004.003c-.016.012-.013.03.008.038.19.085.335.13.554.169" fill="#D3ECFF"></path><path d="M14.19 10.634c.157.079.305.153.328.268.003.015.027.026.053.024.01 0 .02-.003.028-.008.01-.005.016-.013.014-.022-.027-.136-.197-.222-.36-.304-.188-.094-.35-.175-.304-.32a.248.248 0 0 1 .12-.131.573.573 0 0 1 .242-.07c.167-.012.298.027.437.068.07.02.142.041.22.056.147.027.288.03.42.01a.057.057 0 0 0 .021-.007c.012-.007.017-.017.013-.027-.007-.015-.033-.024-.059-.02a1.082 1.082 0 0 1-.366-.009 2.037 2.037 0 0 1-.205-.053c-.146-.042-.297-.087-.492-.072a.707.707 0 0 0-.298.085.305.305 0 0 0-.146.16c-.057.176.142.276.334.372" fill="#D3ECFF"></path><path d="M13.67 10.452c.07.117.218.19.361.262.09.044.175.087.239.138.016.012.045.015.067.006a.04.04 0 0 0 .006-.003c.016-.01.018-.024.005-.036a1.433 1.433 0 0 0-.255-.147c-.14-.07-.272-.135-.333-.238-.079-.132-.002-.292.182-.398a.717.717 0 0 1 .067-.034c.226-.102.514-.109.79-.018.214.07.296.079.398.072a.065.065 0 0 0 .028-.007c.01-.006.016-.014.014-.023-.003-.015-.026-.026-.052-.025-.073.005-.132.003-.34-.066-.312-.101-.638-.093-.897.023a.844.844 0 0 0-.074.038c-.21.121-.297.305-.207.456m1.452.347a.297.297 0 0 1 .025.104c.002.015.024.027.05.026a.068.068 0 0 0 .031-.008c.01-.006.015-.013.014-.022a.496.496 0 0 0-.015-.082c.068 0 .136-.006.201-.017a.062.062 0 0 0 .021-.007c.012-.007.017-.017.012-.027-.007-.014-.033-.023-.059-.019a1.135 1.135 0 0 1-.232.014.071.071 0 0 0-.038.008.041.041 0 0 0-.004.003c-.01.008-.012.018-.006.027" fill="#D3ECFF"></path><path d="M14.727 10.912v.01c0 .016.021.028.047.029a.07.07 0 0 0 .035-.009c.008-.005.014-.011.014-.019v-.012c-.005-.144-.142-.284-.407-.416l-.005-.003c-.065-.033-.133-.066-.18-.107-.038-.033-.05-.085.012-.128a.12.12 0 0 1 .013-.009c.036-.02.117-.05.257-.022.078.016.14.036.205.058.11.037.226.076.433.096.125.012.276.003.384-.023a.064.064 0 0 0 .015-.006c.013-.008.018-.02.01-.03-.01-.014-.037-.02-.062-.015-.092.022-.222.03-.331.02a1.582 1.582 0 0 1-.401-.09 1.718 1.718 0 0 0-.221-.062.525.525 0 0 0-.355.034.237.237 0 0 0-.021.014c-.092.065-.075.144-.018.194.055.047.128.083.198.118l.004.002c.248.124.37.247.374.376" fill="#D3ECFF"></path><path d="M14.815 10.661c.08.057.134.18.139.265 0 .016.022.028.049.027a.067.067 0 0 0 .032-.008c.009-.005.014-.013.014-.02a.445.445 0 0 0-.097-.24c.222.024.415.02.627-.013a.061.061 0 0 0 .022-.007c.011-.007.017-.017.012-.027-.006-.014-.032-.023-.058-.02a2.192 2.192 0 0 1-.692-.001.075.075 0 0 0-.045.007.04.04 0 0 0-.007.005c-.01.01-.01.023.004.032" fill="#D3ECFF"></path></g><g transform="translate(.572 17.689)"><mask id="b" fill="#fff"><use xlink:href="#a"></use></mask><path d="M26.598.308L10.4 9.66a.679.679 0 0 1-.616-.001L.2 4.089c-.01-.005-.018-.012-.026-.018-.011-.008-.023-.015-.032-.023a.263.263 0 0 1-.035-.038l-.004-.007a.19.19 0 0 1-.021-.04l-.001-.006a.151.151 0 0 1-.008-.044l.002.71v.003l.003.025.005.016.001.004.001.004a.173.173 0 0 0 .012.025l.008.012.005.007.004.007a.24.24 0 0 0 .027.029l.003.002.032.023.02.016.006.003 9.584 5.57c.17.098.445.099.616 0L26.6 1.018c.086-.05.128-.115.128-.18L26.726.13c0 .065-.042.13-.128.18" mask="url(#b)"></path></g><g transform="translate(.572 .38)"><mask id="e" fill="#fff"><use xlink:href="#c"></use></mask><path d="M16.391.183L.502 9.357a1.015 1.015 0 0 0-.46.798l.031 11.263 16.814-9.707L16.855.448c0-.208-.105-.328-.256-.328a.421.421 0 0 0-.208.063" fill="url(#d)" mask="url(#e)"></path></g><g transform="translate(1.287 1.524)"><mask id="h" fill="#fff"><use xlink:href="#f"></use></mask><path fill="url(#g)" mask="url(#h)" d="M0.0975602365 8.91989523L0.125884176 18.9417061 15.3984957 10.1242349 15.3700288 0.102423943z"></path></g><g transform="translate(0 .094)"><mask id="j" fill="#fff"><use xlink:href="#i"></use></mask><path d="M16.557.05h-.023l-.007.001-.017.002a.377.377 0 0 0-.04.009l-.018.006-.017.006-.02.007a.534.534 0 0 0-.065.032L.46 9.287a.707.707 0 0 0-.086.06c-.01.007-.018.015-.027.023l-.04.036-.018.019-.015.016c-.006.007-.013.012-.018.02a1.06 1.06 0 0 0-.038.045l-.012.016-.006.01-.012.015a.84.84 0 0 0-.05.08H.136l-.002.003-.002.003-.018.032a.832.832 0 0 0-.036.076l-.001.002-.001.002a.995.995 0 0 0-.032.085l-.007.022-.003.01-.005.015a.897.897 0 0 0-.013.053l-.006.032c0 .006-.002.011-.003.017l-.002.015a.725.725 0 0 0-.006.09L.031 21.04c0 .192.103.368.268.465l.346.2-.032-11.263a.71.71 0 0 1 .009-.106l.003-.016a.87.87 0 0 1 .023-.101l.003-.01c.011-.036.024-.073.04-.109v-.002c.017-.037.035-.073.056-.108l.001-.003c.02-.034.042-.067.065-.099l.006-.008c.021-.029.044-.056.068-.081a.862.862 0 0 1 .074-.07v-.001l.026-.024a.718.718 0 0 1 .087-.06L16.964.469a.515.515 0 0 1 .085-.039l.016-.006a.378.378 0 0 1 .076-.016.27.27 0 0 1 .081.003h.004a.227.227 0 0 1 .066.026L16.68.081l-.002-.002a.235.235 0 0 0-.048-.02l-.017-.004h-.003l-.006-.002a.303.303 0 0 0-.028-.003H16.557z" mask="url(#j)"></path></g></g></g></svg> 