<?xml version="1.0" encoding="UTF-8"?> <svg xmlns="http://www.w3.org/2000/svg" width="46" height="49" viewBox="0 0 46 49"><g fill="none" fill-rule="evenodd" transform="translate(3 .5)"><ellipse cx="27.451" cy="41.318" fill="#F7F7FF" fill-rule="nonzero" rx="3.359" ry="3.564"></ellipse><ellipse cx="23.607" cy="39.657" fill="#F7F7FF" fill-rule="nonzero" rx="3.714" ry="3.564"></ellipse><rect width="5.437" height="15.077" x="15.709" y="26.481" fill="#F7F7FF" fill-rule="nonzero"></rect><path fill="#6C63FF" fill-rule="nonzero" d="M10.9398526,26.3716854 C10.9398526,26.3716854 11.533111,26.2368539 11.9218751,26.6355056 C11.9218751,26.6355056 11.6719874,26.8602247 11.0841222,26.611236 L10.9398526,26.3716854 Z"></path><path fill="#AFC0E0" fill-rule="nonzero" d="M14.8841222,25.6161798 C14.7687784,25.6366677 14.6558315,25.6688952 14.5470436,25.7123596 C12.1227739,26.6804494 12.1632234,33.0175281 12.1632234,33.0175281 L11.4495155,33.0175281 C11.4495155,33.0175281 11.2247964,30.2979775 10.2454706,26.4179775 C9.36322337,22.927191 12.9816503,19.7986517 13.7164818,19.2053933 C13.7991784,19.1393258 13.8450211,19.1042697 13.8450211,19.1042697 C17.4895155,20.4435955 14.8841222,25.6161798 14.8841222,25.6161798 L14.8841222,25.6161798 Z"></path><path fill="#FFF" fill-rule="nonzero" d="M14.1101897,19.214382 C14.0261447,19.1757303 13.9394031,19.1388764 13.8472683,19.1051685 C13.8472683,19.1051685 13.8023245,19.1402247 13.718729,19.2062921 C12.9838975,19.7995506 9.36547056,22.9280899 10.2477178,26.4188764 C11.2270436,30.2988764 11.4495155,33.0175281 11.4495155,33.0175281 L11.8508638,33.0175281 C11.8508638,33.0175281 11.6283919,30.2979775 10.6468189,26.4179775 C9.76816719,22.9433708 13.351538,19.8265169 14.1101897,19.214382 L14.1101897,19.214382 Z" opacity=".2"></path><path fill="#AFC0E0" fill-rule="nonzero" d="M26.9083919,26.4188764 C25.9268189,30.2988764 25.7056953,33.0175281 25.7056953,33.0175281 L24.9906391,33.0175281 C24.9906391,33.0175281 25.0355829,26.3946067 22.4409762,25.6552809 C22.3847806,25.6384156 22.3275919,25.6250565 22.2697402,25.6152809 C22.2697402,25.6152809 19.6629987,20.4426966 23.3088413,19.1042697 C23.3088413,19.1042697 23.3456953,19.1316854 23.4122121,19.1851685 C24.0877178,19.7258427 27.8005267,22.8876404 26.9083919,26.4188764 L26.9083919,26.4188764 Z"></path><path fill="#000" fill-rule="nonzero" d="M14.8841222 25.6161798C14.7687784 25.6366677 14.6558315 25.6688952 14.5470436 25.7123596 14.1087467 23.5673483 13.831122 21.3926213 13.7164818 19.2062921 13.7991784 19.1402247 13.8450211 19.1051685 13.8450211 19.1051685 17.4895155 20.4435955 14.8841222 25.6161798 14.8841222 25.6161798L14.8841222 25.6161798zM23.4135604 19.1860674C23.264954 21.3660411 22.9401482 23.5304107 22.4423245 25.6579775 22.3861289 25.6411122 22.3289402 25.6277531 22.2710885 25.6179775 22.2710885 25.6179775 19.664347 20.4453933 23.3101897 19.1069663 23.3088413 19.1051685 23.3456953 19.1325843 23.4135604 19.1860674L23.4135604 19.1860674z" opacity=".1"></path><path fill="#E3E8F4" fill-rule="nonzero" d="M22.0791784,26.5968539 C21.827493,27.5898127 21.5325118,28.6085393 21.1942346,29.6530337 C21.1942346,29.6530337 19.5888413,31.3253933 15.7110885,29.6530337 C15.7110885,29.6530337 15.3236728,28.5608989 14.8976054,26.7042697 C13.9596279,22.6220225 12.834684,14.8426966 15.231538,6.85213483 C15.9452924,4.45001179 16.9597724,2.14772519 18.2508638,-2.5547604e-15 C18.2508638,-2.5547604e-15 20.2985043,2.35101124 21.8014256,6.85078652 C23.304347,11.3505618 24.2607515,18 22.0791784,26.5968539 Z"></path><circle cx="18.577" cy="13.196" r="3.219" fill="#AFC0E0" fill-rule="nonzero"></circle><path fill="#545FEC" fill-rule="nonzero" d="M20.8598526,13.1973034 C20.8598526,14.0798082 20.3512153,14.8832762 19.5535664,15.260862 C18.7559176,15.6384478 17.8120881,15.522529 17.1295155,14.9631461 C16.9662912,14.8287291 16.8223215,14.6725099 16.7016503,14.4988764 C16.6474608,14.4213114 16.5982242,14.3404013 16.5542346,14.2566292 C16.383007,13.9297968 16.2937068,13.5662725 16.2940091,13.1973034 C16.2940091,13.1788764 16.2940091,13.1608989 16.2940091,13.1429213 C16.3180414,12.1407099 16.9922926,11.2711081 17.9569312,10.9982022 C18.1363658,10.9487501 18.3210187,10.9206901 18.5070436,10.9146063 L18.5753582,10.9146063 C19.1810419,10.914249 19.7620474,11.1545745 20.190499,11.582689 C20.6189507,12.0108035 20.8597335,12.5916196 20.8598526,13.1973034 L20.8598526,13.1973034 Z"></path><path fill="#AFC0E0" fill-rule="nonzero" d="M21.8009762,6.85078652 C18.1483919,8.59955056 15.2292908,6.85078652 15.2292908,6.85078652 C15.9438612,4.44902125 16.9590955,2.14718929 18.2508638,0 C18.2508638,0 20.2985043,2.35101124 21.8009762,6.85078652 L21.8009762,6.85078652 Z"></path><path fill="#FFC972" fill-rule="nonzero" d="M22.0791784,26.5968539 C21.9083919,27.2692135 21.7181297,27.9531086 21.5083919,28.6485393 C21.4089163,28.9802247 21.3040473,29.3146067 21.1937852,29.6516854 C21.1937852,29.6516854 19.5883919,31.3240449 15.7106391,29.6516854 C15.7106391,29.6516854 15.5847964,29.2970787 15.3960324,28.6485393 C15.2549088,28.1586517 15.0791784,27.5020225 14.8958076,26.7029213 C14.8958076,26.7029213 16.3394031,27.3191011 18.3883919,27.3191011 C19.6541824,27.323438 20.9083923,27.0780026 22.0791784,26.5968539 Z"></path><path fill="#E3E8F4" fill-rule="nonzero" d="M21.5083919,28.6485393 C21.4089163,28.9802247 21.3040473,29.3146067 21.1937852,29.6516854 C21.1937852,29.6516854 19.5883919,31.3240449 15.7106391,29.6516854 C15.7106391,29.6516854 15.5847964,29.2970787 15.3960324,28.6485393 C15.3955829,28.6485393 19.3479425,29.785618 21.5083919,28.6485393 Z"></path><path fill="#FFF" fill-rule="nonzero" d="M17.9582796 10.9950562L17.9533357 10.9986517 16.294908 13.1397753C16.294908 13.1577528 16.294908 13.1757303 16.294908 13.1941573 16.2946057 13.5631265 16.3839059 13.9266507 16.5551335 14.2534831L18.5092908 10.9114607 17.9582796 10.9950562zM18.4877178 12.9276404L17.1295155 14.9613483C16.9662912 14.8269313 16.8223215 14.6707121 16.7016503 14.4970787L18.3196279 12.7604494 18.4877178 12.9276404z" opacity=".2"></path><path fill="#FFF" fill-rule="nonzero" d="M16.5785043,29.6521348 C16.5785043,29.6521348 16.1910885,28.5595506 15.7650211,26.7033708 C14.8270436,22.6206742 13.7020998,14.8413483 16.0989537,6.85078652 C16.7432436,4.68872123 17.6305569,2.60666371 18.7438975,0.644494382 C18.4396279,0.217977528 18.2495155,0.000449438202 18.2495155,0.000449438202 C16.9582199,2.14754951 15.943439,4.44922966 15.2292908,6.85078652 C12.8324369,14.8413483 13.9573807,22.6206742 14.8953582,26.7033708 C15.3214256,28.5595506 15.7088413,29.6521348 15.7088413,29.6521348 C17.2409762,30.3123596 18.4180548,30.4507865 19.2818751,30.3770787 C18.5438975,30.3208989 17.6477178,30.112809 16.5785043,29.6521348 Z" opacity=".2"></path><ellipse cx="30.631" cy="42.177" fill="#F7F7FF" fill-rule="nonzero" rx="3.508" ry="3.564"></ellipse><ellipse cx="33.924" cy="44.342" fill="#F7F7FF" fill-rule="nonzero" rx="3.508" ry="3.564"></ellipse><rect width="30.12" height="7.427" x="3.583" y="40.497" fill="#F7F7FF" fill-rule="nonzero"></rect><ellipse cx="13.698" cy="39.228" fill="#F7F7FF" fill-rule="nonzero" rx="3.714" ry="3.564"></ellipse><ellipse cx="10.42" cy="41.288" fill="#F7F7FF" fill-rule="nonzero" rx="3.359" ry="3.564"></ellipse><ellipse cx="6.718" cy="42.177" fill="#F7F7FF" fill-rule="nonzero" rx="3.508" ry="3.564"></ellipse><ellipse cx="3.508" cy="44.416" fill="#F7F7FF" fill-rule="nonzero" rx="3.508" ry="3.564"></ellipse><polygon stroke="#E07A5F" stroke-width="6.529" points="5.448 29.643 6.981 29.643 6.981 31.271 5.448 31.271" transform="rotate(-7.819 6.214 30.457)"></polygon><polygon stroke="#89E78E" stroke-width="6.538" points="30.674 34.759 32.339 34.759 32.339 36.424 30.674 36.424" transform="rotate(37.629 31.506 35.592)"></polygon><polygon stroke="#FFC972" stroke-width="6.538" points="35.825 36.8 37.488 37.76 35.825 38.721" transform="rotate(-37.044 36.657 37.76)"></polygon><polygon fill="#89E78E" fill-rule="nonzero" stroke="#89E78E" stroke-width="6.538" points="7.743 36.111 6.421 34.788 8.227 34.304"></polygon><circle cx="1.773" cy="38.015" r="1" stroke="#E07A5F" stroke-width="7.364"></circle><circle cx="29.777" cy="30.736" r="1" fill="#E07A5F" fill-rule="nonzero" stroke="#E07A5F" stroke-width="6.538"></circle><polygon stroke="#E07A5F" stroke-linecap="round" stroke-linejoin="round" stroke-width="7.924" points="35.501 31.216 35.637 31.216 35.637 33.379 35.501 33.379" transform="rotate(34.834 35.57 32.298)"></polygon><polygon stroke="#FFC972" stroke-linecap="round" stroke-linejoin="round" stroke-width="7.924" points="2.171 31.801 2.307 31.801 2.307 33.965 2.171 33.965" transform="rotate(-32.857 2.24 32.883)"></polygon></g></svg> 