<?xml version="1.0" encoding="UTF-8"?> <svg xmlns="http://www.w3.org/2000/svg" xmlns:xlink="http://www.w3.org/1999/xlink" width="50px" height="46px" viewBox="0 0 50 46" version="1.1"><!-- Generator: Sketch 63.1 (92452) - https://sketch.com --><title>Group 26</title><desc>Created with Sketch.</desc><defs><polyline id="path-1" points="8.56277379 0.21788291 7.5701415 3.01547982 0.0793418037 9.33310164"></polyline><polygon id="path-3" points="11.34858 5.99067464 0.208057299 13.6679153 10.1785954 19.5839153 19.3186238 18.1547803 19.3186238 4.56129397 11.2753792 0.0744289985"></polygon><polygon id="path-5" points="11.34858 5.99067464 0.208057299 13.6679153 10.1785954 19.5839153 19.3186238 18.1547803 19.3186238 4.56129397 11.2753792 0.0744289985"></polygon></defs><g id="Pages" stroke="none" stroke-width="1" fill="none" fill-rule="evenodd"><g id="P---03---SCO" transform="translate(-760.000000, -5641.000000)"><g id="Group-13" transform="translate(0.000000, 5437.000000)"><g id="Industry-Box" transform="translate(427.000000, 109.500000)"><g id="Group-27"><g><g id="Group-26" transform="translate(359.500000, 123.500000) scale(-1, 1) translate(-359.500000, -123.500000) translate(333.000000, 94.500000)"><path d="M1.31980988,42.5290383 L21.8780338,54.3454901 L21.8780338,54.3454901 L27.0744403,57.3322795 C27.3921786,57.514909 27.7843635,57.5091003 28.0965536,57.3171408 L51.6197297,42.8532081 C52.0901935,42.5639293 52.237073,41.9480362 51.9477942,41.4775723 C51.8745676,41.3584815 51.7771837,41.2560679 51.6619282,41.1769419 L25.1777327,22.9948185 L25.1777327,22.9948185 L1.22033399,40.8604069 C0.777598982,41.1905647 0.686337101,41.8171181 1.01649487,42.2598531 C1.09815363,42.3693558 1.20138097,42.4609678 1.31980988,42.5290383 Z" id="Path-5" fill="#2A2C37" opacity="0.3"></path><g id="Group-116" transform="translate(24.102974, 27.500000) scale(-1, 1) translate(-24.102974, -27.500000) translate(1.602974, 0.000000)"><g id="Group-3" transform="translate(13.264574, 36.357952)"><mask id="mask-2" fill="white"><use xlink:href="#path-1"></use></mask><g id="Clip-2"></g><polyline id="Fill-1" mask="url(#mask-2)" points="8.56277379 0.21788291 7.5701415 3.01547982 0.0793418037 9.33310164"></polyline></g><polygon id="Fill-4" fill="#111874" points="10.9149267 46.072852 32.6147871 33.5444618 32.6501593 16.7920418 10.9149267 29.3410657"></polygon><polygon id="Fill-5" fill="#E66557" points="0.0473103139 23.0666766 10.9149267 29.3410657 32.650405 16.7920418 21.782543 10.5176527"></polygon><polygon id="Fill-6" fill="#D63A3C" points="0 39.8258026 10.9150249 46.07268 10.9150249 29.3411394 0.04740857 23.0667503"></polygon><polygon id="Fill-7" fill="#111874" points="22.8121933 36.1340506 22.8121933 52.8660825 44.5118081 40.3376923 44.547426 23.5852723"></polygon><polygon id="Fill-8" fill="#83D3F2" points="11.9445278 29.859686 22.8121441 36.1340751 44.5476225 23.5852969 33.6797605 17.3109077"></polygon><polygon id="Fill-9" fill="#255998" points="11.9445032 29.8597597 11.8973403 46.618812 22.8121196 52.8659351 22.8121196 36.1341488"></polygon><polygon id="Fill-10" fill="#449DF8" points="22.8595036 18.8235604 22.8595036 35.5553467 44.5591184 23.0269566 44.5947363 6.27453652"></polygon><polygon id="Fill-11" fill="#C4E9F9" points="33.7271691 2.45640259e-05 11.9919364 12.5490485 22.8595527 18.8234376 44.5947854 6.27465934"></polygon><polygon id="Fill-12" fill="#2EBAFF" points="11.9917644 12.5489502 11.9446015 29.3082482 22.8593808 35.5551256 22.8593808 18.8233394"></polygon><g id="Group-77" transform="translate(1.473842, 9.583163)" stroke-linecap="round" stroke-linejoin="round" stroke-width="1.398"><g id="Group-23" transform="translate(11.790732, 5.649726)" stroke="#4993BF"><line x1="0.237976283" y1="0.165635227" x2="0.237976283" y2="12.5996995" id="Stroke-13"></line><line x1="2.1959011" y1="1.28133328" x2="2.1959011" y2="13.7153976" id="Stroke-15"></line><line x1="4.15382591" y1="2.39703134" x2="4.15382591" y2="14.8313413" id="Stroke-17"></line><line x1="6.11175072" y1="3.5127294" x2="6.11175072" y2="15.9470393" id="Stroke-19"></line><line x1="8.06967554" y1="4.62842745" x2="8.06967554" y2="17.0627374" id="Stroke-21"></line></g><g id="Group-44" transform="translate(23.090184, 0.000000)" stroke="#4993BF"><line x1="17.753748" y1="0.209899601" x2="17.753748" y2="12.6442095" id="Stroke-24"></line><line x1="15.8202889" y1="1.32859447" x2="15.8202889" y2="13.7629044" id="Stroke-26"></line><line x1="13.8870755" y1="2.44728934" x2="13.8870755" y2="14.8815993" id="Stroke-28"></line><line x1="11.9536165" y1="3.56598421" x2="11.9536165" y2="16.0002941" id="Stroke-30"></line><line x1="10.0201574" y1="4.68467907" x2="10.0201574" y2="17.118989" id="Stroke-32"></line><line x1="8.08669841" y1="5.80337394" x2="8.08669841" y2="18.2376839" id="Stroke-34"></line><line x1="6.15323936" y1="6.92206881" x2="6.15323936" y2="19.3563787" id="Stroke-36"></line><line x1="4.21978032" y1="8.04076368" x2="4.21978032" y2="20.4750736" id="Stroke-38"></line><line x1="2.28632128" y1="9.15945855" x2="2.28632128" y2="21.5937685" id="Stroke-40"></line><line x1="0.352886796" y1="10.2781534" x2="0.352886796" y2="22.7124633" id="Stroke-42"></line></g><g id="Group-65" transform="translate(23.090184, 17.686099)" stroke="#091158"><line x1="17.753748" y1="0.0321297459" x2="17.753748" y2="12.4664397" id="Stroke-45"></line><line x1="15.8202889" y1="1.15082461" x2="15.8202889" y2="13.5851345" id="Stroke-47"></line><line x1="13.8870755" y1="2.26951948" x2="13.8870755" y2="14.7038294" id="Stroke-49"></line><line x1="11.9536165" y1="3.38821435" x2="11.9536165" y2="15.8225243" id="Stroke-51"></line><line x1="10.0201574" y1="4.50690922" x2="10.0201574" y2="16.9412191" id="Stroke-53"></line><line x1="8.08669841" y1="5.62560409" x2="8.08669841" y2="18.059914" id="Stroke-55"></line><line x1="6.15323936" y1="6.74429895" x2="6.15323936" y2="19.1786089" id="Stroke-57"></line><line x1="4.21978032" y1="7.86299382" x2="4.21978032" y2="20.2973037" id="Stroke-59"></line><line x1="2.28632128" y1="8.98168869" x2="2.28632128" y2="21.4159986" id="Stroke-61"></line><line x1="0.352886796" y1="10.1003836" x2="0.352886796" y2="22.5346935" id="Stroke-63"></line></g><g id="Group-76" transform="translate(0.000000, 16.212257)" stroke="#B83234"><line x1="0.127634679" y1="0.0741096662" x2="0.127634679" y2="12.5084196" id="Stroke-66"></line><line x1="2.08555949" y1="1.18980772" x2="2.08555949" y2="13.6241176" id="Stroke-68"></line><line x1="4.0434843" y1="2.30550578" x2="4.0434843" y2="14.7398157" id="Stroke-70"></line><line x1="6.00140912" y1="3.42120384" x2="6.00140912" y2="15.8555138" id="Stroke-72"></line><line x1="7.95957957" y1="4.53702471" x2="7.95957957" y2="16.971089" id="Stroke-74"></line></g></g><polygon id="Fill-80" fill="#255998" points="13.3439895 32.2438212 13.3439895 45.6909059 21.0150891 50.1131675 21.0150891 36.4855372"></polygon><polygon id="Fill-81" fill="#111874" points="13.3439895 45.1494165 21.0150891 38.5613448 21.0109133 36.4751221 13.3717468 32.2646024"></polygon><polygon id="Fill-82" fill="#FFD783" points="14.2357619 38.6903551 17.8513409 41.0173052 21.0380319 39.1477372 21.0380319 36.4977701 19.6000539 35.695509"></polygon><polygon id="Fill-83" fill="#E6AF6C" points="14.2357619 44.9614035 17.9486144 47.1333547 17.9827584 40.9601693 14.2357619 38.6904533"></polygon><polygon id="Fill-84" fill="#FEC47A" points="17.982783 40.9601447 17.948639 47.1335757 21.0380565 45.3674223 21.0380565 39.1598473"></polygon><polygon id="Fill-85" fill="#FFFFFF" points="19.98087 38.1058295 21.0381056 38.8253098 21.0381056 37.4455485 21.0140329 37.4300731"></polygon><g id="Group-88" transform="translate(1.719482, 31.936427)"><mask id="mask-4" fill="white"><use xlink:href="#path-3"></use></mask><g id="Clip-87"></g><polygon id="Fill-86" fill="#FFECCD" mask="url(#mask-4)" points="19.5742371 7.05434609 19.5742371 8.87110144 20.69755 8.23047165 20.69755 6.38939791"></polygon></g><polygon id="Fill-89" fill="#FFD783" points="18.1766668 41.700308 21.0381302 43.541873 21.0381302 40.1029094"></polygon><polygon id="Fill-90" fill="#E6AF6C" points="18.1766668 47.3366465 21.0381302 49.0106849 21.0381302 43.4334228 18.1766668 41.7004308"></polygon><polygon id="Fill-91" fill="#FFD783" points="14.6816726 35.1495981 16.5089905 36.325478 18.5659821 35.1186474 16.650725 34.0503579"></polygon><polygon id="Fill-92" fill="#E6AF6C" points="14.6816726 38.3187259 16.5578729 39.4164922 16.5753134 36.2968609 14.6816726 35.1494753"></polygon><polygon id="Fill-93" fill="#FEC47A" points="16.5751906 36.2967627 16.5579958 39.416394 20.4879943 37.1697682 20.4879943 36.1908917 18.5702808 35.1211284"></polygon><polygon id="Fill-94" fill="#FFD783" points="16.6419556 36.286151 18.4692735 37.4620309 20.563848 36.2330927 18.6495734 35.1652945"></polygon><polygon id="Fill-95" fill="#FEC47A" points="18.5354735 37.4330945 18.5182787 40.5527258 21.0380565 39.1122913 21.0380565 36.4976964 20.567901 36.2355983"></polygon><polygon id="Fill-96" fill="#FFECCD" points="15.816457 39.6449622 16.3470399 39.9859109 17.1750932 39.5611989 16.6334565 39.2261456"></polygon><polygon id="Fill-97" fill="#FFD783" points="18.9110821 37.5465066 21.0380811 38.9152142 21.0380811 36.4976227 20.9137871 36.4283522"></polygon><polygon id="Fill-98" fill="#E6AF6C" points="18.9110821 41.3198358 21.0380811 42.5640037 21.0380811 38.8349389 18.9110821 37.5465558"></polygon><g id="Group-101" transform="translate(1.719482, 31.936427)"><mask id="mask-6" fill="white"><use xlink:href="#path-5"></use></mask><g id="Clip-100"></g><polygon id="Fill-99" fill="#FEC47A" mask="url(#mask-6)" points="24.1053664 4.23031829 24.1053664 8.0151434 19.4256738 10.6904115 19.446062 6.97559382"></polygon></g><line x1="15.615425" y1="36.057853" x2="15.615425" y2="38.8154105" id="Stroke-102" stroke="#E6AF6C" stroke-width="0.28"></line><polygon id="Fill-104" fill="#E6AF6C" points="16.6419065 36.2861019 16.6419065 39.4551069 18.5183524 40.5528732 18.5355472 37.4329963"></polygon><polygon id="Fill-105" fill="#FFECCD" points="16.2036351 35.1843071 15.3915484 35.5829812 15.9489062 35.9229473 16.7452719 35.519606"></polygon><polygon id="Fill-106" fill="#FFECCD" points="18.0677499 36.2576813 17.2556632 36.6563555 17.813021 36.9963216 18.6093867 36.5929803"></polygon><polygon id="Fill-107" fill="#FFFFFF" points="15.397149 35.5840866 15.397149 36.4580746 15.9481201 36.7955844 15.9481201 35.9213507"></polygon><line x1="17.483642" y1="37.127125" x2="17.483642" y2="39.8849282" id="Stroke-108" stroke="#E6AF6C" stroke-width="0.28"></line><polygon id="Fill-110" fill="#FFFFFF" points="17.2653415 36.6533586 17.2653415 37.5273467 17.8163126 37.8648564 17.8163126 36.9906227"></polygon><polygon id="Fill-111" fill="#83D3F2" points="21.1903289 49.6393029 26.1645441 52.2364573 26.1645441 39.427546 21.1173737 36.5415186 20.7656169 36.8932755"></polygon><polyline id="Fill-112" fill="#255998" points="20.7637992 36.8721259 25.7424359 39.7033755 25.7424359 52.5125324 20.767975 49.915378"></polyline><polygon id="Fill-113" fill="#83D3F2" points="8.42494504 42.2818613 13.3991603 44.8790157 13.3991603 32.0701044 8.35198989 29.184077 8.00023303 29.5358339"></polygon><polyline id="Fill-114" fill="#255998" points="7.99819422 29.5146843 12.976831 32.3459339 12.976831 45.1550908 8.00261574 42.5579364"></polyline><polygon id="Fill-115" fill="#4E99C7" points="12.9767327 32.3460076 13.399234 32.0699079 13.399234 44.8790649 12.9767327 45.1551645"></polygon></g></g></g></g></g></g></g></g></svg> 