<?xml version="1.0" encoding="UTF-8"?> <svg xmlns="http://www.w3.org/2000/svg" xmlns:xlink="http://www.w3.org/1999/xlink" width="119px" height="97px" viewBox="0 0 119 97" version="1.1"><!-- Generator: Sketch 62 (91390) - https://sketch.com --><title>Group 137</title><desc>Created with Sketch.</desc><defs><polygon id="path-1" points="0 0.138729477 121.715533 0.138729477 121.715533 61.6062068 0 61.6062068"></polygon><polygon id="path-3" points="0.104769055 0.110891172 6.7027938 0.110891172 6.7027938 3.70314909 0.104769055 3.70314909"></polygon></defs><g id="Pages" stroke="none" stroke-width="1" fill="none" fill-rule="evenodd"><g id="P---05---Freight-Forwarding" transform="translate(-925.000000, -905.000000)"><g id="Group-137" transform="translate(922.000000, 904.500000)"><g id="Group-3" transform="translate(0.000000, 34.927639)"><mask id="mask-2" fill="white"><use xlink:href="#path-1"></use></mask><g id="Clip-2"></g><path d="M25.3915049,35.6218322 C21.4089222,37.8808915 17.4064716,40.129164 13.6585555,42.7884898 C10.2300257,45.2212932 6.00640382,48.3386718 3.95775791,52.1779939 C3.24588626,53.5120871 2.94336892,55.1624639 3.51391587,56.5666711 C4.19317413,58.2393921 5.90968824,59.1890137 7.56434936,59.8173434 C12.0747442,61.5301295 16.9873708,61.8283068 21.7882872,61.5447687 C33.559473,60.8494068 44.6416539,56.4977128 54.7094459,50.3565696 C65.6964107,43.6545139 76.5233076,36.6731578 87.3775696,29.7472765 C96.4857031,23.9355151 111.174101,14.4778232 121.091196,8.41064643 C121.935021,7.89403686 121.920776,6.63391017 121.064956,6.13964464 L115.621518,2.99645488 L105.856993,0.138729477 L73.1461345,7.47335256 C73.1461345,7.47335256 25.3915049,35.6218322 25.3915049,35.6218322" id="Fill-1" fill="#2A2C37" opacity="0.3" mask="url(#mask-2)"></path></g><path d="M20.6276447,69.5611852 C15.91631,72.2633875 11.9527207,76.1526643 9.37142066,80.9313807 C7.55711787,84.2896891 20.1163132,90.1284173 20.1163132,90.1284173 C22.9952482,91.5257231 35.7808464,92.2946456 43.4165507,88.0338063 C49.0427375,84.893815 96.5750063,55.7067194 114.321444,45.2636973 L116.627827,33.3113231 L103.276221,34.0971873 L69.6781215,41.4279408 L20.6276447,69.5611852 Z" id="Fill-4" fill="#28A6D6"></path><path d="M22.4099508,59.614093 L71.4604276,31.4808487 L103.636964,24.4600513 L103.455996,24.3668719 L70.6938153,31.5151171 L22.8642966,58.948361 C19.3673742,60.954028 16.2974599,63.6342831 13.9183053,66.8535924 C16.2539506,63.9400039 19.1452069,61.4865367 22.4099508,59.614093" id="Fill-6" fill="#55C3EE"></path><path d="M10.0349195,80.5332891 C12.0274953,86.8633269 33.8607349,82.5755349 44.6044723,76.4484126 C50.0623972,73.335759 95.3260175,46.6541108 112.630046,36.4713749 C115.535164,34.7621877 115.410796,30.5248358 112.414809,28.9812153 L103.63708,24.4600898 L71.460158,31.4808872 L22.0958746,59.3961996 C18.8315158,61.2690283 16.253681,63.9400424 13.9184208,66.8536309 C13.1718305,67.8632026 12.4895418,68.9228294 11.8884963,70.0352065 C10.119628,73.3103464 8.95142034,77.0902723 10.0349195,80.5332891" id="Fill-8" fill="#255998"></path><polygon id="Fill-10" fill="#78CCFF" points="71.4170337 18.8426819 71.4170337 35.915687 92.4505478 48.4167414 92.4374565 30.626024"></polygon><polygon id="Fill-12" fill="#184080" points="73.67802 24.6176862 73.67802 26.1578414 74.9575039 26.9402402 74.9563488 25.3353985"></polygon><polygon id="Fill-14" fill="#184080" points="78.6492943 27.2689478 78.6492943 28.809103 79.9287782 29.5918868 79.9276231 27.9866601"></polygon><polygon id="Fill-16" fill="#184080" points="83.6202221 29.9202479 83.6202221 31.4604031 84.9000911 32.243187 84.898936 30.6383453"></polygon><polygon id="Fill-18" fill="#184080" points="88.5914965 32.5715095 88.5914965 34.1116647 89.8713654 34.8944486 89.8698253 33.2896069"></polygon><polygon id="Fill-20" fill="#184080" points="73.67802 30.0362601 73.67802 31.5764153 74.9575039 32.3591992 74.9563488 30.7539724"></polygon><polygon id="Fill-22" fill="#184080" points="78.6492943 32.6875217 78.6492943 34.2276769 79.9287782 35.0104608 79.9276231 33.4056191"></polygon><polygon id="Fill-24" fill="#184080" points="83.6202221 35.3387833 83.6202221 36.8789385 84.9000911 37.6617224 84.898936 36.0568807"></polygon><polygon id="Fill-26" fill="#184080" points="88.5914965 37.990276 88.5914965 39.5304311 89.8713654 40.31283 89.8698253 38.7079883"></polygon><polygon id="Fill-28" fill="#FFFFFF" points="71.4170337 18.8426819 86.5659999 11.5292551 107.36002 22.4524206 92.4374565 30.626024"></polygon><polygon id="Fill-30" fill="#78CCFF" points="76.9779179 10.6160201 76.9779179 18.2490291 92.0364001 27.1988708 92.0271591 19.05222"></polygon><polygon id="Fill-32" fill="#FFFFFF" points="77.0098762 10.6410476 88.681172 5.10688501 102.688883 13.0267479 92.0533418 19.0341232"></polygon><polygon id="Fill-34" fill="#CCEAFB" points="102.699549 12.9405762 92.0270436 18.8767193 92.0366696 27.1989478 102.699549 20.8500431"></polygon><polygon id="Fill-36" fill="#184080" points="76.9809212 14.009752 92.0243868 22.3446867 92.015531 23.6141596 77.0097991 15.2002919"></polygon><polygon id="Fill-38" fill="#184080" points="102.713834 16.3914479 92.0243868 22.3757208 92.0336278 23.6448087 102.684956 17.5823729"></polygon><path d="M22.6043569,61.9040343 L43.270544,75.3091598 C44.1634489,75.8882582 45.3070141,75.9129006 46.2241765,75.3723062 L91.6248706,48.601329 L69.2537317,34.7264561 L22.6636528,60.2988075 C22.0429703,60.6387968 22.010242,61.5189955 22.6043569,61.9040343" id="Fill-40" fill="#111874"></path><path d="M24.8345015,63.3971762 L64.6621441,39.7673455 L64.7745755,35.7791137 L22.774159,60.2791321 C22.1515512,60.6426087 22.1188229,61.5301231 22.7129378,61.9386492 L24.8345015,63.3971762 Z" id="Fill-42" fill="#5A86B2"></path><path d="M114.245823,28.8818753 L105.058797,24.1497486 L103.636849,24.4600898 L112.414578,28.9812153 C115.410565,30.5248358 115.535318,34.7621877 112.6302,36.4713749 C95.3257865,46.6541108 50.0625512,73.335759 44.6046264,76.4484126 C33.8608889,82.5755349 12.0272642,86.8633269 10.0350735,80.5332891 C8.95118932,77.0902723 10.119397,73.3103464 11.8886503,70.0352065 C12.4896958,68.9228294 13.1719846,67.8632026 13.9185748,66.8536309 C12.8832055,68.144666 11.9464061,69.5165592 11.1539963,70.9843271 C9.33969346,74.3426354 8.14183778,78.219206 9.25305973,81.7500117 C11.2964606,88.2417658 33.6868514,83.8446227 44.7051215,77.5607897 C50.3020454,74.3688181 96.720782,47.0060363 114.46722,36.5633992 C117.446265,34.8103176 117.318432,30.4647698 114.245823,28.8818753" id="Fill-44" fill="#55C3EE"></path><polygon id="Fill-46" fill="#CCEAFB" points="107.343694 22.3345217 92.4373024 30.625947 92.4503938 48.4166644 107.343694 39.548836"></polygon><polygon id="Fill-48" fill="#B83234" points="53.1931091 56.4465714 69.9315155 46.7828678 69.9584682 33.860966 53.1931091 43.5404561"></polygon><polygon id="Fill-50" fill="#E66557" points="53.1931091 43.5404176 44.8108146 38.7008651 61.5757887 29.0213749 69.9584682 33.8609274"></polygon><polygon id="Fill-52" fill="#D63A3C" points="44.8106221 38.7007496 44.7740434 51.6276569 53.1929166 56.4464174 53.1929166 43.5403021"></polygon><g id="Group-64" transform="translate(45.434577, 40.703221)" stroke="#D63A3C" stroke-linecap="round" stroke-linejoin="round" stroke-width="0.941"><line x1="0.55672759" y1="0.188168458" x2="0.55672759" y2="9.77909973" id="Stroke-54"></line><line x1="2.06681123" y1="1.04869165" x2="2.06681123" y2="10.6396229" id="Stroke-56"></line><line x1="3.57727991" y1="1.90940737" x2="3.57727991" y2="11.5003386" id="Stroke-58"></line><line x1="5.08732504" y1="2.76989206" x2="5.08732504" y2="12.3608233" id="Stroke-60"></line><line x1="6.59779372" y1="3.63060778" x2="6.59779372" y2="13.2215391" id="Stroke-62"></line></g><polygon id="Fill-65" fill="#2EBAFF" points="36.1927609 66.5331631 52.9311673 56.8694595 52.95812 43.9475577 36.1927609 53.6270479"></polygon><polygon id="Fill-67" fill="#83D3F2" points="36.1927609 53.6272019 27.8100813 48.7876493 44.5754404 39.1081591 52.95812 43.9477117"></polygon><polygon id="Fill-69" fill="#449DF8" points="27.8102739 48.7875338 27.7736952 61.7144412 36.1929534 66.5332016 36.1929534 53.6270864"></polygon><g id="Group-81" transform="translate(28.492871, 50.714229)" opacity="0.4" stroke="#000000" stroke-linecap="round" stroke-linejoin="round" stroke-width="0.4"><line x1="0.498086182" y1="0.263751573" x2="0.498086182" y2="9.85468285" id="Stroke-71"></line><line x1="2.00816982" y1="1.12446729" x2="2.00816982" y2="10.7153986" id="Stroke-73"></line><line x1="3.51859999" y1="1.98495198" x2="3.51859999" y2="11.5758833" id="Stroke-75"></line><line x1="5.02868363" y1="2.8456677" x2="5.02868363" y2="12.436599" id="Stroke-77"></line><line x1="6.53911381" y1="3.70619089" x2="6.53911381" y2="13.2971222" id="Stroke-79"></line></g><polygon id="Fill-82" fill="#F04B3B" points="62.1580443 61.7000407 78.8960657 52.0363371 78.9234034 39.1144352 62.1580443 48.7939254"></polygon><polygon id="Fill-84" fill="#E66557" points="62.1580443 48.7941179 53.7753648 43.9541803 70.5407239 34.2750752 78.9234034 39.1146278"></polygon><polygon id="Fill-86" fill="#B83133" points="53.7751723 43.9542188 53.7389786 56.8811262 62.1578518 61.6998867 62.1578518 48.7941565"></polygon><g id="Group-98" transform="translate(54.675508, 46.093764)" opacity="0.4" stroke="#000000" stroke-linecap="round" stroke-linejoin="round" stroke-width="0.4"><line x1="0.264945193" y1="0.0584488887" x2="0.264945193" y2="9.64938016" id="Stroke-88"></line><line x1="1.77541387" y1="0.919164605" x2="1.77541387" y2="10.5100959" id="Stroke-90"></line><line x1="3.28545901" y1="1.7796493" x2="3.28545901" y2="11.3705806" id="Stroke-92"></line><line x1="4.79592768" y1="2.64017249" x2="4.79592768" y2="12.2314888" id="Stroke-94"></line><line x1="6.30601132" y1="3.50088821" x2="6.30601132" y2="13.0918195" id="Stroke-96"></line></g><g id="Group-119" transform="translate(63.531401, 41.473298)" opacity="0.4" stroke="#000000" stroke-linecap="round" stroke-linejoin="round" stroke-width="0.4"><line x1="13.6356483" y1="0.355313797" x2="13.6356483" y2="9.94624507" id="Stroke-99"></line><line x1="12.1443545" y1="1.21807022" x2="12.1443545" y2="10.8090015" id="Stroke-101"></line><line x1="10.6530993" y1="2.08105766" x2="10.6530993" y2="11.6719889" id="Stroke-103"></line><line x1="9.16184404" y1="2.94400661" x2="9.16184404" y2="12.5349379" id="Stroke-105"></line><line x1="7.67016526" y1="3.80676303" x2="7.67016526" y2="13.3980793" id="Stroke-107"></line><line x1="6.17891002" y1="4.66971197" x2="6.17891002" y2="14.2606432" id="Stroke-109"></line><line x1="4.68761627" y1="5.53266091" x2="4.68761627" y2="15.1235922" id="Stroke-111"></line><line x1="3.19636103" y1="6.39560985" x2="3.19636103" y2="15.9865411" id="Stroke-113"></line><line x1="1.70506728" y1="7.25836627" x2="1.70506728" y2="16.8492975" id="Stroke-115"></line><line x1="0.213812041" y1="8.12135372" x2="0.213812041" y2="17.712285" id="Stroke-117"></line></g><polygon id="Fill-120" fill="#184080" points="105.647521 27.1990248 105.647521 28.7391799 104.367652 29.5219638 104.368808 27.9167371"></polygon><polygon id="Fill-122" fill="#184080" points="100.759685 29.9941369 100.759685 31.534292 99.480201 32.3170759 99.4813561 30.7122342"></polygon><polygon id="Fill-124" fill="#184080" points="95.871887 32.789403 95.871887 34.3295582 94.5924031 35.111957 94.5935582 33.5071153"></polygon><polygon id="Fill-126" fill="#184080" points="105.647521 32.6175987 105.647521 34.1577539 104.367652 34.9405377 104.368808 33.335696"></polygon><polygon id="Fill-128" fill="#184080" points="100.759685 35.4128648 100.759685 36.95302 99.480201 37.7354188 99.4813561 36.1305771"></polygon><polygon id="Fill-130" fill="#184080" points="95.871887 38.2079769 95.871887 39.7481321 94.5924031 40.5309159 94.5935582 38.9260743"></polygon><polygon id="Fill-132" fill="#111874" points="91.7500082 2.62326929 91.0346061 9.90358277 94.0359835 11.6000637 97.167504 9.90358277 100.99787 12.0705811 98.3418723 1.81314767 94.318602 3.9662846"></polygon><g id="Group-136" transform="translate(91.639233, 0.274148)"><mask id="mask-4" fill="white"><use xlink:href="#path-3"></use></mask><g id="Clip-135"></g><polygon id="Fill-134" fill="#255998" mask="url(#mask-4)" points="0.104769055 2.3474275 4.41065787 0.110737157 6.7027938 1.53923108 2.69723524 3.70314909"></polygon></g></g></g></g></svg> 