<?xml version="1.0" encoding="UTF-8"?> <svg xmlns="http://www.w3.org/2000/svg" xmlns:xlink="http://www.w3.org/1999/xlink" width="49" height="50"><defs><circle id="a" cx="15.257" cy="15.257" r="15.257"></circle></defs><g transform="translate(9.5 9.5)" fill="none" fill-rule="evenodd"><use fill="#FFF" xlink:href="#a"></use><circle stroke="#FFF" stroke-width="9" fill-opacity=".2" fill="#2DB5E6" cx="15.257" cy="15.257" r="19.757"></circle><g transform="translate(7.957 7.957)" fill="#2DB5E6" fill-rule="nonzero"><path d="M12.167 6.753v-.061a4.871 4.871 0 0 0-4.259-4.825V.608a.608.608 0 1 0-1.216 0v1.259a4.871 4.871 0 0 0-4.259 4.825v.061A3.048 3.048 0 0 0 0 9.733c0 .336.272.609.608.609h13.384a.608.608 0 0 0 .608-.609 3.048 3.048 0 0 0-2.433-2.98zM7.3 3.042a3.654 3.654 0 0 1 3.65 3.65h-7.3a3.654 3.654 0 0 1 3.65-3.65z"></path><path d="M6.69166667 12.1666667L7.90833333 12.1666667 7.90833333 14.6 6.69166667 14.6z"></path><path d="M9.31905833 11.8539833L10.4213583 11.3399417 11.4494417 13.5457583 10.3471417 14.0598z"></path><path d="M3.14873333 13.5463667L4.17681667 11.3399417 5.279725 11.8539833 4.25164167 14.0604083z"></path><circle cx="7.3" cy="4.867" r="1"></circle></g></g></svg> 