<?xml version="1.0" encoding="UTF-8"?> <svg xmlns="http://www.w3.org/2000/svg" xmlns:xlink="http://www.w3.org/1999/xlink" height="41" viewBox="0 0 40 41" width="40"><mask id="a" fill="#fff"><path d="m4.45507399.11336099-.51645067 1.45554484-3.89734305 3.2869574" fill="#fff" fill-rule="evenodd"></path></mask><mask id="b" fill="#fff"><path d="m5.9044843 3.11685202-5.79623542 3.99434529 5.18751121 3.07799999 4.75541031-.74355604v-7.0724731l-4.1847713-2.33444394z" fill="#fff" fill-rule="evenodd"></path></mask><mask id="c" fill="#fff"><path d="m5.9044843 3.11685202-5.79623542 3.99434529 5.18751121 3.07799999 4.75541031-.74355604v-7.0724731l-4.1847713-2.33444394z" fill="#fff" fill-rule="evenodd"></path></mask><g fill="none" fill-rule="evenodd"><rect fill="#f5f7fa" height="39.5" opacity=".794545" rx="5" width="39.5" x=".5" y=".675"></rect><g transform="translate(8.25 5.925)"><path d="m4.45507399.11336099-.51645067 1.45554484-3.89734305 3.2869574" mask="url(#a)" transform="translate(6.901345 18.91646)"></path><path d="m5.67886143 23.9709666 11.29008967-6.5183206.0184036-8.71601573-11.30849327 6.52905603z" fill="#111874"></path><path d="m.0246148 12.0012222 5.65424663 3.2644641 11.30862107-6.52905603-5.6543744-3.26446413z" fill="#e66557"></path><path d="m0 20.7207269 5.67891256 3.2501502v-8.7051524l-5.65424664-3.2644642z" fill="#d63a3c"></path><path d="m11.8688186 18.7999675v8.7054081l11.2899619-6.5183207.0185314-8.7160157z" fill="#111874"></path><path d="m6.21454641 15.5355161 5.65424659 3.2644642 11.3086211-6.5289283-5.6543744-3.26446411z" fill="#83d3f2"></path><path d="m6.21453363 15.5355545-.02453811 8.7194664 5.67878478 3.250278v-8.7052803z" fill="#255998"></path><path d="m11.8934334 9.79359686v8.70528024l11.2899619-6.5183206.0185314-8.71601569z" fill="#449df8"></path><path d="m17.5477056.00001278-11.30849327 6.52905605 5.65424667 3.26446413 11.3084932-6.52892825z" fill="#c4e9f9"></path><path d="m6.23912287 6.52901771-.02453812 8.71959419 5.67878475 3.2501502v-8.70528026z" fill="#2ebaff"></path><g stroke-linecap="round" stroke-linejoin="round" stroke-width=".699"><g stroke="#4993bf"><path d="m7.02516 8.011605v6.469245"></path><path d="m8.043837 8.592085v6.469245"></path><path d="m9.062514 9.172565v6.469372"></path><path d="m10.081191 9.753045v6.469372"></path><path d="m11.099868 10.333525v6.469372"></path></g><g stroke="#4993bf"><path d="m22.01726 5.095173v6.469373"></path><path d="m21.011312 5.677212v6.469373"></path><path d="m20.005492 6.259251v6.469373"></path><path d="m18.999544 6.84129v6.469373"></path><path d="m17.993596 7.423329v6.469373"></path><path d="m16.987649 8.005368v6.469373"></path><path d="m15.981701 8.587407v6.469373"></path><path d="m14.975753 9.169446v6.469373"></path><path d="m13.969805 9.751486v6.469372"></path><path d="m12.96387 10.333525v6.469372"></path></g><g stroke="#091158"><path d="m22.01726 14.204477v6.469372"></path><path d="m21.011312 14.786516v6.469372"></path><path d="m20.005492 15.368555v6.469372"></path><path d="m18.999544 15.950594v6.469372"></path><path d="m17.993596 16.532633v6.469372"></path><path d="m16.987649 17.114672v6.469372"></path><path d="m15.981701 17.696711v6.469372"></path><path d="m14.975753 18.27875v6.469372"></path><path d="m13.969805 18.860789v6.469372"></path><path d="m12.96387 19.442828v6.469372"></path></g><g stroke="#b83234"><path d="m.833222 13.459502v6.469372"></path><path d="m1.851899 14.039982v6.469372"></path><path d="m2.870576 14.620462v6.469372"></path><path d="m3.889253 15.200942v6.469372"></path><path d="m4.908058 15.781485v6.469245"></path></g></g><path d="m5.92376973 26.1357525 3.74219058 2.2380807.26199552-.0532937 1.25476677-2.1378834-3.66244166-2.1598655z" fill="#2ebaff"></path><path d="m5.67486121 26.0730652 3.99115022 2.3008319 1.26793047-2.2539283-3.66256948-2.1599932z" fill="#c4e9f9"></path><path d="m6.9426639 16.7759435v6.9963027l3.9911502 2.3008318v-7.0902376z" fill="#255998"></path><path d="m6.9426639 23.4905179 3.9911502-3.4276681-.0021726-1.0854283-3.97453589-2.1906659z" fill="#111874"></path><path d="m7.40663879 20.1299717 1.8811278 1.2106749 1.65798431-.9727062v-1.3787355l-.748157-.4174036z" fill="#ffd783"></path><path d="m7.40663879 23.3926978 1.93173767 1.1300313.01776457-3.2118094-1.94950224-1.1808968z" fill="#e6af6c"></path><path d="m9.35615381 21.310907-.01776457 3.2119372 1.60737446-.9189014v-3.2297018z" fill="#fec47a"></path><path d="m10.3957265 19.8258525.5500627.374334v-.7178677l-.0125246-.0080515z" fill="#fff"></path><path d="m10.1841619 3.67026323v.9452287l.5844417-.33330942v-.95788116z" fill="#ffeccd" mask="url(#b)" transform="translate(.894619 16.616011)"></path><path d="m9.45702848 21.696002 1.48877352.9581368v-1.7892377z" fill="#ffd783"></path><path d="m9.45702848 24.6284987 1.48877352.8709753v-2.9017601l-1.48877352-.901648z" fill="#e6af6c"></path><path d="m7.63863901 18.2877726.95072422.6117915 1.07021973-.6278946-.99647758-.5558139z" fill="#ffd783"></path><path d="m7.63863901 19.9366191.97615695.5711502.009074-1.6230942-.98523095-.5969664z" fill="#e6af6c"></path><path d="m8.62380605 18.884624-.00894618 1.6230942 2.04471523-1.1688834v-.5092938l-.99775559-.5565807z" fill="#fec47a"></path><path d="m8.65854283 18.8791029.95072421.6117915 1.08977356-.6393969-.99596638-.5555583z" fill="#ffd783"></path><path d="m9.64370987 19.4758392-.00894619 1.6230942 1.31100002-.749435v-1.3603318l-.2446144-.1363655z" fill="#fec47a"></path><path d="m8.2290491 20.6266386.27605381.1773901.43082287-.2209709-.28180493-.1743228z" fill="#ffeccd"></path><path d="m9.83913296 19.5348457 1.10664354.7121166v-1.257834l-.0646682-.0360404z" fill="#ffd783"></path><path d="m9.83913296 21.4980484 1.10664354.6473207v-1.9401727l-1.10664354-.6703251z" fill="#e6af6c"></path><path d="m12.5416359 2.20096682v1.96918385l-2.4347691 1.39189911.0106076-1.93276009z" fill="#fec47a" mask="url(#c)" transform="translate(.894619 16.616011)"></path><path d="m8.124455 18.760323v1.434713" stroke="#e6af6c" stroke-width=".5"></path><path d="m8.65851726 18.8790774v1.6487825l.97628476.5711502.00894619-1.623222z" fill="#e6af6c"></path><path d="m8.4304917 18.3058312-.42251569.2074237.2899843.176879.41433633-.2098521z" fill="#ffeccd"></path><path d="m9.40036076 18.8642906-.42251569.2074237.2899843.176879.41433633-.209852z" fill="#ffeccd"></path><path d="m8.01088991 18.51383v.454722l.28666144.1756009v-.4548498z" fill="#fff"></path><path d="m9.096459 19.316648v1.434841" stroke="#e6af6c" stroke-width=".5"></path><path d="m8.98288049 19.0701552v.4547219l.28666144.1756009v-.4548497z" fill="#fff"></path><path d="m11.0249886 25.8265339 2.5880044 1.3512578v-6.6642713l-2.6259618-1.5015538-.1830135.1830134z" fill="#83d3f2"></path><path d="m10.803072 19.1839762 2.5903049 1.4730538v6.6643991l-2.5881323-1.3512578" fill="#255998"></path><path d="m4.3833639 21.9985749 2.58800449 1.3512578v-6.6642713l-2.62596189-1.5015538-.18301345.1830135z" fill="#83d3f2"></path><path d="m4.16133229 15.3560173 2.59030493 1.4730538v6.6643991l-2.58800448-1.3512579" fill="#255998"></path><path d="m6.7515861 16.8291094.21982063-.1436502v6.6643991l-.21982063.1436502z" fill="#4e99c7"></path></g></g></svg> 