<?xml version="1.0" encoding="UTF-8"?> <svg xmlns="http://www.w3.org/2000/svg" xmlns:xlink="http://www.w3.org/1999/xlink" width="820px" height="153px" viewBox="0 0 820 153" version="1.1"><!-- Generator: Sketch 63.1 (92452) - https://sketch.com --><title>logo</title><desc>Created with Sketch.</desc><g id="Symbols" stroke="none" stroke-width="1" fill="none" fill-rule="evenodd"><g id="logo" transform="translate(0.112360, 0.500000)" fill="#FFFFFF" fill-rule="nonzero"><path d="M116.019551,22.3431461 C106.374382,11.6006742 90.6492135,2.02382022 63.1440449,2.02382022 C32.338427,2.02382022 4.51303371,15.4860674 4.51303371,42.585618 C4.51303371,70.338427 32.2658427,73.2588764 59.1946067,76.1067416 C84.6289888,78.8435955 109.303371,81.5505618 109.303371,106.476854 C109.303371,125.263371 90.2777528,141.48809 62.1278652,141.48809 C45.9031461,141.48809 34.8788764,135.467865 27.6973034,128.222247 C20.3193258,120.780225 16.1692135,109.969438 16.3698876,100.845169 L0.0469662921,100.845169 C-0.537977528,113.530337 4.4447191,124.857753 13.8934831,133.640449 C24.4438202,143.541798 41.1424719,150.078652 62.2388764,150.078652 C93.1725843,150.078652 126.437528,136.940899 126.437528,106.459775 C126.437528,74.2323596 94.3382022,71.1240449 65.5393258,67.8235955 C42.0476404,65.1208989 20.7548315,62.3370787 20.7548315,42.6026966 C20.7548315,24.9988764 36.5525843,10.6314607 63.1440449,10.6314607 C85.6665169,10.6314607 98.091236,21.305618 103.705843,30.2420225 L116.019551,22.3431461 Z" id="Path"></path><path d="M769.427416,2.06224719 C747.746067,2.06224719 732.862022,11.1907865 719.59618,27.2532584 C705.65573,44.1269663 697.705618,53.7849438 688.402022,55.9923596 L688.402022,3.71033708 L672.288315,3.71033708 L672.288315,148.45191 L688.402022,148.45191 L688.402022,65.4752809 C705.053708,65.2404494 716.235955,52.1240449 730.855281,34.8105618 C740.304045,23.547191 752.792809,10.6741573 769.427416,10.6741573 C802.043371,10.6741573 803.661573,42.4489888 803.661573,57.721573 L803.661573,148.45191 L819.775281,148.45191 L819.775281,56.4235955 C819.775281,34.9386517 814.143596,2.06224719 769.427416,2.06224719 Z" id="Path"></path><path d="M380.781348,3.69752809 L308.43191,135.775281 C302.155506,147.303371 294.128539,150.078652 283.386067,150.078652 C269.992135,150.078652 262.289663,144.190787 262.289663,127.42809 L262.264045,15.6611236 C262.264045,11.5195506 260.842247,9.64516854 257.541798,9.64516854 C254.241348,9.64516854 251.393483,12.6851685 249.903371,15.4049438 L183.949888,135.775281 C177.673483,147.303371 169.646517,150.078652 158.904045,150.078652 C145.510112,150.078652 137.80764,144.190787 137.80764,127.42809 L137.80764,3.69752809 L154.181798,3.69752809 L154.181798,136.441348 C154.181798,140.582921 155.603596,142.457303 158.904045,142.457303 C162.204494,142.457303 165.05236,139.417303 166.542472,136.701798 L232.495955,16.327191 C238.77236,4.79910112 246.799326,2.02382022 257.541798,2.02382022 C270.93573,2.02382022 278.638202,7.91168539 278.638202,24.674382 L278.66382,136.441348 C278.66382,140.582921 280.085618,142.457303 283.386067,142.457303 C286.686517,142.457303 289.534382,139.417303 291.024494,136.701798 L363.817978,3.69752809 L380.781348,3.69752809 Z" id="Path"></path><path d="M581.408539,0.397078652 C549.300674,0.397078652 523.443596,16.2844944 510.865169,39.9939326 C501.655506,19.8325843 481.793034,0.397078652 442.764045,0.397078652 C396.506517,0.397078652 362.297978,35.4382022 362.297978,76.0725843 C362.297978,116.706966 396.506517,151.74809 442.764045,151.74809 C474.87618,151.74809 500.733258,135.856404 513.311685,112.146966 C522.521348,132.308315 542.379551,151.74809 581.425618,151.74809 C627.666067,151.74809 661.874607,116.689888 661.874607,76.0725843 C661.874607,35.4552809 627.640449,0.397078652 581.408539,0.397078652 Z M498.538652,101.908315 C489.969438,124.537528 468.911461,143.110562 442.879326,143.110562 C408.935506,143.110562 379.500449,114.008539 379.500449,76.0768539 C379.500449,38.0768539 407.680225,9.04314607 442.879326,9.04314607 C480.520674,9.04314607 499.059551,32.3213483 505.91236,52.1667416 C503.854382,59.6898876 503.132809,68.2932584 502.594831,75.6114607 C502.005618,83.5274157 501.09191,95.1707865 498.538652,101.908315 Z M581.27618,143.110562 C543.639101,143.110562 525.095955,119.83236 518.247416,99.9869663 C520.305393,92.4680899 521.022697,83.8647191 521.564944,76.5422472 C522.149888,68.6262921 523.067865,56.987191 525.616854,50.2496629 C534.186067,27.6204494 555.248315,9.04314607 581.27618,9.04314607 C615.22427,9.04314607 644.655056,38.1494382 644.655056,76.0768539 C644.655056,114.072584 616.466742,143.110562 581.27618,143.110562 Z" id="Shape"></path></g></g></svg> 