<?xml version="1.0" encoding="UTF-8"?> <svg xmlns="http://www.w3.org/2000/svg" xmlns:xlink="http://www.w3.org/1999/xlink" width="597px" height="502px" viewBox="0 0 597 502" version="1.1"><!-- Generator: Sketch 63.1 (92452) - https://sketch.com --><title>Track Availablity</title><desc>Created with Sketch.</desc><defs><rect id="path-1" x="0" y="0.53" width="534.6" height="75" rx="4"></rect><filter x="-11.3%" y="-43.5%" width="122.7%" height="272.4%" id="filter-2"><feMorphology radius="8.33934" operator="erode" in="SourceAlpha" result="shadowSpreadOuter1"></feMorphology><feOffset dx="0" dy="36" in="shadowSpreadOuter1" result="shadowOffsetOuter1"></feOffset><feGaussianBlur stdDeviation="23" in="shadowOffsetOuter1" result="shadowBlurOuter1"></feGaussianBlur><feComposite in="shadowBlurOuter1" in2="SourceAlpha" operator="out" result="shadowBlurOuter1"></feComposite><feColorMatrix values="0 0 0 0 0.203921569 0 0 0 0 0.290196078 0 0 0 0 0.537254902 0 0 0 0.19 0" type="matrix" in="shadowBlurOuter1"></feColorMatrix></filter><polygon id="path-3" points="0 19.9931424 6.982512 19.9931424 6.982512 0.0003264 0 0.0003264"></polygon><rect id="path-5" x="0" y="0.03" width="534.6" height="165" rx="4"></rect><filter x="-11.3%" y="-19.8%" width="122.7%" height="178.4%" id="filter-6"><feMorphology radius="8.33934" operator="erode" in="SourceAlpha" result="shadowSpreadOuter1"></feMorphology><feOffset dx="0" dy="36" in="shadowSpreadOuter1" result="shadowOffsetOuter1"></feOffset><feGaussianBlur stdDeviation="23" in="shadowOffsetOuter1" result="shadowBlurOuter1"></feGaussianBlur><feComposite in="shadowBlurOuter1" in2="SourceAlpha" operator="out" result="shadowBlurOuter1"></feComposite><feColorMatrix values="0 0 0 0 0.203921569 0 0 0 0 0.290196078 0 0 0 0 0.537254902 0 0 0 0.19 0" type="matrix" in="shadowBlurOuter1"></feColorMatrix></filter><rect id="path-7" x="0" y="0.53" width="534.6" height="54.5" rx="4"></rect><filter x="-11.3%" y="-59.9%" width="122.7%" height="337.3%" id="filter-8"><feMorphology radius="8.33934" operator="erode" in="SourceAlpha" result="shadowSpreadOuter1"></feMorphology><feOffset dx="0" dy="36" in="shadowSpreadOuter1" result="shadowOffsetOuter1"></feOffset><feGaussianBlur stdDeviation="23" in="shadowOffsetOuter1" result="shadowBlurOuter1"></feGaussianBlur><feComposite in="shadowBlurOuter1" in2="SourceAlpha" operator="out" result="shadowBlurOuter1"></feComposite><feColorMatrix values="0 0 0 0 0.203921569 0 0 0 0 0.290196078 0 0 0 0 0.537254902 0 0 0 0.19 0" type="matrix" in="shadowBlurOuter1"></feColorMatrix></filter><rect id="path-9" x="0" y="0.53" width="534.6" height="54.5" rx="4"></rect><filter x="-11.3%" y="-59.9%" width="122.7%" height="337.3%" id="filter-10"><feMorphology radius="8.33934" operator="erode" in="SourceAlpha" result="shadowSpreadOuter1"></feMorphology><feOffset dx="0" dy="36" in="shadowSpreadOuter1" result="shadowOffsetOuter1"></feOffset><feGaussianBlur stdDeviation="23" in="shadowOffsetOuter1" result="shadowBlurOuter1"></feGaussianBlur><feComposite in="shadowBlurOuter1" in2="SourceAlpha" operator="out" result="shadowBlurOuter1"></feComposite><feColorMatrix values="0 0 0 0 0.203921569 0 0 0 0 0.290196078 0 0 0 0 0.537254902 0 0 0 0.19 0" type="matrix" in="shadowBlurOuter1"></feColorMatrix></filter><rect id="path-11" x="0" y="0.53" width="534.6" height="54.5" rx="4"></rect><filter x="-11.3%" y="-59.9%" width="122.7%" height="337.3%" id="filter-12"><feMorphology radius="8.33934" operator="erode" in="SourceAlpha" result="shadowSpreadOuter1"></feMorphology><feOffset dx="0" dy="36" in="shadowSpreadOuter1" result="shadowOffsetOuter1"></feOffset><feGaussianBlur stdDeviation="23" in="shadowOffsetOuter1" result="shadowBlurOuter1"></feGaussianBlur><feComposite in="shadowBlurOuter1" in2="SourceAlpha" operator="out" result="shadowBlurOuter1"></feComposite><feColorMatrix values="0 0 0 0 0.203921569 0 0 0 0 0.290196078 0 0 0 0 0.537254902 0 0 0 0.19 0" type="matrix" in="shadowBlurOuter1"></feColorMatrix></filter><linearGradient x1="30.6170827%" y1="49.6618045%" x2="69.0165013%" y2="50.5058882%" id="linearGradient-13"><stop stop-color="#0F187F" offset="0%"></stop><stop stop-color="#0A1158" offset="100%"></stop></linearGradient><rect id="path-14" x="0" y="8" width="299" height="142" rx="4"></rect><filter x="-18.6%" y="-21.6%" width="137.3%" height="184.8%" id="filter-15"><feMorphology radius="7.28032" operator="erode" in="SourceAlpha" result="shadowSpreadOuter1"></feMorphology><feOffset dx="0" dy="34" in="shadowSpreadOuter1" result="shadowOffsetOuter1"></feOffset><feGaussianBlur stdDeviation="21" in="shadowOffsetOuter1" result="shadowBlurOuter1"></feGaussianBlur><feComposite in="shadowBlurOuter1" in2="SourceAlpha" operator="out" result="shadowBlurOuter1"></feComposite><feColorMatrix values="0 0 0 0 0.203921569 0 0 0 0 0.290196078 0 0 0 0 0.537254902 0 0 0 0.19 0" type="matrix" in="shadowBlurOuter1"></feColorMatrix></filter></defs><g id="Track-Availablity" stroke="none" stroke-width="1" fill="none" fill-rule="evenodd"><g id="Group-6"><g id="Group-3"><g id="Group-7" transform="translate(0.000000, 55.000000)"><g id="Rectangle-Copy"><use fill="black" fill-opacity="1" filter="url(#filter-2)" xlink:href="#path-1"></use><use stroke="#E5E9EC" stroke-width="1.32132" fill="#FFFFFF" fill-rule="evenodd" xlink:href="#path-1"></use></g><text id="1800/1200" font-family="Lato-Bold, Lato" font-size="20" font-weight="bold"><tspan x="187.75" y="53.53" fill="#E86C67">1800</tspan><tspan x="234.15" y="53.53" fill="#0A1158">/1200</tspan></text><text id="£27k-/-£18k" font-family="Lato-Bold, Lato" font-size="20" font-weight="bold"><tspan x="348.25" y="53.53" fill="#E86C67">£27k</tspan><tspan x="394.08" y="53.53" fill="#0A1158"> / £18k</tspan></text><text id="QTY-Arriving-VS-Plan" font-family="Lato-Bold, Lato" font-size="10" font-weight="bold" fill="#717A7B"><tspan x="187.75" y="30.53">QTY ARRIVING VS PLAN</tspan></text><text id="£-Arriving-vs-Plan" font-family="Lato-Bold, Lato" font-size="10" font-weight="bold" fill="#717A7B"><tspan x="348.25" y="30.53">£ ARRIVING VS PLAN</tspan></text><text id="Foundation" font-family="Lato-Bold, Lato" font-size="15.015" font-weight="bold" fill="#000000"><tspan x="69.3221678" y="34.9124832">Foundation</tspan></text><text id="SKU8729" font-family="Lato-Bold, Lato" font-size="10.92" font-weight="bold" fill="#717A7B"><tspan x="69.3221678" y="51.53">SKU8729</tspan></text><g id="Group-16" transform="translate(24.000000, 22.196233)"><rect id="Rectangle" fill="#DEE4EC" opacity="0.673456101" x="5.5067062e-14" y="5.5067062e-14" width="30.5" height="30.5" rx="4.4"></rect><g id="Group-51" transform="translate(11.578000, 5.050000)"><path d="M1.7343264,18.9235296 C1.7343264,18.3327456 2.5356384,16.9178016 3.5238144,16.9178016 C4.5119904,16.9178016 5.3141184,18.3327456 5.3141184,18.9235296 C5.3141184,19.5134976 4.5119904,19.9924896 3.5238144,19.9924896 C2.5356384,19.9924896 1.7343264,19.5134976 1.7343264,18.9235296" id="Fill-1" fill="#2E2E2E"></path><mask id="mask-4" fill="white"><use xlink:href="#path-3"></use></mask><g id="Clip-4"></g><polygon id="Fill-3" fill="#2E2E2E" mask="url(#mask-4)" points="1.736448 18.9266304 5.314608 18.9266304 5.314608 15.4488384 1.736448 15.4488384"></polygon><path d="M1.7366928,15.4487568 L1.7366928,18.8963568 C1.7366928,18.9045168 1.7342448,18.9151248 1.7342448,18.9232848 C1.7342448,19.0685328 1.7840208,19.2056208 1.8713328,19.3321008 L1.8713328,15.4487568 L1.7366928,15.4487568 Z" id="Fill-5" fill="#FFFFFF" mask="url(#mask-4)"></path><path d="M2.5566912,15.6730752 L2.5566912,19.6608672 C2.5566912,19.7620512 2.6244192,19.8485472 2.7207072,19.8779232 C2.9622432,19.9505472 3.2347872,19.9921632 3.5244672,19.9921632 C3.9267552,19.9921632 4.2972192,19.9121952 4.5950592,19.7783712 C4.6782912,19.7408352 4.7329632,19.6616832 4.7329632,19.5711072 L4.7329632,15.6730752 C4.7329632,15.5490432 4.6325952,15.4486752 4.5085632,15.4486752 L2.7802752,15.4486752 C2.6570592,15.4486752 2.5566912,15.5490432 2.5566912,15.6730752" id="Fill-6" fill="#4A4A4A" mask="url(#mask-4)"></path><g id="Group-9" mask="url(#mask-4)" fill="#000000"><g transform="translate(1.632000, 15.097142)"><path d="M0.3747888,0.3516144 L0.3747888,4.3916304 C0.5102448,4.5197424 0.6881328,4.6315344 0.8994768,4.7155824 L0.8994768,0.3516144 L0.3747888,0.3516144 Z" id="Fill-7"></path><path d="M2.8881504,0.3516144 L2.8881504,4.7139504 C3.0668544,4.6421424 3.2218944,4.5515664 3.3467424,4.4471184 L3.3467424,0.3516144 L2.8881504,0.3516144 Z" id="Fill-8"></path></g></g><path d="M4.127328,15.7045728 L4.127328,19.7127648 C4.127328,19.8416928 4.033488,19.9510368 3.906192,19.9681728 C3.78216,19.9844928 3.65568,19.9926528 3.524304,19.9926528 C3.501456,19.9926528 3.479424,19.9926528 3.458208,19.9918368 C3.319488,19.9893888 3.209328,19.8735168 3.209328,19.7347968 L3.209328,15.7045728 C3.209328,15.5625888 3.324384,15.4483488 3.465552,15.4483488 L3.871104,15.4483488 C4.012272,15.4483488 4.127328,15.5625888 4.127328,15.7045728" id="Fill-10" fill="#4A4A4A" mask="url(#mask-4)"></path><path d="M1.7366928,15.4487568 L1.7366928,15.9538608 C2.2295568,16.1856048 2.8489008,16.3243248 3.5237328,16.3243248 C4.2010128,16.3243248 4.8219888,16.1847888 5.3148528,15.9522288 L5.3148528,15.4487568 L1.7366928,15.4487568 Z" id="Fill-11" fill="#000000" mask="url(#mask-4)"></path><path d="M1.8235152,15.0292512 C1.8235152,14.4686592 2.5848432,14.0133312 3.5240592,14.0133312 C4.4632752,14.0133312 5.2254192,14.4686592 5.2254192,15.0292512 C5.2254192,15.5906592 4.4632752,16.0451712 3.5240592,16.0451712 C2.5848432,16.0451712 1.8235152,15.5906592 1.8235152,15.0292512" id="Fill-12" fill="#2E2E2E" mask="url(#mask-4)"></path><path d="M1.0075152,14.59212 C1.0075152,13.761432 2.1344112,13.089048 3.5240592,13.089048 C4.9137072,13.089048 6.0414192,13.761432 6.0414192,14.59212 C6.0414192,15.422808 4.9137072,16.096008 3.5240592,16.096008 C2.1344112,16.096008 1.0075152,15.422808 1.0075152,14.59212" id="Fill-13" fill="#454545" mask="url(#mask-4)"></path><polygon id="Fill-14" fill="#454545" mask="url(#mask-4)" points="0.0003264 3.6482544 1.0195104 14.4871824 6.0134304 14.4871824 6.9714144 0.5621424"></polygon><path d="M6.9099696,0.7428864 L0.0947376,3.8559264 C0.0555696,3.8559264 0.0237456,3.8241024 0.0237456,3.7841184 L0.0237456,3.2945184 C0.0237456,3.2545344 0.0555696,3.2227104 0.0947376,3.2227104 L6.9099696,0.1096704 C6.9499536,0.1096704 6.9825936,0.1414944 6.9825936,0.1814784 L6.9825936,0.6710784 C6.9825936,0.7110624 6.9499536,0.7428864 6.9099696,0.7428864" id="Fill-15" fill="#0A0A0A" mask="url(#mask-4)"></path><path d="M6.8996064,0.6337056 L0.0835584,3.7467456 C0.0443904,3.7467456 0.0125664,3.7149216 0.0125664,3.6749376 L0.0125664,3.1845216 C0.0125664,3.1453536 0.0443904,3.1135296 0.0835584,3.1135296 L6.8996064,0.0004896 C6.9387744,0.0004896 6.9714144,0.0323136 6.9714144,0.0722976 L6.9714144,0.5618976 C6.9714144,0.6010656 6.9387744,0.6337056 6.8996064,0.6337056" id="Fill-16" fill="#4A4A4A" mask="url(#mask-4)"></path><path d="M6.8263296,0.6914784 L5.5142016,1.2553344 C5.4962496,1.2553344 5.4823776,1.2414624 5.4823776,1.2235104 L5.4823776,0.6833184 C5.4823776,0.6653664 5.4962496,0.6506784 5.5142016,0.6506784 L6.8263296,0.0868224 C6.8434656,0.0868224 6.8581536,0.1006944 6.8581536,0.1186464 L6.8581536,0.6588384 C6.8581536,0.6767904 6.8434656,0.6914784 6.8263296,0.6914784" id="Fill-17" fill="#5E5E5E" mask="url(#mask-4)"></path><path d="M0.914328,3.3809328 L0.209304,3.6812208 C0.191352,3.6812208 0.17748,3.6665328 0.17748,3.6493968 L0.17748,3.1083888 C0.17748,3.0912528 0.191352,3.0765648 0.209304,3.0765648 L0.914328,2.7754608 C0.93228,2.7754608 0.946968,2.7901488 0.946968,2.8081008 L0.946968,3.3482928 C0.946968,3.3662448 0.93228,3.3809328 0.914328,3.3809328" id="Fill-18" fill="#5E5E5E" mask="url(#mask-4)"></path><path d="M1.11588,5.1204816 C0.968184,4.9678896 0.827832,4.8079536 0.689928,4.6480176 C0.554472,4.4905296 0.261528,4.2285936 0.294984,3.9952176 C0.334152,3.7153296 0.773976,3.7814256 0.97308,3.7895856 C1.440648,3.8091696 1.909032,3.8165136 2.377416,3.8140656 C2.646696,3.8124336 2.916792,3.8083536 3.185256,3.7838736 C3.405576,3.7642896 3.625896,3.7308336 3.82908,3.6459696 C4.071432,3.5456016 4.27788,3.3758736 4.474536,3.2020656 C4.907016,2.8201776 5.310936,2.4080976 5.684664,1.9699056 C5.782584,1.8540336 6.495768,0.9107376 6.687528,1.1057616 C6.694056,1.1114736 6.696504,1.1245296 6.695688,1.1416656 C6.689976,1.2787536 6.494136,1.7275536 6.46476,1.8189456 C6.370104,2.1061776 6.276264,2.3934096 6.18324,2.6798256 C5.998824,3.2428656 5.81196,3.8050896 5.630808,4.3689456 C5.557368,4.5933456 5.484744,4.8185616 5.439048,5.0503056 C5.394168,5.2804176 5.378664,5.5154256 5.36316,5.7496176 C5.346024,6.0001296 5.329704,6.2506416 5.313384,6.5011536 C5.18364,8.4571056 5.192616,10.4236656 5.112648,12.3828816 C5.083272,13.1189136 5.052264,13.8565776 4.982088,14.5893456 C4.9674,14.7541776 4.978824,15.4412496 4.789512,15.5359056 C4.323576,15.7692816 2.867016,15.9732816 2.400264,15.5946576 C2.153016,15.3939216 2.208504,14.7052176 2.197896,14.4334896 C2.169336,13.6770576 2.261544,12.9124656 2.220744,12.1601136 C2.132616,10.5419856 1.928616,8.9140656 1.788264,7.2967536 C1.749912,6.8577456 1.71156,6.4154736 1.616904,5.9846256 C1.524696,5.5635696 1.399848,5.4150576 1.11588,5.1204816" id="Fill-19" fill="#4A4A4A" mask="url(#mask-4)"></path><path d="M6.6541536,4.8432048 C6.6427296,4.9998768 6.6321216,5.1573648 6.6206976,5.3140368 C6.4974816,7.0007088 6.3636576,8.6865648 6.2110656,10.3707888 C6.1262016,11.3116368 6.0356256,12.2533008 5.9246496,13.1917008 C5.8830336,13.5474768 5.8381536,13.9024368 5.7834816,14.2557648 C5.7418656,14.5242288 5.7443136,15.0872688 5.4954336,15.2096688 C5.5745856,13.8950928 5.6716896,12.5821488 5.7704256,11.2700208 C5.8585536,10.0974288 5.9491296,8.9248368 6.0405216,7.7522448 C6.0878496,7.1573808 6.1343616,6.5625168 6.1825056,5.9676528 C6.2020896,5.7122448 6.1963776,5.4813168 6.3171456,5.2520208 C6.3563136,5.1761328 6.6508896,4.8856368 6.6541536,4.8432048" id="Fill-20" fill="#000000" mask="url(#mask-4)"></path><path d="M0.3063264,4.8463872 C0.3291744,5.1874752 0.4009824,5.5375392 0.4254624,5.8639392 C0.4695264,6.4645152 0.5160384,7.0650912 0.5633664,7.6664832 C0.6596544,8.8676352 0.7632864,10.0679712 0.8783424,11.2683072 C0.9705504,12.2377152 1.0635744,13.2103872 1.2088224,14.1732672 C1.3083744,14.8228032 1.4829984,15.6934752 2.3479584,15.7081632 C2.2565664,13.8460512 2.1447744,11.9855712 2.0142144,10.1259072 C1.9154784,8.7362592 1.8053184,7.3392672 1.4609664,5.9887872 C1.2847104,5.2984512 0.9852384,4.5501792 0.3340704,4.2604992 C0.2957184,4.4498112 0.2924544,4.6464672 0.3063264,4.8463872" id="Fill-21" fill="#000000" mask="url(#mask-4)"></path><path d="M0.4656912,3.8192064 C0.5024112,3.7400544 0.6101232,3.7204704 0.7684272,3.8143104 C1.2253872,4.0835904 1.6815312,4.3528704 2.1384912,4.6213344 C2.3571792,4.7510784 2.5848432,4.8881664 2.7211152,5.1027744 C2.9030832,5.3900064 2.8867632,5.7563904 2.8639152,6.0950304 C2.8435152,6.4018464 2.8231152,6.7086624 2.8027152,7.0154784 C2.7847632,7.2855744 2.7154032,7.6209504 2.4526512,7.6845984 C2.2935312,7.7229504 2.1262512,7.6323744 2.0283312,7.5026304 C1.9312272,7.3720704 1.8896112,7.2088704 1.8577872,7.0489344 C1.7019312,6.2761824 1.6905072,5.4308064 1.2286512,4.7910624 C1.0385232,4.5291264 0.6811152,4.3577664 0.5195472,4.0933824 C0.4510032,3.9815904 0.4363152,3.8820384 0.4656912,3.8192064" id="Fill-22" fill="#5E5E5E" mask="url(#mask-4)"></path><path d="M2.6108736,13.455024 C2.5888416,13.94544 2.5529376,14.436672 2.5953696,14.925456 C2.6834976,15.799392 4.8385536,15.353856 5.1412896,14.8512 C5.2506336,14.669232 5.2718496,14.448912 5.2889856,14.236752 C5.4277056,12.554976 5.5215456,10.869936 5.5713216,9.183264 C5.6186496,7.574112 5.5623456,5.974752 5.7451296,4.37784 C5.8226496,3.698928 5.9026176,3.008592 6.1833216,2.3868 C6.3277536,2.066112 6.5284896,1.743792 6.4950336,1.394544 C5.9132256,1.804992 5.3942496,2.303568 4.9617696,2.869872 C4.7267616,3.177504 4.5121536,3.509616 4.2134976,3.756864 C3.7026816,4.178736 2.9078976,4.12896 2.2828416,4.086528 C1.7614176,4.049808 1.2391776,4.013904 0.7185696,3.978 C0.8132256,4.74912 1.5892416,5.241168 1.9197216,5.94456 C2.2559136,6.659376 2.2926336,7.635312 2.3897376,8.412144 C2.5056096,9.349728 2.6002656,10.291392 2.6288256,11.23632 C2.6516736,11.975616 2.6459616,12.715728 2.6108736,13.455024" id="Fill-23" fill="#5E5E5E" mask="url(#mask-4)"></path><g id="Group-26" mask="url(#mask-4)" fill="#5E5E5E"><g transform="translate(0.000000, 0.409142)"><path d="M0.3899664,3.9387504 C0.3622224,3.6449904 0.1933104,3.4116144 0.0252144,3.2394384 L-8.16e-05,3.2394384 L1.0182864,14.0579664 C1.0125744,14.0995824 1.0076784,14.1403824 1.0076784,14.1828144 C1.0076784,14.4488304 1.1235504,14.6985264 1.3259184,14.9147664 C1.4001744,12.3141744 0.4413744,4.4781264 0.3899664,3.9387504" id="Fill-24"></path><path d="M6.9163344,0.3691584 C6.7433424,0.6669984 6.7033584,1.1190624 6.6543984,1.7098464 C6.5768784,2.6351904 5.6858064,14.9543424 5.7478224,14.8841664 C5.9346864,14.6752704 6.0415824,14.4369984 6.0415824,14.1832224 C6.0415824,14.1212064 6.0326064,14.0608224 6.0203664,14.0004384 L6.9342864,0.3691584 L6.9163344,0.3691584 Z" id="Fill-25"></path></g></g><path d="M0.419424,3.712392 C2.474928,2.760936 4.545936,1.845384 6.632448,0.966552 C6.641424,0.962472 6.652032,0.966552 6.656112,0.975528 C6.65856,0.984504 6.655296,0.994296 6.647136,0.998376 C4.591632,1.949832 2.520624,2.865384 0.434112,3.745032 C0.425136,3.748296 0.414528,3.744216 0.410448,3.73524 C0.406368,3.726264 0.410448,3.716472 0.419424,3.712392" id="Fill-27" fill="#989898" mask="url(#mask-4)"></path><path d="M0.4847856,3.0936192 C2.4782736,2.1299232 4.4888976,1.2021312 6.5158416,0.3110592 C6.5248176,0.3069792 6.5354256,0.3110592 6.5386896,0.3200352 C6.5427696,0.3281952 6.5386896,0.3388032 6.5305296,0.3428832 C4.5370416,1.3065792 2.5264176,2.2335552 0.4994736,3.1254432 C0.4904976,3.1287072 0.4798896,3.1254432 0.4758096,3.1164672 C0.4725456,3.1074912 0.4758096,3.0976992 0.4847856,3.0936192" id="Fill-28" fill="#989898" mask="url(#mask-4)"></path><path d="M6.574512,1.5500736 C6.574512,1.5500736 6.765456,1.6561536 6.616944,1.8258816 C6.354192,2.1261696 6.08328,2.4966336 5.976384,2.8850496 C5.835216,3.3950496 5.941296,4.0103136 5.872752,4.5480576 C5.837664,4.8271296 5.77728,5.1241536 5.574096,5.3199936 C5.321952,5.2424736 5.176704,4.9846176 5.056752,4.7487936 C4.935984,4.5121536 4.813584,4.2689856 4.784208,4.0046016 C4.768704,3.8658816 4.779312,3.7263456 4.79808,3.5884416 C4.881312,2.9837856 5.106528,2.6459616 5.51616,2.2289856 C5.737296,2.0045856 6.212208,1.4986656 6.574512,1.5500736" id="Fill-29" fill="#5E5E5E" mask="url(#mask-4)"></path><path d="M5.4605088,15.5746656 C4.8819648,16.0046976 4.1385888,16.1458656 3.4311168,16.1434176 C2.7252768,16.1148576 1.9819008,15.9418656 1.4417088,15.4596096 C1.4343648,15.4538976 1.4335488,15.4424736 1.4400768,15.4359456 C1.4466048,15.4286016 1.4572128,15.4277856 1.4645568,15.4334976 C2.0235168,15.8602656 2.7375168,16.0373376 3.4335648,16.0446816 C4.1296128,16.0683456 4.8452448,15.9214656 5.4401088,15.5461056 C5.4474528,15.5403936 5.4588768,15.5428416 5.4645888,15.5510016 C5.4694848,15.5583456 5.4678528,15.5689536 5.4605088,15.5746656" id="Fill-30" fill="#FFFFFF" mask="url(#mask-4)"></path><path d="M1.8259632,6.4361184 L3.8145552,5.5058784 L5.8243632,4.6270464 C5.8325232,4.6229664 5.8423152,4.6270464 5.8455792,4.6343904 C5.8488432,4.6425504 5.8455792,4.6515264 5.8374192,4.6547904 L3.8496432,5.5858464 L1.8390192,6.4646784 C1.8308592,6.4679424 1.8218832,6.4646784 1.8178032,6.4565184 C1.8145392,6.4491744 1.8178032,6.4393824 1.8259632,6.4361184" id="Fill-31" fill="#FFFFFF" mask="url(#mask-4)"></path><path d="M1.8226992,6.8959344 C3.1331952,6.2447664 4.4665392,5.6409264 5.8210992,5.0868624 C5.8333392,5.0819664 5.8472112,5.0876784 5.8512912,5.0991024 C5.8561872,5.1105264 5.8512912,5.1235824 5.8406832,5.1292944 C4.5293712,5.7804624 3.1968432,6.3843024 1.8414672,6.9383664 C1.8300432,6.9432624 1.8161712,6.9375504 1.8112752,6.9261264 C1.8063792,6.9138864 1.8112752,6.9016464 1.8226992,6.8959344" id="Fill-32" fill="#FFFFFF" mask="url(#mask-4)"></path><path d="M2.8259712,11.0500272 L4.1527872,10.6012272 C4.5885312,10.4518992 5.0095872,10.2274992 5.3482272,9.9100752 C5.3531232,9.9035472 5.3620992,9.9035472 5.3686272,9.9084432 C5.3743392,9.9133392 5.3743392,9.9239472 5.3694432,9.9296592 C5.0373312,10.2674832 4.6203552,10.5090192 4.1805312,10.6795632 L2.8333152,11.0785872 C2.8251552,11.0810352 2.8169952,11.0769552 2.8145472,11.0687952 C2.8120992,11.0614512 2.8178112,11.0524752 2.8259712,11.0500272" id="Fill-33" fill="#FFFFFF" mask="url(#mask-4)"></path><path d="M1.9239648,5.106936 C1.9835328,5.407224 1.9835328,5.708328 1.9239648,6.008616 C1.9215168,6.023304 1.9068288,6.03228 1.8929568,6.029016 C1.8815328,6.027384 1.8733728,6.018408 1.8717408,6.008616 C1.8113568,5.708328 1.8113568,5.407224 1.8717408,5.106936 C1.8741888,5.092248 1.8888768,5.083272 1.9035648,5.086536 C1.9133568,5.088168 1.9223328,5.097144 1.9239648,5.106936" id="Fill-34" fill="#FFFFFF" mask="url(#mask-4)"></path><path d="M2.4706032,4.8885744 C2.5301712,5.1888624 2.5301712,5.4891504 2.4706032,5.7894384 C2.4673392,5.8049424 2.4534672,5.8139184 2.4387792,5.8106544 C2.4281712,5.8082064 2.4200112,5.8000464 2.4183792,5.7894384 C2.3579952,5.4891504 2.3579952,5.1888624 2.4183792,4.8885744 C2.4208272,4.8738864 2.4346992,4.8649104 2.4493872,4.8673584 C2.4599952,4.8698064 2.4681552,4.8779664 2.4706032,4.8885744" id="Fill-35" fill="#FFFFFF" mask="url(#mask-4)"></path><path d="M3.0164256,4.6702128 C3.0759936,4.9705008 3.0759936,5.2707888 3.0164256,5.5710768 C3.0139776,5.5857648 2.9992896,5.5955568 2.9854176,5.5922928 C2.9739936,5.5898448 2.9658336,5.5816848 2.9650176,5.5710768 C2.9038176,5.2707888 2.9038176,4.9705008 2.9650176,4.6702128 C2.9666496,4.6555248 2.9813376,4.6457328 2.9960256,4.6489968 C3.0066336,4.6514448 3.0147936,4.6596048 3.0164256,4.6702128" id="Fill-36" fill="#FFFFFF" mask="url(#mask-4)"></path><path d="M4.108968,4.2331632 C4.168536,4.5334512 4.168536,4.8337392 4.108968,5.1340272 C4.10652,5.1487152 4.091832,5.1585072 4.07796,5.1552432 C4.066536,5.1527952 4.058376,5.1446352 4.05756,5.1340272 C3.997176,4.8337392 3.997176,4.5334512 4.05756,4.2331632 C4.059192,4.2184752 4.07388,4.2094992 4.088568,4.2119472 C4.099176,4.2143952 4.107336,4.2225552 4.108968,4.2331632" id="Fill-37" fill="#FFFFFF" mask="url(#mask-4)"></path><path d="M4.6556064,4.0143936 C4.7151744,4.3146816 4.7151744,4.6149696 4.6556064,4.9160736 C4.6523424,4.9307616 4.6384704,4.9397376 4.6245984,4.9364736 C4.6131744,4.9348416 4.6050144,4.9258656 4.6033824,4.9160736 C4.5429984,4.6149696 4.5429984,4.3146816 4.6033824,4.0143936 C4.6058304,3.9997056 4.6197024,3.9907296 4.6352064,3.9939936 C4.6449984,3.9956256 4.6531584,4.0037856 4.6556064,4.0143936" id="Fill-38" fill="#FFFFFF" mask="url(#mask-4)"></path><path d="M5.2023264,3.7961136 C5.2618944,4.0964016 5.2618944,4.3966896 5.2023264,4.6969776 C5.1990624,4.7116656 5.1851904,4.7214576 5.1705024,4.7181936 C5.1590784,4.7157456 5.1517344,4.7075856 5.1501024,4.6969776 C5.0897184,4.3966896 5.0897184,4.0964016 5.1501024,3.7961136 C5.1517344,3.7814256 5.1664224,3.7724496 5.1811104,3.7748976 C5.1917184,3.7773456 5.1998784,3.7855056 5.2023264,3.7961136" id="Fill-39" fill="#FFFFFF" mask="url(#mask-4)"></path><path d="M5.7481488,3.577344 C5.8077168,3.877632 5.8077168,4.17792 5.7481488,4.479024 C5.7448848,4.493712 5.7310128,4.502688 5.7171408,4.499424 C5.7057168,4.497792 5.6975568,4.488816 5.6959248,4.479024 C5.6355408,4.17792 5.6355408,3.877632 5.6959248,3.577344 C5.6983728,3.562656 5.7130608,3.55368 5.7277488,3.556944 C5.7375408,3.558576 5.7457008,3.566736 5.7481488,3.577344" id="Fill-40" fill="#FFFFFF" mask="url(#mask-4)"></path><path d="M3.4316064,9.477432 C3.4911744,9.778536 3.4911744,10.078824 3.4316064,10.379112 C3.4291584,10.3938 3.4144704,10.402776 3.4005984,10.399512 C3.3891744,10.39788 3.3810144,10.38972 3.3801984,10.379112 C3.3189984,10.078824 3.3189984,9.778536 3.3801984,9.477432 C3.3818304,9.462744 3.3965184,9.453768 3.4112064,9.457032 C3.4218144,9.458664 3.4299744,9.46764 3.4316064,9.477432" id="Fill-41" fill="#FFFFFF" mask="url(#mask-4)"></path><path d="M2.8634256,9.6742512 C2.9229936,9.9745392 2.9229936,10.2748272 2.8634256,10.5751152 C2.8609776,10.5906192 2.8462896,10.5995952 2.8324176,10.5963312 C2.8209936,10.5946992 2.8128336,10.5857232 2.8120176,10.5751152 C2.7508176,10.2748272 2.7508176,9.9745392 2.8120176,9.6742512 C2.8136496,9.6595632 2.8283376,9.6505872 2.8430256,9.6530352 C2.8536336,9.6554832 2.8617936,9.6636432 2.8634256,9.6742512" id="Fill-42" fill="#FFFFFF" mask="url(#mask-4)"></path><path d="M3.9783264,9.2590704 C4.0378944,9.5593584 4.0378944,9.8596464 3.9783264,10.1599344 C3.9750624,10.1754384 3.9611904,10.1844144 3.9465024,10.1811504 C3.9358944,10.1795184 3.9277344,10.1705424 3.9261024,10.1599344 C3.8657184,9.8596464 3.8657184,9.5593584 3.9261024,9.2590704 C3.9285504,9.2443824 3.9424224,9.2354064 3.9579264,9.2378544 C3.9677184,9.2403024 3.9758784,9.2484624 3.9783264,9.2590704" id="Fill-43" fill="#FFFFFF" mask="url(#mask-4)"></path><path d="M4.5241488,9.0403008 C4.5837168,9.3414048 4.5837168,9.6416928 4.5241488,9.9419808 C4.5217008,9.9566688 4.5070128,9.9656448 4.4931408,9.9623808 C4.4817168,9.9607488 4.4735568,9.9525888 4.4727408,9.9419808 C4.4123568,9.6416928 4.4123568,9.3414048 4.4727408,9.0403008 C4.4743728,9.0256128 4.4890608,9.0166368 4.5037488,9.0199008 C4.5143568,9.0215328 4.5225168,9.0305088 4.5241488,9.0403008" id="Fill-44" fill="#FFFFFF" mask="url(#mask-4)"></path><path d="M5.0707872,8.8219392 C5.1303552,9.1222272 5.1303552,9.4225152 5.0707872,9.7228032 C5.0675232,9.7383072 5.0536512,9.7472832 5.0397792,9.7440192 C5.0283552,9.7423872 5.0201952,9.7334112 5.0185632,9.7228032 C4.9581792,9.4225152 4.9581792,9.1222272 5.0185632,8.8219392 C5.0210112,8.8072512 5.0348832,8.7982752 5.0503872,8.8007232 C5.0601792,8.8031712 5.0683392,8.8113312 5.0707872,8.8219392" id="Fill-45" fill="#FFFFFF" mask="url(#mask-4)"></path><path d="M5.6844192,14.252664 C5.3702592,14.589672 4.9304352,14.772456 4.4963232,14.89404 C4.2735552,14.944632 4.0483392,14.974824 3.8223072,14.987064 C3.5946432,15.005832 3.3686112,14.982984 3.1442112,14.960136 C3.1344192,14.95932 3.1270752,14.950344 3.1287072,14.940552 C3.1295232,14.931576 3.1384992,14.925048 3.1474752,14.925048 C4.0303872,14.951976 4.9671552,14.8002 5.6599392,14.227368 C5.6672832,14.22084 5.6778912,14.221656 5.6844192,14.229 C5.6901312,14.235528 5.6901312,14.246136 5.6844192,14.252664" id="Fill-46" fill="#FFFFFF" mask="url(#mask-4)"></path><path d="M5.4923328,13.811208 C5.2042848,14.099256 4.8232128,14.27388 4.4339808,14.380776 C4.0374048,14.468904 3.6294048,14.479512 3.2295648,14.43708 C3.2205888,14.436264 3.2148768,14.42892 3.2156928,14.42076 C3.2165088,14.411784 3.2238528,14.406072 3.2320128,14.406072 C3.6302208,14.429736 4.0308768,14.40036 4.4135808,14.296728 C4.7954688,14.209416 5.1757248,14.056824 5.4711168,13.789176 C5.4768288,13.783464 5.4866208,13.783464 5.4923328,13.789992 C5.4988608,13.795704 5.4980448,13.805496 5.4923328,13.811208" id="Fill-47" fill="#FFFFFF" mask="url(#mask-4)"></path><g id="Group-50" mask="url(#mask-4)"><g transform="translate(0.816000, 17.545142)"><path d="M2.7080592,2.2282512 C1.7272272,2.2282512 0.9324432,1.7557872 0.9210192,1.1715312 L0.9210192,1.3510512 C0.9210192,1.3600272 0.9185712,1.3698192 0.9185712,1.3779792 C0.9185712,1.9687632 1.7198832,2.4469392 2.7080592,2.4469392 C3.6946032,2.4469392 4.4934672,1.9703952 4.4967312,1.3812432 L4.4983632,1.3812432 L4.4983632,1.1625552 L4.4967312,1.1625552 C4.4934672,1.7517072 3.6946032,2.2282512 2.7080592,2.2282512" id="Fill-48" fill="#000000"></path><path d="M0.9183264,1.1592912 C0.9183264,1.1633712 0.9207744,1.1674512 0.9207744,1.1715312 L0.9207744,1.1315472 C0.9207744,1.1405232 0.9183264,1.1511312 0.9183264,1.1592912" id="Fill-49" fill="#2E2E2E"></path></g></g></g></g></g><g id="Group-7" transform="translate(0.000000, 140.000000)"><g id="Rectangle-Copy"><use fill="black" fill-opacity="1" filter="url(#filter-6)" xlink:href="#path-5"></use><use stroke="#E5E9EC" stroke-width="1.32132" fill="#FFFFFF" fill-rule="evenodd" xlink:href="#path-5"></use></g><text id="Planned-stock" font-family="Lato-Regular, Lato" font-size="12.012" font-weight="normal" fill="#000000"><tspan x="59.7126377" y="35">Planned stock</tspan></text><text id="Arriving-stock" font-family="Lato-Regular, Lato" font-size="12.012" font-weight="normal" fill="#000000"><tspan x="189.653454" y="35">Arriving stock</tspan></text><line x1="46.5591833" y1="30.33875" x2="31.9891833" y2="30.24325" id="Line-7" stroke="#1EAAE7" stroke-width="1.5" stroke-linejoin="round"></line><line x1="176.5" y1="30.33875" x2="161.93" y2="30.24325" id="Line-7-Copy" stroke="#F7934C" stroke-width="1.5" stroke-linejoin="round"></line><polyline id="Path-2" stroke="#F7934C" stroke-width="1.5" stroke-linejoin="round" points="31.9891833 139.493812 153.744028 102.515349 248.816966 96.1791417 330 76.6989439 419.906843 66.7177962 474 46.5721316 510 35.5"></polyline><polyline id="Path" stroke="#1EAAE7" stroke-width="1.5" stroke-linejoin="round" points="31.9891833 123.875067 119.725063 104.230009 200.653454 108.827218 226.222347 87.496906 329.894248 104.230009 427.310368 82.53 510 87.496906"></polyline></g><g id="Group-7" transform="translate(0.000000, 315.000000)"><g id="Rectangle-Copy"><use fill="black" fill-opacity="1" filter="url(#filter-8)" xlink:href="#path-7"></use><use stroke="#E5E9EC" stroke-width="1.32132" fill="#FFFFFF" fill-rule="evenodd" xlink:href="#path-7"></use></g><text id="Production" font-family="Larsseit-Medium, Larsseit" font-size="14" font-weight="400" fill="#01052F"><tspan x="58" y="31.53">Production</tspan></text><g id="automated-logistics" transform="translate(28.831071, 19.530000)" stroke="#2DB5E6" stroke-linecap="square" stroke-width="1.39130435"><line x1="12.5217391" y1="0" x2="12.5217391" y2="2.7826087" id="Path"></line><polyline id="Path" points="15.3043478 6.95652174 15.3043478 4.86956522 12.5217391 2.7826087 9.73913043 4.86956522 9.73913043 6.95652174"></polyline><line x1="0" y1="15.3043478" x2="15.3043478" y2="15.3043478" id="Path"></line><polyline id="Path" points="9.73913043 15.3043478 9.73913043 9.73913043 15.3043478 9.73913043 15.3043478 15.3043478"></polyline><polyline id="Path" points="0 15.3043478 0 8.34782609 6.95652174 8.34782609 6.95652174 15.3043478"></polyline></g><text id="Ready-to-Dispatch" font-family="Larsseit-Medium, Larsseit" font-size="14" font-weight="400" fill="#717A7B"><tspan x="372" y="31.53">Ready to Dispatch</tspan></text><text id="1480" font-family="Larsseit-Medium, Larsseit" font-size="14" font-weight="400" fill="#717A7B"><tspan x="234.5" y="31.53">1480</tspan></text></g><g id="Group-7-Copy" transform="translate(0.000000, 380.500000)"><g id="Rectangle-Copy"><use fill="black" fill-opacity="1" filter="url(#filter-10)" xlink:href="#path-9"></use><use stroke="#E5E9EC" stroke-width="1.32132" fill="#FFFFFF" fill-rule="evenodd" xlink:href="#path-9"></use></g><text id="On-Water" font-family="Larsseit-Medium, Larsseit" font-size="14" font-weight="400" fill="#01052F"><tspan x="58" y="31.53">On Water</tspan></text><g id="boat-front" transform="translate(27.702000, 19.530000)" stroke="#2DB5E6" stroke-width="1.39130435"><polyline id="Path" stroke-linecap="square" points="6.26086957 3.47826087 6.26086957 0 9.04347826 0 9.04347826 3.47826087"></polyline><polyline id="Path" points="2.7826087 8.97391304 2.7826087 3.47826087 12.5217391 3.47826087 12.5217391 8.97391304"></polyline><path d="M0,12.5913043 C0,14.1217391 1.25217391,15.373913 2.7826087,15.373913 C3.82608696,15.373913 4.73043478,14.7478261 5.2173913,13.9130435 C5.70434783,14.7478261 6.60869565,15.373913 7.65217391,15.373913 C8.69565217,15.373913 9.6,14.7478261 10.0869565,13.9130435 C10.573913,14.7478261 11.4782609,15.373913 12.5217391,15.373913 C14.0521739,15.373913 15.3043478,14.1217391 15.3043478,12.5913043" id="Path" stroke-linecap="square"></path><polyline id="Path" stroke-linecap="square" points="2.7826087 12.5217391 1.39130435 9.73913043 7.65217391 6.26086957 13.9130435 9.73913043 12.5217391 12.5217391"></polyline></g><text id="On-Time" font-family="Larsseit-Medium, Larsseit" font-size="14" font-weight="400" fill="#717A7B"><tspan x="372" y="31.53">On Time</tspan></text><text id="320" font-family="Larsseit-Medium, Larsseit" font-size="14" font-weight="400" fill="#717A7B"><tspan x="234.5" y="31.53">320</tspan></text></g><g id="Group-7-Copy-2" transform="translate(0.000000, 445.500000)"><g id="Rectangle-Copy"><use fill="black" fill-opacity="1" filter="url(#filter-12)" xlink:href="#path-11"></use><use stroke="#E5E9EC" stroke-width="1.32132" fill="#FFFFFF" fill-rule="evenodd" xlink:href="#path-11"></use></g><text id="At-Warehouse" font-family="Larsseit-Medium, Larsseit" font-size="14" font-weight="400" fill="#01052F"><tspan x="58" y="31.53">At Warehouse</tspan></text><g id="storage-unit" transform="translate(27.702000, 18.530000)" stroke="#2DB5E6" stroke-width="1.6"><rect id="Rectangle" stroke-linecap="square" x="2.4" y="10.4" width="6.4" height="5.6"></rect><rect id="Rectangle" stroke-linecap="square" x="8.8" y="10.4" width="6.4" height="5.6"></rect><rect id="Rectangle" stroke-linecap="square" x="5.6" y="4.8" width="6.4" height="5.6"></rect><polyline id="Path" points="0 4 8.8 0 17.6 4"></polyline><line x1="8.8" y1="4.8" x2="8.8" y2="6.4" id="Path" stroke-linecap="square"></line><line x1="12" y1="10.4" x2="12" y2="12" id="Path" stroke-linecap="square"></line><line x1="5.6" y1="10.4" x2="5.6" y2="12" id="Path" stroke-linecap="square"></line></g><text id="Current-Inventory" font-family="Larsseit-Medium, Larsseit" font-size="14" font-weight="400" fill="#717A7B"><tspan x="372" y="31.53">Current Inventory</tspan></text><text id="680" font-family="Larsseit-Medium, Larsseit" font-size="14" font-weight="400" fill="#717A7B"><tspan x="234.5" y="31.53">680</tspan></text></g><g id="Group-8" transform="translate(0.000000, 0.500000)"><rect id="Rectangle" fill="url(#linearGradient-13)" x="0" y="0.516605247" width="535" height="44" rx="4"></rect><text id="Cosmetics" font-family="Larsseit-Bold, Larsseit" font-size="15.015" font-weight="bold" fill="#FFFFFF"><tspan x="28.119" y="27.6075">Cosmetics</tspan></text></g></g><g id="Group-5" transform="translate(293.000000, 326.500000)"><g id="Rectangle"><use fill="black" fill-opacity="1" filter="url(#filter-15)" xlink:href="#path-14"></use><rect stroke="#E5E9EC" stroke-width="1.21968" fill="#FFFFFF" fill-rule="evenodd" x="-0.60984" y="7.39016" width="300.21968" height="143.21968" rx="4"></rect></g><circle id="Oval" stroke-opacity="0.3" stroke="#E86C67" stroke-width="4.87872" fill="#E86C67" cx="296.25" cy="8" r="9.68936"></circle><g id="Group-4" transform="translate(24.000000, 90.500000)"><rect id="Rectangle" fill="#2DB5E6" x="0" y="0" width="251" height="33.5" rx="4"></rect><text id="Hold-Product-at-Manu" font-family="Lato-Bold, Lato" font-size="12" font-weight="bold" fill="#FFFFFF"><tspan x="44.452" y="20.75">Hold Product at Manufacturer</tspan></text></g><text id="Overstocked-by-£9k-v" font-family="Lato-Regular, Lato" font-size="12" font-weight="normal" fill="#E86C67"><tspan x="52.5" y="67.25">Overstocked by £9k vs Plan</tspan></text><text id="Overstock-expected-o" font-family="Larsseit-Bold, Larsseit" font-size="14" font-weight="bold" fill="#0A1158"><tspan x="52.4" y="40">Overstock expected on SKU8729</tspan></text><g id="info-circle" transform="translate(23.840000, 31.240000)" fill="#2DB5E6" fill-rule="nonzero"><path d="M8.85,0 C3.96108871,0 0,3.96394355 0,8.85 C0,13.7360565 3.96108871,17.7 8.85,17.7 C13.7389113,17.7 17.7,13.7389113 17.7,8.85 C17.7,3.96108871 13.7389113,0 8.85,0 Z M8.85,3.92540323 C9.67775904,3.92540323 10.3487903,4.59643451 10.3487903,5.42419355 C10.3487903,6.25195259 9.67775904,6.92298387 8.85,6.92298387 C8.02224096,6.92298387 7.35120968,6.25195259 7.35120968,5.42419355 C7.35120968,4.59643451 8.02224096,3.92540323 8.85,3.92540323 Z M10.8483871,12.9895161 C10.8483871,13.2260187 10.6566639,13.4177419 10.4201613,13.4177419 L7.27983871,13.4177419 C7.04333613,13.4177419 6.8516129,13.2260187 6.8516129,12.9895161 L6.8516129,12.1330645 C6.8516129,11.8965619 7.04333613,11.7048387 7.27983871,11.7048387 L7.70806452,11.7048387 L7.70806452,9.42096774 L7.27983871,9.42096774 C7.04333613,9.42096774 6.8516129,9.22924452 6.8516129,8.99274194 L6.8516129,8.13629032 C6.8516129,7.89978774 7.04333613,7.70806452 7.27983871,7.70806452 L9.56370968,7.70806452 C9.80021226,7.70806452 9.99193548,7.89978774 9.99193548,8.13629032 L9.99193548,11.7048387 L10.4201613,11.7048387 C10.6566639,11.7048387 10.8483871,11.8965619 10.8483871,12.1330645 L10.8483871,12.9895161 Z" id="Shape"></path></g></g></g></g></svg> 