<?xml version="1.0" encoding="UTF-8"?> <svg xmlns="http://www.w3.org/2000/svg" xmlns:xlink="http://www.w3.org/1999/xlink" width="62" height="58"><defs><path id="a" d="M0.0000414285714 0.174455714L60.1595057 0.174455714 60.1595057 35.8357143 0.0000414285714 35.8357143z"></path><path d="M.024 1.081c.025.555.45 1.024 1.023 1.024.535 0 1.047-.47 1.023-1.024C2.045.528 1.62.06 1.047.06.512.059-.001.529.024 1.08" id="c"></path><path id="e" d="M0.0737428571 4.30215L36.9178286 26.6632214 44.4275857 22.2289143 7.0818 0.202378571z"></path><path id="g" d="M0.0926964286 0.178557143L49.1712607 0.178557143 49.1712607 28.5139393 0.0926964286 28.5139393z"></path></defs><g transform="translate(-1)" fill="none" fill-rule="evenodd"><g transform="translate(0 21.986)"><mask id="b" fill="#fff"><use xlink:href="#a"></use></mask><path d="M1.468 26.313l16.128 9.236a1 1 0 0 0 .999-.003L58.697 12.27a1 1 0 0 0 .014-1.721L41.484.174 1.444 24.591a1 1 0 0 0 .024 1.722z" fill="#2A2C37" opacity=".3" mask="url(#b)"></path></g><g transform="translate(35.836 38.143)"><mask id="d" fill="#fff"><use xlink:href="#c"></use></mask><path d="M.024 1.081c.025.555.45 1.024 1.023 1.024.535 0 1.047-.47 1.023-1.024C2.045.528 1.62.06 1.047.06.512.059-.001.529.024 1.08" mask="url(#d)"></path></g><g transform="translate(18.021 27.372)"><path fill="#AFF" d="M6.89835429 0.0547064286L0.0748614286 4.02480643 14.9373614 12.7442779 21.7612686 8.352435z"></path><path fill="#67D5F6" d="M8.54598929 8.75986429L8.54598929 12.4822214 6.31920357 11.2256929 6.31920357 7.45341429z"></path><path fill="#FFF" d="M6.31930714 7.688335L8.96762857 5.97319214 10.9180857 7.248985 8.44210714 8.93367786z"></path></g><g transform="translate(20.093 11.836)"><mask id="f" fill="#fff"><use xlink:href="#e"></use></mask><path mask="url(#f)" d="M0.0737428571 4.30215L36.9178286 26.6632214 44.4275857 22.2289143 7.0818 0.202378571z"></path></g><g transform="translate(4.764 .029)"><path d="M26.234 49.572c0 1.587-1.007 2.874-2.25 2.874-1.242 0-2.25-1.287-2.25-2.874 0-1.588 1.008-2.875 2.25-2.875 1.243 0 2.25 1.287 2.25 2.875" fill="#121279"></path><path fill="#08599D" d="M37.8505307 26.82877L30.4942664 22.58172 45.206795 14.0874129 52.5630593 18.3344629z"></path><path fill="#121279" d="M14.7510779 50.4428071L14.7510779 33.9803357 1.73256357 42.6842714 1.72262071 42.9858714z"></path><path d="M51.42 34.809c0 1.587-1.006 2.874-2.249 2.874-1.242 0-2.25-1.287-2.25-2.874 0-1.588 1.008-2.875 2.25-2.875 1.243 0 2.25 1.287 2.25 2.875M26.29 49.572c0 1.587-1.006 2.874-2.249 2.874-1.242 0-2.25-1.287-2.25-2.874 0-1.588 1.008-2.875 2.25-2.875 1.243 0 2.25 1.287 2.25 2.875" fill="#000"></path><path d="M50.044 34.998c0 .546-.346.989-.773.989-.427 0-.774-.443-.774-.989s.347-.988.774-.988c.427 0 .773.442.773.988M24.816 49.5c0 .546-.347.988-.774.988-.427 0-.773-.442-.773-.988s.346-.988.773-.988c.427 0 .774.442.774.988" fill="#FFF"></path><path fill="#08599D" d="M37.8295886 41.2394707L57.9408814 29.6280779 57.9408814 24.6850279 52.5421171 18.3497707 37.8295886 26.8440779z"></path><path fill="#000" d="M53.94203 19.992455L50.5117443 21.8871907 50.4585086 27.0077621 56.9311014 23.5002121z"></path><path fill="#67D5F6" d="M17.3544079 33.3006171L17.3544079 37.0229743 19.5811936 35.7664457 19.5811936 31.9941671z"></path><path fill="#FFF" d="M19.5811936 32.2291086L16.9328721 30.5139657 14.982415 31.7895514 17.4583936 33.4744514z"></path><path d="M14.751 50.443L1.723 42.986l.056-20.004 12.972 7.49v19.97zM.093 19.069L.022 44.297l16.43 9.404V28.514L.092 19.069z" fill="#08599D"></path><path fill="#024C8A" d="M16.4522179 53.7010607L49.0848821 34.7495607 49.1712607 9.62354643 16.4522179 28.5139393z"></path><mask id="h" fill="#fff"><use xlink:href="#g"></use></mask><path fill="#08599D" mask="url(#h)" d="M16.4522179 28.5139393L0.0926964286 19.0688464 32.8117393 0.178453571 49.1712607 9.62354643z"></path><path fill="#00A8DB" d="M1.72272429 42.9859129L14.7511814 50.4428486 14.7511814 30.4709629 1.77906714 22.9815057z"></path><path fill="#00C5F3" d="M2.23915214 43.2958193L14.7990521 50.4820193 14.7990521 30.5101336 2.295495 23.2914121z"></path><path stroke="#00A8DB" d="M3.604 26.402L13.132 31.886"></path><path stroke="#00A8DB" d="M3.604 28.569L13.132 34.053"></path><path stroke="#00A8DB" d="M3.604 30.735L13.132 36.219"></path><path stroke="#00A8DB" d="M3.604 32.902L13.132 38.385"></path><path stroke="#00A8DB" d="M3.604 35.068L13.132 40.552"></path><path stroke="#00A8DB" d="M3.604 37.234L13.132 42.718"></path><path stroke="#00A8DB" d="M3.604 39.401L13.132 44.885"></path><path stroke="#00A8DB" d="M3.604 41.567L13.132 47.051"></path><path fill="#FFF" d="M28.5969829 35.2662993L29.5316114 34.7266921 29.5316114 40.5521707 28.5969829 41.094885z"></path><path fill="#FFF" d="M31.265045 30.5363164L32.1996736 29.9967093 32.1996736 38.913795 31.265045 39.4567164z"></path><path fill="#FFF" d="M34.2800507 26.9722993L35.2146793 26.4326921 35.2146793 37.2569421 34.2800507 37.7998636z"></path><path fill="#FFF" d="M37.5487236 23.2867721L38.4833521 22.747165 38.4833521 35.3700364 37.5487236 35.9129579z"></path><path stroke="#BBEAFB" stroke-width=".52" d="M25.2290886 28.0937293L25.2290886 43.1068221 41.27396 33.7023293"></path></g></g></svg> 