<?xml version="1.0" encoding="UTF-8"?> <svg xmlns="http://www.w3.org/2000/svg" width="135" height="48" viewBox="0 0 135 48" fill="none"><path d="M51.8601 14.214C50.8888 13.1888 49.8473 12.5646 49.1282 12.5646H48.4814V11.9962H49.0207C49.2708 11.9962 52.2196 12.116 52.5069 12.116C52.976 12.116 54.3378 11.9962 54.6271 11.9962H55.2015L68.8774 27.1777V15.202C68.8774 13.2983 68.0508 12.5646 65.9699 12.5646H65.3582V11.9962H66.005C66.0774 11.9962 69.1647 12.116 69.4147 12.116C69.7722 12.116 71.8201 11.9962 72.2148 11.9962H72.6115L72.6467 12.5646C70.7414 12.7113 70.2392 13.226 70.2392 14.9105V33.8435H69.5945L53.2611 15.7166V29.3583C53.2611 32.2189 53.91 32.9878 56.2782 32.9878H56.8878V33.5996H56.2038C55.7016 33.5996 53.226 33.4756 52.6495 33.4756C52.3271 33.4756 50.0271 33.5996 49.525 33.5996H48.9484V32.9878C51.3579 32.7666 51.8621 32.3636 51.8621 30.6046V14.214H51.8601V14.214ZM76.6164 14.4331C76.6164 13.0048 76.077 12.5646 74.3866 12.5646H73.8493V11.9962H75.2504C76.2217 11.9962 81.4663 12.116 81.5035 12.116C82.2557 12.116 87.2421 11.9962 88.3146 11.9962H89.7508L89.8231 16.7025H89.2652C89.1557 14.247 88.0666 13.257 85.5559 13.257H80.5344V21.5784H84.874C86.5602 21.5784 87.4942 20.7723 87.7443 19.0464L88.3849 19.0836V25.6523H87.7794C87.4942 23.5998 86.4527 22.7937 83.942 22.7937H80.4992V30.3835C80.4992 31.6298 81.1109 32.254 82.3281 32.254H85.9155C88.2423 32.254 89.9327 31.1896 90.937 28.9883H91.5858L90.0753 33.5975C89.0317 33.5975 84.0866 33.4776 82.4376 33.4776C81.3238 33.4776 75.9695 33.5603 74.7462 33.5975H73.8122V32.9878H74.3866C76.077 32.9526 76.6184 32.5124 76.6184 31.08V14.4331H76.6164ZM111.128 33.8828H110.122L106.022 22.492L101.817 33.8848H100.846L93.8321 14.7638C93.2948 13.2963 92.7885 12.7113 91.8545 12.5315V11.9941H92.4662C92.8608 11.9941 94.8405 12.116 95.3075 12.116C95.7022 12.116 97.7501 11.9962 98.182 11.9962H98.8309V12.5646C97.7873 12.6038 97.3554 12.8953 97.3554 13.4802C97.3554 13.8109 97.4629 14.2863 97.6447 14.801L102.569 28.3537L105.373 20.6235L103.54 15.4231C102.749 13.1888 102.065 12.6038 100.337 12.5646V11.9962H100.916C101.418 11.9962 104.007 12.116 104.621 12.116C105.121 12.116 107.71 11.9962 108.285 11.9962H109.147V12.5646H108.285C107.099 12.5646 106.524 12.8581 106.524 13.4802C106.524 13.8109 106.669 14.3979 106.884 14.9829L111.666 28.4633L115.441 17.0332C115.908 15.5678 116.123 14.6149 116.123 14.03C116.123 13.0048 115.621 12.5625 114.507 12.5625H113.86V11.9962H114.04C114.542 11.9962 115.799 12.116 116.555 12.116C116.912 12.116 118.314 11.9962 118.993 11.9962H119.248V12.5646C118.347 12.8229 117.884 13.4802 117.167 15.7166L111.126 33.8848L111.128 33.8828ZM119.415 28.5852C119.989 30.0073 120.49 30.6687 121.457 31.3983C122.676 32.3491 124.288 32.8245 126.079 32.8245C129.16 32.8245 131.239 31.1792 131.239 28.8023C131.239 27.0454 130.235 26.0946 126.524 24.3067C122.928 22.5498 122.031 21.6735 121.279 20.9418C120.169 19.7347 119.704 18.6392 119.704 17.1759C119.704 13.813 122.391 11.5869 126.451 11.5869C127.675 11.5869 129.005 11.7688 130.446 12.1326C131.02 12.2773 131.597 12.3517 131.921 12.3517C132.206 12.3517 132.353 12.2793 132.459 12.0354H133.078L133.149 16.6426H132.638C132.316 15.5451 132.101 15.0717 131.632 14.4723C130.623 13.2632 129.041 12.6059 127.009 12.6059C124.43 12.6059 122.744 13.8481 122.744 15.7145C122.744 17.3226 123.715 18.2362 127.154 19.8442C131.564 21.9277 134.234 23.7941 134.234 27.2293C134.234 31.1772 131.057 33.8435 126.367 33.8435C125.086 33.8326 123.812 33.6738 122.568 33.3702C122.145 33.272 121.713 33.2105 121.279 33.1862C120.847 33.1862 120.706 33.2606 120.421 33.5996H119.812L119.739 33.087C119.496 31.6401 119.206 30.1974 118.876 28.7671L119.415 28.5832V28.5852ZM8.21834 20.4623C7.67693 20.4623 7.16444 20.5863 6.70982 20.8095C5.4968 21.411 4.73221 22.6491 4.73634 24.005C4.73634 25.9603 6.29653 27.5476 8.21628 27.5476C10.1402 27.5476 11.6962 25.9603 11.6962 24.005C11.6962 22.0476 10.1402 20.4602 8.21628 20.4602L8.21834 20.4623ZM23.2188 20.4623C21.297 20.4623 19.7368 22.0476 19.7368 24.005C19.7368 25.9603 21.2949 27.5476 23.2188 27.5476C25.1406 27.5476 26.6988 25.9603 26.6988 24.005C26.6988 22.0476 25.1386 20.4602 23.2188 20.4602V20.4623Z" fill="#1D2231"></path><path d="M38.1813 31.0931C34.3336 31.0931 31.2173 27.9204 31.2173 24.0035C31.2173 20.0909 34.3336 16.9182 38.1813 16.9182C41.4794 16.9182 44.2402 19.2579 44.9593 22.3955H41.281C40.9952 21.8167 40.5538 21.3291 40.0062 20.9873C39.4587 20.6456 38.8267 20.4633 38.1813 20.4608C36.2554 20.4608 34.6973 22.0482 34.6973 24.0056C34.6973 25.9609 36.2554 27.5483 38.1793 27.5483C38.8262 27.5459 39.4597 27.3627 40.0081 27.0194C40.5565 26.6761 40.9981 26.1864 41.2831 25.6054L44.9676 25.5703C44.2671 28.7327 41.4959 31.0931 38.1793 31.0931H38.1813ZM23.218 31.0931C19.3889 31.0931 16.283 27.9472 16.2561 24.0552L16.1734 11.6206H19.6947L19.7154 18.2927C20.7465 17.4742 21.941 16.9182 23.218 16.9182C27.0617 16.9182 30.1779 20.0909 30.1779 24.0056C30.1779 27.9204 27.0596 31.0931 23.218 31.0931ZM11.7574 31.0931L11.7429 29.3176C10.9536 30.1216 9.58762 31.0931 7.9737 31.0931C4.13008 31.0931 1.25562 27.9204 1.25562 24.0035C1.25562 20.0909 4.37185 16.9182 8.21548 16.9182C8.81476 16.9182 9.39957 16.9946 9.95751 17.1414C12.9601 17.9268 15.1774 20.7027 15.1774 24.0035V24.0242L15.2187 31.0931H11.7553H11.7574ZM23.218 0.382812C10.4018 0.382812 0.0136719 10.9592 0.0136719 24.0056C0.0136719 37.052 10.4018 47.6305 23.218 47.6305C36.0301 47.6305 46.4203 37.052 46.4203 24.0056C46.4203 10.9592 36.0301 0.382812 23.218 0.382812V0.382812Z" fill="#1D2231"></path></svg> 