<?xml version="1.0" encoding="UTF-8"?> <svg xmlns="http://www.w3.org/2000/svg" width="158" height="30" viewBox="0 0 158 30" fill="none"><path d="M0.613281 0.59668H12.0803C14.2645 0.59668 15.9026 1.14273 17.116 2.05281C18.4508 3.1449 19.1789 4.72237 19.1789 6.66387C19.1789 8.90873 18.2688 10.3042 16.4486 11.1536V11.2749C18.8755 12.0637 20.271 14.2479 20.271 16.8567C20.271 19.3443 19.3002 21.2858 17.7228 22.4992C16.388 23.47 14.6892 23.8947 12.3836 23.8947H0.613281V0.59668ZM10.9275 9.69746C12.1409 9.69746 13.051 9.03007 13.051 7.63462C13.051 6.29984 12.1409 5.63245 10.8668 5.63245H6.92316V9.63679H10.9275V9.69746ZM11.4735 18.7376C12.869 18.7376 13.9004 17.8882 13.9004 16.3714C13.9004 14.7332 12.8083 14.0052 11.4735 14.0052H6.98383V18.7982H11.4735V18.7376Z" fill="#1D2231"></path><path d="M21.3047 0.59668H27.3112V23.9554H21.3047V0.59668Z" fill="#1D2231"></path><path d="M28.5215 15.6431C28.5215 10.3647 31.9191 6.8457 37.1976 6.8457C42.476 6.8457 45.813 10.4253 45.813 15.6431C45.813 20.9216 42.476 24.4405 37.1976 24.4405C31.9191 24.4405 28.5215 20.9216 28.5215 15.6431ZM39.8065 15.6431C39.8065 12.7309 38.8964 10.9107 37.0762 10.9107C35.2561 10.9107 34.4067 12.7309 34.4067 15.6431C34.4067 18.5554 35.2561 20.4362 37.0762 20.4362C38.8964 20.3755 39.8065 18.5554 39.8065 15.6431Z" fill="#1D2231"></path><path d="M46.4824 15.6431C46.4824 10.3647 49.88 6.8457 55.1585 6.8457C60.4369 6.8457 63.7132 10.3647 63.7132 15.6431C63.7132 20.9216 60.3763 24.4405 55.0978 24.4405C49.88 24.4405 46.4824 20.9216 46.4824 15.6431ZM57.7674 15.6431C57.7674 12.7309 56.8573 10.9107 55.0372 10.9107C53.217 10.9107 52.3676 12.7309 52.3676 15.6431C52.3676 18.5554 53.217 20.4362 55.0372 20.4362C56.8573 20.3755 57.7674 18.5554 57.7674 15.6431Z" fill="#1D2231"></path><path d="M64.9258 7.27151H70.5076V9.75905H70.6289C71.721 7.81755 73.2378 6.78613 75.6647 6.78613C77.7882 6.78613 79.3657 7.81755 80.1544 9.63771H80.2758C81.6105 7.45352 83.37 6.78613 85.4329 6.78613C89.3159 6.78613 90.954 9.63771 90.954 13.46V23.8956H85.1295V14.4915C85.1295 12.7926 84.5835 11.7006 83.1273 11.7006C81.6712 11.7006 80.9432 13.0353 80.9432 14.8555V23.8956H75.1187V14.4915C75.1187 12.7926 74.5726 11.7006 73.1165 11.7006C71.6604 11.7006 70.9323 13.0353 70.9323 14.8555V23.8956H64.9258C64.9258 23.8956 64.9258 7.27151 64.9258 7.27151Z" fill="#1D2231"></path><path d="M98.2929 21.7105H98.2322V23.8947H92.6504V0.59668H98.4749V8.9694H98.5962C99.6883 7.51327 101.205 6.72454 103.329 6.72454C107.515 6.72454 109.942 10.4862 109.942 15.522C109.942 21.1644 107.333 24.4407 102.965 24.4407C101.144 24.4407 99.2636 23.5913 98.2929 21.7105ZM103.935 15.4613C103.935 12.7917 102.965 11.0322 101.205 11.0322C99.385 11.0322 98.2929 12.7917 98.2929 15.4613C98.2929 18.1309 99.4456 19.8903 101.205 19.8903C102.965 19.8903 103.935 18.1915 103.935 15.4613Z" fill="#1D2231"></path><path d="M110.613 15.5836C110.613 10.3658 114.072 6.78613 119.047 6.78613C121.534 6.78613 123.415 7.57487 124.871 8.97032C126.813 10.8511 127.662 13.7634 127.601 17.161H116.438C116.68 19.2239 117.651 20.316 119.411 20.316C120.442 20.316 121.352 19.8306 121.716 18.7385H127.359C126.388 22.5608 123.415 24.4417 119.229 24.4417C114.072 24.381 110.613 20.862 110.613 15.5836ZM116.438 13.8241H121.777C121.656 11.8219 120.563 10.7905 119.168 10.7905C117.53 10.7298 116.62 11.8826 116.438 13.8241Z" fill="#1D2231"></path><path d="M134.213 10.1228H134.334C135.547 7.8173 137.125 6.90723 139.127 6.90723C139.612 6.90723 139.916 6.9679 140.098 7.08924V12.1857H139.977C136.518 11.579 134.516 13.2171 134.516 16.9788V23.956H128.631V7.27126H134.213V10.1228Z" fill="#1D2231"></path><path d="M140.704 23.9554H146.346C146.589 24.6835 147.317 25.3509 148.712 25.3509C150.593 25.3509 151.261 24.1981 151.261 22.4386V21.2252H151.139C150.229 22.3173 148.955 23.106 147.135 23.106C143.555 23.106 140.4 20.4365 140.4 15.2187C140.4 10.4256 142.949 6.72461 146.832 6.72461C149.076 6.72461 150.411 7.63469 151.321 9.03014H151.443V7.20998H157.024V21.6499C157.024 24.3195 156.114 26.3823 154.719 27.5957C153.263 28.8698 151.2 29.4159 148.834 29.4159C144.344 29.4766 141.25 27.6564 140.704 23.9554ZM151.503 14.976C151.503 12.9131 150.533 11.2143 148.834 11.2143C147.196 11.2143 146.164 12.6705 146.164 14.976C146.164 17.2208 147.196 18.7983 148.834 18.7983C150.472 18.7983 151.503 17.1602 151.503 14.976Z" fill="#1D2231"></path></svg> 