<?xml version="1.0" encoding="UTF-8"?> <svg xmlns="http://www.w3.org/2000/svg" width="128" height="30" viewBox="0 0 128 30" fill="none"><path d="M15.5391 27.8288C14.097 28.8256 12.358 29.4194 10.619 29.4194C6.54715 29.4194 0.587891 25.899 0.587891 15.0408C0.587891 6.93962 5.16868 0.598633 10.8947 0.598633C12.7609 0.598633 14.4363 1.48934 15.7299 2.86782L16.7691 1.00158H17.5325V8.82707H16.6418C15.9844 5.68839 14.8816 1.61658 10.9795 1.61658C7.33182 1.61658 7.24699 6.17615 7.18337 8.89069V21.3394C7.18337 26.2383 8.62547 28.3802 11.4885 28.3802C14.2878 28.3802 16.3449 24.8598 16.7903 21.0425H17.681V29.1013H16.7903L15.5391 27.8288Z" fill="#1D2231"></path><path d="M29.3687 27.8288V28.868H19.168V27.8288H21.4159V2.08311H19.168V1.04395H29.3687V2.08311H27.1207V27.8288H29.3687Z" fill="#1D2231"></path><path d="M37.6376 2.04139H36.8742C32.9084 2.04139 32.0389 8.17031 31.848 9.90931H30.6816L30.9998 1.02344H50.0651L50.3832 9.90931H49.2168C49.0048 8.19152 48.1565 2.04139 44.1907 2.04139H43.4272V27.7871H46.3326V28.8262H34.7534V27.7871H37.6801L37.6376 2.04139Z" fill="#1D2231"></path><path d="M66.9018 27.8288V28.868H56.1921V27.8288H58.631V16.4193L52.8414 2.08311H51.3145V1.04395H60.37V2.08311H58.5674L63.4238 13.938L68.2803 2.08311H66.308V1.04395H71.2705V2.08311H69.574L64.2933 15.0832V27.8288H66.9018Z" fill="#1D2231"></path><path d="M81.1308 10.4166H81.0247L78.5859 19.3449H83.506L81.1308 10.4166ZM93.1129 27.8278V28.867H83.8029V27.8278H85.8388L83.8665 20.5113H78.289L76.3591 27.8278H78.9464V28.867H73.0508V27.8278H75.0867L82.5729 1.04297H84.2695L91.586 27.8278H93.1129Z" fill="#1D2231"></path><path d="M94.1309 28.8461H97.4816V25.665H94.1309V28.8461Z" fill="#1D2231"></path><path d="M104.121 28.8458H98.7344V27.8066H100.622V2.08213H98.7344V1.04297H106.899L111.035 18.2845H111.098L115.509 1.04297H123.441V2.08213H121.638V27.8278H123.441V28.867H114.004V27.8278H116.209V2.86681H116.146L109.529 28.8458H108.278L102 2.31541H101.937V27.8278H104.142L104.121 28.8458Z" fill="#1D2231"></path><path d="M124.48 28.8461H127.831V25.665H124.48V28.8461Z" fill="#1D2231"></path></svg> 