<?xml version="1.0" encoding="UTF-8"?> <svg xmlns="http://www.w3.org/2000/svg" width="1283" height="746" viewBox="0 0 1283 746" fill="none"><path d="M1.00004 1L1282 745" stroke="#0D97F2" stroke-opacity="0.5" stroke-width="2" stroke-miterlimit="10" stroke-linecap="round"></path><path d="M186 591L1216 1" stroke="#0D97F2" stroke-opacity="0.5" stroke-width="2" stroke-miterlimit="10" stroke-linecap="round"></path><path d="M185 592L445 743" stroke="#0D97F2" stroke-opacity="0.5" stroke-width="2" stroke-miterlimit="10" stroke-linecap="round"></path><path d="M654 544L1000 745" stroke="#0D97F2" stroke-opacity="0.5" stroke-width="2" stroke-miterlimit="10" stroke-linecap="round"></path><path d="M324.424 638.447C333.44 643.614 341.028 651.061 345.961 660.209C349.437 666.637 325.395 677.812 325.395 677.812C319.882 680.485 295.42 681.961 280.807 673.804C270.042 667.796 179.08 611.938 145.115 591.952L140.705 569.078L166.261 570.582L230.555 584.608L324.424 638.447Z" fill="#449DF8"></path><path d="M321.017 619.412L227.149 565.573L165.573 552.137L165.918 551.959L228.616 565.638L320.148 618.141C326.838 621.982 332.715 627.111 337.266 633.269C332.799 627.691 327.268 622.991 321.017 619.412Z" fill="#25BCEA"></path><path d="M344.7 659.439C340.887 671.549 299.102 663.345 278.545 651.618C268.099 645.666 181.482 594.602 148.367 575.111C142.807 571.84 143.05 563.73 148.778 560.777L165.578 552.125L227.154 565.561L321.62 618.98C327.871 622.559 332.805 627.679 337.271 633.248C338.701 635.182 340.009 637.21 341.158 639.34C344.541 645.619 346.774 652.852 344.7 659.439Z" fill="#0E177A"></path><path d="M227.227 541.383V574.058L186.973 597.988L187.001 563.939L227.227 541.383Z" fill="#8CD1FF"></path><path d="M222.898 552.438V555.39L220.45 556.885V553.811L222.898 552.438Z" fill="#0E177A"></path><path d="M213.391 557.512V560.464L210.943 561.959V558.885L213.391 557.512Z" fill="#0E177A"></path><path d="M203.875 562.586V565.539L201.427 567.034V563.959L203.875 562.586Z" fill="#0E177A"></path><path d="M194.359 567.66V570.613L191.911 572.108V569.034L194.359 567.66Z" fill="#0E177A"></path><path d="M222.898 562.809V565.752L220.45 567.256V564.182L222.898 562.809Z" fill="#0E177A"></path><path d="M213.391 567.881V570.824L210.943 572.329V569.254L213.391 567.881Z" fill="#0E177A"></path><path d="M203.875 572.957V575.91L201.427 577.405V574.331L203.875 572.957Z" fill="#0E177A"></path><path d="M194.359 578.031V580.984L191.911 582.479V579.405L194.359 578.031Z" fill="#0E177A"></path><path d="M227.227 541.382L198.242 527.395L158.447 548.297L187.001 563.938L227.227 541.382Z" fill="#D9F0FF"></path><path d="M216.586 525.648V540.253L187.77 557.38L187.788 541.785L216.586 525.648Z" fill="#8CD1FF"></path><path d="M216.531 525.694L194.19 515.098L167.383 530.253L187.743 541.756L216.531 525.694Z" fill="#D9F0FF"></path><path d="M167.363 530.096L187.789 541.448L187.77 557.38L167.363 545.233V530.096Z" fill="#0D97F2"></path><path d="M216.586 532.141L187.798 548.091L187.807 550.52L216.53 534.42L216.586 532.141Z" fill="#0E177A"></path><path d="M167.334 536.691L187.797 548.147L187.778 550.576L167.39 538.971L167.334 536.691Z" fill="#0E177A"></path><path d="M145.266 560.601L162.851 551.547L165.57 552.145L148.77 560.797C143.033 563.75 142.799 571.86 148.359 575.131C181.474 594.622 268.1 645.677 278.537 651.638C299.094 663.364 340.879 671.568 344.692 659.459C346.766 652.871 344.533 645.639 341.141 639.37C339.992 637.239 338.683 635.212 337.254 633.277C339.235 635.744 341.029 638.37 342.542 641.182C346.018 647.611 348.308 655.03 346.177 661.785C342.272 674.213 299.421 665.794 278.332 653.768C267.624 647.658 178.792 595.295 144.827 575.308C139.146 571.944 139.389 563.628 145.266 560.601Z" fill="#8CD1FF"></path><path d="M158.473 548.074L187 563.94L186.972 597.989L158.473 581.011V548.074Z" fill="#0D97F2"></path><path d="M289.266 638.85L257.235 620.358L257.188 595.625L289.266 614.154V638.85Z" fill="#8CD1FF"></path><path d="M305.308 604.885L305.383 629.627L289.265 638.85V614.154L305.308 604.885Z" fill="#0D97F2"></path><path d="M289.254 614.152L305.297 604.883L273.22 586.363L257.176 595.623L289.254 614.152Z" fill="#D9F0FF"></path><g style="mix-blend-mode:darken"><path fill-rule="evenodd" clip-rule="evenodd" d="M303.048 608.484C302.721 608.484 302.455 608.75 302.455 609.077V627.428C302.455 627.756 302.721 628.021 303.048 628.021C303.375 628.021 303.641 627.756 303.641 627.428V609.077C303.641 608.75 303.375 608.484 303.048 608.484Z" fill="#0E177A"></path><path fill-rule="evenodd" clip-rule="evenodd" d="M300.15 610.129C299.822 610.129 299.557 610.394 299.557 610.722V629.082C299.557 629.409 299.822 629.675 300.15 629.675C300.477 629.675 300.742 629.409 300.742 629.082V610.722C300.742 610.394 300.477 610.129 300.15 610.129Z" fill="#0E177A"></path><path fill-rule="evenodd" clip-rule="evenodd" d="M297.267 611.783C296.939 611.783 296.674 612.049 296.674 612.376V630.727C296.674 631.054 296.939 631.32 297.267 631.32C297.594 631.32 297.859 631.054 297.859 630.727V612.376C297.859 612.049 297.594 611.783 297.267 611.783Z" fill="#0E177A"></path><path fill-rule="evenodd" clip-rule="evenodd" d="M294.376 613.428C294.049 613.428 293.784 613.693 293.784 614.02V632.372C293.784 632.699 294.049 632.964 294.376 632.964C294.703 632.964 294.969 632.699 294.969 632.372V614.02C294.969 613.693 294.703 613.428 294.376 613.428Z" fill="#0E177A"></path><path fill-rule="evenodd" clip-rule="evenodd" d="M291.478 615.072C291.15 615.072 290.885 615.338 290.885 615.665V634.026C290.885 634.353 291.15 634.618 291.478 634.618C291.805 634.618 292.07 634.353 292.07 634.026V615.665C292.07 615.338 291.805 615.072 291.478 615.072Z" fill="#0E177A"></path></g><path fill-rule="evenodd" clip-rule="evenodd" d="M260.743 600.654C260.416 600.654 260.151 600.92 260.151 601.247V619.355C260.151 619.683 260.416 619.948 260.743 619.948C261.071 619.948 261.336 619.683 261.336 619.355V601.247C261.336 600.92 261.071 600.654 260.743 600.654Z" fill="#0E177A"></path><path fill-rule="evenodd" clip-rule="evenodd" d="M263.564 602.281C263.236 602.281 262.971 602.547 262.971 602.874V620.982C262.971 621.31 263.236 621.575 263.564 621.575C263.891 621.575 264.156 621.31 264.156 620.982V602.874C264.156 602.547 263.891 602.281 263.564 602.281Z" fill="#0E177A"></path><path fill-rule="evenodd" clip-rule="evenodd" d="M266.384 603.906C266.057 603.906 265.791 604.172 265.791 604.499V622.617C265.791 622.944 266.057 623.209 266.384 623.209C266.711 623.209 266.977 622.944 266.977 622.617V604.499C266.977 604.172 266.711 603.906 266.384 603.906Z" fill="#0E177A"></path><path fill-rule="evenodd" clip-rule="evenodd" d="M269.204 605.541C268.877 605.541 268.612 605.806 268.612 606.134V624.242C268.612 624.569 268.877 624.835 269.204 624.835C269.532 624.835 269.797 624.569 269.797 624.242V606.134C269.797 605.806 269.532 605.541 269.204 605.541Z" fill="#0E177A"></path><path fill-rule="evenodd" clip-rule="evenodd" d="M272.017 607.168C271.689 607.168 271.424 607.433 271.424 607.761V625.878C271.424 626.206 271.689 626.471 272.017 626.471C272.344 626.471 272.609 626.206 272.609 625.878V607.761C272.609 607.433 272.344 607.168 272.017 607.168Z" fill="#0E177A"></path><path fill-rule="evenodd" clip-rule="evenodd" d="M274.829 608.801C274.502 608.801 274.237 609.066 274.237 609.393V627.502C274.237 627.829 274.502 628.094 274.829 628.094C275.157 628.094 275.422 627.829 275.422 627.502V609.393C275.422 609.066 275.157 608.801 274.829 608.801Z" fill="#0E177A"></path><path fill-rule="evenodd" clip-rule="evenodd" d="M277.65 610.428C277.322 610.428 277.057 610.693 277.057 611.02V629.129C277.057 629.456 277.322 629.721 277.65 629.721C277.977 629.721 278.242 629.456 278.242 629.129V611.02C278.242 610.693 277.977 610.428 277.65 610.428Z" fill="#0E177A"></path><path fill-rule="evenodd" clip-rule="evenodd" d="M280.462 612.053C280.135 612.053 279.869 612.318 279.869 612.645V630.763C279.869 631.09 280.135 631.356 280.462 631.356C280.789 631.356 281.055 631.09 281.055 630.763V612.645C281.055 612.318 280.789 612.053 280.462 612.053Z" fill="#0E177A"></path><path fill-rule="evenodd" clip-rule="evenodd" d="M283.282 613.691C282.955 613.691 282.69 613.957 282.69 614.284V632.392C282.69 632.72 282.955 632.985 283.282 632.985C283.61 632.985 283.875 632.72 283.875 632.392V614.284C283.875 613.957 283.61 613.691 283.282 613.691Z" fill="#0E177A"></path><path fill-rule="evenodd" clip-rule="evenodd" d="M286.095 615.312C285.768 615.312 285.502 615.578 285.502 615.905V634.023C285.502 634.35 285.768 634.615 286.095 634.615C286.422 634.615 286.688 634.35 286.688 634.023V615.905C286.688 615.578 286.422 615.312 286.095 615.312Z" fill="#0E177A"></path><path d="M161.73 557.379V560.322L164.188 561.827L164.178 558.752L161.73 557.379Z" fill="#0E177A"></path><path d="M171.074 562.723V565.675L173.531 567.17L173.522 564.096L171.074 562.723Z" fill="#0E177A"></path><path d="M180.443 568.078V571.021L182.891 572.526L182.881 569.452L180.443 568.078Z" fill="#0E177A"></path><path d="M161.714 567.752V570.695L164.172 572.19L164.163 569.125L161.714 567.752Z" fill="#0E177A"></path><path d="M171.074 573.096V576.048L173.531 577.543L173.522 574.469L171.074 573.096Z" fill="#0E177A"></path><path d="M180.435 578.449V581.393L182.883 582.888L182.873 579.823L180.435 578.449Z" fill="#0E177A"></path><path d="M183.352 512.918L188.203 510.306L180.74 506.574L175.888 508.813L183.352 512.918Z" fill="#D9F0FF"></path><path d="M188.323 510.352L189.688 524.284L183.95 527.526L177.952 524.284L170.626 528.423L175.709 508.801L183.408 512.921L188.323 510.352Z" fill="#0E177A"></path><path d="M257.105 576.76L257.18 602.465L240.436 611.295V586.384L257.105 576.76Z" fill="#D73F3C"></path><path d="M240.438 611.294L207.164 591.111L207.108 567.135L240.438 586.383V611.294Z" fill="#F07C78"></path><path d="M240.44 586.384L257.109 576.76L223.78 557.512L207.111 567.136L240.44 586.384Z" fill="#FFDFDE"></path><g style="mix-blend-mode:darken"><path fill-rule="evenodd" clip-rule="evenodd" d="M254.829 581.641C254.502 581.641 254.237 581.906 254.237 582.233V600.585C254.237 600.912 254.502 601.177 254.829 601.177C255.157 601.177 255.422 600.912 255.422 600.585V582.233C255.422 581.906 255.157 581.641 254.829 581.641Z" fill="#B33532"></path><path fill-rule="evenodd" clip-rule="evenodd" d="M251.931 583.285C251.604 583.285 251.338 583.55 251.338 583.878V602.238C251.338 602.566 251.604 602.831 251.931 602.831C252.258 602.831 252.523 602.566 252.523 602.238V583.878C252.523 583.55 252.258 583.285 251.931 583.285Z" fill="#B33532"></path><path fill-rule="evenodd" clip-rule="evenodd" d="M249.048 584.939C248.721 584.939 248.455 585.205 248.455 585.532V603.883C248.455 604.211 248.721 604.476 249.048 604.476C249.375 604.476 249.641 604.211 249.641 603.883V585.532C249.641 585.205 249.375 584.939 249.048 584.939Z" fill="#B33532"></path><path fill-rule="evenodd" clip-rule="evenodd" d="M246.157 586.584C245.83 586.584 245.565 586.849 245.565 587.177V605.528C245.565 605.855 245.83 606.12 246.157 606.12C246.485 606.12 246.75 605.855 246.75 605.528V587.177C246.75 586.849 246.485 586.584 246.157 586.584Z" fill="#B33532"></path><path fill-rule="evenodd" clip-rule="evenodd" d="M243.259 588.229C242.932 588.229 242.666 588.494 242.666 588.821V607.182C242.666 607.509 242.932 607.774 243.259 607.774C243.586 607.774 243.852 607.509 243.852 607.182V588.821C243.852 588.494 243.586 588.229 243.259 588.229Z" fill="#B33532"></path></g><path fill-rule="evenodd" clip-rule="evenodd" d="M211.087 572.152C210.76 572.152 210.494 572.418 210.494 572.745V590.853C210.494 591.181 210.76 591.446 211.087 591.446C211.414 591.446 211.68 591.181 211.68 590.853V572.745C211.68 572.418 211.414 572.152 211.087 572.152Z" fill="#B33532"></path><path fill-rule="evenodd" clip-rule="evenodd" d="M213.907 573.777C213.58 573.777 213.315 574.043 213.315 574.37V592.478C213.315 592.806 213.58 593.071 213.907 593.071C214.235 593.071 214.5 592.806 214.5 592.478V574.37C214.5 574.043 214.235 573.777 213.907 573.777Z" fill="#B33532"></path><path fill-rule="evenodd" clip-rule="evenodd" d="M216.728 575.404C216.4 575.404 216.135 575.67 216.135 575.997V594.115C216.135 594.442 216.4 594.707 216.728 594.707C217.055 594.707 217.32 594.442 217.32 594.115V575.997C217.32 575.67 217.055 575.404 216.728 575.404Z" fill="#B33532"></path><path fill-rule="evenodd" clip-rule="evenodd" d="M219.548 577.039C219.221 577.039 218.955 577.304 218.955 577.632V595.74C218.955 596.067 219.221 596.333 219.548 596.333C219.875 596.333 220.141 596.067 220.141 595.74V577.632C220.141 577.304 219.875 577.039 219.548 577.039Z" fill="#B33532"></path><path fill-rule="evenodd" clip-rule="evenodd" d="M222.361 578.666C222.033 578.666 221.768 578.931 221.768 579.259V597.376C221.768 597.704 222.033 597.969 222.361 597.969C222.688 597.969 222.953 597.704 222.953 597.376V579.259C222.953 578.931 222.688 578.666 222.361 578.666Z" fill="#B33532"></path><path fill-rule="evenodd" clip-rule="evenodd" d="M225.173 580.301C224.846 580.301 224.58 580.566 224.58 580.893V599.002C224.58 599.329 224.846 599.594 225.173 599.594C225.5 599.594 225.766 599.329 225.766 599.002V580.893C225.766 580.566 225.5 580.301 225.173 580.301Z" fill="#B33532"></path><path fill-rule="evenodd" clip-rule="evenodd" d="M227.993 581.926C227.666 581.926 227.401 582.191 227.401 582.518V600.627C227.401 600.954 227.666 601.219 227.993 601.219C228.321 601.219 228.586 600.954 228.586 600.627V582.518C228.586 582.191 228.321 581.926 227.993 581.926Z" fill="#B33532"></path><path fill-rule="evenodd" clip-rule="evenodd" d="M230.806 583.551C230.479 583.551 230.213 583.816 230.213 584.143V602.261C230.213 602.588 230.479 602.854 230.806 602.854C231.133 602.854 231.398 602.588 231.398 602.261V584.143C231.398 583.816 231.133 583.551 230.806 583.551Z" fill="#B33532"></path><path fill-rule="evenodd" clip-rule="evenodd" d="M233.626 585.188C233.299 585.188 233.034 585.453 233.034 585.78V603.888C233.034 604.216 233.299 604.481 233.626 604.481C233.953 604.481 234.219 604.216 234.219 603.888V585.78C234.219 585.453 233.953 585.188 233.626 585.188Z" fill="#B33532"></path><path fill-rule="evenodd" clip-rule="evenodd" d="M236.439 586.812C236.111 586.812 235.846 587.078 235.846 587.405V605.523C235.846 605.85 236.111 606.115 236.439 606.115C236.766 606.115 237.031 605.85 237.031 605.523V587.405C237.031 587.078 236.766 586.812 236.439 586.812Z" fill="#B33532"></path><path d="M619.75 542.855L630.797 550.307L631.434 541.27" fill="#88D1F5"></path><path d="M635.854 546.03C636.053 543.19 634.458 540.764 632.292 540.612C630.125 540.46 628.208 542.64 628.009 545.48C627.81 548.321 629.405 550.746 631.571 550.898C633.737 551.05 635.655 548.87 635.854 546.03Z" fill="#0D97F2"></path><path d="M668.633 525.916L676.534 531.071L679.493 521.434L673.563 517.402" fill="#8CD1FF"></path><path d="M681.909 526.43C682.108 523.59 680.513 521.164 678.346 521.012C676.18 520.861 674.263 523.04 674.063 525.88C673.864 528.721 675.459 531.146 677.626 531.298C679.792 531.45 681.71 529.27 681.909 526.43Z" fill="#0D97F2"></path><path d="M597.617 486.746L602.011 480.018L603.272 481.428C604.583 482.901 605.12 484.911 604.733 486.833L602.785 496.37L600.838 495.409L597.617 486.746Z" fill="#0D97F2"></path><path d="M581.281 460.656L581.781 503.509L600.48 522.995L682.616 571.552C682.616 571.552 698.032 579.03 705.322 573.138C705.322 573.138 711.725 568.931 705.621 561.079C699.517 553.24 693.7 547.149 693.7 547.149L666.501 531.733L682.304 499.665C682.304 499.665 685.524 490.665 677.261 485.322L642.983 518.851L600.929 495.133L591.043 466.286L581.281 460.656Z" fill="#D9F0FF"></path><path d="M702.225 574.811L684.712 552.092L581.805 494.035L581.955 504.683L583.103 505.357C582.691 505.12 582.304 504.895 581.955 504.695V504.845L600.829 523.894L682.615 571.565C682.627 571.553 693.825 577.17 702.225 574.811Z" fill="#8CD1FF"></path><path d="M579.516 503.246C579.591 503.296 580.439 503.795 581.95 504.694V504.682L579.516 503.246Z" fill="#2A2F6F"></path><path d="M582.101 500.301C582.101 500.301 565.062 503.297 559.82 504.844C559.82 504.844 559.707 506.205 559.72 506.193C559.757 506.18 560.531 506.729 561.605 507.241C565.661 509.188 571.454 510.524 574.562 510.611L595.582 510.998L595.795 507.89L582.101 500.301Z" fill="#0D97F2"></path><path d="M633.172 522.283L559.25 541.032C559.25 541.032 565.454 546.912 572.719 547.661L656.777 533.518L655.092 525.042L643.009 524.855L633.172 522.283Z" fill="#D9F0FF"></path><path d="M582.252 498.18C582.252 498.18 559.721 504.883 559.821 504.833C559.858 504.82 560.645 505.182 561.718 505.707C565.775 507.654 570.231 508.615 574.725 508.49L595.808 507.891L582.252 498.18Z" fill="#C4E6F9"></path><path d="M648.211 537.336L662.254 544.801V559.692L648.378 551.569L648.211 537.336Z" fill="#8CD1FF"></path><path d="M568.812 546.786C568.812 546.786 572.845 548.696 576.789 548.721L652.634 537.936L652.983 534.191L568.812 546.786Z" fill="#0D97F2"></path><path d="M689.703 558.559C689.703 558.559 696.344 556.699 699.003 553.066L706.542 562.254C706.542 562.254 707.254 568.795 699.09 570.767L689.703 558.559Z" fill="#0D97F2"></path><path d="M666.154 552.152C667.119 552.152 667.901 550.967 667.901 549.506C667.901 548.044 667.119 546.859 666.154 546.859C665.189 546.859 664.406 548.044 664.406 549.506C664.406 550.967 665.189 552.152 666.154 552.152Z" fill="#0E177A"></path><path d="M672.154 555.127C673.119 555.127 673.901 553.942 673.901 552.48C673.901 551.019 673.119 549.834 672.154 549.834C671.189 549.834 670.406 551.019 670.406 552.48C670.406 553.942 671.189 555.127 672.154 555.127Z" fill="#0E177A"></path><path d="M618.115 525.281C619.08 525.281 619.862 524.096 619.862 522.635C619.862 521.173 619.08 519.988 618.115 519.988C617.149 519.988 616.367 521.173 616.367 522.635C616.367 524.096 617.149 525.281 618.115 525.281Z" fill="#0E177A"></path><path d="M610.88 520.785C611.845 520.785 612.628 519.6 612.628 518.139C612.628 516.677 611.845 515.492 610.88 515.492C609.915 515.492 609.133 516.677 609.133 518.139C609.133 519.6 609.915 520.785 610.88 520.785Z" fill="#0E177A"></path><path d="M603.623 517.24C604.588 517.24 605.37 516.055 605.37 514.594C605.37 513.132 604.588 511.947 603.623 511.947C602.658 511.947 601.875 513.132 601.875 514.594C601.875 516.055 602.658 517.24 603.623 517.24Z" fill="#0E177A"></path><path d="M676.22 551.168L689.639 558.595L699.113 570.753L675.82 557.759" fill="#0E177A"></path><path d="M794.773 487.898C794.513 485.71 795.692 483.771 797.407 483.568C799.122 483.364 800.722 484.972 800.982 487.16C801.242 489.348 800.063 491.286 798.348 491.49C796.633 491.694 795.033 490.086 794.773 487.898Z" fill="#080E49"></path><path d="M796.803 487.615C796.714 486.864 797.118 486.198 797.706 486.128C798.294 486.058 798.843 486.611 798.932 487.362C799.021 488.114 798.617 488.779 798.029 488.849C797.442 488.919 796.893 488.367 796.803 487.615Z" fill="white"></path><path d="M827.495 485.84C827.31 486.831 826.681 487.524 826.093 487.403C825.497 487.282 825.142 486.372 825.311 485.364C825.489 484.341 826.133 483.608 826.746 483.753C827.35 483.898 827.681 484.833 827.495 485.84Z" fill="#F59B08"></path><path d="M828.039 485.949C827.853 486.941 827.225 487.634 826.636 487.513C826.04 487.392 825.685 486.481 825.855 485.474C826.032 484.45 826.677 483.717 827.289 483.862C827.902 484.007 828.232 484.942 828.039 485.949Z" fill="#ECAA5F"></path><path d="M747.312 459.587C747.052 457.4 748.231 455.461 749.946 455.257C751.661 455.053 753.262 456.662 753.521 458.849C753.781 461.037 752.602 462.976 750.887 463.18C749.172 463.383 747.572 461.775 747.312 459.587Z" fill="#080E49"></path><path d="M749.35 459.295C749.261 458.544 749.665 457.878 750.253 457.808C750.841 457.738 751.39 458.291 751.479 459.042C751.568 459.793 751.164 460.459 750.576 460.529C749.988 460.599 749.44 460.046 749.35 459.295Z" fill="white"></path><path d="M805.738 442.63L837.055 423.555V473.559L805.738 491.506V442.63Z" fill="#D73F3C"></path><path fill-rule="evenodd" clip-rule="evenodd" d="M832.71 433.385C833.36 433.385 833.888 433.912 833.888 434.563V468.585C833.888 469.235 833.36 469.763 832.71 469.763C832.059 469.763 831.531 469.235 831.531 468.585V434.563C831.531 433.912 832.059 433.385 832.71 433.385Z" fill="#AD1C28"></path><path fill-rule="evenodd" clip-rule="evenodd" d="M827.35 436.438C828.001 436.438 828.529 436.965 828.529 437.616V471.637C828.529 472.288 828.001 472.816 827.35 472.816C826.699 472.816 826.172 472.288 826.172 471.637V437.616C826.172 436.965 826.699 436.438 827.35 436.438Z" fill="#AD1C28"></path><path fill-rule="evenodd" clip-rule="evenodd" d="M821.999 439.492C822.649 439.492 823.177 440.02 823.177 440.671V474.692C823.177 475.343 822.649 475.87 821.999 475.87C821.348 475.87 820.82 475.343 820.82 474.692V440.671C820.82 440.02 821.348 439.492 821.999 439.492Z" fill="#AD1C28"></path><path fill-rule="evenodd" clip-rule="evenodd" d="M816.631 442.547C817.282 442.547 817.81 443.074 817.81 443.725V477.747C817.81 478.397 817.282 478.925 816.631 478.925C815.981 478.925 815.453 478.397 815.453 477.747V443.725C815.453 443.074 815.981 442.547 816.631 442.547Z" fill="#AD1C28"></path><path fill-rule="evenodd" clip-rule="evenodd" d="M811.28 445.602C811.931 445.602 812.458 446.129 812.458 446.78V480.801C812.458 481.452 811.931 481.98 811.28 481.98C810.629 481.98 810.102 481.452 810.102 480.801V446.78C810.102 446.129 810.629 445.602 811.28 445.602Z" fill="#AD1C28"></path><path d="M805.742 442.629V491.506L743.359 454.967L743.46 406.799L805.742 442.629Z" fill="#F07C78"></path><path d="M758.205 415.642L805.736 442.63L837.062 423.612L776.208 388L743.414 406.814L758.205 415.642Z" fill="#FFDFDE"></path><path d="M848.266 464.623V477.38L823.106 493.296V480.321" fill="#449DF8"></path><path d="M819.018 467.123L809.466 461.68L834.845 446.098L843.797 451.209" fill="#F2FAFF"></path><path d="M809.454 462.496V485.818L823.242 493.312L823.145 480.451L818.979 467.105L809.454 461.674V462.496Z" fill="#8CD1FF"></path><path d="M818.986 467.104L823.115 480.332L848.344 464.638L843.815 451.188L818.986 467.104Z" fill="#D9F0FF"></path><path d="M842.244 454.347L843.493 453.549L846.797 463.743L823.676 477.975L823.66 477.919L823.177 476.694L845.169 463.356L842.244 454.347Z" fill="#0E177A"></path><path d="M842.239 454.348L845.164 463.357L823.172 476.695L820.625 468.241L842.239 454.348Z" fill="#0E177A"></path><path d="M845.48 473.865C845.294 474.857 844.666 475.55 844.078 475.429C843.481 475.308 843.127 474.397 843.296 473.39C843.473 472.366 844.118 471.633 844.73 471.778C845.335 471.923 845.665 472.866 845.48 473.865Z" fill="#080E49"></path><path d="M846.034 473.975C845.849 474.966 845.221 475.659 844.632 475.538C844.036 475.417 843.681 474.507 843.851 473.499C844.028 472.476 844.673 471.742 845.285 471.887C845.889 472.033 846.22 472.967 846.034 473.975Z" fill="#0E177A"></path><path d="M827.956 483.695C827.771 484.687 827.142 485.38 826.554 485.259C825.958 485.138 825.603 484.227 825.772 483.22C825.95 482.196 826.594 481.463 827.207 481.608C827.811 481.753 828.142 482.696 827.956 483.695Z" fill="#080E49"></path><path d="M828.511 483.805C828.326 484.796 827.697 485.489 827.109 485.368C826.512 485.247 826.158 484.337 826.327 483.329C826.504 482.306 827.149 481.572 827.762 481.718C828.366 481.863 828.696 482.797 828.511 483.805Z" fill="#0E177A"></path><path d="M849.727 476.018L823.745 492.409L808.168 484.101V487.066L823.745 495.564L849.727 478.435V476.018Z" fill="#080E49"></path><path d="M835.734 486.631L841.383 482.932V485.607L835.734 489.201V486.631Z" fill="#D73F3C"></path><path d="M849.727 476.019L848.34 475.02L823.246 490.976L809.457 483.352L808.168 484.086L823.181 492.765L849.727 476.019Z" fill="#0E177A"></path><path d="M810.916 474.107L811.206 464.549L811.996 465L811.738 473.526L817.766 476.855L820.667 478.458L821.086 479.732L817.629 477.814L810.916 474.107Z" fill="#0E177A"></path><path d="M811.993 465L817.183 467.949L820.664 478.458L811.735 473.526L811.993 465Z" fill="#0E177A"></path><path opacity="0.5" d="M846.797 463.743L842.832 460.568L838.247 456.885L843.493 453.549L846.797 463.743Z" fill="#27378D"></path><path fill-rule="evenodd" clip-rule="evenodd" d="M749.025 417.314C748.374 417.314 747.846 417.842 747.846 418.493V452.514C747.846 453.165 748.374 453.693 749.025 453.693C749.676 453.693 750.203 453.165 750.203 452.514V418.493C750.203 417.842 749.676 417.314 749.025 417.314Z" fill="#AD1C28"></path><path fill-rule="evenodd" clip-rule="evenodd" d="M754.384 420.367C753.733 420.367 753.206 420.895 753.206 421.546V455.567C753.206 456.218 753.733 456.745 754.384 456.745C755.035 456.745 755.562 456.218 755.562 455.567V421.546C755.562 420.895 755.035 420.367 754.384 420.367Z" fill="#AD1C28"></path><path fill-rule="evenodd" clip-rule="evenodd" d="M759.736 423.422C759.085 423.422 758.557 423.949 758.557 424.6V458.622C758.557 459.272 759.085 459.8 759.736 459.8C760.387 459.8 760.914 459.272 760.914 458.622V424.6C760.914 423.949 760.387 423.422 759.736 423.422Z" fill="#AD1C28"></path><path fill-rule="evenodd" clip-rule="evenodd" d="M765.103 426.477C764.452 426.477 763.925 427.004 763.925 427.655V461.676C763.925 462.327 764.452 462.855 765.103 462.855C765.754 462.855 766.281 462.327 766.281 461.676V427.655C766.281 427.004 765.754 426.477 765.103 426.477Z" fill="#AD1C28"></path><path fill-rule="evenodd" clip-rule="evenodd" d="M770.454 429.531C769.804 429.531 769.276 430.059 769.276 430.71V464.731C769.276 465.382 769.804 465.909 770.454 465.909C771.105 465.909 771.633 465.382 771.633 464.731V430.71C771.633 430.059 771.105 429.531 770.454 429.531Z" fill="#AD1C28"></path><path fill-rule="evenodd" clip-rule="evenodd" d="M776.259 432.59C775.608 432.59 775.081 433.117 775.081 433.768V467.79C775.081 468.44 775.608 468.968 776.259 468.968C776.91 468.968 777.438 468.44 777.438 467.79V433.768C777.438 433.117 776.91 432.59 776.259 432.59Z" fill="#AD1C28"></path><path fill-rule="evenodd" clip-rule="evenodd" d="M781.634 435.645C780.983 435.645 780.456 436.172 780.456 436.823V470.844C780.456 471.495 780.983 472.023 781.634 472.023C782.285 472.023 782.812 471.495 782.812 470.844V436.823C782.812 436.172 782.285 435.645 781.634 435.645Z" fill="#AD1C28"></path><path fill-rule="evenodd" clip-rule="evenodd" d="M786.978 438.699C786.327 438.699 785.8 439.227 785.8 439.878V473.899C785.8 474.55 786.327 475.077 786.978 475.077C787.629 475.077 788.156 474.55 788.156 473.899V439.878C788.156 439.227 787.629 438.699 786.978 438.699Z" fill="#AD1C28"></path><path fill-rule="evenodd" clip-rule="evenodd" d="M792.353 441.754C791.702 441.754 791.175 442.281 791.175 442.932V476.954C791.175 477.604 791.702 478.132 792.353 478.132C793.004 478.132 793.531 477.604 793.531 476.954V442.932C793.531 442.281 793.004 441.754 792.353 441.754Z" fill="#AD1C28"></path><path fill-rule="evenodd" clip-rule="evenodd" d="M797.697 444.809C797.046 444.809 796.518 445.336 796.518 445.987V480.008C796.518 480.659 797.046 481.187 797.697 481.187C798.347 481.187 798.875 480.659 798.875 480.008V445.987C798.875 445.336 798.347 444.809 797.697 444.809Z" fill="#AD1C28"></path><path d="M536.797 312.541L536.663 358.261L566.438 375.294V329.649L536.797 312.541Z" fill="#8CD1FF"></path><path d="M566.439 375.289L625.63 341.119L625.734 295.414L566.439 329.644V375.289Z" fill="#0D97F2"></path><path d="M566.439 329.646L536.799 312.539L596.079 278.309L625.734 295.416L566.439 329.646Z" fill="#D9F0FF"></path><path fill-rule="evenodd" clip-rule="evenodd" d="M540.917 319.344C540.388 319.344 539.959 319.773 539.959 320.302V354.234C539.959 354.763 540.388 355.192 540.917 355.192C541.446 355.192 541.875 354.763 541.875 354.234V320.302C541.875 319.773 541.446 319.344 540.917 319.344Z" fill="#0E177A"></path><path fill-rule="evenodd" clip-rule="evenodd" d="M546.261 322.398C545.732 322.398 545.303 322.827 545.303 323.357V357.274C545.303 357.803 545.732 358.232 546.261 358.232C546.79 358.232 547.219 357.803 547.219 357.274V323.357C547.219 322.827 546.79 322.398 546.261 322.398Z" fill="#0E177A"></path><path fill-rule="evenodd" clip-rule="evenodd" d="M551.597 325.438C551.067 325.438 550.639 325.866 550.639 326.396V360.313C550.639 360.842 551.067 361.271 551.597 361.271C552.126 361.271 552.555 360.842 552.555 360.313V326.396C552.555 325.866 552.126 325.438 551.597 325.438Z" fill="#0E177A"></path><path fill-rule="evenodd" clip-rule="evenodd" d="M556.933 328.477C556.403 328.477 555.974 328.906 555.974 329.435V363.352C555.974 363.881 556.403 364.31 556.933 364.31C557.462 364.31 557.891 363.881 557.891 363.352V329.435C557.891 328.906 557.462 328.477 556.933 328.477Z" fill="#0E177A"></path><path fill-rule="evenodd" clip-rule="evenodd" d="M562.284 331.52C561.755 331.52 561.326 331.948 561.326 332.478V366.395C561.326 366.924 561.755 367.353 562.284 367.353C562.813 367.353 563.242 366.924 563.242 366.395V332.478C563.242 331.948 562.813 331.52 562.284 331.52Z" fill="#0E177A"></path><path fill-rule="evenodd" clip-rule="evenodd" d="M619.518 304.055C618.989 304.055 618.56 304.484 618.56 305.013V338.93C618.56 339.459 618.989 339.888 619.518 339.888C620.048 339.888 620.477 339.459 620.477 338.93V305.013C620.477 304.484 620.048 304.055 619.518 304.055Z" fill="#0E177A"></path><path fill-rule="evenodd" clip-rule="evenodd" d="M614.245 307.111C613.716 307.111 613.287 307.54 613.287 308.069V341.987C613.287 342.516 613.716 342.945 614.245 342.945C614.774 342.945 615.203 342.516 615.203 341.987V308.069C615.203 307.54 614.774 307.111 614.245 307.111Z" fill="#0E177A"></path><path fill-rule="evenodd" clip-rule="evenodd" d="M608.964 310.162C608.435 310.162 608.006 310.591 608.006 311.12V345.037C608.006 345.566 608.435 345.995 608.964 345.995C609.493 345.995 609.922 345.566 609.922 345.037V311.12C609.922 310.591 609.493 310.162 608.964 310.162Z" fill="#0E177A"></path><path fill-rule="evenodd" clip-rule="evenodd" d="M603.69 313.219C603.161 313.219 602.732 313.648 602.732 314.177V348.094C602.732 348.623 603.161 349.052 603.69 349.052C604.219 349.052 604.648 348.623 604.648 348.094V314.177C604.648 313.648 604.219 313.219 603.69 313.219Z" fill="#0E177A"></path><path fill-rule="evenodd" clip-rule="evenodd" d="M598.417 316.258C597.888 316.258 597.459 316.687 597.459 317.216V351.148C597.459 351.677 597.888 352.106 598.417 352.106C598.946 352.106 599.375 351.677 599.375 351.148V317.216C599.375 316.687 598.946 316.258 598.417 316.258Z" fill="#0E177A"></path><path fill-rule="evenodd" clip-rule="evenodd" d="M593.143 319.316C592.614 319.316 592.185 319.745 592.185 320.274V354.192C592.185 354.721 592.614 355.15 593.143 355.15C593.673 355.15 594.102 354.721 594.102 354.192V320.274C594.102 319.745 593.673 319.316 593.143 319.316Z" fill="#0E177A"></path><path fill-rule="evenodd" clip-rule="evenodd" d="M587.862 322.369C587.333 322.369 586.904 322.798 586.904 323.327V357.244C586.904 357.773 587.333 358.202 587.862 358.202C588.391 358.202 588.82 357.773 588.82 357.244V323.327C588.82 322.798 588.391 322.369 587.862 322.369Z" fill="#0E177A"></path><path fill-rule="evenodd" clip-rule="evenodd" d="M582.589 325.422C582.06 325.422 581.631 325.851 581.631 326.38V360.297C581.631 360.826 582.06 361.255 582.589 361.255C583.118 361.255 583.547 360.826 583.547 360.297V326.38C583.547 325.851 583.118 325.422 582.589 325.422Z" fill="#0E177A"></path><path fill-rule="evenodd" clip-rule="evenodd" d="M577.331 328.48C576.802 328.48 576.373 328.909 576.373 329.439V363.356C576.373 363.885 576.802 364.314 577.331 364.314C577.86 364.314 578.289 363.885 578.289 363.356V329.439C578.289 328.909 577.86 328.48 577.331 328.48Z" fill="#0E177A"></path><path fill-rule="evenodd" clip-rule="evenodd" d="M572.058 331.518C571.528 331.518 571.099 331.947 571.099 332.476V366.393C571.099 366.922 571.528 367.351 572.058 367.351C572.587 367.351 573.016 366.922 573.016 366.393V332.476C573.016 331.947 572.587 331.518 572.058 331.518Z" fill="#0E177A"></path><path d="M617.555 404.41L676.648 370.303L676.742 324.689L617.555 358.86V404.41Z" fill="#D73F3C"></path><path d="M617.555 358.861L587.977 341.776L647.149 307.605L676.742 324.691L617.555 358.861Z" fill="#FFDFDE"></path><path d="M587.985 341.775L587.859 387.404L617.562 404.411V358.861L587.985 341.775Z" fill="#F07C78"></path><path fill-rule="evenodd" clip-rule="evenodd" d="M672.163 330.131C671.516 330.131 670.991 330.656 670.991 331.304V369.534C670.991 370.182 671.516 370.707 672.163 370.707C672.811 370.707 673.336 370.182 673.336 369.534V331.304C673.336 330.656 672.811 330.131 672.163 330.131Z" fill="#B33532"></path><path fill-rule="evenodd" clip-rule="evenodd" d="M666.499 333.422C665.852 333.422 665.326 333.947 665.326 334.595V372.825C665.326 373.473 665.852 373.998 666.499 373.998C667.147 373.998 667.672 373.473 667.672 372.825V334.595C667.672 333.947 667.147 333.422 666.499 333.422Z" fill="#B33532"></path><path fill-rule="evenodd" clip-rule="evenodd" d="M660.843 336.713C660.195 336.713 659.67 337.238 659.67 337.886V376.1C659.67 376.748 660.195 377.273 660.843 377.273C661.491 377.273 662.016 376.748 662.016 376.1V337.886C662.016 337.238 661.491 336.713 660.843 336.713Z" fill="#B33532"></path><path fill-rule="evenodd" clip-rule="evenodd" d="M655.202 339.99C654.555 339.99 654.03 340.515 654.03 341.163V379.393C654.03 380.041 654.555 380.566 655.202 380.566C655.85 380.566 656.375 380.041 656.375 379.393V341.163C656.375 340.515 655.85 339.99 655.202 339.99Z" fill="#B33532"></path><path fill-rule="evenodd" clip-rule="evenodd" d="M649.546 343.279C648.898 343.279 648.373 343.804 648.373 344.452V382.682C648.373 383.33 648.898 383.855 649.546 383.855C650.194 383.855 650.719 383.33 650.719 382.682V344.452C650.719 343.804 650.194 343.279 649.546 343.279Z" fill="#B33532"></path><path fill-rule="evenodd" clip-rule="evenodd" d="M643.89 346.574C643.242 346.574 642.717 347.099 642.717 347.747V385.977C642.717 386.625 643.242 387.15 643.89 387.15C644.537 387.15 645.062 386.625 645.062 385.977V347.747C645.062 347.099 644.537 346.574 643.89 346.574Z" fill="#B33532"></path><path fill-rule="evenodd" clip-rule="evenodd" d="M638.226 349.863C637.578 349.863 637.053 350.388 637.053 351.036V389.266C637.053 389.914 637.578 390.439 638.226 390.439C638.873 390.439 639.398 389.914 639.398 389.266V351.036C639.398 350.388 638.873 349.863 638.226 349.863Z" fill="#B33532"></path><path fill-rule="evenodd" clip-rule="evenodd" d="M632.577 353.156C631.93 353.156 631.405 353.681 631.405 354.329V392.559C631.405 393.207 631.93 393.732 632.577 393.732C633.225 393.732 633.75 393.207 633.75 392.559V354.329C633.75 353.681 633.225 353.156 632.577 353.156Z" fill="#B33532"></path><path fill-rule="evenodd" clip-rule="evenodd" d="M626.921 356.447C626.273 356.447 625.748 356.972 625.748 357.62V395.85C625.748 396.498 626.273 397.023 626.921 397.023C627.569 397.023 628.094 396.498 628.094 395.85V357.62C628.094 356.972 627.569 356.447 626.921 356.447Z" fill="#B33532"></path><path fill-rule="evenodd" clip-rule="evenodd" d="M621.265 359.74C620.617 359.74 620.092 360.265 620.092 360.913V399.143C620.092 399.791 620.617 400.316 621.265 400.316C621.912 400.316 622.438 399.791 622.438 399.143V360.913C622.438 360.265 621.912 359.74 621.265 359.74Z" fill="#B33532"></path><path d="M587.985 345.562V382.975L617.562 399.982V362.648L587.985 345.562Z" fill="#B33532"></path><path d="M566.571 328.85L625.664 294.742L625.758 249.129L566.571 283.3V328.85Z" fill="#D73F3C"></path><path d="M566.571 283.301L536.993 266.216L596.164 232.045L625.758 249.13L566.571 283.301Z" fill="#FFDFDE"></path><path d="M537 266.215L536.875 311.844L566.578 328.851V283.3L537 266.215Z" fill="#F07C78"></path><path fill-rule="evenodd" clip-rule="evenodd" d="M541.163 272.77C540.516 272.77 539.991 273.295 539.991 273.942V307.799C539.991 308.447 540.516 308.972 541.163 308.972C541.811 308.972 542.336 308.447 542.336 307.799V273.942C542.336 273.295 541.811 272.77 541.163 272.77Z" fill="#B33532"></path><path fill-rule="evenodd" clip-rule="evenodd" d="M546.491 275.811C545.844 275.811 545.319 276.336 545.319 276.983V310.84C545.319 311.488 545.844 312.013 546.491 312.013C547.139 312.013 547.664 311.488 547.664 310.84V276.983C547.664 276.336 547.139 275.811 546.491 275.811Z" fill="#B33532"></path><path fill-rule="evenodd" clip-rule="evenodd" d="M551.827 278.85C551.18 278.85 550.655 279.375 550.655 280.022V313.864C550.655 314.511 551.18 315.036 551.827 315.036C552.475 315.036 553 314.511 553 313.864V280.022C553 279.375 552.475 278.85 551.827 278.85Z" fill="#B33532"></path><path fill-rule="evenodd" clip-rule="evenodd" d="M557.155 281.879C556.508 281.879 555.983 282.404 555.983 283.052V316.909C555.983 317.556 556.508 318.081 557.155 318.081C557.803 318.081 558.328 317.556 558.328 316.909V283.052C558.328 282.404 557.803 281.879 557.155 281.879Z" fill="#B33532"></path><path fill-rule="evenodd" clip-rule="evenodd" d="M562.484 284.916C561.836 284.916 561.311 285.441 561.311 286.089V319.946C561.311 320.594 561.836 321.119 562.484 321.119C563.131 321.119 563.656 320.594 563.656 319.946V286.089C563.656 285.441 563.131 284.916 562.484 284.916Z" fill="#B33532"></path><path fill-rule="evenodd" clip-rule="evenodd" d="M621.179 254.57C620.531 254.57 620.006 255.095 620.006 255.743V293.973C620.006 294.621 620.531 295.146 621.179 295.146C621.827 295.146 622.352 294.621 622.352 293.973V255.743C622.352 255.095 621.827 254.57 621.179 254.57Z" fill="#B33532"></path><path fill-rule="evenodd" clip-rule="evenodd" d="M615.515 257.861C614.867 257.861 614.342 258.386 614.342 259.034V297.264C614.342 297.912 614.867 298.437 615.515 298.437C616.162 298.437 616.688 297.912 616.688 297.264V259.034C616.688 258.386 616.162 257.861 615.515 257.861Z" fill="#B33532"></path><path fill-rule="evenodd" clip-rule="evenodd" d="M609.859 261.152C609.211 261.152 608.686 261.677 608.686 262.325V300.54C608.686 301.187 609.211 301.712 609.859 301.712C610.506 301.712 611.031 301.187 611.031 300.54V262.325C611.031 261.677 610.506 261.152 609.859 261.152Z" fill="#B33532"></path><path fill-rule="evenodd" clip-rule="evenodd" d="M604.218 264.43C603.57 264.43 603.045 264.955 603.045 265.602V303.833C603.045 304.48 603.57 305.005 604.218 305.005C604.866 305.005 605.391 304.48 605.391 303.833V265.602C605.391 264.955 604.866 264.43 604.218 264.43Z" fill="#B33532"></path><path fill-rule="evenodd" clip-rule="evenodd" d="M598.562 267.719C597.914 267.719 597.389 268.244 597.389 268.891V307.122C597.389 307.769 597.914 308.295 598.562 308.295C599.209 308.295 599.734 307.769 599.734 307.122V268.891C599.734 268.244 599.209 267.719 598.562 267.719Z" fill="#B33532"></path><path fill-rule="evenodd" clip-rule="evenodd" d="M592.905 271.012C592.258 271.012 591.733 271.537 591.733 272.184V310.415C591.733 311.062 592.258 311.587 592.905 311.587C593.553 311.587 594.078 311.062 594.078 310.415V272.184C594.078 271.537 593.553 271.012 592.905 271.012Z" fill="#B33532"></path><path fill-rule="evenodd" clip-rule="evenodd" d="M587.241 274.303C586.594 274.303 586.069 274.828 586.069 275.475V313.706C586.069 314.353 586.594 314.878 587.241 314.878C587.889 314.878 588.414 314.353 588.414 313.706V275.475C588.414 274.828 587.889 274.303 587.241 274.303Z" fill="#B33532"></path><path fill-rule="evenodd" clip-rule="evenodd" d="M581.593 277.596C580.945 277.596 580.42 278.121 580.42 278.768V316.999C580.42 317.646 580.945 318.171 581.593 318.171C582.241 318.171 582.766 317.646 582.766 316.999V278.768C582.766 278.121 582.241 277.596 581.593 277.596Z" fill="#B33532"></path><path fill-rule="evenodd" clip-rule="evenodd" d="M575.937 280.887C575.289 280.887 574.764 281.412 574.764 282.059V320.29C574.764 320.937 575.289 321.462 575.937 321.462C576.584 321.462 577.109 320.937 577.109 320.29V282.059C577.109 281.412 576.584 280.887 575.937 280.887Z" fill="#B33532"></path><path fill-rule="evenodd" clip-rule="evenodd" d="M570.28 284.18C569.633 284.18 569.108 284.705 569.108 285.352V323.583C569.108 324.23 569.633 324.755 570.28 324.755C570.928 324.755 571.453 324.23 571.453 323.583V285.352C571.453 284.705 570.928 284.18 570.28 284.18Z" fill="#B33532"></path><path d="M587.816 295.307L587.676 340.569L617.156 357.439V312.255L587.816 295.307Z" fill="#8CD1FF"></path><path d="M617.163 357.438L675.782 323.604L675.875 278.357L617.163 312.254V357.438Z" fill="#0D97F2"></path><path fill-rule="evenodd" clip-rule="evenodd" d="M671.985 284.123C671.433 284.123 670.985 284.571 670.985 285.123V320.512C670.985 321.064 671.433 321.511 671.985 321.511C672.537 321.511 672.984 321.064 672.984 320.512V285.123C672.984 284.571 672.537 284.123 671.985 284.123Z" fill="#0E177A"></path><path fill-rule="evenodd" clip-rule="evenodd" d="M666.485 287.312C665.933 287.312 665.485 287.76 665.485 288.312V323.701C665.485 324.253 665.933 324.701 666.485 324.701C667.037 324.701 667.484 324.253 667.484 323.701V288.312C667.484 287.76 667.037 287.312 666.485 287.312Z" fill="#0E177A"></path><path fill-rule="evenodd" clip-rule="evenodd" d="M660.977 290.494C660.425 290.494 659.977 290.942 659.977 291.494V326.883C659.977 327.435 660.425 327.882 660.977 327.882C661.529 327.882 661.977 327.435 661.977 326.883V291.494C661.977 290.942 661.529 290.494 660.977 290.494Z" fill="#0E177A"></path><path fill-rule="evenodd" clip-rule="evenodd" d="M655.469 293.686C654.917 293.686 654.469 294.133 654.469 294.685V330.074C654.469 330.626 654.917 331.074 655.469 331.074C656.021 331.074 656.469 330.626 656.469 330.074V294.685C656.469 294.133 656.021 293.686 655.469 293.686Z" fill="#0E177A"></path><path fill-rule="evenodd" clip-rule="evenodd" d="M649.969 296.855C649.417 296.855 648.969 297.303 648.969 297.855V333.259C648.969 333.812 649.417 334.259 649.969 334.259C650.521 334.259 650.969 333.812 650.969 333.259V297.855C650.969 297.303 650.521 296.855 649.969 296.855Z" fill="#0E177A"></path><path fill-rule="evenodd" clip-rule="evenodd" d="M644.469 300.047C643.917 300.047 643.469 300.494 643.469 301.047V336.435C643.469 336.987 643.917 337.435 644.469 337.435C645.021 337.435 645.469 336.987 645.469 336.435V301.047C645.469 300.494 645.021 300.047 644.469 300.047Z" fill="#0E177A"></path><path fill-rule="evenodd" clip-rule="evenodd" d="M638.953 303.232C638.401 303.232 637.954 303.68 637.954 304.232V339.621C637.954 340.173 638.401 340.621 638.953 340.621C639.506 340.621 639.953 340.173 639.953 339.621V304.232C639.953 303.68 639.506 303.232 638.953 303.232Z" fill="#0E177A"></path><path fill-rule="evenodd" clip-rule="evenodd" d="M633.453 306.418C632.901 306.418 632.454 306.866 632.454 307.418V342.806C632.454 343.359 632.901 343.806 633.453 343.806C634.006 343.806 634.453 343.359 634.453 342.806V307.418C634.453 306.866 634.006 306.418 633.453 306.418Z" fill="#0E177A"></path><path fill-rule="evenodd" clip-rule="evenodd" d="M627.969 309.609C627.417 309.609 626.969 310.057 626.969 310.609V345.998C626.969 346.55 627.417 346.998 627.969 346.998C628.521 346.998 628.969 346.55 628.969 345.998V310.609C628.969 310.057 628.521 309.609 627.969 309.609Z" fill="#0E177A"></path><path fill-rule="evenodd" clip-rule="evenodd" d="M622.469 312.777C621.917 312.777 621.469 313.225 621.469 313.777V349.166C621.469 349.718 621.917 350.165 622.469 350.165C623.021 350.165 623.469 349.718 623.469 349.166V313.777C623.469 313.225 623.021 312.777 622.469 312.777Z" fill="#0E177A"></path><path d="M617.163 312.252L587.823 295.304L646.519 261.424L675.875 278.356L617.163 312.252Z" fill="#D9F0FF"></path><path fill-rule="evenodd" clip-rule="evenodd" d="M591.837 300.654C591.313 300.657 590.891 301.083 590.893 301.607L591.064 338.022C591.066 338.546 591.493 338.969 592.017 338.966C592.541 338.964 592.963 338.537 592.961 338.013L592.79 301.598C592.787 301.074 592.361 300.652 591.837 300.654Z" fill="#0E177A"></path><path fill-rule="evenodd" clip-rule="evenodd" d="M597.126 303.67C596.602 303.672 596.18 304.099 596.182 304.623L596.353 341.038C596.356 341.562 596.782 341.984 597.306 341.982C597.83 341.979 598.252 341.553 598.25 341.029L598.079 304.614C598.076 304.09 597.65 303.667 597.126 303.67Z" fill="#0E177A"></path><path fill-rule="evenodd" clip-rule="evenodd" d="M602.407 306.686C601.883 306.688 601.461 307.115 601.463 307.638L601.634 344.053C601.637 344.577 602.063 345 602.587 344.997C603.111 344.995 603.534 344.568 603.531 344.045L603.36 307.63C603.358 307.106 602.931 306.683 602.407 306.686Z" fill="#0E177A"></path><path fill-rule="evenodd" clip-rule="evenodd" d="M607.712 309.688C607.188 309.69 606.766 310.116 606.768 310.64L606.923 347.071C606.926 347.594 607.352 348.017 607.876 348.015C608.4 348.013 608.823 347.586 608.82 347.062L608.665 310.632C608.663 310.108 608.236 309.685 607.712 309.688Z" fill="#0E177A"></path><path fill-rule="evenodd" clip-rule="evenodd" d="M613.001 312.703C612.478 312.705 612.055 313.132 612.057 313.656L612.212 350.086C612.215 350.61 612.641 351.033 613.165 351.031C613.689 351.028 614.112 350.602 614.109 350.078L613.954 313.648C613.952 313.124 613.525 312.701 613.001 312.703Z" fill="#0E177A"></path><mask id="mask0_309_653" style="mask-type:alpha" maskUnits="userSpaceOnUse" x="587" y="345" width="31" height="55"><path d="M587.985 345.562V382.975L617.562 399.982V362.648L587.985 345.562Z" fill="#B33532"></path></mask><g mask="url(#mask0_309_653)"><path d="M612.35 357.744L612.326 366.444L604.547 370.965L604.571 362.265L612.35 357.744Z" fill="#0D97F2"></path><path d="M610.547 366.673L611.766 365.964L611.767 365.82L610.547 366.529L610.547 366.673Z" fill="#0D97F2"></path><path d="M610.547 366.441L611.766 365.732L611.767 365.588L610.547 366.296L610.547 366.441Z" fill="#0D97F2"></path><path d="M610.547 366.208L611.766 365.5L611.766 365.355L610.547 366.064L610.547 366.208Z" fill="#0D97F2"></path><path d="M604.573 362.265L604.549 370.965L596.719 366.444L596.743 357.744L604.573 362.265Z" fill="#0D97F2"></path><path d="M600.047 368.748L601.222 369.426L601.248 359.961L600.074 359.283L600.047 368.748Z" fill="#F0DAC9"></path><path d="M612.359 357.743L604.58 362.264L596.75 357.743L604.529 353.223L612.359 357.743Z" fill="#D2A57E"></path><path d="M613.171 356.906L613.166 358.607L604.562 363.606L604.567 361.906L613.171 356.906Z" fill="#8CD1FF"></path><path d="M604.571 361.906L604.566 363.606L595.906 358.607L595.911 356.906L604.571 361.906Z" fill="#8CD1FF"></path><path d="M599.641 364.651L601.055 365.467L601.082 356.002L599.668 355.186L599.641 364.651Z" fill="#F0DAC9"></path><path d="M613.17 356.906L604.566 361.906L595.906 356.906L604.51 351.906L613.17 356.906Z" fill="#D9F0FF"></path><path d="M610.07 354.642L608.664 353.83L599.234 359.31L600.64 360.122L610.07 354.642Z" fill="#0E177A"></path><path d="M607.366 364.053L607.342 372.753L599.562 377.274L599.587 368.573L607.366 364.053Z" fill="#8CD1FF"></path><path d="M605.562 372.982L606.782 372.273L606.782 372.129L605.563 372.838L605.562 372.982Z" fill="#8CD1FF"></path><path d="M605.562 372.749L606.782 372.041L606.782 371.896L605.563 372.605L605.562 372.749Z" fill="#8CD1FF"></path><path d="M605.562 372.517L606.782 371.808L606.782 371.664L605.563 372.373L605.562 372.517Z" fill="#8CD1FF"></path><path d="M599.589 368.573L599.564 377.274L591.734 372.753L591.759 364.053L599.589 368.573Z" fill="#0D97F2"></path><path d="M607.359 364.052L599.58 368.573L591.75 364.052L599.529 359.531L607.359 364.052Z" fill="#D2A57E"></path><path d="M608.179 363.215L608.174 364.915L599.57 369.915L599.575 368.215L608.179 363.215Z" fill="#D9F0FF"></path><mask id="mask1_309_653" style="mask-type:alpha" maskUnits="userSpaceOnUse" x="590" y="363" width="10" height="7"><path d="M599.579 368.215L599.574 369.915L590.914 364.915L590.919 363.215L599.579 368.215Z" fill="#8CD1FF"></path></mask><g mask="url(#mask1_309_653)"><path d="M599.579 368.215L599.574 369.915L590.914 364.915L590.919 363.215L599.579 368.215Z" fill="#8CD1FF"></path><path d="M594.719 372.951L596.173 373.768V364.199L594.746 363.486L594.719 372.951Z" fill="#8CD1FF"></path></g><mask id="mask2_309_653" style="mask-type:alpha" maskUnits="userSpaceOnUse" x="590" y="363" width="10" height="7"><path d="M599.579 368.215L599.574 369.915L590.914 364.915L590.919 363.215L599.579 368.215Z" fill="#0D97F2"></path></mask><g mask="url(#mask2_309_653)"><path d="M594.719 372.951L596.173 373.768V364.199L594.746 363.486L594.719 372.951Z" fill="#0E177A"></path></g><path d="M608.186 363.215L599.582 368.215L590.922 363.215L599.526 358.215L608.186 363.215Z" fill="#F2FAFF"></path><mask id="mask3_309_653" style="mask-type:alpha" maskUnits="userSpaceOnUse" x="590" y="358" width="19" height="11"><path d="M608.186 363.221L599.582 368.22L590.922 363.221L599.526 358.221L608.186 363.221Z" fill="#D9F0FF"></path></mask><g mask="url(#mask3_309_653)"><path d="M605.176 360.956L603.756 360.127L594.227 365.724L595.647 366.553L605.176 360.956Z" fill="#0E177A"></path></g><path d="M620.444 370.428L620.42 379.128L612.641 383.649L612.665 374.948L620.444 370.428Z" fill="#0D97F2"></path><path d="M612.667 374.948L612.643 383.649L604.812 379.128L604.837 370.428L612.667 374.948Z" fill="#0D97F2"></path><path d="M608.141 381.432L609.315 382.11L609.342 372.645L608.168 371.967L608.141 381.432Z" fill="#F0DAC9"></path><path d="M620.453 370.427L612.674 374.947L604.844 370.427L612.623 365.906L620.453 370.427Z" fill="#D2A57E"></path><path d="M621.265 369.59L621.26 371.29L612.656 376.29L612.661 374.59L621.265 369.59Z" fill="#8CD1FF"></path><path d="M612.665 374.59L612.66 376.29L604 371.29L604.005 369.59L612.665 374.59Z" fill="#8CD1FF"></path><path d="M607.734 377.334L609.149 378.151L609.176 368.686L607.761 367.869L607.734 377.334Z" fill="#F0DAC9"></path><path d="M621.264 369.59L612.66 374.589L604 369.59L612.604 364.59L621.264 369.59Z" fill="#D9F0FF"></path><path d="M618.164 367.325L616.758 366.514L607.328 371.994L608.734 372.805L618.164 367.325Z" fill="#0E177A"></path><path d="M615.46 376.736L615.435 385.437L607.656 389.957L607.681 381.257L615.46 376.736Z" fill="#8CD1FF"></path><path d="M613.656 385.665L614.876 384.957L614.876 384.812L613.657 385.521L613.656 385.665Z" fill="#8CD1FF"></path><path d="M613.656 385.433L614.876 384.724L614.876 384.58L613.657 385.289L613.656 385.433Z" fill="#8CD1FF"></path><path d="M613.656 385.2L614.876 384.492L614.876 384.348L613.657 385.056L613.656 385.2Z" fill="#8CD1FF"></path><path d="M607.683 381.257L607.658 389.957L599.828 385.437L599.853 376.736L607.683 381.257Z" fill="#0D97F2"></path><path d="M615.461 376.735L607.682 381.256L599.852 376.736L607.631 372.215L615.461 376.735Z" fill="#D2A57E"></path><path d="M616.273 375.898L616.268 377.599L607.664 382.599L607.669 380.898L616.273 375.898Z" fill="#D9F0FF"></path><mask id="mask4_309_653" style="mask-type:alpha" maskUnits="userSpaceOnUse" x="599" y="375" width="9" height="8"><path d="M607.673 380.898L607.668 382.599L599.008 377.599L599.013 375.898L607.673 380.898Z" fill="#8CD1FF"></path></mask><g mask="url(#mask4_309_653)"><path d="M607.673 380.898L607.668 382.599L599.008 377.599L599.013 375.898L607.673 380.898Z" fill="#8CD1FF"></path><path d="M602.812 385.635L604.267 386.452V376.883L602.84 376.17L602.812 385.635Z" fill="#8CD1FF"></path></g><mask id="mask5_309_653" style="mask-type:alpha" maskUnits="userSpaceOnUse" x="599" y="375" width="9" height="8"><path d="M607.673 380.898L607.668 382.599L599.008 377.599L599.013 375.898L607.673 380.898Z" fill="#0D97F2"></path></mask><g mask="url(#mask5_309_653)"><path d="M602.812 385.635L604.267 386.452V376.883L602.84 376.17L602.812 385.635Z" fill="#0E177A"></path></g><path d="M616.279 375.898L607.676 380.898L599.016 375.898L607.619 370.898L616.279 375.898Z" fill="#F2FAFF"></path><mask id="mask6_309_653" style="mask-type:alpha" maskUnits="userSpaceOnUse" x="599" y="370" width="18" height="11"><path d="M616.279 375.904L607.676 380.904L599.016 375.904L607.619 370.904L616.279 375.904Z" fill="#D9F0FF"></path></mask><g mask="url(#mask6_309_653)"><path d="M613.27 373.639L611.85 372.811L602.32 378.407L603.741 379.236L613.27 373.639Z" fill="#0E177A"></path></g></g><path d="M617.85 397.096L632.359 404.674V367.286L617.634 358.861L616.608 359.905L617.85 397.096Z" fill="#D73F3C"></path><path d="M616.614 359.832L631.141 368.095V405.465L616.614 397.886" fill="#F07C78"></path><path d="M631.135 368.097L632.359 367.287V404.676L631.135 405.468V368.097Z" fill="#D73F3C"></path><path d="M573.468 371.976L587.977 381.118V342.166L573.252 333.76L572.226 334.786L573.468 371.976Z" fill="#D73F3C"></path><path d="M572.231 334.715L586.758 342.977V380.366L572.231 372.787" fill="#F07C78"></path><path d="M583.289 397.261L604.279 409.808L605.755 409.52L612.852 397.261L591.084 384.748L583.289 397.261Z" fill="#D73F3C"></path><path d="M581.902 396.901L604.277 409.808L611.719 396.582L591.081 384.74L581.902 396.901Z" fill="#F07C78"></path><path d="M825.147 223.34V247.063L777.656 273.651L777.933 250.88L825.147 223.34Z" fill="#0D97F2"></path><path d="M795.588 206.137L825.15 223.339L776.859 251.344L747.305 232.325L795.588 206.137Z" fill="#C4E6F9"></path><path d="M747.305 232.324V255.888L777.659 273.65L777.935 250.878L747.305 232.324Z" fill="#8CD1FF"></path><path opacity="0.51" d="M825.149 227.918V229.794L777.891 256.374V255.093L825.149 227.918Z" fill="#D9F0FF"></path><path d="M826.633 219.848V227.882L777.938 255.124V248.101L826.633 219.848Z" fill="#0D97F2"></path><path d="M795.943 202L826.632 219.849L776.502 248.931L745.82 229.177L795.943 202Z" fill="#D9F0FF"></path><path opacity="0.51" d="M747.281 236.875L777.922 255.104V256.442L747.281 238.469V236.875Z" fill="#D9F0FF"></path><path d="M808.727 276.478C806.189 275.744 804.11 274.74 802.591 273.752C801.943 273.33 801.325 272.661 801.173 272.079C800.94 271.214 801.136 270.524 801.435 270.015C801.754 269.651 802.111 269.295 802.467 268.975C802.474 268.975 802.474 268.968 802.474 268.968C802.481 268.96 802.481 268.96 802.481 268.96C803.674 267.906 804.903 267.179 804.903 267.179L813.656 262.206L825.827 249.301L826.038 249.17L826.11 249.301V250.61L814.681 262.322C814.681 262.322 812.224 264.802 814.681 266.096C817.131 267.39 820.374 266.314 821.654 265.645C822.926 264.969 833.708 253.416 833.708 253.416L837.431 254.412C837.431 254.412 844.468 253.86 848.743 250.064C850.597 248.414 851.935 246.146 851.935 243.048C851.935 241.071 851.484 239.98 850.888 239.362L850.954 239.297C853.397 241.035 853.651 245.586 854.385 250.348C854.487 250.995 854.56 251.598 854.603 252.173C854.931 256.535 853.68 259.014 851.135 261.348C847.609 264.584 845.435 264.896 842.2 266.983C839.241 268.895 838.07 271.076 833.046 273.635C823.406 278.528 814.776 278.245 808.727 276.478Z" fill="#080E49"></path><path d="M848.574 249.884C848.574 249.884 848.581 249.877 848.581 249.87L848.748 250.059C844.473 253.854 837.435 254.406 837.435 254.406L833.713 253.41C833.713 253.41 822.931 264.963 821.658 265.639C820.379 266.316 817.136 267.384 814.686 266.09C812.229 264.803 814.686 262.317 814.686 262.317L826.115 250.604V249.295L826.042 249.164L826.689 248.772L828.427 244.002C828.834 242.883 830.027 242.265 831.175 242.563L835.414 243.69L836.541 243.995L838.562 244.533C837.304 245.268 836.555 245.842 836.555 245.842L841.012 247.34C840.99 247.492 840.947 247.645 840.889 247.798L837.661 253.578C837.661 253.578 843.826 253.483 847.832 249.63L848.574 249.884Z" fill="#D9F0FF"></path><path d="M847.828 249.636C849.319 248.204 850.511 246.248 850.976 243.587C851.085 242.976 851.122 242.453 851.1 242.002C853.157 243.943 848.81 249.592 848.584 249.876C848.577 249.883 848.577 249.89 848.577 249.89L847.828 249.636Z" fill="#D9F0FF"></path><path d="M851.096 242.002C851.118 242.453 851.082 242.976 850.973 243.587C850.507 246.248 849.315 248.204 847.825 249.636L841.005 247.346C841.201 246.197 840.496 245.048 839.318 244.743L838.555 244.539C840.823 243.216 844.742 241.348 848.871 241.348C849.955 241.348 850.66 241.588 851.096 242.002Z" fill="#080E49"></path><path d="M841.008 247.346L847.828 249.636C843.822 253.497 837.656 253.584 837.656 253.584L840.884 247.804C840.943 247.651 840.986 247.498 841.008 247.346Z" fill="#080E49"></path><path d="M847.43 239.296C848.469 239.296 850.963 239.086 851.094 241.994C850.665 241.587 849.953 241.339 848.869 241.339C844.74 241.339 840.821 243.208 838.552 244.531L836.531 243.993C839.73 241.703 843.911 239.296 847.43 239.296Z" fill="#D9F0FF"></path><path d="M835.406 243.696C841.397 238.825 847.323 238.316 848.886 238.505C849.431 238.57 850.238 238.679 850.885 239.356C851.481 239.974 851.932 241.064 851.932 243.042C851.932 246.146 850.602 248.407 848.74 250.058L848.573 249.869C848.798 249.585 853.146 243.936 851.089 241.995C850.958 239.087 848.464 239.297 847.424 239.297C843.898 239.297 839.718 241.704 836.533 244.001L835.406 243.696Z" fill="#D9F0FF"></path><path d="M839.317 244.743C840.495 245.048 841.2 246.197 841.004 247.345L836.547 245.848C836.547 245.848 837.296 245.273 838.554 244.539L839.317 244.743Z" fill="#D9F0FF"></path><path d="M855.398 254.049C856.547 259.742 855.013 262.73 852.024 265.478C848.36 268.837 846.099 269.164 842.747 271.323C839.672 273.308 838.458 275.577 833.237 278.238C823.502 283.189 814.741 282.985 808.474 281.255L808.234 277.322C814.516 279.125 823.379 279.394 833.237 274.377C838.458 271.723 839.519 269.179 842.747 267.47C845.983 265.762 850.628 263.348 853.384 259.065C855.151 256.325 855.551 255.118 855.376 254.063L855.398 254.049Z" fill="#8CD1FF"></path><path d="M800.299 272.538C800.335 273.185 800.706 273.81 801.557 274.37C803.185 275.431 805.453 276.522 808.224 277.314L808.463 281.248C805.584 280.448 803.236 279.328 801.557 278.23C800.888 277.794 800.648 277.213 800.459 276.616C799.783 274.384 800.052 272.501 800.299 272.538Z" fill="#8CD1FF"></path><path d="M842.747 267.457C839.512 269.166 838.458 271.71 833.237 274.364C823.379 279.381 814.516 279.112 808.234 277.309L808.729 276.48C814.778 278.247 823.415 278.53 833.048 273.63C838.072 271.071 839.25 268.889 842.202 266.977C845.437 264.891 847.611 264.578 851.137 261.343C853.682 259.009 854.933 256.522 854.605 252.167L854.671 252.16C854.998 252.902 855.282 253.447 855.376 254.043C855.558 255.097 855.151 256.312 853.384 259.045C850.621 263.335 845.983 265.749 842.747 267.457Z" fill="#D9F0FF"></path><path d="M801.167 272.08C801.327 272.662 801.937 273.331 802.584 273.753C804.104 274.741 806.183 275.745 808.721 276.479L808.226 277.308C805.456 276.515 803.188 275.425 801.559 274.363C800.709 273.804 800.338 273.178 800.301 272.531C800.243 271.688 800.745 270.808 801.428 270.016C801.13 270.525 800.934 271.215 801.167 272.08Z" fill="#D9F0FF"></path><path d="M802.477 268.982C802.489 268.969 802.489 268.969 802.489 268.969C802.489 268.969 802.477 268.969 802.477 268.982Z" fill="#C4E6F9"></path><path d="M814.484 261.945C816.811 263.937 820.177 265.108 824.263 265.704L814.484 261.945Z" fill="#020203"></path><path d="M814.484 261.945C816.811 263.937 820.177 265.108 824.263 265.704" stroke="#8CD1FF" stroke-width="2.73205" stroke-miterlimit="10" stroke-linecap="round"></path><path d="M817.008 259.139C819 261.051 822.679 262.265 827.143 263.036L817.008 259.139Z" fill="#020203"></path><path d="M817.008 259.139C819 261.051 822.679 262.265 827.143 263.036" stroke="#8CD1FF" stroke-width="2.73205" stroke-miterlimit="10" stroke-linecap="round"></path><path d="M819.531 256.332C821.196 258.164 825.188 259.429 830.015 260.367L819.531 256.332Z" fill="#020203"></path><path d="M819.531 256.332C821.196 258.164 825.188 259.429 830.015 260.367" stroke="#8CD1FF" stroke-width="2.73205" stroke-miterlimit="10" stroke-linecap="round"></path><path d="M822.055 253.52C823.385 255.264 827.689 256.58 832.888 257.685L822.055 253.52Z" fill="#020203"></path><path d="M822.055 253.52C823.385 255.264 827.689 256.58 832.888 257.685" stroke="#8CD1FF" stroke-width="2.73205" stroke-miterlimit="10" stroke-linecap="round"></path><path d="M824.57 250.711C825.566 252.376 830.183 253.735 835.752 255.015L824.57 250.711Z" fill="#020203"></path><path d="M824.57 250.711C825.566 252.376 830.183 253.735 835.752 255.015" stroke="#8CD1FF" stroke-width="2.73205" stroke-miterlimit="10" stroke-linecap="round"></path><path d="M865.281 262.941C866.429 268.634 864.895 271.622 861.907 274.371C858.243 277.73 855.982 278.057 852.63 280.216C849.555 282.201 848.341 284.469 843.12 287.13C833.385 292.081 824.624 291.878 818.357 290.148L818.117 286.214C824.399 288.017 833.262 288.286 843.12 283.27C848.341 280.616 849.402 278.071 852.63 276.363C855.865 274.654 860.511 272.24 863.267 267.958C865.033 265.217 865.433 264.01 865.259 262.956L865.281 262.941Z" fill="#8CD1FF"></path><path d="M865.251 262.941C865.433 263.995 865.026 265.209 863.259 267.943C860.503 272.225 855.858 274.632 852.622 276.348C849.387 278.056 848.333 280.601 843.113 283.255C833.254 288.271 824.391 288.002 818.109 286.199L818.604 285.37C824.653 287.137 833.29 287.421 842.923 282.52C847.947 279.961 849.125 277.78 852.077 275.868C855.312 273.781 857.486 273.469 861.012 270.233C863.557 267.9 864.808 265.413 864.48 261.058L864.546 261.051C864.873 261.807 865.157 262.345 865.251 262.941Z" fill="#D9F0FF"></path><path d="M818.61 285.371C816.072 284.636 813.993 283.633 812.473 282.644C811.826 282.222 811.208 281.554 811.056 280.972C810.823 280.107 811.019 279.416 811.317 278.907C811.637 278.544 811.993 278.187 812.35 277.867C812.357 277.867 812.357 277.86 812.357 277.86C812.364 277.853 812.364 277.853 812.364 277.853C813.557 276.799 814.785 276.072 814.785 276.072L823.539 271.099L835.71 258.194L835.921 258.063L835.993 258.194V259.502L824.564 271.215C824.564 271.215 822.107 273.694 824.564 274.988C827.014 276.283 830.257 275.206 831.536 274.538C832.809 273.861 843.591 262.309 843.591 262.309L847.313 263.305C847.313 263.305 854.351 262.752 858.626 258.957C860.48 257.307 861.818 255.038 861.818 251.941C861.818 249.963 861.367 248.873 860.771 248.255L860.836 248.189C863.279 249.927 863.534 254.478 864.268 259.241C864.37 259.888 864.443 260.491 864.486 261.065C864.813 265.428 863.563 267.907 861.018 270.241C857.492 273.476 855.318 273.789 852.083 275.875C849.124 277.788 847.953 279.969 842.929 282.528C833.296 287.421 824.666 287.137 818.61 285.371Z" fill="#080E49"></path><path d="M858.464 258.767C858.689 258.483 863.037 252.834 860.979 250.893C860.848 247.985 858.355 248.196 857.315 248.196C853.789 248.196 849.608 250.602 846.424 252.9L845.297 252.594C851.288 247.723 857.213 247.214 858.776 247.403C859.322 247.469 860.129 247.578 860.776 248.254C861.372 248.865 861.823 249.955 861.823 251.94C861.823 255.045 860.492 257.306 858.631 258.956L858.464 258.767Z" fill="#D9F0FF"></path><path d="M860.983 250.895C863.041 252.836 858.693 258.485 858.468 258.768C858.46 258.776 858.46 258.783 858.46 258.783L857.719 258.536C859.209 257.103 860.402 255.148 860.867 252.487C860.969 251.869 861.005 251.345 860.983 250.895Z" fill="#D9F0FF"></path><path d="M860.979 250.895C861.001 251.345 860.965 251.869 860.855 252.48C860.39 255.141 859.198 257.096 857.707 258.529L850.888 256.238C851.084 255.09 850.379 253.941 849.201 253.636L848.438 253.432C850.706 252.109 854.625 250.24 858.754 250.24C859.845 250.24 860.55 250.48 860.979 250.895Z" fill="#080E49"></path><path d="M860.977 250.895C860.548 250.488 859.835 250.241 858.752 250.241C854.622 250.241 850.704 252.11 848.435 253.433L846.414 252.895C849.606 250.597 853.786 248.191 857.305 248.191C858.352 248.191 860.846 247.98 860.977 250.895Z" fill="#D9F0FF"></path><path d="M845.297 252.588L846.424 252.893L848.445 253.431C847.187 254.165 846.438 254.74 846.438 254.74L850.895 256.238C850.873 256.39 850.83 256.543 850.771 256.696L847.543 262.476C847.543 262.476 853.709 262.381 857.715 258.528L858.456 258.775C858.456 258.775 858.464 258.768 858.464 258.76L858.631 258.949C854.356 262.745 847.318 263.297 847.318 263.297L843.596 262.301C843.596 262.301 832.813 273.854 831.541 274.53C830.262 275.206 827.019 276.275 824.569 274.981C822.111 273.694 824.569 271.207 824.569 271.207L835.998 259.495V258.186L835.925 258.055L836.572 257.663L838.31 252.893C838.717 251.773 839.909 251.155 841.058 251.454L845.297 252.588Z" fill="#D9F0FF"></path><path d="M850.899 256.238L857.718 258.528C853.712 262.389 847.547 262.476 847.547 262.476L850.775 256.696C850.833 256.544 850.869 256.391 850.899 256.238Z" fill="#080E49"></path><path d="M849.208 253.635C850.385 253.941 851.091 255.089 850.894 256.238L846.438 254.74C846.438 254.74 847.186 254.166 848.444 253.432L849.208 253.635Z" fill="#D9F0FF"></path><path d="M818.611 285.37L818.117 286.199C815.347 285.406 813.078 284.315 811.45 283.254C810.599 282.694 810.228 282.069 810.192 281.422C810.134 280.578 810.636 279.699 811.319 278.906C811.014 279.415 810.825 280.099 811.057 280.971C811.217 281.553 811.828 282.222 812.475 282.643C813.995 283.632 816.081 284.635 818.611 285.37Z" fill="#D9F0FF"></path><path d="M818.113 286.206L818.352 290.14C815.473 289.34 813.125 288.22 811.446 287.122C810.777 286.686 810.537 286.105 810.348 285.508C809.664 283.269 809.933 281.386 810.18 281.422H810.188C810.224 282.069 810.595 282.695 811.446 283.255C813.074 284.323 815.342 285.414 818.113 286.206Z" fill="#8CD1FF"></path><path d="M812.359 277.872C812.372 277.859 812.372 277.859 812.372 277.859L812.359 277.872Z" fill="#C4E6F9"></path><path d="M824.375 270.844C826.702 272.836 830.068 274.006 834.154 274.603L824.375 270.844Z" fill="#020203"></path><path d="M824.375 270.844C826.702 272.836 830.068 274.006 834.154 274.603" stroke="#8CD1FF" stroke-width="2.73205" stroke-miterlimit="10" stroke-linecap="round"></path><path d="M826.891 268.031C828.883 269.943 832.562 271.158 837.026 271.928L826.891 268.031Z" fill="#020203"></path><path d="M826.891 268.031C828.883 269.943 832.562 271.158 837.026 271.928" stroke="#8CD1FF" stroke-width="2.73205" stroke-miterlimit="10" stroke-linecap="round"></path><path d="M829.414 265.225C831.079 267.057 835.07 268.322 839.898 269.26L829.414 265.225Z" fill="#020203"></path><path d="M829.414 265.225C831.079 267.057 835.07 268.322 839.898 269.26" stroke="#8CD1FF" stroke-width="2.73205" stroke-miterlimit="10" stroke-linecap="round"></path><path d="M831.938 262.41C833.268 264.155 837.572 265.471 842.77 266.576L831.938 262.41Z" fill="#020203"></path><path d="M831.938 262.41C833.268 264.155 837.572 265.471 842.77 266.576" stroke="#8CD1FF" stroke-width="2.73205" stroke-miterlimit="10" stroke-linecap="round"></path><path d="M834.453 259.605C835.449 261.27 840.066 262.63 845.635 263.91L834.453 259.605Z" fill="#020203"></path><path d="M834.453 259.605C835.449 261.27 840.066 262.63 845.635 263.91" stroke="#8CD1FF" stroke-width="2.73205" stroke-miterlimit="10" stroke-linecap="round"></path><path d="M745.82 229.176V236.374L777.922 255.108V248.116L745.82 229.176Z" fill="#8CD1FF"></path><path d="M442.786 390.688L472.376 407.906L407.918 445.717L378.328 426.675L442.786 390.688Z" fill="#D9F0FF"></path><path d="M378.328 426.674V478L408.718 495.786L408.998 445.251L378.328 426.674Z" fill="#080E49"></path><path d="M472.377 407.904V459.391L408.719 495.786L408.999 445.251L472.377 407.904Z" fill="#0D97F2"></path><path d="M445.289 423.795L433.805 416.357L425.344 421.884L436.084 429.193L445.289 423.795Z" fill="#0E177A"></path><path d="M436.094 429.13V444.004L445.291 438.758V423.691L436.094 429.13Z" fill="#080E49"></path><path d="M410.901 375.756L425.856 384.457L393.855 403.354L378.328 393.942L410.901 375.756Z" fill="#D9F0FF"></path><path d="M378.328 393.941V419.876L393.691 428.865L393.827 403.33L378.328 393.941Z" fill="#8CD1FF"></path><path d="M425.852 384.457V410.472L393.688 428.866L393.823 403.331L425.852 384.457Z" fill="#0D97F2"></path><path d="M384.016 416.559V423.212L388.526 425.811V419.318L384.016 416.559Z" fill="#080E49"></path><path d="M390.786 394.223L384.141 397.486L388.699 400.269L395.217 396.966L390.786 394.223Z" fill="#0E177A"></path><path d="M384.18 397.492V404.65L388.69 407.409V400.251L384.18 397.492Z" fill="#080E49"></path><path d="M426.948 385.057L441.885 393.667L409.33 412.863L394.375 403.242L426.948 385.057Z" fill="#D9F0FF"></path><path d="M441.907 393.574V419.774L409.734 438.167L409.878 412.632L441.907 393.574Z" fill="#0D97F2"></path><path d="M394.375 403.242V429.177L409.73 438.166L409.874 412.631L394.375 403.242Z" fill="#8CD1FF"></path><path d="M406.044 403.012L399.398 406.275L403.957 409.058L410.475 405.755L406.044 403.012Z" fill="#0E177A"></path><path d="M399.312 425.309V431.962L403.823 434.569V428.076L399.312 425.309Z" fill="#080E49"></path><path d="M399.484 406.25V413.4L403.995 416.167V409.009L399.484 406.25Z" fill="#080E49"></path><path d="M360.811 417.701L379.116 427.298V476.873L360.555 465.397L360.811 417.701Z" fill="#8CD1FF"></path><path d="M409.037 445.588L427.343 455.177V504.751L408.781 493.283L409.037 445.588Z" fill="#8CD1FF"></path><mask id="mask7_309_653" style="mask-type:alpha" maskUnits="userSpaceOnUse" x="299" y="427" width="109" height="117"><path d="M407.125 446.067L376.736 427.674L323.154 459.663L299.562 499.649L385.133 543.634L407.125 493.278V446.067Z" fill="black"></path></mask><g mask="url(#mask7_309_653)"><path d="M419.027 473.186V477.016L362.75 509.173V505.23L419.027 473.186Z" fill="#080E49"></path><path d="M362.754 510.292L341.266 496.225V492.307L362.754 506.35V510.292Z" fill="#080E49"></path><path d="M343.481 497.657L342.841 501.336L342.625 501.44L342.713 497.186L343.481 497.657Z" fill="#080E49"></path><path d="M340.375 492.227L342.294 501.223L342.63 501.439L342.79 493.322L340.375 492.227Z" fill="#080E49"></path><path d="M359.625 505.117L361.544 514.114L361.88 514.322L362.04 506.205L359.625 505.117Z" fill="#080E49"></path><path d="M364.362 504.719L362.387 514.116L361.875 514.323L362.035 505.854L364.362 504.719Z" fill="#080E49"></path><path d="M361.664 484.389V506.325L420.94 472.689V450.553L361.664 484.389Z" fill="#F07C78"></path><path d="M361.663 484.437V506.15L340.062 492.474V471.258" fill="#080E49"></path><path d="M340.062 471.258L361.655 484.445L420.939 450.561L398.954 438.781L340.062 471.258Z" fill="#FFDFDE"></path><path d="M418.896 454.816L401.75 464.669V480.432L418.896 470.699V454.816Z" fill="#D73F3C"></path><path d="M418.896 470.698L418.424 470.49L401.75 479.935V480.431L418.896 470.698Z" fill="#080E49"></path><path d="M399.88 465.629L363.828 486.022V501.776L399.88 481.519V465.629Z" fill="#D73F3C"></path><path d="M399.878 481.519V465.629L399.406 465.909V481.767L399.878 481.519Z" fill="#080E49"></path><path d="M399.88 481.518L399.408 481.311L363.828 501.528V502.023L399.88 481.518Z" fill="#080E49"></path><path d="M371.202 489.429L370.954 489.301L366.172 492.068V492.94L366.412 493.067L371.202 489.429Z" fill="#0E177A"></path><path d="M371.197 489.436L366.406 492.203V493.066L371.197 490.435V489.436Z" fill="#080E49"></path></g></svg> 