<?xml version="1.0" encoding="UTF-8"?> <svg xmlns="http://www.w3.org/2000/svg" width="57" height="56" viewBox="0 0 57 56" fill="none"><path fill-rule="evenodd" clip-rule="evenodd" d="M0.794922 55.633H56.0512V0.379883H0.794922V55.633ZM18.5971 32.2257C15.624 32.1146 14.9279 31.8243 14.9279 29.215H14.9278V21.0689H16.7901C20.0205 21.0689 21.4897 21.8007 22.0023 24.7374H22.9565V15.9274H22.0023C21.5258 18.5336 20.6813 19.2346 16.7901 19.2346H14.9278V11.3417C14.9278 10.3134 15.1847 10.0572 16.3195 10.0572H20.1017C24.9828 10.0572 25.9383 10.9372 26.8186 13.7257H27.8466L27.6982 8.2229H6.85317V9.17707C9.23802 9.28515 9.93528 9.57851 9.93528 12.1878V29.215C9.93528 31.8243 9.23802 32.1146 6.77968 32.2257V33.1799H18.5971V32.2257ZM29.4291 8.2229H51.3043L51.811 13.7287H50.5576C49.7581 11.0329 48.5794 10.0572 45.9451 10.0572H42.8633V29.215C42.8633 31.8243 43.5603 32.1146 46.3867 32.2257V33.1799H34.3482V32.2257C37.1734 32.1146 37.8707 31.8243 37.8707 29.215V10.0572H34.7873C32.1542 10.0572 30.9768 11.0329 30.176 13.7287H28.9212L29.4291 8.2229Z" fill="#1D2231"></path></svg> 