<?xml version="1.0" encoding="UTF-8"?> <svg xmlns="http://www.w3.org/2000/svg" width="855" height="643" viewBox="0 0 855 643" fill="none"><rect width="855" height="643" fill="#F0EFEF"></rect><g clip-path="url(#clip0_0_1)"><rect width="1440" height="5845" transform="translate(-584 -97)" fill="white"></rect><rect x="-587" y="-97" width="1443" height="744" fill="#0E177A"></rect><path d="M-146.001 -160L883.457 438.028" stroke="white" stroke-width="0.802776" stroke-miterlimit="10" stroke-linecap="round"></path><path d="M727.714 380.534C724.758 380.534 722.362 379.515 722.362 378.258C722.362 377.001 724.758 375.982 727.714 375.982C730.67 375.982 733.066 377.001 733.066 378.258C733.066 379.515 730.67 380.534 727.714 380.534Z" fill="#DFDFDF"></path><g style="mix-blend-mode:multiply"><path d="M715.26 325.954L675.024 321.528L632 346.904L726.694 397.362L782.4 366.333L715.26 325.954Z" fill="#0C1570"></path></g><path d="M720.817 376.508C720.526 374.066 721.843 371.902 723.757 371.674C725.671 371.447 727.458 373.242 727.748 375.684C728.038 378.126 726.722 380.29 724.808 380.517C722.894 380.745 721.107 378.95 720.817 376.508Z" fill="#020203"></path><path d="M723.092 376.191C722.992 375.352 723.443 374.609 724.1 374.531C724.756 374.453 725.368 375.07 725.468 375.908C725.568 376.747 725.117 377.49 724.46 377.568C723.804 377.646 723.192 377.029 723.092 376.191Z" fill="white"></path><path d="M757.345 374.211C757.138 375.317 756.436 376.091 755.78 375.956C755.114 375.821 754.718 374.804 754.907 373.68C755.105 372.537 755.825 371.719 756.508 371.881C757.183 372.043 757.552 373.086 757.345 374.211Z" fill="#F59B08"></path><path d="M757.956 374.331C757.749 375.437 757.047 376.211 756.391 376.076C755.725 375.941 755.329 374.924 755.518 373.8C755.716 372.658 756.436 371.839 757.119 372.001C757.803 372.163 758.172 373.206 757.956 374.331Z" fill="#ECAA5F"></path><path d="M673.788 348.547C671.756 348.547 670.109 347.496 670.109 346.199C670.109 344.903 671.756 343.852 673.788 343.852C675.82 343.852 677.467 344.903 677.467 346.199C677.467 347.496 675.82 348.547 673.788 348.547Z" fill="#DFDFDF"></path><path d="M667.848 344.907C667.558 342.465 668.874 340.301 670.788 340.074C672.702 339.846 674.489 341.641 674.779 344.083C675.069 346.525 673.753 348.689 671.839 348.917C669.925 349.144 668.138 347.349 667.848 344.907Z" fill="#020203"></path><path d="M670.119 344.581C670.02 343.743 670.471 343 671.127 342.922C671.783 342.844 672.396 343.46 672.495 344.299C672.595 345.138 672.144 345.881 671.488 345.959C670.832 346.037 670.219 345.42 670.119 344.581Z" fill="white"></path><path d="M733.064 325.978L768.02 304.687V360.502L733.064 380.534V325.978Z" fill="#282E67"></path><path d="M733.066 325.979V380.535L663.434 339.75V286.049L733.066 325.979Z" fill="#034D86"></path><path d="M680.01 295.854L733.064 325.979L768.02 304.534L700.105 265L663.432 286.436L680.01 295.854Z" fill="#0D5A9A"></path><path d="M780.533 350.526V364.766L752.45 382.531V368.049" fill="#25BCEA"></path><path d="M747.88 353.162L737.212 347.234L765.547 329.693L775.559 335.531" fill="#B7E2F9"></path><path d="M737.211 348.152V374.184L752.602 382.55L752.494 368.193L747.843 353.297L737.211 347.234V348.152Z" fill="#87D0F5"></path><path d="M747.844 353.297L752.53 368.058L780.613 350.544L775.558 335.531L747.844 353.297Z" fill="#B7E2F9"></path><path d="M773.812 339.058L775.207 338.167L778.895 349.546L753.087 365.432L753.069 365.369L752.529 364.001L777.078 349.114L773.812 339.058Z" fill="#282E67"></path><path d="M773.811 339.059L777.076 349.115L752.528 364.002L749.686 354.566L773.811 339.059Z" fill="#27378D"></path><path opacity="0.74" d="M739.074 361.159V368.994L750.039 375.381V367.312" stroke="#C51F2E" stroke-width="0.166145" stroke-miterlimit="10"></path><path d="M777.419 360.843C777.212 361.95 776.511 362.723 775.854 362.588C775.188 362.454 774.792 361.437 774.981 360.313C775.179 359.17 775.899 358.352 776.583 358.514C777.257 358.676 777.626 359.728 777.419 360.843Z" fill="#F59B08"></path><path d="M778.04 360.965C777.833 362.072 777.132 362.845 776.475 362.711C775.809 362.576 775.414 361.559 775.602 360.435C775.8 359.292 776.52 358.474 777.204 358.636C777.878 358.798 778.247 359.841 778.04 360.965Z" fill="#ECAA5F"></path><path d="M757.862 371.815C757.656 372.921 756.954 373.695 756.297 373.56C755.632 373.425 755.236 372.409 755.425 371.284C755.623 370.142 756.342 369.323 757.026 369.485C757.701 369.647 758.069 370.7 757.862 371.815Z" fill="#F59B08"></path><path d="M758.484 371.937C758.277 373.044 757.575 373.817 756.918 373.682C756.253 373.547 755.857 372.531 756.046 371.406C756.244 370.264 756.963 369.445 757.647 369.607C758.322 369.769 758.69 370.813 758.484 371.937Z" fill="#ECAA5F"></path><path d="M782.16 363.245L753.16 381.541L735.772 372.267V375.578L753.088 384.6L782.16 365.944V363.245Z" fill="#282E67"></path><path d="M766.544 375.093L772.85 370.964V373.95L766.544 377.962V375.093Z" fill="#F59B08"></path><path d="M782.16 363.246L780.613 362.131L752.602 379.941L737.211 371.432L735.772 372.251L752.53 381.938L782.16 363.246Z" fill="#27378D"></path><path d="M738.839 361.114L739.163 350.445L740.045 350.949L739.757 360.466L746.485 364.181L749.724 365.971L750.191 367.392L746.332 365.251L738.839 361.114Z" fill="#282E67"></path><path d="M740.046 350.949L745.839 354.241L749.725 365.971L739.758 360.466L740.046 350.949Z" fill="#27378D"></path><path opacity="0.74" d="M739.946 364.299L742.051 365.441" stroke="#C51F2E" stroke-width="0.166145" stroke-miterlimit="10"></path><path opacity="0.74" d="M772.662 359.54L759.997 367.258" stroke="#C51F2E" stroke-width="0.166145" stroke-miterlimit="10"></path><path opacity="0.74" d="M772.436 362.355L761.893 368.76" stroke="#C51F2E" stroke-width="0.166145" stroke-miterlimit="10"></path><path opacity="0.74" d="M771.051 365.891L764.088 370.109" stroke="#C51F2E" stroke-width="0.166145" stroke-miterlimit="10"></path><path d="M715.253 315.688L748.922 293.641" stroke="#282E68" stroke-width="0.824133" stroke-miterlimit="10" stroke-linecap="round"></path><path d="M715.252 366.907V315.688" stroke="#282E68" stroke-width="0.824133" stroke-miterlimit="10" stroke-linecap="round"></path><path d="M696.921 305.2L730.59 283.144" stroke="#282E68" stroke-width="0.824133" stroke-miterlimit="10" stroke-linecap="round"></path><path d="M696.922 356.418V305.199" stroke="#282E68" stroke-width="0.824133" stroke-miterlimit="10" stroke-linecap="round"></path><path d="M680.55 295.674L714.229 273.617" stroke="#282E68" stroke-width="0.824133" stroke-miterlimit="10" stroke-linecap="round"></path><path d="M680.549 346.892V295.673" stroke="#282E68" stroke-width="0.824133" stroke-miterlimit="10" stroke-linecap="round"></path><path opacity="0.5" d="M778.895 349.546L774.469 346.002L769.351 341.891L775.207 338.167L778.895 349.546Z" fill="#27378D"></path><path d="M364.56 391.807L337.777 394.798L267.033 355.9L297.791 349.582L361.968 382.843L364.56 391.807Z" fill="#0C1570"></path><g style="mix-blend-mode:multiply"><path d="M353.547 367.135L326.548 351.404L269.072 386.4L292.488 401.579L302.165 401.299V399.7L296.791 399.156L353.547 367.135Z" fill="#0C1570"></path></g><g style="mix-blend-mode:multiply"><path d="M755.986 134.473H751.682L733.229 108.336L664 149.559L693.809 166.631C693.809 166.631 715.453 161.381 714.13 161.563L750.075 136.633L750.039 136.727L755.986 134.473Z" fill="#0C1570"></path></g><path d="M500.988 291.911H524.986L560.055 269.334L568.071 228.459L518.119 212.478L473.702 231.615L426.096 250.684L500.988 291.911Z" fill="#010236"></path><path d="M123 479L872 50" stroke="white" stroke-width="0.824133" stroke-miterlimit="10" stroke-linecap="round"></path><path d="M474.598 203.432L474.463 249.283L504.316 266.378V220.594L474.598 203.432Z" fill="#0A5A9D"></path><path d="M504.314 266.378L563.683 232.104L563.768 186.27L504.314 220.595V266.378Z" fill="#292D67"></path><path d="M504.314 220.594L474.596 203.432L534.049 169.106L563.768 186.269L504.314 220.594Z" fill="#2A99CB"></path><path fill-rule="evenodd" clip-rule="evenodd" d="M478.674 208.851C478.144 208.853 477.716 209.285 477.718 209.815L477.87 246.706C477.872 247.236 478.304 247.664 478.834 247.662C479.365 247.66 479.793 247.228 479.791 246.698L479.639 209.807C479.637 209.277 479.205 208.848 478.674 208.851Z" fill="#232652"></path><path fill-rule="evenodd" clip-rule="evenodd" d="M484.026 211.905C483.496 211.908 483.068 212.34 483.07 212.87L483.239 249.761C483.241 250.291 483.673 250.719 484.204 250.717C484.734 250.715 485.163 250.283 485.16 249.752L484.991 212.862C484.989 212.331 484.557 211.903 484.026 211.905Z" fill="#232652"></path><path fill-rule="evenodd" clip-rule="evenodd" d="M489.391 214.959C488.861 214.961 488.432 215.393 488.434 215.924L488.586 252.814C488.589 253.345 489.02 253.773 489.551 253.771C490.082 253.769 490.51 253.337 490.508 252.806L490.356 215.916C490.354 215.385 489.922 214.957 489.391 214.959Z" fill="#232652"></path><path fill-rule="evenodd" clip-rule="evenodd" d="M494.741 218.014C494.211 218.016 493.782 218.448 493.785 218.979L493.954 255.869C493.956 256.4 494.388 256.828 494.919 256.825C495.449 256.823 495.877 256.391 495.875 255.86L495.706 218.97C495.704 218.439 495.272 218.011 494.741 218.014Z" fill="#232652"></path><path fill-rule="evenodd" clip-rule="evenodd" d="M500.091 221.053C499.56 221.055 499.132 221.487 499.134 222.018L499.303 258.908C499.306 259.439 499.738 259.867 500.268 259.864C500.799 259.862 501.227 259.43 501.225 258.899L501.056 222.009C501.053 221.478 500.621 221.05 500.091 221.053Z" fill="#232652"></path><path d="M504.383 218.588L563.752 184.331L563.836 138.496L504.383 172.821V218.588Z" fill="#C71F2D"></path><path d="M504.383 172.821L474.648 155.658L534.118 121.333L563.836 138.496L504.383 172.821Z" fill="#EB5B51"></path><path d="M474.646 155.657L474.528 201.508L504.381 218.587V172.82L474.646 155.657Z" fill="#E62535"></path><path fill-rule="evenodd" clip-rule="evenodd" d="M478.831 162.243C478.181 162.243 477.653 162.771 477.653 163.422V197.443C477.653 198.094 478.181 198.621 478.831 198.621C479.482 198.621 480.01 198.094 480.01 197.443V163.422C480.01 162.771 479.482 162.243 478.831 162.243Z" fill="#AD1C28"></path><path fill-rule="evenodd" clip-rule="evenodd" d="M484.199 165.297C483.548 165.297 483.02 165.824 483.02 166.475V200.497C483.02 201.147 483.548 201.675 484.199 201.675C484.849 201.675 485.377 201.147 485.377 200.497V166.475C485.377 165.824 484.849 165.297 484.199 165.297Z" fill="#AD1C28"></path><path fill-rule="evenodd" clip-rule="evenodd" d="M489.548 168.352C488.897 168.352 488.37 168.879 488.37 169.53V203.551C488.37 204.202 488.897 204.73 489.548 204.73C490.199 204.73 490.727 204.202 490.727 203.551V169.53C490.727 168.879 490.199 168.352 489.548 168.352Z" fill="#AD1C28"></path><path fill-rule="evenodd" clip-rule="evenodd" d="M494.915 171.406C494.265 171.406 493.737 171.934 493.737 172.585V206.606C493.737 207.257 494.265 207.784 494.915 207.784C495.566 207.784 496.094 207.257 496.094 206.606V172.585C496.094 171.934 495.566 171.406 494.915 171.406Z" fill="#AD1C28"></path><path fill-rule="evenodd" clip-rule="evenodd" d="M500.265 174.461C499.614 174.461 499.087 174.988 499.087 175.639V209.661C499.087 210.311 499.614 210.839 500.265 210.839C500.916 210.839 501.443 210.311 501.443 209.661V175.639C501.443 174.988 500.916 174.461 500.265 174.461Z" fill="#AD1C28"></path><path d="M534.168 240.391L531.451 248.052L510.964 265.333" fill="url(#paint0_linear_0_1)"></path><path d="M536.869 284.96L596.221 250.685L596.322 204.851L536.869 239.176V284.96Z" fill="#4491CF"></path><path d="M536.869 239.175L507.134 222.013L566.587 187.688L596.322 204.85L536.869 239.175Z" fill="#72CAEC"></path><path d="M507.134 222.014L506.999 267.865L536.869 284.96V239.176L507.134 222.014Z" fill="#4491CF"></path><path d="M507.272 174.66L507.137 220.511L536.99 237.607V191.823L507.272 174.66Z" fill="#3FB5E9"></path><path d="M536.987 237.607L596.356 203.332L596.457 157.498L536.987 191.823V237.607Z" fill="#4491CF"></path><path d="M536.987 191.824L507.269 174.661L566.722 140.336L596.457 157.499L536.987 191.824Z" fill="#BCE3F5"></path><path fill-rule="evenodd" clip-rule="evenodd" d="M511.403 181.497C510.872 181.497 510.442 181.927 510.442 182.458V216.479C510.442 217.01 510.872 217.44 511.403 217.44C511.933 217.44 512.363 217.01 512.363 216.479V182.458C512.363 181.927 511.933 181.497 511.403 181.497Z" fill="#2593C2"></path><path fill-rule="evenodd" clip-rule="evenodd" d="M516.75 184.552C516.22 184.552 515.789 184.982 515.789 185.512V219.534C515.789 220.064 516.22 220.495 516.75 220.495C517.281 220.495 517.711 220.064 517.711 219.534V185.512C517.711 184.982 517.281 184.552 516.75 184.552Z" fill="#2593C2"></path><path fill-rule="evenodd" clip-rule="evenodd" d="M522.1 187.605C521.569 187.605 521.139 188.036 521.139 188.566V222.588C521.139 223.118 521.569 223.548 522.1 223.548C522.63 223.548 523.061 223.118 523.061 222.588V188.566C523.061 188.036 522.63 187.605 522.1 187.605Z" fill="#2593C2"></path><path fill-rule="evenodd" clip-rule="evenodd" d="M527.467 190.66C526.936 190.66 526.506 191.09 526.506 191.621V225.625C526.506 226.156 526.936 226.586 527.467 226.586C527.998 226.586 528.428 226.156 528.428 225.625V191.621C528.428 191.09 527.998 190.66 527.467 190.66Z" fill="#2593C2"></path><path fill-rule="evenodd" clip-rule="evenodd" d="M532.817 193.714C532.286 193.714 531.856 194.144 531.856 194.675V228.679C531.856 229.21 532.286 229.64 532.817 229.64C533.347 229.64 533.777 229.21 533.777 228.679V194.675C533.777 194.144 533.347 193.714 532.817 193.714Z" fill="#2593C2"></path><path fill-rule="evenodd" clip-rule="evenodd" d="M590.229 166.173C589.698 166.173 589.268 166.603 589.268 167.134V201.138C589.268 201.669 589.698 202.099 590.229 202.099C590.759 202.099 591.189 201.669 591.189 201.138V167.134C591.189 166.603 590.759 166.173 590.229 166.173Z" fill="#2271B2"></path><path fill-rule="evenodd" clip-rule="evenodd" d="M584.93 169.228C584.399 169.228 583.969 169.658 583.969 170.188V204.193C583.969 204.723 584.399 205.154 584.93 205.154C585.46 205.154 585.891 204.723 585.891 204.193V170.188C585.891 169.658 585.46 169.228 584.93 169.228Z" fill="#2271B2"></path><path fill-rule="evenodd" clip-rule="evenodd" d="M579.647 172.281C579.116 172.281 578.686 172.711 578.686 173.242V207.263C578.686 207.794 579.116 208.224 579.647 208.224C580.177 208.224 580.607 207.794 580.607 207.263V173.242C580.607 172.711 580.177 172.281 579.647 172.281Z" fill="#2271B2"></path><path fill-rule="evenodd" clip-rule="evenodd" d="M574.348 175.354C573.817 175.354 573.387 175.784 573.387 176.314V210.319C573.387 210.849 573.817 211.279 574.348 211.279C574.878 211.279 575.309 210.849 575.309 210.319V176.314C575.309 175.784 574.878 175.354 574.348 175.354Z" fill="#2271B2"></path><path fill-rule="evenodd" clip-rule="evenodd" d="M569.067 178.407C568.536 178.407 568.106 178.837 568.106 179.368V213.389C568.106 213.92 568.536 214.35 569.067 214.35C569.597 214.35 570.027 213.92 570.027 213.389V179.368C570.027 178.837 569.597 178.407 569.067 178.407Z" fill="#2271B2"></path><path fill-rule="evenodd" clip-rule="evenodd" d="M563.785 181.461C563.255 181.461 562.825 181.891 562.825 182.422V216.443C562.825 216.974 563.255 217.404 563.785 217.404C564.316 217.404 564.746 216.974 564.746 216.443V182.422C564.746 181.891 564.316 181.461 563.785 181.461Z" fill="#2271B2"></path><path fill-rule="evenodd" clip-rule="evenodd" d="M558.487 184.532C557.956 184.532 557.526 184.962 557.526 185.493V219.497C557.526 220.028 557.956 220.458 558.487 220.458C559.017 220.458 559.447 220.028 559.447 219.497V185.493C559.447 184.962 559.017 184.532 558.487 184.532Z" fill="#2271B2"></path><path fill-rule="evenodd" clip-rule="evenodd" d="M553.203 187.587C552.673 187.587 552.243 188.017 552.243 188.548V222.569C552.243 223.1 552.673 223.53 553.203 223.53C553.734 223.53 554.164 223.1 554.164 222.569V188.548C554.164 188.017 553.734 187.587 553.203 187.587Z" fill="#2271B2"></path><path fill-rule="evenodd" clip-rule="evenodd" d="M547.905 190.642C547.374 190.642 546.944 191.072 546.944 191.602V225.624C546.944 226.154 547.374 226.584 547.905 226.584C548.435 226.584 548.865 226.154 548.865 225.624V191.602C548.865 191.072 548.435 190.642 547.905 190.642Z" fill="#2271B2"></path><path fill-rule="evenodd" clip-rule="evenodd" d="M542.623 193.713C542.093 193.713 541.663 194.143 541.663 194.674V228.678C541.663 229.209 542.093 229.639 542.623 229.639C543.154 229.639 543.584 229.209 543.584 228.678V194.674C543.584 194.143 543.154 193.713 542.623 193.713Z" fill="#2271B2"></path><path fill-rule="evenodd" clip-rule="evenodd" d="M590.229 214.066C589.698 214.066 589.268 214.497 589.268 215.027V249.032C589.268 249.562 589.698 249.992 590.229 249.992C590.759 249.992 591.189 249.562 591.189 249.032V215.027C591.189 214.497 590.759 214.066 590.229 214.066Z" fill="#2271B2"></path><path fill-rule="evenodd" clip-rule="evenodd" d="M584.93 217.122C584.399 217.122 583.969 217.552 583.969 218.083V252.104C583.969 252.635 584.399 253.065 584.93 253.065C585.46 253.065 585.891 252.635 585.891 252.104V218.083C585.891 217.552 585.46 217.122 584.93 217.122Z" fill="#2271B2"></path><path fill-rule="evenodd" clip-rule="evenodd" d="M579.649 220.176C579.118 220.176 578.688 220.606 578.688 221.137V255.158C578.688 255.689 579.118 256.119 579.649 256.119C580.179 256.119 580.609 255.689 580.609 255.158V221.137C580.609 220.606 580.179 220.176 579.649 220.176Z" fill="#2271B2"></path><path fill-rule="evenodd" clip-rule="evenodd" d="M574.348 223.247C573.817 223.247 573.387 223.677 573.387 224.208V258.212C573.387 258.743 573.817 259.173 574.348 259.173C574.878 259.173 575.309 258.743 575.309 258.212V224.208C575.309 223.677 574.878 223.247 574.348 223.247Z" fill="#2271B2"></path><path fill-rule="evenodd" clip-rule="evenodd" d="M569.069 226.302C568.538 226.302 568.108 226.732 568.108 227.262V261.284C568.108 261.814 568.538 262.245 569.069 262.245C569.599 262.245 570.029 261.814 570.029 261.284V227.262C570.029 226.732 569.599 226.302 569.069 226.302Z" fill="#2271B2"></path><path fill-rule="evenodd" clip-rule="evenodd" d="M563.785 229.356C563.255 229.356 562.825 229.787 562.825 230.317V264.339C562.825 264.869 563.255 265.299 563.785 265.299C564.316 265.299 564.746 264.869 564.746 264.339V230.317C564.746 229.787 564.316 229.356 563.785 229.356Z" fill="#2271B2"></path><path fill-rule="evenodd" clip-rule="evenodd" d="M558.487 232.428C557.956 232.428 557.526 232.858 557.526 233.388V267.393C557.526 267.924 557.956 268.354 558.487 268.354C559.017 268.354 559.447 267.924 559.447 267.393V233.388C559.447 232.858 559.017 232.428 558.487 232.428Z" fill="#2271B2"></path><path fill-rule="evenodd" clip-rule="evenodd" d="M553.203 235.482C552.673 235.482 552.243 235.913 552.243 236.443V270.465C552.243 270.995 552.673 271.425 553.203 271.425C553.734 271.425 554.164 270.995 554.164 270.465V236.443C554.164 235.913 553.734 235.482 553.203 235.482Z" fill="#2271B2"></path><path fill-rule="evenodd" clip-rule="evenodd" d="M547.905 238.536C547.374 238.536 546.944 238.966 546.944 239.497V273.518C546.944 274.049 547.374 274.479 547.905 274.479C548.435 274.479 548.865 274.049 548.865 273.518V239.497C548.865 238.966 548.435 238.536 547.905 238.536Z" fill="#2271B2"></path><path fill-rule="evenodd" clip-rule="evenodd" d="M542.623 241.609C542.093 241.609 541.663 242.04 541.663 242.57V276.575C541.663 277.105 542.093 277.535 542.623 277.535C543.154 277.535 543.584 277.105 543.584 276.575V242.57C543.584 242.04 543.154 241.609 542.623 241.609Z" fill="#2271B2"></path><path d="M532.429 276.134L546.031 283.239V248.188L532.227 240.29L531.265 241.269L532.429 276.134Z" fill="#72CAEC"></path><path d="M531.266 241.201L544.885 248.947V283.981L531.266 276.876" fill="#3FB5E9"></path><path d="M497.767 256.727L511.369 263.831V228.78L497.565 220.899L496.603 221.861L497.767 256.727Z" fill="#BCE3F5"></path><path d="M496.604 221.794L510.223 229.54V264.591L496.604 257.486" fill="#3FB5E9"></path><path d="M544.884 248.948L546.031 248.188V283.239L544.884 283.982V248.948Z" fill="#BCE3F5"></path><path d="M505.599 277.754L525.276 289.516L526.659 289.246L533.258 278.007L514.003 266.649L505.599 277.754Z" fill="#3FB5E9"></path><path d="M504.297 277.416L525.274 289.516L531.939 277.669L512.684 266.312L504.297 277.416Z" fill="#BCE3F5"></path><mask id="mask0_0_1" style="mask-type:alpha" maskUnits="userSpaceOnUse" x="510" y="228" width="22" height="50"><path d="M510.963 228.545V265.334L531.939 277.417V240.139L510.963 228.545Z" fill="#292D67"></path></mask><g mask="url(#mask0_0_1)"><path opacity="0.3" d="M510.963 228.545V265.334L531.939 277.417V240.139L510.963 228.545Z" fill="#292D67"></path><path d="M523.087 255.471L534.618 262.296L541.682 258.402L541.676 257.931L529.51 254.07L523.07 255L523.087 255.471Z" fill="#6F6F6E"></path><path d="M523.025 254.943L534.619 261.82L541.683 257.931L527.532 252.438L523.025 254.943Z" fill="#969696"></path><path d="M529.911 244.739L533.08 246.582L526.181 250.635L523.012 248.594L529.911 244.739Z" fill="#FED276"></path><path d="M523.008 248.595V254.088L526.262 255.993L526.29 250.585L523.008 248.595Z" fill="#ECAA5F"></path><path d="M533.076 246.582V252.098L526.262 255.993L526.29 250.584L533.076 246.582Z" fill="#FABD6E"></path><path d="M530.182 248.283L528.951 247.489L528.043 248.079L529.195 248.862L530.182 248.283Z" fill="white"></path><path d="M529.193 248.855V250.449L530.18 249.887V248.276L529.193 248.855Z" fill="#FFE8C6"></path><path d="M533.997 247.347L537.166 249.189L530.267 253.237L527.098 251.202L533.997 247.347Z" fill="#FED276"></path><path d="M527.098 251.202V256.696L530.352 258.6L530.38 253.186L527.098 251.202Z" fill="#ECAA5F"></path><path d="M537.166 249.191V254.707L530.352 258.602L530.38 253.188L537.166 249.191Z" fill="#FABD6E"></path><path d="M538.339 250.029L541.508 251.872L534.608 255.92L531.439 253.879L538.339 250.029Z" fill="#FED276"></path><path d="M531.439 253.878V259.377L534.694 261.282L534.722 255.868L531.439 253.878Z" fill="#ECAA5F"></path><path d="M523.367 249.23L534.62 255.908L541.684 252.014L523.741 248.782L523.367 249.23Z" fill="#6F6F6E"></path><path d="M523.322 248.737L534.621 255.438L541.685 251.543L529.513 247.212L523.322 248.737Z" fill="#969696"></path><path d="M529.907 238.527L533.076 240.37L526.177 244.418L523.008 242.377L529.907 238.527Z" fill="#FED276"></path><path d="M523.008 242.377V247.876L526.262 249.781L526.29 244.367L523.008 242.377Z" fill="#ECAA5F"></path><path d="M533.078 240.369V245.88L526.264 249.78L526.292 244.366L533.078 240.369Z" fill="#FABD6E"></path><path d="M530.182 242.07L528.951 241.271L528.043 241.866L529.195 242.649L530.182 242.07Z" fill="white"></path><path d="M529.195 242.643V244.237L530.182 243.675V242.059L529.195 242.643Z" fill="#FFE8C6"></path><path d="M533.997 241.129L537.166 242.971L530.267 247.025L527.098 244.984L533.997 241.129Z" fill="#FED276"></path><path d="M527.098 244.983V250.477L530.352 252.382L530.38 246.973L527.098 244.983Z" fill="#ECAA5F"></path><path d="M537.166 242.973V248.489L530.352 252.383L530.38 246.975L537.166 242.973Z" fill="#FABD6E"></path><path d="M538.335 243.81L541.504 245.652L534.605 249.7L531.436 247.665L538.335 243.81Z" fill="#FED276"></path><path d="M531.436 247.665V253.158L534.69 255.063L534.718 249.655L531.436 247.665Z" fill="#ECAA5F"></path><path d="M530.803 247.132V261.855L531.137 261.662V246.82L530.803 247.132Z" fill="#969696"></path><path d="M530.803 247.132V261.849L530.469 261.651V246.82L530.803 247.132Z" fill="#6F6F6E"></path><path d="M527.068 244.967V259.69L527.403 259.497V244.746L527.068 244.967Z" fill="#969696"></path><path d="M527.069 244.967V259.684L526.734 259.485V244.785L527.069 244.967Z" fill="#6F6F6E"></path><path d="M531.388 253.158L530.844 253.283L534.24 255.261L534.37 254.904L531.388 253.158Z" fill="#969696"></path><path d="M530.809 247.105V261.822L531.143 261.629V246.793L530.809 247.105Z" fill="#969696"></path><path d="M530.809 247.105V261.822L530.475 261.618V246.793L530.809 247.105Z" fill="#6F6F6E"></path><path d="M527.072 244.945V259.662L527.407 259.469V244.746L527.072 244.945Z" fill="#969696"></path><path d="M527.073 244.945V259.656L526.744 259.458V244.718L527.073 244.945Z" fill="#6F6F6E"></path><path d="M523.344 242.779V257.502L523.678 257.309V242.473L523.344 242.779Z" fill="#969696"></path><path d="M523.342 242.779V257.496L523.008 257.297V242.473L523.342 242.779Z" fill="#6F6F6E"></path><path d="M523.087 242.455L534.618 249.281L541.682 245.386L541.676 244.915L529.51 241.055L523.07 241.984L523.087 242.455Z" fill="#6F6F6E"></path><path d="M523.025 241.928L534.619 248.804L541.683 244.915L527.532 239.422L523.025 241.928Z" fill="#969696"></path><path d="M529.909 231.722L533.078 233.564L526.179 237.618L523.01 235.577L529.909 231.722Z" fill="#FED276"></path><path d="M523.006 235.577V241.071L526.26 242.975L526.288 237.567L523.006 235.577Z" fill="#ECAA5F"></path><path d="M533.074 233.565V239.082L526.26 242.976L526.288 237.568L533.074 233.565Z" fill="#FABD6E"></path><path d="M530.18 235.266L528.949 234.472L528.041 235.062L529.193 235.844L530.18 235.266Z" fill="white"></path><path d="M529.191 235.838V237.432L530.178 236.871V235.254L529.191 235.838Z" fill="#FFE8C6"></path><path d="M533.997 234.33L537.166 236.173L530.267 240.22L527.098 238.185L533.997 234.33Z" fill="#FED276"></path><path d="M527.098 238.186V243.679L530.352 245.584L530.38 240.17L527.098 238.186Z" fill="#ECAA5F"></path><path d="M537.166 236.173V241.689L530.352 245.584L530.38 240.17L537.166 236.173Z" fill="#FABD6E"></path><path d="M538.337 237.012L541.506 238.854L534.607 242.902L531.438 240.861L538.337 237.012Z" fill="#FED276"></path><path d="M531.438 240.86V246.359L534.692 248.264L534.72 242.85L531.438 240.86Z" fill="#ECAA5F"></path><path d="M523.367 236.213L534.62 242.892L541.684 238.997L523.741 235.766L523.367 236.213Z" fill="#6F6F6E"></path><path d="M523.322 235.72L534.621 242.421L541.685 238.527L529.513 234.195L523.322 235.72Z" fill="#969696"></path><path d="M529.905 225.51L533.074 227.352L526.175 231.4L523.006 229.359L529.905 225.51Z" fill="#FED276"></path><path d="M523.006 229.359V234.858L526.26 236.763L526.288 231.349L523.006 229.359Z" fill="#ECAA5F"></path><path d="M533.076 227.353V232.863L526.262 236.763L526.29 231.349L533.076 227.353Z" fill="#FABD6E"></path><path d="M530.18 229.053L528.949 228.253L528.041 228.849L529.193 229.631L530.18 229.053Z" fill="white"></path><path d="M529.193 229.626V231.22L530.18 230.653V229.042L529.193 229.626Z" fill="#FFE8C6"></path><path d="M533.995 228.112L537.164 229.955L530.265 234.008L527.096 231.967L533.995 228.112Z" fill="#FED276"></path><path d="M527.098 231.968V237.461L530.352 239.366L530.38 233.958L527.098 231.968Z" fill="#ECAA5F"></path><path d="M537.164 229.955V235.471L530.35 239.366L530.378 233.957L537.164 229.955Z" fill="#FABD6E"></path><path d="M538.339 230.793L541.508 232.635L534.608 236.683L531.439 234.648L538.339 230.793Z" fill="#FED276"></path><path d="M531.438 234.648V240.142L534.692 242.047L534.72 236.638L531.438 234.648Z" fill="#ECAA5F"></path><path d="M530.803 234.116V248.838L531.137 248.646V233.804L530.803 234.116Z" fill="#969696"></path><path d="M530.803 234.116V248.833L530.469 248.634V233.804L530.803 234.116Z" fill="#6F6F6E"></path><path d="M527.068 231.951V246.673L527.403 246.481V231.729L527.068 231.951Z" fill="#969696"></path><path d="M527.069 231.95V246.667L526.734 246.469V231.769L527.069 231.95Z" fill="#6F6F6E"></path><path d="M531.386 240.142L530.842 240.266L534.238 242.245L534.368 241.888L531.386 240.142Z" fill="#969696"></path><path d="M530.809 234.087V248.804L531.143 248.612V233.775L530.809 234.087Z" fill="#969696"></path><path d="M530.809 234.087V248.804L530.475 248.6V233.775L530.809 234.087Z" fill="#6F6F6E"></path><path d="M527.07 231.927V246.644L527.405 246.451V231.729L527.07 231.927Z" fill="#969696"></path><path d="M527.073 231.927V246.638L526.744 246.44V231.694L527.073 231.927Z" fill="#6F6F6E"></path><path d="M523.344 229.761V244.484L523.678 244.291V229.455L523.344 229.761Z" fill="#969696"></path><path d="M523.342 229.761V244.478L523.008 244.28V229.455L523.342 229.761Z" fill="#6F6F6E"></path><path d="M515.668 259.894L527.199 266.72L534.262 262.825L534.257 262.349L522.091 258.494L515.656 259.424L515.668 259.894Z" fill="#6F6F6E"></path><path d="M515.605 259.367L527.199 266.244L534.263 262.349L520.112 256.861L515.605 259.367Z" fill="#969696"></path><path d="M522.489 249.162L525.658 251.005L518.759 255.052L515.59 253.017L522.489 249.162Z" fill="#FED276"></path><path d="M515.59 253.018V258.511L518.844 260.416L518.872 255.007L515.59 253.018Z" fill="#ECAA5F"></path><path d="M525.658 251.006V256.522L518.844 260.417L518.872 255.008L525.658 251.006Z" fill="#FABD6E"></path><path d="M522.764 252.705L521.533 251.911L520.625 252.501L521.777 253.284L522.764 252.705Z" fill="white"></path><path d="M521.773 253.278V254.872L522.76 254.31V252.693L521.773 253.278Z" fill="#FFE8C6"></path><path d="M526.573 251.771L529.742 253.613L522.843 257.661L519.674 255.62L526.573 251.771Z" fill="#FED276"></path><path d="M519.674 255.62V261.119L522.928 263.024L522.956 257.61L519.674 255.62Z" fill="#ECAA5F"></path><path d="M529.742 253.614V259.125L522.928 263.025L522.956 257.611L529.742 253.614Z" fill="#FABD6E"></path><path d="M526.848 255.314L525.617 254.515L524.709 255.11L525.861 255.893L526.848 255.314Z" fill="white"></path><path d="M525.859 255.886V257.48L526.846 256.918V255.302L525.859 255.886Z" fill="#FFE8C6"></path><path d="M530.919 254.446L534.088 256.294L527.189 260.342L524.02 258.301L530.919 254.446Z" fill="#FED276"></path><path d="M524.018 258.301V263.8L527.272 265.699L527.3 260.291L524.018 258.301Z" fill="#ECAA5F"></path><path d="M534.086 256.295V261.805L527.271 265.7L527.3 260.292L534.086 256.295Z" fill="#FABD6E"></path><path d="M531.191 257.996L529.96 257.196L529.053 257.792L530.204 258.575L531.191 257.996Z" fill="white"></path><path d="M530.203 258.568V260.156L531.19 259.594V257.983L530.203 258.568Z" fill="#FFE8C6"></path><path d="M527.186 253.334V268.057L527.52 267.859V253.022L527.186 253.334Z" fill="#969696"></path><path d="M527.188 253.334V268.051L526.859 267.853V253.022L527.188 253.334Z" fill="#6F6F6E"></path><path d="M515.947 253.646L527.201 260.33L534.264 256.436L516.321 253.204L515.947 253.646Z" fill="#6F6F6E"></path><path d="M515.898 253.158L527.197 259.853L534.261 255.958L522.089 251.633L515.898 253.158Z" fill="#969696"></path><path d="M522.491 242.943L525.66 244.791L518.761 248.839L515.592 246.798L522.491 242.943Z" fill="#FED276"></path><path d="M515.59 246.797V252.296L518.844 254.195L518.872 248.787L515.59 246.797Z" fill="#ECAA5F"></path><path d="M525.658 244.792V250.302L518.844 254.197L518.872 248.789L525.658 244.792Z" fill="#FABD6E"></path><path d="M522.764 246.491L521.533 245.691L520.625 246.287L521.777 247.07L522.764 246.491Z" fill="white"></path><path d="M521.773 247.059V248.653L522.76 248.091V246.48L521.773 247.059Z" fill="#FFE8C6"></path><path d="M526.573 245.551L529.742 247.393L522.843 251.441L519.674 249.406L526.573 245.551Z" fill="#FED276"></path><path d="M519.674 249.405V254.899L522.928 256.803L522.956 251.395L519.674 249.405Z" fill="#ECAA5F"></path><path d="M529.742 247.396V252.912L522.928 256.806L522.956 251.398L529.742 247.396Z" fill="#FABD6E"></path><path d="M526.848 249.095L525.617 248.301L524.709 248.891L525.861 249.674L526.848 249.095Z" fill="white"></path><path d="M525.859 249.667V251.261L526.846 250.7V249.083L525.859 249.667Z" fill="#FFE8C6"></path><path d="M530.919 248.232L534.088 250.075L527.189 254.123L524.02 252.087L530.919 248.232Z" fill="#FED276"></path><path d="M524.018 252.09V257.583L527.272 259.488L527.3 254.074L524.018 252.09Z" fill="#ECAA5F"></path><path d="M534.086 250.076V255.592L527.271 259.487L527.3 254.073L534.086 250.076Z" fill="#FABD6E"></path><path d="M531.189 251.777L529.958 250.982L529.051 251.572L530.202 252.355L531.189 251.777Z" fill="white"></path><path d="M530.201 252.35V253.944L531.188 253.382V251.766L530.201 252.35Z" fill="#FFE8C6"></path><path d="M523.383 251.555V266.278L523.717 266.079V251.243L523.383 251.555Z" fill="#969696"></path><path d="M523.383 251.555V266.272L523.049 266.068V251.243L523.383 251.555Z" fill="#6F6F6E"></path><path d="M519.648 249.389V264.112L519.983 263.919V249.168L519.648 249.389Z" fill="#969696"></path><path d="M519.649 249.388V264.106L519.32 263.907V249.207L519.649 249.388Z" fill="#6F6F6E"></path><path d="M523.966 257.581L523.422 257.706L526.818 259.684L526.948 259.327L523.966 257.581Z" fill="#969696"></path><path d="M523.389 251.527V266.244L523.723 266.051V251.215L523.389 251.527Z" fill="#969696"></path><path d="M523.389 251.527V266.238L523.055 266.04V251.215L523.389 251.527Z" fill="#6F6F6E"></path><path d="M519.656 249.36V264.082L519.985 263.89V249.167L519.656 249.36Z" fill="#969696"></path><path d="M519.657 249.361V264.078L519.322 263.879V249.134L519.657 249.361Z" fill="#6F6F6E"></path><path d="M527.154 253.333V268.056L527.489 267.863V253.141L527.154 253.333Z" fill="#969696"></path><path d="M527.159 253.334V268.051L526.83 267.853V253.107L527.159 253.334Z" fill="#6F6F6E"></path><path d="M515.922 247.2V261.923L516.256 261.73V246.889L515.922 247.2Z" fill="#969696"></path><path d="M515.923 247.2V261.918L515.594 261.719V246.889L515.923 247.2Z" fill="#6F6F6E"></path><path d="M515.668 246.877L527.199 253.702L534.262 249.808L534.257 249.332L522.091 245.477L515.656 246.406L515.668 246.877Z" fill="#6F6F6E"></path><path d="M515.605 246.35L527.199 253.227L534.263 249.332L520.112 243.845L515.605 246.35Z" fill="#969696"></path><path d="M522.489 236.145L525.658 237.987L518.759 242.035L515.59 240L522.489 236.145Z" fill="#FED276"></path><path d="M515.59 240V245.493L518.844 247.398L518.872 241.984L515.59 240Z" fill="#ECAA5F"></path><path d="M525.658 237.987V243.503L518.844 247.398L518.872 241.984L525.658 237.987Z" fill="#FABD6E"></path><path d="M522.764 239.688L521.533 238.894L520.625 239.484L521.777 240.266L522.764 239.688Z" fill="white"></path><path d="M521.773 240.261V241.855L522.76 241.293V239.677L521.773 240.261Z" fill="#FFE8C6"></path><path d="M526.571 238.753L529.74 240.595L522.841 244.643L519.672 242.602L526.571 238.753Z" fill="#FED276"></path><path d="M519.672 242.603V248.102L522.926 250.006L522.954 244.592L519.672 242.603Z" fill="#ECAA5F"></path><path d="M529.74 240.597V246.107L522.926 250.007L522.954 244.593L529.74 240.597Z" fill="#FABD6E"></path><path d="M526.846 242.297L525.615 241.497L524.707 242.093L525.859 242.876L526.846 242.297Z" fill="white"></path><path d="M525.857 242.868V244.462L526.844 243.901V242.284L525.857 242.868Z" fill="#FFE8C6"></path><path d="M530.919 241.429L534.088 243.277L527.189 247.325L524.02 245.284L530.919 241.429Z" fill="#FED276"></path><path d="M524.018 245.284V250.783L527.272 252.682L527.3 247.274L524.018 245.284Z" fill="#ECAA5F"></path><path d="M534.086 243.277V248.788L527.271 252.682L527.3 247.274L534.086 243.277Z" fill="#FABD6E"></path><path d="M531.189 244.978L529.958 244.178L529.051 244.773L530.202 245.556L531.189 244.978Z" fill="white"></path><path d="M530.201 245.55V247.138L531.188 246.577V244.966L530.201 245.55Z" fill="#FFE8C6"></path><path d="M527.186 240.319V255.041L527.52 254.843V240.007L527.186 240.319Z" fill="#969696"></path><path d="M527.188 240.319V255.036L526.859 254.832V240.007L527.188 240.319Z" fill="#6F6F6E"></path><path d="M515.947 240.631L527.201 247.315L534.264 243.42L516.321 240.188L515.947 240.631Z" fill="#6F6F6E"></path><path d="M515.898 240.143L527.197 246.838L534.261 242.944L522.089 238.618L515.898 240.143Z" fill="#969696"></path><path d="M522.491 229.927L525.66 231.769L518.761 235.823L515.592 233.782L522.491 229.927Z" fill="#FED276"></path><path d="M515.59 233.781V239.275L518.844 241.179L518.872 235.771L515.59 233.781Z" fill="#ECAA5F"></path><path d="M525.658 231.771V237.287L518.844 241.181L518.872 235.773L525.658 231.771Z" fill="#FABD6E"></path><path d="M522.764 233.476L521.533 232.676L520.625 233.271L521.777 234.054L522.764 233.476Z" fill="white"></path><path d="M521.773 234.043V235.637L522.76 235.076V233.465L521.773 234.043Z" fill="#FFE8C6"></path><path d="M526.573 232.535L529.742 234.378L522.843 238.425L519.674 236.39L526.573 232.535Z" fill="#FED276"></path><path d="M519.674 236.39V241.883L522.928 243.788L522.956 238.38L519.674 236.39Z" fill="#ECAA5F"></path><path d="M529.742 234.378V239.894L522.928 243.789L522.956 238.38L529.742 234.378Z" fill="#FABD6E"></path><path d="M526.848 236.077L525.617 235.283L524.709 235.873L525.861 236.656L526.848 236.077Z" fill="white"></path><path d="M525.859 236.652V238.246L526.846 237.684V236.067L525.859 236.652Z" fill="#FFE8C6"></path><path d="M530.919 235.216L534.088 237.058L527.189 241.106L524.02 239.065L530.919 235.216Z" fill="#FED276"></path><path d="M524.018 239.065V244.564L527.272 246.469L527.3 241.055L524.018 239.065Z" fill="#ECAA5F"></path><path d="M534.088 237.061V242.571L527.273 246.471L527.302 241.057L534.088 237.061Z" fill="#FABD6E"></path><path d="M531.191 238.76L529.96 237.966L529.053 238.556L530.204 239.339L531.191 238.76Z" fill="white"></path><path d="M530.203 239.332V240.926L531.19 240.365V238.748L530.203 239.332Z" fill="#FFE8C6"></path><path d="M523.383 238.538V253.261L523.717 253.063V238.227L523.383 238.538Z" fill="#969696"></path><path d="M523.383 238.538V253.255L523.049 253.051V238.227L523.383 238.538Z" fill="#6F6F6E"></path><path d="M519.648 236.371V251.094L519.983 250.901V236.15L519.648 236.371Z" fill="#969696"></path><path d="M519.649 236.373V251.09L519.32 250.891V236.191L519.649 236.373Z" fill="#6F6F6E"></path><path d="M523.966 244.564L523.422 244.689L526.818 246.668L526.948 246.311L523.966 244.564Z" fill="#969696"></path><path d="M523.389 238.509V253.226L523.723 253.033V238.197L523.389 238.509Z" fill="#969696"></path><path d="M523.389 238.509V253.22L523.055 253.022V238.197L523.389 238.509Z" fill="#6F6F6E"></path><path d="M519.656 236.343V251.066L519.985 250.873V236.15L519.656 236.343Z" fill="#969696"></path><path d="M519.657 236.344V251.061L519.322 250.863V236.117L519.657 236.344Z" fill="#6F6F6E"></path><path d="M527.154 240.318V255.041L527.489 254.848V240.125L527.154 240.318Z" fill="#969696"></path><path d="M527.159 240.318V255.035L526.83 254.836V240.091L527.159 240.318Z" fill="#6F6F6E"></path><path d="M515.922 234.184V248.907L516.256 248.714V233.872L515.922 234.184Z" fill="#969696"></path><path d="M515.923 234.184V248.901L515.594 248.703V233.872L515.923 234.184Z" fill="#6F6F6E"></path><path opacity="0.3" d="M510.963 228.545V265.334L531.939 277.417V240.139L510.963 228.545Z" fill="#292D67"></path></g><path d="M380.003 277.895L409.592 295.113L345.135 332.924L315.545 313.882L380.003 277.895Z" fill="#FED276"></path><path d="M315.545 313.882V365.208L345.934 382.994L346.214 332.459L315.545 313.882Z" fill="#ECAA5F"></path><path d="M409.592 295.112V346.599L345.934 382.994L346.214 332.459L409.592 295.112Z" fill="#FABD6E"></path><path d="M382.512 311.003L371.027 303.565L362.566 309.092L373.307 316.401L382.512 311.003Z" fill="white"></path><path d="M373.316 316.337V331.211L382.513 325.965V310.898L373.316 316.337Z" fill="#FFE8C6"></path><path d="M351.764 266.714L366.719 275.415L334.146 294.52L319.191 284.9L351.764 266.714Z" fill="#FED276"></path><path d="M319.189 284.899V310.834L334.552 319.823L334.688 294.288L319.189 284.899Z" fill="#ECAA5F"></path><path d="M366.718 275.415V301.43L334.553 319.824L334.689 294.289L366.718 275.415Z" fill="#FABD6E"></path><path opacity="0.69" d="M326.834 292.329V314.905" stroke="#ECAA5F" stroke-width="0.579448" stroke-miterlimit="10"></path><path d="M324.875 307.517V314.17L329.385 316.769V310.276L324.875 307.517Z" fill="white"></path><path d="M331.648 285.18L325.002 288.443L329.56 291.226L336.078 287.923L331.648 285.18Z" fill="#FFE8C6"></path><path d="M325.041 288.45V295.608L329.551 298.367V291.209L325.041 288.45Z" fill="white"></path><path d="M367.813 276.015L382.768 284.716L350.195 303.821L335.24 294.2L367.813 276.015Z" fill="#FED276"></path><path d="M382.767 284.716V310.731L350.594 329.124L350.738 303.589L382.767 284.716Z" fill="#FABD6E"></path><path d="M335.24 294.201V320.136L350.595 329.125L350.739 303.59L335.24 294.201Z" fill="#ECAA5F"></path><path d="M346.907 293.969L340.262 297.232L344.82 300.015L351.338 296.712L346.907 293.969Z" fill="#FFE8C6"></path><path opacity="0.69" d="M342.127 301.086V323.654" stroke="#ECAA5F" stroke-width="0.579448" stroke-miterlimit="10"></path><path d="M340.176 316.266V322.919L344.686 325.526V319.033L340.176 316.266Z" fill="white"></path><path d="M340.344 297.208V304.358L344.854 307.125V299.967L340.344 297.208Z" fill="white"></path><path d="M364.775 342.761V392.2" stroke="#F59B08" stroke-width="0.579448" stroke-miterlimit="10"></path><path d="M298.029 304.909L316.335 314.506V364.081L297.773 352.605L298.029 304.909Z" fill="#FED276"></path><path opacity="0.5" d="M336.976 326.981L316.351 314.529L316.199 321.423L330.858 330.46" fill="#FABD6E"></path><path opacity="0.37" d="M330.859 330.46L338.561 335.203V375.837L345.934 371.798L346.214 332.46L336.977 326.981L330.859 330.46Z" fill="#0C5A9B"></path><path d="M346.254 332.796L364.56 342.385V391.959L345.998 380.491L346.254 332.796Z" fill="#FED276"></path><g style="mix-blend-mode:multiply"><path d="M86.9882 478.201L93.4586 474.525C107.038 481.712 228.038 553.705 230.265 545.771C231.48 541.457 238.503 542.843 236.183 538.849C235.396 537.494 234.501 536.201 233.535 534.979C234.867 536.544 236.089 538.21 237.125 540.001C237.125 540.001 244.499 549.275 243.253 553.697C240.971 561.834 219.138 557.987 205.216 550.614C198.458 547.032 98.8935 486.766 86.957 479.485C86.482 479.189 86.4976 478.481 86.9882 478.201Z" fill="#010236"></path></g><path d="M121.974 479.678L1211.16 1112.28" stroke="white" stroke-width="0.802776" stroke-miterlimit="10" stroke-linecap="round"></path><path d="M239.706 511.836C247.219 516.142 253.542 522.348 257.653 529.971C260.55 535.328 240.515 544.64 240.515 544.64C235.921 546.867 215.537 548.097 203.359 541.3C194.389 536.293 118.589 489.746 90.2851 473.091L86.61 454.03L107.906 455.284L161.484 466.971L239.706 511.836Z" fill="#0DA5D8"></path><path d="M236.864 495.974L158.642 451.109L107.33 439.913L107.618 439.765L159.864 451.164L236.14 494.915C241.715 498.116 246.612 502.39 250.404 507.522C246.682 502.873 242.073 498.957 236.864 495.974Z" fill="#25BCEA"></path><path d="M256.603 529.335C253.426 539.426 218.605 532.589 201.475 522.817C192.77 517.858 120.59 475.305 92.9954 459.063C88.3625 456.337 88.5649 449.579 93.338 447.118L107.338 439.908L158.65 451.105L237.37 495.62C242.579 498.602 246.69 502.869 250.412 507.509C251.604 509.121 252.694 510.811 253.651 512.586C256.47 517.819 258.331 523.845 256.603 529.335Z" fill="#0C5A9B"></path><path d="M158.713 430.95V458.179L125.169 478.12L125.193 449.746L158.713 430.95Z" fill="#66C6F1"></path><path d="M155.105 440.162V442.623L153.065 443.868V441.307L155.105 440.162Z" fill="#16417D"></path><path d="M147.18 444.39V446.85L145.14 448.096V445.534L147.18 444.39Z" fill="#16417D"></path><path d="M139.252 448.618V451.079L137.212 452.324V449.763L139.252 448.618Z" fill="#16417D"></path><path d="M131.326 452.846V455.306L129.286 456.552V453.99L131.326 452.846Z" fill="#16417D"></path><path d="M155.105 448.805V451.257L153.065 452.511V449.949L155.105 448.805Z" fill="#16417D"></path><path d="M147.18 453.032V455.485L145.14 456.739V454.177L147.18 453.032Z" fill="#16417D"></path><path d="M139.252 457.261V459.721L137.212 460.967V458.405L139.252 457.261Z" fill="#16417D"></path><path d="M131.326 461.488V463.949L129.286 465.195V462.633L131.326 461.488Z" fill="#16417D"></path><path d="M158.713 430.951L134.56 419.295L101.397 436.713L125.193 449.747L158.713 430.951Z" fill="white"></path><path d="M149.842 417.839V430.009L125.829 444.281L125.844 431.286L149.842 417.839Z" fill="#66C6F1"></path><path d="M149.797 417.878L131.18 409.048L108.841 421.677L125.807 431.262L149.797 417.878Z" fill="white"></path><path d="M108.823 421.545L125.844 431.005L125.828 444.281L108.823 434.159V421.545Z" fill="#C1E5F8"></path><path d="M149.842 423.25L125.852 436.541L125.86 438.566L149.795 425.15L149.842 423.25Z" fill="#16417D"></path><path d="M108.801 427.042L125.854 436.588L125.838 438.613L108.848 428.942L108.801 427.042Z" fill="#16417D"></path><path d="M236.561 499.626L203.601 521.007C202.176 521.934 200.354 521.973 198.89 521.109L126.485 478.416L162.162 456.287L236.46 497.072C237.456 497.609 237.503 499.011 236.561 499.626Z" fill="#282E67"></path><path opacity="0.5" d="M233.002 502.008L169.488 464.322L169.309 457.961L236.288 497.033C237.284 497.609 237.331 499.026 236.389 499.68L233.002 502.008Z" fill="#4E83B3"></path><path d="M90.4095 446.967L105.063 439.422L107.329 439.92L93.3294 447.13C88.5485 449.591 88.3539 456.349 92.9868 459.075C120.582 475.317 192.769 517.862 201.466 522.829C218.596 532.601 253.417 539.438 256.594 529.347C258.322 523.857 256.462 517.831 253.635 512.606C252.677 510.831 251.587 509.141 250.396 507.529C252.047 509.585 253.542 511.773 254.803 514.116C257.7 519.474 259.607 525.656 257.832 531.285C254.577 541.641 218.869 534.626 201.295 524.605C192.372 519.512 118.347 475.878 90.0435 459.223C85.3094 456.42 85.5119 449.49 90.4095 446.967Z" fill="#25BCEA"></path><path d="M101.42 436.526L125.191 449.748L125.168 478.121L101.42 463.973V436.526Z" fill="#C1E5F8"></path><path fill-rule="evenodd" clip-rule="evenodd" d="M199.263 465.522C198.936 465.522 198.672 465.787 198.672 466.113V481.413C198.672 481.74 198.936 482.004 199.263 482.004C199.589 482.004 199.854 481.74 199.854 481.413V466.113C199.854 465.787 199.589 465.522 199.263 465.522Z" fill="#E62635"></path><path fill-rule="evenodd" clip-rule="evenodd" d="M196.849 466.9C196.522 466.9 196.258 467.165 196.258 467.491V482.784C196.258 483.11 196.522 483.374 196.849 483.374C197.175 483.374 197.439 483.11 197.439 482.784V467.491C197.439 467.165 197.175 466.9 196.849 466.9Z" fill="#E62635"></path><path fill-rule="evenodd" clip-rule="evenodd" d="M194.442 468.271C194.116 468.271 193.852 468.536 193.852 468.862V484.155C193.852 484.481 194.116 484.746 194.442 484.746C194.769 484.746 195.033 484.481 195.033 484.155V468.862C195.033 468.536 194.769 468.271 194.442 468.271Z" fill="#E62635"></path><path fill-rule="evenodd" clip-rule="evenodd" d="M192.036 469.642C191.71 469.642 191.445 469.906 191.445 470.232V485.525C191.445 485.851 191.71 486.116 192.036 486.116C192.362 486.116 192.627 485.851 192.627 485.525V470.232C192.627 469.906 192.362 469.642 192.036 469.642Z" fill="#E62635"></path><path fill-rule="evenodd" clip-rule="evenodd" d="M189.622 471.013C189.296 471.013 189.031 471.277 189.031 471.604V486.904C189.031 487.23 189.296 487.495 189.622 487.495C189.948 487.495 190.213 487.23 190.213 486.904V471.604C190.213 471.277 189.948 471.013 189.622 471.013Z" fill="#E62635"></path><path d="M214.883 507.008L188.191 491.599L188.152 470.988L214.883 486.429V507.008Z" fill="#41B1E6"></path><path d="M228.252 478.704L228.314 499.322L214.883 507.008V486.428L228.252 478.704Z" fill="#448ECC"></path><path d="M214.883 486.429L228.252 478.705L201.521 463.272L188.152 470.989L214.883 486.429Z" fill="#71C9EB"></path><g style="mix-blend-mode:multiply" opacity="0.5"><path fill-rule="evenodd" clip-rule="evenodd" d="M226.377 481.708C226.105 481.708 225.883 481.929 225.883 482.202V497.494C225.883 497.767 226.105 497.988 226.377 497.988C226.65 497.988 226.871 497.767 226.871 497.494V482.202C226.871 481.929 226.65 481.708 226.377 481.708Z" fill="#0097BF"></path></g><g style="mix-blend-mode:multiply" opacity="0.5"><path fill-rule="evenodd" clip-rule="evenodd" d="M223.963 483.078C223.69 483.078 223.469 483.299 223.469 483.572V498.872C223.469 499.145 223.69 499.366 223.963 499.366C224.236 499.366 224.457 499.145 224.457 498.872V483.572C224.457 483.299 224.236 483.078 223.963 483.078Z" fill="#0097BF"></path></g><g style="mix-blend-mode:multiply" opacity="0.5"><path fill-rule="evenodd" clip-rule="evenodd" d="M221.557 484.456C221.284 484.456 221.063 484.677 221.063 484.95V500.242C221.063 500.515 221.284 500.736 221.557 500.736C221.83 500.736 222.051 500.515 222.051 500.242V484.95C222.051 484.677 221.83 484.456 221.557 484.456Z" fill="#0097BF"></path></g><g style="mix-blend-mode:multiply" opacity="0.5"><path fill-rule="evenodd" clip-rule="evenodd" d="M219.151 485.827C218.878 485.827 218.657 486.048 218.657 486.321V501.613C218.657 501.886 218.878 502.107 219.151 502.107C219.423 502.107 219.645 501.886 219.645 501.613V486.321C219.645 486.048 219.423 485.827 219.151 485.827Z" fill="#0097BF"></path></g><g style="mix-blend-mode:multiply" opacity="0.5"><path fill-rule="evenodd" clip-rule="evenodd" d="M216.737 487.197C216.464 487.197 216.243 487.418 216.243 487.691V502.991C216.243 503.264 216.464 503.485 216.737 503.485C217.009 503.485 217.23 503.264 217.23 502.991V487.691C217.23 487.418 217.009 487.197 216.737 487.197Z" fill="#0097BF"></path></g><path fill-rule="evenodd" clip-rule="evenodd" d="M191.119 475.183C190.847 475.183 190.626 475.404 190.626 475.676V490.766C190.626 491.039 190.847 491.26 191.119 491.26C191.392 491.26 191.613 491.039 191.613 490.766V475.676C191.613 475.404 191.392 475.183 191.119 475.183Z" fill="#0097BF"></path><path fill-rule="evenodd" clip-rule="evenodd" d="M193.471 476.537C193.198 476.537 192.977 476.758 192.977 477.031V492.121C192.977 492.394 193.198 492.615 193.471 492.615C193.744 492.615 193.965 492.394 193.965 492.121V477.031C193.965 476.758 193.744 476.537 193.471 476.537Z" fill="#0097BF"></path><path fill-rule="evenodd" clip-rule="evenodd" d="M195.815 477.892C195.542 477.892 195.321 478.113 195.321 478.385V493.483C195.321 493.756 195.542 493.977 195.815 493.977C196.087 493.977 196.309 493.756 196.309 493.483V478.385C196.309 478.113 196.087 477.892 195.815 477.892Z" fill="#0097BF"></path><path fill-rule="evenodd" clip-rule="evenodd" d="M198.166 479.255C197.894 479.255 197.672 479.476 197.672 479.749V494.839C197.672 495.111 197.894 495.333 198.166 495.333C198.439 495.333 198.66 495.111 198.66 494.839V479.749C198.66 479.476 198.439 479.255 198.166 479.255Z" fill="#0097BF"></path><path fill-rule="evenodd" clip-rule="evenodd" d="M200.508 480.609C200.235 480.609 200.014 480.83 200.014 481.103V496.201C200.014 496.474 200.235 496.695 200.508 496.695C200.781 496.695 201.002 496.474 201.002 496.201V481.103C201.002 480.83 200.781 480.609 200.508 480.609Z" fill="#0097BF"></path><path fill-rule="evenodd" clip-rule="evenodd" d="M202.852 481.972C202.579 481.972 202.358 482.193 202.358 482.466V497.555C202.358 497.828 202.579 498.049 202.852 498.049C203.125 498.049 203.346 497.828 203.346 497.555V482.466C203.346 482.193 203.125 481.972 202.852 481.972Z" fill="#0097BF"></path><path fill-rule="evenodd" clip-rule="evenodd" d="M205.205 483.327C204.933 483.327 204.712 483.548 204.712 483.821V498.911C204.712 499.184 204.933 499.405 205.205 499.405C205.478 499.405 205.699 499.184 205.699 498.911V483.821C205.699 483.548 205.478 483.327 205.205 483.327Z" fill="#0097BF"></path><path fill-rule="evenodd" clip-rule="evenodd" d="M207.549 484.682C207.276 484.682 207.055 484.903 207.055 485.175V500.273C207.055 500.546 207.276 500.767 207.549 500.767C207.822 500.767 208.043 500.546 208.043 500.273V485.175C208.043 484.903 207.822 484.682 207.549 484.682Z" fill="#0097BF"></path><path fill-rule="evenodd" clip-rule="evenodd" d="M209.899 486.045C209.626 486.045 209.405 486.266 209.405 486.539V501.629C209.405 501.901 209.626 502.123 209.899 502.123C210.171 502.123 210.393 501.901 210.393 501.629V486.539C210.393 486.266 210.171 486.045 209.899 486.045Z" fill="#0097BF"></path><path fill-rule="evenodd" clip-rule="evenodd" d="M212.244 487.399C211.972 487.399 211.751 487.621 211.751 487.893V502.991C211.751 503.264 211.972 503.485 212.244 503.485C212.517 503.485 212.738 503.264 212.738 502.991V487.893C212.738 487.621 212.517 487.399 212.244 487.399Z" fill="#0097BF"></path><path d="M104.122 444.281V446.734L106.17 447.988L106.162 445.426L104.122 444.281Z" fill="#16417D"></path><path d="M111.915 448.734V451.195L113.963 452.441L113.955 449.879L111.915 448.734Z" fill="#16417D"></path><path d="M119.718 453.196V455.649L121.758 456.903L121.75 454.341L119.718 453.196Z" fill="#16417D"></path><path d="M104.122 452.924V455.377L106.17 456.622L106.162 454.068L104.122 452.924Z" fill="#16417D"></path><path d="M111.915 457.378V459.838L113.963 461.084L113.955 458.523L111.915 457.378Z" fill="#16417D"></path><path d="M119.718 461.839V464.292L121.758 465.537L121.75 462.983L119.718 461.839Z" fill="#16417D"></path><path d="M126.289 405.092L127.426 416.702L122.645 419.404L117.646 416.702L111.542 420.151L115.777 403.8L122.193 407.234L126.289 405.092Z" fill="#282E67"></path><path d="M180.924 451.078L180.986 472.498L167.033 479.857V459.098L180.924 451.078Z" fill="#C51F2E"></path><path fill-rule="evenodd" clip-rule="evenodd" d="M179.218 454.718C179.073 454.718 178.956 454.835 178.956 454.98V470.872C178.956 471.017 179.073 471.134 179.218 471.134C179.363 471.134 179.48 471.017 179.48 470.872V454.98C179.48 454.835 179.363 454.718 179.218 454.718Z" fill="#B00A18"></path><path fill-rule="evenodd" clip-rule="evenodd" d="M176.718 456.144C176.573 456.144 176.456 456.261 176.456 456.406V472.298C176.456 472.443 176.573 472.56 176.718 472.56C176.863 472.56 176.98 472.443 176.98 472.298V456.406C176.98 456.261 176.863 456.144 176.718 456.144Z" fill="#B00A18"></path><path fill-rule="evenodd" clip-rule="evenodd" d="M174.212 457.575C174.067 457.575 173.95 457.693 173.95 457.837V473.722C173.95 473.867 174.067 473.984 174.212 473.984C174.357 473.984 174.475 473.867 174.475 473.722V457.837C174.475 457.693 174.357 457.575 174.212 457.575Z" fill="#B00A18"></path><path fill-rule="evenodd" clip-rule="evenodd" d="M171.71 459.001C171.566 459.001 171.448 459.118 171.448 459.263V475.147C171.448 475.292 171.566 475.41 171.71 475.41C171.855 475.41 171.973 475.292 171.973 475.147V459.263C171.973 459.118 171.855 459.001 171.71 459.001Z" fill="#B00A18"></path><path fill-rule="evenodd" clip-rule="evenodd" d="M169.212 460.426C169.067 460.426 168.95 460.543 168.95 460.688V476.58C168.95 476.725 169.067 476.842 169.212 476.842C169.357 476.842 169.475 476.725 169.475 476.58V460.688C169.475 460.543 169.357 460.426 169.212 460.426Z" fill="#B00A18"></path><path d="M167.033 479.857L139.306 463.038L139.259 443.059L167.033 459.099V479.857Z" fill="#E62635"></path><path d="M167.031 459.099L180.922 451.079L153.148 435.039L139.257 443.059L167.031 459.099Z" fill="#EB5C51"></path><path fill-rule="evenodd" clip-rule="evenodd" d="M142.032 446.832C141.914 446.832 141.818 446.928 141.818 447.046V462.938C141.818 463.056 141.914 463.152 142.032 463.152C142.15 463.152 142.246 463.056 142.246 462.938V447.046C142.246 446.928 142.15 446.832 142.032 446.832Z" fill="#B00A18"></path><path fill-rule="evenodd" clip-rule="evenodd" d="M144.501 448.257C144.383 448.257 144.287 448.353 144.287 448.471V464.363C144.287 464.481 144.383 464.577 144.501 464.577C144.619 464.577 144.715 464.481 144.715 464.363V448.471C144.715 448.353 144.619 448.257 144.501 448.257Z" fill="#B00A18"></path><path fill-rule="evenodd" clip-rule="evenodd" d="M146.97 449.688C146.852 449.688 146.756 449.784 146.756 449.902V465.794C146.756 465.912 146.852 466.008 146.97 466.008C147.088 466.008 147.184 465.912 147.184 465.794V449.902C147.184 449.784 147.088 449.688 146.97 449.688Z" fill="#B00A18"></path><path fill-rule="evenodd" clip-rule="evenodd" d="M149.446 451.122C149.328 451.122 149.232 451.218 149.232 451.336V467.22C149.232 467.338 149.328 467.434 149.446 467.434C149.564 467.434 149.66 467.338 149.66 467.22V451.336C149.66 451.218 149.564 451.122 149.446 451.122Z" fill="#B00A18"></path><path fill-rule="evenodd" clip-rule="evenodd" d="M151.915 452.547C151.797 452.547 151.701 452.643 151.701 452.761V468.653C151.701 468.771 151.797 468.867 151.915 468.867C152.033 468.867 152.129 468.771 152.129 468.653V452.761C152.129 452.643 152.033 452.547 151.915 452.547Z" fill="#B00A18"></path><path fill-rule="evenodd" clip-rule="evenodd" d="M154.382 453.979C154.264 453.979 154.168 454.075 154.168 454.193V470.085C154.168 470.203 154.264 470.299 154.382 470.299C154.5 470.299 154.596 470.203 154.596 470.085V454.193C154.596 454.075 154.5 453.979 154.382 453.979Z" fill="#B00A18"></path><path fill-rule="evenodd" clip-rule="evenodd" d="M156.858 455.404C156.74 455.404 156.645 455.5 156.645 455.618V471.51C156.645 471.628 156.74 471.724 156.858 471.724C156.977 471.724 157.072 471.628 157.072 471.51V455.618C157.072 455.5 156.977 455.404 156.858 455.404Z" fill="#B00A18"></path><path fill-rule="evenodd" clip-rule="evenodd" d="M159.327 456.837C159.209 456.837 159.113 456.933 159.113 457.051V472.943C159.113 473.061 159.209 473.157 159.327 473.157C159.445 473.157 159.541 473.061 159.541 472.943V457.051C159.541 456.933 159.445 456.837 159.327 456.837Z" fill="#B00A18"></path><path fill-rule="evenodd" clip-rule="evenodd" d="M161.794 458.271C161.676 458.271 161.58 458.366 161.58 458.484V474.369C161.58 474.487 161.676 474.582 161.794 474.582C161.912 474.582 162.008 474.487 162.008 474.369V458.484C162.008 458.366 161.912 458.271 161.794 458.271Z" fill="#B00A18"></path><path fill-rule="evenodd" clip-rule="evenodd" d="M164.271 459.694C164.152 459.694 164.057 459.79 164.057 459.908V475.8C164.057 475.918 164.152 476.014 164.271 476.014C164.389 476.014 164.484 475.918 164.484 475.8V459.908C164.484 459.79 164.389 459.694 164.271 459.694Z" fill="#B00A18"></path><path d="M534.542 470.248L1564 1068.28" stroke="white" stroke-width="0.802776" stroke-miterlimit="10" stroke-linecap="round"></path><g style="mix-blend-mode:multiply"><path fill-rule="evenodd" clip-rule="evenodd" d="M476.37 447.296L480.489 409.738L486.213 413.619L493.617 435.236L498.179 428.186L499.531 429.642C500.884 431.203 501.508 433.284 501.092 435.365L499.011 445.352L540.838 468.972L576.942 433.596C585.682 439.214 582.248 448.683 582.248 448.683L565.601 482.394L594.214 498.625C594.214 498.625 600.353 505.076 606.803 513.296C613.254 521.515 606.491 525.989 606.491 525.989C605.501 526.792 604.37 527.361 603.15 527.743L603.162 527.758C602.917 527.827 602.67 527.89 602.421 527.947C600.336 528.463 598.034 528.486 595.759 528.232C589.009 527.531 582.774 524.431 582.566 524.327L582.561 524.325L582.547 524.317L561.138 511.839H560.273V511.335L547.035 503.619H545.498V502.724L533.359 495.649C533.525 496.311 533.592 497.031 533.539 497.778C533.331 500.759 531.302 503.045 529.009 502.885C528.103 502.821 527.291 502.385 526.653 501.696L526.508 501.986L515.117 494.1L471.231 500.394C467.069 500.29 462.803 498.313 462.803 498.313L462.86 498.304C457.153 496.341 452.814 492.278 452.814 492.278L504.862 479.04L496.514 474.174L483.084 460.604L468.838 460.336C465.612 460.232 459.473 458.879 455.208 456.798C454.063 456.174 453.231 455.654 453.231 455.654L453.335 454.197L453.466 454.158C453.381 454.116 453.335 454.093 453.335 454.093C453.24 454.187 472.726 448.382 476.37 447.296ZM496.618 444.001L493.95 436.21L496.867 444.141L496.618 444.001Z" fill="#0C1570"></path></g><g opacity="0.57"><path opacity="0.57" d="M524.902 480.911C524.902 480.911 522.301 479.247 519.076 477.27C515.85 475.293 511.272 474.773 508.983 476.021C506.59 477.374 506.694 479.455 509.087 480.807C511.48 482.16 513.457 483.2 513.457 483.2" fill="#00A8DC"></path></g><path d="M521.887 482.055L533.54 489.963L534.164 480.391" fill="#89D2F6"></path><path d="M481.411 395.593L481.931 440.645L501.596 461.142L588.059 512.229C588.059 512.229 604.29 520.137 611.989 513.894C611.989 513.894 618.752 509.42 612.302 501.2C605.851 492.98 599.712 486.53 599.712 486.53L571.099 470.298L587.746 436.587C587.746 436.587 591.18 427.119 582.44 421.5L546.336 456.876L502.116 431.905L491.711 401.523L481.411 395.593Z" fill="#C5E7FA"></path><path d="M499.098 423.165L503.676 416.09L505.029 417.546C506.381 419.107 507.006 421.188 506.589 423.269L504.508 433.258L502.427 432.217L499.098 423.165Z" fill="#4580C2"></path><path d="M608.66 515.662L590.244 491.732L481.931 430.656L482.139 441.893L483.388 442.622C482.972 442.414 482.556 442.101 482.139 441.893L482.139 441.997L502.012 462.078L588.059 512.229C588.059 512.229 599.816 518.16 608.66 515.662Z" fill="#89D2F6"></path><path d="M479.538 440.437C479.642 440.437 480.474 441.061 482.139 441.997L479.538 440.437Z" fill="#2A306F"></path><path d="M482.241 437.315C482.241 437.315 464.345 440.437 458.83 442.102L458.726 443.558C458.726 443.558 459.558 444.078 460.703 444.703C464.969 446.784 471.108 448.136 474.333 448.24L496.495 448.657L496.703 445.431L482.241 437.315Z" fill="#2368B1"></path><path d="M536.037 460.414L458.314 480.183C458.314 480.183 464.869 486.322 472.465 487.154L560.904 472.275L559.136 463.327L546.338 463.119L536.037 460.414Z" fill="#C5E7FA"></path><path d="M482.451 435.026C482.451 435.026 458.729 442.102 458.833 441.997C458.833 441.997 459.665 442.414 460.81 442.934C465.075 445.015 469.758 445.951 474.44 445.847L496.602 445.223L482.451 435.026Z" fill="#C5E7FA"></path><path d="M551.85 491.524L551.85 476.229L566.625 484.137L566.625 499.744" stroke="#134483" stroke-width="0.821851" stroke-miterlimit="10"></path><path d="M468.301 486.217C468.301 486.217 472.567 488.194 476.729 488.298L556.533 476.853L556.949 472.899L468.301 486.217Z" fill="#2368B1"></path><path d="M595.447 498.599C595.447 498.599 602.418 496.622 605.227 492.772L613.135 502.449C613.135 502.449 613.863 509.316 605.331 511.397L595.447 498.599Z" fill="#2368B1"></path><path d="M570.684 491.94C569.649 491.94 568.811 490.682 568.811 489.131C568.811 487.579 569.649 486.321 570.684 486.321C571.718 486.321 572.557 487.579 572.557 489.131C572.557 490.682 571.718 491.94 570.684 491.94Z" fill="#134483"></path><path d="M577.03 495.062C575.995 495.062 575.157 493.804 575.157 492.253C575.157 490.701 575.995 489.443 577.03 489.443C578.064 489.443 578.902 490.701 578.902 492.253C578.902 493.804 578.064 495.062 577.03 495.062Z" fill="#134483"></path><path d="M520.117 463.64C519.083 463.64 518.245 462.382 518.245 460.831C518.245 459.279 519.083 458.021 520.117 458.021C521.152 458.021 521.99 459.279 521.99 460.831C521.99 462.382 521.152 463.64 520.117 463.64Z" fill="#134483"></path><path d="M512.522 458.854C511.487 458.854 510.649 457.596 510.649 456.045C510.649 454.493 511.487 453.235 512.522 453.235C513.556 453.235 514.395 454.493 514.395 456.045C514.395 457.596 513.556 458.854 512.522 458.854Z" fill="#134483"></path><path d="M504.924 455.108C503.89 455.108 503.051 453.85 503.051 452.299C503.051 450.747 503.89 449.489 504.924 449.489C505.958 449.489 506.797 450.747 506.797 452.299C506.797 453.85 505.958 455.108 504.924 455.108Z" fill="#134483"></path><path d="M581.297 490.796L595.447 498.599L605.436 511.397L580.881 497.767" fill="#134483"></path><path d="M534.507 490.789C532.214 490.628 530.525 488.081 530.734 485.1C530.943 482.12 532.971 479.833 535.264 479.994C537.557 480.155 539.247 482.702 539.038 485.683C538.829 488.664 536.8 490.95 534.507 490.789Z" fill="#134483"></path><path d="M761.651 111.339V135.062L714.16 161.65L714.436 138.879L761.651 111.339Z" fill="#94D5F7"></path><path d="M732.088 94.1367L761.65 111.339L713.359 139.344L683.805 120.325L732.088 94.1367Z" fill="#C4E6F9"></path><path d="M683.805 120.325V143.889L714.159 161.651L714.435 138.879L683.805 120.325Z" fill="#49C1ED"></path><path opacity="0.51" d="M761.649 115.919V117.795L714.158 144.645V142.274L761.649 115.919Z" fill="#05A7DB"></path><path d="M763.133 107.849V115.883L713.832 143.488L714.123 136.443L763.133 107.849Z" fill="#94D5F7"></path><path d="M732.443 90L763.132 107.849L713.002 136.931L682.32 117.177L732.443 90Z" fill="#C4E6F9"></path><path d="M682.32 117.177V125.051L713.831 143.489L714.121 136.443L682.32 117.177Z" fill="#49C1ED"></path><path opacity="0.51" d="M683.805 125.451L714.159 143.307V144.645L683.805 126.883V125.451Z" fill="#05A7DB"></path><g style="mix-blend-mode:multiply"><path d="M777.957 175.922C777.957 175.922 769.8 181.855 750.802 181.855C731.761 181.855 723.051 174.992 723.051 168.877C723.051 161.948 739.649 157.339 739.649 157.339" fill="#0C1570"></path></g><path d="M745.227 164.479C742.689 163.745 740.61 162.741 739.091 161.753C738.443 161.331 737.825 160.662 737.673 160.08C737.44 159.215 737.636 158.525 737.935 158.016C738.254 157.652 738.611 157.296 738.967 156.976C738.974 156.976 738.974 156.969 738.974 156.969C738.981 156.961 738.981 156.961 738.981 156.961C740.174 155.907 741.403 155.18 741.403 155.18L750.156 150.207L762.327 137.302L762.538 137.171L762.61 137.302V138.611L751.181 150.323C751.181 150.323 748.724 152.803 751.181 154.097C753.631 155.391 756.874 154.315 758.154 153.646C759.426 152.97 770.208 141.417 770.208 141.417L773.931 142.413C773.931 142.413 780.968 141.861 785.243 138.065C787.097 136.415 788.435 134.147 788.435 131.049C788.435 129.072 787.984 127.981 787.388 127.363L787.454 127.298C789.897 129.035 790.151 133.587 790.885 138.349C790.987 138.996 791.06 139.599 791.103 140.174C791.431 144.536 790.18 147.015 787.635 149.349C784.109 152.585 781.935 152.897 778.7 154.984C775.741 156.896 774.57 159.077 769.546 161.636C759.906 166.529 751.276 166.246 745.227 164.479Z" fill="#2A388D"></path><path d="M785.07 137.883C785.07 137.883 785.077 137.876 785.077 137.869L785.244 138.058C780.969 141.853 773.931 142.406 773.931 142.406L770.209 141.409C770.209 141.409 759.427 152.962 758.154 153.638C756.875 154.315 753.632 155.383 751.182 154.089C748.725 152.802 751.182 150.316 751.182 150.316L762.611 138.603V137.294L762.538 137.164L763.186 136.771L764.923 132.001C765.33 130.882 766.523 130.264 767.671 130.562L771.91 131.689L773.037 131.994L775.058 132.532C773.8 133.267 773.052 133.841 773.052 133.841L777.508 135.339C777.487 135.491 777.443 135.644 777.385 135.797L774.157 141.577C774.157 141.577 780.322 141.482 784.328 137.629L785.07 137.883Z" fill="#292D67"></path><path d="M784.328 137.636C785.819 136.204 787.011 134.248 787.476 131.587C787.585 130.976 787.622 130.453 787.6 130.002C789.657 131.943 785.31 137.592 785.084 137.876C785.077 137.883 785.077 137.89 785.077 137.89L784.328 137.636Z" fill="#292D67"></path><path d="M787.598 130.002C787.62 130.453 787.584 130.976 787.475 131.587C787.009 134.248 785.817 136.204 784.326 137.636L777.507 135.346C777.703 134.197 776.998 133.048 775.82 132.743L775.057 132.539C777.325 131.216 781.244 129.348 785.373 129.348C786.457 129.348 787.162 129.588 787.598 130.002Z" fill="#010202"></path><path d="M777.508 135.346L784.328 137.636C780.322 141.497 774.156 141.584 774.156 141.584L777.384 135.804C777.443 135.651 777.486 135.498 777.508 135.346Z" fill="#010202"></path><path d="M783.928 127.297C784.967 127.297 787.461 127.086 787.592 129.995C787.163 129.588 786.451 129.34 785.367 129.34C781.238 129.34 777.319 131.209 775.05 132.532L773.029 131.994C776.228 129.704 780.409 127.297 783.928 127.297Z" fill="#232652"></path><path d="M771.91 131.696C777.901 126.825 783.826 126.316 785.39 126.505C785.935 126.57 786.742 126.679 787.389 127.356C787.985 127.974 788.436 129.064 788.436 131.042C788.436 134.146 787.105 136.407 785.244 138.058L785.077 137.869C785.302 137.585 789.65 131.936 787.593 129.995C787.462 127.087 784.968 127.297 783.928 127.297C780.402 127.297 776.222 129.704 773.037 132.001L771.91 131.696Z" fill="#292D67"></path><path d="M775.821 132.744C776.999 133.049 777.704 134.198 777.508 135.346L773.051 133.849C773.051 133.849 773.8 133.274 775.057 132.54L775.821 132.744Z" fill="#292D67"></path><path d="M791.896 142.049C793.045 147.742 791.511 150.73 788.522 153.478C784.858 156.837 782.597 157.164 779.245 159.323C776.17 161.308 774.956 163.577 769.736 166.238C760 171.189 751.239 170.985 744.972 169.255L744.732 165.322C751.014 167.125 759.877 167.394 769.736 162.377C774.956 159.723 776.017 157.179 779.245 155.47C782.481 153.762 787.126 151.348 789.882 147.065C791.649 144.325 792.049 143.118 791.874 142.063L791.896 142.049Z" fill="#98D6F4"></path><path d="M736.801 160.538C736.837 161.185 737.208 161.81 738.058 162.37C739.687 163.431 741.955 164.522 744.725 165.314L744.965 169.248C742.086 168.448 739.738 167.328 738.058 166.23C737.39 165.794 737.15 165.213 736.961 164.616C736.284 162.384 736.553 160.501 736.801 160.538Z" fill="#4491CF"></path><path d="M779.245 155.456C776.01 157.165 774.956 159.709 769.736 162.363C759.877 167.38 751.014 167.111 744.732 165.308L745.227 164.479C751.276 166.246 759.913 166.529 769.547 161.629C774.57 159.07 775.748 156.889 778.7 154.976C781.935 152.89 784.109 152.577 787.635 149.342C790.18 147.008 791.431 144.521 791.103 140.166L791.169 140.159C791.496 140.901 791.78 141.446 791.874 142.042C792.056 143.096 791.649 144.311 789.882 147.044C787.119 151.334 782.481 153.748 779.245 155.456Z" fill="#C4E6F9"></path><path d="M737.667 160.08C737.827 160.662 738.437 161.331 739.084 161.753C740.604 162.741 742.683 163.745 745.221 164.479L744.726 165.308C741.956 164.515 739.688 163.425 738.059 162.363C737.209 161.804 736.838 161.178 736.801 160.531C736.743 159.688 737.245 158.808 737.928 158.016C737.63 158.525 737.434 159.215 737.667 160.08Z" fill="#98D6F4"></path><path d="M738.975 156.981C738.987 156.968 738.987 156.968 738.987 156.968C738.987 156.968 738.975 156.968 738.975 156.981Z" fill="#C4E6F9"></path><path d="M750.984 149.945C753.311 151.937 756.677 153.108 760.763 153.704Z" fill="#020203"></path><path d="M750.984 149.945C753.311 151.937 756.677 153.108 760.763 153.704" stroke="#98D6F4" stroke-width="2.73205" stroke-miterlimit="10" stroke-linecap="round"></path><path d="M753.508 147.139C755.5 149.051 759.179 150.265 763.643 151.036Z" fill="#020203"></path><path d="M753.508 147.139C755.5 149.051 759.179 150.265 763.643 151.036" stroke="#98D6F4" stroke-width="2.73205" stroke-miterlimit="10" stroke-linecap="round"></path><path d="M756.029 144.332C757.694 146.164 761.686 147.429 766.513 148.367Z" fill="#020203"></path><path d="M756.029 144.332C757.694 146.164 761.686 147.429 766.513 148.367" stroke="#98D6F4" stroke-width="2.73205" stroke-miterlimit="10" stroke-linecap="round"></path><path d="M758.553 141.519C759.883 143.263 764.187 144.579 769.386 145.685Z" fill="#020203"></path><path d="M758.553 141.519C759.883 143.263 764.187 144.579 769.386 145.685" stroke="#98D6F4" stroke-width="2.73205" stroke-miterlimit="10" stroke-linecap="round"></path><path d="M761.068 138.712C762.064 140.377 766.681 141.736 772.25 143.016Z" fill="#020203"></path><path d="M761.068 138.712C762.064 140.377 766.681 141.736 772.25 143.016" stroke="#98D6F4" stroke-width="2.73205" stroke-miterlimit="10" stroke-linecap="round"></path><path d="M801.783 150.941C802.931 156.634 801.397 159.622 798.409 162.371C794.745 165.73 792.484 166.057 789.132 168.216C786.057 170.201 784.842 172.469 779.622 175.13C769.887 180.081 761.126 179.878 754.859 178.148L754.619 174.214C760.901 176.017 769.764 176.286 779.622 171.27C784.842 168.616 785.904 166.071 789.132 164.363C792.367 162.654 797.013 160.24 799.769 155.958C801.535 153.217 801.935 152.01 801.761 150.956L801.783 150.941Z" fill="#98D6F4"></path><path d="M801.755 150.941C801.937 151.995 801.53 153.209 799.763 155.943C797.007 160.225 792.362 162.632 789.126 164.348C785.891 166.056 784.837 168.601 779.616 171.255C769.758 176.271 760.895 176.002 754.613 174.199L755.108 173.37C761.157 175.137 769.794 175.421 779.427 170.52C784.451 167.961 785.629 165.78 788.581 163.868C791.816 161.781 793.99 161.469 797.516 158.233C800.061 155.9 801.311 153.413 800.984 149.058L801.05 149.051C801.377 149.807 801.66 150.345 801.755 150.941Z" fill="#C4E6F9"></path><path d="M755.108 173.371C752.57 172.636 750.491 171.633 748.971 170.644C748.324 170.223 747.706 169.554 747.554 168.972C747.321 168.107 747.517 167.416 747.815 166.907C748.135 166.544 748.492 166.187 748.848 165.867C748.855 165.867 748.855 165.86 748.855 165.86C748.862 165.853 748.862 165.853 748.862 165.853C750.055 164.799 751.283 164.072 751.283 164.072L760.037 159.099L772.208 146.194L772.419 146.063L772.491 146.194V147.502L761.062 159.215C761.062 159.215 758.605 161.694 761.062 162.988C763.512 164.283 766.755 163.206 768.035 162.538C769.307 161.861 780.089 150.309 780.089 150.309L783.811 151.305C783.811 151.305 790.849 150.752 795.124 146.957C796.978 145.307 798.316 143.038 798.316 139.941C798.316 137.963 797.865 136.873 797.269 136.255L797.334 136.189C799.777 137.927 800.032 142.478 800.766 147.241C800.868 147.888 800.941 148.491 800.984 149.065C801.311 153.428 800.061 155.907 797.516 158.241C793.99 161.476 791.816 161.789 788.581 163.875C785.622 165.788 784.451 167.969 779.427 170.528C769.794 175.421 761.164 175.137 755.108 173.371Z" fill="#2A388D"></path><path d="M794.964 146.768C795.189 146.484 799.537 140.835 797.479 138.894C797.348 135.986 794.855 136.197 793.815 136.197C790.289 136.197 786.108 138.603 782.924 140.901L781.797 140.595C787.788 135.724 793.713 135.215 795.276 135.404C795.822 135.47 796.629 135.579 797.276 136.255C797.872 136.866 798.323 137.956 798.323 139.941C798.323 143.046 796.992 145.307 795.131 146.957L794.964 146.768Z" fill="#292D67"></path><path d="M797.479 138.895C799.537 140.836 795.189 146.485 794.964 146.768C794.956 146.776 794.956 146.783 794.956 146.783L794.215 146.536C795.705 145.103 796.898 143.148 797.363 140.487C797.465 139.869 797.501 139.345 797.479 138.895Z" fill="#292D67"></path><path d="M797.479 138.895C797.501 139.345 797.465 139.869 797.355 140.48C796.89 143.141 795.698 145.096 794.207 146.529L787.388 144.238C787.584 143.09 786.879 141.941 785.701 141.636L784.938 141.432C787.206 140.109 791.125 138.24 795.254 138.24C796.345 138.24 797.05 138.48 797.479 138.895Z" fill="#010202"></path><path d="M797.479 138.895C797.05 138.487 796.337 138.24 795.254 138.24C791.124 138.24 787.206 140.109 784.937 141.432L782.916 140.894C786.108 138.596 790.288 136.19 793.807 136.19C794.854 136.19 797.348 135.979 797.479 138.895Z" fill="#232652"></path><path d="M781.797 140.589L782.924 140.894L784.945 141.432C783.687 142.166 782.938 142.741 782.938 142.741L787.395 144.238C787.373 144.391 787.33 144.544 787.271 144.697L784.043 150.477C784.043 150.477 790.209 150.382 794.215 146.529L794.956 146.776C794.956 146.776 794.964 146.769 794.964 146.761L795.131 146.95C790.856 150.746 783.818 151.298 783.818 151.298L780.096 150.302C780.096 150.302 769.313 161.855 768.041 162.531C766.762 163.207 763.519 164.276 761.069 162.982C758.611 161.695 761.069 159.208 761.069 159.208L772.498 147.496V146.187L772.425 146.056L773.072 145.664L774.81 140.894C775.217 139.774 776.409 139.156 777.558 139.455L781.797 140.589Z" fill="#292D67"></path><path d="M787.395 144.237L794.214 146.528C790.208 150.388 784.043 150.475 784.043 150.475L787.271 144.695C787.329 144.543 787.366 144.39 787.395 144.237Z" fill="#010202"></path><path d="M785.708 141.635C786.885 141.941 787.591 143.089 787.394 144.238L782.938 142.74C782.938 142.74 783.686 142.166 784.944 141.432L785.708 141.635Z" fill="#292D67"></path><path d="M755.107 173.371L754.613 174.2C751.843 173.407 749.575 172.316 747.946 171.255C747.095 170.695 746.725 170.07 746.688 169.423C746.63 168.579 747.132 167.7 747.815 166.907C747.51 167.416 747.321 168.1 747.553 168.972C747.713 169.554 748.324 170.223 748.971 170.644C750.491 171.633 752.577 172.636 755.107 173.371Z" fill="#98D6F4"></path><path d="M754.613 174.206L754.852 178.14C751.973 177.34 749.625 176.22 747.946 175.122C747.277 174.686 747.037 174.105 746.848 173.508C746.164 171.269 746.433 169.386 746.68 169.422H746.688C746.724 170.069 747.095 170.695 747.946 171.255C749.574 172.323 751.842 173.414 754.613 174.206Z" fill="#4491CF"></path><path d="M748.861 165.873C748.874 165.86 748.874 165.86 748.874 165.86L748.861 165.873Z" fill="#C4E6F9"></path><path d="M760.871 158.845C763.198 160.837 766.564 162.007 770.65 162.604Z" fill="#020203"></path><path d="M760.871 158.845C763.198 160.837 766.564 162.007 770.65 162.604" stroke="#98D6F4" stroke-width="2.73205" stroke-miterlimit="10" stroke-linecap="round"></path><path d="M763.395 156.031C765.387 157.943 769.065 159.158 773.53 159.928Z" fill="#020203"></path><path d="M763.395 156.031C765.387 157.943 769.065 159.158 773.53 159.928" stroke="#98D6F4" stroke-width="2.73205" stroke-miterlimit="10" stroke-linecap="round"></path><path d="M765.916 153.225C767.581 155.057 771.572 156.322 776.4 157.26Z" fill="#020203"></path><path d="M765.916 153.225C767.581 155.057 771.572 156.322 776.4 157.26" stroke="#98D6F4" stroke-width="2.73205" stroke-miterlimit="10" stroke-linecap="round"></path><path d="M768.434 150.411C769.764 152.156 774.068 153.472 779.267 154.577Z" fill="#020203"></path><path d="M768.434 150.411C769.764 152.156 774.068 153.472 779.267 154.577" stroke="#98D6F4" stroke-width="2.73205" stroke-miterlimit="10" stroke-linecap="round"></path><path d="M770.955 147.604C771.951 149.269 776.568 150.629 782.137 151.909Z" fill="#020203"></path><path d="M770.955 147.604C771.951 149.269 776.568 150.629 782.137 151.909" stroke="#98D6F4" stroke-width="2.73205" stroke-miterlimit="10" stroke-linecap="round"></path><mask id="mask1_0_1" style="mask-type:alpha" maskUnits="userSpaceOnUse" x="239" y="315" width="108" height="116"><path d="M346.563 333.394L316.173 315L262.592 346.989L239 386.975L281.785 408.968L324.57 430.96L345.763 380.977L346.563 333.394Z" fill="black"></path></mask><g mask="url(#mask1_0_1)"><path d="M358.529 360.161V363.992L302.252 396.149V392.206L358.529 360.161Z" fill="#232752"></path><path d="M302.254 397.268L280.766 383.201V379.282L302.254 393.325V397.268Z" fill="#232752"></path><path d="M282.987 384.633L282.347 388.312L282.131 388.416L282.219 384.161L282.987 384.633Z" fill="#282E67"></path><path d="M279.875 379.202L281.794 388.199L282.13 388.415L282.29 380.298L279.875 379.202Z" fill="#232752"></path><path d="M299.127 392.094L301.046 401.091L301.382 401.299L301.542 393.181L299.127 392.094Z" fill="#232752"></path><path d="M303.925 391.773L301.949 401.17L301.438 401.378L301.597 392.909L303.925 391.773Z" fill="#232752"></path><path d="M301.166 371.365V393.301L360.442 359.665V337.528L301.166 371.365Z" fill="#282E67"></path><path d="M301.165 371.414V393.126L279.564 379.451V358.234" fill="#232752"></path><path d="M279.566 358.234L301.159 371.421L360.442 337.537L338.458 325.757L279.566 358.234Z" fill="#0C5A9B"></path><path d="M358.394 341.792L341.248 351.645V367.407L358.394 357.675V341.792Z" fill="#EA5651"></path><path d="M341.248 359.953L357.922 350.756L358.394 351.004" stroke="#C51F2E" stroke-width="0.286386" stroke-miterlimit="10"></path><path d="M358.394 357.674L357.922 357.466L341.248 366.911V367.406L358.394 357.674Z" fill="#951823"></path><path d="M339.384 352.604L303.332 372.996V388.751L339.384 368.494V352.604Z" fill="#EA5651"></path><path d="M339.384 368.494V352.604L338.912 352.883V368.742L339.384 368.494Z" fill="#232752"></path><path d="M339.384 368.494L338.912 368.286L303.332 388.503V388.999L339.384 368.494Z" fill="#232752"></path><path d="M310.706 376.403L310.458 376.275L305.676 379.042V379.914L305.916 380.042L310.706 376.403Z" fill="#0C5A9B"></path><path d="M310.704 376.41L305.914 379.177V380.041L310.704 377.41V376.41Z" fill="#282E67"></path></g></g><defs><linearGradient id="paint0_linear_0_1" x1="522.566" y1="240.617" x2="522.566" y2="264.685" gradientUnits="userSpaceOnUse"><stop stop-color="#98D6F3"></stop><stop offset="0.0147" stop-color="#7FCDE9"></stop><stop offset="0.1023" stop-color="#7AC6E3"></stop><stop offset="0.2406" stop-color="#6CB2D1"></stop><stop offset="0.4122" stop-color="#5893B5"></stop><stop offset="0.6105" stop-color="#436C92"></stop><stop offset="0.8283" stop-color="#31426B"></stop><stop offset="1" stop-color="#232652"></stop></linearGradient><clipPath id="clip0_0_1"><rect width="1440" height="5845" fill="white" transform="translate(-584 -97)"></rect></clipPath></defs></svg> 