<?xml version="1.0" encoding="UTF-8"?> <svg xmlns="http://www.w3.org/2000/svg" width="213" height="50" viewBox="0 0 213 50" fill="none"><path d="M35.7928 0.331952V0.285156H22.1486V10.0358H12.398V38.6053H11.0514V19.7494H0V49.6236H0.0467891V49.6392H13.6899V39.8885H23.4407V11.321H24.7755V30.21H35.8084L35.7928 0.331952ZM12.4019 48.356H1.35044V48.3404H1.30366V21.0541H9.75062V39.9109H12.4048L12.4019 48.356ZM22.134 38.6229H13.6899V11.3366H22.134V38.6229ZM34.5047 28.9063H26.0606V10.0358H23.4533V1.58881H34.4881V1.63561H34.5037L34.5047 28.9063Z" fill="#1D2231"></path><path d="M56.6833 5.85836C56.2745 6.34568 55.719 6.68771 55.0998 6.83341L58.2659 10.9004H53.175L50.7695 7.57836H48.3318V10.9004H43.7383V0.426255H52.9273C54.1915 0.304363 55.4564 0.651379 56.4814 1.4013C56.7829 1.70454 57.0142 2.07018 57.1591 2.47248C57.3039 2.87478 57.3589 3.30394 57.32 3.72976C57.3446 4.48962 57.1211 5.23682 56.6833 5.85836ZM52.783 3.77854C52.628 3.43726 52.2711 3.38851 51.883 3.38851H48.3211V4.92716H51.8909C52.3569 4.92716 52.6826 4.84916 52.7908 4.58589C52.8354 4.45609 52.8565 4.31941 52.8532 4.18222C52.8747 4.04402 52.8514 3.90258 52.7869 3.77854H52.783Z" fill="#1D2231"></path><path d="M58.4219 10.8873V0.425781H70.0476V3.4992H62.954V4.16614H69.8458V7.14692H62.954V7.86067H70.1403V10.9029H58.4219V10.8873Z" fill="#1D2231"></path><path d="M79.7909 3.56063V10.9019H75.0726V3.56063H70.8203V0.425781H84.0754V3.56063H79.7909Z" fill="#1D2231"></path><path d="M87.2445 10.8873H82.3398L88.0051 0.410156H93.5932L98.8702 10.8873H93.9032L93.1739 9.27255H88.0207L87.2445 10.8873ZM90.9848 4.75604L90.6592 3.90188L90.3022 4.77067L89.293 6.6506H91.9628L90.9848 4.75604Z" fill="#1D2231"></path><path d="M99.832 10.8873V0.425781H104.597V10.9029H99.832V10.8873Z" fill="#1D2231"></path><path d="M105.562 10.8873V0.425781H110.219V7.50379H116.149V10.9029H105.562V10.8873Z" fill="#1D2231"></path><path d="M50.0402 23.5694C45.7869 23.5694 44.0025 22.3895 43.319 20.8684C43.204 20.5373 43.1309 20.193 43.1016 19.8437H48.0842C48.1308 20.0472 48.2391 20.2314 48.3942 20.3712C49.0257 20.658 49.7209 20.7756 50.4116 20.7124C51.8547 20.7124 52.1668 20.5886 52.1668 20.2317C52.1668 19.9392 51.8567 19.8417 50.4438 19.7198C49.5282 19.6418 48.6887 19.5492 47.9604 19.4868C44.3906 19.1942 43.1484 18.1519 43.1484 16.2115C43.1484 14.2867 45.7245 12.7656 49.9154 12.7656C53.7493 12.7656 55.5337 13.961 56.2172 15.2033C56.4467 15.6007 56.5995 16.0376 56.6677 16.4914H51.7007C51.6808 16.3133 51.5982 16.1481 51.4677 16.0253C50.9583 15.6931 50.3486 15.5503 49.7447 15.6216C48.5035 15.6216 48.0374 15.7454 48.0374 16.0877C48.0374 16.4777 48.7979 16.5382 50.4273 16.6727C51.5291 16.7507 52.7557 16.8902 53.1896 16.9214C55.797 17.1544 57.0236 18.148 57.0236 20.0416C57.0256 22.374 54.5889 23.5694 50.0402 23.5694Z" fill="#1D2231"></path><path d="M64.2915 23.554C60.5355 23.554 57.5859 22.2348 57.5859 18.8045V12.9375H62.2575V18.7879C62.2575 19.7503 63.1574 20.2934 64.4923 20.2934C65.8896 20.2934 66.7272 19.6567 66.7272 18.7879V12.9375H71.3344V19.2238C71.3539 22.2192 68.3117 23.554 64.2915 23.554Z" fill="#1D2231"></path><path d="M84.717 19.4553C84.2328 19.8793 83.6695 20.2032 83.0595 20.4083C82.4495 20.6135 81.8049 20.6959 81.1629 20.6507C80.5418 20.6507 76.7546 20.6351 76.7546 20.6351V23.413H72.1289V12.936H81.0693C82.1847 12.8696 83.2954 13.1284 84.2666 13.6809C84.7462 14.0351 85.1266 14.5068 85.3713 15.0505C85.616 15.5942 85.7168 16.1917 85.6639 16.7855C85.697 17.2716 85.63 17.7594 85.4672 18.2186C85.3043 18.6777 85.049 19.0987 84.717 19.4553ZM80.8362 16.2736C80.7311 16.1392 80.5929 16.0343 80.4352 15.969C80.2775 15.9038 80.1056 15.8804 79.9362 15.9012H76.7117V17.9186H79.9402C80.1211 17.9403 80.3046 17.9128 80.4712 17.839C80.6379 17.7652 80.7815 17.6479 80.887 17.4993C80.9866 17.3209 81.035 17.1184 81.0265 16.9143C81.0436 16.6843 80.9759 16.4561 80.8363 16.2727L80.8362 16.2736Z" fill="#1D2231"></path><path d="M98.6857 19.4553C98.2015 19.8793 97.6382 20.2032 97.0282 20.4083C96.4182 20.6135 95.7736 20.6959 95.1316 20.6507C94.5105 20.6507 90.7234 20.6351 90.7234 20.6351V23.413H86.0977V12.936H95.0381C96.1534 12.8696 97.2641 13.1284 98.2353 13.6809C98.7149 14.0351 99.0954 14.5068 99.3401 15.0505C99.5848 15.5942 99.6854 16.1917 99.6325 16.7855C99.6657 17.2716 99.5988 17.7594 99.4359 18.2186C99.2731 18.6778 99.0177 19.0987 98.6857 19.4553ZM94.8206 16.2736C94.7154 16.1392 94.5773 16.0343 94.4196 15.969C94.2619 15.9038 94.09 15.8804 93.9206 15.9012H90.6922V17.9186H93.9099C94.0909 17.9403 94.2743 17.9128 94.441 17.839C94.6076 17.7652 94.7512 17.6479 94.8567 17.4993C94.9563 17.3209 95.0046 17.1184 94.9962 16.9143C95.0097 16.6869 94.9479 16.4615 94.8206 16.2727V16.2736Z" fill="#1D2231"></path><path d="M100.344 23.4146V12.9375H105.001V19.9999H110.93V23.4126L100.344 23.4146Z" fill="#1D2231"></path><path d="M118.612 19.958V23.4195H113.987V19.9687L108.445 12.9375H113.677L116.346 16.5072L119.124 12.9375H124.215L118.612 19.958Z" fill="#1D2231"></path><path d="M57.6735 32.8487C56.8505 34.9939 54.7863 36.0772 50.5341 36.0772C47.445 36.0772 45.4276 35.379 44.3258 34.1056C43.6292 33.1291 43.2497 31.9621 43.2385 30.7627C43.2274 29.5632 43.5851 28.3894 44.2634 27.4001C45.412 26.0184 47.523 25.2734 50.6735 25.2734C55.5781 25.2734 57.3166 27.0286 57.6735 28.6862C57.7695 29.1147 57.8266 29.551 57.8441 29.9898H53.079C53.0657 29.8019 53.0185 29.6179 52.9396 29.4467C52.7221 28.966 52.0239 28.5779 50.6111 28.5779C49.4625 28.5779 48.5937 28.8422 48.2358 29.4779C48.072 29.8542 47.9975 30.2634 48.0184 30.6733C47.9777 31.086 48.0587 31.5016 48.2514 31.8687C48.5371 32.2053 48.9032 32.4643 49.3157 32.6217C49.7282 32.779 50.1738 32.8296 50.6111 32.7687C51.8065 32.7687 52.6129 32.5981 53.001 31.977C53.0996 31.8135 53.1481 31.6246 53.1404 31.4339H57.8685C57.8708 31.9123 57.8051 32.3887 57.6735 32.8487Z" fill="#1D2231"></path><path d="M67.6865 35.9244V32.4141H63.3406V35.9244H58.7305V25.4473H63.3406V29.0014H67.6865V25.4473H72.2966V35.9244H67.6865Z" fill="#1D2231"></path><path d="M77.8264 35.9244H72.9219L78.587 25.4473H84.1595L89.4366 35.9244H84.454L83.7247 34.3096H78.5714L77.8264 35.9244ZM81.5668 29.7814L81.2411 28.9282L80.8842 29.797L79.8751 31.675H82.5448L81.5668 29.7814Z" fill="#1D2231"></path><path d="M90.4141 35.9244V25.4473H95.1792V35.9244H90.4141Z" fill="#1D2231"></path><path d="M104.786 35.9244L100.548 31.206V35.9244H96.125V25.4473H100.828L104.864 30.0106V25.4473H109.288V35.9244H104.786Z" fill="#1D2231"></path><path d="M119.021 26.5312V29.082H122.063V32.2997H119.021V34.83H115.389V32.2899H112.223V29.0722H115.343V26.5263H119.022L119.021 26.5312ZM119.69 25.8594H114.675V28.4053H111.555V32.953H114.705V35.4833H119.672V32.953H122.714V28.4053H119.672V25.8643L119.69 25.8594Z" fill="#1D2231"></path><path d="M43.7383 48.4341V37.957H48.3942V45.035H54.3236V48.4341L43.7383 48.4341Z" fill="#1D2231"></path><path d="M68.7283 39.9906C69.3729 40.8936 69.6953 41.987 69.6439 43.0953C69.6815 44.2235 69.367 45.3355 68.7439 46.2769C67.6577 47.8136 65.4228 48.5898 62.1319 48.5898C58.8723 48.5898 56.6531 47.8448 55.52 46.2769C54.8922 45.3383 54.5819 44.2232 54.6347 43.0952C54.5991 42.0442 54.9159 41.0115 55.5347 40.1613C56.6989 38.5933 58.8869 37.6934 62.1466 37.6934C65.3604 37.709 67.5797 38.4851 68.7283 39.9906ZM64.7705 44.3365C64.91 43.9594 64.9733 43.5584 64.9567 43.1567C64.9742 42.7454 64.8944 42.3358 64.7237 41.9613C64.398 41.4806 63.7769 40.9677 62.132 40.9677C60.6109 40.9677 59.9128 41.4796 59.5861 42.0227C59.4298 42.3798 59.3503 42.7659 59.3531 43.1557C59.3436 43.6011 59.4394 44.0425 59.6329 44.4438C59.9741 44.9557 60.6265 45.3438 62.1319 45.3438C63.7769 45.3457 64.475 44.864 64.7705 44.3365L64.7705 44.3365Z" fill="#1D2231"></path><path d="M80.7761 48.4338L80.6366 47.5651C79.4044 48.3232 77.9677 48.6812 76.5238 48.5898C74.1183 48.5898 72.2247 47.8761 71.1843 46.432C70.5402 45.4855 70.2141 44.3585 70.2531 43.2143C70.2345 42.0936 70.5835 40.9976 71.2467 40.0941C72.3953 38.6666 74.444 37.7656 77.455 37.7656C81.0559 37.7656 83.1825 38.8518 83.9879 40.7298C84.1115 41.0758 84.1899 41.4363 84.221 41.8024H79.7815C79.7659 41.663 79.5485 41.4611 79.3466 41.3519C78.7911 41.067 78.1687 40.9383 77.5457 40.9794C77.1589 40.9346 76.7671 40.9737 76.3968 41.0942C76.0266 41.2147 75.6868 41.4137 75.4005 41.6776C75.054 42.1413 74.8884 42.7153 74.9344 43.2923C74.899 43.8108 75.0294 44.3272 75.3069 44.7666C75.5939 45.0708 75.9489 45.3025 76.3428 45.4429C76.7367 45.5832 77.1583 45.6281 77.573 45.574C79.0473 45.574 79.8546 45.2941 80.1491 44.8446C80.1874 44.7783 80.2089 44.7037 80.2115 44.6272H76.9938V42.1583H84.3195V45.2161C84.3195 46.551 84.335 48.3207 84.335 48.4446H80.7653L80.7761 48.4338Z" fill="#1D2231"></path><path d="M85.5391 48.4341V37.957H90.3043V48.4341L85.5391 48.4341Z" fill="#1D2231"></path><path d="M98.1105 48.5888C93.8572 48.5888 92.0729 47.409 91.3894 45.8879C91.2743 45.5567 91.2012 45.2125 91.1719 44.8631H96.1545C96.2012 45.0666 96.3094 45.2508 96.4645 45.3906C97.096 45.6774 97.7912 45.795 98.4819 45.7319C99.925 45.7319 100.237 45.6081 100.237 45.2512C100.237 44.9587 99.927 44.8612 98.5141 44.7393C97.5985 44.6613 96.7589 44.5686 96.0306 44.5062C92.4608 44.2137 91.2186 43.1714 91.2186 41.231C91.2186 39.3062 93.7947 37.7852 97.9855 37.7852C101.82 37.7852 103.604 38.9806 104.287 40.2228C104.517 40.6202 104.67 41.0571 104.738 41.5109H99.7709C99.7509 41.3328 99.6683 41.1676 99.5378 41.0448C99.0285 40.7127 98.4188 40.5698 97.8149 40.6411C96.5736 40.6411 96.1075 40.765 96.1075 41.1072C96.1075 41.4972 96.8682 41.5577 98.4975 41.6923C99.5993 41.7703 100.826 41.9097 101.26 41.9409C103.867 42.1739 105.094 43.1675 105.094 45.0611C105.096 47.409 102.659 48.5888 98.1105 48.5888Z" fill="#1D2231"></path><path d="M114.378 41.0928V48.4341H109.659V41.0928H105.391V37.957H118.646V41.0928H114.378Z" fill="#1D2231"></path><path d="M119.484 48.4341V37.957H124.25V48.4341L119.484 48.4341Z" fill="#1D2231"></path><path d="M139.689 45.3605C138.866 47.5056 136.802 48.5889 132.55 48.5889C129.461 48.5889 127.443 47.8908 126.341 46.6173C125.645 45.6408 125.265 44.4738 125.254 43.2744C125.243 42.075 125.601 40.9011 126.279 39.9118C127.428 38.5301 129.539 37.7852 132.689 37.7852C137.594 37.7852 139.332 39.5403 139.689 41.1979C139.785 41.6265 139.842 42.0628 139.86 42.5016H135.095C135.081 42.3136 135.034 42.1296 134.955 41.9584C134.738 41.4777 134.04 41.0897 132.627 41.0897C131.478 41.0897 130.609 41.3539 130.251 41.9897C130.088 42.366 130.013 42.7751 130.034 43.1851C129.993 43.5977 130.074 44.0133 130.267 44.3805C130.553 44.7171 130.919 44.9761 131.331 45.1334C131.744 45.2908 132.189 45.3413 132.627 45.2805C133.822 45.2805 134.628 45.1098 135.017 44.4887C135.115 44.3252 135.164 44.1364 135.156 43.9456H139.874C139.873 44.4232 139.811 44.8986 139.689 45.3605Z" fill="#1D2231"></path><path d="M147.329 48.5888C143.076 48.5888 141.292 47.409 140.608 45.8879C140.493 45.5567 140.42 45.2125 140.391 44.8631H145.373C145.42 45.0666 145.528 45.2508 145.683 45.3906C146.315 45.6774 147.01 45.795 147.701 45.7319C149.144 45.7319 149.456 45.6081 149.456 45.2512C149.456 44.9587 149.146 44.8612 147.733 44.7393C146.817 44.6613 145.978 44.5686 145.249 44.5062C141.679 44.2137 140.437 43.1714 140.437 41.231C140.437 39.3062 143.013 37.7852 147.204 37.7852C151.038 37.7852 152.823 38.9806 153.506 40.2228C153.736 40.6202 153.888 41.0571 153.957 41.5109H148.99C148.97 41.3328 148.887 41.1676 148.757 41.0448C148.247 40.7126 147.638 40.5697 147.034 40.6411C145.791 40.6411 145.326 40.765 145.326 41.1072C145.326 41.4972 146.087 41.5577 147.716 41.6923C148.818 41.7703 150.045 41.9097 150.479 41.9409C153.086 42.1739 154.312 43.1675 154.312 45.0611C154.299 47.409 151.877 48.5888 147.329 48.5888Z" fill="#1D2231"></path><path d="M166.965 37.956V41.0294H159.871V41.7119H166.965V44.6761H159.871V45.3899H166.965V48.4321H155.339V37.957H166.965V37.956ZM167.633 37.2891H154.672V49.1011H167.633V37.2891Z" fill="#1D2231"></path><path d="M182.145 37.956L177.473 43.0937C177.489 43.0937 182.176 48.4331 182.176 48.4331H176.899L174.835 45.9028L172.677 48.4331H167.865C167.865 48.4331 167.788 48.2625 168.035 47.9826C169.184 46.7258 172.397 43.2331 172.397 43.2331L167.771 37.956H173.048L175.066 40.4239L177.177 37.956H182.144L182.145 37.956ZM183.665 37.2891H176.882L176.68 37.5221L175.097 39.3845L173.591 37.5377L173.39 37.2891H166.328L167.303 38.3909L171.541 43.2185C171.51 43.2653 171.463 43.2965 171.433 43.3423C171.107 43.6836 170.672 44.1652 170.206 44.6772C169.259 45.702 168.173 46.8964 167.599 47.5175C167.44 47.6642 167.328 47.854 167.276 48.0637C167.224 48.2733 167.234 48.4936 167.306 48.6974L167.492 49.0874H173.034L173.235 48.8543L174.88 46.9296L176.448 48.8387L176.65 49.0874H183.713L182.738 47.9856C182.738 47.9856 181.558 46.6507 180.397 45.3158C179.812 44.6479 179.218 43.9809 178.783 43.4846C178.659 43.3452 178.534 43.2058 178.441 43.0946L182.709 38.4074L183.672 37.29L183.665 37.2891Z" fill="#1D2231"></path><path d="M191.983 37.9579C193.099 37.8914 194.209 38.1502 195.181 38.7028C195.66 39.057 196.041 39.5287 196.285 40.0724C196.53 40.6161 196.631 41.2136 196.578 41.8075C196.607 42.2945 196.537 42.7824 196.371 43.2414C196.206 43.7004 195.949 44.1209 195.615 44.4772C195.131 44.9012 194.568 45.2251 193.958 45.4303C193.348 45.6355 192.703 45.7178 192.061 45.6726C191.44 45.6726 187.653 45.657 187.653 45.657V48.4194H183.027V37.9432H191.983V37.9579ZM187.637 42.9414H190.855C191.036 42.9631 191.22 42.9356 191.386 42.8619C191.553 42.7881 191.696 42.6707 191.802 42.5221C191.901 42.3437 191.95 42.1412 191.941 41.9371C191.963 41.7112 191.902 41.4852 191.771 41.3004C191.666 41.1659 191.527 41.0609 191.37 40.9956C191.212 40.9304 191.04 40.907 190.871 40.9279H187.64V42.9453L187.637 42.9414ZM191.986 37.2958H182.375V49.1078H188.336V46.3395C189.453 46.3395 191.627 46.3551 192.076 46.3551C192.805 46.3981 193.536 46.2968 194.225 46.057C194.915 45.8173 195.551 45.4438 196.096 44.9579C196.489 44.5396 196.794 44.0462 196.991 43.5073C197.188 42.9684 197.275 42.3952 197.245 41.8221C197.3 41.1177 197.174 40.4109 196.877 39.7695C196.581 39.1281 196.125 38.5734 195.553 38.1587C194.479 37.513 193.234 37.2099 191.983 37.2899L191.986 37.2958ZM188.307 41.5948H190.868C191.148 41.5948 191.194 41.6572 191.209 41.6923L191.225 41.708L191.24 41.7236C191.266 41.7931 191.276 41.8672 191.271 41.941C191.279 42.0252 191.268 42.1099 191.24 42.1897C191.178 42.2677 190.976 42.2872 190.868 42.2872H188.323V41.6046L188.307 41.5948Z" fill="#1D2231"></path><path d="M204.697 37.8329C207.926 37.8329 210.145 38.613 211.294 40.1146C211.938 41.0176 212.261 42.111 212.209 43.2192C212.247 44.3475 211.932 45.4595 211.309 46.4009C210.223 47.9376 207.988 48.7137 204.697 48.7137C201.438 48.7137 199.218 47.9688 198.085 46.4009C197.458 45.4622 197.148 44.3471 197.201 43.2192C197.165 42.1682 197.482 41.1354 198.101 40.2853C199.25 38.7485 201.438 37.833 204.697 37.833V37.8329ZM204.682 45.4853C206.339 45.4853 207.022 45.0046 207.32 44.4761C207.46 44.099 207.523 43.698 207.507 43.2962C207.524 42.885 207.444 42.4754 207.274 42.1008C206.948 41.6201 206.327 41.1072 204.682 41.1072C203.161 41.1072 202.463 41.6191 202.136 42.1623C201.98 42.5194 201.9 42.9054 201.903 43.2953C201.893 43.7406 201.989 44.1819 202.182 44.5834C202.539 45.0953 203.176 45.4834 204.681 45.4834L204.682 45.4853ZM204.697 37.1641C201.36 37.1641 198.892 38.1109 197.557 39.8943C196.852 40.8604 196.491 42.0353 196.532 43.2309C196.481 44.4979 196.834 45.7484 197.542 46.8007C198.798 48.5392 201.142 49.3768 204.697 49.3768C208.235 49.3768 210.644 48.508 211.852 46.7851C212.561 45.7328 212.919 44.4835 212.877 43.2153C212.926 41.9562 212.555 40.7164 211.82 39.6924C210.532 38.0163 208.142 37.1621 204.696 37.1621L204.697 37.1641ZM202.71 42.5035C203.003 42.0228 203.673 41.7742 204.681 41.7742C206.249 41.7742 206.59 42.2861 206.714 42.4723C206.806 42.7366 206.848 43.0157 206.838 43.2953C206.841 43.5778 206.808 43.8595 206.74 44.1338V44.1495C206.43 44.7082 205.452 44.8174 204.676 44.8174C203.139 44.8174 202.845 44.3825 202.736 44.2118C202.63 43.9182 202.578 43.6082 202.581 43.2963C202.582 43.0276 202.624 42.7608 202.704 42.5045L202.71 42.5035Z" fill="#1D2231"></path></svg> 