<?xml version="1.0" encoding="UTF-8"?> <svg xmlns="http://www.w3.org/2000/svg" width="215" height="58" viewBox="0 0 215 58" fill="none"><path d="M103.835 42.7554C103.325 44.6242 102.825 46.4689 102.319 48.312C101.547 51.1249 100.764 53.9351 100.004 56.7513C99.9193 57.0667 99.8045 57.2 99.469 57.1709C98.9886 57.1293 98.3807 57.2984 98.0584 57.0621C97.7574 56.8415 97.7512 56.2113 97.627 55.7581C96.6492 52.1881 95.6726 48.6177 94.6973 45.047C94.6622 44.919 94.6128 44.7948 94.5408 44.5823C93.3733 48.821 92.2295 52.9733 91.0814 57.1413H89.0645C87.8053 52.3662 86.5377 47.5593 85.2617 42.7207C85.8722 42.7207 86.437 42.7007 86.9981 42.7368C87.1167 42.7444 87.2916 42.9411 87.3235 43.078C88.2372 47.0033 89.1359 50.9321 90.0534 54.9318C90.1301 54.6769 90.1976 54.4682 90.2557 54.257C91.2835 50.5221 92.3087 46.7865 93.3314 43.0502C93.337 42.9971 93.3536 42.9459 93.3802 42.8996C93.4068 42.8534 93.4427 42.8132 93.4856 42.7816C93.5286 42.75 93.5777 42.7277 93.6298 42.7161C93.6818 42.7046 93.7357 42.704 93.788 42.7145C94.3217 42.7332 94.8573 42.7381 95.3905 42.7136C95.6906 42.6998 95.7907 42.82 95.8633 43.0946C96.8926 46.989 98.1773 50.8169 98.9697 54.8105C99.9453 50.8033 100.921 46.7962 101.905 42.7553L103.835 42.7554Z" fill="#1D2231"></path><path d="M183.875 36.196C183.268 36.196 182.688 36.2181 182.112 36.1803C181.97 36.1709 181.805 35.991 181.71 35.8496C179.378 32.3827 177.051 28.9126 174.729 25.4394C174.632 25.2803 174.5 25.1451 174.344 25.044V36.163H172.527V21.7252C173.126 21.7252 173.733 21.7024 174.335 21.7426C174.471 21.7517 174.618 21.9635 174.717 22.1108C177.038 25.5656 179.356 29.0228 181.669 32.4823C181.757 32.6123 181.849 32.739 182.019 32.9826V21.7604H183.875V36.196Z" fill="#1D2231"></path><path d="M119.789 42.7169C120.108 42.7169 120.389 42.7164 120.669 42.717C122.821 42.7217 124.974 42.698 127.125 42.7429C127.699 42.7045 128.275 42.7868 128.816 42.9844C129.357 43.182 129.85 43.4906 130.264 43.8903C131.819 45.5558 131.856 49.1056 128.789 50.2024C128.339 50.3631 127.871 50.4695 127.351 50.6183C128.918 51.4221 129.726 52.8559 130.604 54.2265C131.211 55.1741 131.808 56.1276 132.462 57.1601C131.661 57.1601 130.946 57.1782 130.235 57.1443C130.097 57.1377 129.934 56.9501 129.841 56.8082C128.916 55.4062 128.01 53.9918 127.082 52.5918C126.877 52.2377 126.614 51.9207 126.304 51.6541C125.879 51.2686 125.367 50.9915 124.812 50.8464C123.765 50.7702 122.713 50.7578 121.664 50.8094V57.1256H119.789L119.789 42.7169ZM121.683 49.0563C121.778 49.0779 121.874 49.0927 121.971 49.1003C123.274 49.1035 124.577 49.1285 125.879 49.0925C126.49 49.0816 127.097 48.9978 127.688 48.843C128.169 48.7101 128.592 48.4183 128.887 48.0148C129.182 47.6113 129.332 47.12 129.312 46.6206C129.313 46.1372 129.153 45.6673 128.856 45.2856C128.559 44.9039 128.144 44.6324 127.675 44.5144C127.3 44.4019 126.911 44.3404 126.52 44.3315C125.013 44.3108 123.506 44.3221 121.999 44.3245C121.893 44.3309 121.788 44.3437 121.683 44.3629L121.683 49.0563Z" fill="#1D2231"></path><path d="M213.208 0.779519H214.998V15.222C214.408 15.222 213.829 15.2483 213.256 15.2046C213.102 15.1929 212.929 14.9922 212.825 14.8377C210.511 11.398 208.202 7.95483 205.898 4.50834C205.796 4.35524 205.688 4.20567 205.501 3.93673V15.2192C204.917 15.2192 204.39 15.2289 203.864 15.2084C203.788 15.2054 203.707 15.0637 203.651 14.9725C203.623 14.9266 203.645 14.8498 203.645 14.7869C203.645 10.2308 203.645 5.6746 203.645 1.11843C203.645 1.02594 203.655 0.933442 203.664 0.77073C204.279 0.77073 204.885 0.752115 205.488 0.785978C205.613 0.792989 205.753 0.977243 205.842 1.10955C208.181 4.58876 210.518 8.07026 212.85 11.5541C212.94 11.7018 213.062 11.8271 213.208 11.9201V0.779519Z" fill="#1D2231"></path><path d="M134.988 57.0797V42.7575C135.079 42.7395 135.172 42.7274 135.264 42.7213C137.086 42.7195 138.907 42.7282 140.729 42.7189C144.396 42.7001 146.141 44.8757 146.703 47.7116C147.083 49.5029 146.985 51.3627 146.418 53.1041C145.64 55.4462 144.077 56.9149 141.572 57.0545C139.4 57.1756 137.216 57.0797 134.988 57.0797ZM136.923 44.3704V55.4287C138.276 55.4287 139.595 55.4699 140.91 55.4176C141.6 55.4515 142.284 55.2765 142.873 54.9154C143.462 54.5544 143.929 54.0241 144.211 53.3939C144.678 52.361 144.933 51.2454 144.963 50.1125C144.993 48.9796 144.796 47.8521 144.384 46.7962C144.201 46.194 143.845 45.659 143.36 45.2582C142.875 44.8574 142.282 44.6086 141.656 44.5429C140.097 44.4051 138.525 44.422 136.923 44.3704H136.923Z" fill="#1D2231"></path><path d="M159.858 23.4242V27.8282H167.75V29.5519H159.869V34.4828H168.628V36.17H157.938V21.7598H168.311V23.4242H159.858Z" fill="#1D2231"></path><path d="M118.391 36.1588V21.7559H128.812C128.812 22.2527 128.833 22.7358 128.792 23.2137C128.785 23.2971 128.519 23.4185 128.372 23.4205C127.162 23.4374 125.952 23.43 124.742 23.4301C123.406 23.4302 122.07 23.4425 120.735 23.4227C120.378 23.4174 120.279 23.5273 120.284 23.8768C120.302 25.178 120.291 26.4796 120.291 27.8278H128.225V29.5563H120.291C120.291 30.2799 120.291 30.9354 120.291 31.5909C120.291 32.408 120.306 33.2255 120.284 34.042C120.274 34.3936 120.382 34.4967 120.736 34.4948C123.329 34.4806 125.922 34.4873 128.514 34.4874C128.699 34.4874 128.884 34.4874 129.098 34.4874V36.1588H118.391Z" fill="#1D2231"></path><path d="M83.9911 36.1637H73.2852V21.75H83.6411V23.4081H75.2049V27.8336H83.1267C83.1267 28.3809 83.1462 28.8767 83.106 29.3675C83.0999 29.4428 82.8188 29.5497 82.6645 29.5505C80.3709 29.5621 78.0773 29.5583 75.7837 29.5581C75.5987 29.5581 75.4136 29.5581 75.2004 29.5581V34.4895H83.9911L83.9911 36.1637Z" fill="#1D2231"></path><path d="M214.538 21.752V23.4236H206.103V27.8287H213.982V29.547H206.099V34.4849H214.912C214.912 35.007 214.934 35.4757 214.894 35.939C214.886 36.0348 214.65 36.1818 214.516 36.1846C213.527 36.2056 212.537 36.1961 211.547 36.1961C209.269 36.196 206.991 36.1959 204.713 36.1958C204.545 36.1958 204.377 36.1958 204.18 36.1958V21.752H214.538Z" fill="#1D2231"></path><path d="M81.7634 4.96212C81.7302 4.80513 81.7054 4.68536 81.6795 4.56581C81.5964 4.00908 81.3382 3.49328 80.9423 3.09311C80.5465 2.69295 80.0335 2.42919 79.4777 2.34005C78.5093 2.1106 77.4967 2.14952 76.5487 2.45261C76.107 2.60615 75.7086 2.86357 75.387 3.2032C75.1938 3.40184 75.0529 3.6453 74.9769 3.91177C74.9008 4.17825 74.892 4.45942 74.9513 4.73012C75.0106 5.00081 75.1361 5.25259 75.3165 5.46289C75.497 5.6732 75.7267 5.83548 75.9853 5.93519C76.9125 6.30372 77.9003 6.52086 78.8629 6.79927C79.6459 7.02574 80.447 7.19983 81.2127 7.47359C83.3057 8.22192 84.3124 9.84238 83.9309 11.8837C83.8079 12.5864 83.4981 13.243 83.0341 13.7849C82.5701 14.3268 81.9689 14.734 81.2935 14.9637C80.3262 15.3478 79.2909 15.5309 78.2505 15.5021C77.2101 15.4733 76.1865 15.233 75.2419 14.7959C74.4301 14.4327 73.7416 13.8411 73.2603 13.0933C72.779 12.3455 72.5257 11.4737 72.5313 10.5844L74.2856 10.4105C74.3299 10.4939 74.3645 10.5821 74.3888 10.6734C74.47 11.4074 74.7936 12.0934 75.3083 12.6229C75.8231 13.1524 76.4997 13.4952 77.2311 13.5971C78.3506 13.8837 79.532 13.8098 80.607 13.386C80.9116 13.278 81.1911 13.1093 81.4287 12.8902C81.6663 12.6712 81.8571 12.4062 81.9894 12.1113C82.1078 11.8606 82.171 11.5874 82.1748 11.3101C82.1786 11.0329 82.1229 10.7581 82.0115 10.5042C81.9 10.2503 81.7355 10.0232 81.5289 9.83829C81.3223 9.65338 81.0784 9.51491 80.8138 9.43221C79.9019 9.06689 78.9273 8.85849 77.9815 8.57718C77.1555 8.33149 76.3083 8.13806 75.5102 7.82152C74.7988 7.59654 74.1791 7.14789 73.7432 6.54234C73.3073 5.93679 73.0786 5.20669 73.091 4.46068C73.0935 3.69193 73.3352 2.94302 73.7827 2.31792C74.2302 1.69282 74.8612 1.22256 75.5881 0.972415C76.4836 0.62293 77.4396 0.455117 78.4005 0.478753C79.3614 0.502389 80.3081 0.716999 81.1852 1.11008C81.9019 1.42525 82.5083 1.94686 82.9271 2.6083C83.3458 3.26975 83.558 4.04101 83.5363 4.82358L81.7634 4.96212Z" fill="#1D2231"></path><path d="M160.631 46.7647L158.865 46.8946C158.812 46.8231 158.783 46.8007 158.777 46.7732C158.422 45.0854 157.732 44.3929 156.003 44.2125C155.239 44.1494 154.47 44.1988 153.72 44.3591C153.265 44.4736 152.851 44.7126 152.525 45.0494C152.305 45.2435 152.139 45.4919 152.044 45.77C151.95 46.048 151.93 46.346 151.987 46.6341C152.043 46.9223 152.174 47.1906 152.367 47.4122C152.56 47.6339 152.807 47.8012 153.085 47.8974C154.165 48.3049 155.308 48.544 156.421 48.8642C157.069 49.0505 157.727 49.2128 158.355 49.4503C159.123 49.6779 159.8 50.143 160.287 50.7788C160.774 51.4147 161.047 52.1885 161.067 52.9893C161.076 53.8131 160.837 54.6206 160.38 55.3063C159.923 55.992 159.27 56.524 158.506 56.8328C157.484 57.2716 156.379 57.4805 155.267 57.4447C154.155 57.4089 153.065 57.1292 152.074 56.6254C151.316 56.2435 150.681 55.6567 150.241 54.9316C149.8 54.2066 149.572 53.3724 149.582 52.5241L151.348 52.3454C151.382 52.4198 151.409 52.4972 151.429 52.5767C151.697 54.5511 153.025 55.3689 154.797 55.6339C155.858 55.8273 156.952 55.6742 157.918 55.1974C158.312 55.0276 158.644 54.7436 158.874 54.3821C159.103 54.0207 159.219 53.5985 159.205 53.1706C159.207 52.7633 159.076 52.3665 158.832 52.0408C158.587 51.715 158.243 51.4783 157.851 51.3668C156.699 50.9669 155.503 50.696 154.335 50.339C153.577 50.1407 152.837 49.8776 152.124 49.5525C151.544 49.265 151.053 48.8256 150.703 48.2811C150.353 47.7366 150.158 47.1073 150.137 46.4604C150.117 45.8134 150.272 45.173 150.587 44.6074C150.901 44.0418 151.364 43.5722 151.924 43.2486C153.888 42.0621 157.404 42.2018 159.157 43.6319C159.617 44.0146 159.987 44.4935 160.242 45.0348C160.496 45.5761 160.629 46.1666 160.631 46.7647Z" fill="#1D2231"></path><path d="M170.445 0.792969H172.309V6.6748H179.81V0.80156H181.701V15.1864H179.833V8.44408H172.337V15.1889H170.445V0.792969Z" fill="#1D2231"></path><path d="M102.934 9.33707V15.1938H101.047V0.824797C101.093 0.802046 101.12 0.777074 101.147 0.777346C103.533 0.801169 105.922 0.770617 108.305 0.871414C109.103 0.851767 109.884 1.10079 110.522 1.57846C111.161 2.05613 111.621 2.7347 111.827 3.50511C112.123 4.31725 112.173 5.19836 111.972 6.03881C111.77 6.87926 111.326 7.64196 110.695 8.23203C109.968 8.87703 109.031 9.23392 108.06 9.23541C106.65 9.31447 105.235 9.30827 103.823 9.33631C103.557 9.3416 103.291 9.33707 102.934 9.33707ZM102.962 7.58472C104.486 7.58472 105.959 7.60441 107.431 7.57207C107.853 7.55096 108.269 7.45889 108.661 7.29971C109.163 7.08343 109.576 6.70088 109.83 6.21627C110.084 5.73166 110.163 5.1745 110.054 4.63833C110.027 4.09782 109.802 3.58621 109.422 3.20093C109.042 2.81566 108.533 2.58362 107.993 2.54902C106.365 2.4762 104.732 2.49464 103.101 2.47737C103.061 2.47695 103.021 2.51447 102.962 2.54348V7.58472Z" fill="#1D2231"></path><path d="M114.421 0.815008C114.462 0.794555 114.507 0.780539 114.553 0.773438C116.924 0.798962 119.298 0.769642 121.667 0.873715C122.456 0.854924 123.228 1.09958 123.863 1.56904C124.497 2.03849 124.957 2.70597 125.17 3.466C125.472 4.27503 125.531 5.15503 125.338 5.99703C125.146 6.83902 124.71 7.60603 124.086 8.20306C123.357 8.86952 122.404 9.23813 121.416 9.23601C119.912 9.31513 118.402 9.30852 116.895 9.33725C116.711 9.34077 116.526 9.33774 116.294 9.33774V15.2218C115.705 15.2218 115.161 15.231 114.618 15.2119C114.536 15.209 114.455 15.0769 114.381 14.9985C114.364 14.9813 114.374 14.9378 114.374 14.9064C114.376 10.2546 114.378 5.60274 114.382 0.950919C114.389 0.904066 114.402 0.858356 114.421 0.815008ZM116.305 7.68569C117.983 7.63464 119.616 7.66279 121.232 7.51191C121.818 7.50184 122.376 7.26097 122.785 6.84171C123.193 6.42245 123.42 5.85871 123.416 5.27313C123.476 4.94263 123.464 4.60305 123.381 4.27753C123.298 3.95201 123.146 3.6482 122.935 3.38682C122.724 3.12543 122.459 2.91261 122.158 2.76285C121.857 2.6131 121.528 2.52993 121.192 2.51901C119.593 2.49879 117.994 2.49465 116.395 2.48623C116.371 2.4861 116.346 2.52041 116.305 2.55078V7.68569Z" fill="#1D2231"></path><path d="M71.625 57.1623C71.7603 56.7871 71.8704 56.4641 71.9925 56.1456C73.6547 51.8096 75.3155 47.4731 76.975 43.1361C77.0936 42.8247 77.2373 42.6857 77.5824 42.7097C78.0359 42.7411 78.495 42.6966 78.9481 42.7312C79.0315 42.7421 79.1115 42.7716 79.1819 42.8176C79.2524 42.8636 79.3116 42.9249 79.3551 42.9969C81.2658 47.6565 83.1667 52.3201 85.0578 56.9878C85.0648 57.044 85.0652 57.1007 85.0591 57.1569C84.4003 57.1569 83.7367 57.1703 83.075 57.1416C82.9822 57.1376 82.8658 56.9405 82.8153 56.8113C82.3416 55.5987 81.8709 54.3848 81.4213 53.1632C81.3954 53.0438 81.3253 52.9386 81.2251 52.8686C81.1249 52.7987 81.0019 52.7692 80.8809 52.7861C79.1209 52.8002 77.3608 52.7999 75.6006 52.7854C75.4794 52.7698 75.3567 52.8016 75.2582 52.874C75.1597 52.9465 75.0929 53.0541 75.0716 53.1745C74.6488 54.3892 74.1954 55.5932 73.7745 56.8086C73.6827 57.0736 73.5657 57.1814 73.2786 57.1689C72.7479 57.1458 72.2156 57.1623 71.625 57.1623ZM80.6708 51.2025L78.1934 44.537L75.8179 51.2025H80.6708Z" fill="#1D2231"></path><path d="M104.008 57.1637C104.08 56.9527 104.125 56.8061 104.18 56.6631C105.902 52.1661 107.623 47.6684 109.341 43.1699C109.474 42.8216 109.638 42.6747 110.019 42.7103C110.426 42.7425 110.836 42.7434 111.243 42.713C111.364 42.6929 111.489 42.72 111.59 42.7887C111.692 42.8575 111.763 42.9627 111.79 43.0826C113.411 47.0973 115.04 51.1086 116.678 55.1165C116.948 55.7798 117.221 56.4419 117.517 57.1632C116.806 57.1632 116.179 57.1822 115.554 57.1474C115.426 57.1403 115.252 56.9537 115.196 56.8117C114.718 55.601 114.254 54.3846 113.805 53.1623C113.778 53.0426 113.707 52.9374 113.606 52.8679C113.505 52.7985 113.381 52.7698 113.26 52.7876C111.515 52.8012 109.771 52.8056 108.027 52.784C107.89 52.7663 107.752 52.8025 107.641 52.8849C107.53 52.9673 107.455 53.0896 107.433 53.2258C107.018 54.4266 106.571 55.6163 106.157 56.8173C106.135 56.9312 106.07 57.032 105.975 57.0979C105.879 57.1638 105.762 57.1896 105.648 57.1696C105.12 57.1494 104.592 57.1637 104.008 57.1637ZM113.053 51.2064C112.207 48.9284 111.382 46.707 110.578 44.5423C109.794 46.737 109 48.9584 108.197 51.2064H113.053Z" fill="#1D2231"></path><path d="M196.747 15.217C196.03 15.217 195.376 15.2335 194.725 15.2008C194.616 15.1953 194.477 14.9919 194.422 14.8523C193.958 13.6696 193.493 12.4866 193.068 11.2896C193.035 11.1405 192.946 11.01 192.818 10.9256C192.691 10.8411 192.536 10.8093 192.386 10.8367C190.689 10.8566 188.992 10.8562 187.295 10.8354C187.152 10.8139 187.006 10.8492 186.888 10.9337C186.771 11.0182 186.691 11.1452 186.667 11.2876C186.261 12.4749 185.816 13.6489 185.409 14.8357C185.384 14.9647 185.31 15.0789 185.202 15.1531C185.093 15.2274 184.96 15.2558 184.831 15.2321C184.318 15.2065 183.803 15.2252 183.223 15.2252C185.085 10.3665 186.92 5.58115 188.765 0.767251C189.398 0.767251 190.027 0.740833 190.65 0.787254C190.792 0.797847 190.97 1.03786 191.04 1.20955C192.44 4.61985 193.832 8.03343 195.215 11.4503C195.716 12.6825 196.218 13.9147 196.747 15.217ZM189.813 2.59598C189.037 4.7706 188.241 6.99985 187.439 9.24863H192.279L189.813 2.59598Z" fill="#1D2231"></path><path d="M86.5815 0.792969H88.4843C88.4843 1.00108 88.4843 1.18497 88.4843 1.36886C88.4842 4.03909 88.4751 6.70938 88.4912 9.37952C88.4957 9.95991 88.5486 10.5389 88.6493 11.1105C88.7102 11.7433 88.9843 12.3366 89.4267 12.7932C89.8691 13.2498 90.4535 13.5425 91.084 13.6234C91.9804 13.8015 92.9059 13.7699 93.7881 13.5312C95.2587 13.1591 95.7612 12.0478 95.9218 10.6989C95.9892 10.1063 96.0227 9.51038 96.0222 8.91397C96.0328 6.38515 96.0267 3.85625 96.0267 1.32738V0.795046H97.9043C97.9176 0.936768 97.939 1.05785 97.9387 1.17888C97.932 4.11577 97.9344 7.05276 97.9048 9.98944C97.8922 10.5856 97.8201 11.1791 97.6897 11.761C97.5297 12.6258 97.112 13.4221 96.4915 14.0453C95.8709 14.6685 95.0764 15.0896 94.2123 15.2533C92.9235 15.5655 91.5789 15.5657 90.29 15.254C89.304 15.0757 88.4093 14.5638 87.7559 13.8041C87.1025 13.0445 86.7301 12.0833 86.7012 11.0818C86.6055 10.1631 86.5926 9.23327 86.5865 8.30823C86.5713 5.99936 86.5815 3.69033 86.5815 1.38136L86.5815 0.792969Z" fill="#1D2231"></path><path d="M99.6029 36.1933C98.8226 36.1933 98.1213 36.2123 97.4228 36.1772C97.2835 36.1703 97.1263 35.9771 97.0252 35.8356C95.7018 33.9834 94.3871 32.1251 93.0476 30.2364C92.9734 30.3098 92.9033 30.3871 92.8375 30.4681C91.5396 32.2621 90.2382 34.0536 88.953 35.8567C88.8808 35.975 88.7765 36.0704 88.6522 36.1318C88.528 36.1932 88.3888 36.2182 88.251 36.2038C87.6719 36.1815 87.0913 36.1974 86.4141 36.1974C86.5338 36.0153 86.6075 35.8902 86.6935 35.7743C88.3404 33.5541 89.9821 31.3301 91.6443 29.1214C91.7024 29.0681 91.7493 29.0036 91.7822 28.9319C91.815 28.8601 91.8331 28.7825 91.8355 28.7036C91.8378 28.6247 91.8244 28.5462 91.7959 28.4726C91.7674 28.399 91.7244 28.3319 91.6696 28.2752C90.2061 26.2521 88.7701 24.2091 87.3263 22.1718C87.2398 22.0497 87.1655 21.9189 87.0426 21.7241C87.8034 21.7241 88.4888 21.7106 89.1726 21.737C89.2902 21.7416 89.4282 21.8968 89.5113 22.0145C90.6704 23.6566 91.8252 25.3018 92.9755 26.9502C93.0095 26.9987 93.0531 27.0405 93.1058 27.101C93.8226 26.1413 94.5235 25.2024 95.2249 24.264C95.7796 23.5217 96.3206 22.7684 96.901 22.0467C97.0592 21.8716 97.2763 21.7607 97.511 21.7352C98.0406 21.691 98.5763 21.7207 99.2052 21.7207C99.0888 21.9013 99.0161 22.0271 98.9311 22.144C97.4441 24.1891 95.9617 26.2377 94.4598 28.2719C94.4146 28.3172 94.3787 28.371 94.3543 28.4302C94.3299 28.4894 94.3175 28.5529 94.3177 28.617C94.3179 28.681 94.3308 28.7444 94.3556 28.8034C94.3804 28.8625 94.4167 28.916 94.4623 28.961C96.0869 31.217 97.7032 33.4789 99.3113 35.7468C99.3985 35.8689 99.4759 35.9981 99.6029 36.1933Z" fill="#1D2231"></path><path d="M167.835 4.71662L165.985 5.15166C165.804 4.75858 165.656 4.39638 165.474 4.05239C165.205 3.50602 164.793 3.04262 164.282 2.71129C163.771 2.37995 163.18 2.19302 162.571 2.17027C159.703 1.96085 157.874 3.46738 157.421 6.41976C157.158 7.94482 157.289 9.51188 157.801 10.9722C158.105 11.8398 158.68 12.5865 159.441 13.1018C160.202 13.6171 161.109 13.8736 162.027 13.8332C162.932 13.8411 163.813 13.546 164.531 12.995C165.249 12.444 165.762 11.6688 165.988 10.7926C166.05 10.6007 166.101 10.4058 166.175 10.1524L168.037 10.6124C167.853 11.815 167.286 12.9262 166.42 13.7805C165.554 14.6347 164.435 15.1863 163.23 15.353C162.217 15.4504 161.196 15.4165 160.192 15.2522C159.44 15.1428 158.723 14.8592 158.1 14.424C157.477 13.9887 156.964 13.4139 156.602 12.7453C155.805 11.4274 155.351 9.93134 155.279 8.39308C155.208 6.85482 155.523 5.32317 156.194 3.93742C156.641 3.0017 157.326 2.19951 158.179 1.61085C159.033 1.02219 160.026 0.667644 161.06 0.582569C162.559 0.306844 164.108 0.583386 165.42 1.36107C166.63 2.12381 167.496 3.32706 167.835 4.71662Z" fill="#1D2231"></path><path d="M198.625 31.1149L200.477 31.5877C200.296 32.7479 199.76 33.8237 198.944 34.6679C198.128 35.5121 197.071 36.0836 195.918 36.3041C194.739 36.5185 193.528 36.476 192.367 36.1795C191.622 36.0042 190.923 35.6686 190.321 35.196C189.719 34.7235 189.226 34.1253 188.879 33.4432C188.259 32.2997 187.88 31.0416 187.764 29.7462C187.649 28.4508 187.799 27.1455 188.207 25.9104C188.644 24.5345 189.534 23.3472 190.732 22.5415C191.93 21.7358 193.365 21.3592 194.804 21.473C195.952 21.4513 197.078 21.788 198.026 22.4363C198.974 23.0845 199.696 24.012 200.092 25.0897C200.16 25.2871 200.219 25.4879 200.267 25.6913L198.435 26.1241C198.239 25.7091 198.077 25.3019 197.863 24.9246C197.461 24.242 196.854 23.7033 196.129 23.3848C195.404 23.0663 194.597 22.9841 193.822 23.15C191.556 23.5064 190.327 24.782 189.882 27.315C189.589 28.8675 189.716 30.4703 190.252 31.9569C190.564 32.8477 191.163 33.6097 191.954 34.1237C192.746 34.6376 193.686 34.8745 194.627 34.7971C195.514 34.7706 196.368 34.4537 197.059 33.8951C197.749 33.3365 198.237 32.5669 198.447 31.7044C198.502 31.5257 198.555 31.3467 198.625 31.1149Z" fill="#1D2231"></path><path d="M114.507 25.687L112.657 26.1269C112.604 26.0145 112.547 25.9093 112.504 25.7989C112.278 24.9953 111.788 24.2918 111.111 23.8028C110.435 23.3139 109.613 23.0684 108.779 23.1064C107.877 23.0456 106.979 23.2736 106.215 23.7574C105.451 24.2413 104.861 24.9558 104.53 25.7975C103.75 27.8293 103.753 30.0789 104.539 32.1086C104.869 32.9587 105.465 33.6796 106.237 34.164C107.01 34.6484 107.918 34.8705 108.827 34.7971C109.683 34.779 110.51 34.4892 111.19 33.9695C111.87 33.4499 112.366 32.7274 112.608 31.9067C112.693 31.6564 112.763 31.4013 112.849 31.1179L114.728 31.592C114.506 32.7122 113.985 33.7516 113.221 34.6008C112.74 35.1431 112.152 35.5815 111.495 35.8891C110.838 36.1968 110.126 36.3672 109.4 36.3901C108.586 36.4343 107.769 36.3885 106.965 36.2535C106.044 36.1001 105.179 35.7108 104.454 35.1235C103.729 34.5362 103.168 33.771 102.827 32.9025C101.89 30.8366 101.707 28.5077 102.309 26.3206C102.68 24.834 103.571 23.5291 104.82 22.6417C106.069 21.7543 107.595 21.3428 109.121 21.4814C110.277 21.4726 111.407 21.8297 112.349 22.5016C113.29 23.1736 113.995 24.126 114.362 25.2227C114.417 25.3641 114.453 25.5123 114.507 25.687Z" fill="#1D2231"></path><path d="M181.85 50.0038C181.822 48.5993 182.011 47.1989 182.41 45.8522C182.98 44.2311 183.941 42.9986 185.763 42.7266C188.251 42.3552 189.992 43.5022 190.782 46.0091C191.286 47.8941 191.428 49.8575 191.201 51.7955C191.154 53.0075 190.836 54.1935 190.269 55.2659C189.879 55.946 189.308 56.5054 188.621 56.8826C187.933 57.2597 187.155 57.4401 186.371 57.4039C185.588 57.3676 184.83 57.1162 184.18 56.6772C183.53 56.2382 183.014 55.6285 182.688 54.9153C182.082 53.3509 181.797 51.6806 181.85 50.0038ZM189.547 50.4022L189.463 50.391C189.463 50.0453 189.474 49.6992 189.46 49.354C189.458 48.8828 189.425 48.4122 189.362 47.9452C189.262 47.2163 189.1 46.4972 188.878 45.7957C188.708 45.3094 188.391 44.8881 187.971 44.5905C187.55 44.2929 187.047 44.1338 186.532 44.1353C186.024 44.1362 185.53 44.2995 185.122 44.6014C184.714 44.9033 184.414 45.3279 184.265 45.813C184.154 46.0895 184.065 46.3746 184.001 46.6654C183.655 48.3937 183.581 50.1652 183.779 51.9165C183.842 52.7284 184.016 53.5278 184.295 54.2927C184.449 54.7706 184.752 55.1868 185.159 55.4804C185.567 55.774 186.057 55.9298 186.559 55.9249C187.051 55.9208 187.53 55.7701 187.936 55.492C188.342 55.2139 188.655 54.8211 188.836 54.3639C188.963 54.1288 189.052 53.8753 189.1 53.6126C189.264 52.5448 189.401 51.4727 189.547 50.4022Z" fill="#1D2231"></path><path d="M171.815 47.0176L170.046 46.8387C170.055 46.2152 170.2 45.6013 170.471 45.0396C170.741 44.478 171.131 43.9821 171.613 43.5865C172.491 43.0006 173.516 42.6747 174.57 42.6465C175.625 42.6183 176.666 42.8889 177.573 43.427C178.399 44.007 178.976 44.8764 179.19 45.8624C179.404 46.8485 179.239 47.879 178.728 48.749C178.108 49.7904 177.309 50.7147 176.369 51.48C175.376 52.3707 174.347 53.2224 173.355 54.1158C172.942 54.4888 172.585 54.9258 172.203 55.3337L172.263 55.449H179.262V57.1259H169.656C169.715 56.7298 169.799 56.338 169.907 55.9527C170.321 54.8771 170.999 53.9226 171.877 53.1769C173.173 51.9883 174.515 50.85 175.793 49.6432C176.266 49.1843 176.673 48.6619 177.002 48.091C177.299 47.6687 177.457 47.164 177.453 46.6477C177.449 46.1314 177.283 45.6292 176.98 45.2114C176.66 44.7769 176.219 44.4466 175.712 44.2621C175.205 44.0776 174.654 44.0471 174.13 44.1746C173.553 44.2391 173.017 44.5014 172.611 44.9167C172.206 45.332 171.957 45.8749 171.907 46.4529C171.88 46.6223 171.852 46.7914 171.815 47.0176Z" fill="#1D2231"></path><path d="M195.641 47.0156L193.91 46.845C193.887 45.8411 194.237 44.8644 194.894 44.105C195.551 43.3456 196.467 42.8578 197.464 42.7368C198.366 42.5855 199.289 42.6289 200.173 42.8639C200.778 43.0309 201.335 43.3382 201.8 43.7608C202.264 44.1834 202.623 44.7095 202.846 45.2964C203.07 45.8833 203.152 46.5145 203.086 47.139C203.019 47.7635 202.807 48.3637 202.466 48.8909C201.809 49.9275 200.986 50.8496 200.031 51.6207C199.033 52.5063 198.008 53.3628 197.018 54.2568C196.653 54.5861 196.351 54.9863 195.923 55.4635H199.543H203.057V57.1227H193.465C193.536 56.6912 193.635 56.265 193.764 55.847C194.273 54.675 195.058 53.6431 196.051 52.8387C197.261 51.7432 198.527 50.705 199.679 49.5521C200.267 48.9667 200.736 48.2734 201.06 47.5102C201.21 47.1405 201.268 46.7397 201.228 46.3428C201.188 45.9458 201.051 45.5646 200.83 45.2323C200.61 44.9 200.311 44.6267 199.961 44.4359C199.61 44.2452 199.218 44.1429 198.82 44.138C196.937 44.0337 195.939 44.915 195.641 47.0156Z" fill="#1D2231"></path><path d="M149.13 0.768964C147.33 3.36276 145.604 5.87286 143.848 8.36156C143.501 8.82202 143.322 9.3873 143.341 9.96345C143.379 11.6889 143.355 13.4158 143.355 15.1848H141.464C141.456 15.0092 141.44 14.8278 141.44 14.6463C141.438 12.9651 141.451 11.2837 141.427 9.60285C141.42 9.29566 141.33 8.99615 141.166 8.73608C139.543 6.27028 137.898 3.81908 136.259 1.3635C136.147 1.19542 136.038 1.02497 135.875 0.774274C136.655 0.774274 137.366 0.760489 138.075 0.789009C138.182 0.793331 138.301 0.98196 138.382 1.10637C139.753 3.21046 141.119 5.31781 142.516 7.46968C142.605 7.33642 142.698 7.20147 142.788 7.06408C144.095 5.04913 145.405 3.03527 146.716 1.02249C146.755 0.960334 146.807 0.906808 146.867 0.865161C146.928 0.823514 146.997 0.794609 147.069 0.780194C147.723 0.756337 148.378 0.768964 149.13 0.768964Z" fill="#1D2231"></path><path d="M141.921 36.1675H132.934V21.752H134.812V22.386C134.812 26.2364 134.818 30.0868 134.803 33.9371C134.802 34.3543 134.893 34.5034 135.343 34.4978C137.37 34.4724 139.398 34.4962 141.425 34.4772C141.817 34.4735 141.961 34.5807 141.928 34.9776C141.896 35.3512 141.921 35.7295 141.921 36.1675Z" fill="#1D2231"></path><path d="M145.375 21.7422H147.227C147.239 21.9572 147.259 22.1542 147.259 22.3512C147.26 26.2173 147.268 30.0834 147.25 33.9494C147.248 34.392 147.381 34.4999 147.806 34.4955C149.786 34.4751 151.766 34.4865 153.746 34.4865H154.335V36.1565H145.375V21.7422Z" fill="#1D2231"></path><path d="M136.658 13.5001V15.1822C136.515 15.1968 136.382 15.2223 136.248 15.2224C133.545 15.225 130.842 15.2204 128.138 15.2302C127.814 15.2314 127.663 15.1754 127.664 14.7967C127.677 10.2388 127.68 5.68101 127.673 1.12315C127.673 1.02962 127.687 0.936089 127.697 0.804688H129.565V13.5001H136.658Z" fill="#1D2231"></path><path d="M210.616 46.0375L207.023 48.1419C207.023 47.4753 206.999 46.992 207.038 46.5138C207.062 46.4323 207.103 46.3567 207.158 46.2917C207.212 46.2267 207.28 46.1738 207.356 46.1362C208.717 45.5022 209.893 44.5323 210.775 43.3177C210.919 43.048 211.154 42.8379 211.438 42.7248C211.722 42.6116 212.037 42.6026 212.328 42.6994V57.1251H210.616V46.0375Z" fill="#1D2231"></path><path d="M64.977 54.1053C64.9833 54.4937 64.9112 54.8794 64.765 55.2394C64.6189 55.5993 64.4017 55.9261 64.1264 56.2002C63.8512 56.4743 63.5235 56.6902 63.163 56.8348C62.8024 56.9795 62.4165 57.05 62.0281 57.0421C61.6316 57.0492 61.2377 56.9769 60.8696 56.8295C60.5015 56.6822 60.1665 56.4627 59.8844 56.1841C59.6023 55.9054 59.3787 55.5731 59.2268 55.2069C59.075 54.8406 58.9979 54.4476 59 54.0511C59.0111 53.2588 59.3324 52.5024 59.8949 51.9444C60.4575 51.3864 61.2164 51.0712 62.0087 51.0665C62.4052 51.0641 62.798 51.1416 63.1639 51.2944C63.5297 51.4472 63.861 51.6721 64.1381 51.9557C64.4151 52.2393 64.6322 52.5758 64.7763 52.9451C64.9204 53.3145 64.9887 53.709 64.977 54.1053Z" fill="#1D2231"></path><path d="M200.374 15.1996H198.539V0.804688H200.374V15.1996Z" fill="#1D2231"></path><path d="M32.8576 33.7311V33.2093C32.8576 24.8968 32.8576 16.5843 32.8576 8.27181C32.842 8.17897 32.8448 8.08399 32.8656 7.99219C32.9273 7.89128 33.0017 7.79872 33.087 7.7168C33.1603 7.79581 33.223 7.88412 33.2733 7.97946C33.2918 8.07181 33.2945 8.16663 33.2812 8.25987C33.2813 16.5881 33.28 24.9163 33.2774 33.2445C33.2773 33.4792 33.4056 33.8621 32.8576 33.7311Z" fill="#1D2231"></path><path d="M58.6643 50.2469L59.9805 50.489L54.3941 40.9835L53.8942 42.2615L53.5469 42.1136C53.7356 41.5065 53.9071 40.9212 54.1081 40.3461C54.1404 40.2954 54.1851 40.2537 54.238 40.2249C54.2909 40.1962 54.3502 40.1813 54.4103 40.1816C55.008 40.3031 55.5996 40.4545 56.192 40.5959C56.264 40.9256 56.1139 40.9943 55.832 40.9333C55.5011 40.8617 55.168 40.8007 54.7282 40.7138C56.6248 43.9384 58.4661 47.0689 60.3588 50.2869L60.9208 48.8429C61.0464 49.058 61.2036 49.2064 61.1758 49.2993C60.9973 49.8952 60.7782 50.479 60.5682 51.0787C59.9698 50.946 59.3731 50.8253 58.7848 50.6723C58.6834 50.6459 58.6175 50.4825 58.5353 50.3824L58.6643 50.2469Z" fill="#1D2231"></path><path d="M12.5382 42.1245L12.1528 42.2124L11.7571 40.9035L5.896 50.2475L7.38919 50.0815C7.23923 50.2992 7.1741 50.5025 7.07339 50.522C6.47781 50.6373 5.87395 50.7098 5.24586 50.8006C5.08275 50.2084 4.90503 49.6106 4.76424 49.0043C4.74127 48.9053 4.88121 48.7684 4.94586 48.6491L5.0825 48.6859L5.50802 50.0644L11.4121 40.6499C10.9838 40.7011 10.6437 40.7222 10.3122 40.787C9.99424 40.8492 9.91039 40.7293 9.96213 40.4409C10.5818 40.3272 11.1943 40.2051 11.8114 40.114C11.8896 40.1024 12.0467 40.238 12.0738 40.3324C12.2382 40.9036 12.3754 41.4827 12.5382 42.1245Z" fill="#1D2231"></path><path d="M46.3617 24.1453L44.9836 23.8748L50.6175 33.4523C50.7732 33.0453 50.8777 32.709 51.0335 32.3984C51.0902 32.2854 51.269 32.2337 51.3921 32.1541L51.4776 32.2767C51.292 32.8853 51.1139 33.4964 50.9099 34.0987C50.8877 34.1642 50.7056 34.2275 50.6145 34.209C50.1088 34.1066 49.6123 33.9559 49.1048 33.8673C48.7668 33.8083 48.7751 33.6618 48.9138 33.4014L50.2431 33.6553L44.6518 24.149C44.5077 24.5227 44.395 24.8218 44.277 25.1187C44.1593 25.415 44.1569 25.4141 43.8125 25.2578C43.994 24.6638 44.1666 24.0657 44.3693 23.4778C44.4071 23.4314 44.4558 23.3951 44.5111 23.372C44.5663 23.3489 44.6264 23.3397 44.686 23.3454C45.193 23.4421 45.692 23.5797 46.198 23.6821C46.4808 23.7393 46.5425 23.8651 46.3617 24.1453Z" fill="#1D2231"></path><path d="M15.8024 33.5206C16.2537 33.7728 16.8113 33.1978 17.2534 33.8074C16.5118 33.9504 15.873 34.0797 15.2305 34.1872C15.1711 34.1972 15.0453 34.0802 15.0236 34.0019C14.8773 33.4742 14.7604 32.9384 14.6141 32.4108C14.5212 32.0757 14.7084 32.0815 14.9511 32.094L15.3489 33.4406L21.2537 24.0328L19.8859 24.1727C19.7443 23.8961 19.8094 23.7814 20.0909 23.7426C20.6021 23.6721 21.1082 23.5636 21.6201 23.5C21.6805 23.5032 21.7392 23.5216 21.7906 23.5535C21.842 23.5854 21.8846 23.6297 21.9143 23.6825C22.0831 24.2667 22.2217 24.8598 22.3692 25.4469C22.0963 25.5549 22.0963 25.5549 21.5802 24.3137L15.8024 33.5206Z" fill="#1D2231"></path><path d="M28.9134 36.8851C28.6162 36.5241 28.4015 36.2405 28.1621 35.9795C27.9528 35.7513 27.9934 35.6049 28.2851 35.4805L29.6506 37.0443L28.2236 38.5649L27.9194 38.3042L28.7657 37.3285C28.4867 37.3285 28.322 37.3285 28.1574 37.3285C24.6377 37.3286 21.118 37.3283 17.5983 37.3276C17.3445 37.3275 17.0091 37.4052 17.1577 36.8851L28.9134 36.8851Z" fill="#1D2231"></path><path d="M37.0261 37.2337L37.9998 38.4307L37.6818 38.6516C37.6335 38.6168 37.5882 38.578 37.5465 38.5355C37.294 38.2353 37.0486 37.929 36.7934 37.631C36.3191 37.0774 36.3176 37.0797 36.8288 36.5256C37.1154 36.2148 37.3996 35.9018 37.6866 35.5879C38.1444 35.7526 37.9481 35.9447 37.7438 36.153C37.5722 36.3279 37.4179 36.5197 37.1629 36.8099C37.4736 36.8099 37.6668 36.8099 37.86 36.8099C41.3136 36.8098 44.7673 36.8098 48.2209 36.8098C48.3455 36.7963 48.4715 36.8002 48.595 36.8215C48.6751 36.8453 48.7816 36.948 48.7837 37.0182C48.7857 37.0866 48.6816 37.1959 48.6033 37.2201C48.4799 37.2423 48.354 37.2466 48.2294 37.2329C44.6973 37.2333 41.1651 37.2336 37.633 37.2337C37.4671 37.2337 37.3013 37.2337 37.0261 37.2337Z" fill="#1D2231"></path><path d="M40.8943 16.8721C41.0502 16.4546 41.1763 16.1506 41.2767 15.8384C41.3694 15.5504 41.5087 15.487 41.7491 15.6924C41.5667 16.2871 41.3923 16.8836 41.1931 17.4717C41.1646 17.5186 41.1247 17.5576 41.0771 17.5849C41.0294 17.6122 40.9756 17.627 40.9207 17.6278C40.3109 17.4984 39.7065 17.3434 39.0688 17.1887L39.1666 16.8134L40.5108 17.0657L34.6406 7.08213L34.9785 6.82227L40.8943 16.8721Z" fill="#1D2231"></path><path d="M40.6105 23.3398L40.9826 23.5467L35.0562 33.7052L36.5023 33.501C36.6475 33.7586 36.6427 33.904 36.307 33.9549C35.7968 34.0322 35.2945 34.1607 34.7846 34.2398C34.724 34.2418 34.6638 34.2286 34.6095 34.2015C34.5552 34.1743 34.5086 34.1341 34.4738 34.0844C34.2907 33.5036 34.1386 32.913 33.9727 32.3109C34.3361 32.0012 34.3878 32.2967 34.4683 32.5623C34.5445 32.8136 34.6381 33.0596 34.7499 33.3828L40.6105 23.3398Z" fill="#1D2231"></path><path d="M24.8438 23.5042C25.1529 23.1762 25.2597 23.3771 25.3909 23.6077C27.0897 26.5932 28.792 29.5767 30.4977 32.5582C30.6583 32.8393 30.8247 33.1172 31.039 33.4829C31.2006 33.0644 31.3359 32.7368 31.4534 32.4029C31.5498 32.129 31.6879 32.053 31.9443 32.2725L31.2622 34.2179C30.6646 34.076 30.0728 33.9427 29.4865 33.7882C29.3984 33.765 29.3364 33.6425 29.2623 33.5659C29.366 33.508 29.4764 33.3919 29.5722 33.403C29.8801 33.4384 30.1826 33.5208 30.6059 33.6101L24.8438 23.5042Z" fill="#1D2231"></path><path d="M21.6214 50.9581C21.0045 50.8196 20.3933 50.6959 19.7926 50.5334C19.6993 50.5081 19.6541 50.305 19.5283 50.0794L20.9503 50.3478C20.7446 49.9904 20.5832 49.7087 20.4207 49.4276C18.7255 46.4954 17.0295 43.5635 15.3327 40.6321C15.1972 40.3982 15.066 40.1883 15.5051 40.0762L21.386 50.2421L21.9235 48.8696C22.2582 48.8946 22.3136 49.0198 22.1995 49.3059C21.9917 49.8272 21.826 50.3653 21.6214 50.9581Z" fill="#1D2231"></path><path d="M46.2848 50.4136L46.3524 50.7985L44.3078 51.1693C44.1334 50.583 43.9402 49.9766 43.7838 49.3608C43.7603 49.2684 43.9083 49.1323 43.977 49.0163L44.105 49.0601L44.5067 50.2954L50.4821 40.2852L50.8425 40.5034C49.934 42.0277 49.0364 43.5339 48.1386 45.04C47.1104 46.765 46.0805 48.489 45.049 50.2119C44.9243 50.3705 44.7834 50.5156 44.6287 50.645L46.2848 50.4136Z" fill="#1D2231"></path><path d="M25.4179 16.8373C25.8057 16.7903 26.1097 16.7341 26.415 16.7259C26.5356 16.7227 26.6591 16.8265 26.7813 16.8816C26.6822 16.9683 26.5935 17.112 26.4823 17.1323C25.9151 17.2359 25.342 17.3075 24.7297 17.3963C24.5695 16.7964 24.3913 16.17 24.2472 15.5358C24.2304 15.4619 24.4018 15.3452 24.5498 15.1749L24.9867 16.667L30.9957 7.09766C31.4215 7.18622 31.3184 7.38299 31.1619 7.63179C29.3318 10.5395 27.5058 13.4497 25.6836 16.3624C25.6036 16.49 25.5359 16.6254 25.4179 16.8373Z" fill="#1D2231"></path><path d="M45.5395 54.1053C45.5458 54.4937 45.4737 54.8794 45.3275 55.2394C45.1814 55.5993 44.9642 55.9261 44.6889 56.2002C44.4137 56.4743 44.086 56.6902 43.7255 56.8348C43.3649 56.9795 42.979 57.05 42.5906 57.0421C42.1941 57.0492 41.8002 56.9769 41.4321 56.8295C41.064 56.6822 40.729 56.4627 40.4469 56.1841C40.1648 55.9054 39.9412 55.5731 39.7894 55.2069C39.6375 54.8406 39.5604 54.4476 39.5625 54.0511C39.5736 53.2588 39.8949 52.5024 40.4574 51.9444C41.02 51.3864 41.7789 51.0712 42.5712 51.0665C42.9677 51.0641 43.3605 51.1416 43.7264 51.2944C44.0922 51.4472 44.4235 51.6721 44.7006 51.9557C44.9776 52.2393 45.1947 52.5758 45.3388 52.9451C45.4829 53.3145 45.5512 53.709 45.5395 54.1053Z" fill="#1D2231"></path><path d="M26.2036 54.1053C26.2098 54.4937 26.1377 54.8794 25.9916 55.2394C25.8454 55.5993 25.6283 55.9261 25.353 56.2002C25.0777 56.4743 24.7501 56.6902 24.3895 56.8348C24.029 56.9795 23.643 57.05 23.2546 57.0421C22.8582 57.0492 22.4643 56.9769 22.0962 56.8295C21.728 56.6822 21.3931 56.4627 21.111 56.1841C20.8288 55.9054 20.6053 55.5731 20.4534 55.2069C20.3016 54.8406 20.2244 54.4476 20.2266 54.0511C20.2377 53.2588 20.5589 52.5024 21.1215 51.9444C21.684 51.3864 22.4429 51.0712 23.2353 51.0665C23.6317 51.0641 24.0246 51.1416 24.3904 51.2944C24.7563 51.4472 25.0876 51.6721 25.3646 51.9557C25.6417 52.2393 25.8587 52.5758 26.0029 52.9451C26.147 53.3145 26.2153 53.709 26.2036 54.1053Z" fill="#1D2231"></path><path d="M6.68797 54.1053C6.69421 54.4938 6.6221 54.8794 6.47596 55.2394C6.32982 55.5993 6.11263 55.9261 5.83737 56.2002C5.56212 56.4743 5.23444 56.6902 4.87391 56.8348C4.51338 56.9795 4.12739 57.05 3.73901 57.0422C3.34254 57.0492 2.94866 56.9769 2.58053 56.8296C2.21239 56.6822 1.87743 56.4627 1.59532 56.1841C1.31321 55.9054 1.08966 55.5732 0.937794 55.2069C0.785926 54.8406 0.70881 54.4476 0.710982 54.0511C0.722031 53.2588 1.04332 52.5024 1.60585 51.9444C2.16838 51.3864 2.92731 51.0711 3.71967 51.0665C4.11612 51.0641 4.50899 51.1416 4.87483 51.2944C5.24067 51.4472 5.57199 51.6721 5.84901 51.9557C6.12604 52.2393 6.3431 52.5758 6.48724 52.9451C6.63138 53.3145 6.69964 53.7091 6.68797 54.1053Z" fill="#1D2231"></path><path d="M16.3521 37.1092C16.3583 37.4977 16.2862 37.8834 16.1401 38.2433C15.9939 38.6032 15.7767 38.93 15.5015 39.2041C15.2262 39.4783 14.8985 39.6941 14.538 39.8388C14.1775 39.9834 13.7915 40.0539 13.4031 40.0461C13.0066 40.0531 12.6128 39.9808 12.2446 39.8335C11.8765 39.6861 11.5415 39.4667 11.2594 39.188C10.9773 38.9094 10.7537 38.5771 10.6019 38.2108C10.45 37.8445 10.3729 37.4516 10.375 37.0551C10.3861 36.2628 10.7074 35.5064 11.2699 34.9483C11.8324 34.3903 12.5914 34.0751 13.3837 34.0704C13.7802 34.068 14.173 34.1455 14.5389 34.2983C14.9047 34.4511 15.2361 34.676 15.5131 34.9596C15.7901 35.2432 16.0072 35.5797 16.1513 35.949C16.2955 36.3184 16.3637 36.713 16.3521 37.1092Z" fill="#1D2231"></path><path d="M36.0005 37.1092C36.0067 37.4976 35.9346 37.8833 35.7885 38.2433C35.6423 38.6032 35.4251 38.93 35.1499 39.2041C34.8746 39.4782 34.5469 39.6941 34.1864 39.8387C33.8259 39.9834 33.4399 40.0539 33.0515 40.046C32.655 40.0531 32.2612 39.9808 31.893 39.8334C31.5249 39.6861 31.1899 39.4666 30.9078 39.188C30.6257 38.9093 30.4022 38.5771 30.2503 38.2108C30.0984 37.8445 30.0213 37.4515 30.0235 37.055C30.0345 36.2627 30.3558 35.5063 30.9184 34.9483C31.4809 34.3903 32.2398 34.0751 33.0322 34.0704C33.4286 34.068 33.8215 34.1455 34.1873 34.2983C34.5532 34.4511 34.8845 34.676 35.1615 34.9596C35.4385 35.2432 35.6556 35.5797 35.7997 35.949C35.9439 36.3184 36.0121 36.7129 36.0005 37.1092Z" fill="#1D2231"></path><path d="M55.3325 37.1092C55.3387 37.4976 55.2666 37.8833 55.1205 38.2433C54.9743 38.6032 54.7571 38.93 54.4819 39.2041C54.2066 39.4782 53.879 39.6941 53.5184 39.8387C53.1579 39.9834 52.7719 40.0539 52.3835 40.046C51.9871 40.0531 51.5932 39.9808 51.2251 39.8334C50.8569 39.6861 50.522 39.4666 50.2398 39.188C49.9577 38.9093 49.7342 38.5771 49.5823 38.2108C49.4305 37.8445 49.3533 37.4515 49.3555 37.055C49.3666 36.2627 49.6879 35.5063 50.2504 34.9483C50.8129 34.3903 51.5718 34.0751 52.3642 34.0704C52.7606 34.068 53.1535 34.1455 53.5193 34.2983C53.8852 34.4511 54.2165 34.676 54.4935 34.9596C54.7706 35.2432 54.9876 35.5797 55.1317 35.949C55.2759 36.3184 55.3442 36.7129 55.3325 37.1092Z" fill="#1D2231"></path><path d="M45.5395 20.5428C45.5458 20.9312 45.4737 21.3169 45.3275 21.6769C45.1814 22.0368 44.9642 22.3636 44.6889 22.6377C44.4137 22.9118 44.086 23.1277 43.7255 23.2723C43.3649 23.417 42.979 23.4875 42.5906 23.4796C42.1941 23.4867 41.8002 23.4144 41.4321 23.267C41.064 23.1197 40.729 22.9002 40.4469 22.6216C40.1648 22.3429 39.9412 22.0107 39.7894 21.6444C39.6375 21.2781 39.5604 20.8851 39.5625 20.4886C39.5736 19.6963 39.8949 18.9399 40.4574 18.3819C41.02 17.8239 41.7789 17.5087 42.5712 17.504C42.9677 17.5016 43.3605 17.5791 43.7264 17.7319C44.0922 17.8847 44.4235 18.1096 44.7006 18.3932C44.9776 18.6768 45.1947 19.0133 45.3388 19.3826C45.4829 19.752 45.5512 20.1465 45.5395 20.5428Z" fill="#1D2231"></path><path d="M26.2036 20.5428C26.2099 20.9312 26.1378 21.3169 25.9916 21.6769C25.8455 22.0368 25.6283 22.3636 25.3531 22.6377C25.0778 22.9118 24.7501 23.1277 24.3896 23.2723C24.0291 23.417 23.6431 23.4875 23.2547 23.4797C22.8582 23.4867 22.4643 23.4144 22.0962 23.2671C21.728 23.1197 21.3931 22.9003 21.111 22.6216C20.8289 22.3429 20.6053 22.0107 20.4534 21.6444C20.3015 21.2781 20.2244 20.8851 20.2266 20.4886C20.2377 19.6963 20.5589 18.9399 21.1215 18.3819C21.684 17.8239 22.4429 17.5087 23.2353 17.504C23.6317 17.5016 24.0246 17.5791 24.3905 17.7319C24.7563 17.8846 25.0876 18.1095 25.3647 18.3932C25.6417 18.6768 25.8588 19.0133 26.0029 19.3826C26.1471 19.752 26.2153 20.1465 26.2036 20.5428Z" fill="#1D2231"></path><path d="M36.0005 3.76157C36.0067 4.14999 35.9346 4.53568 35.7885 4.89561C35.6423 5.25554 35.4251 5.58233 35.1499 5.85645C34.8746 6.13057 34.547 6.34641 34.1864 6.49106C33.8259 6.63572 33.4399 6.70623 33.0515 6.69839C32.655 6.70543 32.2612 6.63315 31.893 6.48579C31.5249 6.33843 31.1899 6.11897 30.9078 5.84031C30.6257 5.56165 30.4022 5.2294 30.2503 4.86311C30.0984 4.49681 30.0213 4.10385 30.0235 3.70732C30.0345 2.91504 30.3558 2.15867 30.9184 1.60063C31.4809 1.0426 32.2398 0.727398 33.0322 0.722709C33.4286 0.720346 33.8215 0.797866 34.1873 0.950643C34.5532 1.10342 34.8845 1.32832 35.1615 1.61194C35.4385 1.89555 35.6556 2.23205 35.7997 2.60138C35.9439 2.97071 36.0121 3.36529 36.0005 3.76157Z" fill="#1D2231"></path></svg> 