<?xml version="1.0" encoding="UTF-8"?> <svg xmlns="http://www.w3.org/2000/svg" width="197" height="32" viewBox="0 0 197 32" fill="none"><path d="M25.9765 29.0199C29.4824 28.6859 32.9883 27.5167 32.9883 23.8424V11.9842L31.3188 10.314L29.4824 11.9842V20.8361L30.9849 22.1722L27.646 25.1785H27.4791L24.1401 22.3392L24.9749 21.5041V3.46629C24.9749 2.13016 23.8062 1.46209 23.1384 1.29507V0.961037C23.4723 0.79402 23.9732 0.627003 24.641 0.627003C25.8096 0.627003 26.8113 1.29507 27.1452 2.13016H27.3121C27.9799 1.12805 29.1485 0.627003 30.1502 0.627003C30.4841 0.627003 30.818 0.627003 31.1519 0.79402V1.12805C30.6511 1.29507 29.6494 1.96314 29.6494 3.80033V11.3161L34.1569 7.14067H34.4908C34.8247 7.4747 36.6611 9.14487 37.162 9.4789C37.3289 9.64592 37.4959 9.64592 37.8298 9.64592C38.1637 9.64592 38.4975 9.4789 38.8314 9.31189V9.81294C38.4975 10.147 37.9967 10.648 37.9967 11.4831V21.6711C37.9967 26.1806 32.9883 29.0199 26.3104 29.5209V29.0199H25.9765ZM24.3071 1.12805C24.9749 1.6291 25.6426 2.13016 25.6426 3.29928V21.8382L24.9749 22.5062L27.813 24.8445L28.6477 24.1764L26.4774 22.3392L26.8113 22.0052V3.46629C26.6443 1.96314 25.3088 1.29507 24.3071 1.12805V1.12805ZM32.1536 27.8508C33.4891 27.0157 34.8247 26.0136 34.8247 24.0094V11.3161L32.8214 9.14487L31.8197 9.97996L33.4891 11.8171V23.8424C33.6561 25.5125 32.9883 26.8487 32.1536 27.8508ZM40.5009 11.3161C42.5043 10.314 45.3424 8.64382 47.3457 7.14067H47.6796C49.0152 8.4768 50.8516 10.648 52.5211 12.1512V12.4852L45.1754 17.1617V20.168C45.8432 20.669 48.0135 21.6711 49.3491 22.1722L52.3541 19.3329L52.688 19.6669L46.8449 25.3455H46.511C44.5076 24.5104 42.0034 23.3413 40.334 22.5062C40.5009 21.8382 40.6679 20.335 40.6679 18.4978V11.3161H40.5009ZM47.3457 24.1764C45.3424 23.3413 43.6729 22.5062 42.0034 21.6711C42.1704 21.1701 42.1704 20.335 42.1704 18.4978V10.9821L41.0018 11.6501V18.4978C41.0018 20.335 41.0017 21.6711 40.8348 22.1722C42.3373 23.0073 44.5076 24.0094 46.511 24.8445L47.3457 24.1764ZM45.1754 16.6606L48.5144 14.4894C47.3457 13.1533 46.1771 11.8171 45.1754 10.815V16.6606ZM46.1771 9.31189L45.3424 9.97996C46.344 11.1491 47.6796 12.6522 49.0152 14.1554L50.0169 13.4873C48.5144 11.9842 47.1788 10.481 46.1771 9.31189ZM183.574 29.0199C187.08 28.6859 190.586 27.5167 190.586 23.8424V11.9842L188.917 10.314L187.08 11.9842V20.8361L188.583 22.1722L185.244 25.1785H184.91L181.571 22.3392L182.406 21.5041V3.46629C182.406 2.13016 181.237 1.46209 180.569 1.29507V0.961037C180.903 0.79402 181.404 0.627003 182.072 0.627003C183.24 0.627003 184.242 1.29507 184.576 2.13016H184.743C185.411 1.12805 186.579 0.627003 187.581 0.627003C187.915 0.627003 188.249 0.627003 188.583 0.79402V1.12805C188.082 1.29507 187.08 1.96314 187.08 3.80033V11.3161L191.421 7.14067H191.755C192.089 7.4747 193.925 9.14487 194.426 9.4789C194.593 9.64592 194.76 9.64592 195.094 9.64592C195.428 9.64592 195.761 9.4789 196.095 9.31189V9.97996C195.761 10.314 195.261 10.815 195.261 11.6501V21.6711C195.261 26.1806 190.252 29.0199 183.574 29.5209V29.0199ZM181.905 1.12805C182.406 1.46209 183.24 2.13016 183.24 3.29928V21.6711L182.573 22.3392L185.411 24.6775L186.245 24.0094L184.075 22.1722L184.409 21.8382V3.46629C184.242 1.96314 182.907 1.29507 181.905 1.12805V1.12805ZM189.584 27.6838C190.92 26.8487 192.256 25.8466 192.256 23.8424V11.3161L190.252 9.14487L189.417 9.97996L191.087 11.8171V23.8424C191.254 25.5125 190.586 26.8487 189.584 27.6838V27.6838ZM83.7401 11.3161C85.7435 10.314 88.5816 8.64382 90.5849 7.14067H90.9188C92.2544 8.4768 94.0908 10.648 95.5933 11.9842V12.3182L88.4146 16.9947V20.001C89.2494 20.502 91.2527 21.5041 92.5883 22.0052L95.5933 19.1659L95.9272 19.4999L90.0841 25.1785H89.7502C87.7468 24.3434 85.2426 23.1743 83.5732 22.3392C83.7401 21.6711 83.9071 20.168 83.9071 18.3308V11.3161H83.7401ZM90.418 24.1764C88.4146 23.3413 86.7452 22.5062 85.0757 21.6711C85.2426 21.1701 85.2426 20.335 85.2426 18.4978V10.9821L84.241 11.4831V18.3308C84.241 20.168 84.241 21.5041 84.074 22.0052C85.5765 22.8403 87.7468 23.8424 89.7502 24.6775L90.418 24.1764V24.1764ZM88.4146 16.4936L91.7536 14.3224C90.5849 12.9863 89.4163 11.6501 88.4146 10.648V16.4936V16.4936ZM89.4163 9.31189L88.4146 9.97996C89.4163 11.1491 90.7519 12.6522 92.0875 14.1554L93.0891 13.4873C91.7536 11.9842 90.418 10.481 89.4163 9.31189V9.31189ZM102.271 2.96524V20.502C102.271 21.1701 102.939 22.0052 103.607 22.1722L104.608 21.1701L104.942 21.5041L101.27 25.3455H100.936C99.6001 25.0115 97.5967 23.6754 97.5967 21.5041V5.13646L96.595 4.13436L95.4264 5.30348L95.0925 4.96945L99.2662 0.627003H99.6001L102.271 2.96524V2.96524ZM101.77 24.0094C100.435 23.6754 99.0992 22.8403 99.0992 21.0031V4.46839L97.5967 2.96524L96.762 3.80033L98.0975 4.96945V21.5041C98.0975 23.3413 99.6001 24.5104 100.936 24.8445L101.77 24.0094ZM106.612 11.3161C108.615 10.314 111.453 8.64382 113.457 7.14067H113.791C115.126 8.4768 116.963 10.648 118.465 11.9842V12.3182L111.286 16.9947V20.001C111.954 20.502 114.124 21.5041 115.46 22.0052L118.465 19.1659L118.799 19.4999L112.956 25.1785H112.622C110.619 24.3434 108.114 23.1743 106.445 22.3392C106.612 21.6711 106.779 20.168 106.779 18.3308V11.3161H106.612ZM113.29 24.1764C111.286 23.3413 109.617 22.5062 107.947 21.6711C108.114 21.1701 108.114 20.335 108.114 18.4978V10.9821L107.113 11.4831V18.3308C107.113 20.168 107.113 21.5041 106.946 22.0052C108.448 22.8403 110.619 23.8424 112.622 24.6775L113.29 24.1764V24.1764ZM111.286 16.4936L114.625 14.3224C113.457 12.9863 112.288 11.6501 111.286 10.648V16.4936V16.4936ZM112.288 9.31189L111.453 9.97996C112.455 11.1491 113.791 12.6522 115.126 14.1554L115.961 13.4873C114.625 11.9842 113.29 10.481 112.288 9.31189V9.31189ZM142.005 11.9842V20.502C142.005 21.1701 142.672 22.0052 143.34 22.0052L144.342 21.0031L144.676 21.3371L141.003 25.1785H140.836C139.5 24.8445 137.497 23.6754 137.497 21.3371V11.6501L136.495 10.648L135.327 11.6501L134.993 11.3161L139.166 7.14067H139.5L142.171 9.81294V11.3161L145.51 7.30768H145.844C146.512 7.97575 147.514 8.97785 148.515 9.64592L145.677 12.9863C144.843 12.3182 143.841 11.3161 143.173 10.815L142.005 11.9842V11.9842ZM141.671 24.0094C140.335 23.6754 139 22.8403 139 21.0031V10.9821L137.664 9.4789L136.829 10.314L137.998 11.4831V21.3371C137.998 23.1743 139.5 24.3434 140.836 24.6775L141.671 24.0094V24.0094ZM143.507 10.481C144.008 10.9821 144.843 11.8171 145.51 12.3182L146.178 11.4831C145.51 10.9821 144.509 9.97996 144.008 9.64592L143.507 10.481V10.481ZM152.856 25.3455L148.849 22.6733V17.3287C149.851 16.6606 152.021 15.1575 153.023 14.4894C151.354 13.6543 150.018 12.6522 149.183 11.4831V11.1491C151.521 9.81294 153.357 8.4768 154.692 7.14067H155.026C155.026 7.14067 160.035 9.47891 160.202 9.64592C160.536 9.81294 160.703 9.81294 160.87 9.81294C161.203 9.81294 161.537 9.64592 161.871 9.4789V9.97996C161.537 10.314 161.036 10.815 161.036 11.4831V20.335C161.036 21.3371 161.871 21.8382 162.539 22.0052L163.541 21.0031L163.875 21.3371L160.202 25.1785H160.035C158.532 24.8445 156.863 23.3413 156.696 21.6711L153.19 25.1785H152.856V25.3455ZM153.691 24.0094L150.352 21.8382V16.8277L149.35 17.4957V22.3392L153.023 24.6775L153.691 24.0094V24.0094ZM156.529 15.3245V12.6522L151.687 10.147C151.354 10.481 150.018 11.1491 149.684 11.4831C150.853 12.8192 153.858 14.6564 156.529 15.3245V15.3245ZM160.87 24.0094C159.534 23.5083 158.198 22.6732 158.198 20.8361V11.6501L153.19 9.14487C153.023 9.31189 152.522 9.64592 152.355 9.81294L157.197 12.3182V21.3371C157.197 23.0073 158.866 24.3434 160.035 24.8445L160.87 24.0094V24.0094ZM156.529 21.1701V15.8256C155.527 15.4915 154.359 15.1575 153.357 14.6564V21.3371L155.193 22.5062L156.529 21.1701V21.1701ZM120.301 22.5062V11.3161L126.312 7.14067H126.645C127.814 7.64172 131.654 9.31189 131.988 9.4789C132.155 9.4789 132.322 9.64592 132.656 9.64592C132.989 9.64592 133.323 9.4789 133.824 9.31189V9.97996C133.49 10.314 132.989 10.9821 132.989 11.4831V21.0031C132.989 23.1743 133.49 24.5104 134.325 25.3455V25.6796C132.989 27.0157 129.984 30.189 128.649 31.6922H128.482C127.146 31.0241 124.976 30.356 123.307 30.356C121.971 30.356 120.468 30.6901 119.467 31.5251L119.133 31.3581C120.135 29.0199 122.305 26.5146 125.143 26.5146C126.812 26.5146 129.15 27.1827 131.153 28.3518C129.817 26.8487 128.649 24.0094 128.649 21.8382L125.143 25.1785H124.809L120.301 22.5062V22.5062ZM123.14 29.0199C121.804 29.0199 120.635 29.688 119.968 30.523V30.6901C120.802 30.189 121.637 30.022 123.14 30.022C124.809 30.022 127.146 30.523 128.315 31.1911L128.983 30.356C127.48 29.688 125.31 29.0199 123.14 29.0199ZM124.475 24.8445L125.31 24.1764L121.804 21.6711V10.9821L120.802 11.6501V22.3392L124.475 24.8445V24.8445ZM129.817 10.9821L124.809 8.97785V9.97996L128.649 11.6501V21.6711C128.649 23.8424 129.65 26.1806 131.153 28.0178L131.988 27.1827C130.652 25.5125 129.817 23.6754 129.817 21.5041V10.9821V10.9821ZM128.315 21.1701V11.9842L124.976 10.481V21.0031L127.146 22.3392L128.315 21.1701V21.1701ZM171.053 11.3161L175.394 7.14067H175.728C176.062 7.4747 178.065 9.31189 178.399 9.4789C178.566 9.64592 178.733 9.64592 178.9 9.64592C179.234 9.64592 179.568 9.4789 179.901 9.31189V9.97996C179.568 10.314 179.067 10.9821 179.067 11.6501V22.3392C177.23 22.8403 175.728 23.8424 174.058 25.6796H173.891L171.053 25.0115V27.3497L172.556 28.6859L169.05 31.6922H168.883L165.544 28.8529L166.379 27.8508V23.8424C166.045 23.8424 165.377 23.6754 165.043 23.5083V23.0073C165.377 22.8403 166.546 21.8382 166.546 21.0031V11.8171L165.544 10.815L164.375 11.9842L164.042 11.6501L168.215 7.4747H168.549L171.22 10.147V11.3161H171.053ZM166.88 28.1848L166.212 28.8529L168.883 31.1911L169.718 30.523L167.547 28.6859L167.881 28.3518V10.9821L166.379 9.4789L165.711 10.147L166.88 11.3161V28.1848V28.1848ZM174.392 21.6711V11.9842L172.723 10.314L170.886 11.9842V20.8361C171.721 21.1701 174.058 21.5041 174.392 21.6711ZM173.891 25.1785C174.058 24.8445 174.392 24.5104 174.559 24.3434L170.886 23.6754V24.6775L173.891 25.1785ZM173.057 10.147L174.893 11.9842V21.6711L175.895 21.1701V11.3161L173.891 9.31189L173.057 10.147V10.147ZM2.10315 15.4915C2.10315 11.1491 5.27514 8.30979 8.28018 6.97365L8.44713 7.30768C7.44545 8.4768 6.77766 9.64592 6.77766 12.3182C6.77766 15.3245 7.6124 17.3287 8.78102 18.6648C9.11492 18.1638 9.44881 17.4957 9.44881 16.8277V12.4852L14.7911 8.64382L14.9581 8.97785C14.6242 9.47891 14.2903 10.147 14.2903 11.1491V13.9884C14.2903 15.9926 11.1183 18.1638 9.11492 18.8319C10.4505 20.168 12.2869 20.669 14.2903 20.669C14.9581 20.669 15.6258 20.669 16.2936 20.502V8.30979C14.4572 8.14277 12.7877 7.80874 11.2852 7.30768C9.61576 6.80663 7.94629 6.30558 6.61072 6.30558C4.44041 6.30558 1.76926 6.97365 1.76926 10.147V11.1491L1.26842 11.3161C0.934525 10.314 0.767578 9.31189 0.767578 8.4768C0.767578 4.63541 3.60567 1.29507 8.11324 1.29507C9.94965 1.29507 11.7861 1.79612 13.4555 2.29717C15.125 2.79822 16.7945 3.29928 18.4639 3.29928C19.2987 3.29928 19.7995 2.79822 19.7995 1.96314C19.7995 1.12805 19.4656 0.79402 18.7978 0.627003V0.292969C20.8012 0.627003 22.8046 1.79612 22.8046 4.30138C22.9715 6.80663 20.8012 8.30979 17.1284 8.30979H16.7945V20.669C19.1317 20.168 20.8012 19.1659 21.9698 17.1617L22.3037 17.3287C20.9681 21.5041 17.7961 25.5125 12.2869 25.5125C6.77766 25.5125 2.10315 22.1722 2.10315 15.4915V15.4915ZM17.1284 6.80663C13.1216 6.80663 9.44881 4.80243 6.61072 4.80243C4.60735 4.80243 2.43705 5.63751 1.76926 7.80873H1.93621C2.77094 6.30558 4.7743 5.80453 6.61072 5.80453C9.61576 5.80453 13.1216 7.80873 17.1284 7.80873C20.3004 7.80873 22.3037 6.63962 22.4707 4.13436H22.3037C21.9698 6.13856 20.3004 6.80663 17.1284 6.80663V6.80663ZM5.60903 9.31189C4.10651 10.815 2.77094 12.8192 2.77094 15.4915C2.77094 21.8382 6.94461 25.0115 12.4539 25.0115C15.7928 25.0115 18.13 23.1743 19.4656 21.8382L19.2987 21.6711C17.7961 23.0073 15.6258 24.0094 12.2869 24.0094C7.94629 24.0094 3.77262 21.3371 3.77262 15.4915C3.77262 13.1533 4.60735 10.815 5.60903 9.31189V9.31189ZM10.9513 16.4936V11.8171L9.94965 12.6522V16.9947C9.94965 17.4957 9.7827 17.8298 9.7827 18.1638H9.94965C10.4505 17.6627 10.9513 17.1617 10.9513 16.4936ZM61.5362 15.4915C61.5362 11.1491 64.7082 8.30979 67.7132 6.97365L67.8802 7.30768C66.7116 8.64382 66.0438 9.81294 66.0438 12.3182C66.0438 15.3245 66.8785 17.3287 68.0471 18.6648C68.381 18.1638 68.7149 17.4957 68.7149 16.8277V12.4852L74.2242 8.4768L74.3911 8.81084C73.8903 9.47891 73.7233 10.147 73.7233 11.1491V13.9884C73.7233 15.9926 70.5513 18.1638 68.548 18.8319C69.8835 20.168 71.72 20.669 73.7233 20.669C74.3911 20.669 75.0589 20.669 75.7267 20.502V8.30979C73.8903 8.14277 72.2208 7.80874 70.7183 7.30768C69.0488 6.80663 67.3793 6.30558 66.0438 6.30558C63.8735 6.30558 61.2023 6.97365 61.2023 10.147V11.1491L60.8684 11.3161C60.5345 10.314 60.3676 9.31189 60.3676 8.4768C60.3676 4.63541 63.2057 1.29507 67.7132 1.29507C69.5496 1.29507 71.3861 1.79612 73.0555 2.29717C74.725 2.79822 76.3945 3.29928 78.0639 3.29928C78.8987 3.29928 79.3995 2.79822 79.3995 1.96314C79.3995 1.12805 79.0656 0.79402 78.3978 0.627003V0.292969C80.4012 0.627003 82.4046 1.79612 82.4046 4.30138C82.4046 7.30768 80.2342 8.64382 76.5614 8.64382H76.2275V21.0031C78.5648 20.502 80.2342 19.4999 81.4029 17.4957L81.7368 17.6627C80.4012 21.8382 77.2292 25.8466 71.72 25.8466C66.2107 25.5125 61.5362 22.1722 61.5362 15.4915V15.4915ZM76.5614 6.80663C72.5547 6.80663 68.8819 4.80243 66.0438 4.80243C64.2073 4.80243 62.037 5.63751 61.2023 7.80873H61.3693C62.204 6.30558 64.2073 5.80453 66.0438 5.80453C69.0488 5.80453 72.5547 7.80873 76.5614 7.80873C79.7334 7.80873 81.7368 6.63962 81.9037 4.13436H81.7368C81.2359 6.13856 79.7334 6.80663 76.5614 6.80663V6.80663ZM65.0421 9.31189C63.5396 10.815 62.204 12.8192 62.204 15.4915C62.204 21.8382 66.3777 25.0115 71.8869 25.0115C75.2258 25.0115 77.5631 23.1743 78.8987 21.8382L78.7317 21.6711C77.2292 23.0073 75.0589 24.0094 71.72 24.0094C67.3793 24.0094 63.2057 21.3371 63.2057 15.4915C63.2057 13.1533 64.0404 10.815 65.0421 9.31189V9.31189ZM70.3844 16.4936V11.8171L69.3827 12.4852V16.8277C69.3827 17.3287 69.2158 17.6627 69.2158 17.9968H69.3827C69.8835 17.6627 70.3844 17.1617 70.3844 16.4936Z" fill="#1D2231"></path></svg> 