<?xml version="1.0" encoding="UTF-8"?> <svg xmlns="http://www.w3.org/2000/svg" width="290" height="22" viewBox="0 0 290 22" fill="none"><path d="M61.6094 11.6024L61.761 11.6331L61.7165 11.7806L61.7353 11.7916L61.9595 11.5279L61.949 11.5091L61.6085 11.5794L61.6094 11.6024V11.6024ZM61.6347 11.1852L61.6544 11.1967L61.8502 10.9849L61.8392 10.9656L61.5548 11.0129L61.5538 11.0354L61.677 11.0657L61.6347 11.1852V11.1852ZM60.9869 12.8442L60.7563 12.8438L60.7507 12.8658L60.8417 12.9053L60.7939 12.9917L60.8109 13.0069L60.9942 12.8649L60.9869 12.8442V12.8442ZM61.4767 12.4583L61.1886 12.4679L61.1854 12.4905L61.3025 12.5369L61.2451 12.6494L61.263 12.6637L61.4849 12.4794L61.4767 12.4583V12.4583ZM61.7101 12.2042L61.8699 12.2277L61.8323 12.3839L61.8529 12.3935L62.0689 12.1059L62.0574 12.0875L61.7082 12.1817L61.7101 12.2042V12.2042ZM60.9437 13.3533L60.9391 13.3754L61.031 13.4149L60.9832 13.5012L61.0002 13.5159L61.1826 13.3744L61.1753 13.3538L60.9437 13.3533V13.3533ZM62.385 13.3726L62.5403 13.2021L62.5292 13.1824L62.3014 13.2219L62.3004 13.2444L62.3965 13.2674L62.3652 13.3611L62.385 13.3726V13.3726ZM62.4989 11.9143L62.7636 11.5486L62.7512 11.5307L62.3174 11.6561L62.3193 11.6791L62.5224 11.7048L62.4783 11.9047L62.4989 11.9143V11.9143ZM61.6636 12.949L61.3746 12.9485L61.3691 12.971L61.4868 13.0211L61.4238 13.1318L61.4417 13.1466L61.6705 12.9697L61.6636 12.949V12.949ZM62.1929 10.9724L62.3914 11.0257L62.3193 11.2173L62.3381 11.2293L62.6515 10.904L62.6409 10.8842L62.1948 10.9495L62.1929 10.9724ZM62.0601 12.9678L62.2935 12.6926L62.2816 12.6738L61.9292 12.7477V12.7707L62.0863 12.8029L62.0395 12.9568L62.0601 12.9678V12.9678ZM62.7824 10.1873L62.7994 10.2015L62.9827 10.06L62.9754 10.0398H62.7447L62.7401 10.0614L62.8311 10.1009L62.7824 10.1873V10.1873ZM62.1543 10.5736L62.1723 10.5883L62.4567 10.3674L62.4498 10.3462L62.0886 10.3458L62.0836 10.3683L62.2324 10.4321L62.1543 10.5736V10.5736ZM63.3397 12.3613V12.3839L63.4619 12.4147L63.4197 12.5332L63.4385 12.5451L63.6351 12.3333L63.625 12.314L63.3397 12.3613V12.3613ZM64.1993 10.3288L64.2182 10.3435L64.4006 10.2019L64.3932 10.1813H64.1626L64.158 10.2029L64.249 10.2429L64.1993 10.3288V10.3288ZM61.8975 13.3979L61.6659 13.397L61.6627 13.419L61.7523 13.4585L61.7045 13.5444L61.722 13.5601L61.9049 13.4185L61.8975 13.3979V13.3979ZM63.5533 10.2222L63.5704 10.2369L63.7982 10.06L63.7918 10.0398H63.5024L63.4978 10.0614L63.6135 10.1119L63.5533 10.2222V10.2222ZM63.1109 11.7586L63.269 11.7889L63.2239 11.9433L63.2446 11.9538L63.4734 11.6759L63.4619 11.6561L63.11 11.7361L63.1109 11.7586V11.7586ZM63.3324 9.70299L64.5062 9.70484C64.5062 9.70484 64.877 9.8445 65.3631 10.0402C65.5878 10.1303 65.7059 10.3325 65.687 10.5622C65.687 10.5622 65.88 10.7551 65.987 10.8769C66.1143 11.0244 66.1295 11.2283 66.0284 11.3625C65.9296 11.4935 65.7876 11.5261 65.7274 11.5344L65.7169 11.5123C65.7932 11.4347 65.7624 11.3111 65.6944 11.2123C65.6227 11.1094 65.5588 11.0905 65.4853 11.1346C65.4532 11.1549 65.4118 11.1856 65.4118 11.1856L65.5938 11.4765L65.5878 11.4976C65.4421 11.5376 65.2414 11.5059 65.1481 11.3873C65.1435 11.3873 65.1435 11.3873 64.2444 11.3873L64.2434 11.4103L64.7461 11.5017L64.7612 11.5362L63.0346 13.5669L63.0507 13.5821L63.6383 13.0565L63.6393 13.515L63.5855 13.6533L63.6402 13.9745L63.6213 14.1123C63.6213 14.1123 64.1552 14.5704 64.1589 14.5704H64.1598C64.1598 14.5704 64.1672 14.575 64.1741 14.5773C64.1796 14.58 64.1869 14.5842 64.1947 14.5888C64.2021 14.5929 64.2113 14.5975 64.22 14.603C64.2292 14.6085 64.2389 14.615 64.249 14.6218C64.2595 14.6274 64.2669 14.6365 64.2774 14.6439C64.2875 14.6526 64.2972 14.66 64.3055 14.6696C64.3142 14.6788 64.3234 14.6889 64.3321 14.6986C64.3395 14.7091 64.3491 14.7192 64.3555 14.7298C64.3638 14.7404 64.3689 14.7519 64.3762 14.762C64.3808 14.7735 64.3877 14.7836 64.3923 14.7946C64.3978 14.8052 64.4024 14.8157 64.4056 14.8254C64.4102 14.8355 64.413 14.8442 64.4157 14.8529C64.4194 14.8598 64.4212 14.8681 64.4226 14.8755C64.4263 14.8888 64.429 14.8966 64.429 14.8966L64.4525 14.8975C64.4525 14.8975 64.4571 14.8902 64.4603 14.8768C64.464 14.8704 64.4658 14.8621 64.4676 14.8516C64.4695 14.8405 64.4723 14.8281 64.4713 14.8153V14.795C64.4704 14.7877 64.4686 14.7803 64.4686 14.773C64.4667 14.7578 64.4612 14.7427 64.4571 14.7271C64.4516 14.711 64.4442 14.6949 64.4364 14.6802C64.4281 14.6646 64.4176 14.6508 64.4056 14.6365C64.3941 14.6237 64.3826 14.6103 64.3679 14.5998C64.3546 14.5878 64.3404 14.5786 64.3261 14.5708C64.3105 14.563 64.2972 14.5561 64.282 14.5525C64.2765 14.5502 64.271 14.5483 64.266 14.5469C64.333 14.5318 64.4006 14.5171 64.4658 14.5019H64.4667C64.4667 14.5024 64.4667 14.5024 64.4676 14.5028C64.4731 14.5051 64.4801 14.5097 64.4883 14.5139C64.4966 14.518 64.5053 14.5226 64.5136 14.529C64.5232 14.5336 64.5324 14.5401 64.5412 14.5469C64.5531 14.5534 64.5609 14.5621 64.571 14.5685C64.5798 14.5777 64.5908 14.5855 64.5986 14.5947C64.6087 14.6039 64.6174 14.614 64.6257 14.6237C64.6335 14.6342 64.6418 14.6439 64.6491 14.6549C64.656 14.6659 64.6625 14.677 64.6689 14.6875C64.6739 14.699 64.6822 14.7091 64.6859 14.7197C64.6909 14.7303 64.6955 14.7413 64.7001 14.7509C64.7047 14.7606 64.7075 14.7693 64.7089 14.778C64.7125 14.7859 64.7153 14.7937 64.7171 14.8006C64.7208 14.8143 64.7235 14.8217 64.7235 14.8217L64.747 14.8231C64.747 14.8231 64.7502 14.8153 64.7539 14.8015C64.7576 14.7955 64.7603 14.7872 64.7622 14.7762C64.764 14.7657 64.7649 14.7528 64.7649 14.7404V14.7197C64.764 14.7128 64.7631 14.7054 64.7631 14.6981C64.7612 14.6829 64.7548 14.6682 64.7511 14.6522C64.7451 14.6365 64.7387 14.6205 64.7295 14.6058C64.7217 14.5897 64.7107 14.5763 64.7001 14.5616C64.6877 14.5488 64.6758 14.5355 64.6624 14.5249C64.6482 14.5134 64.6335 14.5047 64.6193 14.4964C64.6059 14.4895 64.5926 14.4822 64.5779 14.4785C65.5239 14.274 66.2563 14.1357 66.2563 14.1357C67.2119 14.7009 67.1517 14.6664 67.3502 14.7762C67.7146 14.9788 67.6989 15.5738 67.0107 15.5738C66.4929 15.5738 65.5336 15.6625 64.9496 15.776L65.4656 15.3069L65.4495 15.2908C65.4495 15.2908 64.9386 15.6611 64.3321 15.9643V15.9648C64.0036 16.0971 63.5083 16.3126 62.9979 16.5396L63.7518 15.8265L63.7344 15.8091C63.7344 15.8091 62.7709 16.5846 62.0886 16.9471C61.6788 17.1327 61.3241 17.2944 61.1261 17.3854C60.8495 17.5117 60.6322 17.5471 60.3239 17.4378C59.8327 17.2637 59.6416 17.1957 59.2254 17.0367C58.9832 16.9448 58.9653 16.6039 59.2235 16.5216C59.3365 16.4853 59.6311 16.3916 59.8259 16.3296C59.9109 16.3668 59.9991 16.405 60.0868 16.444C60.2251 16.5051 60.3639 16.5658 60.4953 16.6227C60.5605 16.6508 60.6235 16.6783 60.6827 16.705C60.697 16.7114 60.7121 16.7174 60.7268 16.7243C60.7346 16.7275 60.742 16.7307 60.7489 16.733L60.759 16.738V16.7385L60.7608 16.739L60.7617 16.7394L60.7668 16.7422C60.7948 16.7578 60.8137 16.7707 60.8353 16.7886C60.8748 16.8226 60.9014 16.863 60.9161 16.903C60.9313 16.943 60.9341 16.9806 60.9322 17.0119C60.9313 17.0427 60.9239 17.0675 60.9193 17.0845C60.9143 17.1006 60.9124 17.1088 60.9124 17.1088L60.9382 17.1198C60.9382 17.1198 60.9419 17.1102 60.9501 17.0936C60.9566 17.0762 60.9653 17.05 60.9699 17.0155C60.9736 16.9806 60.9745 16.937 60.9607 16.8887C60.9474 16.841 60.918 16.7895 60.8748 16.7459C60.8541 16.7252 60.8261 16.7017 60.8022 16.6866L60.7958 16.6838L60.7939 16.682L60.7893 16.6788L60.7787 16.6733C60.7723 16.6696 60.7654 16.665 60.759 16.6618C60.7448 16.6535 60.731 16.6457 60.7167 16.6374C60.6602 16.6053 60.6 16.5708 60.538 16.5364C60.4153 16.4647 60.2844 16.3898 60.1516 16.3149C59.8608 16.1477 59.569 15.9813 59.3673 15.8651C59.3655 15.8646 59.3646 15.8642 59.3646 15.8637C59.3646 15.8637 60.3836 15.543 61.6848 15.1856L61.8943 15.2775L61.9012 15.2637L61.9049 15.2582L61.7817 15.1598L61.4596 14.8998L61.3002 14.8447L61.1941 14.5538L61.0498 14.4725L60.9078 13.8238L60.8853 13.8284L60.9437 14.5369L60.5389 14.7638V13.8275L60.516 13.8238L60.3983 14.8121L59.8534 14.9182L60.039 13.844L60.0151 13.8389L59.6811 14.9366L59.1473 14.9729L59.5341 13.827L59.5116 13.8169L58.9419 14.9848H58.941L58.414 15.0193L59.0287 13.81L59.009 13.798L58.1673 15.0436L57.6067 15.1309L58.5174 13.7888L58.4994 13.7746L56.9667 15.5559L56.884 15.5008L58.2573 13.3478L60.3597 12.5617C60.3597 12.5617 60.5013 12.5001 60.583 12.4652C60.6235 12.4473 60.6657 12.4303 60.7112 12.4073C60.7337 12.3972 60.7544 12.3834 60.7769 12.371C60.7976 12.3581 60.8183 12.3444 60.8389 12.3301C60.8785 12.2998 60.918 12.269 60.952 12.2332L60.9777 12.2079C60.9851 12.1987 60.9933 12.1895 61.0011 12.1803C61.0172 12.1629 61.031 12.144 61.0452 12.1257C61.0586 12.1073 61.0705 12.0875 61.0838 12.0691C61.0944 12.0508 61.1054 12.031 61.116 12.0131C61.1252 11.9943 61.1339 11.9759 61.1422 11.9584C61.15 11.9401 61.1573 11.9226 61.1647 11.9056C61.1771 11.8711 61.1877 11.8394 61.195 11.8105C61.2033 11.782 61.2074 11.7558 61.212 11.7356C61.2157 11.7144 61.2175 11.6988 61.2194 11.6874C61.2203 11.6763 61.2212 11.6699 61.2212 11.6699L61.1969 11.6658C61.1969 11.6658 61.195 11.6717 61.1923 11.6828C61.1904 11.6933 61.1867 11.7103 61.1817 11.7296C61.1762 11.7494 61.1697 11.7728 61.1592 11.7995C61.1509 11.8266 61.1376 11.8569 61.1243 11.8877C61.116 11.9033 61.1082 11.9198 61.099 11.9359C61.0903 11.952 61.0792 11.969 61.0696 11.986C61.0576 12.0021 61.0471 12.0195 61.0342 12.0361C61.0209 12.0521 61.0094 12.0692 60.9951 12.0857C60.9804 12.1013 60.9662 12.1183 60.9501 12.133L60.9248 12.156L60.9005 12.178C60.8665 12.2074 60.8288 12.2332 60.7902 12.2575C60.7705 12.269 60.7507 12.28 60.731 12.2902C60.7094 12.2993 60.6905 12.3104 60.6694 12.3177C60.629 12.3343 60.5849 12.3494 60.5435 12.3646C60.459 12.3944 60.3813 12.4225 60.3138 12.4463C60.2476 12.4707 60.1916 12.49 60.1525 12.5038L60.0179 12.2313L60.2904 11.9911L60.277 11.9727L59.5484 12.4197L59.377 12.0765L60.3625 11.3469L60.346 11.3262L58.8477 12.2221L58.7103 11.8606L60.1227 10.9173L60.1112 10.898L58.2913 11.8969L58.2049 11.5573L59.745 10.5792L59.733 10.559L57.8489 11.5201L57.7942 11.1181V11.1176L59.3489 10.2796L59.3393 10.2594L57.4147 11.0611L57.4064 10.6692L58.9768 10.0558L58.9694 10.032L57.0627 10.5539L57.0853 10.1248L58.5344 9.79213L58.5298 9.77009L56.675 10.0237L56.7342 9.65383L58.0993 9.50728V9.48339L56.1921 9.51463L56.221 9.20176L57.7409 9.19119L57.7427 9.16867L55.0122 8.96881L55.0076 8.94354L55.4501 8.78962L55.4492 8.76803L54.3185 8.33659L54.3203 8.31225L54.7729 8.27597L54.777 8.25207L53.8007 7.64927L53.8071 7.61618L54.4908 7.65525L54.499 7.63365L53.7111 6.8944L53.7207 6.87143L54.0915 6.94219L54.1025 6.92427L53.7327 6.45885L53.5039 5.79954L53.5264 5.78804L53.8806 6.23372L54.681 6.69409L54.698 6.678L54.1811 5.91993L53.9886 5.07316L54.0116 5.06259L54.4287 5.6888L55.2374 6.34673L55.2525 6.33022L54.7591 5.43292L54.5886 4.33713L54.6157 4.33161L55.0986 5.2643L56.1117 6.10599L56.1305 6.09037L55.4331 4.97024L55.275 3.62682L55.2975 3.61992L55.7327 4.81127L57.1693 6.10462L58.9823 7.03178L60.9699 9.79488L61.744 10.4468L61.762 10.4289L61.4229 9.98739H61.4266L61.4275 9.98694L61.4229 9.98739L62.2205 9.78156L62.2191 9.75722L61.5272 9.71678L61.5244 9.69334L62.5403 9.51278L62.5375 9.48981L61.2704 9.39334L61.2694 9.36945L62.8849 9.09836L63.5271 9.24999L63.5345 9.22792L62.9216 8.94674L61.92 8.96833L61.9173 8.94444L62.9869 8.74321L63.6494 8.96926L63.6581 8.94767L63.0572 8.56632L62.3455 8.53693V8.51166L63.1412 8.38805L63.8387 8.71427L63.8511 8.6936L63.2768 8.15421L62.6515 8.15146L62.6487 8.12619L63.4095 7.95572L64.0854 8.51119L64.1015 8.49512L63.5818 7.73612L63.0158 7.62998L63.0185 7.60654L63.7344 7.56335L64.3799 8.34809L64.3987 8.33522L63.9356 7.35845L63.3163 7.15629L63.3209 7.13195L64.1097 7.19673L64.7089 8.22681L64.7295 8.21716L64.3321 7.00834L63.5552 6.73038L63.5602 6.70649L64.4998 6.87556L65.0231 8.11837L65.0465 8.11239L64.7038 6.72578L63.8699 6.25346L63.8819 6.2305L64.8724 6.60725L65.3443 7.99616L65.3677 7.99111L65.0727 6.47447L64.1672 5.81471L64.1805 5.79357L65.2349 6.37155L65.6475 7.83306L65.6719 7.82754L65.4127 6.26266L64.464 5.42097L64.4787 5.40305L65.5878 6.1593L65.9089 7.64835L65.9314 7.64423L65.7688 6.06095L64.8233 5.03732L64.8393 5.01848L65.9356 5.95621L66.1772 7.39888L66.2016 7.39703L66.0955 5.88086L65.2 4.71066L65.217 4.69504L66.2714 5.79724L66.4373 7.04555L66.4607 7.04373L66.407 5.72374L65.5878 4.46899L65.6075 4.45429L66.5549 5.65526L66.6813 6.55167L66.7056 6.54937L66.6615 5.59049L66.0785 4.2898L66.0991 4.27833L66.8223 5.51009L66.8889 6.01547L66.9119 6.0132L66.9473 5.43749L66.6454 4.21352L66.6679 4.2048L67.0828 5.23213H67.1067L67.3617 4.20617L67.387 4.21215L67.3034 5.22156L67.3259 5.22846L68.0283 4.2186L68.0481 4.23054L67.5933 5.14254L67.6084 5.15953L68.6808 4.39409L68.6941 4.41293L67.0594 6.62057C67.0594 6.62057 66.5287 8.03567 66.3583 8.50844C66.3234 8.6017 66.2641 8.66235 66.1745 8.70002C66.1235 8.7207 64.8481 9.22977 64.8481 9.22977L64.4984 9.53852L63.3291 9.6759L63.3324 9.70299V9.70299ZM61.5378 0.804434C55.9876 0.804434 51.4883 5.30381 51.4883 10.8544C51.4883 16.405 55.9876 20.9043 61.5378 20.9043C67.0879 20.9043 71.5882 16.405 71.5882 10.8544C71.5882 5.30381 67.0879 0.804434 61.5378 0.804434ZM63.0167 11.0869L63.2088 11.1277L63.1486 11.3143L63.1692 11.3253L63.4527 10.9986L63.4422 10.9798L63.0176 11.0639L63.0167 11.0869V11.0869ZM63.8074 11.9088L63.9034 11.9322L63.8699 12.025L63.8897 12.037L64.0459 11.867L64.0362 11.8477L63.8083 11.8863L63.8074 11.9088V11.9088ZM62.2798 15.079C62.2899 15.0836 62.2986 15.09 62.3087 15.0964C62.3184 15.102 62.3266 15.1111 62.3381 15.118C62.3473 15.1268 62.3579 15.1341 62.3661 15.1433C62.3698 15.1461 62.3716 15.1479 62.3735 15.1507C62.3804 15.1566 62.3868 15.1644 62.3937 15.1713C62.402 15.1819 62.4103 15.192 62.4171 15.2026C62.4254 15.2131 62.4314 15.2242 62.4387 15.2343C62.4443 15.2453 62.4521 15.2559 62.4557 15.2669C62.4612 15.2766 62.4658 15.2871 62.4691 15.2968C62.4746 15.3069 62.4773 15.3156 62.4801 15.3239C62.4837 15.3317 62.4865 15.339 62.4883 15.3464C62.4925 15.3602 62.4952 15.3675 62.4952 15.3675L62.5187 15.368C62.5187 15.368 62.5223 15.3606 62.5265 15.3469C62.5292 15.3409 62.5311 15.3321 62.532 15.3216C62.5338 15.3105 62.5357 15.2981 62.5348 15.2853C62.5338 15.2788 62.5338 15.2719 62.5338 15.2651C62.5338 15.2577 62.5329 15.2508 62.5311 15.2435C62.5292 15.2278 62.5242 15.2136 62.5196 15.1971C62.5132 15.1819 62.5063 15.1658 62.4971 15.1511C62.4925 15.1415 62.4847 15.1318 62.4783 15.1231L62.4668 15.1084C62.4539 15.0951 62.4415 15.0827 62.4282 15.0721C62.4135 15.0606 62.3992 15.0519 62.385 15.0441C62.3698 15.0367 62.3551 15.0303 62.3409 15.0266C62.334 15.0243 62.3257 15.022 62.3193 15.0197C62.3161 15.0193 62.3115 15.0188 62.3078 15.0183C62.305 15.0174 62.3023 15.0174 62.2995 15.0174C62.2871 15.0147 62.2756 15.0147 62.2646 15.0151C62.254 15.0147 62.2448 15.016 62.237 15.017C62.2232 15.0193 62.2154 15.0216 62.2154 15.0216L62.2136 15.0432V15.0445C62.2136 15.0445 62.2205 15.0487 62.2334 15.0542C62.2389 15.0565 62.2458 15.0606 62.254 15.0647C62.2618 15.0689 62.271 15.0735 62.2798 15.079V15.079ZM63.1918 15.4447C63.1674 15.452 63.1394 15.4599 63.1091 15.4686C63.0553 15.4847 62.9905 15.5026 62.9198 15.5242C62.8633 15.5407 62.8031 15.5591 62.7392 15.5793C62.7071 15.5885 62.674 15.5981 62.64 15.6087L62.5384 15.6432C62.4001 15.6914 62.2522 15.7424 62.1052 15.7934C62.0114 15.8265 61.9182 15.8623 61.8277 15.8968C61.7767 15.9166 61.7252 15.9354 61.6751 15.9547C61.6292 15.9717 61.5855 15.9891 61.5414 16.0066C61.5208 16.0144 61.4992 16.0227 61.4785 16.0314C61.4312 16.0503 61.3834 16.0696 61.3402 16.0875L61.3034 16.1026C61.2327 16.132 61.1697 16.1587 61.1169 16.1812C61.0903 16.1927 61.065 16.2037 61.0443 16.2129C60.9804 16.2395 60.9446 16.2552 60.9446 16.2552L60.9377 16.2584L60.9529 16.2938L60.9598 16.2915C60.9598 16.2915 60.9956 16.2786 61.0604 16.2561C61.0829 16.2483 61.1091 16.2386 61.1357 16.229C61.1904 16.2097 61.2543 16.1872 61.3269 16.1605L61.3797 16.1403C61.4192 16.1256 61.4606 16.11 61.5037 16.0953L61.5658 16.0732C61.6094 16.0576 61.6554 16.0415 61.7022 16.0245C61.7514 16.0066 61.8006 15.9878 61.8529 15.9694C61.9434 15.9354 62.0367 15.9009 62.1318 15.8683C62.2779 15.8159 62.4245 15.7636 62.5628 15.7144C62.628 15.6914 62.6956 15.6666 62.7608 15.6446C62.8077 15.6285 62.8522 15.6133 62.8954 15.5986L62.9395 15.5834C63.0103 15.5591 63.0741 15.537 63.1261 15.5177C63.1568 15.5076 63.1826 15.4984 63.206 15.4902L63.3135 15.4507L63.3029 15.4139L63.1918 15.4447V15.4447ZM61.2419 15.7838L61.3241 15.7567C61.4321 15.7222 61.5368 15.6873 61.6384 15.6519C61.6788 15.6386 61.7165 15.6253 61.7532 15.6129L61.7836 15.6027L61.9131 15.5591C61.9678 15.5412 62.016 15.5246 62.0555 15.5104C62.0744 15.504 62.0914 15.4975 62.1065 15.4925C62.1543 15.4755 62.1805 15.4654 62.1805 15.4654L62.1883 15.4626L62.1769 15.4268L62.1695 15.4282C62.1695 15.4282 62.1419 15.4341 62.0942 15.4456L62.0555 15.4553C62.0114 15.4658 61.9568 15.4782 61.8943 15.4948L61.761 15.5302C61.7289 15.5389 61.6949 15.5499 61.66 15.5605L61.6149 15.5743C61.5217 15.6032 61.416 15.6372 61.2975 15.6758C61.2102 15.7043 61.1261 15.7351 61.0443 15.7645L60.9832 15.7861L60.9529 15.7971C60.8647 15.8288 60.7824 15.8591 60.7121 15.8871C60.68 15.8991 60.651 15.9106 60.6262 15.9216L60.6037 15.9308L60.5201 15.9643C60.4746 15.9836 60.4484 15.9937 60.4484 15.9937L60.4411 15.9974L60.4549 16.0328C60.4549 16.0328 60.4897 16.0227 60.5371 16.008C60.5536 16.0029 60.5725 15.9979 60.5931 15.9905L60.6538 15.9721C60.6781 15.9648 60.7052 15.9565 60.7328 15.9473C60.7824 15.9308 60.838 15.9138 60.8964 15.895C60.9331 15.8835 60.9708 15.872 61.0085 15.86C61.0838 15.8352 61.1619 15.81 61.2419 15.7838V15.7838ZM62.8803 12.8902L62.8793 12.9127L63.0025 12.943L62.9611 13.0625L62.98 13.074L63.1757 12.8622L63.1656 12.8424L62.8803 12.8902V12.8902ZM62.6721 12.597L62.9235 12.2231L62.9106 12.2061L62.4828 12.3467L62.4847 12.3692L62.6882 12.3875L62.6515 12.5888L62.6721 12.597V12.597ZM64.0082 11.2412L63.721 11.267L63.7183 11.289L63.8387 11.3294L63.7886 11.4448L63.8056 11.4576L64.0183 11.2619L64.0082 11.2412V11.2412ZM62.6675 14.4518L62.0744 13.7254L62.0431 13.7388L62.1957 14.603L62.5076 14.9655C62.5076 14.9655 62.5178 14.9701 62.5242 14.9733C62.5302 14.9761 62.5384 14.9798 62.5463 14.9844C62.5536 14.988 62.5628 14.9926 62.5715 14.9981C62.5807 15.0032 62.5913 15.0091 62.6014 15.016C62.611 15.0216 62.6202 15.0307 62.6308 15.0376C62.639 15.0459 62.6496 15.0532 62.6588 15.0629C62.6675 15.0712 62.6767 15.0817 62.6855 15.0914C62.6937 15.1015 62.7025 15.1112 62.7089 15.1222C62.7181 15.1318 62.7231 15.1433 62.7305 15.1539C62.736 15.1649 62.7438 15.175 62.7475 15.1856C62.753 15.1966 62.7581 15.2063 62.7617 15.2168C62.7663 15.2265 62.7691 15.2352 62.7728 15.243C62.7755 15.2508 62.7787 15.2591 62.7796 15.266C62.7842 15.2793 62.7879 15.2871 62.7879 15.2871L62.8104 15.2876C62.8104 15.2876 62.8136 15.2798 62.8182 15.2669C62.8201 15.2605 62.8237 15.2517 62.8247 15.2402C62.8265 15.2297 62.8284 15.2173 62.8274 15.2044V15.1842C62.8256 15.1773 62.8247 15.17 62.8238 15.1626C62.8219 15.1475 62.8155 15.1323 62.8113 15.1167C62.8049 15.1015 62.7985 15.0854 62.7888 15.0707C62.7815 15.0551 62.7691 15.0413 62.7581 15.0275C62.7466 15.0147 62.7332 15.0018 62.7194 14.9917C62.7061 14.9798 62.691 14.9719 62.6776 14.9632C62.6611 14.9568 62.6478 14.9499 62.6335 14.9453C62.6253 14.943 62.6193 14.9411 62.6119 14.9398C62.611 14.9398 62.611 14.9393 62.611 14.9393C62.6184 14.937 62.6262 14.9357 62.6344 14.9329C62.6928 14.9187 62.7502 14.9039 62.8086 14.8888C62.8113 14.8897 62.8132 14.8915 62.8164 14.8929C62.8237 14.8952 62.8311 14.8989 62.838 14.9035C62.8462 14.9076 62.8541 14.9117 62.8633 14.9172C62.8738 14.9218 62.8821 14.9287 62.8917 14.9352C62.9028 14.9407 62.9115 14.9499 62.9216 14.9568C62.9303 14.9651 62.9423 14.9729 62.9501 14.9821C62.9611 14.9903 62.968 15.0009 62.9781 15.0101C62.9855 15.0202 62.9942 15.0303 63.0015 15.0409C63.0094 15.0514 63.0158 15.0629 63.0222 15.073C63.0282 15.084 63.0356 15.0941 63.0392 15.1056C63.0443 15.1153 63.0507 15.1254 63.0535 15.1355C63.059 15.1456 63.0617 15.1539 63.064 15.1621C63.0677 15.17 63.0714 15.1782 63.0732 15.1847C63.076 15.1989 63.0796 15.2063 63.0796 15.2063H63.1026C63.1026 15.2063 63.1063 15.1989 63.1109 15.1856C63.1128 15.1792 63.1164 15.1704 63.1164 15.1598C63.1192 15.1493 63.1201 15.1369 63.1192 15.124V15.1033C63.1182 15.0964 63.1173 15.0891 63.1164 15.0822C63.1146 15.0661 63.1091 15.0519 63.1035 15.0358C63.0976 15.0202 63.0921 15.0045 63.0815 14.9898C63.0741 14.9747 63.0617 14.9605 63.0507 14.9462C63.0383 14.9338 63.0264 14.9209 63.0112 14.9108C62.9988 14.8993 62.9836 14.8906 62.9689 14.8823C62.9538 14.8754 62.9395 14.869 62.9244 14.8649C62.9216 14.864 62.9189 14.8631 62.9161 14.8626C63.0787 14.8212 63.2418 14.7822 63.4063 14.7427L62.8757 14.4473L62.6675 14.4518V14.4518ZM63.6599 10.6077L63.8083 10.6715L63.7302 10.8126L63.7482 10.8273L64.0335 10.6063L64.0243 10.5856L63.6645 10.5851L63.6599 10.6077V10.6077ZM58.4337 7.31801L57.7597 7.66167L57.723 7.46229L57.6908 7.46548L57.6871 7.79675L57.7142 7.80917L58.4507 7.3442L58.4337 7.31801V7.31801ZM59.0793 8.13076L58.1369 8.64214L58.1002 8.44229L58.0694 8.44596L58.0643 8.77722L58.0901 8.79147L59.0963 8.15788L59.0793 8.13076V8.13076ZM58.7714 7.71405L57.8792 8.18544L57.8433 7.98604L57.813 7.99063L57.8084 8.32145L57.8328 8.3334L58.7875 7.74069L58.7714 7.71405ZM60.164 9.34189L59.4909 9.68554L59.4542 9.48981L59.4238 9.49396L59.4192 9.82015L59.4427 9.83302L60.1801 9.36897L60.164 9.34189V9.34189ZM59.7978 8.94124L58.9851 9.36348L58.9488 9.16407L58.9175 9.16867L58.9129 9.49808L58.9364 9.51325L59.8148 8.96744L59.7978 8.94124ZM59.4344 8.5484L58.5109 9.03036L58.4742 8.8305L58.4429 8.83373L58.4392 9.16544L58.4654 9.17831L59.4505 8.57507L59.4344 8.5484V8.5484ZM57.2474 8.0389L57.2576 8.00076L55.1845 7.43242L54.2514 6.6725L54.2252 6.69777L55.0894 7.57348L57.2474 8.0389V8.0389ZM57.3058 7.61666L57.3196 7.57897L55.564 7.01201L54.6966 6.19651L54.6713 6.22452L55.4492 7.14389L57.3058 7.61666V7.61666ZM62.9161 10.4593L63.064 10.5236L62.9855 10.6642L63.0025 10.6793L63.2878 10.4593L63.2814 10.4381L62.9207 10.4367L62.9161 10.4593V10.4593ZM55.1836 8.4602L55.9472 8.68303L57.4593 8.82133L57.4638 8.78042L55.1919 8.42252L55.1836 8.4602ZM55.3803 5.85422L55.3522 5.87627L55.9867 6.75012L57.5213 7.2592L57.5364 7.22292L56.114 6.63666L55.3803 5.85422V5.85422ZM60.47 9.76227L59.988 9.99199L59.9504 9.8096L59.9201 9.81098L59.9155 10.1266L59.943 10.1385L60.487 9.78846L60.47 9.76227V9.76227ZM57.2755 8.37703L54.4039 7.7848L54.3929 7.82157L55.1377 8.09448L57.2672 8.41792L57.2755 8.37703V8.37703ZM58.119 7.0598L58.1369 7.02351L56.8087 6.38535L56.0001 5.3093L55.9706 5.33L56.6929 6.50848L58.119 7.0598V7.0598ZM63.7302 15.3142C63.7302 15.3142 63.7445 15.3128 63.7688 15.3092C63.7775 15.3078 63.7858 15.3064 63.7955 15.3046C63.8162 15.3018 63.8414 15.2977 63.869 15.2926C63.9168 15.2844 63.9632 15.2747 64.01 15.2646C64.0532 15.2559 64.0996 15.2453 64.1465 15.2343L64.1741 15.2278C64.2264 15.2168 64.2811 15.2049 64.3294 15.1925C64.384 15.1791 64.4309 15.1667 64.4686 15.1562C64.4957 15.1497 64.5187 15.1419 64.5384 15.1364C64.5494 15.1327 64.5572 15.13 64.5664 15.1277C64.5899 15.1203 64.6032 15.1153 64.6032 15.1153L64.6096 15.113L64.6023 15.0776L64.5949 15.0781C64.5949 15.0781 64.5807 15.079 64.5563 15.0817C64.5485 15.0831 64.5384 15.084 64.5278 15.0854C64.5072 15.0877 64.4828 15.0909 64.4552 15.0951C64.4139 15.101 64.3661 15.1088 64.3133 15.118C64.2623 15.1277 64.2058 15.1392 64.152 15.1507C64.0532 15.1746 63.9443 15.2044 63.8538 15.2324C63.8262 15.2407 63.801 15.2499 63.7803 15.2568L63.7578 15.2637C63.7353 15.272 63.721 15.2775 63.721 15.2775L63.7146 15.2793L63.7229 15.3151L63.7302 15.3142V15.3142ZM64.9469 14.7744C64.9469 14.7744 64.9648 14.773 64.9956 14.7684C65.0052 14.7675 65.0158 14.7661 65.0295 14.7647C65.0553 14.7615 65.087 14.7578 65.1228 14.7523C65.2395 14.7353 65.3801 14.7119 65.5097 14.688L65.5428 14.6815C65.6011 14.6696 65.6594 14.6586 65.7141 14.6457C65.7421 14.6407 65.7688 14.6352 65.795 14.6296C65.8299 14.6223 65.8621 14.6159 65.8938 14.609C65.9278 14.6012 65.959 14.5934 65.9852 14.5874L66.0192 14.5791C66.0495 14.5718 66.0661 14.5672 66.0661 14.5672L66.0729 14.5653L66.067 14.529H66.0596C66.0596 14.529 66.0417 14.53 66.0109 14.5336L65.9806 14.5369C65.9535 14.5391 65.9195 14.5433 65.8818 14.5479L65.8722 14.5492C65.8207 14.5561 65.7624 14.563 65.7017 14.5736C65.6369 14.5842 65.568 14.5975 65.5005 14.6099L65.495 14.6108C65.3695 14.6347 65.2294 14.6641 65.1118 14.6917C65.0778 14.6995 65.0484 14.7077 65.0231 14.7137C65.0107 14.7178 64.9969 14.7206 64.9864 14.7234C64.957 14.7312 64.9395 14.7362 64.9395 14.7362L64.9317 14.7381L64.9395 14.7748L64.9469 14.7744ZM63.9016 14.6632C63.9094 14.6673 63.9177 14.6724 63.9264 14.6774C63.9356 14.6825 63.9453 14.6894 63.9545 14.6963C63.9641 14.7022 63.9733 14.711 63.9838 14.7183C63.9875 14.7229 63.993 14.7275 63.9995 14.7316C64.0036 14.7353 64.0082 14.7399 64.0128 14.7441C64.0215 14.7532 64.0298 14.7638 64.039 14.773C64.0459 14.7836 64.0551 14.7937 64.0619 14.8047C64.0693 14.8153 64.0757 14.8258 64.0817 14.8364C64.0872 14.8483 64.0946 14.858 64.0987 14.869C64.1033 14.8796 64.1088 14.8897 64.1116 14.8998C64.1157 14.9099 64.1185 14.9186 64.1222 14.9264C64.1249 14.9352 64.1286 14.9425 64.1295 14.9499C64.1341 14.9637 64.1355 14.9715 64.1355 14.9715L64.1598 14.9724C64.1598 14.9724 64.1626 14.9646 64.1672 14.9513C64.1699 14.9448 64.1727 14.9365 64.1741 14.9255C64.1759 14.9145 64.1777 14.9025 64.1777 14.8897V14.869C64.1768 14.8626 64.1759 14.8548 64.1741 14.8474C64.1741 14.8327 64.1681 14.8171 64.1635 14.801C64.158 14.7863 64.152 14.7698 64.1428 14.7551C64.1345 14.739 64.1231 14.7252 64.1125 14.711C64.1097 14.7087 64.1079 14.7055 64.1051 14.7032C64.0955 14.6926 64.0854 14.6825 64.0748 14.6742C64.062 14.6623 64.0459 14.654 64.0335 14.6448C64.0183 14.6384 64.0036 14.631 63.9875 14.6264C63.9806 14.6246 63.9751 14.6218 63.9678 14.6204C63.9623 14.6195 63.9563 14.6182 63.9508 14.6177C63.9498 14.6168 63.9489 14.6168 63.9471 14.6168C63.9356 14.6136 63.9232 14.6136 63.9131 14.6136C63.9034 14.6131 63.8933 14.6136 63.886 14.6149C63.8708 14.6177 63.863 14.6195 63.863 14.6195L63.8612 14.6375V14.6425C63.8612 14.6425 63.8681 14.6457 63.88 14.6522C63.886 14.6545 63.8924 14.6586 63.9016 14.6632ZM65.0126 11.1764C65.0135 11.1833 65.0158 11.1902 65.0167 11.1962C65.0194 11.2031 65.0204 11.2095 65.0231 11.2146C65.0268 11.2196 65.0295 11.2251 65.0323 11.2293C65.0346 11.2343 65.0374 11.238 65.0392 11.2417C65.0429 11.2449 65.0456 11.2477 65.0484 11.2504C65.059 11.2614 65.0654 11.2665 65.0654 11.2665L65.0796 11.2555C65.0796 11.2555 65.0787 11.2476 65.076 11.2357C65.076 11.2329 65.076 11.2297 65.075 11.2265V11.2146C65.0741 11.2072 65.0741 11.1985 65.076 11.1893C65.076 11.1801 65.0787 11.1709 65.0815 11.1618C65.0824 11.1576 65.0851 11.1521 65.087 11.1484C65.0907 11.1443 65.0916 11.1388 65.0939 11.1346C65.0994 11.1264 65.104 11.1172 65.1104 11.1121C65.1127 11.1094 65.1136 11.1066 65.121 11.1015L65.1292 11.0937L65.1334 11.0905H65.1343C65.1435 11.0855 65.1513 11.079 65.1605 11.0758C65.1702 11.0712 65.1812 11.0703 65.1908 11.068C65.1945 11.0662 65.2 11.0676 65.2055 11.0662C65.2096 11.0657 65.2152 11.0653 65.2198 11.0662C65.2244 11.0662 65.2285 11.0671 65.234 11.0671C65.2386 11.068 65.2423 11.0689 65.2464 11.0699C65.2565 11.0717 65.263 11.0735 65.2698 11.0758C65.2735 11.0777 65.2763 11.079 65.2799 11.08C65.2832 11.0818 65.2859 11.0836 65.2887 11.0859C65.3006 11.0928 65.3066 11.096 65.3066 11.096L65.3254 11.0809C65.3254 11.0809 65.3227 11.0731 65.3176 11.0607C65.3167 11.0574 65.3149 11.0547 65.3121 11.051C65.3093 11.0469 65.3057 11.0432 65.3029 11.0391C65.2988 11.0349 65.2951 11.0299 65.2905 11.0257C65.2859 11.0202 65.2809 11.017 65.2744 11.0134C65.2689 11.0101 65.2639 11.0055 65.2574 11.0019C65.251 10.9986 65.2432 10.9963 65.2359 10.9931C65.2285 10.9899 65.2207 10.9881 65.2133 10.9867C65.2055 10.9858 65.1954 10.9839 65.1876 10.9835C65.1692 10.9839 65.1504 10.9849 65.1325 10.9908C65.1145 10.9954 65.0985 11.0065 65.0815 11.0157L65.0769 11.0188L65.076 11.0202L65.0741 11.0216L65.07 11.0257L65.0617 11.0336C65.0571 11.0368 65.0502 11.046 65.0429 11.0542C65.0295 11.0712 65.024 11.0882 65.0167 11.1043C65.0135 11.1213 65.0098 11.1379 65.0107 11.1535C65.0116 11.1617 65.0116 11.1691 65.0126 11.1764V11.1764ZM65.053 10.5033L65.0544 10.5112L65.0562 10.5181L65.0636 10.5346C65.0663 10.5429 65.076 10.5567 65.0842 10.5672C65.0888 10.5737 65.093 10.5787 65.0976 10.5824C65.1031 10.586 65.1067 10.5902 65.1109 10.5943C65.1201 10.6007 65.1283 10.6053 65.1361 10.6099L65.1444 10.6141C65.1678 10.6233 65.189 10.6279 65.2087 10.6279C65.2124 10.6279 65.2152 10.6274 65.2216 10.627C65.2331 10.626 65.2441 10.6251 65.2547 10.6214L65.2708 10.6159L65.2754 10.6141L65.2832 10.6104L65.2878 10.6077C65.2988 10.6012 65.3273 10.5801 65.3365 10.5644C65.348 10.5497 65.3562 10.5328 65.3604 10.5116L65.3622 10.5052C65.3631 10.4992 65.364 10.4933 65.364 10.4868C65.364 10.4795 65.3631 10.4726 65.3631 10.4652C65.3631 10.4551 65.3599 10.4459 65.3571 10.4386L65.3553 10.4312C65.3461 10.4138 65.3406 10.4064 65.3401 10.406L65.3365 10.4004L65.3084 10.411V10.4165C65.3084 10.4165 65.3066 10.4257 65.3066 10.4376C65.3066 10.4409 65.3057 10.4427 65.3048 10.4459C65.3038 10.4505 65.3038 10.4556 65.3025 10.4606C65.3006 10.4643 65.2979 10.468 65.297 10.4721C65.2951 10.4749 65.2942 10.4772 65.2924 10.4799L65.2887 10.4854C65.2887 10.4868 65.2868 10.4887 65.2841 10.4905C65.2832 10.4923 65.2818 10.4937 65.2809 10.496C65.279 10.4983 65.2744 10.5015 65.2698 10.5052C65.2671 10.5075 65.2653 10.5089 65.2611 10.5102L65.2565 10.5125L65.2556 10.5139L65.2441 10.5185C65.2386 10.5199 65.2294 10.5217 65.217 10.5217C65.2087 10.5217 65.1991 10.5194 65.1908 10.5158C65.1881 10.5144 65.1858 10.5125 65.183 10.5116C65.1812 10.5107 65.1784 10.5093 65.1784 10.5093C65.1757 10.5066 65.1729 10.5047 65.1702 10.5029C65.1692 10.502 65.1683 10.5015 65.1679 10.501C65.166 10.4983 65.1651 10.4965 65.1633 10.4955C65.1605 10.4942 65.1596 10.4932 65.1577 10.4887L65.1504 10.4776V10.4749V10.4744C65.1481 10.4703 65.1462 10.4657 65.1444 10.4593C65.1435 10.4551 65.1435 10.4515 65.1435 10.4473V10.4427V10.4335C65.1435 10.4321 65.1444 10.4294 65.1444 10.4266C65.1444 10.4243 65.1444 10.4225 65.1463 10.4202C65.1472 10.4184 65.1481 10.4156 65.1481 10.4129C65.149 10.4106 65.1495 10.4087 65.1504 10.4073L65.155 10.3954C65.1577 10.3922 65.1596 10.3894 65.1614 10.3862C65.1642 10.3834 65.1651 10.3802 65.1651 10.3802C65.1784 10.3692 65.1848 10.3628 65.1848 10.3628L65.1881 10.3582L65.172 10.3256L65.166 10.3269C65.166 10.3269 65.1568 10.3279 65.1389 10.3325L65.1315 10.3352C65.1246 10.3389 65.1146 10.343 65.1067 10.3499C65.1012 10.3545 65.0948 10.3591 65.0907 10.3646C65.0861 10.3673 65.0824 10.3719 65.0796 10.3765C65.0778 10.3788 65.0759 10.3812 65.0741 10.3839C65.0617 10.4032 65.0544 10.4202 65.0521 10.4367C65.0493 10.4478 65.0484 10.4592 65.0493 10.4684C65.0475 10.479 65.0502 10.4891 65.0521 10.4988L65.053 10.5033V10.5033ZM65.8703 11.017C65.8749 11.0216 65.8781 11.0271 65.8818 11.0322C65.8864 11.0372 65.8892 11.0428 65.8938 11.0483C65.8997 11.0593 65.9071 11.0708 65.9117 11.0827C65.9167 11.0947 65.9213 11.1071 65.9241 11.1199C65.9278 11.1328 65.9305 11.1457 65.9305 11.1595C65.9314 11.1659 65.9314 11.1719 65.9314 11.1787C65.9324 11.1861 65.9314 11.1925 65.9305 11.1985C65.9296 11.2123 65.9259 11.2251 65.9232 11.2376C65.9204 11.2444 65.9186 11.2495 65.9158 11.2559L65.9071 11.2752L65.9259 11.2863L65.9374 11.2683C65.942 11.2614 65.9448 11.2541 65.9475 11.2472C65.9535 11.233 65.9581 11.2183 65.9618 11.2036C65.9627 11.1962 65.9636 11.1889 65.9645 11.181C65.9655 11.1737 65.9673 11.1659 65.9673 11.1585C65.9673 11.1429 65.9664 11.1273 65.9636 11.1121C65.9627 11.097 65.959 11.0823 65.9535 11.0676C65.9503 11.0524 65.9439 11.0381 65.9374 11.0239C65.9342 11.017 65.9305 11.0101 65.9259 11.0037C65.9222 10.9968 65.9186 10.9899 65.9145 10.9839C65.9053 10.9711 65.8956 10.9587 65.8846 10.9472L65.8827 10.9453C65.7895 10.8576 65.6962 10.7707 65.6029 10.6816L65.5354 10.7611C65.6397 10.8369 65.7422 10.915 65.8442 10.9908C65.8533 10.9996 65.8612 11.0074 65.8703 11.017V11.017ZM60.8775 10.9996L60.8674 10.9256L60.838 10.9238L60.8063 11.1153L60.8316 11.131L61.1886 10.8815L61.1716 10.8553L60.8775 10.9996ZM60.7429 10.1574L60.4011 10.3072L60.3703 10.1689H60.3409L60.3271 10.4326L60.3515 10.4459L60.7581 10.1818L60.7429 10.1574V10.1574ZM60.9566 11.397L60.9501 11.3248L60.9193 11.3221L60.8872 11.5137L60.9097 11.5307L61.1697 11.3414L61.1537 11.3161L60.9566 11.397V11.397ZM61.1243 10.4588L60.708 10.6421L60.6933 10.5249L60.6657 10.5227L60.6368 10.7629L60.6611 10.7804L61.1403 10.485L61.1243 10.4588V10.4588ZM65.8046 14.8543C65.7555 14.8621 65.7068 14.869 65.6595 14.8764C65.6098 14.8837 65.5616 14.8929 65.5193 14.9012C65.4917 14.9053 65.4656 14.9108 65.4403 14.9163C65.4224 14.9196 65.4054 14.9228 65.3884 14.926L65.3346 14.9366C65.313 14.9407 65.2914 14.9448 65.2708 14.9494C65.2253 14.9586 65.183 14.9669 65.1481 14.9747C65.1283 14.9788 65.1109 14.983 65.0957 14.9857L65.0222 15.0027L65.0295 15.0399L65.104 15.0312C65.1201 15.0294 65.1371 15.0271 65.1577 15.0248C65.1936 15.0202 65.2349 15.0156 65.2818 15.0091C65.3185 15.0036 65.3571 14.9981 65.3989 14.9921L65.4316 14.988C65.4637 14.9839 65.4968 14.9788 65.5313 14.9733C65.5868 14.9641 65.6443 14.9568 65.7045 14.9485C65.7421 14.9425 65.7789 14.9379 65.8166 14.9324C65.8543 14.9264 65.8938 14.9214 65.9305 14.9159L65.9618 14.9108L66.101 14.8888C66.1639 14.8805 66.2218 14.8708 66.2751 14.8621C66.3018 14.8575 66.3261 14.8534 66.3514 14.8497C66.3927 14.8433 66.4304 14.8359 66.4635 14.8304C66.4878 14.8258 66.5085 14.8217 66.5273 14.8194L66.6018 14.8061L66.5963 14.7684L66.5889 14.7688C66.5889 14.7688 66.5641 14.7702 66.5218 14.773L66.4993 14.7744C66.4571 14.7776 66.4051 14.7813 66.3422 14.7882C66.3165 14.7909 66.2875 14.7941 66.2581 14.7969C66.2048 14.8019 66.1501 14.807 66.0909 14.8148L65.9512 14.8337C65.9232 14.8373 65.8046 14.8543 65.8046 14.8543V14.8543ZM59.6416 13.221L59.637 13.243L59.728 13.2821L59.6793 13.368L59.6972 13.3832L59.8805 13.2421L59.8732 13.221H59.6416ZM60.0776 16.926L59.751 16.7812L60.068 16.6154L60.0597 16.5933L59.5814 16.7266C59.5617 16.7316 59.5456 16.7463 59.5396 16.767C59.5277 16.7996 59.5465 16.8345 59.5787 16.8456L59.5851 16.8465L60.0501 16.9963C60.1282 17.0201 60.2054 17.0477 60.2826 17.0744L60.5164 17.1543L60.5238 17.1327L60.3023 17.028C60.227 16.9935 60.153 16.9586 60.0776 16.926V16.926ZM60.2904 13.221L60.2867 13.243L60.3767 13.2821L60.3289 13.368L60.346 13.3832L60.5293 13.2421L60.5219 13.221H60.2904Z" fill="#1D2231"></path><path d="M7.77364 1.10548H6.56886C3.99139 1.10548 3.06194 2.28098 2.07586 4.74715L1.14446 7.07664H0.869141V0.832127H17.8531V7.07664H17.5797L16.6503 4.74715C15.6642 2.28098 14.7582 1.10548 12.1573 1.10548H10.9506V16.912C10.9506 18.1461 11.3352 19.3235 13.2254 19.6242L13.9088 19.7336V20.0089H4.81345V19.7336L5.50078 19.6242C7.38702 19.3235 7.77364 18.1461 7.77364 16.912V1.10548V1.10548ZM23.6915 0.832127V9.07808C24.2109 8.20135 25.771 6.50062 27.9365 6.50062C30.0727 6.50062 32.3182 7.67999 32.3182 11.4056V18.0641C32.3182 18.7748 32.5935 19.3509 33.4995 19.5969L34.0189 19.7336V20.0089H27.6065V19.7336L28.1298 19.5969C29.03 19.3509 29.3072 18.7748 29.3072 18.0641V11.679C29.3072 9.16009 27.8525 8.25405 26.4291 8.25405C25.4449 8.25405 24.4569 8.77542 23.6915 9.37878V18.0641C23.6915 18.7748 23.9648 19.3509 24.8689 19.5969L25.3883 19.7336V20.0089H18.9778V19.7336L19.4992 19.5969C20.4032 19.3509 20.6766 18.7748 20.6766 18.0641V2.77499C20.6766 2.06423 20.4032 1.49015 19.4992 1.24413L18.9778 1.10548V0.832127H23.6915V0.832127ZM41.1968 6.50062C44.6471 6.50062 46.5939 8.8047 46.5939 11.5169V11.6516H37.9632C37.9359 11.9543 37.9359 12.2823 37.9359 12.3936C37.9359 15.926 39.8261 18.4741 42.8116 18.4741C44.7291 18.4741 46.0725 17.2127 46.5665 16.1173L46.8106 16.2286C46.5939 17.406 44.8111 20.417 41.1968 20.417C37.3033 20.417 34.9503 17.4881 34.9503 13.4071C34.9503 9.78885 37.3033 6.50062 41.1968 6.50062H41.1968ZM37.9633 11.3509H43.5243V10.4762C43.5243 8.64069 43.0049 6.80521 41.1675 6.80521C39.1954 6.80521 38.2913 8.6114 37.9633 11.3509Z" fill="#1D2231"></path><path d="M79.1633 17.6821C79.1633 18.964 79.5621 20.074 81.5249 20.4714L82.2361 20.6148V20.7576H72.7871V20.6148L73.4983 20.4714C75.4629 20.074 75.8617 18.964 75.8617 17.6821V3.93593C75.8617 2.65407 75.4629 1.51785 73.4983 1.11859L72.7871 0.975718V0.835114H82.2361V0.975718L81.5249 1.11859C79.5621 1.51785 79.1633 2.65407 79.1633 3.93593V17.6821V17.6821ZM102.043 4.9885V21.1826H101.846L87.3589 4.10774L87.4453 14.6369C87.4738 19.4197 88.9808 20.046 90.7166 20.5013L91.1719 20.6148V20.7576H83.4596V20.6148L83.9149 20.5013C85.6236 20.074 87.1898 19.3908 87.1898 14.6369V3.96439L86.8471 3.59592C85.3374 1.94329 84.3707 1.2624 82.8049 0.976167V0.835114H89.7228C90.434 2.11697 91.4581 3.36804 93.7351 6.07096L101.874 15.6913L101.788 5.44382C101.762 2.03014 100.508 1.31844 98.7426 1.06299L98.0875 0.976167V0.835114H115.991C123.391 0.835114 127.176 5.50217 127.176 10.7095C127.176 15.9187 123.391 20.7576 115.991 20.7576H106.03V20.6148L106.711 20.5013C108.732 20.159 109.104 18.992 109.104 17.6821V4.9885C109.104 1.94329 107.538 0.976167 105.575 0.976167C103.609 0.976167 102.043 1.94329 102.043 4.9885V4.9885ZM115.393 20.6148C120.687 20.6148 123.476 16.8579 123.476 10.7964C123.476 4.73215 120.43 0.976167 115.137 0.976167H112.404V17.6564C112.404 19.3044 112.775 20.6148 114.769 20.6148H115.393V20.6148ZM137.735 20.6148C140.923 20.6148 142.602 19.7037 143.969 17.3701L145.305 15.123H145.447V20.7576H127.859V20.6148L128.57 20.5013C130.533 20.187 130.932 18.964 130.932 17.6821V3.85183C130.932 2.51392 130.533 1.5183 128.57 1.11904L127.859 0.976167V0.835114H144.68V6.46976H144.537L143.199 4.05124C141.861 1.60285 140.013 0.976167 136.567 0.976167H134.233V10.3971L135.656 10.3691C138.703 10.313 139.727 10.1697 140.694 7.09645L141.008 6.09853H141.149V14.8367H141.008L140.694 13.8692C139.698 10.7679 138.731 10.653 135.656 10.597L134.233 10.5685V17.7409C134.233 19.4473 134.859 20.6148 136.881 20.6148H137.735V20.6148ZM156.376 0.835114C160.844 0.835114 163.976 3.2835 163.976 6.78403C163.976 10.313 160.844 12.7591 156.376 12.7591H155.153V12.5901H155.21C158.454 12.5901 160.36 10.3406 160.36 6.78403C160.36 3.22515 158.454 0.976167 155.21 0.976167H154.186V17.3982C154.186 19.5341 154.726 20.0156 157.06 20.5013L157.6 20.6148V20.7576H147.781V20.6148L148.492 20.4714C150.456 20.074 150.855 18.964 150.855 17.6821V3.90789C150.855 2.62925 150.456 1.5183 148.492 1.11904L147.781 0.976167V0.835114H156.376V0.835114ZM174.648 20.6148C177.836 20.6148 179.515 19.7037 180.881 17.3701L182.219 15.123H182.361V20.7576H164.771V20.6148L165.483 20.5013C167.448 20.187 167.847 18.964 167.847 17.6821V3.85183C167.847 2.51392 167.448 1.5183 165.483 1.11904L164.771 0.976167V0.835114H181.592V6.46976H181.449L180.112 4.05124C178.775 1.60285 176.926 0.976167 173.481 0.976167H171.148V10.3971L172.571 10.3691C175.615 10.313 176.639 10.1697 177.608 7.09645L177.92 6.09853H178.064V14.8367H177.92L177.608 13.8692C176.611 10.7679 175.643 10.653 172.571 10.597L171.148 10.5685V17.7409C171.148 19.4473 171.772 20.6148 173.794 20.6148H174.648V20.6148ZM203.051 4.9885V21.1826H202.854L188.366 4.10774L188.452 14.6369C188.479 19.4197 189.988 20.046 191.725 20.5013L192.181 20.6148V20.7576H184.466V20.6148L184.921 20.5013C186.631 20.074 188.194 19.3908 188.194 14.6369V3.96439L187.854 3.59592C186.344 1.94329 185.377 1.2624 183.811 0.976167V0.835114H190.727C191.439 2.11697 192.465 3.36804 194.739 6.07096L202.881 15.6913L202.795 5.44382C202.767 2.03014 201.515 1.31844 199.75 1.06299L199.095 0.976167V0.835114H216.998C224.396 0.835114 228.183 5.50217 228.183 10.7095C228.183 15.9187 224.396 20.7576 216.998 20.7576H207.037V20.6148L207.72 20.5013C209.741 20.159 210.11 18.992 210.11 17.6821V4.9885C210.11 1.94329 208.544 0.976167 206.581 0.976167C204.616 0.976167 203.051 1.94329 203.051 4.9885V4.9885ZM216.4 20.6148C221.694 20.6148 224.483 16.8579 224.483 10.7964C224.483 4.73215 221.437 0.976167 216.144 0.976167H213.411V17.6564C213.411 19.3044 213.782 20.6148 215.773 20.6148H216.4V20.6148ZM238.742 20.6148C241.928 20.6148 243.61 19.7037 244.973 17.3701L246.314 15.123H246.455V20.7576H228.865V20.6148L229.577 20.5013C231.542 20.187 231.939 18.964 231.939 17.6821V3.85183C231.939 2.51392 231.542 1.5183 229.577 1.11904L228.865 0.976167V0.835114H245.685V6.46976H245.544L244.206 4.05124C242.868 1.60285 241.018 0.976167 237.576 0.976167H235.242V10.3971L236.665 10.3691C239.71 10.313 240.734 10.1697 241.7 7.09645L242.015 6.09853H242.156V14.8367H242.015L241.7 13.8692C240.706 10.7679 239.738 10.653 236.665 10.597L235.242 10.5685V17.7409C235.242 19.4473 235.867 20.6148 237.888 20.6148H238.742ZM266.917 6.01398C266.889 2.34209 265.635 1.31844 263.872 1.06299L263.217 0.976167V0.835114H270.872V0.976167L270.218 1.06299C268.455 1.31844 267.173 2.34209 267.173 6.01398V21.1826H266.975L252.488 4.10774L252.574 14.6369C252.601 19.4197 254.111 20.046 255.845 20.5013L256.301 20.6148V20.7576H248.588V20.6148L249.044 20.5013C250.751 20.074 252.317 19.3908 252.317 14.6369V3.96439L251.974 3.59592C250.467 1.94329 249.499 1.2624 247.933 0.976167V0.835114H254.85C255.561 2.11697 256.587 3.36804 258.865 6.07096L267.002 15.6913L266.917 6.01398V6.01398ZM279.127 0.976167H277.874C275.2 0.976167 274.09 2.34209 273.065 4.9035L272.096 7.32387H271.955V0.835114H289.6V7.32387H289.457L288.49 4.9035C287.466 2.34209 286.384 0.976167 283.681 0.976167H282.428V17.6821C282.428 18.964 282.827 20.187 284.79 20.5013L285.501 20.6148V20.7576H276.052V20.6148L276.763 20.5013C278.728 20.187 279.127 18.964 279.127 17.6821V0.976167V0.976167Z" fill="#1D2231"></path></svg> 