<?xml version="1.0" encoding="UTF-8"?> <svg xmlns="http://www.w3.org/2000/svg" width="118" height="39" viewBox="0 0 118 39" fill="none"><path d="M26.6027 20.7489C26.9997 20.5504 27.4365 20.3121 27.8335 20.1136C27.9923 20.0342 28.5482 19.8357 28.6276 19.6768C28.6673 19.5974 28.6276 19.3592 28.6276 19.2401V18.2872V11.4975V4.86671V3.99319C28.6276 3.95349 28.6673 3.67555 28.6276 3.63584C28.5879 3.59614 28.2703 3.63584 28.2306 3.63584H27.3571C27.0394 3.63584 27.0791 3.67555 26.8806 3.91378C26.1262 4.90642 25.3718 5.89905 24.6174 6.9314C24.26 7.40786 23.9027 7.84462 23.585 8.32109C23.3468 8.63873 23.3468 8.67844 22.91 8.67844L23.0292 6.05788C23.0689 5.42259 23.0689 4.7873 23.1086 4.15201C23.1086 3.91378 23.1483 3.67555 23.1483 3.43732C23.1483 3.35791 23.1086 3.11967 23.1483 3.07997C23.2277 2.96085 23.9424 3.04026 24.1409 3.04026H38.9908C39.0702 3.04026 39.4275 3.00056 39.5069 3.04026C39.5863 3.07997 39.5466 3.3182 39.5466 3.43732C39.5863 3.95349 39.5863 4.50936 39.626 5.02553C39.6657 6.17699 39.7055 7.28875 39.7849 8.4402V8.67844C39.5863 8.67844 39.4275 8.71814 39.2687 8.59903C39.1099 8.47991 38.9908 8.24168 38.8716 8.08285C38.3952 7.44757 37.9187 6.77257 37.4025 6.13729L35.9731 4.23142C35.8937 4.11231 35.7746 3.83437 35.6158 3.75496C35.4967 3.67555 35.2584 3.71525 35.0996 3.71525H34.4643C34.3849 3.71525 34.0673 3.67555 33.9879 3.71525C33.9482 3.75496 33.9879 3.75496 33.9482 3.83437C33.8688 4.15201 33.9482 4.54907 33.9482 4.86671V18.6842C33.9482 18.9621 33.8688 19.3592 33.9482 19.6371C34.0276 19.9151 34.6629 20.1136 34.9408 20.2327C35.2187 20.3915 35.6952 20.5107 35.9334 20.7489C36.0128 20.8283 36.0923 21.2254 36.0128 21.3445C35.9731 21.3842 35.7746 21.3445 35.7349 21.3445H26.9997C26.9203 21.3445 26.6424 21.3842 26.6027 21.3445C26.5629 21.1857 26.6027 20.868 26.6027 20.7489V20.7489ZM41.3334 20.0342V14.2372V4.7476V3.19908C41.3334 2.96085 41.4128 2.6035 41.3334 2.36527C41.254 2.08733 40.7775 2.04763 40.4996 1.92851C40.3407 1.8888 39.8246 1.76969 39.7452 1.61087V1.29322H39.8643C40.0231 1.21381 40.3407 1.21381 40.5393 1.17411C40.8966 1.09469 41.254 1.05499 41.5716 0.975578C42.3657 0.816756 43.1995 0.657934 43.9936 0.538818C44.4701 0.459407 44.9466 0.340291 45.423 0.26088C45.5422 0.26088 46.0186 0.181469 46.0583 0.26088C46.098 0.300585 46.0583 0.459407 46.0583 0.499112V8.71814C47.5671 7.20933 50.1877 6.37552 52.2921 6.89169C54.1185 7.32845 54.7141 9.03579 54.7141 10.7828C54.7538 13.0063 54.7141 15.1901 54.7141 17.4136V19.2004C54.7141 19.3989 54.6347 19.8754 54.7141 20.0739C54.7538 20.1533 54.9126 20.193 54.9921 20.2724C55.27 20.4312 55.5876 20.5901 55.8656 20.7489C55.9053 20.7886 56.0244 20.8283 56.0244 20.868C56.0641 20.9077 56.0641 21.2651 56.0244 21.3048C55.9847 21.3842 55.9847 21.3445 55.8656 21.3445C55.4288 21.4239 54.9524 21.3445 54.5553 21.3445H48.8377C48.798 21.3445 48.5995 21.3842 48.5598 21.3445C48.5201 21.3048 48.5201 20.868 48.5598 20.8283C48.6789 20.6695 49.1554 20.5107 49.3142 20.3915C49.4333 20.3121 49.7906 20.193 49.8701 20.0739C49.9495 19.9548 49.8701 19.518 49.8701 19.3989V17.771C49.8701 15.4681 49.9098 13.1254 49.8701 10.8225C49.8701 10.1475 49.7509 9.35343 49.0759 8.99608C48.7186 8.79755 48.2421 8.75785 47.8451 8.75785C47.5274 8.75785 47.2098 8.83726 46.9318 8.91667C46.6936 8.99608 46.2569 9.1549 46.098 9.35343C45.9789 9.51225 46.0583 9.75048 46.0583 9.94901V19.3195C46.0583 19.518 45.9789 19.9151 46.0583 20.0739C46.098 20.1533 46.2569 20.2327 46.376 20.2724C46.6539 20.4312 47.0113 20.5901 47.2892 20.7489C47.3289 20.7886 47.4083 20.7886 47.4083 20.8283C47.448 20.868 47.448 21.2254 47.4083 21.2651C47.3686 21.3048 47.3289 21.3048 47.2495 21.3048C46.8127 21.3445 46.3363 21.3048 45.8995 21.3048H40.1819C40.1422 21.3048 39.9437 21.3445 39.904 21.3048C39.8643 21.2651 39.904 20.868 39.9437 20.7886C40.0628 20.6298 40.4996 20.471 40.6584 20.3915C40.9363 20.2724 41.1349 20.1533 41.3334 20.0342V20.0342ZM60.1935 14.5548C60.2729 16.3019 60.8288 18.2474 62.417 19.2004C63.2508 19.6768 64.2831 19.8357 65.2361 19.7563C66.3875 19.6371 67.3405 19.0813 68.3331 18.5651C68.3331 18.7239 68.3728 19.0019 68.3331 19.1607C68.2537 19.3195 68.0552 19.518 67.936 19.6371C67.7772 19.796 67.5787 19.9945 67.3802 20.1533C66.7052 20.7092 65.9508 21.1062 65.1567 21.3842C63.6478 21.9004 61.9008 21.8606 60.3523 21.4636C59.1214 21.1459 58.0097 20.5504 57.1759 19.5974C56.342 18.6445 55.8656 17.4136 55.6671 16.1431C55.2303 13.4034 55.7465 10.2667 58.0097 8.4402C59.9949 6.85199 63.1714 6.53434 65.514 7.48727C68.3728 8.63873 68.8493 11.8946 68.8493 14.5945H61.2655C60.9082 14.5548 60.5508 14.5548 60.1935 14.5548V14.5548ZM60.1141 13.8798C60.9082 13.8401 61.7023 13.8004 62.5361 13.721C63.0126 13.6813 63.5287 13.6813 64.0052 13.6416C64.0846 13.6416 64.2831 13.6416 64.3625 13.6019C64.4817 13.5225 64.4023 12.7284 64.4023 12.5696C64.3625 11.1402 64.3228 9.39313 63.489 8.16227C62.8934 7.28875 61.9802 7.44757 61.4243 8.24168C60.2729 9.79019 60.1141 12.0931 60.1141 13.8798V13.8798ZM0 28.3723C0 26.1488 0.43676 23.8459 1.66763 21.9798C2.85879 20.1533 4.76466 18.9621 6.82934 18.3666C9.33078 17.6519 12.1102 17.7313 14.691 18.2077C15.2469 18.3269 15.8028 18.446 16.3189 18.6048C16.3984 18.6445 16.7557 18.7239 16.7954 18.8033V18.9224C16.9145 19.3989 16.8351 19.9945 16.8351 20.471C16.8748 21.7018 16.8748 22.9724 16.9145 24.2033C16.7557 24.2033 16.4778 24.243 16.3586 24.2033C16.2792 24.1636 16.1998 23.965 16.1601 23.8856C15.8425 23.4092 15.5248 22.9327 15.2469 22.4165C14.5719 21.3445 13.8572 20.2724 13.1822 19.2004C12.8249 18.6048 11.8322 18.6048 11.1969 18.6048C10.4822 18.6048 9.76754 18.7239 9.17196 19.0813C7.82197 19.9151 7.18669 21.543 6.82934 23.0121C6.27346 25.3547 6.31317 27.8165 6.43228 30.1988C6.5514 32.0252 6.71022 33.9708 7.42492 35.6384C7.86168 36.6708 8.61608 37.584 9.76754 37.8222C10.1249 37.9016 10.4822 37.9017 10.8793 37.8619C11.1175 37.8222 11.9513 37.7825 12.0705 37.5443C12.1102 37.4649 12.0705 37.2664 12.0705 37.187V36.512V32.3032V30.6753C12.0705 30.3973 12.1499 30.2782 11.9116 30.1194C11.6337 29.9606 11.3161 29.8017 11.0381 29.6032C10.8396 29.4841 10.4425 29.365 10.3234 29.2062C10.244 29.1267 10.2043 28.69 10.2837 28.6106C10.3234 28.5312 10.3234 28.5709 10.4425 28.5709C10.7999 28.4915 11.2763 28.5709 11.6337 28.5709H17.788C18.1851 28.5709 18.6219 28.5312 19.0189 28.5709H19.1777C19.2174 28.6106 19.2174 29.1664 19.1777 29.2459C19.0983 29.365 18.7013 29.5238 18.5424 29.6032C18.2645 29.762 17.9469 29.9209 17.6689 30.1194C17.3513 30.2782 17.391 30.2782 17.391 30.6356V37.1075C17.391 37.187 17.4307 37.3855 17.391 37.4649C17.3116 37.6634 16.4778 37.7825 16.2395 37.8619C15.5645 38.0605 14.8498 38.2193 14.1351 38.3384C12.7455 38.5766 11.3558 38.6561 9.96607 38.6163C7.74256 38.5369 5.39994 38.0605 3.57349 36.7105C1.98527 35.559 0.952931 33.812 0.476465 31.9061C0.119116 30.7944 0 29.5635 0 28.3723ZM18.3042 24.7591C18.3042 24.6797 18.2645 24.3621 18.3042 24.3224C18.3439 24.2827 18.3836 24.3224 18.4233 24.2827C18.6616 24.1636 18.9792 24.1636 19.2571 24.1239C20.1704 23.965 21.0836 23.8062 22.0365 23.6474C22.7512 23.5283 23.4659 23.3695 24.1409 23.29C24.3394 23.2503 24.5777 23.2503 24.7762 23.3297C24.9747 23.3695 24.8953 23.3297 24.935 23.4886C25.0144 23.965 24.935 24.5209 24.935 24.9974V33.2958C24.935 34.2885 24.6571 36.1149 25.61 36.7105C26.0865 37.0281 26.7615 37.0281 27.3174 36.909C27.7541 36.8296 28.5879 36.512 28.7468 36.0355C28.7865 35.9164 28.7468 35.7576 28.7468 35.6384V34.8046V29.2856V26.7444V25.9106C28.7468 25.8312 28.7865 25.593 28.7468 25.5135C28.6276 25.3944 28.2306 25.2753 28.1115 25.2356C27.8732 25.1562 27.6747 25.0371 27.4365 24.9577C27.3571 24.918 27.0791 24.8783 27.0394 24.7988C26.9997 24.7591 26.9997 24.4018 27.0394 24.3621C27.0791 24.3224 27.0791 24.3621 27.1188 24.3224C27.3174 24.2033 27.6747 24.243 27.8732 24.2033C29.5012 23.9253 31.1688 23.568 32.8364 23.3297C33.0349 23.29 33.2335 23.29 33.432 23.3297C33.6305 23.3695 33.5511 23.29 33.5908 23.4886C33.6702 23.8856 33.5908 24.4415 33.5908 24.8783V36.3134C33.5908 36.4325 33.5511 36.6311 33.5908 36.7899C33.6305 36.909 33.5908 36.8693 33.7893 36.9487C34.1864 37.1075 34.6232 37.3061 35.0202 37.4649C35.1393 37.5046 35.179 37.5046 35.2187 37.584C35.2584 37.6634 35.2584 37.9414 35.2187 37.9414C35.1393 38.0208 34.7423 37.9811 34.6629 38.0208C33.7893 38.1399 32.9158 38.2193 32.0026 38.3384C31.2085 38.4178 30.4144 38.5369 29.66 38.6163C29.5012 38.6561 29.3423 38.6561 29.1835 38.6163C29.1041 38.6163 28.8659 38.6163 28.8262 38.5766C28.7865 38.4972 28.8262 38.1796 28.8262 38.1002V37.4252C28.8262 37.3061 28.9056 36.9884 28.8262 36.8693C28.7467 36.7502 28.5879 36.909 28.4688 36.9884C28.1512 37.2664 27.7938 37.5443 27.4365 37.7428C26.1262 38.5369 24.4983 38.8943 22.9895 38.5766C21.8777 38.3384 20.9248 37.7031 20.4483 36.6311C20.091 35.8767 20.0115 35.0429 20.0115 34.2487V29.5238V26.8238V25.9106C20.0115 25.8312 20.0513 25.593 20.0115 25.5135C19.9321 25.3944 19.4557 25.2753 19.3366 25.1959C18.9395 25.0371 18.6219 24.918 18.3042 24.7591V24.7591ZM55.7465 23.2503C55.8259 23.2503 56.1832 23.2503 56.2229 23.3297C56.2626 23.3695 56.2229 23.6474 56.2229 23.6871V27.1812C56.2229 27.3003 56.1832 27.4988 56.2229 27.6179V27.6973C56.3817 27.8562 56.4215 27.34 56.4612 27.3003C56.8185 25.8312 57.4935 24.1239 59.0023 23.5283C59.2802 23.4092 59.5582 23.3695 59.8361 23.3297C60.0744 23.3297 60.7493 23.2503 60.8685 23.4489C60.9082 23.5283 60.8685 23.7268 60.8685 23.8062V27.8562C59.9155 27.6576 58.8435 27.6973 57.9303 27.8959C57.4935 27.9753 57.0964 28.0944 56.6994 28.2929C56.5009 28.3723 56.4612 28.3326 56.4215 28.4915C56.3817 28.6503 56.4215 28.9282 56.4215 29.087V36.7502C56.4215 36.8296 56.3817 36.9487 56.4215 37.0281C56.5009 37.1472 56.7788 37.2267 56.8979 37.2664C57.0964 37.3855 57.3347 37.5046 57.5332 37.6237C57.6126 37.6634 57.7317 37.7031 57.7714 37.7825C57.8111 37.8222 57.8111 38.2987 57.7714 38.3384C57.7317 38.3781 57.4935 38.3384 57.4141 38.3384H50.823C50.6245 38.3384 50.2671 38.4178 50.1083 38.3384H49.9892C49.9495 38.2987 49.9892 37.8619 49.9892 37.8222C50.0686 37.584 50.5848 37.4252 50.823 37.3061C50.9818 37.2267 51.2995 37.1075 51.3789 36.9487C51.4186 36.8693 51.3789 36.6311 51.3789 36.5517V35.7179V25.5135C51.3789 25.4738 51.4186 25.2753 51.3789 25.2356C51.3392 25.1959 51.1406 25.1562 51.0612 25.1562C50.823 25.0768 50.5847 24.9974 50.3465 24.9577C50.1083 24.8783 49.5127 24.8386 49.7112 24.4415C49.7509 24.3224 49.9098 24.3621 50.0686 24.3224C51.8156 24.0047 53.523 23.6871 55.27 23.3695C55.4288 23.29 55.5876 23.29 55.7465 23.2503V23.2503ZM70.7154 23.6077V20.4312V19.518C70.7154 19.3989 70.7551 19.1607 70.7154 19.0416C70.6757 18.9621 70.5169 18.9224 70.3978 18.8827C70.0801 18.7636 69.7625 18.6445 69.4051 18.5254C69.1669 18.446 69.0478 18.4857 69.0478 18.2077C69.0478 17.9695 69.0081 18.0489 69.2066 18.0092C69.6434 17.8504 70.1595 17.8504 70.5963 17.771C71.9066 17.5328 73.1772 17.2945 74.4874 17.0563C74.7654 17.0166 75.0433 16.9372 75.3213 16.9769C75.6389 17.0166 75.6786 16.9372 75.6786 17.2151C75.7183 17.8504 75.6786 18.5254 75.6786 19.1607V36.5517C75.6786 36.7105 75.6389 36.7105 75.758 36.7899C75.9962 36.9487 76.3933 37.0281 76.6315 37.1075C76.7904 37.1472 77.2271 37.2267 77.3065 37.3458C77.3462 37.3855 77.3462 37.8222 77.3065 37.8619C77.2668 37.9017 77.0286 37.9017 76.9889 37.9017C76.433 37.9811 75.9168 38.0605 75.361 38.1002C74.1301 38.259 72.8992 38.4178 71.6286 38.5766C71.4301 38.6163 70.9536 38.6958 70.8742 38.5369C70.7948 38.3781 70.8742 37.8619 70.8742 37.7031C70.8742 37.584 70.9536 37.0678 70.8742 36.9884C70.7948 36.909 69.9213 37.7031 69.8022 37.7825C69.3257 38.1002 68.8096 38.3384 68.2537 38.4972C67.3802 38.7355 66.3875 38.7355 65.514 38.5369C61.7023 37.6634 60.9082 33.137 61.2258 29.8414C61.3846 28.0944 61.9405 26.3474 63.1317 25.0768C64.2434 23.9253 65.7522 23.3297 67.3007 23.2106C68.4919 23.0915 69.6434 23.1709 70.7154 23.6077V23.6077ZM70.7154 36.2737V26.5062V24.6797C70.7154 24.4415 70.6757 24.4018 70.3978 24.243C69.8419 23.9253 69.1272 23.8062 68.5316 24.0444C67.6184 24.4018 67.1816 25.4738 66.9434 26.3474C66.4669 27.9356 66.4272 29.6429 66.4669 31.3105C66.5066 32.7399 66.5463 34.487 67.3405 35.7576C68.0552 36.8693 69.6831 37.1472 70.7154 36.2737ZM83.8579 23.2503C84.0565 23.29 84.2947 23.2106 84.3741 23.4092C84.4138 23.5283 84.3741 23.8062 84.3741 23.9253V36.3531C84.3741 36.512 84.3344 36.7502 84.3741 36.909C84.4138 37.0678 84.5726 37.1075 84.7314 37.187C84.9697 37.3061 85.1682 37.4252 85.4064 37.5443C85.4858 37.584 85.7241 37.6634 85.7638 37.7825C85.7638 37.8222 85.8035 38.2987 85.7638 38.3384H85.6447C85.4064 38.3781 85.0888 38.3384 84.8109 38.3384H78.7756C78.6168 38.3384 78.18 38.4178 78.0609 38.3384C77.9815 38.2987 77.9418 37.8222 78.0212 37.7428C78.1006 37.6237 78.3786 37.5443 78.4977 37.5046C78.7359 37.3855 78.9742 37.2267 79.2124 37.1075C79.4109 36.9884 79.3712 37.0281 79.3712 36.8693C79.4506 36.2737 79.3712 35.5987 79.3712 35.0032V31.8664V26.1488C79.3712 25.99 79.4109 25.7121 79.3712 25.5533C79.3315 25.3944 79.133 25.3944 78.9742 25.315C78.6962 25.1959 78.458 25.1165 78.18 24.9974C78.1006 24.9577 77.783 24.918 77.7036 24.7988C77.6639 24.7591 77.6639 24.3621 77.7036 24.3224C77.7433 24.2827 77.8227 24.3224 77.8624 24.2827C78.18 24.1636 78.5374 24.1636 78.8947 24.0842C79.4109 24.0047 79.8874 23.8856 80.4035 23.8062C81.3962 23.6474 82.3491 23.4489 83.3418 23.29C83.5403 23.3297 83.6991 23.29 83.8579 23.2503V23.2503ZM84.4138 19.5577C84.3344 21.9401 81.1182 22.9724 79.6491 21.1062C78.9742 20.2327 78.9344 19.0416 79.53 18.1283C80.1256 17.2151 81.2771 16.8181 82.3491 17.0563C83.5403 17.2945 84.4138 18.3269 84.4138 19.5577V19.5577ZM101.805 36.9884V27.4194V25.593C101.805 25.5533 101.844 25.3547 101.805 25.315C101.765 25.2356 101.527 25.1959 101.447 25.1959L100.733 24.9577C100.614 24.918 100.296 24.8783 100.217 24.7591C100.137 24.6797 100.177 24.4812 100.177 24.3621C100.177 24.1239 100.256 24.1636 100.495 24.1239L103.115 23.6474L105.736 23.1709C105.894 23.1312 106.014 23.0915 106.172 23.0915C106.252 23.0915 106.649 23.0915 106.728 23.1312C106.768 23.1709 106.728 23.4092 106.728 23.4886V24.243C106.728 24.3621 106.649 24.7194 106.728 24.8386C106.808 24.9974 106.967 24.8386 107.086 24.7194C107.443 24.4415 107.8 24.2033 108.197 24.0047C109.627 23.2106 111.334 22.8533 112.962 23.0915C114.074 23.2503 114.987 23.8459 115.384 24.918C115.662 25.6724 115.702 26.4665 115.702 27.2606V36.3134C115.702 36.4723 115.662 36.7502 115.702 36.909C115.741 37.0678 115.861 37.1075 116.059 37.187C116.258 37.3061 116.496 37.4252 116.694 37.5443C116.774 37.584 117.052 37.6634 117.091 37.7825C117.131 37.8619 117.131 38.259 117.091 38.2987C117.052 38.3781 117.131 38.2987 117.012 38.3384C116.853 38.4178 116.496 38.3384 116.297 38.3384H110.619C110.381 38.3384 109.468 38.4575 109.349 38.2987C109.309 38.259 109.309 37.8222 109.349 37.7428C109.389 37.6634 109.627 37.584 109.706 37.5443C109.944 37.4252 110.143 37.3061 110.381 37.187C110.461 37.1472 110.699 37.0678 110.739 36.9884C110.778 36.909 110.739 36.7502 110.739 36.6708V35.7973V33.0179V27.6576C110.739 27.0224 110.778 26.3077 110.381 25.7518C110.064 25.2753 109.508 25.1562 108.952 25.1165C108.515 25.1165 108.118 25.1562 107.721 25.2753C107.522 25.3547 106.927 25.5135 106.808 25.7518C106.768 25.8312 106.808 25.99 106.808 26.0694V36.3531C106.808 36.4723 106.768 36.7502 106.808 36.8693C106.847 37.0281 107.086 37.0678 107.205 37.1472C107.403 37.2664 107.641 37.3855 107.84 37.5046C107.919 37.5443 108.078 37.6237 108.118 37.6634C108.158 37.7031 108.158 38.1796 108.118 38.2193C108.118 38.259 108.078 38.2193 108.039 38.2193C107.88 38.2987 107.483 38.2193 107.324 38.2193H100.653C100.455 38.2193 100.415 38.259 100.375 38.1399C100.336 38.0605 100.336 37.7031 100.375 37.6237C100.415 37.5443 100.653 37.4649 100.733 37.4252C101.13 37.3855 101.447 37.187 101.805 36.9884V36.9884ZM93.3872 29.6826C93.3872 28.6503 93.4269 27.5782 93.3475 26.5062C93.2284 25.3547 92.9108 24.0842 91.6005 23.8459C91.2034 23.7665 90.4887 23.6474 90.2108 23.965C89.9329 24.243 89.7343 24.64 89.4961 24.9577L87.4711 27.6973C87.352 27.8562 87.2329 28.1738 87.0741 28.2532C87.0344 28.2929 86.6373 28.2929 86.6373 28.2532C86.5976 28.2135 86.6373 27.9356 86.6373 27.8562V24.64C86.6373 24.5209 86.5976 24.3224 86.6373 24.2033C86.7167 24.0047 87.5902 23.8856 87.7888 23.8062C88.9005 23.5283 90.052 23.3297 91.2034 23.2503C92.8314 23.1312 94.6578 23.1709 96.1666 23.8856C97.3578 24.4415 98.1122 25.4341 98.3107 26.7047C98.4298 27.34 98.3901 28.0547 98.3901 28.69V36.6311C98.3901 36.7502 98.3107 37.0678 98.3901 37.1472C98.4298 37.187 98.6284 37.2267 98.6681 37.2267C98.9857 37.3061 99.2636 37.3855 99.5813 37.4649C99.7798 37.5046 99.8195 37.5046 99.8195 37.7031C99.8195 37.9017 99.8592 37.9016 99.621 37.9811C99.3431 38.1002 99.0651 38.2193 98.7872 38.2987C97.3181 38.7355 95.0152 38.8546 93.9431 37.5046C93.8637 37.3855 93.6255 36.8693 93.5063 36.8296C93.3475 36.7899 92.8711 37.4252 92.7122 37.5443C92.077 38.1002 91.2431 38.4178 90.4093 38.5369C88.8608 38.7355 87.1932 38.4178 86.2403 37.0678C85.4461 35.9164 85.2873 34.1296 85.8829 32.8591C86.9549 30.437 90.1314 30.1988 92.4343 29.8017C92.7122 29.8017 93.0299 29.7223 93.3872 29.6826V29.6826ZM93.3872 36.2737V30.3973C92.1961 30.4767 90.9652 30.5561 90.5284 31.8664C90.2108 32.7399 90.2108 33.7723 90.3299 34.6855C90.4093 35.3208 90.5681 36.1149 91.1637 36.512C91.799 36.9487 92.8711 36.8693 93.3872 36.2737V36.2737ZM43.1201 29.6826C43.1201 28.6503 43.1598 27.5782 43.0804 26.5062C42.9613 25.3547 42.6437 24.0842 41.3334 23.8459C40.9363 23.7665 40.2216 23.6474 39.9437 23.965C39.6657 24.243 39.4672 24.64 39.229 24.9577L37.204 27.6973C37.0849 27.8562 36.9658 28.1738 36.807 28.2532C36.7673 28.2929 36.3702 28.2929 36.3702 28.2532C36.3305 28.2135 36.3702 27.9356 36.3702 27.8562V24.6797C36.3702 24.5606 36.3305 24.3621 36.3702 24.243C36.4496 24.0444 37.2834 23.9253 37.5217 23.8459C38.6334 23.568 39.7849 23.3695 40.8966 23.29C42.5245 23.1709 44.351 23.2106 45.8598 23.9253C47.051 24.4812 47.8054 25.4738 48.0039 26.7444C48.123 27.3797 48.0833 28.0944 48.0833 28.7297V36.6708C48.0833 36.7899 48.0039 37.1075 48.0833 37.187C48.123 37.2267 48.3215 37.2664 48.3612 37.2664C48.6789 37.3458 48.9568 37.4252 49.2745 37.5046C49.473 37.5443 49.5127 37.5443 49.5127 37.7428C49.5127 37.9414 49.5524 37.9414 49.3142 38.0208C49.0362 38.1399 48.7583 38.259 48.4804 38.3384C47.0113 38.7752 44.7083 38.8943 43.6363 37.5443C43.5569 37.4252 43.3186 36.909 43.1995 36.8693C43.0407 36.8296 42.5642 37.4649 42.4451 37.584C41.8098 38.1399 40.976 38.4575 40.1422 38.5766C38.5937 38.7752 36.9261 38.4575 35.9731 37.1075C35.179 35.9561 35.0202 34.1693 35.6158 32.8988C36.6878 30.4767 39.8643 30.2385 42.1275 29.8414C42.4451 29.8017 42.7628 29.7223 43.1201 29.6826V29.6826ZM43.1201 36.2737V30.3973C41.929 30.4767 40.6981 30.5561 40.2613 31.8664C39.9437 32.7399 39.9437 33.7723 40.0628 34.6855C40.1422 35.3208 40.301 36.1149 40.8966 36.512C41.5319 36.9487 42.604 36.8693 43.1201 36.2737V36.2737Z" fill="#1D2231"></path></svg> 