<?xml version="1.0" encoding="UTF-8"?> <svg xmlns="http://www.w3.org/2000/svg" width="247" height="38" viewBox="0 0 247 38" fill="none"><path d="M13.8762 11.7568V25.106C15.6798 24.1319 16.9428 22.436 17.5559 20.5237L17.7003 20.5962C17.3032 25.3587 14.0564 30.1207 9.00542 30.1207C3.91823 30.1207 0.166016 26.3327 0.166016 20.271C0.166016 15.7254 3.12439 12.8748 6.91286 10.313C6.3593 10.1678 5.78924 10.0951 5.21695 10.0966C2.61898 10.0966 1.1038 11.8645 1.1038 13.6686H0.887349C0.851096 13.4159 0.851096 13.1637 0.851096 12.911C0.851096 9.69994 2.547 5.80325 6.66015 5.80325C9.29384 5.80325 11.3144 8.22049 14.381 8.22049C15.6078 8.22049 17.123 7.6431 17.7361 6.30813H17.8443C17.8086 8.65393 17.0872 11.0712 13.8762 11.7568V11.7568ZM15.8242 25.4307C14.0201 27.3425 12.072 28.9664 9.54655 28.9664C4.85655 28.9664 1.24882 25.2862 1.24882 19.9463C1.24882 16.8077 2.54754 15.1123 3.99074 13.1275H3.84626C2.94419 14.0295 0.563202 16.3023 0.563202 20.1627C0.563202 26.08 4.27916 29.724 9.1499 29.724C12.5412 29.724 14.8502 27.3793 15.8967 25.4669L15.8242 25.4307V25.4307ZM17.2669 7.93259C16.6538 9.08683 15.3551 10.5658 12.7214 10.5658C10.0877 10.5658 7.67044 8.76162 5.54163 8.76162C3.59302 8.76162 2.25858 10.0609 1.75316 11.0349L1.78942 11.1074C2.47503 10.4218 3.52104 9.73619 5.21695 9.73619C8.03084 9.73619 9.83498 11.4684 12.6851 11.4684C15.716 11.4684 17.0867 9.48349 17.3394 7.96885L17.2669 7.93259V7.93259ZM7.237 10.4218C5.39715 12.3342 3.70124 14.4267 3.70124 18.5036C3.70124 20.7401 4.45883 23.0491 6.15474 24.4923L7.20075 23.9507V14.2822L6.22671 14.7871L6.04651 14.4262L11.0974 11.6837C9.72675 11.3958 8.5 10.7827 7.237 10.4218V10.4218ZM13.479 11.8288C13.2263 11.8645 12.9741 11.8645 12.6851 11.8645C12.1802 11.8645 11.7111 11.8288 11.2419 11.72V22.2548L6.51567 24.8176C7.48971 25.5389 8.6802 25.9718 10.1954 25.9718C11.4221 25.9718 12.5044 25.7191 13.4784 25.2862V11.8288H13.479V11.8288ZM8.28355 13.6691L7.59794 14.0658V23.7353L8.28355 23.3744V13.6691V13.6691ZM29.029 15.0398V27.5232C29.029 30.9865 25.9624 33.3323 22.5348 34.0174L22.4628 33.8729C24.1588 33.0428 25.1328 31.3474 25.1328 29.5433V16.627L23.1847 14.8596L22.4271 15.6892V25.7553L23.5094 26.7294V26.8019L20.5873 29.9767L17.2322 26.9101V26.7656L18.531 25.3944V9.44777L22.3552 5.37141L22.4271 5.40713V15.0761L25.5662 11.6848L28.8493 14.6437L29.4624 13.9938L29.7514 14.2471L29.029 15.0398V15.0398ZM18.9271 26.8376V26.7656L19.6847 26.0075V8.83413L18.9271 9.6285V25.6471L17.7723 26.8019V26.8739L20.5862 29.3993L21.0911 28.8219L18.9271 26.8376V26.8376ZM26.287 16.0496L23.9418 14.0295L23.4369 14.5707L25.5294 16.4473V29.4356C25.5294 30.3014 25.3492 31.2029 25.0246 31.7083L25.0608 31.7446C25.9629 31.0947 26.2876 30.1207 26.2876 28.8582V16.0496H26.287V16.0496ZM34.7655 22.2916V24.1314L38.265 26.8733L40.2856 24.7088L40.5746 24.9972L35.8846 30.0119L31.122 26.1877L30.4007 26.9453L30.1118 26.6569L30.9418 25.7911V16.6632L37.7607 11.6843L41.3327 17.4571L34.7655 22.2916V22.2916ZM32.0956 25.4669V16.3023L31.338 16.844V25.8279L35.812 29.4718L36.3894 28.8587L32.0956 25.4669V25.4669ZM34.838 14.3542L34.7655 14.3905V21.7867L37.9766 19.4414L34.838 14.3542ZM35.7758 13.6329L35.1264 14.1015L38.3018 19.1887L38.9512 18.7195L35.7758 13.6329V13.6329ZM64.8499 29.9762L59.8346 25.6466L56.0105 29.9762L50.815 25.5021V18.4311H49.8047C48.9027 18.4311 48.434 19.0085 48.2171 19.6936H48.1088C47.9937 19.2456 47.9332 18.7854 47.9286 18.3229C47.9286 17.3846 48.1813 14.9316 50.815 14.9316V8.7259C50.815 7.53541 49.4081 7.06625 49.4081 5.47857C49.4081 3.42279 51.3562 1.40221 54.9282 0.138672L55.0727 0.246899C53.7739 1.00502 53.0883 1.72635 53.0883 3.27778C53.0883 5.6593 55.3973 5.04566 55.3973 8.79787V10.2411L59.6187 5.80325L64.0565 10.1686L68.2417 5.80325L72.2823 9.77191V23.1211L64.8499 29.9762V29.9762ZM51.9698 24.9253V17.3131H49.9492C48.9027 17.3131 48.4341 17.9982 48.3615 18.6118L48.3973 18.6481C48.7582 18.2515 49.1191 18.035 49.9487 18.035H51.2112V25.323L55.9737 29.4361L56.5148 28.7862L51.9698 24.9253V24.9253ZM51.9698 8.36497C51.9698 6.88605 50.6711 6.38063 50.6711 5.44285C50.6711 4.14359 51.176 3.06186 51.9698 2.05157L51.8978 2.01585C50.8156 2.84594 49.8053 4.18091 49.8053 5.4791C49.8053 6.77835 51.2122 7.39146 51.2122 8.54623V14.9321H51.9698V8.36497ZM59.5825 11.9732L56.8405 9.30329L55.3973 10.7822V23.554L58.6804 26.3322L59.5825 25.3219V11.9732ZM60.7367 24.8533V11.4684L57.6701 8.43747L57.0927 9.01486L59.9791 11.7925V25.2499L64.8499 29.4713L65.4272 28.9296L60.7367 24.8533ZM67.7363 11.5041L65.4635 9.33901L64.1648 10.674V23.5183L67.7005 26.6206L67.7363 26.5849V11.5041V11.5041ZM68.8905 10.9992L66.2568 8.43747L65.7157 9.01486L68.1329 11.3239V26.4047L68.8905 25.6828V10.9992V10.9992ZM84.2208 29.9762L80.7933 26.8733L77.7267 29.9762L73.9745 26.6569L73.4691 27.198L73.1806 26.9096L73.83 26.224V16.5555L80.6131 11.6486L84.5098 14.6794L85.1954 13.9576L85.4844 14.2465L84.6905 15.0761V25.0703L86.6023 26.8376L87.216 26.1883L87.5044 26.441L84.2208 29.9762V29.9762ZM74.9848 25.9718V16.2303L74.2272 16.7715V26.3327L77.691 29.4356L78.2684 28.8582L74.9848 25.9718V25.9718ZM80.7933 16.483L77.8349 14.174L77.7267 14.2465V24.7451L80.1802 26.8733L80.7933 26.2602V16.483V16.483ZM81.9481 26.2965V15.9419L78.8815 13.4522L78.1601 13.957L81.1905 16.3386V26.6569L84.2214 29.3988L84.7625 28.8214L81.9481 26.2965V26.2965ZM94.7199 18.2147H98.4358V25.9355L92.6993 29.9762C91.9417 29.1104 90.8589 28.4973 89.5245 28.4973C88.4422 28.4973 87.5758 28.8582 86.4216 29.8322L86.2414 29.7597L91.1484 22.6162H88.1175V15.9056L94.143 11.7205C94.8644 12.2979 95.4055 12.6221 96.3438 12.6221C97.0657 12.6221 98.1117 12.4776 98.9055 11.8288L99.05 11.9007L94.7199 18.2147V18.2147ZM90.6792 27.4507C89.6327 27.4507 88.8031 27.8117 88.0813 28.3165V28.389C88.6587 28.1363 89.236 28.0644 89.7772 28.0644C90.6067 28.0644 91.906 28.4615 92.7718 29.4718L93.6019 28.8587C92.9157 28.0644 92.0862 27.4507 90.6792 27.4507V27.4507ZM94.5391 21.3895H92.5186L88.2972 27.4875L88.3334 27.5595C89.3795 26.8019 90.3897 26.297 91.6165 26.297C92.6988 26.297 93.8173 26.8019 94.5029 27.6677L94.5391 27.632V21.3895ZM89.2718 21.3895V15.5815L88.5142 16.1226V22.1839H91.4363L92.0137 21.39H89.2718V21.3895ZM96.8124 14.318C96.0549 14.8596 95.6219 15.1481 94.3589 15.1481C93.6371 15.1481 92.7713 14.8234 92.0862 14.1015L92.0142 14.1378V19.4052H93.3849L96.8487 14.3537L96.8124 14.318V14.318ZM95.0808 13.9933C94.4315 13.9933 93.6019 13.6691 93.0602 12.9473L92.1582 13.5604C92.8438 14.3905 93.4931 14.7509 94.5029 14.7509C95.1523 14.7509 96.0906 14.5701 97.0646 13.74L97.1003 13.6324C96.4878 13.8856 95.7302 13.9933 95.0808 13.9933V13.9933ZM95.6939 20.1995H93.3487L92.8075 20.9571H94.9363V27.9561L95.6939 27.415V20.1995ZM110.883 15.0398V27.5232C110.883 30.9865 107.816 33.3323 104.389 34.0174L104.317 33.8729C106.013 33.0428 106.987 31.3474 106.987 29.5433V16.627L105.039 14.8596L104.281 15.6892V25.7553L105.363 26.7294V26.8019L102.441 29.9767L99.0863 26.9101V26.7656L100.385 25.3944V9.44777L104.209 5.37141L104.281 5.40713V15.0761L107.42 11.6848L110.703 14.6437L111.316 13.9938L111.605 14.2471L110.883 15.0398V15.0398ZM100.781 26.8376V26.7656L101.539 26.0075V8.83413L100.781 9.62797V25.6466L99.6263 26.8014V26.8733L102.44 29.3988L102.945 28.8214L100.781 26.8376V26.8376ZM108.141 16.0496L105.796 14.0295L105.291 14.5707L107.383 16.4473V29.4356C107.383 30.3014 107.203 31.2029 106.879 31.7083L106.915 31.7446C107.817 31.0947 108.142 30.1207 108.142 28.8582V16.0496H108.141ZM117.45 29.9762L114.347 27.126L113.625 27.8836L113.336 27.5947L114.166 26.6931V16.2666L112.651 14.8234L112.073 15.4733L111.785 15.1843L115.031 11.6486L117.918 14.2465L118.64 13.4527L118.964 13.7054L118.062 14.6794V25.2147L119.794 26.8381L120.588 26.0081L120.877 26.297L117.45 29.9762V29.9762ZM115.321 26.441V15.6892L113.445 13.9576L112.94 14.535L114.563 16.0864V26.8019L117.45 29.3993L117.991 28.8219L115.321 26.441V26.441ZM116.403 11.3601L113.445 8.65446L116.151 5.76806L119.109 8.47373L116.403 11.3601ZM114.563 8.07654L114.022 8.61767L116.367 10.8185L116.908 10.2054L114.563 8.07654V8.07654ZM132.705 29.9762L129.566 27.126V16.5913L127.654 14.8596L126.644 15.9419V25.6828L127.762 26.7289V26.8733L124.804 29.9762L121.448 26.9096V26.8014L122.747 25.4307V16.3386L121.051 14.7871L120.366 15.5447L120.077 15.2563L123.361 11.6843L126.644 14.6069V15.3283L130.071 11.6843L133.282 14.5707L134.004 13.8131L134.328 14.1015L133.462 15.0036V25.3219L135.086 26.8371L135.88 25.9713L136.168 26.2597L132.705 29.9762V29.9762ZM123.18 26.8376V26.7656C123.18 26.8376 123.902 26.0438 123.902 26.0438V15.7969L121.845 13.9208L121.34 14.4619L123.144 16.1216V25.6461L122.026 26.8008V26.8728L124.804 29.3983L125.381 28.7852L123.18 26.8376V26.8376ZM130.72 26.5492V15.9782L128.484 13.9576L127.907 14.5707L129.963 16.4105V26.9096L132.669 29.4351L133.246 28.8214L130.72 26.5492V26.5492ZM142.879 36.4703C141.689 35.1716 140.859 34.6305 139.741 34.6305C138.55 34.6305 137.179 35.0996 135.772 35.8572L135.664 35.7495L140.643 29.9767L137.107 27.1628L136.421 27.8847L136.133 27.632L136.926 26.7662V16.5555L143.781 11.6486L147.605 14.6794L148.255 13.9576L148.544 14.2465L147.786 15.0761V27.4155C147.786 29.2916 148.832 29.2197 148.832 30.6261C148.832 32.2495 146.487 33.7647 142.879 36.4703ZM138.081 26.4767V16.2666L137.323 16.8082V26.8019L140.895 29.6883L141.436 29.0384L138.081 26.4767V26.4767ZM140.606 33.6927C139.416 33.6927 138.333 34.0536 137.323 34.7387V34.8112C137.973 34.5585 138.694 34.2338 139.921 34.2338C141.039 34.2338 141.977 34.8469 142.915 35.9297L143.637 35.3523C142.735 34.3063 141.652 33.6927 140.606 33.6927ZM145.008 30.2289C144.106 29.6515 143.889 29.0384 143.889 27.487V26.8371L137.9 33.7641L137.936 33.7998C139.091 33.1148 140.137 32.6099 141.833 32.6099C143.276 32.6099 144.25 33.1867 145.369 34.1251C146.055 33.5477 146.523 32.9708 146.523 32.0687C146.523 31.3474 145.909 30.8063 145.008 30.2289V30.2289ZM143.889 16.483L140.895 14.1383L140.822 14.2103V25.2862L143.132 27.0903L143.889 26.2245V16.483V16.483ZM146.09 29.724C145.152 29.0021 145.044 28.389 145.044 26.8376V15.8699L142.013 13.4164L141.328 13.8856L144.286 16.2303V27.3425C144.286 28.8939 144.359 29.3274 145.333 29.9762C146.198 30.5536 146.884 31.1667 146.884 31.9968C146.884 32.2127 146.848 32.5736 146.848 32.5736L146.884 32.6099C147.064 32.4291 147.281 32.1407 147.281 31.6716C147.281 30.8783 146.884 30.3371 146.09 29.724V29.724ZM154.749 29.9762L151.43 27.3787L150.745 28.1363L150.456 27.8474L151.249 26.9816V14.3542H149.157L149.084 14.2822L150.347 12.4056H151.249V9.9889L155.074 5.91201L155.146 5.98451V12.4061H158.032L158.104 12.4786L156.841 14.3548H155.146V25.2867L157.13 26.8024L157.888 25.9723L158.176 26.2608L154.749 29.9762V29.9762ZM152.404 9.37526L151.647 10.2054V12.4061H152.404V9.37526ZM152.404 26.6212V14.3542H151.647V27.0541L154.713 29.4356L155.254 28.8582L152.404 26.6212V26.6212ZM169.974 15.4008V25.5026L163.877 30.0124L159.294 26.5492L158.753 27.1623L158.465 26.8733L159.114 26.152V16.2666L165.501 11.6843L169.758 15.0041L170.443 14.2822L170.732 14.5707L169.974 15.4008V15.4008ZM160.27 25.7916V15.9419L159.511 16.483V26.1883L163.841 29.5076L164.527 29.0027L160.27 25.7916V25.7916ZM166.078 16.5913L163.047 14.2097L163.011 14.246V24.9972L166.078 27.3062V16.5913ZM167.233 15.9419L163.877 13.3439L163.192 13.8488L166.475 16.3743V27.5952L167.233 27.0183V15.9419ZM183.757 29.9762L180.618 27.126V16.5913L178.705 14.8596L177.695 15.9419V25.6828L178.814 26.7289V26.8733L175.855 29.9762L172.5 26.9096V26.8014L173.799 25.4307V16.3386L172.103 14.7871L171.417 15.5447L171.129 15.2563L174.412 11.6843L177.695 14.6069V15.3283L181.123 11.6843L184.334 14.5707L185.055 13.8131L185.38 14.1015L184.514 15.0036V25.3219L186.137 26.8371L186.931 25.9713L187.22 26.2597L183.757 29.9762V29.9762ZM174.231 26.8376V26.7656C174.231 26.8376 174.953 26.0438 174.953 26.0438V15.7969L172.897 13.9208L172.392 14.4619L174.196 16.1216V25.6461L173.078 26.8008V26.8728L175.856 29.3983L176.433 28.7852L174.231 26.8376V26.8376ZM181.772 26.5492V15.9782L179.535 13.9576L178.958 14.5707L181.014 16.4105V26.9096L183.72 29.4351L184.297 28.8214L181.772 26.5492V26.5492ZM206.045 29.9762C205.035 28.8939 204.674 28.533 203.483 28.2083V35.2798L203.411 35.3155L201.968 34.0163L197.783 37.8767L197.71 37.841V28.1363C196.448 28.4248 195.113 29.0747 193.813 30.3728L193.741 30.3371C193.994 27.5589 195.365 25.5026 197.71 24.7088V17.6735H196.952C195.906 17.6735 195.329 18.2147 194.824 19.1887H194.715C194.607 18.8646 194.535 18.3586 194.535 17.5296C194.535 16.0139 195.653 14.4267 197.494 14.4267H197.71V10.53L196.231 9.19506L195.509 9.91693L195.256 9.66422L198.9 5.80378L202.291 8.90663V12.1897L203.085 11.3239V7.17447H203.482V10.9629L208.28 5.80325L212.357 9.51974V25.2142L206.045 29.9762V29.9762ZM197.711 26.8014C196.232 27.0898 195.186 27.9919 194.501 29.1823L194.536 29.2549C195.547 28.389 196.484 27.9924 197.711 27.7034V26.8014V26.8014ZM198.866 16.4473H196.882C195.51 16.4473 194.969 17.3131 194.934 18.3234L194.969 18.3591C195.402 17.6373 195.835 17.3851 196.701 17.2774H198.108V36.94L198.866 36.2181V16.4473V16.4473ZM198.866 9.95265L197.062 8.29353L196.484 8.90663L198.108 10.3493V14.4262H198.866V9.95265V9.95265ZM203.087 12.009L202.293 12.839V33.7289L203.087 34.4508V12.009V12.009ZM207.814 11.1794L205.685 9.23131L203.484 11.6128V24.3121C205.36 24.4929 206.659 25.034 207.777 26.2602L207.814 26.2245V11.1794V11.1794ZM203.484 26.8014V27.7397C204.711 28.0281 205.216 28.389 206.081 29.3988L206.911 28.7494C206.045 27.6672 205.179 27.0183 203.484 26.8014V26.8014ZM208.968 10.6025L206.514 8.32925L205.937 8.94235L208.21 11.0349V27.8117L208.968 27.2343V10.6025V10.6025ZM224.951 15.4008V25.5026L218.853 30.0124L214.271 26.5492L213.729 27.1623L213.441 26.8733L214.09 26.152V16.2666L220.477 11.6843L224.734 15.0041L225.419 14.2822L225.708 14.5707L224.951 15.4008V15.4008ZM215.245 25.7916V15.9419L214.487 16.483V26.1883L218.817 29.5076L219.503 29.0027L215.245 25.7916V25.7916ZM221.054 16.5913L218.024 14.2097L217.987 14.246V24.9972L221.054 27.3062V16.5913ZM222.209 15.9419L218.853 13.3439L218.168 13.8488L221.451 16.3743V27.5952L222.209 27.0183V15.9419ZM233.32 18.2147H237.037V25.9355L231.3 29.9762C230.543 29.1104 229.461 28.4973 228.126 28.4973C227.043 28.4973 226.177 28.8582 225.023 29.8322L224.842 29.7597L229.749 22.6162H226.718V15.9056L232.744 11.7205C233.465 12.2979 234.006 12.6221 234.944 12.6221C235.666 12.6221 236.712 12.4776 237.506 11.8288L237.651 11.9007L233.32 18.2147ZM229.28 27.4507C228.234 27.4507 227.404 27.8117 226.682 28.3165V28.389C227.26 28.1363 227.837 28.0644 228.378 28.0644C229.208 28.0644 230.507 28.4615 231.372 29.4718L232.202 28.8587C231.517 28.0644 230.687 27.4507 229.28 27.4507V27.4507ZM233.141 21.3895H231.12L226.899 27.4875L226.935 27.5595C227.981 26.8019 228.991 26.297 230.218 26.297C231.3 26.297 232.419 26.8019 233.104 27.6677L233.14 27.632V21.3895H233.141ZM227.873 21.3895V15.5815L227.115 16.1226V22.1839H230.037L230.615 21.39H227.873V21.3895ZM235.413 14.318C234.655 14.8596 234.223 15.1481 232.959 15.1481C232.238 15.1481 231.372 14.8234 230.687 14.1015L230.614 14.1378V19.4052H231.985L235.449 14.3537L235.413 14.318V14.318ZM233.681 13.9933C233.032 13.9933 232.202 13.6691 231.661 12.9473L230.759 13.5604C231.445 14.3905 232.094 14.7509 233.104 14.7509C233.754 14.7509 234.692 14.5701 235.666 13.74L235.702 13.6324C235.089 13.8856 234.331 13.9933 233.681 13.9933V13.9933ZM234.295 20.1995H231.95L231.409 20.9571H233.537V27.9561L234.295 27.415V20.1995ZM243.026 29.9762L239.707 27.3787L239.021 28.1363L238.733 27.8474L239.526 26.9816V14.3542H237.434L237.362 14.2822L238.624 12.4056H239.526V9.9889L243.35 5.91201L243.423 5.98451V12.4061H246.309L246.381 12.4786L245.118 14.3548H243.423V25.2867L245.407 26.8024L246.165 25.9723L246.453 26.2608L243.026 29.9762V29.9762ZM240.681 9.37526L239.923 10.2054V12.4061H240.681V9.37526ZM240.681 26.6212V14.3542H239.923V27.0541L242.99 29.4356L243.531 28.8582L240.681 26.6212Z" fill="#1D2231"></path></svg> 